<?xml version="1.0" standalone="no"?>
<!DOCTYPE svg PUBLIC "-//W3C//DTD SVG 1.1//EN" "http://www.w3.org/Graphics/SVG/1.1/DTD/svg11.dtd" >
<svg xmlns="http://www.w3.org/2000/svg">
<metadata></metadata>
<defs>
<font id="256_bytesregular" horiz-adv-x="1011" >
<font-face units-per-em="2048" ascent="1434" descent="-614" />
<missing-glyph horiz-adv-x="497" />
<glyph horiz-adv-x="0" />
<glyph unicode="&#xd;" horiz-adv-x="497" />
<glyph horiz-adv-x="497" />
<glyph unicode=" "  horiz-adv-x="497" />
<glyph unicode="&#x09;" horiz-adv-x="497" />
<glyph unicode="&#xa0;" horiz-adv-x="497" />
<glyph unicode="!" horiz-adv-x="647" d="M92 115v229q0 49 34 83t81 34h59v999q0 78 60 78q55 0 55 -78v-999h57q49 0 82 -34t33 -83v-229q0 -49 -33 -82t-82 -33h-231q-47 0 -81 33t-34 82z" />
<glyph unicode="&#x22;" horiz-adv-x="919" d="M80 924v497q0 115 115 115h67q115 0 115 -115v-497q0 -115 -115 -115h-67q-115 0 -115 115zM539 924v497q0 115 115 115h67q115 0 115 -115v-497q0 -115 -115 -115h-67q-115 0 -115 115z" />
<glyph unicode="#" horiz-adv-x="1204" d="M70 555v43q0 74 75 74h166v196h-166q-76 0 -75 76v43q0 74 75 74h166v186q0 74 74 74h43q76 0 76 -74v-186h196v186q0 74 74 74h43q76 0 76 -74v-186h166q74 0 74 -74v-43q0 -76 -74 -76h-166v-196h166q74 0 74 -74v-43q0 -76 -74 -76h-166v-184q0 -74 -76 -74h-43 q-74 0 -74 74v184h-196v-184q0 -74 -76 -74h-43q-74 0 -74 74v184h-166q-76 0 -75 76zM504 672h196v196h-196v-196z" />
<glyph unicode="$" d="M92 403v103q0 57 55 57q41 0 51.5 -22.5t12.5 -51.5q2 -27 13.5 -38t39.5 -11h232q55 0 55 60v116q0 61 -55 62h-289q-47 0 -81 27.5t-34 72.5v316q0 49 34 82.5t81 33.5h211v131q0 66 69 66h60q66 0 65 -66v-131h191q47 0 82 -26.5t35 -89.5v-127q0 -47 -60 -47 q-37 0 -48 17t-11 40q0 43 -13.5 61.5t-42.5 18.5h-481q-57 0 -57 -60v-100q0 -63 57 -63h551q104 0 105 -111v-320q0 -115 -117 -114h-191v-131q0 -68 -67 -68h-60q-68 0 -67 68v131h-211q-53 0 -84 25.5t-31 88.5z" />
<glyph unicode="%" horiz-adv-x="1402" d="M92 1036v385q0 115 115 115h305q117 0 117 -115v-385q0 -115 -117 -114h-305q-115 0 -115 114zM207 0l825 1536h166l-825 -1536h-166zM772 115v383q0 115 115 114h305q117 0 117 -114v-383q0 -115 -117 -115h-305q-115 0 -115 115z" />
<glyph unicode="&#x26;" horiz-adv-x="989" d="M92 115v299q0 102 101 127q-100 25 -101 127v753q0 53 34 84t81 31h330v-537h-228q-63 0 -63 -57v-276q0 -51 57 -52h352v189q0 72 78 71q76 0 76 -71v-189h65q39 0 53.5 -21.5t14.5 -55.5q0 -33 -13.5 -54.5t-47.5 -21.5h-72v-309h59q43 0 58.5 -19.5t15.5 -54.5 q0 -78 -80 -78h-655q-47 0 -81 33t-34 82zM246 211q0 -59 57 -59h352v309h-352q-23 0 -40 -19.5t-17 -42.5v-188z" />
<glyph unicode="'" horiz-adv-x="458" d="M80 924v497q0 115 115 115h67q115 0 115 -115v-497q0 -115 -115 -115h-67q-115 0 -115 115z" />
<glyph unicode="(" horiz-adv-x="636" d="M168 727q0 115 9 240t34 248.5t65.5 243.5t104.5 224q27 43 53.5 66t73.5 23q33 0 53.5 -18.5t20.5 -57.5q0 -23 -9.5 -42.5t-21.5 -37.5q-23 -33 -34 -56.5t-23 -46.5q-37 -70 -66 -177t-48.5 -222t-29.5 -219t-10 -168q0 -61 10 -166.5t29.5 -219.5t48.5 -222.5 t66 -175.5q12 -23 23 -46.5t34 -56.5q12 -18 21.5 -37.5t9.5 -44.5q0 -37 -20.5 -55t-53.5 -18q-47 0 -73.5 22.5t-53.5 65.5q-63 104 -104 223t-66 244t-34 248.5t-9 238.5z" />
<glyph unicode=")" horiz-adv-x="636" d="M55 -242q0 25 9.5 44.5t23.5 37.5q20 33 31.5 56.5t25.5 46.5q37 68 66 176t47 222t28.5 219.5t10.5 166.5q0 63 -10.5 167.5t-28.5 219.5t-47 222.5t-66 176.5q-14 23 -25 46.5t-32 56.5q-14 18 -23.5 37.5t-9.5 42.5q0 39 21.5 57.5t52.5 18.5q47 0 73.5 -23t53.5 -66 q63 -104 104 -224t66 -243.5t34 -248.5t9 -240t-9 -238.5t-34 -248.5t-66 -244t-104 -223q-27 -43 -53.5 -65.5t-73.5 -22.5q-31 0 -52.5 18t-21.5 55z" />
<glyph unicode="*" horiz-adv-x="854" d="M68 987q0 25 26 37l209 121l-207 119q-27 12 -26 36q0 6 3 14.5t13 24.5q14 23 23.5 32t19.5 9t31 -10l207 -121v240q0 49 49 49h26q49 0 50 -49v-242l206 121q10 8 27 8q10 0 20.5 -8t24.5 -31q10 -16 12 -24t2 -15q0 -27 -24 -36l-209 -121l207 -121q27 -14 26 -37 q0 -12 -16 -39q-12 -23 -22.5 -31t-22.5 -8t-27 8l-209 121v-237q0 -49 -49 -49h-26q-47 0 -50 49v239l-204 -118q-16 -10 -29 -11q-10 0 -20.5 9.5t-24.5 31.5q-10 16 -13 24.5t-3 14.5z" />
<glyph unicode="+" horiz-adv-x="1021" d="M92 745v35q0 59 60 60h282v280q0 59 60 60h36q59 0 60 -60v-280h280q59 0 60 -60v-35q0 -61 -60 -61h-280v-283q0 -59 -60 -59h-36q-59 0 -60 59v283h-282q-59 0 -60 61z" />
<glyph unicode="," horiz-adv-x="622" d="M70 270v74q0 117 114 117h232q115 0 114 -117v-438q0 -80 -73 -80h-70q-66 0 -65 80v246h-138q-115 0 -114 118z" />
<glyph unicode="-" horiz-adv-x="706" d="M55 829v35q0 59 60 60h477q59 0 59 -60v-35q0 -61 -59 -61h-477q-59 0 -60 61z" />
<glyph unicode="." horiz-adv-x="647" d="M92 115v229q0 117 115 117h231q115 0 115 -117v-229q0 -115 -115 -115h-231q-115 0 -115 115z" />
<glyph unicode="/" horiz-adv-x="802" d="M0 0l649 1536h154l-656 -1536h-147z" />
<glyph unicode="0" d="M92 115v1306q0 47 34 81t81 34h596q49 0 83 -34t34 -81v-1306q0 -49 -34 -82t-83 -33h-596q-47 0 -81 33t-34 82zM219 596q0 -59 55 -59h471q57 0 58 59v346q0 55 -58 55h-471q-55 0 -55 -55v-346z" />
<glyph unicode="1" horiz-adv-x="413" d="M39 1438v45q0 53 57 53h74q49 0 82 -26.5t33 -88.5v-1421h-115v1341q0 23 -10 36.5t-43 13.5h-29q-20 0 -34.5 11t-14.5 36z" />
<glyph unicode="2" d="M92 0v702q0 45 34 73t81 28h289q57 0 57 59v463q0 59 -57 59h-230q-59 0 -59 -59v-235q0 -57 -60 -58q-55 0 -55 58v331q0 47 34 81t81 34h596q47 0 82 -34t35 -81v-665q0 -109 -105 -109h-549q-59 0 -59 -63v-432h596v274q0 20 11 29.5t26 9.5h43q37 0 37 -39v-426h-828 z" />
<glyph unicode="3" horiz-adv-x="960" d="M78 59v29q0 33 13 48.5t48 15.5h510q66 0 66 59v188q0 61 -58 62h-491q-35 0 -52.5 17.5t-17.5 41.5v33q0 29 17.5 45t52.5 16h491q57 0 58 52v276q0 23 -9.5 39t-41.5 16h-570v539h660q49 0 81.5 -34t32.5 -81v-753q0 -102 -98 -127q98 -25 98 -127v-299 q0 -53 -30.5 -84t-83.5 -31h-615q-29 0 -45 12.5t-16 46.5z" />
<glyph unicode="4" horiz-adv-x="903" d="M68 500v1036h114v-557q0 -33 10.5 -45t49.5 -12h325v227q0 41 41 41h35q39 0 39 -41v-227h166v-537h-166v-385h-115v385h-385q-55 0 -84.5 25.5t-29.5 89.5z" />
<glyph unicode="5" horiz-adv-x="1013" d="M92 115v301q0 49 60 49q57 0 57 -49v-205q0 -59 57 -59h479q59 0 60 59v373q0 63 -60 63h-653v889h819v-463q0 -23 -13 -32t-32 -9h-32q-16 0 -26.5 9.5t-10.5 31.5v311h-338v-581h346q115 0 115 -101v-587q0 -59 -33 -87t-82 -28h-596q-47 0 -82 27.5t-35 87.5z" />
<glyph unicode="6" d="M92 115v1306q0 47 34 81t81 34h596q49 0 83 -34t34 -81v-331q0 -57 -60 -58q-57 0 -57 58v235q0 59 -58 59h-235q-59 0 -59 -59v-477h348q121 0 121 -123v-610q0 -47 -34 -81t-83 -34h-596q-47 0 -81 34t-34 81zM451 211q0 -59 59 -59h235q57 0 58 59v432q0 70 -58 70 h-294v-502z" />
<glyph unicode="7" horiz-adv-x="849" d="M57 997v539h654q111 0 110 -94q0 -39 -16 -80l-457 -1362h-133l309 907q6 16 7 26.5t1 20.5q0 23 -12 33t-47 10h-416z" />
<glyph unicode="8" d="M92 115v653q0 53 66 78q-66 18 -66 76v499q0 47 34 81t81 34h596q49 0 83 -34t34 -81v-499q0 -53 -66 -76q66 -12 66 -78v-653q0 -49 -34 -82t-83 -33h-596q-47 0 -81 33t-34 82zM219 596q0 -59 55 -59h471q57 0 58 59v127q0 57 -58 57h-471q-55 0 -55 -57v-127zM219 973 q0 -57 55 -58h471q57 0 58 58v352q0 59 -58 59h-471q-55 0 -55 -59v-352z" />
<glyph unicode="9" d="M92 115v346q0 43 39 43h39q39 0 39 -43v-250q0 -57 55 -57h481q57 0 58 57v477h-588q-123 0 -123 125v606q0 59 35 88t82 29h594q47 0 82 -28.5t35 -88.5v-1304q0 -49 -35 -82t-82 -33h-594q-47 0 -82 29.5t-35 85.5zM209 895q0 -72 55 -72h539v117q0 57 -58 57h-481 q-55 0 -55 -57v-45z" />
<glyph unicode=":" horiz-adv-x="647" d="M92 115v229q0 117 115 117h231q115 0 115 -117v-229q0 -115 -115 -115h-231q-115 0 -115 115zM92 805v229q0 117 115 117h231q115 0 115 -117v-229q0 -115 -115 -115h-231q-115 0 -115 115z" />
<glyph unicode=";" horiz-adv-x="647" d="M92 807v229q0 117 115 117h231q115 0 115 -117v-229q0 -115 -115 -115h-231q-115 0 -115 115zM94 270v74q0 117 115 117h229q115 0 115 -117v-438q0 -80 -72 -80h-69q-66 0 -66 80v246h-137q-115 0 -115 118z" />
<glyph unicode="&#x3c;" horiz-adv-x="1021" d="M92 715v51q0 29 33 47l696 401q18 12 35 13q12 0 25.5 -9.5t23.5 -31.5q16 -27 20.5 -39t4.5 -21q0 -27 -31 -45l-592 -340l592 -342q31 -16 31 -43q0 -10 -4 -21t-17 -34q-14 -29 -27.5 -37t-25.5 -8q-14 0 -35 10l-696 402q-33 20 -33 47z" />
<glyph unicode="=" horiz-adv-x="1021" d="M92 559v35q0 59 60 59h718q59 0 60 -59v-35q0 -61 -60 -61h-718q-59 0 -60 61zM92 930v35q0 59 60 59h718q59 0 60 -59v-35q0 -61 -60 -62h-718q-59 0 -60 62z" />
<glyph unicode="&#x3e;" horiz-adv-x="1021" d="M92 356q0 27 33 43l590 342l-590 340q-33 20 -33 45q0 8 4 20.5t21 39.5q10 23 23.5 32t25.5 9q14 0 37 -13l696 -401q31 -18 31 -47v-51q0 -27 -31 -47l-696 -402q-10 -4 -18.5 -7t-18.5 -3q-12 0 -25.5 8t-27.5 37q-12 23 -16.5 34t-4.5 21z" />
<glyph unicode="?" horiz-adv-x="946" d="M57 1073v348q0 115 115 115h594q49 0 82 -34t33 -81v-665q0 -109 -101 -109h-303q-55 0 -55 -63v-123h63q115 0 115 -117v-229q0 -115 -115 -115h-231q-117 0 -117 115v229q0 117 117 117h53v241q0 100 101 101h47q63 0 63 59v463q0 59 -59 59h-230q-57 0 -57 -59v-252 q0 -41 -41 -41h-37q-37 0 -37 41z" />
<glyph unicode="@" horiz-adv-x="1193" d="M92 -37v1305q0 47 34 81.5t81 34.5h541q47 0 80.5 -33.5t33.5 -82.5v-953q0 -14 -9 -29.5t-22.5 -27.5t-31 -20.5t-33.5 -8.5h-289q-47 0 -81 35t-34 82v537q0 49 34 81.5t81 32.5h271v174q0 59 -60 60h-420q-59 0 -59 -60v-1112q0 -59 59 -59h690q59 0 60 59v881 q0 29 12 43t31 14h24q47 0 48 -57v-977q0 -49 -34 -82t-81 -33h-811q-47 0 -81 33t-34 82zM479 440q0 -55 58 -55h151q59 0 60 55v346q0 59 -60 60h-151q-57 0 -58 -60v-346z" />
<glyph unicode="A" horiz-adv-x="980" d="M29 0l309 1536h217q104 0 127 -106l268 -1430h-344l-76 422h-313l-90 -422h-98zM250 575h256l-119 660z" />
<glyph unicode="B" d="M92 0v1536h711q117 0 117 -115v-499q0 -53 -66 -76q66 -12 66 -78v-653q0 -49 -32 -82t-85 -33h-711zM219 537h526q57 0 58 59v127q0 57 -58 57h-526v-243zM219 911h526q57 0 58 58v356q0 59 -58 59h-526v-473z" />
<glyph unicode="C" horiz-adv-x="976" d="M92 115v1306q0 47 34 81t81 34h596q117 0 117 -115v-342q0 -23 -12.5 -35t-26.5 -12h-39q-16 0 -27.5 12.5t-11.5 34.5v246q0 59 -58 59h-231q-57 0 -57 -59v-1114q0 -59 57 -59h231q57 0 58 59v213q0 20 12 30.5t31 10.5h33q16 0 28.5 -10.5t12.5 -30.5v-309 q0 -49 -29 -82t-88 -33h-596q-55 0 -85 30.5t-30 84.5z" />
<glyph unicode="D" d="M92 0v1536h711q47 0 82 -34t35 -81v-1306q0 -49 -35 -82t-82 -33h-711zM207 152h289q57 0 57 59v1114q0 59 -57 59h-289v-1232z" />
<glyph unicode="E" horiz-adv-x="927" d="M92 115v1306q0 53 29 84t88 31h606q29 0 46.5 -15.5t17.5 -39.5v-39q0 -57 -64 -58h-299q-33 0 -46 -12t-13 -49v-186q0 -33 11 -47.5t46 -14.5h297q57 0 57 -53v-45q0 -55 -57 -55h-297q-57 0 -57 -60v-266q0 -37 11 -48t46 -11h358v-537h-663q-47 0 -82 30.5t-35 84.5z " />
<glyph unicode="F" horiz-adv-x="907" d="M92 0v1421q0 53 27.5 84t87.5 31h667v-539h-354q-66 0 -65 -59v-272q0 -53 59 -54h301q55 0 55 -53v-45q0 -20 -14 -36.5t-41 -16.5h-301q-29 0 -44 -16.5t-15 -45.5v-399h-363z" />
<glyph unicode="G" horiz-adv-x="1007" d="M92 115v1306q0 55 31 85t84 30h590q115 0 114 -115v-348q0 -41 -37 -41h-43q-35 0 -34 41v252q0 59 -60 59h-461q-55 0 -55 -59v-729q0 -59 55 -59h469q35 0 46.5 11t11.5 48v66q0 31 -8.5 41t-32.5 10h-219q-29 0 -39 13t-10 42v27q0 27 10 40t39 13h274q57 0 80 -24.5 t23 -78.5v-630q0 -53 -32 -84t-85 -31h-596q-57 0 -86 33t-29 82z" />
<glyph unicode="H" d="M92 0v1536h363v-612q0 -41 39 -41h270q23 0 31 10t8 31v612h117v-1536h-117v686q0 27 -8.5 35t-30.5 8h-270q-23 0 -31 -8t-8 -35v-686h-363z" />
<glyph unicode="I" horiz-adv-x="550" d="M92 0v1536h365v-1536h-365z" />
<glyph unicode="J" horiz-adv-x="731" d="M10 0v537h453q59 0 59 59v940h115v-1421q0 -49 -33 -82t-82 -33h-512z" />
<glyph unicode="K" horiz-adv-x="1017" d="M92 0v1536h365v-623q0 -39 22 -39h25q25 0 35 23l321 639h117l-352 -696h227q43 0 62.5 -17.5t19.5 -62.5v-760h-117v690q0 20 -7 29.5t-30 9.5h-282q-41 0 -41 -51v-678h-365z" />
<glyph unicode="L" horiz-adv-x="755" d="M92 115v1421h115v-940q0 -59 57 -59h455v-537h-512q-57 0 -86 24.5t-29 90.5z" />
<glyph unicode="M" horiz-adv-x="1261" d="M92 0v1419q0 117 117 117h346q57 0 76 -55q20 55 78 55h346q57 0 85.5 -30.5t28.5 -86.5v-1419h-309v1325q0 59 -53 59h-62q-55 0 -55 -59v-1325h-117v1325q0 59 -53 59h-63q-55 0 -56 -59v-1325h-309z" />
<glyph unicode="N" horiz-adv-x="1013" d="M92 0v1536h711q53 0 85 -28.5t32 -88.5v-1419h-117v1335q0 23 -9.5 35t-37.5 12h-297v-1382h-367z" />
<glyph unicode="O" horiz-adv-x="1013" d="M92 115v1306q0 59 33 87t86 28h594q49 0 82 -34t33 -81v-1306q0 -53 -31 -84t-84 -31h-594q-59 0 -89 30.5t-30 84.5zM459 211q0 -59 57 -59h232q57 0 57 59v1114q0 33 -11.5 46t-45.5 13h-232q-33 0 -45 -14t-12 -45v-1114z" />
<glyph unicode="P" horiz-adv-x="972" d="M92 0v1536h711q115 0 115 -115v-792q0 -55 -34 -86t-81 -31h-346v-512h-365zM457 666h288q35 0 46.5 12t11.5 41v606q0 33 -12.5 46t-45.5 13h-288v-718z" />
<glyph unicode="Q" d="M92 115v1306q0 115 115 115h596q117 0 117 -115v-1306q0 -115 -117 -115h-111v-133h-114v133h-371q-53 0 -84 29.5t-31 85.5zM459 211q0 -31 11 -45t44 -14h231q57 0 58 59v1114q0 29 -10.5 44t-47.5 15h-231q-31 0 -43 -12t-12 -47v-1114z" />
<glyph unicode="R" d="M92 0v1536h711q117 0 117 -115v-600q0 -84 -66 -96q29 -6 47.5 -37t18.5 -59v-629h-117v604q0 29 -10.5 38t-38.5 9h-297v-651h-365zM457 797h297q29 0 39 9t10 38v491q0 29 -9.5 39t-37.5 10h-299v-587z" />
<glyph unicode="S" horiz-adv-x="1003" d="M88 115v340q0 29 11.5 40t33.5 11h25q27 0 36 -11.5t9 -39.5v-252q0 -29 11 -40t40 -11h246q29 0 39 11t10 40v479q0 33 -10.5 44t-38.5 11h-297q-63 0 -89 24.5t-26 92.5v567q0 47 34 81t81 34h592q57 0 85.5 -26.5t28.5 -88.5v-307q0 -41 -43 -41h-28q-18 0 -30.5 9.5 t-12.5 31.5v217q0 29 -11.5 41t-40.5 12h-481q-59 0 -59 -59v-383q0 -33 11 -43t40 -10h555q55 0 80.5 -26.5t25.5 -86.5v-661q0 -53 -29.5 -84t-84.5 -31h-598q-115 0 -115 115z" />
<glyph unicode="T" horiz-adv-x="899" d="M37 997v539h825v-539h-293q-33 0 -42 -10t-9 -49v-938h-115v938q0 37 -10 48t-45 11h-311z" />
<glyph unicode="U" d="M92 115v1421h367v-946q0 -29 10 -41t39 -12h295v999h117v-1421q0 -115 -117 -115h-596q-115 0 -115 115z" />
<glyph unicode="V" horiz-adv-x="985" d="M29 1536h348l215 -1235l258 1235h104l-309 -1536h-217q-106 0 -127 106z" />
<glyph unicode="W" horiz-adv-x="1261" d="M92 117v1419h307v-1325q0 -59 56 -59h61q55 0 55 59v1325h115v-1325q0 -59 55 -59h62q57 0 57 59v1325h309v-1419q0 -117 -116 -117h-346q-55 0 -78 53q-18 -53 -78 -53h-344q-57 0 -86 30.5t-29 86.5z" />
<glyph unicode="X" horiz-adv-x="1060" d="M29 0l362 723l-358 813h348l209 -530l270 530h117l-332 -655l385 -881h-344l-242 598l-292 -598h-123z" />
<glyph unicode="Y" horiz-adv-x="958" d="M68 563v973h114v-934h291q29 0 41 10.5t12 38.5v885h365v-973q0 -53 -31 -83.5t-84 -30.5h-244v-449h-116v449h-234q-57 0 -85.5 30.5t-28.5 83.5z" />
<glyph unicode="Z" horiz-adv-x="1038" d="M29 0l575 1384h-538v152h944l-566 -1384h533v-152h-948z" />
<glyph unicode="[" horiz-adv-x="614" d="M174 -201v1856q0 49 33 83t82 34h289v-187h-232q-57 0 -57 -59v-1596q0 -59 57 -59h232v-186h-289q-49 0 -82 33.5t-33 80.5z" />
<glyph unicode="\" horiz-adv-x="802" d="M0 1536h150l653 -1536h-150z" />
<glyph unicode="]" horiz-adv-x="614" d="M37 -129h231q57 0 58 59v1596q0 59 -58 59h-231v187h289q49 0 81.5 -34t32.5 -83v-1856q0 -47 -32.5 -80.5t-81.5 -33.5h-289v186z" />
<glyph unicode="^" horiz-adv-x="1036" d="M33 772q0 16 12 35l401 696q18 33 48 33h51q27 0 45 -33l403 -696q10 -20 11 -35q0 -12 -8.5 -25.5t-32.5 -23.5q-27 -16 -38.5 -20.5t-21.5 -4.5q-29 0 -43 31l-342 592l-340 -592q-18 -31 -45 -31q-8 0 -19.5 4.5t-33.5 16.5q-29 14 -38 27.5t-9 25.5z" />
<glyph unicode="_" horiz-adv-x="858" d="M10 -117q0 59 58 60h718q59 0 60 -60v-35q0 -61 -60 -61h-718q-57 0 -58 61v35z" />
<glyph unicode="`" horiz-adv-x="571" d="M92 1583q0 16 25 16h172q23 0 34 -7t21 -33l129 -308q4 -12 4 -20q0 -16 -22 -17h-123q-27 0 -39 6.5t-27 34.5l-166 310q-6 6 -7 10t-1 8z" />
<glyph unicode="a" horiz-adv-x="1013" d="M29 0l323 1153h219q104 0 125 -80l285 -1073h-363l-73 303h-314l-86 -303h-116zM283 467h221l-101 414z" />
<glyph unicode="b" horiz-adv-x="1017" d="M92 0v1153h715q70 0 94.5 -28.5t24.5 -80.5v-358q0 -39 -39 -51q23 -4 31 -18.5t8 -38.5v-469q0 -53 -28 -81t-91 -28h-715zM223 438h541q25 0 32 8.5t7 24.5v66q0 16 -6 24t-31 8h-543v-131zM223 692h543q25 0 31 8.5t6 24.5v233q0 14 -7.5 22.5t-31.5 8.5h-541v-297z " />
<glyph unicode="c" horiz-adv-x="985" d="M92 109v935q0 53 27.5 81t93.5 28h592q121 0 121 -109v-245q0 -23 -8.5 -30t-24.5 -7h-51q-23 0 -31 7t-8 30v159q0 14 -8.5 22.5t-30.5 8.5h-260q-23 0 -31 -8t-8 -23v-761q0 -16 8 -24.5t31 -8.5h260q23 0 31 8t8 25v127q0 35 39 34h47q37 0 37 -34v-215q0 -53 -32 -81 t-89 -28h-592q-61 0 -91 33t-30 76z" />
<glyph unicode="d" horiz-adv-x="1019" d="M92 0v1153h717q119 0 119 -109v-935q0 -55 -33 -82t-86 -27h-717zM217 164h295q41 0 41 33v761q0 31 -41 31h-295v-825z" />
<glyph unicode="e" horiz-adv-x="929" d="M92 96v961q0 41 23.5 68.5t83.5 27.5h618q63 0 64 -41v-80q0 -45 -64 -45h-297q-35 0 -48 -8t-13 -37v-76q0 -25 12 -34t47 -9h295q57 0 57 -41v-82q0 -41 -57 -41h-295q-59 0 -59 -45v-165q0 -29 11 -37.5t48 -8.5h356v-403h-675q-49 0 -78 27.5t-29 68.5z" />
<glyph unicode="f" horiz-adv-x="952" d="M92 0v1067q0 41 27.5 63.5t89.5 22.5h711v-440h-400q-59 0 -59 -45v-136q0 -18 10 -28t43 -10h346q55 0 55 -39v-82q0 -16 -14 -28.5t-41 -12.5h-346q-53 0 -53 -47v-285h-369z" />
<glyph unicode="g" d="M92 88v979q0 41 31 63.5t84 22.5h594q115 0 114 -86v-262q0 -29 -36 -29h-43q-35 0 -35 29v137q0 45 -60 45h-458q-57 0 -58 -45v-481q0 -45 58 -45h465q37 0 48 8t11 37v20q0 23 -8 31t-35 8h-219q-29 0 -40 10.5t-11 32.5v60q0 20 11 30.5t40 10.5h276q57 0 79 -18.5 t22 -57.5v-500q0 -43 -31 -65.5t-84 -22.5h-600q-57 0 -86 24.5t-29 63.5z" />
<glyph unicode="h" horiz-adv-x="1019" d="M92 0v1153h375v-440q0 -27 27 -27h286q25 0 25 29v438h123v-1153h-123v487q0 33 -31 33h-278q-29 0 -29 -31v-489h-375z" />
<glyph unicode="i" horiz-adv-x="557" d="M92 0v1153h373v-1153h-373z" />
<glyph unicode="j" horiz-adv-x="739" d="M10 0v438h465q27 0 38 11.5t11 27.5v676h121v-1044q0 -55 -31.5 -82t-85.5 -27h-518z" />
<glyph unicode="k" horiz-adv-x="1032" d="M92 0v1153h373v-487q0 -20 16 -21h23q12 0 20 4t19 21l309 483h137l-321 -498h182q76 0 76 -71v-584h-123v494q0 14 -6 20t-25 6h-276q-18 0 -24.5 -6t-6.5 -20v-494h-373z" />
<glyph unicode="l" horiz-adv-x="763" d="M92 131v1022h123v-684q0 -33 33 -33h479v-436h-514q-53 0 -87 35t-34 96z" />
<glyph unicode="m" horiz-adv-x="1267" d="M92 0v1042q0 49 27.5 80t91.5 31h344q59 0 78 -39q25 39 78 39h344q53 0 87 -28.5t34 -82.5v-1042h-316v956q0 33 -37 33h-86q-43 0 -43 -33v-956h-123v956q0 16 -6 24.5t-26 8.5h-97q-35 0 -34 -33v-956h-316z" />
<glyph unicode="n" horiz-adv-x="1019" d="M92 0v1153h717q61 0 90 -30.5t29 -80.5v-1042h-123v956q0 16 -6 23.5t-31 7.5h-301v-987h-375z" />
<glyph unicode="o" horiz-adv-x="1015" d="M92 109v935q0 109 119 109h594q119 0 119 -109v-935q0 -51 -31 -80t-88 -29h-594q-57 0 -88 28.5t-31 80.5zM465 197q0 -33 33 -33h268q23 0 30 8t7 25v761q0 14 -7.5 22.5t-29.5 8.5h-268q-33 0 -33 -31v-761z" />
<glyph unicode="p" horiz-adv-x="978" d="M92 0v1153h713q51 0 85 -26.5t34 -82.5v-567q0 -57 -38 -83.5t-81 -26.5h-340v-367h-373zM465 532h299q39 0 39 31v395q0 31 -39 31h-299v-457z" />
<glyph unicode="q" horiz-adv-x="1017" d="M92 109v935q0 51 31 80t90 29h594q59 0 89 -29.5t30 -79.5v-935q0 -109 -119 -109h-107v-94h-125v94h-362q-59 0 -90 29.5t-31 79.5zM465 197q0 -33 35 -33h268q35 0 35 33v761q0 31 -35 31h-268q-35 0 -35 -31v-761z" />
<glyph unicode="r" horiz-adv-x="1017" d="M92 0v1153h715q55 0 87 -25.5t32 -83.5v-432q0 -20 -14.5 -41.5t-32.5 -25.5q20 -6 33.5 -22.5t13.5 -45.5v-477h-123v436q0 33 -41 33h-297v-469h-373zM465 623h303q35 0 35 30v305q0 31 -35 31h-303v-366z" />
<glyph unicode="s" horiz-adv-x="1015" d="M88 88v254q0 23 11.5 30t33.5 7h31q27 0 36 -8.5t9 -28.5v-139q0 -23 11 -31t42 -8h236q29 0 39 8t10 31v284q0 23 -10.5 32t-38.5 9h-316q-53 0 -73.5 18.5t-20.5 67.5v430q0 53 24.5 81t90.5 28h596q66 0 94.5 -24.5t28.5 -90.5v-200q0 -31 -41 -31h-39q-43 0 -43 31 v108q0 23 -12.5 31t-41.5 8h-477q-57 0 -57 -45v-209q0 -25 11 -33t40 -8h567q53 0 76 -21.5t23 -78.5v-484q0 -57 -30 -81.5t-85 -24.5h-629q-55 0 -75.5 21.5t-20.5 66.5z" />
<glyph unicode="t" horiz-adv-x="907" d="M37 715v438h833v-438h-303q-29 0 -35 -6.5t-6 -30.5v-678h-125v678q0 23 -6 30t-30 7h-328z" />
<glyph unicode="u" horiz-adv-x="1019" d="M92 109v1044h373v-678q0 -20 8 -29.5t31 -9.5h299v717h125v-1044q0 -109 -121 -109h-596q-59 0 -89 28.5t-30 80.5z" />
<glyph unicode="v" horiz-adv-x="1015" d="M29 1153h366l215 -881l260 881h115l-321 -1153h-222q-104 0 -125 80z" />
<glyph unicode="w" horiz-adv-x="1267" d="M92 111v1042h318v-954q0 -35 34 -35h88q41 0 41 35v954h123v-954q0 -35 33 -35h96q35 0 35 35v954h316v-1042q0 -47 -28 -79t-91 -32h-344q-57 0 -78 39q-25 -39 -78 -39h-344q-51 0 -86 29.5t-35 81.5z" />
<glyph unicode="x" horiz-adv-x="1134" d="M29 2l381 545l-369 606h379l233 -410l279 410h147l-352 -528l377 -623h-379l-246 444l-289 -444h-161z" />
<glyph unicode="y" horiz-adv-x="964" d="M68 432v721h120v-668h301q37 0 37 31v637h373v-721q0 -53 -27.5 -81.5t-85.5 -28.5h-245v-322h-123v322h-234q-117 0 -116 110z" />
<glyph unicode="z" horiz-adv-x="1085" d="M29 2l563 987h-483v164h946l-537 -989h500v-162h-989z" />
<glyph unicode="{" horiz-adv-x="763" d="M147 672v110q0 47 54 47h10q72 0 100.5 28t28.5 95q0 96 -9 175t-19.5 147.5t-19.5 132t-9 131.5q0 104 72.5 169t211.5 65h82q78 0 78 -74v-43q0 -70 -78 -70h-35q-59 0 -83.5 -20.5t-24.5 -65.5q0 -51 9 -107.5t21.5 -125t21.5 -149.5t9 -181q0 -72 -30.5 -132.5 t-92.5 -76.5q61 -16 92 -76.5t31 -132.5q0 -100 -9 -181t-21.5 -149.5t-21.5 -125t-9 -107.5q0 -84 108 -84h35q78 0 78 -72v-41q0 -74 -78 -73h-82q-139 0 -211.5 63.5t-72.5 167.5q0 68 9 131.5t19.5 133t19.5 147.5t9 174q0 66 -28.5 94.5t-100.5 28.5h-10q-53 0 -54 47z " />
<glyph unicode="|" horiz-adv-x="573" d="M178 -315v2087h217v-2087h-217z" />
<glyph unicode="}" horiz-adv-x="763" d="M37 -201q0 72 78 72h35q111 0 110 84q0 51 -9 107.5t-21.5 125t-21.5 149.5t-9 181q0 72 30.5 132.5t89.5 76.5q-59 16 -89.5 76.5t-30.5 132.5q0 100 9 181t21.5 149.5t21.5 125t9 107.5q0 45 -25.5 65.5t-84.5 20.5h-35q-78 0 -78 70v43q0 74 78 74h84q137 0 209.5 -65 t72.5 -169q0 -68 -9 -131.5t-19.5 -132t-19.5 -147t-9 -175.5q0 -68 28.5 -95.5t100.5 -27.5h12q51 0 51 -47v-110q0 -47 -51 -47h-12q-72 0 -100.5 -29t-28.5 -94q0 -96 9 -174t19.5 -147.5t19.5 -133t9 -131.5q0 -104 -72.5 -167.5t-209.5 -63.5h-84q-78 0 -78 73v41z" />
<glyph unicode="~" horiz-adv-x="1021" d="M92 680v82q0 53 62.5 85t158.5 32q53 0 102.5 -12.5t97.5 -26t98.5 -25.5t103.5 -12q72 0 125 47q31 31 53 31q37 0 37 -35v-82q0 -53 -64.5 -85t-158.5 -32q-53 0 -101.5 12.5t-96.5 25.5t-98.5 25.5t-105.5 12.5q-72 0 -121 -49q-33 -29 -55 -29q-37 0 -37 35z" />
<glyph unicode="&#xa1;" horiz-adv-x="647" d="M94 1010v229q0 49 33 82t82 33h231q47 0 81 -33t34 -82v-229q0 -49 -34 -83t-81 -34h-59v-999q0 -78 -60 -78q-55 0 -55 78v999h-57q-49 0 -82 34t-33 83z" />
<glyph unicode="&#xa2;" d="M92 406v688q0 49 34 82.5t81 33.5h211v131q0 66 69 66h60q66 0 65 -66v-131h191q47 0 82 -26.5t35 -89.5v-127q0 -47 -60 -47q-37 0 -48 17t-11 40q0 43 -13.5 61.5t-42.5 18.5h-251q-57 0 -58 -60v-495q0 -59 58 -60h251q55 0 56 82q0 23 11 40.5t48 17.5q59 0 60 -50 v-126q0 -63 -35 -89t-82 -26h-191v-131q0 -68 -65 -68h-60q-70 0 -69 68v131h-211q-47 0 -81 32.5t-34 82.5z" />
<glyph unicode="&#xa3;" horiz-adv-x="1003" d="M66 0v537h106v258h-53q-51 0 -51 47v57q0 47 51 47h53v352q0 133 53.5 185.5t175.5 52.5h285q111 0 159 -44t48 -149v-147q0 -45 -51 -45h-54q-49 0 -49 45v139q0 33 -10 45.5t-41 12.5h-182q-35 0 -45 -12.5t-10 -47.5v-387h344q47 0 47 -47v-57q0 -47 -47 -47h-344 v-258h471v-537h-856z" />
<glyph unicode="&#xa4;" horiz-adv-x="1075" d="M63 307q0 20 21 35l121 119q-12 31 -16.5 71.5t-4.5 94.5v55q0 49 4.5 90t16.5 72l-121 119q-20 18 -21 34q0 16 21 35l80 76q16 16 35 16q16 0 37 -16l141 -135q18 4 40.5 8t47.5 4h147q27 0 48.5 -4t44.5 -8l139 135q20 16 37 16q14 0 34 -16l82 -76q16 -16 17 -35 q0 -18 -17 -34l-125 -119q12 -31 17.5 -72t5.5 -90v-55q0 -109 -23 -168l125 -117q16 -14 17 -35q0 -18 -17 -33l-82 -75q-16 -16 -34 -17q-18 0 -37 19l-139 133q-41 -12 -93 -12h-147q-55 0 -88 12l-141 -133q-18 -18 -37 -19q-20 0 -35 17l-80 75q-20 14 -21 33zM365 639 q0 -53 5 -86t19 -51.5t39 -25.5t66 -7h90q41 0 66.5 7t38.5 25.5t18.5 51.5t5.5 86v29q0 51 -5.5 84.5t-18.5 52t-38.5 26t-66.5 7.5h-90q-41 0 -66 -7.5t-39 -26t-19 -52t-5 -84.5v-29z" />
<glyph unicode="&#xa5;" horiz-adv-x="1185" d="M49 1536h424l236 -616l272 616h156l-349 -772h256q59 0 60 -57v-37q0 -57 -60 -58h-296v-237h296q59 0 60 -58v-36q0 -57 -60 -58h-296v-223h-312v223h-309q-55 0 -55 58v36q0 57 55 58h309v237h-309q-55 0 -55 58v37q0 57 55 57h268z" />
<glyph unicode="&#xa6;" horiz-adv-x="573" d="M178 -315v764h217v-764h-217zM178 981v791h217v-791h-217z" />
<glyph unicode="&#xa7;" horiz-adv-x="997" d="M92 162v47q0 53 70 53h102q70 0 70 -53v-33q0 -47 17.5 -77.5t60.5 -30.5h161q49 0 72 26.5t23 89.5v66q0 113 -74 125l-250 31q-68 8 -116 25.5t-77.5 51t-44 87t-14.5 132.5v95q0 78 19.5 121t52.5 71q-29 23 -50.5 65t-21.5 109v80q0 86 15.5 143.5t52.5 90t98 46 t156 13.5h172q160 0 233.5 -57.5t73.5 -200.5v-53q0 -53 -70 -54h-104q-70 0 -70 54v24q0 37 -14 59.5t-68 22.5h-139q-49 0 -69.5 -20.5t-20.5 -79.5v-53q0 -59 14.5 -81t53.5 -26l229 -29q86 -10 138 -34.5t82 -65.5t40 -98.5t10 -132.5v-78q0 -80 -19.5 -120t-49.5 -67h2 q31 -29 49 -71.5t18 -126.5v-80q0 -86 -15.5 -145.5t-53 -94t-99 -50t-153.5 -15.5h-178q-90 0 -150.5 18.5t-96.5 55t-51.5 93t-15.5 132.5zM338 700q0 -57 14.5 -80.5t53.5 -27.5l233 -27h-2q20 0 25.5 18.5t5.5 59.5v84q0 59 -15.5 91t-56.5 36l-203 23q-33 0 -44 -24 t-11 -71v-82z" />
<glyph unicode="&#xa8;" horiz-adv-x="808" d="M92 1307v145q0 47 51 47h160q49 0 49 -47v-145q0 -45 -49 -45h-160q-51 0 -51 45zM455 1307v145q0 47 51 47h160q51 0 51 -47v-145q0 -45 -51 -45h-160q-51 0 -51 45z" />
<glyph unicode="&#xa9;" horiz-adv-x="1447" d="M92 553v428q0 166 22.5 272.5t79 170t153.5 88t247 24.5h260q150 0 246 -24.5t153.5 -88t80 -170t22.5 -272.5v-428q0 -164 -22.5 -271.5t-80 -170t-153.5 -87t-246 -24.5h-260q-150 0 -247 24.5t-153.5 87t-79 170t-22.5 271.5zM262 553q0 -129 10.5 -206t44 -118 t100 -53t177.5 -12h260q111 0 177.5 12t100 53t44 118t10.5 206v428q0 129 -10.5 206t-44 119t-100 54t-177.5 12h-260q-111 0 -177.5 -12t-100 -54t-44 -119t-10.5 -206v-428zM457 621v299q0 68 11 114.5t40 75.5t77 42t120 13h77q209 0 209 -196v-31q0 -45 -49 -45h-86 q-49 0 -49 45v14q0 49 -47 49h-43q-39 0 -50.5 -18t-11.5 -72v-280q0 -66 11.5 -84.5t58.5 -18.5h37q23 0 34 12.5t11 45.5v10q0 49 49 49h86q49 0 49 -49v-14q0 -215 -209 -215h-82q-72 0 -117.5 12t-74.5 42t-40 79t-11 121z" />
<glyph unicode="&#xaa;" horiz-adv-x="612" d="M31 741l182 643h125q66 0 78 -49l157 -594h-217l-41 162h-151l-45 -162h-88zM201 1016h90l-45 168z" />
<glyph unicode="&#xab;" horiz-adv-x="1185" d="M55 659v52q0 29 33 47l340 196q20 10 35 11q12 0 25.5 -8.5t23.5 -32.5q16 -27 20.5 -38.5t4.5 -21.5q0 -29 -31 -43l-236 -135l236 -135q31 -18 31 -45q0 -10 -4.5 -20.5t-16.5 -32.5q-14 -29 -27.5 -38t-25.5 -9q-14 0 -35 10l-340 196q-33 20 -33 47zM647 659v52 q0 29 33 47l340 196q20 10 35 11q12 0 25.5 -8.5t23.5 -32.5q16 -27 20.5 -38.5t4.5 -21.5q0 -29 -31 -43l-236 -135l236 -135q31 -18 31 -45q0 -10 -4.5 -20.5t-16.5 -32.5q-14 -29 -27.5 -38t-25.5 -9q-14 0 -35 10l-340 196q-33 20 -33 47z" />
<glyph unicode="&#xac;" horiz-adv-x="1091" d="M92 842v96q0 70 76 70h582q76 0 124 -15.5t75.5 -51.5t37.5 -95.5t10 -145.5v-555q0 -72 -73 -71h-68q-76 0 -76 71v535q0 57 -16 73.5t-64 16.5h-532q-76 0 -76 72z" />
<glyph unicode="&#xad;" horiz-adv-x="706" d="M55 829v35q0 59 60 60h477q59 0 59 -60v-35q0 -61 -59 -61h-477q-59 0 -60 61z" />
<glyph unicode="&#xae;" horiz-adv-x="1447" d="M92 553v428q0 166 22.5 272.5t79 170t153.5 88t247 24.5h260q150 0 246 -24.5t153.5 -88t80 -170t22.5 -272.5v-428q0 -164 -22.5 -271.5t-80 -170t-153.5 -87t-246 -24.5h-260q-150 0 -247 24.5t-153.5 87t-79 170t-22.5 271.5zM262 553q0 -129 10.5 -206t44 -118 t99 -53t178.5 -12h260q111 0 177.5 12t100 53t44 118t10.5 206v428q0 129 -10.5 206t-44 119t-100 54t-177.5 12h-260q-113 0 -178.5 -12t-99 -54t-44 -119t-10.5 -206v-428zM467 416v626q0 70 21.5 93.5t101.5 23.5h190q115 0 160 -44t45 -157v-45q0 -66 -13.5 -99.5 t-51.5 -53.5q39 -18 57 -51t18 -99v-78q0 -37 1 -56t3 -30.5t3.5 -19.5t1.5 -23q0 -18 -11.5 -24t-25.5 -6h-109q-23 0 -35 6t-19 24.5t-9 51t-2 86.5v49q0 53 -15.5 68.5t-66.5 15.5h-47v-258q0 -43 -52 -43h-98q-47 0 -47 43zM664 823h49q47 0 60 9.5t13 48.5v65 q0 33 -8 42t-37 9h-63q-14 0 -14 -18v-156z" />
<glyph unicode="&#xaf;" horiz-adv-x="784" d="M92 1343v74q0 45 51 45h498q51 0 51 -45v-74q0 -47 -51 -47h-498q-51 0 -51 47z" />
<glyph unicode="&#xb0;" horiz-adv-x="739" d="M92 1192v78q0 80 11.5 131t39 81.5t75.5 42t120 11.5h61q72 0 120 -11.5t77 -42t40 -81.5t11 -131v-78q0 -80 -11 -131t-40 -81t-77 -41t-120 -11h-61q-72 0 -120 11t-75.5 41t-39 81t-11.5 131zM260 1198q0 -45 3 -71.5t13.5 -40t30 -17.5t51.5 -4h19q33 0 52.5 4 t29.5 17.5t13 40t3 71.5v66q0 45 -3 70.5t-13 40t-29.5 18.5t-52.5 4h-19q-33 0 -52 -4t-29.5 -18.5t-13.5 -40t-3 -70.5v-66z" />
<glyph unicode="&#xb1;" horiz-adv-x="1021" d="M92 63v35q0 59 60 60h718q59 0 60 -60v-35q0 -61 -60 -61h-718q-59 0 -60 61zM92 745v35q0 59 60 60h282v280q0 59 60 60h36q59 0 60 -60v-280h280q59 0 60 -60v-35q0 -61 -60 -61h-280v-283q0 -59 -60 -59h-36q-59 0 -60 59v283h-282q-59 0 -60 61z" />
<glyph unicode="&#xb2;" horiz-adv-x="610" d="M70 686v389q0 31 20.5 48.5t52.5 17.5h156q18 0 18 20v250q0 20 -18 20h-125q-20 0 -20 -20v-127q0 -43 -43 -43q-41 0 -41 43v180q0 29 20.5 50.5t52.5 21.5h322q29 0 50.5 -21.5t21.5 -50.5v-360q0 -70 -66 -70h-297q-20 0 -20 -22v-222h301v138q0 16 9 23t19 7h23 q31 0 31 -30v-242h-467z" />
<glyph unicode="&#xb3;" horiz-adv-x="583" d="M61 731v12q0 47 45 47h275q23 0 22 21v102q0 20 -18 21h-264q-25 0 -37 13t-12 32v16q0 45 49 45h264q18 0 18 15v151q0 16 -14 17h-319v313h366q31 0 52.5 -21.5t21.5 -50.5v-407q0 -25 -8 -40.5t-25 -27.5q33 -23 33 -67v-164q0 -33 -19.5 -52.5t-54.5 -19.5h-330 q-23 0 -34 9t-11 36z" />
<glyph unicode="&#xb4;" horiz-adv-x="571" d="M92 1231q0 14 6 20l129 308q10 27 20.5 33.5t33.5 6.5h174q23 0 22 -16q0 -4 -1 -8t-3 -10l-168 -310q-16 -29 -26.5 -35t-38.5 -6h-123q-25 0 -25 17z" />
<glyph unicode="&#xb6;" horiz-adv-x="1040" d="M53 1077v291q0 168 170 168h725v-1618q0 -45 -49 -45h-29q-51 0 -51 45v1460h-311v-1460q0 -45 -53 -45h-27q-51 0 -51 45v981h-154q-170 0 -170 178z" />
<glyph unicode="&#xb7;" horiz-adv-x="647" d="M92 652v229q0 117 115 117h231q115 0 115 -117v-229q0 -115 -115 -115h-231q-115 0 -115 115z" />
<glyph unicode="&#xb8;" horiz-adv-x="493" d="M72 -127q0 98 98 98h149q96 0 97 -98v-281q0 -68 -60 -67h-59q-55 0 -55 67v115h-72q-98 0 -98 103v63z" />
<glyph unicode="&#xb9;" horiz-adv-x="282" d="M39 1472v27q0 37 43 37h39q31 0 52.5 -16.5t21.5 -55.5v-778h-84v733q0 16 -19 17h-16q-16 0 -26.5 9t-10.5 27z" />
<glyph unicode="&#xba;" horiz-adv-x="614" d="M70 809v506q0 70 75 69h320q74 0 74 -69v-506q0 -68 -74 -68h-320q-76 0 -75 68zM293 870q0 -20 20 -20h119q20 0 21 20v385q0 18 -21 19h-119q-20 0 -20 -19v-385z" />
<glyph unicode="&#xbb;" horiz-adv-x="1185" d="M55 506q0 25 33 45l234 135l-234 135q-33 16 -33 43q0 10 4 21.5t21 38.5q10 25 23.5 33t25.5 8q14 0 35 -11l342 -196q31 -16 31 -47v-52q0 -27 -31 -47l-342 -196q-20 -10 -35 -10q-12 0 -25.5 9t-27.5 38q-12 23 -16.5 33t-4.5 20zM647 506q0 25 33 45l234 135 l-234 135q-33 16 -33 43q0 10 4 21.5t21 38.5q10 25 23.5 33t25.5 8q14 0 35 -11l342 -196q31 -16 31 -47v-52q0 -27 -31 -47l-342 -196q-20 -10 -35 -10q-12 0 -25.5 9t-27.5 38q-12 23 -16.5 33t-4.5 20z" />
<glyph unicode="&#xbc;" horiz-adv-x="1402" d="M92 0l934 1536h131l-938 -1536h-127zM193 1472v27q0 37 43 37h39q31 0 52.5 -16.5t21.5 -55.5v-778h-84v733q0 16 -19 17h-16q-16 0 -26.5 9t-10.5 27zM866 281v569h84v-311q0 -18 21 -19h164v109q0 37 34 37h19q31 0 31 -37v-109h90v-313h-90v-207h-84v207h-197 q-72 0 -72 74z" />
<glyph unicode="&#xbd;" horiz-adv-x="1441" d="M92 0l934 1536h131l-938 -1536h-127zM193 1472v27q0 37 43 37h39q31 0 52.5 -16.5t21.5 -55.5v-778h-84v733q0 16 -19 17h-16q-16 0 -26.5 9t-10.5 27zM881 0v389q0 31 20.5 48.5t52.5 17.5h156q18 0 18 20v250q0 20 -18 20h-125q-20 0 -20 -20v-127q0 -43 -43 -43 q-41 0 -41 43v180q0 29 20.5 50.5t52.5 21.5h322q29 0 50.5 -21.5t21.5 -50.5v-360q0 -70 -66 -70h-297q-20 0 -20 -22v-222h301v138q0 16 9 23t19 7h23q31 0 31 -30v-242h-467z" />
<glyph unicode="&#xbe;" horiz-adv-x="1579" d="M92 731v12q0 47 45 47h275q23 0 22 21v102q0 20 -18 21h-264q-25 0 -37 13t-12 32v16q0 45 49 45h264q18 0 18 15v151q0 16 -14 17h-319v313h366q31 0 52.5 -21.5t21.5 -50.5v-407q0 -25 -8 -40.5t-25 -27.5q33 -23 33 -67v-164q0 -33 -19.5 -52.5t-54.5 -19.5h-330 q-23 0 -34 9t-11 36zM270 0l934 1536h131l-938 -1536h-127zM1044 281v569h84v-311q0 -18 21 -19h164v109q0 37 34 37h19q31 0 31 -37v-109h90v-313h-90v-207h-84v207h-197q-72 0 -72 74z" />
<glyph unicode="&#xbf;" horiz-adv-x="946" d="M57 -71v665q0 109 101 109h303q55 0 55 63v123h-63q-115 0 -115 117v229q0 115 115 115h231q117 0 117 -115v-229q0 -117 -117 -117h-53v-241q0 -100 -101 -101h-47q-63 0 -63 -59v-463q0 -59 59 -59h230q57 0 57 59v252q0 41 41 41h37q37 0 37 -41v-348 q0 -115 -115 -115h-594q-49 0 -82 34t-33 81z" />
<glyph unicode="&#xc0;" horiz-adv-x="980" d="M29 0l309 1536h217q104 0 127 -106l268 -1430h-344l-76 422h-313l-90 -422h-98zM205 1964q0 16 25 16h172q23 0 34 -7t21 -33l129 -308q4 -12 4 -20q0 -16 -22 -17h-123q-27 0 -39 6.5t-27 34.5l-166 310q-6 6 -7 10t-1 8zM250 575h256l-119 660z" />
<glyph unicode="&#xc1;" horiz-adv-x="980" d="M29 0l309 1536h217q104 0 127 -106l268 -1430h-344l-76 422h-313l-90 -422h-98zM250 575h256l-119 660zM391 1612q0 14 6 20l129 308q10 27 20.5 33.5t33.5 6.5h174q23 0 22 -16q0 -4 -1 -8t-3 -10l-168 -310q-16 -29 -26.5 -35t-38.5 -6h-123q-25 0 -25 17z" />
<glyph unicode="&#xc2;" horiz-adv-x="980" d="M29 0l309 1536h217q104 0 127 -106l268 -1430h-344l-76 422h-313l-90 -422h-98zM141 1612q0 12 10 22l211 312q23 35 58 34h139q16 0 28.5 -7t26.5 -27l215 -314q6 -12 6 -22q0 -14 -18 -15h-137q-27 0 -41 21l-152 231l-149 -231q-8 -14 -17.5 -17.5t-25.5 -3.5h-137 q-16 0 -17 17zM250 575h256l-119 660z" />
<glyph unicode="&#xc3;" horiz-adv-x="980" d="M29 0l309 1536h217q104 0 127 -106l268 -1430h-344l-76 422h-313l-90 -422h-98zM190 1651v76q0 57 43 93t117 36q43 0 79 -14.5t69.5 -32t66.5 -32t72 -14.5q27 0 46 12.5t34.5 27t26.5 26.5t22 12q25 0 24 -37v-75q0 -55 -41 -91t-119 -36q-43 0 -78.5 14t-68.5 32.5 t-66.5 33t-72.5 14.5q-27 0 -46.5 -12.5t-33.5 -27.5t-25.5 -27.5t-21.5 -12.5q-27 0 -27 35zM250 575h256l-119 660z" />
<glyph unicode="&#xc4;" horiz-adv-x="980" d="M29 0l309 1536h217q104 0 127 -106l268 -1430h-344l-76 422h-313l-90 -422h-98zM178 1688v145q0 47 51 47h160q49 0 49 -47v-145q0 -45 -49 -45h-160q-51 0 -51 45zM250 575h256l-119 660zM541 1688v145q0 47 51 47h160q51 0 51 -47v-145q0 -45 -51 -45h-160 q-51 0 -51 45z" />
<glyph unicode="&#xc5;" horiz-adv-x="980" d="M29 0l309 1536h217q104 0 127 -106l268 -1430h-344l-76 422h-313l-90 -422h-98zM250 575h256l-119 660zM270 1727v75q0 51 9.5 86t32 55.5t61 28.5t98.5 8h39q117 0 158.5 -36.5t41.5 -141.5v-75q0 -102 -41.5 -139.5t-158.5 -37.5h-39q-59 0 -98 8.5t-61.5 29t-32 54 t-9.5 85.5zM401 1745q0 -49 14.5 -63.5t61.5 -14.5h23q51 0 63 14.5t12 63.5v39q0 49 -12 63.5t-63 14.5h-23q-47 0 -61.5 -14.5t-14.5 -63.5v-39z" />
<glyph unicode="&#xc6;" horiz-adv-x="1325" d="M29 0l309 1536h874q29 0 46.5 -15.5t17.5 -39.5v-39q0 -57 -64 -58h-444q-29 0 -42 -9t-13 -34l18 -204q4 -33 16.5 -47.5t47.5 -14.5h415q57 0 58 -53v-45q0 -55 -58 -55h-401q-31 0 -41 -13.5t-10 -46.5l26 -266q4 -37 15.5 -48t46.5 -11h424v-537h-754l-27 422h-272 l-90 -422h-98zM250 575h233l-67 816z" />
<glyph unicode="&#xc7;" horiz-adv-x="976" d="M92 115v1306q0 47 34 81t81 34h596q117 0 117 -115v-342q0 -23 -12.5 -35t-26.5 -12h-39q-16 0 -27.5 12.5t-11.5 34.5v246q0 59 -58 59h-231q-57 0 -57 -59v-1114q0 -59 57 -59h231q57 0 58 59v213q0 20 12 30.5t31 10.5h33q16 0 28.5 -10.5t12.5 -30.5v-309 q0 -49 -29 -82t-88 -33h-596q-55 0 -85 30.5t-30 84.5zM353 -127q0 98 98 98h149q96 0 97 -98v-281q0 -68 -60 -67h-59q-55 0 -55 67v115h-72q-98 0 -98 103v63z" />
<glyph unicode="&#xc8;" horiz-adv-x="927" d="M92 115v1306q0 53 29 84t88 31h606q29 0 46.5 -15.5t17.5 -39.5v-39q0 -57 -64 -58h-299q-33 0 -46 -12t-13 -49v-186q0 -33 11 -47.5t46 -14.5h297q57 0 57 -53v-45q0 -55 -57 -55h-297q-57 0 -57 -60v-266q0 -37 11 -48t46 -11h358v-537h-663q-47 0 -82 30.5t-35 84.5z M215 1964q0 16 25 16h172q23 0 34 -7t21 -33l129 -308q4 -12 4 -20q0 -16 -22 -17h-123q-27 0 -39 6.5t-27 34.5l-166 310q-6 6 -7 10t-1 8z" />
<glyph unicode="&#xc9;" horiz-adv-x="927" d="M92 115v1306q0 53 29 84t88 31h606q29 0 46.5 -15.5t17.5 -39.5v-39q0 -57 -64 -58h-299q-33 0 -46 -12t-13 -49v-186q0 -33 11 -47.5t46 -14.5h297q57 0 57 -53v-45q0 -55 -57 -55h-297q-57 0 -57 -60v-266q0 -37 11 -48t46 -11h358v-537h-663q-47 0 -82 30.5t-35 84.5z M399 1612q0 14 6 20l129 308q10 27 20.5 33.5t33.5 6.5h174q23 0 22 -16q0 -4 -1 -8t-3 -10l-168 -310q-16 -29 -26.5 -35t-38.5 -6h-123q-25 0 -25 17z" />
<glyph unicode="&#xca;" horiz-adv-x="927" d="M92 115v1306q0 53 29 84t88 31h606q29 0 46.5 -15.5t17.5 -39.5v-39q0 -57 -64 -58h-299q-33 0 -46 -12t-13 -49v-186q0 -33 11 -47.5t46 -14.5h297q57 0 57 -53v-45q0 -55 -57 -55h-297q-57 0 -57 -60v-266q0 -37 11 -48t46 -11h358v-537h-663q-47 0 -82 30.5t-35 84.5z M153 1612q0 12 10 22l211 312q23 35 58 34h139q16 0 28.5 -7t26.5 -27l215 -314q6 -12 6 -22q0 -14 -18 -15h-137q-27 0 -41 21l-152 231l-149 -231q-8 -14 -17.5 -17.5t-25.5 -3.5h-137q-16 0 -17 17z" />
<glyph unicode="&#xcb;" horiz-adv-x="927" d="M92 115v1306q0 53 29 84t88 31h606q29 0 46.5 -15.5t17.5 -39.5v-39q0 -57 -64 -58h-299q-33 0 -46 -12t-13 -49v-186q0 -33 11 -47.5t46 -14.5h297q57 0 57 -53v-45q0 -55 -57 -55h-297q-57 0 -57 -60v-266q0 -37 11 -48t46 -11h358v-537h-663q-47 0 -82 30.5t-35 84.5z M188 1688v145q0 47 51 47h160q49 0 49 -47v-145q0 -45 -49 -45h-160q-51 0 -51 45zM551 1688v145q0 47 51 47h160q51 0 51 -47v-145q0 -45 -51 -45h-160q-51 0 -51 45z" />
<glyph unicode="&#xcc;" horiz-adv-x="550" d="M-8 1964q0 16 25 16h172q23 0 34 -7t21 -33l129 -308q4 -12 4 -20q0 -16 -22 -17h-123q-27 0 -39 6.5t-27 34.5l-166 310q-6 6 -7 10t-1 8zM92 0v1536h365v-1536h-365z" />
<glyph unicode="&#xcd;" horiz-adv-x="550" d="M92 0v1536h365v-1536h-365zM174 1612q0 14 6 20l129 308q10 27 20.5 33.5t33.5 6.5h174q23 0 22 -16q0 -4 -1 -8t-3 -10l-168 -310q-16 -29 -26.5 -35t-38.5 -6h-123q-25 0 -25 17z" />
<glyph unicode="&#xce;" horiz-adv-x="550" d="M-70 1612q0 12 10 22l211 312q23 35 58 34h139q16 0 28.5 -7t26.5 -27l215 -314q6 -12 6 -22q0 -14 -18 -15h-137q-27 0 -41 21l-152 231l-149 -231q-8 -14 -17.5 -17.5t-25.5 -3.5h-137q-16 0 -17 17zM92 0v1536h365v-1536h-365z" />
<glyph unicode="&#xcf;" horiz-adv-x="550" d="M-35 1688v145q0 47 51 47h160q49 0 49 -47v-145q0 -45 -49 -45h-160q-51 0 -51 45zM92 0v1536h365v-1536h-365zM328 1688v145q0 47 51 47h160q51 0 51 -47v-145q0 -45 -51 -45h-160q-51 0 -51 45z" />
<glyph unicode="&#xd0;" horiz-adv-x="1038" d="M41 922v153h80v461h708q49 0 83 -34t34 -81v-1306q0 -49 -33.5 -82t-83.5 -33h-708v922h-80zM236 152h288q57 0 58 59v1114q0 59 -58 59h-288v-309h157q57 0 58 -53v-45q0 -55 -58 -55h-157v-770z" />
<glyph unicode="&#xd1;" horiz-adv-x="1013" d="M92 0v1536h711q53 0 85 -28.5t32 -88.5v-1419h-117v1335q0 23 -9.5 35t-37.5 12h-297v-1382h-367zM205 1651v76q0 57 43 93t117 36q43 0 79 -14.5t69.5 -32t66.5 -32t72 -14.5q27 0 46 12.5t34.5 27t26.5 26.5t22 12q25 0 24 -37v-75q0 -55 -41 -91t-119 -36 q-43 0 -78.5 14t-68.5 32.5t-66.5 33t-72.5 14.5q-27 0 -46.5 -12.5t-33.5 -27.5t-25.5 -27.5t-21.5 -12.5q-27 0 -27 35z" />
<glyph unicode="&#xd2;" horiz-adv-x="1013" d="M92 115v1306q0 59 33 87t86 28h594q49 0 82 -34t33 -81v-1306q0 -53 -31 -84t-84 -31h-594q-59 0 -89 30.5t-30 84.5zM219 1964q0 16 25 16h172q23 0 34 -7t21 -33l129 -308q4 -12 4 -20q0 -16 -22 -17h-123q-27 0 -39 6.5t-27 34.5l-166 310q-6 6 -7 10t-1 8zM459 211 q0 -59 57 -59h232q57 0 57 59v1114q0 33 -11.5 46t-45.5 13h-232q-33 0 -45 -14t-12 -45v-1114z" />
<glyph unicode="&#xd3;" horiz-adv-x="1013" d="M92 115v1306q0 59 33 87t86 28h594q49 0 82 -34t33 -81v-1306q0 -53 -31 -84t-84 -31h-594q-59 0 -89 30.5t-30 84.5zM405 1612q0 14 6 20l129 308q10 27 20.5 33.5t33.5 6.5h174q23 0 22 -16q0 -4 -1 -8t-3 -10l-168 -310q-16 -29 -26.5 -35t-38.5 -6h-123q-25 0 -25 17 zM459 211q0 -59 57 -59h232q57 0 57 59v1114q0 33 -11.5 46t-45.5 13h-232q-33 0 -45 -14t-12 -45v-1114z" />
<glyph unicode="&#xd4;" horiz-adv-x="1013" d="M92 115v1306q0 59 33 87t86 28h594q49 0 82 -34t33 -81v-1306q0 -53 -31 -84t-84 -31h-594q-59 0 -89 30.5t-30 84.5zM160 1612q0 12 10 22l211 312q23 35 58 34h139q16 0 28.5 -7t26.5 -27l215 -314q6 -12 6 -22q0 -14 -18 -15h-137q-27 0 -41 21l-152 231l-149 -231 q-8 -14 -17.5 -17.5t-25.5 -3.5h-137q-16 0 -17 17zM459 211q0 -59 57 -59h232q57 0 57 59v1114q0 33 -11.5 46t-45.5 13h-232q-33 0 -45 -14t-12 -45v-1114z" />
<glyph unicode="&#xd5;" horiz-adv-x="1013" d="M92 115v1306q0 59 33 87t86 28h594q49 0 82 -34t33 -81v-1306q0 -53 -31 -84t-84 -31h-594q-59 0 -89 30.5t-30 84.5zM205 1651v76q0 57 43 93t117 36q43 0 79 -14.5t69.5 -32t66.5 -32t72 -14.5q27 0 46 12.5t34.5 27t26.5 26.5t22 12q25 0 24 -37v-75q0 -55 -41 -91 t-119 -36q-43 0 -78.5 14t-68.5 32.5t-66.5 33t-72.5 14.5q-27 0 -46.5 -12.5t-33.5 -27.5t-25.5 -27.5t-21.5 -12.5q-27 0 -27 35zM459 211q0 -59 57 -59h232q57 0 57 59v1114q0 33 -11.5 46t-45.5 13h-232q-33 0 -45 -14t-12 -45v-1114z" />
<glyph unicode="&#xd6;" horiz-adv-x="1013" d="M92 115v1306q0 59 33 87t86 28h594q49 0 82 -34t33 -81v-1306q0 -53 -31 -84t-84 -31h-594q-59 0 -89 30.5t-30 84.5zM194 1688v145q0 47 51 47h160q49 0 49 -47v-145q0 -45 -49 -45h-160q-51 0 -51 45zM459 211q0 -59 57 -59h232q57 0 57 59v1114q0 33 -11.5 46 t-45.5 13h-232q-33 0 -45 -14t-12 -45v-1114zM557 1688v145q0 47 51 47h160q51 0 51 -47v-145q0 -45 -51 -45h-160q-51 0 -51 45z" />
<glyph unicode="&#xd7;" horiz-adv-x="1021" d="M143 481q0 23 21 41l237 240l-237 237q-20 18 -21 41q0 25 21 45l24 25q25 20 41 20q18 0 43 -20l240 -240l238 240q25 20 41 20q23 0 45 -22l24 -25q20 -25 21 -43q0 -16 -21 -41l-239 -237l239 -240q20 -25 21 -43q0 -16 -21 -41l-24 -22q-20 -23 -45 -23q-23 0 -41 21 l-238 237l-240 -237q-18 -20 -43 -21q-23 0 -41 21l-24 22q-20 23 -21 45z" />
<glyph unicode="&#xd8;" horiz-adv-x="1013" d="M92 115v1306q0 59 33 87t86 28h487l66 184h156l-72 -194q33 -12 52.5 -41t19.5 -64v-1306q0 -53 -31 -84t-84 -31h-500l-63 -184h-150l68 192q-68 20 -68 107zM459 211q0 -59 57 -59h232q57 0 57 59v1114q0 35 -12 45l-334 -940v-219zM459 856l186 528h-129 q-33 0 -45 -14t-12 -45v-469z" />
<glyph unicode="&#xd9;" d="M92 115v1421h367v-946q0 -29 10 -41t39 -12h295v999h117v-1421q0 -115 -117 -115h-596q-115 0 -115 115zM276 1964q0 16 25 16h172q23 0 34 -7t21 -33l129 -308q4 -12 4 -20q0 -16 -22 -17h-123q-27 0 -39 6.5t-27 34.5l-166 310q-6 6 -7 10t-1 8z" />
<glyph unicode="&#xda;" d="M92 115v1421h367v-946q0 -29 10 -41t39 -12h295v999h117v-1421q0 -115 -117 -115h-596q-115 0 -115 115zM461 1612q0 14 6 20l129 308q10 27 20.5 33.5t33.5 6.5h174q23 0 22 -16q0 -4 -1 -8t-3 -10l-168 -310q-16 -29 -26.5 -35t-38.5 -6h-123q-25 0 -25 17z" />
<glyph unicode="&#xdb;" d="M92 115v1421h367v-946q0 -29 10 -41t39 -12h295v999h117v-1421q0 -115 -117 -115h-596q-115 0 -115 115zM213 1612q0 12 10 22l211 312q23 35 58 34h139q16 0 28.5 -7t26.5 -27l215 -314q6 -12 6 -22q0 -14 -18 -15h-137q-27 0 -41 21l-152 231l-149 -231 q-8 -14 -17.5 -17.5t-25.5 -3.5h-137q-16 0 -17 17z" />
<glyph unicode="&#xdc;" d="M92 115v1421h367v-946q0 -29 10 -41t39 -12h295v999h117v-1421q0 -115 -117 -115h-596q-115 0 -115 115zM248 1688v145q0 47 51 47h160q49 0 49 -47v-145q0 -45 -49 -45h-160q-51 0 -51 45zM611 1688v145q0 47 51 47h160q51 0 51 -47v-145q0 -45 -51 -45h-160 q-51 0 -51 45z" />
<glyph unicode="&#xdd;" horiz-adv-x="958" d="M68 563v973h114v-934h291q29 0 41 10.5t12 38.5v885h365v-973q0 -53 -31 -83.5t-84 -30.5h-244v-449h-116v449h-234q-57 0 -85.5 30.5t-28.5 83.5zM377 1612q0 14 6 20l129 308q10 27 20.5 33.5t33.5 6.5h174q23 0 22 -16q0 -4 -1 -8t-3 -10l-168 -310q-16 -29 -26.5 -35 t-38.5 -6h-123q-25 0 -25 17z" />
<glyph unicode="&#xde;" horiz-adv-x="972" d="M92 0v1536h365v-270h346q115 0 115 -115v-793q0 -55 -34 -85.5t-81 -30.5h-346v-242h-365zM457 395h288q35 0 46.5 12.5t11.5 41.5v606q0 33 -12.5 45t-45.5 12h-288v-717z" />
<glyph unicode="&#xdf;" horiz-adv-x="2033" d="M88 88v254q0 23 11.5 30t33.5 7h31q27 0 36 -8.5t9 -28.5v-139q0 -23 11 -31t42 -8h236q29 0 39 8t10 31v284q0 23 -10.5 32t-38.5 9h-316q-53 0 -73.5 18.5t-20.5 67.5v430q0 53 24.5 81t90.5 28h596q66 0 94.5 -24.5t28.5 -90.5v-200q0 -31 -41 -31h-39q-43 0 -43 31 v108q0 23 -12.5 31t-41.5 8h-477q-57 0 -57 -45v-209q0 -25 11 -33t40 -8h567q53 0 76 -21.5t23 -78.5v-484q0 -57 -30 -81.5t-85 -24.5h-629q-55 0 -75.5 21.5t-20.5 66.5zM1104 88v254q0 23 11.5 30t33.5 7h31q27 0 36 -8.5t9 -28.5v-139q0 -23 11 -31t42 -8h236 q29 0 39 8t10 31v284q0 23 -10.5 32t-38.5 9h-316q-53 0 -73.5 18.5t-20.5 67.5v430q0 53 24.5 81t90.5 28h596q66 0 94.5 -24.5t28.5 -90.5v-200q0 -31 -41 -31h-39q-43 0 -43 31v108q0 23 -12.5 31t-41.5 8h-477q-57 0 -57 -45v-209q0 -25 11 -33t40 -8h567q53 0 76 -21.5 t23 -78.5v-484q0 -57 -30 -81.5t-85 -24.5h-629q-55 0 -75.5 21.5t-20.5 66.5z" />
<glyph unicode="&#xe0;" horiz-adv-x="1013" d="M29 0l323 1153h219q104 0 125 -80l285 -1073h-363l-73 303h-314l-86 -303h-116zM219 1583q0 16 25 16h172q23 0 34 -7t21 -33l129 -308q4 -12 4 -20q0 -16 -22 -17h-123q-27 0 -39 6.5t-27 34.5l-166 310q-6 6 -7 10t-1 8zM283 467h221l-101 414z" />
<glyph unicode="&#xe1;" horiz-adv-x="1013" d="M29 0l323 1153h219q104 0 125 -80l285 -1073h-363l-73 303h-314l-86 -303h-116zM283 467h221l-101 414zM405 1231q0 14 6 20l129 308q10 27 20.5 33.5t33.5 6.5h174q23 0 22 -16q0 -4 -1 -8t-3 -10l-168 -310q-16 -29 -26.5 -35t-38.5 -6h-123q-25 0 -25 17z" />
<glyph unicode="&#xe2;" horiz-adv-x="1013" d="M29 0l323 1153h219q104 0 125 -80l285 -1073h-363l-73 303h-314l-86 -303h-116zM160 1231q0 12 10 22l211 312q23 35 58 34h139q16 0 28.5 -7t26.5 -27l215 -314q6 -12 6 -22q0 -14 -18 -15h-137q-27 0 -41 21l-152 231l-149 -231q-8 -14 -17.5 -17.5t-25.5 -3.5h-137 q-16 0 -17 17zM283 467h221l-101 414z" />
<glyph unicode="&#xe3;" horiz-adv-x="1013" d="M29 0l323 1153h219q104 0 125 -80l285 -1073h-363l-73 303h-314l-86 -303h-116zM205 1270v76q0 57 43 93t117 36q43 0 79 -14.5t69.5 -32t66.5 -32t72 -14.5q27 0 46 12.5t34.5 27t26.5 26.5t22 12q25 0 24 -37v-75q0 -55 -41 -91t-119 -36q-43 0 -78.5 14t-68.5 32.5 t-66.5 33t-72.5 14.5q-27 0 -46.5 -12.5t-33.5 -27.5t-25.5 -27.5t-21.5 -12.5q-27 0 -27 35zM283 467h221l-101 414z" />
<glyph unicode="&#xe4;" horiz-adv-x="1013" d="M29 0l323 1153h219q104 0 125 -80l285 -1073h-363l-73 303h-314l-86 -303h-116zM194 1307v145q0 47 51 47h160q49 0 49 -47v-145q0 -45 -49 -45h-160q-51 0 -51 45zM283 467h221l-101 414zM557 1307v145q0 47 51 47h160q51 0 51 -47v-145q0 -45 -51 -45h-160 q-51 0 -51 45z" />
<glyph unicode="&#xe5;" horiz-adv-x="1013" d="M29 0l323 1153h219q104 0 125 -80l285 -1073h-363l-73 303h-314l-86 -303h-116zM283 467h221l-101 414zM287 1346v75q0 51 9.5 86t32 55.5t61 28.5t98.5 8h39q117 0 158.5 -36.5t41.5 -141.5v-75q0 -102 -41.5 -139.5t-158.5 -37.5h-39q-59 0 -98 8.5t-61.5 29t-32 54 t-9.5 85.5zM418 1364q0 -49 14.5 -63.5t61.5 -14.5h23q51 0 63 14.5t12 63.5v39q0 49 -12 63.5t-63 14.5h-23q-47 0 -61.5 -14.5t-14.5 -63.5v-39z" />
<glyph unicode="&#xe6;" horiz-adv-x="1366" d="M29 0l309 1153h915q63 0 64 -41v-82q0 -43 -64 -43h-383q-55 0 -55 -33l10 -86q4 -25 16.5 -35t47.5 -10h360q57 0 58 -41v-82q0 -41 -58 -41h-340q-31 0 -41 -10t-10 -35l23 -165q4 -29 15 -37.5t46 -8.5h369v-403h-768l-29 317h-272l-88 -317h-125zM276 432h234 l-68 615z" />
<glyph unicode="&#xe7;" horiz-adv-x="985" d="M92 109v935q0 53 27.5 81t93.5 28h592q121 0 121 -109v-245q0 -23 -8.5 -30t-24.5 -7h-51q-23 0 -31 7t-8 30v159q0 14 -8.5 22.5t-30.5 8.5h-260q-23 0 -31 -8t-8 -23v-761q0 -16 8 -24.5t31 -8.5h260q23 0 31 8t8 25v127q0 35 39 34h47q37 0 37 -34v-215q0 -53 -32 -81 t-89 -28h-592q-61 0 -91 33t-30 76zM357 -127q0 98 98 98h149q96 0 97 -98v-281q0 -68 -60 -67h-59q-55 0 -55 67v115h-72q-98 0 -98 103v63z" />
<glyph unicode="&#xe8;" horiz-adv-x="929" d="M92 96v961q0 41 23.5 68.5t83.5 27.5h618q63 0 64 -41v-80q0 -45 -64 -45h-297q-35 0 -48 -8t-13 -37v-76q0 -25 12 -34t47 -9h295q57 0 57 -41v-82q0 -41 -57 -41h-295q-59 0 -59 -45v-165q0 -29 11 -37.5t48 -8.5h356v-403h-675q-49 0 -78 27.5t-29 68.5zM217 1583 q0 16 25 16h172q23 0 34 -7t21 -33l129 -308q4 -12 4 -20q0 -16 -22 -17h-123q-27 0 -39 6.5t-27 34.5l-166 310q-6 6 -7 10t-1 8z" />
<glyph unicode="&#xe9;" horiz-adv-x="929" d="M92 96v961q0 41 23.5 68.5t83.5 27.5h618q63 0 64 -41v-80q0 -45 -64 -45h-297q-35 0 -48 -8t-13 -37v-76q0 -25 12 -34t47 -9h295q57 0 57 -41v-82q0 -41 -57 -41h-295q-59 0 -59 -45v-165q0 -29 11 -37.5t48 -8.5h356v-403h-675q-49 0 -78 27.5t-29 68.5zM401 1231 q0 14 6 20l129 308q10 27 20.5 33.5t33.5 6.5h174q23 0 22 -16q0 -4 -1 -8t-3 -10l-168 -310q-16 -29 -26.5 -35t-38.5 -6h-123q-25 0 -25 17z" />
<glyph unicode="&#xea;" horiz-adv-x="929" d="M92 96v961q0 41 23.5 68.5t83.5 27.5h618q63 0 64 -41v-80q0 -45 -64 -45h-297q-35 0 -48 -8t-13 -37v-76q0 -25 12 -34t47 -9h295q57 0 57 -41v-82q0 -41 -57 -41h-295q-59 0 -59 -45v-165q0 -29 11 -37.5t48 -8.5h356v-403h-675q-49 0 -78 27.5t-29 68.5zM153 1231 q0 12 10 22l211 312q23 35 58 34h139q16 0 28.5 -7t26.5 -27l215 -314q6 -12 6 -22q0 -14 -18 -15h-137q-27 0 -41 21l-152 231l-149 -231q-8 -14 -17.5 -17.5t-25.5 -3.5h-137q-16 0 -17 17z" />
<glyph unicode="&#xeb;" horiz-adv-x="929" d="M92 96v961q0 41 23.5 68.5t83.5 27.5h618q63 0 64 -41v-80q0 -45 -64 -45h-297q-35 0 -48 -8t-13 -37v-76q0 -25 12 -34t47 -9h295q57 0 57 -41v-82q0 -41 -57 -41h-295q-59 0 -59 -45v-165q0 -29 11 -37.5t48 -8.5h356v-403h-675q-49 0 -78 27.5t-29 68.5zM188 1307v145 q0 47 51 47h160q49 0 49 -47v-145q0 -45 -49 -45h-160q-51 0 -51 45zM551 1307v145q0 47 51 47h160q51 0 51 -47v-145q0 -45 -51 -45h-160q-51 0 -51 45z" />
<glyph unicode="&#xec;" horiz-adv-x="589" d="M26 1583q0 16 25 16h172q23 0 34 -7t21 -33l129 -308q4 -12 4 -20q0 -16 -22 -17h-123q-27 0 -39 6.5t-27 34.5l-166 310q-6 6 -7 10t-1 8zM123 0v1153h373v-1153h-373z" />
<glyph unicode="&#xed;" horiz-adv-x="581" d="M92 0v1153h373v-1153h-373zM178 1231q0 14 6 20l129 308q10 27 20.5 33.5t33.5 6.5h174q23 0 22 -16q0 -4 -1 -8t-3 -10l-168 -310q-16 -29 -26.5 -35t-38.5 -6h-123q-25 0 -25 17z" />
<glyph unicode="&#xee;" horiz-adv-x="663" d="M-12 1231q0 12 10 22l211 312q23 35 58 34h139q16 0 28.5 -7t26.5 -27l215 -314q6 -12 6 -22q0 -14 -18 -15h-137q-27 0 -41 21l-152 231l-149 -231q-8 -14 -17.5 -17.5t-25.5 -3.5h-137q-16 0 -17 17zM145 0v1153h373v-1153h-373z" />
<glyph unicode="&#xef;" horiz-adv-x="583" d="M-19 1307v145q0 47 51 47h160q49 0 49 -47v-145q0 -45 -49 -45h-160q-51 0 -51 45zM104 0v1153h373v-1153h-373zM344 1307v145q0 47 51 47h160q51 0 51 -47v-145q0 -45 -51 -45h-160q-51 0 -51 45z" />
<glyph unicode="&#xf0;" horiz-adv-x="1075" d="M49 659v164h98v330h717q119 0 119 -109v-935q0 -55 -32.5 -82t-86.5 -27h-717v659h-98zM272 164h295q43 0 43 33v761q0 31 -43 31h-295v-166h154q57 0 57 -41v-82q0 -41 -57 -41h-154v-495z" />
<glyph unicode="&#xf1;" horiz-adv-x="1019" d="M92 0v1153h717q61 0 90 -30.5t29 -80.5v-1042h-123v956q0 16 -6 23.5t-31 7.5h-301v-987h-375zM209 1270v76q0 57 43 93t117 36q43 0 79 -14.5t69.5 -32t66.5 -32t72 -14.5q27 0 46 12.5t34.5 27t26.5 26.5t22 12q25 0 24 -37v-75q0 -55 -41 -91t-119 -36q-43 0 -78.5 14 t-68.5 32.5t-66.5 33t-72.5 14.5q-27 0 -46.5 -12.5t-33.5 -27.5t-25.5 -27.5t-21.5 -12.5q-27 0 -27 35z" />
<glyph unicode="&#xf2;" horiz-adv-x="1015" d="M92 109v935q0 109 119 109h594q119 0 119 -109v-935q0 -51 -31 -80t-88 -29h-594q-57 0 -88 28.5t-31 80.5zM221 1583q0 16 25 16h172q23 0 34 -7t21 -33l129 -308q4 -12 4 -20q0 -16 -22 -17h-123q-27 0 -39 6.5t-27 34.5l-166 310q-6 6 -7 10t-1 8zM465 197 q0 -33 33 -33h268q23 0 30 8t7 25v761q0 14 -7.5 22.5t-29.5 8.5h-268q-33 0 -33 -31v-761z" />
<glyph unicode="&#xf3;" horiz-adv-x="1015" d="M92 109v935q0 109 119 109h594q119 0 119 -109v-935q0 -51 -31 -80t-88 -29h-594q-57 0 -88 28.5t-31 80.5zM407 1231q0 14 6 20l129 308q10 27 20.5 33.5t33.5 6.5h174q23 0 22 -16q0 -4 -1 -8t-3 -10l-168 -310q-16 -29 -26.5 -35t-38.5 -6h-123q-25 0 -25 17zM465 197 q0 -33 33 -33h268q23 0 30 8t7 25v761q0 14 -7.5 22.5t-29.5 8.5h-268q-33 0 -33 -31v-761z" />
<glyph unicode="&#xf4;" horiz-adv-x="1015" d="M92 109v935q0 109 119 109h594q119 0 119 -109v-935q0 -51 -31 -80t-88 -29h-594q-57 0 -88 28.5t-31 80.5zM160 1231q0 12 10 22l211 312q23 35 58 34h139q16 0 28.5 -7t26.5 -27l215 -314q6 -12 6 -22q0 -14 -18 -15h-137q-27 0 -41 21l-152 231l-149 -231 q-8 -14 -17.5 -17.5t-25.5 -3.5h-137q-16 0 -17 17zM465 197q0 -33 33 -33h268q23 0 30 8t7 25v761q0 14 -7.5 22.5t-29.5 8.5h-268q-33 0 -33 -31v-761z" />
<glyph unicode="&#xf5;" horiz-adv-x="1015" d="M92 109v935q0 109 119 109h594q119 0 119 -109v-935q0 -51 -31 -80t-88 -29h-594q-57 0 -88 28.5t-31 80.5zM207 1270v76q0 57 43 93t117 36q43 0 79 -14.5t69.5 -32t66.5 -32t72 -14.5q27 0 46 12.5t34.5 27t26.5 26.5t22 12q25 0 24 -37v-75q0 -55 -41 -91t-119 -36 q-43 0 -78.5 14t-68.5 32.5t-66.5 33t-72.5 14.5q-27 0 -46.5 -12.5t-33.5 -27.5t-25.5 -27.5t-21.5 -12.5q-27 0 -27 35zM465 197q0 -33 33 -33h268q23 0 30 8t7 25v761q0 14 -7.5 22.5t-29.5 8.5h-268q-33 0 -33 -31v-761z" />
<glyph unicode="&#xf6;" horiz-adv-x="1015" d="M92 109v935q0 109 119 109h594q119 0 119 -109v-935q0 -51 -31 -80t-88 -29h-594q-57 0 -88 28.5t-31 80.5zM196 1307v145q0 47 51 47h160q49 0 49 -47v-145q0 -45 -49 -45h-160q-51 0 -51 45zM465 197q0 -33 33 -33h268q23 0 30 8t7 25v761q0 14 -7.5 22.5t-29.5 8.5 h-268q-33 0 -33 -31v-761zM559 1307v145q0 47 51 47h160q51 0 51 -47v-145q0 -45 -51 -45h-160q-51 0 -51 45z" />
<glyph unicode="&#xf7;" horiz-adv-x="1021" d="M92 745v35q0 59 60 60h718q59 0 60 -60v-35q0 -61 -60 -61h-718q-59 0 -60 61zM278 115v229q0 117 115 117h231q115 0 115 -117v-229q0 -115 -115 -115h-231q-115 0 -115 115zM278 1170v229q0 117 115 117h231q115 0 115 -117v-229q0 -115 -115 -115h-231 q-115 0 -115 115z" />
<glyph unicode="&#xf8;" horiz-adv-x="1015" d="M92 109v935q0 109 119 109h475l84 186h154l-84 -188q84 -18 84 -107v-935q0 -51 -31 -80t-88 -29h-481l-82 -184h-150l84 188q-84 16 -84 105zM465 197q0 -33 33 -33h268q23 0 30 8t7 25v761q0 14 -7.5 22.5t-29.5 8.5l-301 -676v-116zM465 651l149 338h-116 q-33 0 -33 -31v-307z" />
<glyph unicode="&#xf9;" horiz-adv-x="1019" d="M92 109v1044h373v-678q0 -20 8 -29.5t31 -9.5h299v717h125v-1044q0 -109 -121 -109h-596q-59 0 -89 28.5t-30 80.5zM278 1583q0 16 25 16h172q23 0 34 -7t21 -33l129 -308q4 -12 4 -20q0 -16 -22 -17h-123q-27 0 -39 6.5t-27 34.5l-166 310q-6 6 -7 10t-1 8z" />
<glyph unicode="&#xfa;" horiz-adv-x="1019" d="M92 109v1044h373v-678q0 -20 8 -29.5t31 -9.5h299v717h125v-1044q0 -109 -121 -109h-596q-59 0 -89 28.5t-30 80.5zM465 1231q0 14 6 20l129 308q10 27 20.5 33.5t33.5 6.5h174q23 0 22 -16q0 -4 -1 -8t-3 -10l-168 -310q-16 -29 -26.5 -35t-38.5 -6h-123q-25 0 -25 17z " />
<glyph unicode="&#xfb;" horiz-adv-x="1019" d="M92 109v1044h373v-678q0 -20 8 -29.5t31 -9.5h299v717h125v-1044q0 -109 -121 -109h-596q-59 0 -89 28.5t-30 80.5zM217 1231q0 12 10 22l211 312q23 35 58 34h139q16 0 28.5 -7t26.5 -27l215 -314q6 -12 6 -22q0 -14 -18 -15h-137q-27 0 -41 21l-152 231l-149 -231 q-8 -14 -17.5 -17.5t-25.5 -3.5h-137q-16 0 -17 17z" />
<glyph unicode="&#xfc;" horiz-adv-x="1019" d="M92 109v1044h373v-678q0 -20 8 -29.5t31 -9.5h299v717h125v-1044q0 -109 -121 -109h-596q-59 0 -89 28.5t-30 80.5zM254 1307v145q0 47 51 47h160q49 0 49 -47v-145q0 -45 -49 -45h-160q-51 0 -51 45zM617 1307v145q0 47 51 47h160q51 0 51 -47v-145q0 -45 -51 -45h-160 q-51 0 -51 45z" />
<glyph unicode="&#xfd;" horiz-adv-x="964" d="M68 432v721h120v-668h301q37 0 37 31v637h373v-721q0 -53 -27.5 -81.5t-85.5 -28.5h-245v-322h-123v322h-234q-117 0 -116 110zM381 1231q0 14 6 20l129 308q10 27 20.5 33.5t33.5 6.5h174q23 0 22 -16q0 -4 -1 -8t-3 -10l-168 -310q-16 -29 -26.5 -35t-38.5 -6h-123 q-25 0 -25 17z" />
<glyph unicode="&#xfe;" horiz-adv-x="978" d="M92 0v1153h373v-235h340q51 0 85 -28t34 -83v-436q0 -57 -38 -84t-81 -27h-340v-260h-373zM465 424h299q39 0 39 31v266q0 31 -39 31h-299v-328z" />
<glyph unicode="&#xff;" horiz-adv-x="964" d="M68 432v721h120v-668h301q37 0 37 31v637h373v-721q0 -53 -27.5 -81.5t-85.5 -28.5h-245v-322h-123v322h-234q-117 0 -116 110zM170 1307v145q0 47 51 47h160q49 0 49 -47v-145q0 -45 -49 -45h-160q-51 0 -51 45zM533 1307v145q0 47 51 47h160q51 0 51 -47v-145 q0 -45 -51 -45h-160q-51 0 -51 45z" />
<glyph unicode="&#x152;" horiz-adv-x="1384" d="M92 115v1306q0 59 33 87t86 28h1061q29 0 46 -15.5t17 -39.5v-39q0 -57 -63 -58h-260q-35 0 -47.5 -12t-12.5 -49v-186q0 -33 11.5 -47.5t46.5 -14.5h258q57 0 57 -53v-45q0 -55 -57 -55h-258q-57 0 -58 -60v-266q0 -37 10.5 -48t47.5 -11h319v-537h-1118q-59 0 -89 30.5 t-30 84.5zM459 211q0 -59 57 -59h195q57 0 57 59v1114q0 33 -11.5 46t-45.5 13h-195q-33 0 -45 -14t-12 -45v-1114z" />
<glyph unicode="&#x153;" horiz-adv-x="1329" d="M92 109v935q0 109 119 109h1006q63 0 63 -41v-80q0 -45 -63 -45h-240q-35 0 -48.5 -8t-13.5 -37v-76q0 -25 11.5 -34t48.5 -9h237q57 0 58 -41v-82q0 -41 -58 -41h-237q-59 0 -60 -45v-165q0 -29 10.5 -37.5t49.5 -8.5h299v-403h-1063q-57 0 -88 28.5t-31 80.5zM465 197 q0 -33 33 -33h192q23 0 29 8t6 25v761q0 14 -6 22.5t-29 8.5h-192q-33 0 -33 -31v-761z" />
<glyph unicode="&#x178;" horiz-adv-x="958" d="M68 563v973h114v-934h291q29 0 41 10.5t12 38.5v885h365v-973q0 -53 -31 -83.5t-84 -30.5h-244v-449h-116v449h-234q-57 0 -85.5 30.5t-28.5 83.5zM166 1688v145q0 47 51 47h160q49 0 49 -47v-145q0 -45 -49 -45h-160q-51 0 -51 45zM529 1688v145q0 47 51 47h160 q51 0 51 -47v-145q0 -45 -51 -45h-160q-51 0 -51 45z" />
<glyph unicode="&#x2c6;" horiz-adv-x="880" d="M92 1231q0 12 10 22l211 312q23 35 58 34h139q16 0 28.5 -7t26.5 -27l215 -314q6 -12 6 -22q0 -14 -18 -15h-137q-27 0 -41 21l-152 231l-149 -231q-8 -14 -17.5 -17.5t-25.5 -3.5h-137q-16 0 -17 17z" />
<glyph unicode="&#x2dc;" horiz-adv-x="784" d="M92 1270v76q0 57 43 93t117 36q43 0 79 -14.5t69.5 -32t66.5 -32t72 -14.5q27 0 46 12.5t34.5 27t26.5 26.5t22 12q25 0 24 -37v-75q0 -55 -41 -91t-119 -36q-43 0 -78.5 14t-68.5 32.5t-66.5 33t-72.5 14.5q-27 0 -46.5 -12.5t-33.5 -27.5t-25.5 -27.5t-21.5 -12.5 q-27 0 -27 35z" />
<glyph unicode="&#x2000;" horiz-adv-x="990" />
<glyph unicode="&#x2001;" horiz-adv-x="1980" />
<glyph unicode="&#x2002;" horiz-adv-x="990" />
<glyph unicode="&#x2003;" horiz-adv-x="1980" />
<glyph unicode="&#x2004;" horiz-adv-x="660" />
<glyph unicode="&#x2005;" horiz-adv-x="495" />
<glyph unicode="&#x2006;" horiz-adv-x="330" />
<glyph unicode="&#x2007;" horiz-adv-x="330" />
<glyph unicode="&#x2008;" horiz-adv-x="247" />
<glyph unicode="&#x2009;" horiz-adv-x="396" />
<glyph unicode="&#x200a;" horiz-adv-x="110" />
<glyph unicode="&#x2010;" horiz-adv-x="706" d="M55 829v35q0 59 60 60h477q59 0 59 -60v-35q0 -61 -59 -61h-477q-59 0 -60 61z" />
<glyph unicode="&#x2011;" horiz-adv-x="706" d="M55 829v35q0 59 60 60h477q59 0 59 -60v-35q0 -61 -59 -61h-477q-59 0 -60 61z" />
<glyph unicode="&#x2012;" horiz-adv-x="706" d="M55 829v35q0 59 60 60h477q59 0 59 -60v-35q0 -61 -59 -61h-477q-59 0 -60 61z" />
<glyph unicode="&#x2013;" horiz-adv-x="948" d="M55 829v35q0 59 60 60h719q59 0 59 -60v-35q0 -61 -59 -61h-719q-59 0 -60 61z" />
<glyph unicode="&#x2014;" horiz-adv-x="1411" d="M55 829v35q0 59 60 60h1181q59 0 60 -60v-35q0 -61 -60 -61h-1181q-59 0 -60 61z" />
<glyph unicode="&#x2018;" horiz-adv-x="622" d="M94 1143v438q0 80 72 80h72q63 0 63 -80v-246h137q115 0 115 -118v-74q0 -117 -115 -117h-229q-115 0 -115 117z" />
<glyph unicode="&#x2019;" horiz-adv-x="622" d="M70 1532v74q0 117 114 116h232q115 0 114 -116v-439q0 -80 -73 -80h-70q-66 0 -65 80v246h-138q-115 0 -114 119z" />
<glyph unicode="&#x201a;" horiz-adv-x="622" d="M70 270v74q0 117 114 117h232q115 0 114 -117v-438q0 -80 -73 -80h-70q-66 0 -65 80v246h-138q-115 0 -114 118z" />
<glyph unicode="&#x201c;" horiz-adv-x="1245" d="M94 1143v438q0 80 72 80h72q63 0 63 -80v-246h137q115 0 115 -118v-74q0 -117 -115 -117h-229q-115 0 -115 117zM717 1143v438q0 80 72 80h72q63 0 63 -80v-246h137q115 0 115 -118v-74q0 -117 -115 -117h-229q-115 0 -115 117z" />
<glyph unicode="&#x201d;" horiz-adv-x="1245" d="M70 1532v74q0 117 114 116h232q115 0 114 -116v-439q0 -80 -73 -80h-70q-66 0 -65 80v246h-138q-115 0 -114 119zM693 1532v74q0 117 114 116h232q115 0 114 -116v-439q0 -80 -73 -80h-70q-66 0 -65 80v246h-138q-115 0 -114 119z" />
<glyph unicode="&#x201e;" horiz-adv-x="1245" d="M70 270v74q0 117 114 117h232q115 0 114 -117v-438q0 -80 -73 -80h-70q-66 0 -65 80v246h-138q-115 0 -114 118zM693 270v74q0 117 114 117h232q115 0 114 -117v-438q0 -80 -73 -80h-70q-66 0 -65 80v246h-138q-115 0 -114 118z" />
<glyph unicode="&#x2022;" horiz-adv-x="686" d="M92 649v451q0 53 55 53h392q55 0 55 -53v-451q0 -55 -55 -55h-392q-55 0 -55 55z" />
<glyph unicode="&#x2026;" horiz-adv-x="2547" d="M121 115v229q0 117 115 117h231q115 0 115 -117v-229q0 -115 -115 -115h-231q-115 0 -115 115zM1042 115v229q0 117 115 117h231q115 0 115 -117v-229q0 -115 -115 -115h-231q-115 0 -115 115zM1964 115v229q0 117 115 117h231q115 0 115 -117v-229q0 -115 -115 -115 h-231q-115 0 -115 115z" />
<glyph unicode="&#x202f;" horiz-adv-x="396" />
<glyph unicode="&#x2039;" horiz-adv-x="591" d="M55 659v52q0 29 33 47l340 196q20 10 35 11q12 0 25.5 -8.5t23.5 -32.5q16 -27 20.5 -38.5t4.5 -21.5q0 -29 -31 -43l-236 -135l236 -135q31 -18 31 -45q0 -10 -4.5 -20.5t-16.5 -32.5q-14 -29 -27.5 -38t-25.5 -9q-14 0 -35 10l-340 196q-33 20 -33 47z" />
<glyph unicode="&#x203a;" horiz-adv-x="591" d="M55 506q0 25 33 45l234 135l-234 135q-33 16 -33 43q0 10 4 21.5t21 38.5q10 25 23.5 33t25.5 8q14 0 35 -11l342 -196q31 -16 31 -47v-52q0 -27 -31 -47l-342 -196q-20 -10 -35 -10q-12 0 -25.5 9t-27.5 38q-12 23 -16.5 33t-4.5 20z" />
<glyph unicode="&#x205f;" horiz-adv-x="495" />
<glyph unicode="&#x20ac;" horiz-adv-x="1085" d="M45 592v37q0 57 59 57h93v215h-93q-59 0 -59 62v34q0 59 59 60h93v364q0 47 33.5 81t80.5 34h596q115 0 115 -115v-155q0 -25 -11.5 -37t-25.5 -12h-39q-39 0 -39 49v59q0 59 -57 59h-232q-57 0 -57 -59v-268h223q59 0 60 -60v-34q0 -61 -60 -62h-223v-215h223 q59 0 60 -57v-37q0 -59 -60 -60h-223v-321q0 -59 57 -59h232q57 0 57 59v121q0 41 43 41h31q16 0 28.5 -10.5t12.5 -30.5v-217q0 -49 -27.5 -82t-87.5 -33h-596q-55 0 -84.5 30.5t-29.5 84.5v417h-93q-59 0 -59 60z" />
<glyph unicode="&#x2122;" horiz-adv-x="1499" d="M66 1427v48q0 61 59 61h407q61 0 62 -59v-50q0 -59 -62 -59h-102v-602q0 -57 -61 -57h-78q-63 0 -64 57v602h-102q-59 0 -59 59zM649 766v713q0 57 64 57h110q82 0 99 -59l108 -385l115 385q16 59 94 59h109q59 0 59 -57v-713q0 -57 -53 -57h-60q-66 0 -65 57v432 l-99 -274q-10 -23 -22 -29t-35 -6h-96q-23 0 -37 9t-25 42l-88 258v-432q0 -57 -59 -57h-53q-66 0 -66 57z" />
<glyph unicode="&#x25fc;" horiz-adv-x="1157" d="M0 0v1157h1157v-1157h-1157z" />
<glyph unicode="&#xfb01;" horiz-adv-x="1509" d="M92 0v1067q0 41 27.5 63.5t89.5 22.5h711v-440h-400q-59 0 -59 -45v-136q0 -18 10 -28t43 -10h346q55 0 55 -39v-82q0 -16 -14 -28.5t-41 -12.5h-346q-53 0 -53 -47v-285h-369zM1044 0v1153h373v-1153h-373z" />
<glyph unicode="&#xfb02;" horiz-adv-x="1716" d="M92 0v1067q0 41 27.5 63.5t89.5 22.5h711v-440h-400q-59 0 -59 -45v-136q0 -18 10 -28t43 -10h346q55 0 55 -39v-82q0 -16 -14 -28.5t-41 -12.5h-346q-53 0 -53 -47v-285h-369zM1044 131v1022h123v-684q0 -33 33 -33h479v-436h-514q-53 0 -87 35t-34 96z" />
</font>
</defs>
</svg>
