<?xml version="1.0" standalone="no"?>
<!DOCTYPE svg PUBLIC "-//W3C//DTD SVG 1.1//EN" "http://www.w3.org/Graphics/SVG/1.1/DTD/svg11.dtd" >
<svg xmlns="http://www.w3.org/2000/svg">
<metadata></metadata>
<defs>
<font id="astron_boyvideo" horiz-adv-x="948" >
<font-face units-per-em="2048" ascent="1229" descent="-819" />
<missing-glyph horiz-adv-x="409" />
<glyph horiz-adv-x="0" />
<glyph unicode="&#xd;" horiz-adv-x="1024" />
<glyph unicode=" "  horiz-adv-x="409" />
<glyph unicode="&#x09;" horiz-adv-x="409" />
<glyph unicode="&#xa0;" horiz-adv-x="409" />
<glyph unicode="!" horiz-adv-x="360" d="M82 0l2 20h197l-2 -20h-197zM94 82l6 45h197l-6 -45h-197zM106 180l9 51h196l-8 -51h-197zM176 315l2 23h98l-2 -23h-98zM184 379l11 65h98l-10 -65h-99zM199 477l10 74h98l-10 -74h-98zM211 575l12 82h99l-13 -82h-98zM225 674l13 90h98l-12 -90h-99zM238 772l77 541h99 l-78 -541h-98z" />
<glyph unicode="&#x22;" horiz-adv-x="362" d="M197 942l24 412h121l-90 -412h-55zM377 942l24 412h121l-90 -412h-55z" />
<glyph unicode="#" horiz-adv-x="1017" d="M164 584h125l10 73h61l-10 -73h391l11 73h137l-10 -73h139l-2 -9h-848zM178 551h836l-10 -74h-789zM207 0l2 20h61l-2 -20h-61zM209 901h125l57 412h62l-58 -412h391l58 412h137l-57 -412h139l-16 -115h-140l-2 -14h-137l2 14h-391l-2 -14h-62l2 14h-59zM217 82l6 45h62 l-6 -45h-62zM231 180l7 51h61l-6 -51h-62zM246 281l8 57h61l-8 -57h-61zM260 379l8 65h62l-8 -65h-62zM301 674l12 90h62l-13 -90h-61zM659 0l3 20h137l-2 -20h-138zM670 82l6 45h137l-6 -45h-137zM684 180l6 51h137l-6 -51h-137zM698 281l9 57h137l-8 -57h-138zM713 379 l8 65h137l-8 -65h-137zM754 674l12 90h137l-12 -90h-137z" />
<glyph unicode="$" horiz-adv-x="1036" d="M127 180l8 51h830q-10 -14 -22.5 -27.5t-29.5 -23.5h-786zM141 281l9 57h839v-16q0 -10 -1 -20.5t-3 -20.5h-844zM156 379l2 12h311l6 53h113l-6 -53h75l7 53h49l-6 -53h55q20 0 34.5 10.5t14.5 26.5l-6 16h139q25 -27 39 -65h-827zM233 1010q0 33 13.5 65.5t41 59 t68.5 42t95 15.5h131l10 70h113l-11 -70h76l10 70h49l-10 -70h281l-35 -250h-281l-24 -170h-49l24 170h-76l-24 -170h-215l-107 92q-41 27 -60.5 66t-19.5 80zM414 899q4 -10 14 -18l98 -82l21 143h-82q-23 0 -37 -11t-14 -28v-4zM426 82l6 45h113l-6 -45h-113zM430 764h203 l-6 -53l41 -37h-160l4 20zM481 477l11 74h112l-10 -74h-113zM494 575l12 82h180l8 -6v6h49l-6 -41l49 -41h-135l-39 35l-6 -35h-112zM614 82l7 45h49l-6 -45h-50zM670 477l10 74h135l88 -74h-135l-45 37l-6 -37h-47zM696 674l13 90h49l-13 -90h-49z" />
<glyph unicode="%" horiz-adv-x="1460" d="M131 0l21 20h118l-20 -20h-119zM201 823q0 10 1 21.5t3 23.5l61 445h406q82 0 82 -105v-21t-2 -22l-58 -393h-487q-6 20 -6 51zM209 764h485l-6 -45h-403q-55 0 -76 45zM211 82l45 45h119l-45 -45h-119zM291 913q0 -23 9 -34t36 -11h295l37 269q0 29 -27 28h-315z M307 180l51 51h119l-51 -51h-119zM406 281l57 57h119l-58 -57h-118zM502 379l63 65h121l-65 -65h-119zM598 477l72 74h121l-74 -74h-119zM692 575l80 82h123l-80 -82h-123zM788 674l89 90h122l-88 -90h-123zM885 772l528 541h125l-530 -541h-123zM889 82v45h508l-6 -45h-502 zM897 180l6 51h80l-4 -36q-2 -4 -2 -9q0 -4 2 -6h-82zM911 281l9 57h79l-8 -57h-80zM913 20h467l-2 -20h-405q-39 0 -60 20zM926 379l8 65h82l-10 -65h-80zM940 477l10 74h484q10 -27 10 -59v-15h-504zM952 575l4 19h404q33 0 55 -19h-463zM1323 180l6 51h82l-8 -51h-80z M1337 281l9 57h79l-8 -57h-80zM1341 444h101l-10 -65h-80l4 33v8q0 18 -15 24z" />
<glyph unicode="&#x26;" horiz-adv-x="1347" d="M82 0l2 20h1184l-2 -20h-1184zM92 82l6 45h1186l-6 -45h-1186zM106 180l7 51h1185l-8 -51h-1184zM121 281l8 57h135l-8 -57h-135zM135 379l8 65h138l-11 -65h-135zM150 477l10 74h135l-10 -74h-135zM162 575l12 82h135l-12 -82h-135zM176 674l12 90h136l-13 -90h-135z M190 772l41 289q37 252 207 252h408l-35 -252h-391q-53 0 -62 -57l-14 -103h1049l-17 -115h-170l-2 -14h-157l2 14h-721l-2 -14h-136zM977 281l8 57h158l-8 -57h-158zM991 379l10 65h158l-10 -65h-158zM1006 477l10 74h158l-11 -74h-157zM1018 575l12 82h158l-12 -82h-158z M1032 674l12 90h158l-12 -90h-158z" />
<glyph unicode="'" horiz-adv-x="163" d="M186 942l25 412h121l-90 -412h-56z" />
<glyph unicode="(" horiz-adv-x="452" d="M164 379v65h102l2 -65h-104zM164 477l4 74h102l-4 -74h-102zM166 338h104l6 -57h-106zM170 575q2 20 3 40t5 40v2l103 -2q-4 -20 -5.5 -39.5t-3.5 -40.5h-102zM176 231h107l8 -51h-109zM180 674q4 23 7 45t8 45h102q-4 -23 -7 -45.5t-7 -44.5h-103zM193 127h108l8 -45 h-108zM197 772q33 156 95 311.5t161 313.5h114q-205 -319 -268 -625h-102zM213 20h113q4 -10 6 -18t4 -18h-113q-4 10 -6 18t-4 18z" />
<glyph unicode=")" horiz-adv-x="452" d="M113 -16q6 10 12 18t10 18h111l-21 -36h-112zM168 82l22 45h109l-23 -45h-108zM217 180q4 14 10 26.5t13 24.5h104q-10 -31 -20 -51h-107zM258 281q6 14 11 28.5t10 28.5h104q-4 -14 -9 -28.5t-12 -28.5h-104zM279 1395h114q78 -258 78 -508q0 -29 -1 -57.5t-3 -57.5 h-102q2 23 2 46.5v45.5q0 266 -88 531zM293 379l20 65h103l-19 -65h-104zM322 477q4 18 8 36.5t8 37.5h102q-4 -18 -8 -36.5t-8 -37.5h-102zM344 575q0 6 1 19.5t3 27t4 23.5t4 12h103q-2 -2 -2 -6q-2 -39 -13 -76h-100zM358 674l7 90h102l-6 -90h-103z" />
<glyph unicode="*" horiz-adv-x="995" d="M219 973l328 -15l129 316l45 -316l330 15l-299 -182l4 -19h-299l10 19zM309 483l35 68h59zM356 575l41 82h154l-115 -82h-80zM406 674l47 90h305l20 -90h-168l-16 14l-21 -14h-167zM629 657h153l19 -82h-82zM748 551h59l16 -68z" />
<glyph unicode="+" horiz-adv-x="659" d="M174 651v6h496v-6h-181l-12 -76h-135l12 76h-180zM176 674l12 90h496l-12 -90h-496zM190 772l3 14h180l24 179h135l-24 -179h180l-2 -14h-496zM328 477l12 74h135l-12 -74h-135z" />
<glyph unicode="," horiz-adv-x="360" d="M82 0l2 20h197l-2 -20l-19 -16h-80l17 16h-115zM90 -115l27 29h67l-30 -29h-64zM94 82l6 45h197l-6 -45h-197zM106 180l9 51h196l-8 -51h-197z" />
<glyph unicode="-" horiz-adv-x="659" d="M193 786h495l-2 -14h-489zM201 764h483l-12 -90h-441zM238 657h432v-6h-430z" />
<glyph unicode="." horiz-adv-x="360" d="M82 0l2 20h197l-2 -20h-197zM94 82l6 45h197l-6 -45h-197zM106 180l9 51h196l-8 -51h-197z" />
<glyph unicode="/" horiz-adv-x="776" d="M82 0l10 20h86l-10 -20h-86zM125 82l25 45h86l-25 -45h-86zM178 180l29 51h86l-29 -51h-86zM233 281l31 57h86l-31 -57h-86zM285 379l34 65h89l-35 -65h-88zM338 477l39 74h88l-39 -74h-88zM391 575l43 82h88l-43 -82h-88zM444 674l48 90h90l-50 -90h-88zM496 772 l290 541h93l-293 -541h-90z" />
<glyph unicode="0" horiz-adv-x="1347" d="M111 180v23.5t2 27.5h1183l-6 -51h-1179zM113 127h1169l-6 -45h-1151q-10 18 -12 45zM121 281l8 57h133v-10q0 -4 -1 -7.5t-1 -7.5q0 -16 8 -32h-147zM135 379l8 65h136l-11 -65h-133zM147 477l11 74h135l-10 -74h-136zM162 575l10 82h135l-10 -82h-135zM172 20h1096 l-2 -20h-1012q-49 0 -82 20zM174 674l14 90h136l-15 -90h-135zM188 772l78 541h1012q143 0 143 -176q-2 -16 -2 -35t-4 -41l-41 -289h-135l33 232q0 4 1 8t1 8q0 41 -47 41h-860l-43 -289h-136zM1169 281l9 57h135l-8 -57h-136zM1184 379l8 65h135l-8 -65h-135zM1198 477 l10 74h135l-10 -74h-135zM1210 575l13 82h135l-12 -82h-136zM1225 674l12 90h135l-12 -90h-135z" />
<glyph unicode="1" horiz-adv-x="499" d="M231 1061l35 252h164q143 0 143 -176q0 -37 -6 -76l-41 -289h-135l33 246q0 43 -45 43h-148zM283 0l2 20h135l-2 -20h-135zM293 82l6 45h135l-6 -45h-135zM307 180l6 51h136l-7 -51h-135zM322 281l8 57h135l-8 -57h-135zM336 379l8 65h135l-8 -65h-135zM350 477l10 74 h136l-11 -74h-135zM362 575l13 82h135l-12 -82h-136zM377 674l12 90h135l-12 -90h-135z" />
<glyph unicode="2" horiz-adv-x="1351" d="M82 -2l2 22h1184l-2 -22h-1184zM92 82l6 45h1186l-6 -45h-1186zM106 180l7 51h1185l-8 -51h-1184zM121 281l8 57h135l-8 -57h-135zM135 379l8 65h138l-11 -65h-135zM147 477l11 74h137l-10 -74h-138zM162 575l10 82h137l-12 -82h-135zM174 674l14 90h136l-13 -90h-137z M188 772l21 131h1048l13 92q2 8 2 23q0 51 -53 51h-988l35 242h1020q135 0 135 -166q0 -20 -2 -43t-6 -47l-37 -267h-1048l-2 -16h-138z" />
<glyph unicode="3" horiz-adv-x="1347" d="M82 0l2 20h1184l-2 -20h-1184zM94 82l6 45h1182l-6 -45h-1182zM106 180l9 51h1181l-6 -51h-1184zM193 786l16 115h1048l15 103q0 4 1 8t1 8q0 41 -47 41h-996l35 252h1012q143 0 143 -176q-2 -16 -2 -35t-4 -41l-41 -289h-135l2 14h-1048zM1169 281l9 57h135l-8 -57h-136 zM1184 379l10 65h133l-8 -65h-135zM1198 477l10 74h135l-10 -74h-135zM1210 575l13 82h135l-12 -82h-136zM1225 674l12 90h135l-12 -90h-135z" />
<glyph unicode="4" horiz-adv-x="1228" d="M129 334l4 4h1061l-8 -57h-117l8 53h-948zM178 379l74 65h225l-16 -14h631l2 14h114l-8 -65h-1022zM289 477l82 74h229l-86 -74h-225zM397 575l92 82h234l-94 -82h-232zM508 674l100 90h236l-103 -90h-233zM616 772l541 485q55 55 117 56h57l-78 -541h-116l41 281 l-324 -281h-238zM1030 0l2 20h117l-2 -20h-117zM1040 82l7 45h116l-6 -45h-117zM1055 180l6 51h117l-7 -51h-116zM1098 477l10 74h115l-11 -74h-114zM1110 575l12 82h115l-10 -82h-117zM1124 674l13 90h116l-14 -90h-115z" />
<glyph unicode="5" horiz-adv-x="1351" d="M82 0l2 20h1102q-35 -20 -84 -20h-1020zM94 82l6 45h1172q-8 -23 -25 -45h-1153zM106 180l9 51h1183q-2 -25 -10 -51h-1182zM193 786l73 527h1184l-35 -252h-1048l-23 -160h1049l-19 -129h-135l2 14h-1048zM1165 281q6 12 11 34l2 23h135l-8 -57h-140zM1184 379l10 65 h135l-10 -65h-135zM1198 477l10 74h135l-10 -74h-135zM1210 575l13 82h135l-12 -82h-136zM1225 674l12 90h135l-12 -90h-135z" />
<glyph unicode="6" horiz-adv-x="1349" d="M111 180v23.5t2 27.5h1183l-6 -51h-1179zM113 127h1169l-6 -45h-1151q-10 18 -12 45zM121 281l8 57h133v-10q0 -4 -1 -7.5t-1 -7.5q0 -16 8 -32h-147zM135 379l8 65h136l-11 -65h-133zM147 477l11 74h135l-10 -74h-136zM162 575l10 82h135l-10 -82h-135zM172 20h1096 l-2 -20h-1012q-49 0 -82 20zM174 674l14 90h136l-15 -90h-135zM188 772l78 541h1186l-35 -252h-1050l-43 -289h-136zM459 901h934l-19 -129h-135l2 14h-733zM1169 281l9 57h135l-8 -57h-136zM1184 379l8 65h135l-8 -65h-135zM1198 477l10 74h135l-10 -74h-135zM1210 575 l13 82h135l-12 -82h-136zM1225 674l12 90h135l-12 -90h-135z" />
<glyph unicode="7" horiz-adv-x="1306" d="M231 1061l35 252h942q90 0 132 -40t42 -95q0 -53 -33.5 -106.5t-97.5 -88.5l-288 -211h-129l309 227q20 14 20 33q0 29 -39 29h-893zM371 0l2 20h205l-3 -20h-204zM381 82l6 45h207l-6 -45h-207zM395 180l8 51h205l-8 -51h-205zM410 281l8 57h205l-9 -57h-204zM424 379 q6 33 16 65h199l-10 -65h-205zM457 477l6 8q12 16 29.5 33t39.5 33h132q-12 -16 -17 -47l-4 -27h-186zM565 575l113 82h129l-113 -82h-129zM700 674l123 90h129l-123 -90h-129z" />
<glyph unicode="8" horiz-adv-x="1347" d="M111 180v23.5t2 27.5h1183l-6 -51h-1179zM113 127h1169l-6 -45h-1151q-10 18 -12 45zM121 281l8 57h133v-10q0 -4 -1 -7.5t-1 -7.5q0 -16 8 -32h-147zM135 379l8 65h136l-11 -65h-133zM147 477l11 74h135l-10 -74h-136zM162 575l10 82h137l-12 -82h-135zM172 20h1096 l-2 -20h-1012q-49 0 -82 20zM174 674l14 90h136l-13 -90h-137zM188 772l78 541h1012q143 0 143 -176q-2 -16 -2 -35t-4 -41l-41 -289h-135l2 14h-913l-2 -14h-138zM344 901h913l15 103q0 4 1 8t1 8q0 41 -47 41h-860zM1169 281l9 57h135l-8 -57h-136zM1184 379l8 65h135 l-8 -65h-135zM1198 477l10 74h135l-10 -74h-135zM1210 575l13 82h135l-12 -82h-136zM1225 674l12 90h135l-12 -90h-135z" />
<glyph unicode="9" horiz-adv-x="1349" d="M82 0l2 20h1186l-2 -20h-1186zM92 82l6 45h1186l-6 -45h-1186zM106 180l7 51h1185l-6 -51h-1186zM195 786l73 527h1012q143 0 143 -176q0 -37 -6 -76l-41 -289h-135l31 223q0 66 -76 66h-827l-23 -160h801l-82 -115h-870zM1171 281l9 57h135l-8 -57h-136zM1186 379l8 65 h135l-8 -65h-135zM1200 477l10 74h136l-11 -74h-135zM1212 575l13 82h135l-12 -82h-136zM1227 674l12 90h135l-12 -90h-135z" />
<glyph unicode=":" horiz-adv-x="360" d="M82 0l2 20h197l-2 -20h-197zM94 82l6 45h197l-6 -45h-197zM106 180l9 51h196l-8 -51h-197zM158 545v6h196v-6h-196zM162 575l12 82h197l-13 -82h-196zM176 674l12 90h197l-12 -90h-197zM190 772l3 14h196l-2 -14h-197z" />
<glyph unicode=";" horiz-adv-x="360" d="M82 0l2 20h197l-2 -20l-19 -16h-80l17 16h-115zM90 -115l27 29h67l-30 -29h-64zM94 82l6 45h197l-6 -45h-197zM106 180l9 51h196l-8 -51h-197zM158 545v6h196v-6h-196zM162 575l12 82h197l-13 -82h-196zM176 674l12 90h197l-12 -90h-197zM190 772l3 14h196l-2 -14h-197z " />
<glyph unicode="&#x3c;" horiz-adv-x="874" d="M193 786l538 388h227l-546 -402h-203zM217 764h184l-30 -23l73 -67h-125zM338 657h125l90 -82h-121zM459 551h121l82 -74h-119zM580 444h116l74 -65h-115zM702 338h113l21 -19h-113z" />
<glyph unicode="=" horiz-adv-x="692" d="M182 713h529l-6 -39h-504zM209 657h493l-6 -45h-463zM213 938h528l-12 -98h-463z" />
<glyph unicode="&#x3e;" horiz-adv-x="874" d="M127 317l27 21h229l-29 -21h-227zM209 379l90 65h231l-92 -65h-229zM250 1171h110l453 -399h-125zM342 477l100 74h236l-103 -74h-233zM477 575l111 82h237l-114 -82h-234zM610 674l103 76l-17 14h127l68 -59l-43 -31h-238z" />
<glyph unicode="?" horiz-adv-x="1306" d="M231 1061l35 252h942q90 0 132 -40t42 -95q0 -53 -33.5 -106.5t-97.5 -88.5l-288 -211h-129l309 227q20 14 20 33q0 29 -39 29h-893zM379 0l2 20h197l-3 -20h-196zM391 82l6 45h197l-6 -45h-197zM403 180l9 51h196l-8 -51h-197zM432 379q6 35 19 65h188l-10 -65h-197z M467 477q23 39 65 74h132q-12 -16 -17 -47l-4 -27h-176zM565 575l113 82h129l-113 -82h-129zM700 674l123 90h129l-123 -90h-129z" />
<glyph unicode="@" horiz-adv-x="1349" d="M82 -2l2 22h1186l-2 -22h-1186zM92 82l6 45h135v-8h1051l-6 -37h-1186zM106 180l7 51h135l-6 -51h-136zM121 281l8 57h135l-8 -57h-135zM135 379l8 65h136l-9 -65h-135zM150 477l10 74h133l-10 -74h-133zM162 575l12 82h133l-10 -82h-135zM176 674l12 90h134l-13 -90 h-133zM190 772l41 289q35 250 207 250h1012l-78 -539h-133l59 420h-827q-82 0 -98 -78l-49 -342h-134zM399 338h914l-8 -57h-895q-4 10 -6.5 25.5t-4.5 31.5zM401 379q2 2 2 6l9 59h84l-2 -14v-10q0 -35 43 -35h448l8 59h82l-8 -63h117l8 63h135l-8 -65h-918zM416 477l10 74 h84l-10 -74h-84zM430 575l10 82h84l-12 -82h-82zM442 674l15 90h82l-13 -90h-84zM457 772l37 252h561q86 0 86 -104q0 -10 -1 -22.5t-3 -25.5l-15 -100h-82l11 68v10q0 23 -27 22h-469l-14 -100h-84zM997 477l11 74h84l-11 -74h-84zM1012 575l12 82h82l-12 -82h-82z M1026 674l12 90h82l-12 -90h-82zM1198 477l10 74h135l-10 -74h-135zM1210 575l13 82h135l-12 -82h-136zM1225 674l12 90h135l-12 -90h-135z" />
<glyph unicode="A" horiz-adv-x="1394" d="M0 0l20 20h224l-21 -20h-223zM86 82l47 45h225l-49 -45h-223zM188 180l56 51h225l-55 -51h-226zM295 281l59 57h228l-62 -57h-225zM397 379l70 65h229l-69 -65h-230zM502 477l78 74h229l-78 -74h-229zM604 575l86 82h234l-88 -82h-232zM709 674l94 90h233l-96 -90h-231z M811 772l512 485q51 55 117 56h57l-78 -541h-116l40 281l-299 -281h-233zM1196 0l2 20l117 -20h-119zM1206 82l6 45h117l-6 -45h-117zM1221 180l6 51h116l-6 -51h-116zM1235 281l8 57h117l-8 -57h-117zM1249 379l8 65h117l-8 -65h-117zM1262 477l10 74h117l-11 -74h-116z M1276 575l10 82h117l-10 -82h-117zM1288 674l15 90h116l-14 -90h-117z" />
<glyph unicode="B" horiz-adv-x="1249" d="M82 0l2 20h168l-2 -20h-168zM92 82l6 45h168l-6 -45h-168zM106 180l7 51h168l-7 -51h-168zM121 281l8 57h168l-8 -57h-168zM135 379l8 65h168l-8 -65h-168zM147 477l11 74h170l-11 -74h-170zM162 575l10 82h170l-12 -82h-168zM174 674l14 90h168l-12 -90h-170zM188 772 l78 541h897q82 0 123 -37t41 -92q0 -47 -29.5 -99.5t-91.5 -101.5l-266 -211h-135l282 227q25 14 25 33q0 12 -12.5 20.5t-28.5 8.5h-672l-41 -289h-170zM315 0l27 20h266l-26 -20h-267zM422 82l59 45h267l-60 -45h-266zM496 522l34 29h711q-4 -16 -13 -36.5t-26 -37.5h-258 l60 45h-508zM553 180l68 51h264l-68 -51h-264zM561 575l103 82h131l-13 -10l312 2q78 0 110.5 -22.5t36.5 -51.5h-680zM684 281l76 57h264l-76 -57h-264zM684 674l111 90h135l-115 -90h-131zM815 379l86 65h262l-86 -65h-262z" />
<glyph unicode="C" horiz-adv-x="1224" d="M111 180v23.5t2 27.5h1061l-7 -51h-1056zM113 127h1046l-6 -45h-1028q-10 18 -12 45zM121 281l8 57h133v-10q0 -4 -1 -7.5t-1 -7.5q0 -16 8 -32h-147zM135 379l8 65h136l-11 -65h-133zM147 477l11 74h135l-10 -74h-136zM162 575l10 82h135l-10 -82h-135zM172 20h973 l-2 -20h-889q-49 0 -82 20zM174 674l14 90h136l-15 -90h-135zM188 772l78 541h1061l-35 -252h-925l-43 -289h-136z" />
<glyph unicode="D" horiz-adv-x="1228" d="M82 0l2 20h188l-20 -20h-170zM92 82l6 45h287l-47 -45h-246zM106 180l7 51h170l-9 -51h-168zM121 281l8 57h168l-8 -57h-168zM135 379l8 65h170l-10 -65h-168zM147 477l11 74h170l-11 -74h-170zM162 575l10 82h170l-12 -82h-168zM174 674l14 90h168l-12 -90h-170z M188 772l78 541h914q72 0 125 -41t53 -113q0 -49 -32 -108.5t-105 -128.5l-158 -150h-121l195 182q39 37 39 64q0 20 -21.5 31.5t-58.5 11.5h-697l-41 -289h-170zM311 180l56 51h129l-56 -51h-129zM418 281l61 57h127l-59 -57h-129zM524 379l70 65h125l-70 -65h-125z M629 477l78 74h124l-77 -74h-125zM733 575l88 82h121l-86 -82h-123zM838 674l96 90h121l-94 -90h-123z" />
<glyph unicode="E" horiz-adv-x="1228" d="M82 0l2 20h1065l-2 -20h-1065zM92 82l6 45h1065l-6 -45h-1065zM106 180l7 51h1067l-9 -51h-1065zM121 281l8 57h197l-9 -57h-196zM135 379l8 65h199l-10 -65h-197zM147 477l11 74h198l-10 -74h-199zM162 575l10 82h199l-13 -82h-196zM174 674l14 90h197l-12 -90h-199z M188 772l78 541h1065l-35 -252h-868l-41 -289h-199zM426 901h848l-19 -129h-768z" />
<glyph unicode="F" horiz-adv-x="1228" d="M82 0l2 20h197l-2 -20h-197zM92 82l6 45h197l-6 -45h-197zM106 180l7 51h196l-6 -51h-197zM121 281l8 57h197l-9 -57h-196zM135 379l8 65h197l-8 -65h-197zM147 477l11 74h198l-10 -74h-199zM162 575l10 82h199l-13 -82h-196zM174 674l14 90h197l-12 -90h-199zM188 772 l78 541h1065l-35 -252h-868l-41 -289h-199zM426 901h848l-19 -129h-768z" />
<glyph unicode="G" horiz-adv-x="1349" d="M111 180v23.5t2 27.5h1183l-6 -51h-1179zM113 127h1169l-6 -45h-1151q-10 18 -12 45zM121 281l8 57h133v-10q0 -4 -1 -7.5t-1 -7.5q0 -16 8 -32h-147zM135 379l8 65h136l-11 -65h-133zM147 477l11 74h135l-10 -74h-136zM162 575l10 82h135l-10 -82h-135zM172 20h1096 l-2 -20h-1012q-49 0 -82 20zM174 674l14 90h136l-15 -90h-135zM188 772l78 541h1186l-35 -252h-1050l-43 -289h-136zM459 901h934l-19 -129h-135l2 14h-733zM1169 281l9 57h135l-8 -57h-136zM1184 379l8 65h135l-8 -65h-135zM1198 477l10 74h135l-10 -74h-135zM1210 575 l13 82h135l-12 -82h-136zM1225 674l12 90h135l-12 -90h-135z" />
<glyph unicode="H" horiz-adv-x="1304" d="M82 0l2 20h168l-2 -20h-168zM92 82l6 45h168l-6 -45h-168zM106 180l7 51h168l-7 -51h-168zM121 281l8 57h168l-8 -57h-168zM135 379l8 65h168l-8 -65h-168zM147 477l11 74h168l-11 -74h-168zM162 575l10 82h168l-10 -82h-168zM174 674l14 90h168l-14 -90h-168zM188 772 l78 541h168l-78 -541h-168zM403 901h742l57 412h205l-78 -541h-864zM1018 0l2 20h205l-2 -20h-205zM1028 82l6 45h205l-6 -45h-205zM1042 180l7 51h204l-6 -51h-205zM1057 281l8 57h205l-8 -57h-205zM1071 379l8 65h205l-8 -65h-205zM1085 477l11 74h202l-10 -74h-203z M1098 575l12 82h203l-10 -82h-205zM1112 674l12 90h205l-14 -90h-203z" />
<glyph unicode="I" horiz-adv-x="393" d="M82 0l2 20h229l-2 -20h-229zM92 82l6 45h230l-6 -45h-230zM106 180l7 51h229l-6 -51h-230zM121 281l8 57h229l-8 -57h-229zM135 379l8 65h230l-8 -65h-230zM147 477l11 74h229l-10 -74h-230zM162 575l10 82h229l-10 -82h-229zM174 674l14 90h230l-15 -90h-229zM188 772 l78 541h230l-78 -541h-230z" />
<glyph unicode="J" horiz-adv-x="1007" d="M82 0l2 20h756q-35 -20 -86 -20h-672zM92 82l6 45h830q-8 -23 -25 -45h-811zM106 180l7 51h843q-2 -25 -10 -51h-840zM815 281q14 16 21 47v10h137l-8 -57h-150zM842 379l10 65h135l-8 -65h-137zM856 477l10 74h135l-10 -74h-135zM870 575l11 82h135l-10 -82h-136z M883 674l14 90h135l-14 -90h-135zM897 772l78 541h135l-78 -541h-135z" />
<glyph unicode="K" horiz-adv-x="1310" d="M82 0l2 20l168 -20h-170zM92 82l6 45h168l-6 -45h-168zM106 180l7 51h168l-7 -51h-168zM121 281l8 57h168l-8 -57h-168zM135 379l8 65h168l-8 -65h-168zM147 477l11 74h168l-11 -74h-168zM162 575l10 82h168l-10 -82h-168zM174 674l14 90h168l-14 -90h-168zM188 772 l78 541h168l-78 -541h-168zM367 512l47 39h223l88 -74h-317zM444 575l103 82h119l-78 -63l20 -19h-164zM449 444h315l76 -65h-312zM567 674l113 90h117l-111 -90h-119zM578 338h311l67 -57h-309zM690 772l674 541h106l-663 -541h-117zM707 231h307l59 -51h-303zM834 127h303 l53 -45h-301zM965 20h297l24 -20h-297z" />
<glyph unicode="L" horiz-adv-x="1228" d="M82 0l2 20h1065l-2 -20h-1065zM92 82l6 45h1065l-6 -45h-1065zM106 180l7 51h1067l-9 -51h-1065zM121 281l8 57h197l-9 -57h-196zM135 379l8 65h199l-10 -65h-197zM147 477l11 74h198l-10 -74h-199zM162 575l10 82h199l-13 -82h-196zM174 674l14 90h197l-12 -90h-199z M188 772l78 541h197l-78 -541h-197z" />
<glyph unicode="M" horiz-adv-x="1478" d="M82 0l2 20h168l-2 -20h-168zM92 82l6 45h168l-6 -45h-168zM106 180l7 51h168l-7 -51h-168zM121 281l8 57h168l-8 -57h-168zM135 379l8 65h168l-8 -65h-168zM147 477l11 74h170l-11 -74h-170zM162 575l10 82h170l-12 -82h-168zM174 674l14 90h168l-12 -90h-170zM188 772 l78 541h168l371 -541h-193l-209 318l-45 -318h-170zM616 764h193l61 -90h-194zM686 657h197l6 -8l8 8h96l-75 -82h-177zM758 551h137l-68 -74h-22zM911 674l86 90h95l-82 -90h-99zM1006 772l387 412l18 129h170l-78 -541h-168l43 301l-278 -301h-94zM1227 0l2 20h170l-2 -20 h-170zM1237 82l6 45h170l-6 -45h-170zM1251 180l6 51h170l-6 -51h-170zM1266 281l8 57h170l-8 -57h-170zM1280 379l8 65h170l-8 -65h-170zM1294 477l11 74h168l-11 -74h-168zM1307 575l12 82h168l-10 -82h-170zM1321 674l12 90h170l-14 -90h-168z" />
<glyph unicode="N" horiz-adv-x="1353" d="M82 0l2 20h168l-2 -20h-168zM92 82l6 45h168l-6 -45h-168zM106 180l7 51h168l-7 -51h-168zM121 281l8 57h168l-8 -57h-168zM135 379l8 65h168l-8 -65h-168zM147 477l11 74h168l-11 -74h-168zM162 575l10 82h168l-10 -82h-168zM174 674l14 90h168l-14 -90h-168zM188 772 l78 541h168l-18 -129l280 -412h-147l-158 236l-35 -236h-168zM553 764h147l62 -90h-148zM625 657h149l55 -82h-149zM696 551h150l49 -74h-150zM768 444h150l45 -65h-152zM840 338h149l39 -57h-149zM911 231h152l31 -45l6 45h203l-7 -51h-350zM981 127h307l-6 -45h-270z M1053 20h221l-2 -20h-205zM1106 281l8 57h205l-8 -57h-205zM1120 379l10 65h203l-8 -65h-205zM1135 477l10 74h203l-11 -74h-202zM1147 575l12 82h203l-10 -82h-205zM1161 674l13 90h204l-14 -90h-203zM1174 772l77 541h205l-78 -541h-204z" />
<glyph unicode="O" horiz-adv-x="1347" d="M111 180v23.5t2 27.5h1183l-6 -51h-1179zM113 127h1169l-6 -45h-1151q-10 18 -12 45zM121 281l8 57h133v-10q0 -4 -1 -7.5t-1 -7.5q0 -16 8 -32h-147zM135 379l8 65h136l-11 -65h-133zM147 477l11 74h135l-10 -74h-136zM162 575l10 82h135l-10 -82h-135zM172 20h1096 l-2 -20h-1012q-49 0 -82 20zM174 674l14 90h136l-15 -90h-135zM188 772l78 541h1012q143 0 143 -176q-2 -16 -2 -35t-4 -41l-41 -289h-135l33 232q0 4 1 8t1 8q0 41 -47 41h-860l-43 -289h-136zM1169 281l9 57h135l-8 -57h-136zM1184 379l8 65h135l-8 -65h-135zM1198 477 l10 74h135l-10 -74h-135zM1210 575l13 82h135l-12 -82h-136zM1225 674l12 90h135l-12 -90h-135z" />
<glyph unicode="P" horiz-adv-x="1220" d="M82 0l2 20h168l-2 -20h-168zM92 82l6 45h168l-6 -45h-168zM106 180l7 51h168l-7 -51h-168zM121 281l8 57h168l-8 -57h-168zM135 379l8 65h168l-8 -65h-168zM147 477l11 74h170l-11 -74h-170zM162 575l10 82h170l-12 -82h-168zM174 674l14 90h168l-12 -90h-170zM188 772 l78 541h914q90 0 132 -40t42 -95q0 -53 -34 -106.5t-97 -88.5l-322 -211h-133l346 227q23 16 23 35q0 27 -41 27h-697l-41 -289h-170zM375 512l59 39h131l-59 -39h-131zM471 575l123 82h133l-125 -82h-131zM618 674l138 90h133l-137 -90h-134z" />
<glyph unicode="Q" horiz-adv-x="1372" d="M111 180v23.5t2 27.5h1183l-6 -51h-1179zM113 127h1169l-6 -45h-1151q-10 18 -12 45zM121 281l8 57h133v-10q0 -4 -1 -7.5t-1 -7.5q0 -16 8 -32h-147zM135 379l8 65h136l-11 -65h-133zM147 477l11 74h135l-10 -74h-136zM162 575l10 82h135l-10 -82h-135zM172 20h1096 l-2 -20h-1012q-49 0 -82 20zM174 674l14 90h136l-15 -90h-135zM188 772l78 541h1012q143 0 143 -176q-2 -16 -2 -35t-4 -41l-41 -289h-135l33 232q0 4 1 8t1 8q0 41 -47 41h-860l-43 -289h-136zM989 -193h352v-6h-352v6zM1001 -115l5 29h352l-4 -29h-353zM1169 281l9 57h135 l-8 -57h-136zM1184 379l8 65h135l-8 -65h-135zM1198 477l10 74h135l-10 -74h-135zM1210 575l13 82h135l-12 -82h-136zM1225 674l12 90h135l-12 -90h-135z" />
<glyph unicode="R" horiz-adv-x="1220" d="M82 0l2 20h168l-2 -20h-168zM92 82l6 45h168l-6 -45h-168zM106 180l7 51h168l-7 -51h-168zM121 281l8 57h168l-8 -57h-168zM135 379l8 65h168l-8 -65h-168zM147 477l11 74h170l-11 -74h-170zM162 575l10 82h170l-12 -82h-168zM174 674l14 90h168l-12 -90h-170zM188 772 l78 541h914q90 0 132 -40t42 -95q0 -53 -34 -106.5t-97 -88.5l-326 -211h-131l348 227q23 16 23 35q0 27 -41 27h-697l-41 -289h-170zM367 512l59 39h176l78 -74h-279zM436 444h279l69 -65h-282zM463 575l127 82h129l-127 -82h-129zM545 338h282l62 -57h-287zM614 674 l140 90h131l-140 -90h-131zM653 231h289l53 -51h-290zM760 127h293l47 -45h-295zM868 20h297l23 -20h-297z" />
<glyph unicode="S" horiz-adv-x="1277" d="M100 0l2 20h1002q-43 -20 -109 -20h-895zM111 82l6 45h1085q-4 -12 -9 -23.5t-13 -21.5h-1069zM125 180l6 51h1075q6 -29 6 -51h-1087zM250 1130q0 35 13 68t41 58.5t68 41t95 15.5h909l-35 -252h-860q-23 0 -37 -10.5t-14 -24.5q0 -16 16 -27l234 -227h-133l-217 211 q-41 29 -60.5 68t-19.5 79zM555 764h133l92 -90h-133zM664 657h133l84 -82h-133zM772 551h133l76 -74h-133zM883 444h133l65 -65h-131zM991 338h133l9 -8q31 -23 49 -49h-150v12q-4 12 -14 20z" />
<glyph unicode="T" horiz-adv-x="1228" d="M190 1061l35 252h1147l-35 -252h-481l-41 -289h-170l41 289h-496zM537 0l2 20h170l-2 -20h-170zM547 82l6 45h170l-6 -45h-170zM561 180l6 51h170l-6 -51h-170zM575 281l9 57h170l-9 -57h-170zM590 379l8 65h170l-8 -65h-170zM604 477l10 74h170l-10 -74h-170zM616 575 l13 82h170l-13 -82h-170zM631 674l12 90h170l-12 -90h-170z" />
<glyph unicode="U" horiz-adv-x="1347" d="M111 180v23.5t2 27.5h1183l-6 -51h-1179zM113 127h1169l-6 -45h-1151q-10 18 -12 45zM121 281l8 57h133v-10q0 -4 -1 -7.5t-1 -7.5q0 -16 8 -32h-147zM135 379l8 65h136l-11 -65h-133zM147 477l11 74h135l-10 -74h-136zM162 575l10 82h135l-10 -82h-135zM172 20h1096 l-2 -20h-1012q-49 0 -82 20zM174 674l14 90h136l-15 -90h-135zM188 772l78 541h135l-77 -541h-136zM1169 281l9 57h135l-8 -57h-136zM1184 379l8 65h135l-8 -65h-135zM1196 477l10 74h135l-10 -74h-135zM1210 575l11 82h135l-10 -82h-136zM1223 674l14 90h135l-14 -90h-135z M1237 772l78 541h135l-78 -541h-135z" />
<glyph unicode="V" horiz-adv-x="1394" d="M82 0l2 20h129q-35 -20 -74 -20h-57zM92 82l6 45h234l-47 -45h-193zM106 180l7 51h329l-53 -51h-283zM121 281l8 57h117l-8 -57h-117zM135 379l8 65h119l-10 -65h-117zM147 477l11 74h118l-10 -74h-119zM162 575l10 82h119l-12 -82h-117zM174 674l14 90h117l-12 -90h-119 zM188 772l78 541h117l-78 -541h-117zM258 281l61 57h236l-61 -57h-236zM362 379l70 65h234l-68 -65h-236zM467 477l78 74h233l-78 -74h-233zM571 575l88 82h232l-86 -82h-234zM676 674l96 90h229l-94 -90h-231zM780 772l576 541h223l-569 -541h-230z" />
<glyph unicode="W" horiz-adv-x="1951" d="M82 0l2 20h129q-35 -20 -74 -20h-57zM92 82l6 45h234l-47 -45h-193zM106 180l7 51h329l-53 -51h-283zM121 281l8 57h117l-8 -57h-117zM135 379l8 65h119l-10 -65h-117zM147 477l11 74h118l-10 -74h-119zM162 575l10 82h119l-12 -82h-117zM174 674l14 90h117l-12 -90h-119 zM188 772l78 541h117l-78 -541h-117zM260 281l64 57h231l-59 -57h-236zM371 379l73 65h224l-70 -65h-227zM481 477l82 74h271l-11 -74h-118l2 4l-5 -4h-221zM590 575l92 82h166l-12 -82h-246zM639 0l2 20h129q-35 -20 -74 -20h-57zM649 82l6 45h234l-47 -45h-193zM664 180 l6 51h329l-53 -51h-282zM678 281l8 57h117l-8 -57h-117zM692 379l8 65h119l-10 -65h-117zM700 674l39 35l9 55h114l-12 -90h-150zM748 772l75 541h117l-78 -541h-114zM815 281l62 57h235l-61 -57h-236zM920 379l69 65h234l-68 -65h-235zM1024 477l78 74h233l-78 -74h-233z M1128 575l89 82h231l-86 -82h-234zM1233 674l96 90h230l-95 -90h-231zM1337 772l576 541h223l-569 -541h-230z" />
<glyph unicode="X" horiz-adv-x="1374" d="M25 0l20 20h217l-20 -20h-217zM104 82l46 45h217l-45 -45h-218zM201 180l51 51h217l-51 -51h-217zM209 1313h125l418 -541h-125zM299 281l55 57h219l-57 -57h-217zM395 379l64 65h219l-64 -65h-219zM489 477l72 74h223l-73 -74h-222zM586 575l80 82h221l-27 -26l43 -56 h-317zM633 764h125l6 -6l6 6h221l-88 -90h-221l12 12zM778 772l529 541h223l-531 -541h-221zM803 551h119l57 -74h-119zM885 444h121l51 -65h-121zM969 338h118l46 -57h-121zM1051 231h118l41 -51h-120zM1130 127h121l35 -45h-121zM1214 0l119 20l17 -20h-136z" />
<glyph unicode="Y" horiz-adv-x="1349" d="M84 0l14 20h1084q-35 -20 -86 -20h-1012zM139 82l31 45h1100q-8 -23 -25 -45h-1106zM180 657h142q14 -30 66 -30h3h828l4 30h135l-10 -82h-1155q-10 35 -13 82zM180 674q0 31 6 67l2 23h136l-9 -62q-2 -6 -2 -16q0 -8 2 -12h-135zM190 772l76 541h135l-77 -541h-134z M205 551h1138l-10 -74h-133l2 12h-878q-86 0 -119 62zM207 180l35 51h1056q-2 -25 -10 -51h-1081zM1157 281q14 16 21 47l2 10h135l-8 -57h-150zM1186 379l8 65h135l-8 -65h-135zM1225 674l12 90h137l-14 -90h-135zM1237 772l78 541h137l-78 -541h-137z" />
<glyph unicode="Z" horiz-adv-x="1310" d="M111 127h1116l-6 -45h-1100q-10 25 -10 45zM115 180q4 12 9 24.5t13 26.5h1104l-6 -51h-1120zM174 281q14 14 29.5 26t36.5 23l10 8h133l-33 -25q-27 -14 -26 -32h-150zM178 20h1034l-2 -20h-927q-66 0 -105 20zM236 1061l34 252h942q90 0 132 -40t42 -95 q0 -53 -33.5 -106.5t-97.5 -88.5l-286 -211h-131l309 227q23 16 22 35q0 27 -41 27h-892zM305 379l90 65h131l-88 -65h-133zM438 477l101 74h131l-99 -74h-133zM571 575l111 82h131l-111 -82h-131zM705 674l122 90h131l-122 -90h-131z" />
<glyph unicode="[" horiz-adv-x="462" d="M86 -16v36h133q0 -4 -1 -6t-1 -6q0 -12 4 -24h-135zM92 82l6 45h135l-6 -45h-135zM98 -86h271l-4 -29h-254q-8 12 -13 29zM106 180l7 51h135l-8 -51h-134zM121 281l8 57h133l-8 -57h-133zM135 379l8 65h136l-11 -65h-133zM147 477l11 74h135l-10 -74h-136zM162 575l10 82 h135l-10 -82h-135zM174 674l12 90h136l-13 -90h-135zM188 772l105 735h299l-17 -118h-163l-88 -617h-136z" />
<glyph unicode="\" horiz-adv-x="976" d="M266 1313h125l207 -541h-123zM477 764h125l35 -90h-125zM518 657h125l31 -82h-123zM559 551h125l29 -74h-125zM600 444h125l25 -65h-123zM643 338h121l22 -57h-120zM684 231h121l20 -51h-120zM725 127h121l16 -45h-121zM766 20h121l8 -20h-121z" />
<glyph unicode="]" horiz-adv-x="419" d="M66 -115l4 29h256l-4 -29h-256zM197 -16l6 36h137l-4 -36h-139zM211 82l6 45h137l-6 -45h-137zM223 180l8 51h138l-7 -51h-139zM238 281l8 57h139l-8 -57h-139zM252 379l10 65h137l-8 -65h-139zM266 477l10 74h138l-11 -74h-137zM276 1389l17 118h84q143 0 143 -176 q0 -35 -6 -74l-70 -485h-137l80 559q0 4 1 8t1 9q0 41 -45 41h-68zM281 575l10 82h137l-10 -82h-137zM293 674l12 90h139l-14 -90h-137z" />
<glyph unicode="^" horiz-adv-x="880" d="M174 649l6 8h94l-8 -8h-92zM197 674l82 90h96l-86 -90h-92zM287 772l305 330l217 -330h-193l-98 143l-135 -143h-96zM623 764h192l59 -90h-190zM696 657h189l6 -8h-189z" />
<glyph unicode="_" horiz-adv-x="993" d="M66 -115l4 29h829l-4 -29h-829z" />
<glyph unicode="`" horiz-adv-x="481" d="M281 1413l8 60l309 -66l-10 -59z" />
<glyph unicode="a" d="M111 180v23.5t2 27.5h784l-6 -51h-780zM113 127h770l-6 -45h-752q-10 18 -12 45zM121 281l8 57h135l-2 -10q0 -4 -1 -7.5t-1 -7.5q0 -16 8 -32h-147zM135 379l8 65h785l-8 -65h-136l7 43h-515l-6 -43h-135zM147 477l5 19h649l8 55h133l-10 -74h-785zM172 20h696l-2 -20 h-612q-49 0 -82 20zM180 694l8 70h736q25 -37 26 -90h-133q-8 20 -41 20h-596zM190 772l7 49h612q74 0 111 -49h-730zM770 281l8 57h135l-8 -57h-135zM811 575l10 62q0 4 1 5t1 5t-1 5t-1 5h129v-20q0 -14 -1 -29.5t-3 -32.5h-135z" />
<glyph unicode="b" d="M111 180v23.5t2 27.5h784l-6 -51h-780zM113 127h770l-6 -45h-752q-10 18 -12 45zM121 281l8 57h133v-10q0 -4 -1 -7.5t-1 -7.5q0 -16 8 -32h-147zM135 379l8 65h136l-11 -65h-133zM147 477l11 74h137l-12 -74h-136zM162 575l10 82h137l-12 -82h-135zM172 20h696l-2 -20 h-612q-49 0 -82 20zM174 674l14 90h736q25 -37 26 -90h-133q-8 20 -41 20h-461l-4 -20h-137zM188 772l78 541h135l-69 -492h477q74 0 111 -49h-732zM770 281l8 57h135l-8 -57h-135zM784 379l9 65h135l-8 -65h-136zM799 477l10 74h133l-10 -74h-133zM811 575l10 62q0 4 1 5 t1 5t-1 5t-1 5h129v-20q0 -14 -1 -29.5t-3 -32.5h-135z" />
<glyph unicode="c" horiz-adv-x="774" d="M111 180v23.5t2 27.5h610l-6 -51h-606zM113 127h596l-7 -45h-577q-10 18 -12 45zM121 281l8 57h133v-10q0 -4 -1 -7.5t-1 -7.5q0 -16 8 -32h-147zM135 379l8 65h136l-11 -65h-133zM147 477l11 74h137l-12 -74h-136zM162 575l10 82h137l-12 -82h-135zM172 20h522l-2 -20 h-438q-49 0 -82 20zM174 674l14 90h611l-8 -70h-476l-4 -20h-137zM188 772l9 49h610l-6 -49h-613z" />
<glyph unicode="d" d="M111 180v23.5t2 27.5h784l-6 -51h-780zM113 127h770l-6 -45h-752q-10 18 -12 45zM121 281l8 57h133v-10q0 -4 -1 -7.5t-1 -7.5q0 -16 8 -32h-147zM135 379l8 65h136l-11 -65h-133zM147 477l11 74h137l-12 -74h-136zM162 575l10 82h137l-12 -82h-135zM172 20h696l-2 -20 h-612q-49 0 -82 20zM174 674l14 90h785l-15 -90h-133l4 20h-514l-4 -20h-137zM188 772l9 49h649l69 492h136l-78 -541h-785zM770 281l8 57h135l-8 -57h-135zM784 379l9 65h135l-8 -65h-136zM799 477l10 74h133l-10 -74h-133zM811 575l12 82h133l-10 -82h-135z" />
<glyph unicode="e" d="M111 180v23.5t2 27.5h784l-6 -51h-780zM113 127h770l-6 -45h-752q-10 18 -12 45zM121 281l8 57h133v-10q0 -4 -1 -7.5t-1 -7.5q0 -16 8 -32h-147zM135 379l8 65h136l-11 -65h-133zM147 477l11 74h137l-4 -29h514l4 29h133l-10 -74h-785zM162 575l10 82h137l-12 -82h-135z M172 20h696l-2 -20h-612q-49 0 -82 20zM174 674l14 90h736q25 -37 26 -90h-133q-8 20 -41 20h-461l-4 -20h-137zM188 772l9 49h612q74 0 111 -49h-732zM811 575l10 62q0 4 1 5t1 5t-1 5t-1 5h129v-20q0 -14 -1 -29.5t-3 -32.5h-135z" />
<glyph unicode="f" horiz-adv-x="509" d="M82 0l2 20h135l-2 -20h-135zM92 82l6 45h135l-6 -45h-135zM106 180l7 51h135l-6 -51h-136zM121 281l8 57h135l-8 -57h-135zM135 379l8 65h136l-9 -65h-135zM150 477l10 74h135l-10 -74h-135zM162 575l12 82h135l-12 -82h-135zM176 674l12 90h308l-45 -70h-136l-4 -20 h-135zM190 772l41 289q37 252 207 252h174l-34 -252h-125q-82 0 -97 -76l-24 -164h200l-32 -49h-310z" />
<glyph unicode="g" horiz-adv-x="952" d="M111 180v23.5t2 27.5h784l-6 -51h-780zM113 127h770l-6 -45h-752q-10 18 -12 45zM121 281l8 57h133v-10q0 -4 -1 -7.5t-1 -7.5q0 -16 8 -32h-147zM135 379l8 65h136l-11 -65h-133zM147 477l11 74h137l-12 -74h-136zM162 575l10 82h137l-12 -82h-135zM172 20h696l-4 -36 h-135l2 16h-477q-49 0 -82 20zM174 674l14 90h740q20 -33 24 -90h-135q-8 20 -41 20h-461l-4 -20h-137zM188 772l9 49h612q78 0 113 -49h-734zM297 -311l2 12h449l-21 -12h-430zM311 -213l2 20h514l-10 -20h-506zM686 -115q12 12 23 29h145l-4 -29h-164zM770 281l8 57h135 l-8 -57h-135zM784 379l9 65h135l-8 -65h-136zM799 477l10 74h133l-10 -74h-133zM811 575l10 62q0 4 1 5t1 5t-1 5t-1 5h131q0 -37 -6 -82h-135z" />
<glyph unicode="h" horiz-adv-x="882" d="M82 4l2 16h135l-2 -16h-135zM92 82l6 45h135l-6 -45h-135zM104 180l9 51h135l-6 -51h-138zM119 281l8 57h137l-8 -57h-137zM133 379l10 65h136l-9 -65h-137zM147 477l11 74h137l-10 -74h-138zM162 575l10 82h137l-12 -82h-135zM174 674l14 90h670q25 -37 27 -90h-199 q-8 20 -41 20h-330l-4 -20h-137zM188 772l78 541h135l-69 -492h411q74 0 111 -49h-666zM600 0l2 20h201l-2 -20h-201zM610 82l6 45h201l-6 -45h-201zM625 180l6 51h200l-6 -51h-200zM639 281l8 57h201l-8 -57h-201zM653 379l9 65h200l-8 -65h-201zM668 477l10 74h199 l-11 -74h-198zM680 575l10 62q0 4 1 5t1 5t-1 5t-1 5h195v-20q0 -14 -1 -29.5t-3 -32.5h-201z" />
<glyph unicode="i" horiz-adv-x="331" d="M98 4l2 16h136l-3 -16h-135zM109 82l6 45h135l-6 -45h-135zM121 180l8 51h135l-8 -51h-135zM135 281l8 57h136l-9 -57h-135zM150 379l10 65h135l-10 -65h-135zM164 477l10 74h135l-10 -74h-135zM178 575l10 82h136l-11 -82h-135zM190 674l15 90h135l-14 -90h-136z M205 772l8 49h135l-8 -49h-135zM215 950l29 197h168l-29 -197h-168z" />
<glyph unicode="j" horiz-adv-x="370" d="M-125 -311l2 12h268l-20 -12h-250zM-111 -213l5 20h331l-10 -20h-326zM-96 -115l4 29h344l-4 -29h-344zM123 -16l6 36h137l-4 -36h-139zM137 82l6 45h138l-7 -45h-137zM152 180l6 51h137l-6 -51h-137zM166 281l8 57h137l-8 -57h-137zM180 379l8 65h138l-9 -65h-137z M193 477l10 74h137l-10 -74h-137zM207 575l10 82h137l-10 -82h-137zM219 674l14 90h138l-15 -90h-137zM225 821h154l-8 -49h-138zM252 950l29 197h170l-29 -197h-170z" />
<glyph unicode="k" horiz-adv-x="825" d="M82 0l2 20h168l-2 -20h-168zM92 82l6 45h168l-6 -45h-168zM106 180l7 51h168l-7 -51h-168zM121 281l8 57h168l-8 -57h-168zM135 379l8 65h328l39 -65h-195l-10 18l-2 -18h-168zM147 477l11 74h168l-11 -74h-168zM162 575l10 82h168l-10 -82h-168zM174 674l14 90h168 l-14 -90h-168zM188 772l78 541h168l-78 -541h-168zM334 477l78 74h112l-73 -74h-117zM338 338h199l34 -57h-198zM401 231h199l33 -51h-203zM436 575l86 82h111l-84 -82h-113zM461 127h205l26 -45h-205zM524 20h207l12 -20h-206zM539 674l94 90h106l-90 -90h-110zM641 772 l51 49h107l-51 -49h-107z" />
<glyph unicode="l" horiz-adv-x="331" d="M82 4l2 16h168l-2 -16h-168zM92 82l6 45h168l-6 -45h-168zM104 180l9 51h168l-9 -51h-168zM119 281l8 57h168l-8 -57h-168zM133 379l10 65h168l-10 -65h-168zM147 477l11 74h168l-11 -74h-168zM162 575l10 82h168l-10 -82h-168zM174 674l14 90h168l-14 -90h-168zM188 772 l78 541h168l-78 -541h-168z" />
<glyph unicode="m" horiz-adv-x="1302" d="M82 4l2 16h135l-2 -16h-135zM92 82l6 45h135l-6 -45h-135zM104 180l9 51h135l-6 -51h-138zM119 281l8 57h137l-8 -57h-137zM133 379l10 65h136l-9 -65h-137zM147 477l11 74h137l-10 -74h-138zM162 575l10 82h137l-12 -82h-135zM174 674l14 90h1090q25 -37 27 -90h-199 q-8 20 -41 20h-248l-4 -20h-209q-8 20 -41 20h-248l-4 -20h-137zM188 772l9 49h966q74 0 111 -49h-1086zM518 0l2 20h201l-2 -20h-201zM528 82l7 45h200l-6 -45h-201zM543 180l6 51h201l-7 -51h-200zM557 281l8 57h201l-8 -57h-201zM571 379l9 65h200l-8 -65h-201zM586 477 l10 74h201l-11 -74h-200zM598 575l10 62q0 4 1 5t1 5t-1 5t-1 5h203l-12 -82h-201zM1020 0l2 20h201l-2 -20h-201zM1030 82l6 45h201l-6 -45h-201zM1044 180l7 51h200l-6 -51h-201zM1059 281l8 57h201l-8 -57h-201zM1073 379l8 65h201l-8 -65h-201zM1087 477l11 74h198 l-10 -74h-199zM1100 575l10 62q0 2 1 4t1 6t-1 5t-1 5h195v-20q0 -14 -1 -29.5t-4 -32.5h-200z" />
<glyph unicode="n" horiz-adv-x="882" d="M82 4l2 16h135l-2 -16h-135zM92 82l6 45h135l-6 -45h-135zM104 180l9 51h135l-6 -51h-138zM119 281l8 57h137l-8 -57h-137zM133 379l10 65h136l-9 -65h-137zM147 477l11 74h137l-10 -74h-138zM162 575l10 82h137l-12 -82h-135zM174 674l14 90h670q25 -37 27 -90h-199 q-8 20 -41 20h-330l-4 -20h-137zM188 772l9 49h546q74 0 111 -49h-666zM600 0l2 20h201l-2 -20h-201zM610 82l6 45h201l-6 -45h-201zM625 180l6 51h200l-6 -51h-200zM639 281l8 57h201l-8 -57h-201zM653 379l9 65h200l-8 -65h-201zM668 477l10 74h199l-11 -74h-198zM680 575 l10 62q0 4 1 5t1 5t-1 5t-1 5h195v-20q0 -14 -1 -29.5t-3 -32.5h-201z" />
<glyph unicode="o" d="M111 180v23.5t2 27.5h784l-6 -51h-780zM113 127h770l-6 -45h-752q-10 18 -12 45zM121 281l8 57h133v-10q0 -4 -1 -7.5t-1 -7.5q0 -16 8 -32h-147zM135 379l8 65h136l-11 -65h-133zM147 477l11 74h137l-12 -74h-136zM162 575l10 82h137l-12 -82h-135zM172 20h696l-2 -20 h-612q-49 0 -82 20zM174 674l14 90h736q25 -37 26 -90h-133q-8 20 -41 20h-461l-4 -20h-137zM188 772l9 49h612q74 0 111 -49h-732zM770 281l8 57h135l-8 -57h-135zM784 379l9 65h135l-8 -65h-136zM799 477l10 74h133l-10 -74h-133zM811 575l10 62q0 4 1 5t1 5t-1 5t-1 5 h129v-20q0 -14 -1 -29.5t-3 -32.5h-135z" />
<glyph unicode="p" d="M39 -311l2 12h135l-2 -12h-135zM53 -213l2 20h135l-2 -20h-135zM68 -115l4 29h133l-4 -29h-133zM80 -16l6 36h782l-2 -20h-649l-2 -16h-135zM94 82l6 45h783l-6 -45h-783zM106 180l9 51h782l-6 -51h-785zM121 281l8 57h135l-8 -57h-135zM135 379l10 65h134l-9 -65h-135z M150 477l10 74h135l-10 -74h-135zM162 575l12 82h135l-12 -82h-135zM176 674l12 90h736q25 -37 26 -90h-133q-8 20 -41 20h-461l-4 -20h-135zM188 772l9 49h612q74 0 111 -49h-732zM770 281l8 57h135l-8 -57h-135zM784 379l9 65h135l-8 -65h-136zM799 477l10 74h133l-10 -74 h-133zM811 575l10 62q0 4 1 5t1 5t-1 5t-1 5h129v-20q0 -14 -1 -29.5t-3 -32.5h-135z" />
<glyph unicode="q" d="M111 180v23.5t2 27.5h786l-8 -51h-780zM113 127h772l-6 -45h-754q-10 18 -12 45zM121 281l8 57h133v-10q0 -4 -1 -7.5t-1 -7.5q0 -16 8 -32h-147zM135 379l8 65h136l-11 -65h-133zM147 477l11 74h137l-12 -74h-136zM162 575l10 82h137l-12 -82h-135zM172 20h698l-6 -36 h-135l2 16h-477q-49 0 -82 20zM174 674l14 90h736q25 -37 26 -90h-133q-8 20 -41 20h-461l-4 -20h-137zM188 772l9 49h612q74 0 111 -49h-732zM688 -311l2 12h135l-2 -12h-135zM702 -213l3 20h135l-2 -20h-136zM715 -115l4 29h137l-4 -29h-137zM770 281l8 57h135l-8 -57 h-135zM784 379l9 65h135l-8 -65h-136zM799 477l10 74h133l-10 -74h-133zM811 575l10 62q0 4 1 5t1 5t-1 5t-1 5h129v-20q0 -14 -1 -29.5t-3 -32.5h-135z" />
<glyph unicode="r" horiz-adv-x="509" d="M82 0l2 20h135l-2 -20h-135zM92 82l6 45h135l-6 -45h-135zM106 180l7 51h135l-6 -51h-136zM121 281l8 57h135l-8 -57h-135zM135 379l8 65h136l-9 -65h-135zM147 477l11 74h159q-25 -18 -30 -57l-2 -17h-138zM162 575l18 82h340l-12 -82h-346zM186 674q18 57 50 90h299 l-13 -90h-336zM244 772q49 49 125 49h174l-8 -49h-291z" />
<glyph unicode="s" d="M82 0l2 20h696q-35 -20 -86 -20h-612zM92 82l6 45h770q-8 -23 -24 -45h-752zM106 180l7 51h784q-2 -25 -10 -51h-781zM139 397l6 47h783l-8 -65h-138l4 18h-647zM150 477l10 74h135l-6 -47h649l-4 -27h-784zM162 575l18 82h131l-14 -82h-135zM186 674q18 57 50 90h737 l-8 -70h-596q-35 0 -50 -20h-133zM244 772q49 49 125 49h612l-6 -49h-731zM756 281q14 16 20 47v10h137l-8 -57h-149z" />
<glyph unicode="t" horiz-adv-x="509" d="M111 180v23.5t2 27.5h346l-6 -51h-342zM113 127h331l-6 -45h-313q-10 18 -12 45zM121 281l8 57h133v-10q0 -4 -1 -7.5t-1 -7.5q0 -16 8 -32h-147zM135 379l8 65h136l-11 -65h-133zM150 477l10 74h135l-12 -74h-133zM162 575l12 82h135l-12 -82h-135zM172 20h258l-2 -20 h-174q-49 0 -82 20zM176 674l12 90h318l-45 -70h-146l-4 -20h-135zM190 772l54 373h135l-47 -324h211l-33 -49h-320z" />
<glyph unicode="u" horiz-adv-x="915" d="M111 180v23.5t2 27.5h751l-6 -51h-747zM113 127h737l-6 -45h-719q-10 18 -12 45zM121 281l8 57h133v-10q0 -4 -1 -7.5t-1 -7.5q0 -16 8 -32h-147zM135 379l8 65h136l-11 -65h-133zM147 477l11 74h135l-10 -74h-136zM162 575l10 82h135l-10 -82h-135zM172 20h664l-2 -20 h-580q-49 0 -82 20zM174 674l14 90h136l-15 -90h-135zM188 772l9 49h135l-8 -49h-136zM737 281l8 57h136l-9 -57h-135zM752 379l8 65h135l-8 -65h-135zM764 477l10 74h135l-10 -74h-135zM778 575l10 82h136l-11 -82h-135zM791 674l14 90h135l-14 -90h-135zM805 772l8 49h135 l-8 -49h-135z" />
<glyph unicode="v" horiz-adv-x="946" d="M82 0l2 20h129q-35 -20 -74 -20h-57zM92 82l6 45h234l-47 -45h-193zM106 180l7 51h329l-53 -51h-283zM121 281l8 57h117l-8 -57h-117zM135 379l8 65h119l-10 -65h-117zM147 477l11 74h118l-10 -74h-119zM162 575l10 82h119l-12 -82h-117zM174 674l14 90h117l-12 -90h-119 zM188 772l9 49h116l-8 -49h-117zM258 281l61 57h234l-59 -57h-236zM362 379l70 65h234l-70 -65h-234zM467 477l78 74h231l-76 -74h-233zM569 575l88 82h232l-86 -82h-234zM674 674l96 90h229l-94 -90h-231zM778 772l53 49h230l-53 -49h-230z" />
<glyph unicode="w" horiz-adv-x="1372" d="M82 0l2 20h129q-35 -20 -74 -20h-57zM92 82l6 45h234l-47 -45h-193zM106 180l7 51h325l-53 -51h-279zM121 281l8 57h117l-8 -57h-117zM135 379l8 65h119l-10 -65h-117zM147 477l11 74h118l-10 -74h-119zM162 575l10 82h119l-12 -82h-117zM174 674l14 90h117l-12 -90h-119 zM188 772l9 49h116l-8 -49h-117zM260 281l64 57h223l-60 -57h-227zM369 379l71 65h248l-10 -65h-309zM477 477l82 74h143l-10 -74h-215zM508 0l2 20h129q-35 -20 -74 -20h-57zM518 82l6 45h234l-47 -45h-193zM532 180l7 51h329l-53 -51h-283zM547 281l8 57h117l-8 -57h-117z M588 575l10 82h119l-12 -82h-117zM600 674l14 90h117l-12 -90h-119zM614 772l9 49h116l-8 -49h-117zM684 281l61 57h234l-59 -57h-236zM788 379l70 65h234l-70 -65h-234zM893 477l78 74h231l-76 -74h-233zM995 575l88 82h232l-86 -82h-234zM1100 674l96 90h229l-94 -90h-231 zM1204 772l53 49h230l-53 -49h-230z" />
<glyph unicode="x" horiz-adv-x="1071" d="M82 0l18 20h219l-20 -20h-217zM160 82l45 45h219l-45 -45h-219zM217 821h123l37 -49h-123zM256 180l51 51h219l-51 -51h-219zM260 764h123l70 -90h-123zM342 657h123l65 -82h-124zM354 281l56 57h303l43 -57h-119l-27 34l-35 -34h-221zM424 551h125l31 -39l36 39h222 l-72 -74h-285zM451 379l59 61l-4 4h227l-57 -59l4 -6h-229zM641 575l80 82h221l-80 -82h-221zM674 231h121l39 -51h-119zM737 674l88 90h222l-89 -90h-221zM756 127h118l35 -45h-118zM834 772l47 49h223l-49 -57zM840 20h118l17 -20h-119z" />
<glyph unicode="y" d="M111 180v23.5t2 27.5h784l-6 -51h-780zM113 127h770l-6 -45h-752q-10 18 -12 45zM121 281l8 57h133v-10q0 -4 -1 -7.5t-1 -7.5q0 -16 8 -32h-147zM135 379l8 65h136l-11 -65h-133zM147 477l11 74h135l-10 -74h-136zM162 575l10 82h135l-10 -82h-135zM172 20h696l-4 -36 h-135l2 16h-477q-49 0 -82 20zM174 674l14 90h136l-15 -90h-135zM188 772l9 49h135l-8 -49h-136zM297 -311l2 12h449l-21 -12h-430zM311 -213l2 20h514l-10 -20h-506zM686 -115q12 12 23 29h145l-4 -29h-164zM770 281l8 57h135l-8 -57h-135zM784 379l9 65h135l-8 -65h-136z M797 477l10 74h135l-10 -74h-135zM811 575l10 82h135l-10 -82h-135zM823 674l15 90h135l-15 -90h-135zM838 772l8 49h135l-8 -49h-135z" />
<glyph unicode="z" horiz-adv-x="847" d="M82 0l2 20h684l-2 -20h-684zM94 82l6 45h682l-6 -45h-682zM106 180l3 4l55 47h633l-6 -51h-685zM180 694l8 70h684l-4 -37l-63 -53h-121l25 20h-529zM190 772l7 49h684l-7 -49h-684zM221 281l68 57h123l-68 -57h-123zM336 379l78 65h123l-76 -65h-125zM453 477l86 74h123 l-87 -74h-122zM567 575l97 82h122l-96 -82h-123z" />
<glyph unicode="|" horiz-adv-x="272" d="M31 -311l2 12h108l-2 -12h-108zM45 -213l2 20h109l-2 -20h-109zM59 -115l4 29h109l-4 -29h-109zM72 -16l6 36h108l-6 -36h-108zM86 82l6 45h109l-6 -45h-109zM98 180l8 51h109l-8 -51h-109zM113 281l8 57h108l-8 -57h-108zM127 379l10 65h109l-10 -65h-109zM141 477 l11 74h108l-10 -74h-109zM154 575l12 82h108l-12 -82h-108zM168 674l12 90h109l-13 -90h-108zM180 772l88 617h109l-88 -617h-109z" />
<glyph unicode="&#xa1;" horiz-adv-x="360" d="M80 -311l2 12h98l-2 -12h-98zM94 -213l2 20h99l-2 -20h-99zM109 -115l4 29h98l-4 -29h-98zM121 -16l6 36h98l-6 -36h-98zM135 82l6 45h99l-7 -45h-98zM147 180l9 51h98l-8 -51h-99zM162 281l8 57h98l-8 -57h-98zM176 379l10 65h99l-11 -65h-98zM178 743l2 21h197l-2 -21 h-197zM182 772l31 213h197l-31 -213h-197zM190 477l11 74h98l-10 -74h-99zM203 575l12 82h98l-12 -82h-98z" />
<glyph unicode="&#xa2;" horiz-adv-x="774" d="M141 379v30.5t2 34.5h611l-9 -65h-604zM145 338h594l-8 -57h-569q-14 27 -17 57zM150 477l10 74h133v-19q0 -41 22 -55h-165zM162 575l12 82h135l-12 -82h-135zM176 674l12 90h136l-13 -90h-135zM188 772l39 264h293l19 195h51l-19 -195h267l-17 -127h-262l-14 -137h-51 l14 137h-162l-20 -137h-138zM209 231h516l-2 -16h-229l-5 -35h-51l4 35h-157q-43 0 -76 16zM420 -16l4 36h51l-4 -36h-51zM430 82l4 45h51l-12 -45h-43zM465 477l8 74h51l-8 -74h-51zM475 575l8 82h52l-9 -82h-51zM485 674l9 90h51l-8 -90h-52z" />
<glyph unicode="&#xa3;" horiz-adv-x="897" d="M82 0l2 20h733l-2 -20h-733zM92 82l6 45h733l-6 -45h-733zM106 180l9 51h733l-8 -51h-734zM207 694l45 70h465l-45 -70h-135l-5 -20h-135l4 20h-194zM256 772l33 49h129l35 240q37 252 206 252h340l-34 -252h-291q-82 0 -96 -76l-25 -164h201l-33 -49h-465zM342 281l8 57 h135l-8 -57h-135zM356 379l11 65h135l-10 -65h-136zM371 477l10 74h135l-10 -74h-135zM383 575l12 82h135l-12 -82h-135z" />
<glyph unicode="&#xa5;" horiz-adv-x="1374" d="M209 1313h125l418 -541h-125zM461 330h184v8h174v-8h170l-8 -49h-496zM494 551h524l-10 -74h-476zM600 0l2 20h174l-2 -20h-174zM610 82l6 45h175l-7 -45h-174zM625 180l6 49h174l-6 -49h-174zM633 764h125l6 -6l6 6h221l-88 -90h-211l2 12zM651 379l8 65h175l-9 -65 h-174zM678 575l12 82h197l-27 -26l-8 -56h-174zM778 772l529 541h223l-531 -541h-221z" />
<glyph unicode="&#xa6;" horiz-adv-x="272" d="M31 -311l2 12h108l-2 -12h-108zM45 -213l2 20h109l-2 -20h-109zM57 -115l4 29h109l-4 -29h-109zM72 -16l4 36h108l-4 -36h-108zM84 82l6 45h109l-6 -45h-109zM98 180l6 51h109l-6 -51h-109zM113 281l2 14h108l-2 -14h-108zM172 702l8 62h109l-8 -62h-109zM180 772l88 617 h109l-88 -617h-109z" />
<glyph unicode="&#xa7;" d="M80 0l2 20h698q-35 -20 -86 -20h-614zM90 82l6 45h772q-8 -23 -24 -45h-754zM104 180l7 51h786q-2 -25 -10 -51h-783zM147 477l11 74h786l-10 -74h-787zM162 575l12 82h135l-10 -82h-137zM176 674q10 51 37 90h115q-4 -8 -9 -29l-8 -61h-135zM195 807l43 295 q31 211 200 211h613l-19 -127h-596q-55 0 -61 -58l-29 -213q20 4 37 5h612l-22 -148h-135l4 21h-461q-35 0 -49 -21h-113q8 10 16.5 18.5t18.5 16.5h-59zM756 281q14 16 20 47v10h137l-8 -57h-149zM782 379l11 65h135l-8 -65h-138zM786 575q25 18 35 60l2 22h131 q-16 -57 -41 -82h-127zM825 674l13 90h135l-6 -43q-2 -14 -4 -25.5t-5 -21.5h-133z" />
<glyph unicode="&#xa8;" horiz-adv-x="610" d="M272 1356l23 162h168l-23 -162h-168zM551 1356l22 162h168l-22 -162h-168z" />
<glyph unicode="&#xa9;" horiz-adv-x="1347" d="M111 180v23.5t2 27.5h94v-6q-2 -10 -2 -24t2 -21h-96zM113 127h1169l-6 -45h-1151q-10 18 -12 45zM121 281l8 57h94l-8 -57h-94zM135 379l8 65h95l-9 -65h-94zM147 477l11 74h94l-10 -74h-95zM162 575l10 82h94l-10 -82h-94zM172 20h1096l-2 -20h-1012q-49 0 -82 20z M174 674l14 90h95l-15 -90h-94zM188 772l78 541h1012q143 0 143 -176q-2 -16 -2 -35t-4 -41l-41 -289h-96l43 293q2 10 2 18.5v16.5q0 84 -80 84h-901l-59 -412h-95zM414 409.5v34.5h610l-10 -65h-598q-2 14 -2 30.5zM418 477l10 74h137q2 -63 76 -64h389l-2 -10h-610z M422 338h588l-9 -57h-550q-18 23 -29 57zM432 575l10 82h136l-13 -82h-133zM444 674l13 90h137l-14 -90h-136zM459 772l41 287h610l-16 -127h-476l-24 -160h-135zM1196 180l8 51h92l-6 -51h-94zM1210 281l9 57h94l-8 -57h-95zM1225 379l10 65h92l-8 -65h-94zM1239 477l10 74 h94l-10 -74h-94zM1251 575l13 82h94l-12 -82h-95zM1266 674l12 90h94l-12 -107z" />
<glyph unicode="&#xab;" horiz-adv-x="679" d="M152 786l297 388h112l-301 -402h-102zM162 764h92l-16 -23l32 -67h-63zM215 657h64l38 -82h-61zM268 551h62l35 -74h-60zM322 444h57l33 -65h-60zM373 338h57l10 -19h-57zM397 786l297 388h113l-301 -402h-103zM408 764h92l-17 -23l33 -67h-63zM461 657h63l39 -82h-61z M514 551h61l35 -74h-59zM567 444h58l32 -65h-59zM618 338h58l10 -19h-57z" />
<glyph unicode="&#xad;" horiz-adv-x="659" d="M193 786h495l-2 -14h-489zM201 764h483l-12 -90h-441zM238 657h432v-6h-430z" />
<glyph unicode="&#xae;" horiz-adv-x="1064" d="M135 444h78q12 -25 49 -24h684l2 24h72l-8 -65h-865q-10 29 -12 65zM135 477l8 74h74l-8 -57q-2 -6 -2 -17h-72zM147 575l11 82h73l-12 -82h-72zM160 674l14 90h72l-13 -90h-73zM174 772l78 541h762q106 0 106 -131q0 -14 -1 -28.5t-3 -31.5l-51 -350h-72l51 354 q2 10 3 27q0 63 -60 64h-678l-63 -445h-72zM184 338h822l-2 -12h-762q-33 0 -58 12zM309 485l8 66h84l-8 -66h-84zM322 575l10 82h86l-12 -82h-84zM334 674l14 90h84l-12 -90h-86zM348 772l53 367h455q45 0 65.5 -19.5t20.5 -46.5t-17.5 -53.5t-45.5 -44.5l-312 -203h-65 l321 211q12 6 13 14q0 16 -21 17h-346l-35 -242h-86zM453 739l36 25h76l94 -90h-139zM537 657h141l86 -82h-143zM645 551h146l69 -66h-147zM952 477l11 74h71l-10 -74h-72zM967 575l10 82h72l-11 -82h-71zM979 674l14 90h72l-14 -90h-72z" />
<glyph unicode="&#xaf;" horiz-adv-x="702" d="M274 1376l19 121h551l-19 -121h-551z" />
<glyph unicode="&#xb0;" horiz-adv-x="800" d="M178 913q0 80 33 152t88 126t128 87t151 33q66 0 121 -23.5t95 -63.5t62.5 -95.5t22.5 -118.5q0 -127 -86 -238h-105l2 2q51 43 80 104.5t29 125.5q0 49 -17.5 91t-48.5 72.5t-74 48t-92 17.5q-55 0 -107 -21.5t-94 -57.5t-70 -85t-36 -104q-2 -10 -2 -18.5v-18.5 q0 -90 53 -154l2 -2h-102q-14 29 -23.5 65.5t-9.5 75.5zM215 764h107q63 -68 170 -68q53 0 99 18.5t87 49.5h108q-20 -27 -47.5 -50.5t-56.5 -39.5h-387q-27 16 -45.5 39.5t-34.5 50.5zM319 657h332q-37 -23 -84 -32t-88 -9q-43 0 -87 10.5t-73 30.5z" />
<glyph unicode="&#xb2;" horiz-adv-x="854" d="M209 477l10 74h612l-10 -74h-612zM221 575l12 82h613l-12 -82h-613zM236 674l12 90h114l-12 -90h-114zM250 772l41 289h495l7 49q0 16 -19 16h-475l27 185h495q96 0 97 -115q0 -12 -1.5 -25.5t-3.5 -27.5l-24 -187h-498l-26 -184h-115z" />
<glyph unicode="&#xb3;" horiz-adv-x="800" d="M201 477l10 74h526l-10 -74h-526zM213 575l12 82h527l-13 -82h-526zM268 958l15 105h413l6 47q0 16 -16 16h-395l26 187h406q100 0 100 -119q0 -12 -1 -24.5t-3 -26.5l-53 -371h-111l27 186h-414zM641 674l12 90h113l-12 -90h-113z" />
<glyph unicode="&#xb4;" horiz-adv-x="481" d="M270 1348l11 59l325 66l-8 -60z" />
<glyph unicode="&#xb6;" horiz-adv-x="942" d="M215 1065l18 129l148 119h676l-78 -541h-100l22 156h-301l-22 -156h-168l22 156h-104zM301 0l2 20h168l-2 -20h-168zM311 82l6 45h168l-6 -45h-168zM326 180l6 51h168l-6 -51h-168zM340 281l8 57h168l-8 -57h-168zM354 379l8 65h168l-8 -65h-168zM369 477l10 74h168 l-10 -74h-168zM381 575l12 82h168l-12 -82h-168zM395 674l13 90h167l-12 -90h-168zM770 0l2 20h102l-2 -20h-102zM780 82l6 45h103l-6 -45h-103zM795 180l6 51h102l-6 -51h-102zM809 281l8 57h103l-9 -57h-102zM823 379l8 65h103l-8 -65h-103zM838 477l10 74h100l-10 -74 h-100zM850 575l12 82h101l-11 -82h-102zM864 674l13 90h102l-14 -90h-101z" />
<glyph unicode="&#xb8;" horiz-adv-x="399" d="M31 -299h276l-2 -12h-274v12zM57 -115l4 29h275l-4 -29h-275zM72 -16l4 28h110l-4 -28h-110zM268 -213l2 20h52l-3 -20h-51z" />
<glyph unicode="&#xb9;" horiz-adv-x="460" d="M256 1128l27 187h116q100 0 101 -127v-21.5t-2 -21.5l-54 -373h-118l49 340q0 16 -15 16h-104zM287 479l10 72h117l-11 -72h-116zM299 575l12 82h117l-12 -82h-117zM313 674l13 90h116l-12 -90h-117z" />
<glyph unicode="&#xbb;" horiz-adv-x="659" d="M86 317l14 21h113l-14 -21h-113zM131 379l49 65h115l-49 -65h-115zM205 477l55 74h117l-58 -74h-114zM207 1171h55l197 -399h-62zM279 575l59 82h119l-62 -82h-116zM332 317l14 21h113l-15 -21h-112zM350 674l58 76l-7 14h62l31 -59l-25 -31h-119zM377 379l49 65h115 l-49 -65h-115zM451 477l55 74h117l-58 -74h-114zM453 1171h55l197 -399h-62zM524 575l60 82h118l-61 -82h-117zM596 674l57 76l-6 14h62l30 -59l-24 -31h-119z" />
<glyph unicode="&#xbc;" horiz-adv-x="1560" d="M229 0l19 20h86l-19 -20h-86zM301 82l41 45h86l-41 -45h-86zM334 1128l26 187h117q100 0 101 -127v-21.5t-3 -21.5l-53 -373h-119l50 340q0 16 -15 16h-104zM365 479l10 72h117l-11 -72h-116zM377 575l12 82h117l-12 -82h-117zM389 180l45 51h86l-45 -51h-86zM391 674 l12 90h117l-12 -90h-117zM477 281l49 57h88l-51 -57h-86zM563 379l58 65h88l-60 -65h-86zM649 477l64 74h90l-66 -74h-88zM725 205l29 26h680l-7 -51h-102l4 25h-604zM735 575l72 82h90l-74 -82h-88zM809 281l63 57h189l-49 -43h329l7 43h102l-8 -57h-633zM821 674l80 90h90 l-80 -90h-90zM907 772l477 541h93l-480 -541h-90zM918 379l73 65h193l-74 -65h-192zM1028 477l82 74h197l-84 -74h-195zM1137 575l92 82h264l-10 -82h-99l2 43l-51 -43h-198zM1247 674l101 90h161l-14 -90h-248zM1300 0l3 20h102l-2 -20h-103zM1311 82l6 45h102l-6 -45h-102 zM1354 379l8 65h102l-8 -65h-102zM1356 764l28 33v-2q35 41 82 41h54l-11 -64zM1366 477l10 74h103l-11 -74h-102z" />
<glyph unicode="&#xbd;" horiz-adv-x="1869" d="M262 0l19 20h86l-19 -20h-86zM317 1126l27 187h117q98 0 98 -123v-22.5t-2 -24.5l-53 -371h-115l47 338q0 16 -14 16h-105zM334 82l41 45h86l-41 -45h-86zM348 477l10 74h117l-10 -74h-117zM360 575l13 82h116l-12 -82h-117zM375 674l12 90h117l-12 -90h-117zM422 180 l45 51h86l-45 -51h-86zM510 281l49 57h88l-51 -57h-86zM596 379l57 65h88l-59 -65h-86zM682 477l63 74h91l-66 -74h-88zM768 575l72 82h90l-74 -82h-88zM854 674l80 90h90l-80 -90h-90zM940 772l477 541h92l-479 -541h-90zM1128 0l2 20h613l-2 -20h-613zM1139 82l6 45h614 l-6 -45h-614zM1153 180l6 51h117l-6 -49l497 -2h-614zM1167 281l9 57h114l-8 -57h-115zM1182 379l8 65h115l-9 -65h-114zM1194 477l10 74h615l-11 -70h-497l-2 -4h-115zM1208 575l2 11h496l6 51q0 14 -16 14h-475v6h612l-12 -82h-613zM1223 674l12 90h598q4 -10 4 -21.5 v-25.5v-20.5t-2 -22.5h-612zM1237 772l8 64h496q72 0 90 -64h-594z" />
<glyph unicode="&#xbe;" horiz-adv-x="1910" d="M201 477l10 74h526l-10 -74h-526zM213 575l12 82h527l-13 -82h-526zM268 958l15 105h413l6 47q0 16 -16 16h-395l26 187h406q100 0 100 -119q0 -12 -1 -24.5t-3 -26.5l-53 -371h-111l27 186h-414zM481 0l19 20l86 -20h-105zM553 82l41 45h86l-41 -45h-86zM641 180l45 51 h86l-45 -51h-86zM641 674l12 90h113l-12 -90h-113zM729 281l49 57h88l-51 -57h-86zM815 379l57 65h89l-60 -65h-86zM901 477l64 74h90l-66 -74h-88zM987 575l72 82h90l-74 -82h-88zM1073 674l80 90h90l-80 -90h-90zM1100 205l28 26h680l-6 -51h-102l4 25h-604zM1159 772 l477 541h93l-480 -541h-90zM1184 281l63 57h189l-50 -43h330l6 43h103l-8 -57h-633zM1292 379l74 65h193l-74 -65h-193zM1403 477l82 74h196l-84 -74h-194zM1511 575l93 82h264l-10 -82h-103l6 43l-51 -43h-199zM1622 674l100 90h162l-14 -90h-248zM1675 0l2 20h103l-2 -20 h-103zM1686 82l6 45h102l-6 -45h-102zM1729 379l8 65h102l-8 -65h-102zM1731 764l28 33v-2q35 41 82 41h53l-10 -64zM1741 477l10 74h102l-10 -74h-102z" />
<glyph unicode="&#xbf;" horiz-adv-x="1267" d="M29 -193h1134l-4 -20h-1128q-2 6 -2 16v4zM45 -115q6 16 14 27l1119 2l-4 -29h-1129zM88 -299h1061l-2 -12h-1034zM127 -16q14 10 33 20l22 16h131l-45 -32l-6 -4h-135zM266 82l62 45h131l-62 -45h-131zM399 180l70 51h131l-70 -51h-131zM537 281l77 57h131l-77 -57h-131 zM670 379l65 47l17 18h137l-88 -65h-131zM762 477q2 2 2 6l8 68h191l-19 -43q-4 -8 -10 -15.5t-12 -15.5h-160zM776 575l10 68h197l-4 -31l-8 -37h-195zM801 745l2 19h196l-2 -19h-196zM805 772l31 215h196l-31 -215h-196z" />
<glyph unicode="&#xc0;" horiz-adv-x="1394" d="M0 0l20 20h224l-21 -20h-223zM86 82l47 45h225l-49 -45h-223zM188 180l56 51h225l-55 -51h-226zM295 281l59 57h228l-62 -57h-225zM397 379l70 65h229l-69 -65h-230zM502 477l78 74h229l-78 -74h-229zM604 575l86 82h234l-88 -82h-232zM709 674l94 90h233l-96 -90h-231z M811 772l512 485q51 55 117 56h57l-78 -541h-116l40 281l-299 -281h-233zM1196 0l2 20l117 -20h-119zM1206 82l6 45h117l-6 -45h-117zM1221 180l6 51h116l-6 -51h-116zM1235 281l8 57h117l-8 -57h-117zM1249 379l8 65h117l-8 -65h-117zM1249 1413l8 60l310 -66l-11 -59z M1262 477l10 74h117l-11 -74h-116zM1276 575l10 82h117l-10 -82h-117zM1288 674l15 90h116l-14 -90h-117z" />
<glyph unicode="&#xc1;" horiz-adv-x="1394" d="M0 0l20 20h224l-21 -20h-223zM86 82l47 45h225l-49 -45h-223zM188 180l56 51h225l-55 -51h-226zM295 281l59 57h228l-62 -57h-225zM397 379l70 65h229l-69 -65h-230zM502 477l78 74h229l-78 -74h-229zM604 575l86 82h234l-88 -82h-232zM709 674l94 90h233l-96 -90h-231z M811 772l512 485q51 55 117 56h57l-78 -541h-116l40 281l-299 -281h-233zM1196 0l2 20l117 -20h-119zM1206 82l6 45h117l-6 -45h-117zM1221 180l6 51h116l-6 -51h-116zM1235 281l8 57h117l-8 -57h-117zM1249 379l8 65h117l-8 -65h-117zM1262 477l10 74h117l-11 -74h-116z M1264 1348l10 59l325 66l-8 -60zM1276 575l10 82h117l-10 -82h-117zM1288 674l15 90h116l-14 -90h-117z" />
<glyph unicode="&#xc2;" horiz-adv-x="1394" d="M0 0l20 20h224l-21 -20h-223zM86 82l47 45h225l-49 -45h-223zM188 180l56 51h225l-55 -51h-226zM295 281l59 57h228l-62 -57h-225zM397 379l70 65h229l-69 -65h-230zM502 477l78 74h229l-78 -74h-229zM604 575l86 82h234l-88 -82h-232zM709 674l94 90h233l-96 -90h-231z M811 772l512 485q51 55 117 56h57l-78 -541h-116l40 281l-299 -281h-233zM1196 0l2 20l117 -20h-119zM1206 82l6 45h117l-6 -45h-117zM1221 180l6 51h116l-6 -51h-116zM1231 1337l12 84l211 66l195 -66l-13 -84l-194 66zM1235 281l8 57h117l-8 -57h-117zM1249 379l8 65h117 l-8 -65h-117zM1262 477l10 74h117l-11 -74h-116zM1276 575l10 82h117l-10 -82h-117zM1288 674l15 90h116l-14 -90h-117z" />
<glyph unicode="&#xc3;" horiz-adv-x="1394" d="M0 0l20 20h224l-21 -20h-223zM86 82l47 45h225l-49 -45h-223zM188 180l56 51h225l-55 -51h-226zM295 281l59 57h228l-62 -57h-225zM397 379l70 65h229l-69 -65h-230zM502 477l78 74h229l-78 -74h-229zM604 575l86 82h234l-88 -82h-232zM709 674l94 90h233l-96 -90h-231z M811 772l512 485q51 55 117 56h57l-78 -541h-116l40 281l-299 -281h-233zM1196 0l2 20l117 -20h-119zM1206 82l6 45h117l-6 -45h-117zM1221 180l6 51h116l-6 -51h-116zM1235 281l8 57h117l-8 -57h-117zM1249 379l8 65h117l-8 -65h-117zM1262 477l10 74h117l-11 -74h-116z M1276 575l10 82h117l-10 -82h-117zM1284 1411q57 84 125 84h2q8 0 23.5 -6t32 -13.5t33 -13.5t26.5 -8h4q31 0 59 49l43 -57q-16 -41 -51 -57.5t-72 -16.5q-45 16 -64.5 28.5t-35.5 12.5h-2q-29 0 -74 -51zM1288 674l15 90h116l-14 -90h-117z" />
<glyph unicode="&#xc4;" horiz-adv-x="1394" d="M0 0l20 20h224l-21 -20h-223zM86 82l47 45h225l-49 -45h-223zM188 180l56 51h225l-55 -51h-226zM295 281l59 57h228l-62 -57h-225zM397 379l70 65h229l-69 -65h-230zM502 477l78 74h229l-78 -74h-229zM604 575l86 82h234l-88 -82h-232zM709 674l94 90h233l-96 -90h-231z M811 772l512 485q51 55 117 56h57l-78 -541h-116l40 281l-299 -281h-233zM1196 0l2 20l117 -20h-119zM1206 82l6 45h117l-6 -45h-117zM1221 180l6 51h116l-6 -51h-116zM1225 1356l22 162h168l-22 -162h-168zM1235 281l8 57h117l-8 -57h-117zM1249 379l8 65h117l-8 -65h-117z M1262 477l10 74h117l-11 -74h-116zM1276 575l10 82h117l-10 -82h-117zM1288 674l15 90h116l-14 -90h-117zM1503 1356l23 162h168l-23 -162h-168z" />
<glyph unicode="&#xc5;" horiz-adv-x="1394" d="M0 0l20 20h224l-21 -20h-223zM86 82l47 45h225l-49 -45h-223zM188 180l56 51h225l-55 -51h-226zM295 281l59 57h228l-62 -57h-225zM397 379l70 65h229l-69 -65h-230zM502 477l78 74h229l-78 -74h-229zM604 575l86 82h234l-88 -82h-232zM709 674l94 90h233l-96 -90h-231z M811 772l512 485q51 55 117 56h57l-78 -541h-116l40 281l-299 -281h-233zM1196 0l2 20l117 -20h-119zM1206 82l6 45h117l-6 -45h-117zM1221 180l6 51h116l-6 -51h-116zM1235 281l8 57h117l-8 -57h-117zM1249 379l8 65h117l-8 -65h-117zM1262 477l10 74h117l-11 -74h-116z M1276 575l10 82h117l-10 -82h-117zM1284 1339l37 267h309l-37 -267h-309zM1288 674l15 90h116l-14 -90h-117zM1335 1399h174l25 172h-174z" />
<glyph unicode="&#xc6;" horiz-adv-x="2035" d="M82 0l20 20h224l-21 -20h-223zM168 82l47 45h225l-49 -45h-223zM270 180l56 51h225l-55 -51h-226zM377 281l59 57h228l-62 -57h-225zM479 379l70 65h229l-69 -65h-230zM584 477l78 74h229l-78 -74h-229zM686 575l86 82h234l-88 -82h-232zM791 674l94 90h233l-96 -90h-231 zM893 772l512 485q51 55 117 56h616l-35 -252h-569l-41 -289h-109l41 281l-299 -281h-233zM1278 0l2 20h676l-2 -20h-676zM1288 82l6 45h676l-6 -45h-676zM1303 180l6 51h678l-9 -51h-675zM1317 281l8 57h107l-9 -57h-106zM1331 379l8 65h109l-10 -65h-107zM1343 477l11 74 h108l-10 -74h-109zM1358 575l10 82h109l-13 -82h-106zM1370 674l14 90h107l-12 -90h-109zM1532 901h549l-19 -129h-469z" />
<glyph unicode="&#xc7;" horiz-adv-x="1224" d="M111 180v23.5t2 27.5h1061l-7 -51h-1056zM113 127h1046l-6 -45h-1028q-10 18 -12 45zM121 281l8 57h133v-10q0 -4 -1 -7.5t-1 -7.5q0 -16 8 -32h-147zM135 379l8 65h136l-11 -65h-133zM147 477l11 74h135l-10 -74h-136zM162 575l10 82h135l-10 -82h-135zM172 20h973 l-2 -20h-535l-2 -16h-110l2 16h-244q-49 0 -82 20zM174 674l14 90h136l-15 -90h-135zM188 772l78 541h1061l-35 -252h-925l-43 -289h-136zM455 -299h276l-2 -12h-274v12zM481 -115l4 29h275l-4 -29h-275zM692 -213l2 20h51l-2 -20h-51z" />
<glyph unicode="&#xc8;" horiz-adv-x="1228" d="M82 0l2 20h1065l-2 -20h-1065zM92 82l6 45h1065l-6 -45h-1065zM106 180l7 51h1067l-9 -51h-1065zM121 281l8 57h197l-9 -57h-196zM135 379l8 65h199l-10 -65h-197zM147 477l11 74h198l-10 -74h-199zM162 575l10 82h199l-13 -82h-196zM174 674l14 90h197l-12 -90h-199z M188 772l78 541h1065l-35 -252h-868l-41 -289h-199zM426 901h848l-19 -129h-768zM664 1413l8 60l309 -66l-10 -59z" />
<glyph unicode="&#xc9;" horiz-adv-x="1228" d="M82 0l2 20h1065l-2 -20h-1065zM92 82l6 45h1065l-6 -45h-1065zM106 180l7 51h1067l-9 -51h-1065zM121 281l8 57h197l-9 -57h-196zM135 379l8 65h199l-10 -65h-197zM147 477l11 74h198l-10 -74h-199zM162 575l10 82h199l-13 -82h-196zM174 674l14 90h197l-12 -90h-199z M188 772l78 541h1065l-35 -252h-868l-41 -289h-199zM426 901h848l-19 -129h-768zM668 1348l10 59l326 66l-9 -60z" />
<glyph unicode="&#xca;" horiz-adv-x="1228" d="M82 0l2 20h1065l-2 -20h-1065zM92 82l6 45h1065l-6 -45h-1065zM106 180l7 51h1067l-9 -51h-1065zM121 281l8 57h197l-9 -57h-196zM135 379l8 65h199l-10 -65h-197zM147 477l11 74h198l-10 -74h-199zM162 575l10 82h199l-13 -82h-196zM174 674l14 90h197l-12 -90h-199z M188 772l78 541h1065l-35 -252h-868l-41 -289h-199zM426 901h848l-19 -129h-768zM612 1337l13 84l211 66l194 -66l-12 -84l-195 66z" />
<glyph unicode="&#xcb;" horiz-adv-x="1228" d="M82 0l2 20h1065l-2 -20h-1065zM92 82l6 45h1065l-6 -45h-1065zM106 180l7 51h1067l-9 -51h-1065zM121 281l8 57h197l-9 -57h-196zM135 379l8 65h199l-10 -65h-197zM147 477l11 74h198l-10 -74h-199zM162 575l10 82h199l-13 -82h-196zM174 674l14 90h197l-12 -90h-199z M188 772l78 541h1065l-35 -252h-868l-41 -289h-199zM426 901h848l-19 -129h-768zM588 1356l22 162h168l-22 -162h-168zM866 1356l23 162h168l-23 -162h-168z" />
<glyph unicode="&#xcc;" horiz-adv-x="393" d="M82 0l2 20h229l-2 -20h-229zM92 82l6 45h230l-6 -45h-230zM106 180l7 51h229l-6 -51h-230zM121 281l8 57h229l-8 -57h-229zM135 379l8 65h230l-8 -65h-230zM147 477l11 74h229l-10 -74h-230zM162 575l10 82h229l-10 -82h-229zM174 674l14 90h230l-15 -90h-229zM188 772 l78 541h230l-78 -541h-230zM238 1413l8 60l309 -66l-10 -59z" />
<glyph unicode="&#xcd;" horiz-adv-x="393" d="M82 0l2 20h229l-2 -20h-229zM92 82l6 45h230l-6 -45h-230zM106 180l7 51h229l-6 -51h-230zM121 281l8 57h229l-8 -57h-229zM135 379l8 65h230l-8 -65h-230zM147 477l11 74h229l-10 -74h-230zM162 575l10 82h229l-10 -82h-229zM174 674l14 90h230l-15 -90h-229zM188 772 l78 541h230l-78 -541h-230zM240 1348l10 59l325 66l-8 -60z" />
<glyph unicode="&#xce;" horiz-adv-x="393" d="M82 0l2 20h229l-2 -20h-229zM92 82l6 45h230l-6 -45h-230zM106 180l7 51h229l-6 -51h-230zM121 281l8 57h229l-8 -57h-229zM135 379l8 65h230l-8 -65h-230zM147 477l11 74h229l-10 -74h-230zM162 575l10 82h229l-10 -82h-229zM174 674l14 90h230l-15 -90h-229zM188 772 l78 541h230l-78 -541h-230zM190 1337l13 84l211 66l194 -66l-12 -84l-195 66z" />
<glyph unicode="&#xcf;" horiz-adv-x="393" d="M82 0l2 20h229l-2 -20h-229zM92 82l6 45h230l-6 -45h-230zM106 180l7 51h229l-6 -51h-230zM121 281l8 57h229l-8 -57h-229zM135 379l8 65h230l-8 -65h-230zM147 477l11 74h229l-10 -74h-230zM162 575l10 82h229l-10 -82h-229zM168 1356l22 162h168l-22 -162h-168z M174 674l14 90h230l-15 -90h-229zM188 772l78 541h230l-78 -541h-230zM446 1356l23 162h168l-23 -162h-168z" />
<glyph unicode="&#xd0;" horiz-adv-x="1228" d="M41 786h152l73 527h914q72 0 125 -41t53 -113q0 -49 -32 -108.5t-105 -128.5l-158 -150h-121l195 182q39 37 39 64q0 20 -21.5 31.5t-58.5 11.5h-697l-39 -275h177l-2 -14h-490zM49 764h483l-12 -90h-440zM82 0l2 20h188l-20 -20h-170zM86 657h432v-6h-176l-12 -76h-170 l12 76h-84zM92 82l6 45h287l-47 -45h-246zM106 180l7 51h170l-9 -51h-168zM121 281l8 57h168l-8 -57h-168zM133 379l10 65h170l-10 -65h-170zM147 477l11 74h170l-11 -74h-170zM311 180l54 51h131l-56 -51h-129zM418 281l61 57h127l-59 -57h-129zM522 379l70 65h127l-70 -65 h-127zM627 477l80 74h124l-77 -74h-127zM733 575l86 82h123l-86 -82h-123zM838 674l96 90h121l-94 -90h-123z" />
<glyph unicode="&#xd1;" horiz-adv-x="1353" d="M82 0l2 20h168l-2 -20h-168zM92 82l6 45h168l-6 -45h-168zM106 180l7 51h168l-7 -51h-168zM121 281l8 57h168l-8 -57h-168zM135 379l8 65h168l-8 -65h-168zM147 477l11 74h168l-11 -74h-168zM162 575l10 82h168l-10 -82h-168zM174 674l14 90h168l-14 -90h-168zM188 772 l78 541h168l-18 -129l280 -412h-147l-158 236l-35 -236h-168zM553 764h147l62 -90h-148zM625 657h149l55 -82h-149zM684 1411q57 84 125 84h2q8 0 23.5 -6t32 -13.5t32.5 -13.5t27 -8h4q31 0 59 49l43 -57q-16 -41 -51 -57.5t-72 -16.5q-45 16 -64.5 28.5t-35.5 12.5h-2 q-29 0 -74 -51zM696 551h150l49 -74h-150zM768 444h150l45 -65h-152zM840 338h149l39 -57h-149zM911 231h152l31 -45l6 45h203l-7 -51h-350zM981 127h307l-6 -45h-270zM1053 20h221l-2 -20h-205zM1106 281l8 57h205l-8 -57h-205zM1120 379l10 65h203l-8 -65h-205zM1135 477 l10 74h203l-11 -74h-202zM1147 575l12 82h203l-10 -82h-205zM1161 674l13 90h204l-14 -90h-203zM1174 772l77 541h205l-78 -541h-204z" />
<glyph unicode="&#xd2;" horiz-adv-x="1347" d="M111 180v23.5t2 27.5h1183l-6 -51h-1179zM113 127h1169l-6 -45h-1151q-10 18 -12 45zM121 281l8 57h133v-10q0 -4 -1 -7.5t-1 -7.5q0 -16 8 -32h-147zM135 379l8 65h136l-11 -65h-133zM147 477l11 74h135l-10 -74h-136zM162 575l10 82h135l-10 -82h-135zM172 20h1096 l-2 -20h-1012q-49 0 -82 20zM174 674l14 90h136l-15 -90h-135zM188 772l78 541h1012q143 0 143 -176q-2 -16 -2 -35t-4 -41l-41 -289h-135l33 232q0 4 1 8t1 8q0 41 -47 41h-860l-43 -289h-136zM705 1413l8 60l309 -66l-10 -59zM1169 281l9 57h135l-8 -57h-136zM1184 379 l8 65h135l-8 -65h-135zM1198 477l10 74h135l-10 -74h-135zM1210 575l13 82h135l-12 -82h-136zM1225 674l12 90h135l-12 -90h-135z" />
<glyph unicode="&#xd3;" horiz-adv-x="1347" d="M111 180v23.5t2 27.5h1183l-6 -51h-1179zM113 127h1169l-6 -45h-1151q-10 18 -12 45zM121 281l8 57h133v-10q0 -4 -1 -7.5t-1 -7.5q0 -16 8 -32h-147zM135 379l8 65h136l-11 -65h-133zM147 477l11 74h135l-10 -74h-136zM162 575l10 82h135l-10 -82h-135zM172 20h1096 l-2 -20h-1012q-49 0 -82 20zM174 674l14 90h136l-15 -90h-135zM188 772l78 541h1012q143 0 143 -176q-2 -16 -2 -35t-4 -41l-41 -289h-135l33 232q0 4 1 8t1 8q0 41 -47 41h-860l-43 -289h-136zM670 1348l10 59l326 66l-9 -60zM1169 281l9 57h135l-8 -57h-136zM1184 379 l8 65h135l-8 -65h-135zM1198 477l10 74h135l-10 -74h-135zM1210 575l13 82h135l-12 -82h-136zM1225 674l12 90h135l-12 -90h-135z" />
<glyph unicode="&#xd4;" horiz-adv-x="1347" d="M111 180v23.5t2 27.5h1183l-6 -51h-1179zM113 127h1169l-6 -45h-1151q-10 18 -12 45zM121 281l8 57h133v-10q0 -4 -1 -7.5t-1 -7.5q0 -16 8 -32h-147zM135 379l8 65h136l-11 -65h-133zM147 477l11 74h135l-10 -74h-136zM162 575l10 82h135l-10 -82h-135zM172 20h1096 l-2 -20h-1012q-49 0 -82 20zM174 674l14 90h136l-15 -90h-135zM188 772l78 541h1012q143 0 143 -176q-2 -16 -2 -35t-4 -41l-41 -289h-135l33 232q0 4 1 8t1 8q0 41 -47 41h-860l-43 -289h-136zM621 1337l12 84l211 66l194 -66l-12 -84l-195 66zM1169 281l9 57h135l-8 -57 h-136zM1184 379l8 65h135l-8 -65h-135zM1198 477l10 74h135l-10 -74h-135zM1210 575l13 82h135l-12 -82h-136zM1225 674l12 90h135l-12 -90h-135z" />
<glyph unicode="&#xd5;" horiz-adv-x="1347" d="M111 180v23.5t2 27.5h1183l-6 -51h-1179zM113 127h1169l-6 -45h-1151q-10 18 -12 45zM121 281l8 57h133v-10q0 -4 -1 -7.5t-1 -7.5q0 -16 8 -32h-147zM135 379l8 65h136l-11 -65h-133zM147 477l11 74h135l-10 -74h-136zM162 575l10 82h135l-10 -82h-135zM172 20h1096 l-2 -20h-1012q-49 0 -82 20zM174 674l14 90h136l-15 -90h-135zM188 772l78 541h1012q143 0 143 -176q-2 -16 -2 -35t-4 -41l-41 -289h-135l33 232q0 4 1 8t1 8q0 41 -47 41h-860l-43 -289h-136zM678 1411q57 84 125 84h2q8 0 23.5 -6t32 -13.5t32.5 -13.5t27 -8h4 q31 0 59 49l43 -57q-16 -41 -51 -57.5t-72 -16.5q-45 16 -64.5 28.5t-35.5 12.5h-2q-29 0 -74 -51zM1169 281l9 57h135l-8 -57h-136zM1184 379l8 65h135l-8 -65h-135zM1198 477l10 74h135l-10 -74h-135zM1210 575l13 82h135l-12 -82h-136zM1225 674l12 90h135l-12 -90h-135z " />
<glyph unicode="&#xd6;" horiz-adv-x="1347" d="M111 180v23.5t2 27.5h1183l-6 -51h-1179zM113 127h1169l-6 -45h-1151q-10 18 -12 45zM121 281l8 57h133v-10q0 -4 -1 -7.5t-1 -7.5q0 -16 8 -32h-147zM135 379l8 65h136l-11 -65h-133zM147 477l11 74h135l-10 -74h-136zM162 575l10 82h135l-10 -82h-135zM172 20h1096 l-2 -20h-1012q-49 0 -82 20zM174 674l14 90h136l-15 -90h-135zM188 772l78 541h1012q143 0 143 -176q-2 -16 -2 -35t-4 -41l-41 -289h-135l33 232q0 4 1 8t1 8q0 41 -47 41h-860l-43 -289h-136zM629 1356l22 162h168l-22 -162h-168zM907 1356l23 162h168l-23 -162h-168z M1169 281l9 57h135l-8 -57h-136zM1184 379l8 65h135l-8 -65h-135zM1198 477l10 74h135l-10 -74h-135zM1210 575l13 82h135l-12 -82h-136zM1225 674l12 90h135l-12 -90h-135z" />
<glyph unicode="&#xd8;" horiz-adv-x="1347" d="M111 180v23.5t2 27.5h1183l-6 -51h-1179zM113 127h1169l-6 -45h-1151q-10 18 -12 45zM121 281l8 57h133v-10q0 -4 -1 -7.5t-1 -7.5q0 -16 8 -32h-147zM135 379l8 65h136l-11 -65h-133zM147 477l11 74h135l-10 -74h-136zM162 575l10 82h135l-10 -82h-135zM172 20h1096 l-2 -20h-1012q-49 0 -82 20zM174 674l14 90h136l-15 -90h-135zM188 772l78 541h1012q143 0 143 -176q-2 -16 -2 -35t-4 -41l-41 -289h-135l33 232q0 4 1 8t1 8q0 41 -47 41h-213l-158 -289h-88l156 289h-557l-43 -289h-136zM504 281l31 57h88l-31 -57h-88zM557 379l35 65h88 l-35 -65h-88zM608 477l41 74h88l-39 -74h-90zM662 575l45 82h88l-43 -82h-90zM715 674l49 90h88l-47 -90h-90zM1169 281l9 57h135l-8 -57h-136zM1184 379l8 65h135l-8 -65h-135zM1198 477l10 74h135l-10 -74h-135zM1210 575l13 82h135l-12 -82h-136zM1225 674l12 90h135 l-12 -90h-135z" />
<glyph unicode="&#xd9;" horiz-adv-x="1347" d="M111 180v23.5t2 27.5h1183l-6 -51h-1179zM113 127h1169l-6 -45h-1151q-10 18 -12 45zM121 281l8 57h133v-10q0 -4 -1 -7.5t-1 -7.5q0 -16 8 -32h-147zM135 379l8 65h136l-11 -65h-133zM147 477l11 74h135l-10 -74h-136zM162 575l10 82h135l-10 -82h-135zM172 20h1096 l-2 -20h-1012q-49 0 -82 20zM174 674l14 90h136l-15 -90h-135zM188 772l78 541h135l-77 -541h-136zM698 1413l9 60l309 -66l-10 -59zM1169 281l9 57h135l-8 -57h-136zM1184 379l8 65h135l-8 -65h-135zM1196 477l10 74h135l-10 -74h-135zM1210 575l11 82h135l-10 -82h-136z M1223 674l14 90h135l-14 -90h-135zM1237 772l78 541h135l-78 -541h-135z" />
<glyph unicode="&#xda;" horiz-adv-x="1347" d="M111 180v23.5t2 27.5h1183l-6 -51h-1179zM113 127h1169l-6 -45h-1151q-10 18 -12 45zM121 281l8 57h133v-10q0 -4 -1 -7.5t-1 -7.5q0 -16 8 -32h-147zM135 379l8 65h136l-11 -65h-133zM147 477l11 74h135l-10 -74h-136zM162 575l10 82h135l-10 -82h-135zM172 20h1096 l-2 -20h-1012q-49 0 -82 20zM174 674l14 90h136l-15 -90h-135zM188 772l78 541h135l-77 -541h-136zM700 1348l11 59l325 66l-8 -60zM1169 281l9 57h135l-8 -57h-136zM1184 379l8 65h135l-8 -65h-135zM1196 477l10 74h135l-10 -74h-135zM1210 575l11 82h135l-10 -82h-136z M1223 674l14 90h135l-14 -90h-135zM1237 772l78 541h135l-78 -541h-135z" />
<glyph unicode="&#xdb;" horiz-adv-x="1347" d="M111 180v23.5t2 27.5h1183l-6 -51h-1179zM113 127h1169l-6 -45h-1151q-10 18 -12 45zM121 281l8 57h133v-10q0 -4 -1 -7.5t-1 -7.5q0 -16 8 -32h-147zM135 379l8 65h136l-11 -65h-133zM147 477l11 74h135l-10 -74h-136zM162 575l10 82h135l-10 -82h-135zM172 20h1096 l-2 -20h-1012q-49 0 -82 20zM174 674l14 90h136l-15 -90h-135zM188 772l78 541h135l-77 -541h-136zM618 1337l13 84l211 66l194 -66l-12 -84l-195 66zM1169 281l9 57h135l-8 -57h-136zM1184 379l8 65h135l-8 -65h-135zM1196 477l10 74h135l-10 -74h-135zM1210 575l11 82h135 l-10 -82h-136zM1223 674l14 90h135l-14 -90h-135zM1237 772l78 541h135l-78 -541h-135z" />
<glyph unicode="&#xdc;" horiz-adv-x="1347" d="M111 180v23.5t2 27.5h1202l-25 -51h-1179zM113 127h1169l-6 -45h-1151q-10 18 -12 45zM121 281l8 57h133v-10q0 -4 -1 -7.5t-1 -7.5q0 -16 8 -32h-147zM135 379l8 65h136l-11 -65h-133zM147 477l11 74h135l-10 -74h-136zM162 575l10 82h135l-10 -82h-135zM172 20h1096 l-2 -20h-1012q-49 0 -82 20zM174 674l14 90h136l-15 -90h-135zM188 772l78 541h135l-77 -541h-136zM616 1356l23 162h168l-23 -162h-168zM895 1356l23 162h167l-22 -162h-168zM1169 281l9 57h135l-8 -57h-136zM1184 379l8 65h135l-8 -65h-135zM1196 477l10 74h135l-10 -74 h-135zM1210 575l11 82h135l-10 -82h-136zM1223 674l14 90h135l-14 -90h-135zM1237 772l78 541h135l-78 -541h-135z" />
<glyph unicode="&#xdd;" horiz-adv-x="1349" d="M84 0l14 20h1084q-35 -20 -86 -20h-1012zM139 82l31 45h1100q-8 -23 -25 -45h-1106zM180 657h142q14 -31 69 -30h828l4 30h135l-10 -82h-1155q-10 35 -13 82zM180 674q0 31 6 67l2 23h136l-9 -62q-2 -6 -2 -16q0 -8 2 -12h-135zM190 772l76 541h135l-77 -541h-134z M205 551h1138l-10 -74h-133l2 12h-878q-86 0 -119 62zM207 180l35 51h1056q-2 -25 -10 -51h-1081zM709 1348l10 59l325 66l-8 -60zM1157 281q14 16 21 47l2 10h135l-8 -57h-150zM1186 379l8 65h135l-8 -65h-135zM1225 674l12 90h137l-14 -90h-135zM1237 772l78 541h137 l-78 -541h-137z" />
<glyph unicode="&#xde;" d="M82 0l2 20h137l-2 -20h-137zM92 82l6 45h138l-7 -45h-137zM106 180l7 51h784v-6h-647l-6 -45h-138zM121 281l8 57h784l-8 -57h-784zM135 379l8 65h785l-8 -65h-785zM147 477l11 74h139l-10 -74h-140zM162 575l10 82h139l-12 -82h-137zM174 674l14 90h138l-13 -90h-139z M188 772l78 541h135l-32 -232h2l-4 -34h475q143 0 143 -177q0 -37 -6 -75l-4 -23h-137l14 90q0 4 1 8t1 9q0 41 -47 41h-459l-22 -148h-138zM799 477l10 74h135l-10 -74h-135zM811 575l12 82h135l-12 -82h-135zM825 674l13 90h137l-14 -90h-136z" />
<glyph unicode="&#xdf;" horiz-adv-x="1347" d="M82 0l2 20h135l-2 -20h-135zM92 82l6 45h135l-6 -45h-135zM106 180l7 51h135l-6 -51h-136zM121 281l8 57h135l-8 -57h-135zM135 379l8 65h136l-9 -65h-135zM147 477l11 74h137l-10 -74h-138zM162 575l10 82h137l-12 -82h-135zM174 674l14 90h136l-13 -90h-137zM188 772 l78 541h1012q143 0 143 -176q0 -33 -6 -76l-10 -76q-14 -113 -109 -137q68 -6 74 -76h-153q-14 10 -39 14h-732l82 115h662q66 2 76 60l6 43q0 4 1 8t1 8q0 41 -47 41h-860l-41 -289h-138zM336 0l16 20h916l-2 -20h-930zM401 82l35 45h846l-6 -45h-875zM479 180l41 51h776 l-6 -51h-811zM1169 281l9 57h135l-8 -57h-136zM1184 379l8 65h135l-8 -65h-135zM1196 477l10 74h137l-10 -74h-137zM1210 575l13 82h135l-12 -82h-136zM1223 764h147v-20.5t-2 -20.5l-8 -49h-135l6 53q0 20 -8 37z" />
<glyph unicode="&#xe0;" d="M111 180v23.5t2 27.5h784l-6 -51h-780zM113 127h770l-6 -45h-752q-10 18 -12 45zM121 281l8 57h135l-2 -10q0 -4 -1 -7.5t-1 -7.5q0 -16 8 -32h-147zM135 379l8 65h785l-8 -65h-136l7 43h-515l-6 -43h-135zM147 477l5 19h649l8 55h133l-10 -74h-785zM172 20h696l-2 -20 h-612q-49 0 -82 20zM180 694l8 70h736q25 -37 26 -90h-133q-8 20 -41 20h-596zM190 772l7 49h612q74 0 111 -49h-730zM416 922l8 59l309 -66l-10 -59zM770 281l8 57h135l-8 -57h-135zM811 575l10 62q0 4 1 5t1 5t-1 5t-1 5h129v-20q0 -14 -1 -29.5t-3 -32.5h-135z" />
<glyph unicode="&#xe1;" d="M111 180v23.5t2 27.5h784l-6 -51h-780zM113 127h770l-6 -45h-752q-10 18 -12 45zM121 281l8 57h135l-2 -10q0 -4 -1 -7.5t-1 -7.5q0 -16 8 -32h-147zM135 379l8 65h785l-8 -65h-136l7 43h-515l-6 -43h-135zM147 477l5 19h649l8 55h133l-10 -74h-785zM172 20h696l-2 -20 h-612q-49 0 -82 20zM180 694l8 70h736q25 -37 26 -90h-133q-8 20 -41 20h-596zM190 772l7 49h612q74 0 111 -49h-730zM432 856l10 59l326 66l-8 -59zM770 281l8 57h135l-8 -57h-135zM811 575l10 62q0 4 1 5t1 5t-1 5t-1 5h129v-20q0 -14 -1 -29.5t-3 -32.5h-135z" />
<glyph unicode="&#xe2;" d="M111 180v23.5t2 27.5h784l-6 -51h-780zM113 127h770l-6 -45h-752q-10 18 -12 45zM121 281l8 57h135l-2 -10q0 -4 -1 -7.5t-1 -7.5q0 -16 8 -32h-147zM135 379l8 65h785l-8 -65h-136l7 43h-515l-6 -43h-135zM147 477l5 19h649l8 55h133l-10 -74h-785zM172 20h696l-2 -20 h-612q-49 0 -82 20zM180 694l8 70h736q25 -37 26 -90h-133q-8 20 -41 20h-596zM190 772l7 49h612q74 0 111 -49h-730zM410 846l12 84l211 65l194 -65l-12 -84l-194 65zM770 281l8 57h135l-8 -57h-135zM811 575l10 62q0 4 1 5t1 5t-1 5t-1 5h129v-20q0 -14 -1 -29.5t-3 -32.5 h-135z" />
<glyph unicode="&#xe3;" d="M111 180v23.5t2 27.5h784l-6 -51h-780zM113 127h770l-6 -45h-752q-10 18 -12 45zM121 281l8 57h135l-2 -10q0 -4 -1 -7.5t-1 -7.5q0 -16 8 -32h-147zM135 379l8 65h785l-8 -65h-136l7 43h-515l-6 -43h-135zM147 477l5 19h649l8 55h133l-10 -74h-785zM172 20h696l-2 -20 h-612q-49 0 -82 20zM180 694l8 70h736q25 -37 26 -90h-133q-8 20 -41 20h-596zM190 772l7 49h612q74 0 111 -49h-730zM422 920q57 84 125 84h2q8 0 23.5 -6.5t32 -13.5t32.5 -13t27 -8h4q31 0 59 49l43 -58q-16 -41 -51 -57t-72 -16q-45 16 -64.5 28.5t-35.5 12.5h-2 q-29 0 -74 -52zM770 281l8 57h135l-8 -57h-135zM811 575l10 62q0 4 1 5t1 5t-1 5t-1 5h129v-20q0 -14 -1 -29.5t-3 -32.5h-135z" />
<glyph unicode="&#xe4;" d="M111 180v23.5t2 27.5h784l-6 -51h-780zM113 127h770l-6 -45h-752q-10 18 -12 45zM121 281l8 57h135l-2 -10q0 -4 -1 -7.5t-1 -7.5q0 -16 8 -32h-147zM135 379l8 65h785l-8 -65h-136l7 43h-515l-6 -43h-135zM147 477l5 19h649l8 55h133l-10 -74h-785zM172 20h696l-2 -20 h-612q-49 0 -82 20zM180 694l8 70h736q25 -37 26 -90h-133q-8 20 -41 20h-596zM190 772l7 49h612q74 0 111 -49h-730zM369 864l22 162h168l-22 -162h-168zM647 864l23 162h168l-23 -162h-168zM770 281l8 57h135l-8 -57h-135zM811 575l10 62q0 4 1 5t1 5t-1 5t-1 5h129v-20 q0 -14 -1 -29.5t-3 -32.5h-135z" />
<glyph unicode="&#xe5;" d="M111 180v23.5t2 27.5h784l-6 -51h-780zM113 127h770l-6 -45h-752q-10 18 -12 45zM121 281l8 57h135l-2 -10q0 -4 -1 -7.5t-1 -7.5q0 -16 8 -32h-147zM135 379l8 65h785l-8 -65h-136l7 43h-515l-6 -43h-135zM147 477l5 19h649l8 55h133l-10 -74h-785zM172 20h696l-2 -20 h-612q-49 0 -82 20zM180 694l8 70h736q25 -37 26 -90h-133q-8 20 -41 20h-596zM190 772l7 49h612q74 0 111 -49h-730zM418 848l37 266h309l-37 -266h-309zM469 907h174l25 172h-174zM770 281l8 57h135l-8 -57h-135zM811 575l10 62q0 4 1 5t1 5t-1 5t-1 5h129v-20 q0 -14 -1 -29.5t-3 -32.5h-135z" />
<glyph unicode="&#xe6;" horiz-adv-x="1257" d="M111 180v23.5t2 27.5h1093l-6 -51h-1089zM113 127h1079l-6 -45h-1061q-10 18 -12 45zM121 281l8 57h135l-2 -10q0 -4 -1 -7.5t-1 -7.5q0 -16 8 -32h-147zM135 379l8 65h586l-10 -65h-80l6 43h-369l-6 -43h-135zM147 477l5 19h503l9 55h81l-4 -29h371l4 29h135l-10 -74 h-1094zM172 20h1006l-2 -20h-922q-49 0 -82 20zM180 694l8 70h1045q25 -37 27 -90h-134q-8 20 -41 20h-319l-4 -20h-88q-8 20 -41 20h-453zM190 772l7 49h921q74 0 111 -49h-1039zM625 281l8 57h80v-10q0 -4 -1 -7.5t-1 -7.5q0 -16 8 -32h-94zM666 575l10 62q0 4 1 5t1 5 t-1 5t-1 5h84l-12 -82h-82zM1118 575l10 62q0 4 1 5t1 5t-1 5t-1 5h132v-20q0 -14 -1.5 -29.5t-3.5 -32.5h-137z" />
<glyph unicode="&#xe7;" horiz-adv-x="774" d="M111 180v23.5t2 27.5h610l-6 -51h-606zM113 127h596l-7 -45h-577q-10 18 -12 45zM121 281l8 57h133v-10q0 -4 -1 -7.5t-1 -7.5q0 -16 8 -32h-147zM135 379l8 65h136l-11 -65h-133zM147 477l11 74h137l-12 -74h-136zM162 575l10 82h137l-12 -82h-135zM172 20h522l-2 -20 h-272l-2 -16h-111l2 16h-55q-49 0 -82 20zM174 674l14 90h611l-8 -70h-476l-4 -20h-137zM188 772l9 49h610l-6 -49h-613zM266 -299h277l-2 -12h-275v12zM293 -115l4 29h274l-4 -29h-274zM504 -213l2 20h51l-2 -20h-51z" />
<glyph unicode="&#xe8;" d="M111 180v23.5t2 27.5h784l-6 -51h-780zM113 127h770l-6 -45h-752q-10 18 -12 45zM121 281l8 57h133v-10q0 -4 -1 -7.5t-1 -7.5q0 -16 8 -32h-147zM135 379l8 65h136l-11 -65h-133zM147 477l11 74h137l-4 -29h514l4 29h133l-10 -74h-785zM162 575l10 82h137l-12 -82h-135z M172 20h696l-2 -20h-612q-49 0 -82 20zM174 674l14 90h736q25 -37 26 -90h-133q-8 20 -41 20h-461l-4 -20h-137zM188 772l9 49h612q74 0 111 -49h-732zM436 922l8 59l310 -66l-11 -59zM811 575l10 62q0 4 1 5t1 5t-1 5t-1 5h129v-20q0 -14 -1 -29.5t-3 -32.5h-135z" />
<glyph unicode="&#xe9;" d="M111 180v23.5t2 27.5h784l-6 -51h-780zM113 127h770l-6 -45h-752q-10 18 -12 45zM121 281l8 57h133v-10q0 -4 -1 -7.5t-1 -7.5q0 -16 8 -32h-147zM135 379l8 65h136l-11 -65h-133zM147 477l11 74h137l-4 -29h514l4 29h133l-10 -74h-785zM162 575l10 82h137l-12 -82h-135z M172 20h696l-2 -20h-612q-49 0 -82 20zM174 674l14 90h736q25 -37 26 -90h-133q-8 20 -41 20h-461l-4 -20h-137zM188 772l9 49h612q74 0 111 -49h-732zM420 856l10 59l326 66l-8 -59zM811 575l10 62q0 4 1 5t1 5t-1 5t-1 5h129v-20q0 -14 -1 -29.5t-3 -32.5h-135z" />
<glyph unicode="&#xea;" d="M111 180v23.5t2 27.5h784l-6 -51h-780zM113 127h770l-6 -45h-752q-10 18 -12 45zM121 281l8 57h133v-10q0 -4 -1 -7.5t-1 -7.5q0 -16 8 -32h-147zM135 379l8 65h136l-11 -65h-133zM147 477l11 74h137l-4 -29h514l4 29h133l-10 -74h-785zM162 575l10 82h137l-12 -82h-135z M172 20h696l-2 -20h-612q-49 0 -82 20zM174 674l14 90h736q25 -37 26 -90h-133q-8 20 -41 20h-461l-4 -20h-137zM188 772l9 49h612q74 0 111 -49h-732zM387 846l12 84l211 65l195 -65l-12 -84l-195 65zM811 575l10 62q0 4 1 5t1 5t-1 5t-1 5h129v-20q0 -14 -1 -29.5 t-3 -32.5h-135z" />
<glyph unicode="&#xeb;" d="M111 180v23.5t2 27.5h784l-6 -51h-780zM113 127h770l-6 -45h-752q-10 18 -12 45zM121 281l8 57h133v-10q0 -4 -1 -7.5t-1 -7.5q0 -16 8 -32h-147zM135 379l8 65h136l-11 -65h-133zM147 477l11 74h137l-4 -29h514l4 29h133l-10 -74h-785zM162 575l10 82h137l-12 -82h-135z M172 20h696l-2 -20h-612q-49 0 -82 20zM174 674l14 90h736q25 -37 26 -90h-133q-8 20 -41 20h-461l-4 -20h-137zM188 772l9 49h612q74 0 111 -49h-732zM377 864l22 162h168l-22 -162h-168zM655 864l23 162h168l-23 -162h-168zM811 575l10 62q0 4 1 5t1 5t-1 5t-1 5h129v-20 q0 -14 -1 -29.5t-3 -32.5h-135z" />
<glyph unicode="&#xec;" horiz-adv-x="331" d="M98 4l2 16h136l-3 -16h-135zM109 82l6 45h135l-6 -45h-135zM121 180l8 51h135l-8 -51h-135zM133 922l8 59l310 -66l-11 -59zM135 281l8 57h136l-9 -57h-135zM150 379l10 65h135l-10 -65h-135zM164 477l10 74h135l-10 -74h-135zM178 575l10 82h136l-11 -82h-135zM190 674 l15 90h135l-14 -90h-136zM205 772l8 49h135l-8 -49h-135z" />
<glyph unicode="&#xed;" horiz-adv-x="331" d="M98 4l2 16h136l-3 -16h-135zM109 82l6 45h135l-6 -45h-135zM121 180l8 51h135l-8 -51h-135zM127 856l10 59l326 66l-8 -59zM135 281l8 57h136l-9 -57h-135zM150 379l10 65h135l-10 -65h-135zM164 477l10 74h135l-10 -74h-135zM178 575l10 82h136l-11 -82h-135zM190 674 l15 90h135l-14 -90h-136zM205 772l8 49h135l-8 -49h-135z" />
<glyph unicode="&#xee;" horiz-adv-x="331" d="M82 846l12 84l211 65l195 -65l-13 -84l-194 65zM98 4l2 16h136l-3 -16h-135zM109 82l6 45h135l-6 -45h-135zM121 180l8 51h135l-8 -51h-135zM135 281l8 57h136l-9 -57h-135zM150 379l10 65h135l-10 -65h-135zM164 477l10 74h135l-10 -74h-135zM178 575l10 82h136l-11 -82 h-135zM190 674l15 90h135l-14 -90h-136zM205 772l8 49h135l-8 -49h-135z" />
<glyph unicode="&#xef;" horiz-adv-x="331" d="M61 864l23 162h168l-23 -162h-168zM98 4l2 16h136l-3 -16h-135zM109 82l6 45h135l-6 -45h-135zM121 180l8 51h135l-8 -51h-135zM135 281l8 57h136l-9 -57h-135zM150 379l10 65h135l-10 -65h-135zM164 477l10 74h135l-10 -74h-135zM178 575l10 82h136l-11 -82h-135z M190 674l15 90h135l-14 -90h-136zM205 772l8 49h135l-8 -49h-135zM340 864l22 162h168l-22 -162h-168z" />
<glyph unicode="&#xf0;" horiz-adv-x="1349" d="M106 0l3 20h1095q-35 -20 -86 -20h-1012zM117 82l6 45h1169q-8 -23 -24 -45h-1151zM131 180l6 51h1184q-2 -25 -10 -51h-1180zM145 281l9 57h135l-8 -57h-136zM160 379l8 65h135l-8 -65h-135zM174 477l10 74h901l-41 -59h-733l-2 -15h-135zM188 575l5 31h933l-22 -31 h-916zM254 1061l35 252h1186l-52 -373h74l-20 -135h-74l-6 -33h-135l6 33h-221l-46 135h287l17 121h-1051zM1180 281q14 16 20 47v10h137l-8 -57h-149zM1206 379l11 65h135l-9 -65h-137zM1221 477l10 74h135l-10 -74h-135zM1235 575l10 82h135l-10 -82h-135zM1247 674l15 90 h135l-15 -90h-135z" />
<glyph unicode="&#xf1;" horiz-adv-x="882" d="M82 4l2 16h135l-2 -16h-135zM92 82l6 45h135l-6 -45h-135zM104 180l9 51h135l-6 -51h-138zM119 281l8 57h137l-8 -57h-137zM133 379l10 65h136l-9 -65h-137zM147 477l11 74h137l-10 -74h-138zM162 575l10 82h137l-12 -82h-135zM174 674l14 90h670q25 -37 27 -90h-199 q-8 20 -41 20h-330l-4 -20h-137zM188 772l9 49h546q74 0 111 -49h-666zM379 920q57 84 125 84h2q8 0 23.5 -6.5t32 -13.5t32.5 -13t27 -8h4q31 0 59 49l43 -58q-16 -41 -51 -57t-72 -16q-45 16 -64.5 28.5t-35.5 12.5h-2q-29 0 -74 -52zM600 0l2 20h201l-2 -20h-201zM610 82 l6 45h201l-6 -45h-201zM625 180l6 51h200l-6 -51h-200zM639 281l8 57h201l-8 -57h-201zM653 379l9 65h200l-8 -65h-201zM668 477l10 74h199l-11 -74h-198zM680 575l10 62q0 4 1 5t1 5t-1 5t-1 5h195v-20q0 -14 -1 -29.5t-3 -32.5h-201z" />
<glyph unicode="&#xf2;" d="M111 180v23.5t2 27.5h784l-6 -51h-780zM113 127h770l-6 -45h-752q-10 18 -12 45zM121 281l8 57h133v-10q0 -4 -1 -7.5t-1 -7.5q0 -16 8 -32h-147zM135 379l8 65h136l-11 -65h-133zM147 477l11 74h137l-12 -74h-136zM162 575l10 82h137l-12 -82h-135zM172 20h696l-2 -20 h-612q-49 0 -82 20zM174 674l14 90h736q25 -37 26 -90h-133q-8 20 -41 20h-461l-4 -20h-137zM188 772l9 49h612q74 0 111 -49h-732zM438 922l8 59l310 -66l-11 -59zM770 281l8 57h135l-8 -57h-135zM784 379l9 65h135l-8 -65h-136zM799 477l10 74h133l-10 -74h-133zM811 575 l10 62q0 4 1 5t1 5t-1 5t-1 5h129v-20q0 -14 -1 -29.5t-3 -32.5h-135z" />
<glyph unicode="&#xf3;" d="M111 180v23.5t2 27.5h784l-6 -51h-780zM113 127h770l-6 -45h-752q-10 18 -12 45zM121 281l8 57h133v-10q0 -4 -1 -7.5t-1 -7.5q0 -16 8 -32h-147zM135 379l8 65h136l-11 -65h-133zM147 477l11 74h137l-12 -74h-136zM162 575l10 82h137l-12 -82h-135zM172 20h696l-2 -20 h-612q-49 0 -82 20zM174 674l14 90h736q25 -37 26 -90h-133q-8 20 -41 20h-461l-4 -20h-137zM188 772l9 49h612q74 0 111 -49h-732zM428 856l10 59l326 66l-8 -59zM770 281l8 57h135l-8 -57h-135zM784 379l9 65h135l-8 -65h-136zM799 477l10 74h133l-10 -74h-133zM811 575 l10 62q0 4 1 5t1 5t-1 5t-1 5h129v-20q0 -14 -1 -29.5t-3 -32.5h-135z" />
<glyph unicode="&#xf4;" d="M111 180v23.5t2 27.5h784l-6 -51h-780zM113 127h770l-6 -45h-752q-10 18 -12 45zM121 281l8 57h133v-10q0 -4 -1 -7.5t-1 -7.5q0 -16 8 -32h-147zM135 379l8 65h136l-11 -65h-133zM147 477l11 74h137l-12 -74h-136zM162 575l10 82h137l-12 -82h-135zM172 20h696l-2 -20 h-612q-49 0 -82 20zM174 674l14 90h736q25 -37 26 -90h-133q-8 20 -41 20h-461l-4 -20h-137zM188 772l9 49h612q74 0 111 -49h-732zM379 846l12 84l211 65l195 -65l-13 -84l-194 65zM770 281l8 57h135l-8 -57h-135zM784 379l9 65h135l-8 -65h-136zM799 477l10 74h133 l-10 -74h-133zM811 575l10 62q0 4 1 5t1 5t-1 5t-1 5h129v-20q0 -14 -1 -29.5t-3 -32.5h-135z" />
<glyph unicode="&#xf5;" d="M111 180v23.5t2 27.5h784l-6 -51h-780zM113 127h770l-6 -45h-752q-10 18 -12 45zM121 281l8 57h133v-10q0 -4 -1 -7.5t-1 -7.5q0 -16 8 -32h-147zM135 379l8 65h136l-11 -65h-133zM147 477l11 74h137l-12 -74h-136zM162 575l10 82h137l-12 -82h-135zM172 20h696l-2 -20 h-612q-49 0 -82 20zM174 674l14 90h736q25 -37 26 -90h-133q-8 20 -41 20h-461l-4 -20h-137zM188 772l9 49h612q74 0 111 -49h-732zM420 920q57 84 125 84h2q8 0 23.5 -6.5t31.5 -13.5t32.5 -13t27.5 -8h4q31 0 59 49l43 -58q-16 -41 -51 -57t-72 -16q-45 16 -64.5 28.5 t-35.5 12.5h-2q-29 0 -74 -52zM770 281l8 57h135l-8 -57h-135zM784 379l9 65h135l-8 -65h-136zM799 477l10 74h133l-10 -74h-133zM811 575l10 62q0 4 1 5t1 5t-1 5t-1 5h129v-20q0 -14 -1 -29.5t-3 -32.5h-135z" />
<glyph unicode="&#xf6;" d="M111 180v23.5t2 27.5h784l-6 -51h-780zM113 127h770l-6 -45h-752q-10 18 -12 45zM121 281l8 57h133v-10q0 -4 -1 -7.5t-1 -7.5q0 -16 8 -32h-147zM135 379l8 65h136l-11 -65h-133zM147 477l11 74h137l-12 -74h-136zM162 575l10 82h137l-12 -82h-135zM172 20h696l-2 -20 h-612q-49 0 -82 20zM174 674l14 90h736q25 -37 26 -90h-133q-8 20 -41 20h-461l-4 -20h-137zM188 772l9 49h612q74 0 111 -49h-732zM360 864l23 162h168l-23 -162h-168zM639 864l23 162h167l-22 -162h-168zM770 281l8 57h135l-8 -57h-135zM784 379l9 65h135l-8 -65h-136z M799 477l10 74h133l-10 -74h-133zM811 575l10 62q0 4 1 5t1 5t-1 5t-1 5h129v-20q0 -14 -1 -29.5t-3 -32.5h-135z" />
<glyph unicode="&#xf8;" d="M111 180v23.5t2 27.5h784l-6 -51h-780zM113 127h770l-6 -45h-752q-10 18 -12 45zM121 281l8 57h133v-10q0 -4 -1 -7.5t-1 -7.5q0 -16 8 -32h-147zM135 379l8 65h136l-11 -65h-133zM147 477l11 74h137l-12 -74h-136zM162 575l10 82h137l-12 -82h-135zM172 20h696l-2 -20 h-612q-49 0 -82 20zM174 674l14 90h736q25 -37 26 -90h-133q-8 20 -41 20h-49l-12 -20h-78l12 20h-334l-4 -20h-137zM188 772l9 49h612q74 0 111 -49h-732zM426 281l31 57h75l-30 -57h-76zM479 379l35 65h76l-35 -65h-76zM530 477l41 74h76l-39 -74h-78zM584 575l45 82h78 l-45 -82h-78zM770 281l8 57h135l-8 -57h-135zM784 379l9 65h135l-8 -65h-136zM799 477l10 74h133l-10 -74h-133zM811 575l10 62q0 4 1 5t1 5t-1 5t-1 5h129v-20q0 -14 -1 -29.5t-3 -32.5h-135z" />
<glyph unicode="&#xf9;" horiz-adv-x="915" d="M111 180v23.5t2 27.5h751l-6 -51h-747zM113 127h737l-6 -45h-719q-10 18 -12 45zM121 281l8 57h133v-10q0 -4 -1 -7.5t-1 -7.5q0 -16 8 -32h-147zM135 379l8 65h136l-11 -65h-133zM147 477l11 74h135l-10 -74h-136zM162 575l10 82h135l-10 -82h-135zM172 20h664l-2 -20 h-580q-49 0 -82 20zM174 674l14 90h136l-15 -90h-135zM188 772l9 49h135l-8 -49h-136zM430 922l8 59l310 -66l-11 -59zM737 281l8 57h136l-9 -57h-135zM752 379l8 65h135l-8 -65h-135zM764 477l10 74h135l-10 -74h-135zM778 575l10 82h136l-11 -82h-135zM791 674l14 90h135 l-14 -90h-135zM805 772l8 49h135l-8 -49h-135z" />
<glyph unicode="&#xfa;" horiz-adv-x="915" d="M111 180v23.5t2 27.5h751l-6 -51h-747zM113 127h737l-6 -45h-719q-10 18 -12 45zM121 281l8 57h133v-10q0 -4 -1 -7.5t-1 -7.5q0 -16 8 -32h-147zM135 379l8 65h136l-11 -65h-133zM147 477l11 74h135l-10 -74h-136zM162 575l10 82h135l-10 -82h-135zM172 20h664l-2 -20 h-580q-49 0 -82 20zM174 674l14 90h136l-15 -90h-135zM188 772l9 49h135l-8 -49h-136zM416 856l10 59l326 66l-9 -59zM737 281l8 57h136l-9 -57h-135zM752 379l8 65h135l-8 -65h-135zM764 477l10 74h135l-10 -74h-135zM778 575l10 82h136l-11 -82h-135zM791 674l14 90h135 l-14 -90h-135zM805 772l8 49h135l-8 -49h-135z" />
<glyph unicode="&#xfb;" horiz-adv-x="915" d="M111 180v23.5t2 27.5h751l-6 -51h-747zM113 127h737l-6 -45h-719q-10 18 -12 45zM121 281l8 57h133v-10q0 -4 -1 -7.5t-1 -7.5q0 -16 8 -32h-147zM135 379l8 65h136l-11 -65h-133zM147 477l11 74h135l-10 -74h-136zM162 575l10 82h135l-10 -82h-135zM172 20h664l-2 -20 h-580q-49 0 -82 20zM174 674l14 90h136l-15 -90h-135zM188 772l9 49h135l-8 -49h-136zM371 846l12 84l211 65l194 -65l-12 -84l-194 65zM737 281l8 57h136l-9 -57h-135zM752 379l8 65h135l-8 -65h-135zM764 477l10 74h135l-10 -74h-135zM778 575l10 82h136l-11 -82h-135z M791 674l14 90h135l-14 -90h-135zM805 772l8 49h135l-8 -49h-135z" />
<glyph unicode="&#xfc;" horiz-adv-x="915" d="M111 180v23.5t2 27.5h751l-6 -51h-747zM113 127h737l-6 -45h-719q-10 18 -12 45zM121 281l8 57h133v-10q0 -4 -1 -7.5t-1 -7.5q0 -16 8 -32h-147zM135 379l8 65h136l-11 -65h-133zM147 477l11 74h135l-10 -74h-136zM162 575l10 82h135l-10 -82h-135zM172 20h664l-2 -20 h-580q-49 0 -82 20zM174 674l14 90h136l-15 -90h-135zM188 772l9 49h135l-8 -49h-136zM360 864l23 162h168l-23 -162h-168zM639 864l23 162h167l-22 -162h-168zM737 281l8 57h136l-9 -57h-135zM752 379l8 65h135l-8 -65h-135zM764 477l10 74h135l-10 -74h-135zM778 575 l10 82h136l-11 -82h-135zM791 674l14 90h135l-14 -90h-135zM805 772l8 49h135l-8 -49h-135z" />
<glyph unicode="&#xfd;" d="M111 180v23.5t2 27.5h784l-6 -51h-780zM113 127h770l-6 -45h-752q-10 18 -12 45zM121 281l8 57h133v-10q0 -4 -1 -7.5t-1 -7.5q0 -16 8 -32h-147zM135 379l8 65h136l-11 -65h-133zM147 477l11 74h135l-10 -74h-136zM162 575l10 82h135l-10 -82h-135zM172 20h696l-4 -36 h-135l2 16h-477q-49 0 -82 20zM174 674l14 90h136l-15 -90h-135zM188 772l9 49h135l-8 -49h-136zM297 -311l2 12h449l-21 -12h-430zM311 -213l2 20h514l-10 -20h-506zM440 856l11 59l325 66l-8 -59zM686 -115q12 12 23 29h145l-4 -29h-164zM770 281l8 57h135l-8 -57h-135z M784 379l9 65h135l-8 -65h-136zM797 477l10 74h135l-10 -74h-135zM811 575l10 82h135l-10 -82h-135zM823 674l15 90h135l-15 -90h-135zM838 772l8 49h135l-8 -49h-135z" />
<glyph unicode="&#xfe;" d="M82 0l2 20h137l-2 -20h-137zM92 82l6 45h138l-7 -45h-137zM106 180l7 51h784v-6h-647l-6 -45h-138zM121 281l8 57h784l-8 -57h-784zM135 379l8 65h785l-8 -65h-785zM147 477l11 74h139l-10 -74h-140zM162 575l10 82h139l-12 -82h-137zM174 674l14 90h138l-13 -90h-139z M188 772l78 541h135l-32 -232h2l-4 -34h475q143 0 143 -177q0 -37 -6 -75l-4 -23h-137l14 90q0 4 1 8t1 9q0 41 -47 41h-459l-22 -148h-138zM799 477l10 74h135l-10 -74h-135zM811 575l12 82h135l-12 -82h-135zM825 674l13 90h137l-14 -90h-136z" />
<glyph unicode="&#xff;" d="M111 180v23.5t2 27.5h784l-6 -51h-780zM113 127h770l-6 -45h-752q-10 18 -12 45zM121 281l8 57h133v-10q0 -4 -1 -7.5t-1 -7.5q0 -16 8 -32h-147zM135 379l8 65h136l-11 -65h-133zM147 477l11 74h135l-10 -74h-136zM162 575l10 82h135l-10 -82h-135zM172 20h696l-4 -36 h-135l2 16h-477q-49 0 -82 20zM174 674l14 90h136l-15 -90h-135zM188 772l9 49h135l-8 -49h-136zM297 -311l2 12h449l-21 -12h-430zM311 -213l2 20h514l-10 -20h-506zM365 864l22 162h168l-23 -162h-167zM643 864l23 162h168l-23 -162h-168zM686 -115q12 12 23 29h145 l-4 -29h-164zM770 281l8 57h135l-8 -57h-135zM784 379l9 65h135l-8 -65h-136zM797 477l10 74h135l-10 -74h-135zM811 575l10 82h135l-10 -82h-135zM823 674l15 90h135l-15 -90h-135zM838 772l8 49h135l-8 -49h-135z" />
<glyph unicode="&#x152;" horiz-adv-x="1433" d="M111 180v23.5t2 27.5h1271l-8 -51h-1265zM113 127h1255l-6 -45h-1237q-10 18 -12 45zM121 281l8 57h133v-10q0 -4 -1 -7.5t-1 -7.5q0 -16 8 -32h-147zM135 379l8 65h136l-11 -65h-133zM147 477l11 74h135l-10 -74h-136zM162 575l10 82h135l-10 -82h-135zM172 20h1182 l-2 -20h-1098q-49 0 -82 20zM174 674l14 90h136l-15 -90h-135zM188 772l78 541h1270l-35 -252h-569l-41 -289h-115l33 232q0 4 1 8t1 8q0 41 -45 41h-399l-43 -289h-136zM707 281l8 57h114l-8 -57h-114zM721 379l8 65h117l-10 -65h-115zM735 477l10 74h115l-10 -74h-115z M748 575l12 82h114l-12 -82h-114zM762 674l12 90h115l-12 -90h-115zM932 901h547l-19 -129h-467z" />
<glyph unicode="&#x153;" horiz-adv-x="1306" d="M111 180v23.5t2 27.5h1142l-6 -51h-1138zM113 127h1128l-6 -45h-1110q-10 18 -12 45zM121 281l8 57h133v-10q0 -4 -1 -7.5t-1 -7.5q0 -16 8 -32h-147zM135 379l8 65h136l-11 -65h-133zM147 477l11 74h137l-12 -74h-136zM162 575l10 82h137l-12 -82h-135zM172 20h1055 l-2 -20h-971q-49 0 -82 20zM174 674l14 90h1094q25 -37 27 -90h-133q-8 20 -41 20h-308l-4 -20h-145q-8 20 -41 20h-322l-4 -20h-137zM188 772l9 49h970q74 0 111 -49h-1090zM631 281l8 57h135v-10q0 -4 -1 -7.5t-1 -7.5q0 -16 8 -32h-149zM645 379l8 65h138l-11 -65h-135z M659 477l11 74h137l-4 -29h358l4 29h135l-10 -74h-631zM672 575l10 62q0 4 1 5t1 5t-1 5t-1 5h139l-12 -82h-137zM1167 575l11 62q0 4 1 5t1 5t-1 5t-1 5h131v-20q0 -14 -1 -29.5t-3 -32.5h-138z" />
<glyph unicode="&#x178;" horiz-adv-x="1349" d="M84 0l14 20h1084q-35 -20 -86 -20h-1012zM139 82l31 45h1100q-8 -23 -25 -45h-1106zM180 657h142q14 -31 69 -30h828l4 30h135l-10 -82h-1155q-10 35 -13 82zM180 674q0 31 6 67l2 23h136l-9 -62q-2 -6 -2 -16q0 -8 2 -12h-135zM190 772l76 541h135l-77 -541h-134z M205 551h1138l-10 -74h-133l2 12h-878q-86 0 -119 62zM207 180l35 51h1056q-2 -25 -10 -51h-1081zM647 1356l23 162h168l-23 -162h-168zM926 1356l22 162h168l-22 -162h-168zM1157 281q14 16 21 47l2 10h135l-8 -57h-150zM1186 379l8 65h135l-8 -65h-135zM1225 674l12 90 h137l-14 -90h-135zM1237 772l78 541h137l-78 -541h-137z" />
<glyph unicode="&#x2c6;" horiz-adv-x="569" d="M270 1337l13 84l211 66l194 -66l-12 -84l-195 66z" />
<glyph unicode="&#x2dc;" horiz-adv-x="423" d="M242 1411q57 84 125 84h2q8 0 23.5 -6t31.5 -13.5t32.5 -13.5t26.5 -8h4q31 0 60 49l43 -57q-16 -41 -51 -57.5t-72 -16.5q-45 16 -64.5 28.5t-35.5 12.5h-2q-29 0 -74 -51z" />
<glyph unicode="&#x2000;" horiz-adv-x="803" />
<glyph unicode="&#x2001;" horiz-adv-x="1606" />
<glyph unicode="&#x2002;" horiz-adv-x="803" />
<glyph unicode="&#x2003;" horiz-adv-x="1606" />
<glyph unicode="&#x2004;" horiz-adv-x="535" />
<glyph unicode="&#x2005;" horiz-adv-x="401" />
<glyph unicode="&#x2006;" horiz-adv-x="267" />
<glyph unicode="&#x2007;" horiz-adv-x="267" />
<glyph unicode="&#x2008;" horiz-adv-x="200" />
<glyph unicode="&#x2009;" horiz-adv-x="321" />
<glyph unicode="&#x200a;" horiz-adv-x="89" />
<glyph unicode="&#x2010;" horiz-adv-x="659" d="M193 786h495l-2 -14h-489zM201 764h483l-12 -90h-441zM238 657h432v-6h-430z" />
<glyph unicode="&#x2011;" horiz-adv-x="659" d="M193 786h495l-2 -14h-489zM201 764h483l-12 -90h-441zM238 657h432v-6h-430z" />
<glyph unicode="&#x2012;" horiz-adv-x="659" d="M193 786h495l-2 -14h-489zM201 764h483l-12 -90h-441zM238 657h432v-6h-430z" />
<glyph unicode="&#x2013;" horiz-adv-x="1011" d="M193 786h851l-2 -14h-845zM201 764h839l-12 -90h-797zM238 657h788v-6h-786z" />
<glyph unicode="&#x2014;" horiz-adv-x="1513" d="M193 786h1331l-2 -14h-1325zM201 764h1319l-13 -90h-1276zM238 657h1267v-6h-1265z" />
<glyph unicode="&#x2018;" horiz-adv-x="247" d="M168 1028l33 242l147 135h60l-125 -135h114l-32 -242h-197z" />
<glyph unicode="&#x2019;" horiz-adv-x="247" d="M170 975l125 135h-115l35 242h197l-35 -242l-148 -135h-59z" />
<glyph unicode="&#x201a;" horiz-adv-x="360" d="M82 0l2 20h197l-2 -20l-19 -16h-80l17 16h-115zM90 -115l27 29h67l-30 -29h-64zM94 82l6 45h197l-6 -45h-197zM106 180l9 51h196l-8 -51h-197z" />
<glyph unicode="&#x201c;" horiz-adv-x="548" d="M174 1028l33 242l147 135h60l-125 -135h114l-32 -242h-197zM461 1028l33 242l147 135h59l-125 -135h115l-33 -242h-196z" />
<glyph unicode="&#x201d;" horiz-adv-x="542" d="M168 975l125 135h-115l35 242h197l-35 -242l-148 -135h-59zM455 975l125 135h-115l35 242h196l-34 -242l-148 -135h-59z" />
<glyph unicode="&#x201e;" horiz-adv-x="690" d="M82 0l2 20h197l-2 -20l-19 -16h-80l17 16h-115zM90 -115l27 29h67l-30 -29h-64zM94 82l6 45h197l-6 -45h-197zM106 180l9 51h196l-8 -51h-197zM401 0l2 20h197l-2 -20l-18 -16h-80l16 16h-115zM410 -115l26 29h68l-31 -29h-63zM414 82l6 45h196l-6 -45h-196zM426 180 l8 51h197l-8 -51h-197z" />
<glyph unicode="&#x2022;" horiz-adv-x="1024" d="M139 612l17 45h901l4 -45l-35 -37h-862zM162 674l33 90h852l8 -90h-893zM180 551h824l-70 -74h-707zM197 772l88 240l397 178l344 -178l21 -240h-850zM250 444h653l-61 -65h-549zM319 338h484l-43 -47h-410z" />
<glyph unicode="&#x2026;" horiz-adv-x="2719" d="M492 0l2 20h197l-2 -20h-197zM504 82l6 45h197l-6 -45h-197zM516 180l9 51h196l-8 -51h-197zM1262 0l2 20h197l-2 -20h-197zM1274 82l6 45h197l-6 -45h-197zM1286 180l9 51h196l-8 -51h-197zM2032 0l2 20h197l-2 -20h-197zM2044 82l6 45h197l-6 -45h-197zM2056 180l9 51 h196l-8 -51h-197z" />
<glyph unicode="&#x202f;" horiz-adv-x="321" />
<glyph unicode="&#x2039;" horiz-adv-x="446" d="M96 786l269 388h114l-274 -402h-101zM109 764h90l-15 -23l37 -67h-61zM170 657h61l45 -82h-61zM229 551h60l41 -74h-60zM289 444h59l37 -65h-59zM350 338h58l10 -19h-58z" />
<glyph unicode="&#x203a;" horiz-adv-x="454" d="M63 317l15 21h112l-14 -21h-113zM104 379l46 65h114l-43 -65h-117zM125 1171h55l226 -399h-62zM172 477l49 74h117l-51 -74h-115zM238 575l55 82h119l-58 -82h-116zM305 674l51 76l-8 14h62l34 -59l-22 -31h-117z" />
<glyph unicode="&#x205f;" horiz-adv-x="401" />
<glyph unicode="&#x20ac;" horiz-adv-x="1224" d="M72 492l8 59h549l-49 -59h-293l-2 -15h-135l2 15h-80zM82 575l4 21h80l8 61h135l-8 -61h365l-17 -21h-567zM104 727l5 37h534l-31 -37h-293l-8 -53h-135l8 53h-80zM111 180v23.5t2 27.5h1061l-7 -51h-1056zM111 772l8 55h80l67 486h1061l-35 -252h-925l-33 -234h364 l-47 -55h-540zM113 127h1046l-6 -45h-1028q-10 18 -12 45zM121 281l8 57h133v-10q0 -4 -1 -7.5t-1 -7.5q0 -16 8 -32h-147zM135 379l8 65h136l-11 -65h-133zM172 20h973l-2 -20h-889q-49 0 -82 20z" />
<glyph unicode="&#x2122;" horiz-adv-x="1329" d="M207 1153l22 158h443l-23 -158h-160l-53 -381h-117l54 381h-166zM299 623l4 34h117l-4 -34h-117zM305 674l12 90h117l-12 -90h-117zM664 623l4 34h116l-4 -34h-116zM670 674l12 90h117l-13 -90h-116zM684 772l76 539h108l219 -324l234 248l10 76h119l-76 -539h-119 l50 356l-261 -284l-192 293l-51 -365h-117zM1235 623l4 34h119l-4 -34h-119zM1241 674l12 90h119l-12 -90h-119z" />
<glyph unicode="&#x25fc;" horiz-adv-x="819" d="M0 0v819h819v-819h-819z" />
</font>
</defs>
</svg>
