<?xml version="1.0" standalone="no"?>
<!DOCTYPE svg PUBLIC "-//W3C//DTD SVG 1.1//EN" "http://www.w3.org/Graphics/SVG/1.1/DTD/svg11.dtd" >
<svg xmlns="http://www.w3.org/2000/svg">
<metadata></metadata>
<defs>
<font id="boronregular" horiz-adv-x="800" >
<font-face units-per-em="2048" ascent="1753" descent="-295" />
<missing-glyph horiz-adv-x="1204" />
<glyph horiz-adv-x="0" />
<glyph unicode="&#xd;" horiz-adv-x="1204" />
<glyph unicode=" "  horiz-adv-x="1204" />
<glyph unicode="&#x09;" horiz-adv-x="1204" />
<glyph unicode="&#xa0;" horiz-adv-x="1204" />
<glyph unicode="!" horiz-adv-x="380" d="M92 696v787q0 109 111 108q113 0 112 -108v-787q0 -12 -7 -31.5t-15 -39t-15.5 -39t-7.5 -31.5v-168q0 -82 -67 -82q-66 0 -66 80v170q0 14 -7 35.5t-15.5 41t-15.5 37t-7 27.5zM129 113q0 31 24.5 56.5t55.5 25.5q29 0 54.5 -25.5t25.5 -56.5q0 -29 -25.5 -53.5 t-54.5 -24.5q-33 0 -56.5 24.5t-23.5 53.5z" />
<glyph unicode="&#x22;" horiz-adv-x="473" d="M63 1360v168q0 25 19.5 44t44.5 19q27 0 46.5 -19.5t19.5 -43.5v-168q0 -61 -66 -62q-25 0 -44.5 18.5t-19.5 43.5zM248 1360v168q0 25 19.5 44t45.5 19q25 0 44.5 -19.5t19.5 -43.5v-168q0 -61 -64 -62q-27 0 -46 18.5t-19 43.5z" />
<glyph unicode="#" horiz-adv-x="1142" d="M66 322v145h235l70 354h-221v146h253l58 315h114l-59 -315h254l66 315h110l-61 -315h194v-146h-225l-74 -354h215v-145h-241l-70 -322h-109l66 322h-256l-68 -322h-110l63 322h-204zM412 465h258l75 358h-262z" />
<glyph unicode="$" horiz-adv-x="860" d="M76 610v865q0 12 6 31.5t17.5 39t27.5 32.5t39 13h117q6 0 18 9.5t24.5 19.5t26 19.5t23.5 9.5q8 0 20.5 -9.5t25.5 -19.5t25.5 -19.5t20.5 -9.5q70 0 91.5 -13t21.5 -48q0 -72 -62 -72h-246q-55 0 -55 -106v-625q0 -98 84 -98h393q47 0 77 -37t30 -86v-309 q0 -55 -38 -98.5t-91 -43.5h-219l-41 -78q-16 -29 -39 -28q-29 0 -41 28l-41 78h-109q-27 0 -54.5 19.5t-25.5 46.5l4 125q0 55 48 55h262q33 0 55.5 35t22.5 70q0 92 -82 92h-238q-39 0 -68.5 36.5t-29.5 75.5z" />
<glyph unicode="%" horiz-adv-x="1595" d="M33 1671v78l8 10h63l13 -10v-78h-13l-12 -10v-137l43 -66q4 2 10 2q23 0 23 -22q0 -35 -27 -35q-31 0 -30 22q0 8 2 15l-58 84v137l-6 10h-16zM37 821v516q0 57 76 58h415q66 0 66 -62v-512q0 -96 -88 -96h-397q-72 0 -72 96zM119 1182q0 -80 69 -80h97q82 0 82 84v57 q0 72 -76 72h-98q-74 0 -74 -70v-63zM121 1432q0 -18 18 -19q21 1 21 19q0 20 -21 20q-18 0 -18 -20zM125 1671v78l10 10h62l12 -10v-78h-12l-13 -10v-137l25 -66q4 2 10 2q25 0 25 -22q0 -35 -29 -35q-31 0 -31 20q0 4 4 17l-41 84v137l-6 10h-16zM147 416v168 q0 25 20.5 44t45.5 19q66 0 66 -63v-168q0 -61 -66 -62q-25 0 -45.5 18.5t-20.5 43.5zM195 1432q0 -18 18 -19q20 1 20 19q0 20 -20 20q-18 0 -18 -20zM217 1671v78l10 10h62l12 -10v-78h-12l-10 -10v-137l6 -66q6 0 10 2q23 0 22 -22q1 -35 -28 -35q-33 0 -33 27q0 8 6 14 q-4 14 -10 33.5t-10 46.5v137l-9 10h-16zM264 1432q0 -20 23 -21q18 1 18 21q0 23 -18 22q-23 0 -23 -22zM309 1671v78l10 10h62l12 -10v-78h-12l-10 -10v-203q14 -2 14 -20q0 -20 -14.5 -26.5t-22.5 -6.5q-23 0 -22 25q0 18 8 28v203l-8 10h-17zM336 1432q0 -18 18 -19 q19 1 19 19q0 20 -19 20q-18 0 -18 -20zM371 416v168q0 25 19.5 44t43.5 19q66 0 66 -63v-168q0 -61 -66 -62q-25 0 -44 18.5t-19 43.5zM389 1438q0 20 21 20h12q2 33 3 83t1 120l-12 10h-11v78l11 10h63l8 -10v-78h-16l-6 -10q2 -20 3 -39.5t1 -36.5q0 -84 -23 -141 q2 -2 2 -8q0 -33 -26 -33q-31 0 -31 35zM403 1432q0 -18 19 -19q18 1 18 19q0 20 -18 20t-19 -20zM481 -10q0 4 17 53l440 1296q12 39 66 39q59 0 59 -22l-469 -1381q-17 -41 -62 -41q-51 0 -51 56zM979 1438q0 20 22 20h13l22 66v137l-10 10h-12v78l12 10h61l11 -10v-78 h-17l-8 -10v-137l-39 -84q2 -2 2 -10q0 -27 -28 -27q-29 0 -29 35zM985 29v518q0 55 76 55h416q66 0 65 -61v-512q0 -96 -86 -97h-399q-72 0 -72 97zM991 1432q0 -18 19 -19q20 1 20 19q0 20 -20 20q-18 0 -19 -20zM1049 129q0 -57 67 -57h311q64 0 64 57q0 61 -64 61h-311 q-27 0 -47 -17t-20 -44zM1067 379q0 -80 68 -80h98q80 0 80 80v61q0 70 -72 70h-100q-74 0 -74 -68v-63z" />
<glyph unicode="&#x26;" horiz-adv-x="944" d="M33 1671v78l8 10h63l13 -10v-78h-13l-12 -10v-137l43 -66q4 2 10 2q23 0 23 -22q0 -35 -27 -35q-31 0 -30 22q0 8 2 15l-58 84v137l-6 10h-16zM49 29v1259q0 61 21.5 84t83.5 23h428q80 0 80 -58q0 -76 -91 -75h-45q-61 0 -87.5 -24t-26.5 -52v-150q0 -82 75 -82h207 q84 0 84 -65q0 -70 -84 -70h-458q-63 0 -64 -78v-329q0 -37 1 -57.5t12.5 -32t38 -14.5t79.5 -3q76 0 76 66v166q0 49 14.5 66.5t69.5 17.5h362q103 0 103 -76q0 -80 -103 -80h-127q-47 0 -47 -57v-379q0 -98 -110 -99h-398q-94 0 -94 99zM121 1432q0 -18 18 -19q21 1 21 19 q0 20 -21 20q-18 0 -18 -20zM125 1671v78l10 10h62l12 -10v-78h-12l-13 -10v-137l25 -66q4 2 10 2q25 0 25 -22q0 -35 -29 -35q-31 0 -31 20q0 4 4 17l-41 84v137l-6 10h-16zM127 129q0 -57 63 -57h330q64 0 64 57q0 61 -64 61h-330q-63 0 -63 -61zM195 1432q0 -18 18 -19 q20 1 20 19q0 20 -20 20q-18 0 -18 -20zM309 1671v78l10 10h62l12 -10v-78h-12l-10 -10v-203q14 -2 14 -20q0 -20 -14.5 -26.5t-22.5 -6.5q-23 0 -22 25q0 18 8 28v203l-8 10h-17zM336 1432q0 -18 18 -19q19 1 19 19q0 20 -19 20q-18 0 -18 -20zM461 1438q0 20 22 20h13 l22 66v137l-12 10h-10v78l10 10h63l11 -10v-78h-17l-8 -10v-137l-39 -84q2 -2 2 -10q0 -27 -31 -27q-27 0 -26 35zM473 1432q0 -18 19 -19q20 1 20 19q0 20 -20 20q-18 0 -19 -20zM535 1438q0 20 22 20h12l41 66v137l-10 10h-12v78l12 10h62l10 -10v-78h-17l-8 -10v-137 l-57 -84q2 -2 2 -10q0 -27 -29 -27t-28 35zM547 1432q0 -18 18 -19q21 1 21 19q0 20 -21 20q-18 0 -18 -20z" />
<glyph unicode="'" horiz-adv-x="366" d="M88 1360v168q0 63 66 63q63 0 63 -63v-168q0 -61 -63 -62q-27 0 -46.5 18.5t-19.5 43.5z" />
<glyph unicode="(" horiz-adv-x="565" d="M96 53v1475q0 63 62 63h256q16 0 35.5 -14t19.5 -31q0 -47 -53 -47h-115q-49 0 -49 -61v-1045q0 -80 67 -80h84l-2 2q68 -6 68 -32v-295q0 -45 -43 -45h-209q-49 0 -85 30.5t-36 79.5z" />
<glyph unicode=")" horiz-adv-x="528" d="M55 -12v297q0 29 54 28h116q47 0 47 60v1044q0 84 -84 84q-12 0 -37.5 -2t-37.5 -2q-57 0 -58 49q0 45 45 45h207q47 0 85 -31.5t38 -78.5v-1475q0 -63 -61 -63h-258q-55 0 -56 45z" />
<glyph unicode="*" d="M88 1671v78l8 10h64l12 -10v-78h-12l-13 -10v-137l43 -66q4 2 11 2q25 0 24 -22q1 -35 -28 -35q-31 0 -31 22q0 8 2 15l-57 84v137l-7 10h-16zM176 1432q0 -18 19 -19q20 1 20 19q0 20 -20 20q-18 0 -19 -20zM197 1008v221q0 125 92 125h203q113 0 112 -125v-221 q0 -70 -22.5 -100.5t-89.5 -30.5h-203q-92 0 -92 131zM444 1438q0 20 21 20h12q2 33 3 83t1 120l-12 10h-10v78l10 10h63l9 -10v-78h-15l-8 -10q2 -20 3 -39.5t1 -36.5q0 -84 -22 -141q2 -2 2 -8q0 -33 -27 -33q-31 0 -31 35zM459 1432q0 -18 18 -19q19 1 19 19q0 20 -19 20 q-18 0 -18 -20zM516 1438q0 20 23 20h12l22 66v137l-10 10h-12v78l12 10h62l10 -10v-78h-17l-8 -10v-137l-39 -84q2 -2 2 -10q0 -27 -28 -27q-29 0 -29 35zM528 1432q0 -18 19 -19q20 1 20 19q0 20 -20 20q-18 0 -19 -20zM590 1438q0 20 22 20h13l41 66v137l-11 10h-12v78 l12 10h62l10 -10v-78h-16l-6 -10v-137l-60 -84q2 -2 2 -10q0 -27 -29 -27t-28 35zM602 1432q0 -18 19 -19q20 1 20 19q0 20 -20 20q-18 0 -19 -20z" />
<glyph unicode="+" horiz-adv-x="866" d="M55 1047q0 160 105 159h190v260q0 80 74 80q61 0 61 -92v-248h177q153 1 153 -157q0 -57 -26.5 -97.5t-65.5 -40.5h-160q-76 0 -76 -69v-221q0 -84 -67 -84q-72 0 -72 84v221q0 70 -65 69h-144q-84 0 -84 136z" />
<glyph unicode="," horiz-adv-x="208" d="M41 -2v166q0 63 65 63q66 0 66 -63v-166q0 -63 -66 -64q-66 0 -65 64zM70 1671v78l8 10h63l13 -10v-78h-13l-12 -10v-1352q14 -2 14 -20q0 -20 -13 -26.5t-24 -6.5q-20 0 -20 27q0 16 6 26l-6 1362h-16zM92 283q0 -18 21 -19q22 1 22 19q0 23 -22 22q-20 0 -21 -22z" />
<glyph unicode="-" horiz-adv-x="825" d="M59 932q0 27 20.5 46t45.5 19h563q62 1 62 -65q0 -63 -62 -64h-563q-66 0 -66 64zM70 1671v78l8 10h63l13 -10v-78h-13l-12 -10l68 -588q12 -6 12 -22q0 -35 -33 -35q-27 0 -26 28q0 14 10 29l-74 598h-16zM162 1049q0 -18 18 -19q19 1 19 19t-19 18q-18 0 -18 -18z M162 1671v78l10 10h61l13 -10v-78h-13l-12 -10l62 -588q12 -6 12 -22q0 -35 -33 -35q-27 0 -26 31q0 12 10 26l-62 588l-6 10h-16zM248 1049q0 -18 18 -19q19 1 19 19t-19 18q-18 0 -18 -18z" />
<glyph unicode="." horiz-adv-x="210" d="M23 102q0 29 24.5 54.5t54.5 25.5q33 0 55.5 -23.5t22.5 -56.5q0 -29 -25.5 -54t-52.5 -25q-33 0 -56 23.5t-23 55.5zM70 1671v78l8 10h63l13 -10v-78h-13l-12 -10v-1389q14 -2 14 -20q0 -20 -13 -26.5t-24 -6.5q-20 0 -20 27q0 16 6 26l-6 1399h-16zM92 246 q0 -18 21 -19q22 1 22 19q0 23 -22 22q-20 0 -21 -22z" />
<glyph unicode="/" horiz-adv-x="598" d="M20 -20q0 2 459 1378q14 49 56 49q45 0 45 -23q0 -12 -474 -1415q-12 -33 -47 -32q-39 0 -39 43z" />
<glyph unicode="0" horiz-adv-x="1009" d="M51 1671v78l8 10h64l12 -10v-78h-12l-12 -10v-137l43 -66q4 2 10 2q25 0 24 -22q1 -35 -28 -35q-31 0 -31 22q0 8 2 15l-57 84v137l-6 10h-17zM86 41v1225q0 80 25.5 108.5t99.5 32.5q-10 4 -10 14q0 8 6 19l-41 84v137l-6 10h-17v78l11 10h61l12 -10v-78h-12l-12 -10 v-137l24 -66q4 2 11 2q25 0 24 -22q0 -25 -14 -31h108q-12 2 -12 23q0 18 8 28v203l-8 10h-16v78l10 10h61l13 -10v-78h-13l-10 -10v-203q14 -2 14 -20q0 -27 -20 -31h315q-14 6 -14 31q0 20 21 20h12q6 63 6 203l-12 10h-13v78l13 10h61l10 -10v-78h-16l-6 -10 q2 -18 2 -34.5v-33.5q0 -94 -21 -149q2 -2 2 -8q0 -23 -12 -29h37q-10 4 -10 31q0 20 20 20h13l24 66v137l-12 10h-12v78l12 10h63l8 -10v-78h-16l-6 -10v-137l-39 -84q2 -2 2 -10q0 -16 -10 -23q10 0 20.5 -1t20.5 -1q-14 6 -15 33q0 20 23 20h12l41 66v137l-12 10h-10v78 l10 10h63l9 -10v-78h-17l-6 -10v-137l-57 -84q2 -2 2 -10q0 -27 -27 -27q47 -10 60.5 -42t13.5 -101v-1186q0 -74 -32 -102.5t-107 -28.5h-600q-43 0 -77 28.5t-34 69.5zM139 1432q0 -18 19 -19q20 1 20 19q0 20 -20 20q-18 0 -19 -20zM164 129q0 -57 63 -57h572q61 0 61 57 q0 61 -61 61h-572q-63 0 -63 -61zM213 1432q0 -18 18 -19q21 1 21 19q0 20 -21 20q-18 0 -18 -20zM215 403q0 -102 123 -102h199q57 0 79.5 23.5t22.5 91.5v751q0 82 -92 82h-228q-104 0 -104 -82v-764zM354 1432q0 -18 19 -19q18 1 18 19q0 20 -18 20t-19 -20zM426 901v166 q0 61 66 61q63 0 63 -61v-166q0 -63 -63 -63q-27 0 -46.5 18t-19.5 45zM698 1432q0 -18 19 -19q18 1 18 19q0 20 -18 20t-19 -20zM768 1432q0 -18 18 -19q21 1 21 19q0 20 -21 20q-18 0 -18 -20zM842 1432q0 -18 18 -19q23 1 23 19q0 20 -23 20q-18 0 -18 -20z" />
<glyph unicode="1" horiz-adv-x="620" d="M33 1671v78l8 10h63l13 -10v-78h-13l-12 -10v-137l43 -66q4 2 10 2q23 0 23 -22q0 -25 -12 -31h37q-10 4 -11 14q0 8 6 19l-41 84v137l-6 10h-16v78l10 10h62l12 -10v-78h-12l-13 -10v-137l25 -66q4 2 10 2q25 0 25 -22q0 -25 -15 -31h37q-10 4 -10 23q0 8 6 14 q-4 14 -10 33.5t-10 46.5v137l-9 10h-16v78l10 10h62l12 -10v-78h-12l-10 -10v-137l6 -66q6 0 10 2q23 0 22 -22q0 -29 -18 -35q41 -10 41 -62v-942q0 -84 74 -84h20q10 2 23 2q53 0 75.5 -30.5t22.5 -67.5v-162q0 -63 -21.5 -88.5t-87.5 -25.5h-288q-74 0 -74 86v227 q0 25 15.5 44t35 34.5t34.5 30t15 28.5v797q0 27 -20.5 38t-44 22.5t-44 27.5t-20.5 53q0 47 14.5 60.5t49.5 15.5q-10 4 -10 16q0 4 4 17l-58 84v137l-6 10h-16zM121 1432q0 -18 18 -19q21 1 21 19q0 20 -21 20q-18 0 -18 -20zM164 129q0 -57 63 -57h201q64 0 64 57 q0 61 -64 61h-201q-63 0 -63 -61zM195 1432q0 -18 18 -19q20 1 20 19q0 20 -20 20q-18 0 -18 -20zM264 1432q0 -20 23 -21q18 1 18 21q0 23 -18 22q-23 0 -23 -22zM381 434v168q0 61 65 62q66 0 66 -62v-168q0 -63 -66 -63q-25 0 -45 19.5t-20 43.5z" />
<glyph unicode="2" horiz-adv-x="694" d="M33 1671v78l8 10h63l13 -10v-78h-13l-12 -10v-137l43 -66q4 2 10 2q23 0 23 -22q0 -25 -12 -31h110q-10 4 -10 23q0 8 6 14q-4 14 -10 33.5t-10 46.5v137l-9 10h-16v78l10 10h62l12 -10v-78h-12l-10 -10v-137l6 -66q6 0 10 2q23 0 22 -22q0 -25 -14 -31h35q-12 2 -12 23 q0 18 8 28v203l-8 10h-17v78l10 10h62l12 -10v-78h-12l-10 -10v-203q14 -2 14 -20q0 -27 -20 -31h118q78 0 105.5 -29.5t27.5 -115.5v-695q0 -94 -96 -94h-256q-88 0 -88 -86t70 -86h313q66 0 66 -63v-220q0 -76 -66 -75h-412q-63 0 -63 75v537q0 74 88 74h35q10 -2 19.5 -2 h15.5q86 0 86 73v492q0 57 -119 57h-10q-143 0 -144 80q0 63 70 76q-14 2 -14 18q0 10 2 17l-58 84v137l-6 10h-16zM111 924v166q0 63 65 63q66 0 66 -63v-166q0 -63 -66 -64q-66 0 -65 64zM121 1432q0 -18 18 -19q21 1 21 19q0 20 -21 20q-18 0 -18 -20zM127 129 q0 -57 63 -57h330q64 0 64 57q0 61 -64 61h-330q-63 0 -63 -61zM264 1432q0 -20 23 -21q18 1 18 21q0 23 -18 22q-23 0 -23 -22zM336 1432q0 -18 18 -19q19 1 19 19q0 20 -19 20q-18 0 -18 -20zM535 1438q0 20 22 20h12l41 66v137l-10 10h-12v78l12 10h62l10 -10v-78h-17 l-8 -10v-137l-57 -84q2 -2 2 -10q0 -27 -29 -27t-28 35zM547 1432q0 -18 18 -19q21 1 21 19q0 20 -21 20q-18 0 -18 -20z" />
<glyph unicode="3" horiz-adv-x="778" d="M33 1671v78l8 10h63l13 -10v-78h-13l-12 -10v-137l43 -66q4 2 10 2q23 0 23 -22q0 -25 -12 -31h182q-12 2 -12 23q0 18 8 28v203l-8 10h-17v78l10 10h62l12 -10v-78h-12l-10 -10v-203q14 -2 14 -20q0 -27 -20 -31h38q-14 6 -14 31q0 20 21 20h12q2 33 3 83t1 120l-12 10 h-11v78l11 10h63l8 -10v-78h-16l-6 -10q2 -20 3 -39.5t1 -36.5q0 -84 -23 -141q2 -2 2 -8q0 -23 -12 -29h37q-10 4 -10 31q0 20 22 20h13l22 66v137l-12 10h-10v78l10 10h63l11 -10v-78h-17l-8 -10v-137l-39 -84q2 -2 2 -10q0 -16 -10 -23q35 -2 62.5 -24.5t27.5 -57.5v-760 q0 -12 17.5 -24.5t38 -30.5t38 -47t17.5 -74v-336q0 -111 -88 -110h-459q-94 0 -94 75v220q20 63 51 63h348q74 0 74 102q0 70 -56 70h-329q-31 0 -59.5 23.5t-28.5 54.5q0 78 92 78q8 0 18 -2h17q106 0 106 100v469q0 53 -63 53h-107q-63 0 -63 76q0 25 18 46.5t43 31.5 q-20 4 -20 20q0 4 4 17l-58 84v137l-6 10h-16zM88 940v166q0 63 66 63q63 0 63 -63v-166q0 -63 -63 -63q-66 0 -66 63zM121 1432q0 -18 18 -19q21 1 21 19q0 20 -21 20q-18 0 -18 -20zM127 129q0 -57 63 -57h367q64 0 64 57q0 61 -64 61h-367q-63 0 -63 -61zM336 1432 q0 -18 18 -19q19 1 19 19q0 20 -19 20q-18 0 -18 -20zM403 1432q0 -18 19 -19q18 1 18 19q0 20 -18 20t-19 -20zM473 1432q0 -18 19 -19q20 1 20 19q0 20 -20 20q-18 0 -19 -20zM535 1438q0 20 22 20h12l41 66v137l-10 10h-12v78l12 10h62l10 -10v-78h-17l-8 -10v-137 l-57 -84q2 -2 2 -10q0 -27 -29 -27t-28 35zM547 1432q0 -18 18 -19q21 1 21 19q0 20 -21 20q-18 0 -18 -20z" />
<glyph unicode="4" horiz-adv-x="907" d="M33 1671v78l8 10h63l13 -10v-78h-13l-12 -10v-137l43 -66q4 2 10 2q23 0 23 -22q0 -25 -12 -31h37q-10 4 -11 14q0 8 6 19l-41 84v137l-6 10h-16v78l10 10h62l12 -10v-78h-12l-13 -10v-137l25 -66q4 2 10 2q25 0 25 -22q0 -25 -15 -31h37q-10 4 -10 23q0 8 6 14 q-4 14 -10 33.5t-10 46.5v137l-9 10h-16v78l10 10h62l12 -10v-78h-12l-10 -10v-137l6 -66q6 0 10 2q23 0 22 -22q0 -27 -16 -33q47 -12 47 -64v-860q0 -84 60 -84h243q49 0 49 47v369q0 59 72 59q59 0 59 -59v-809q0 -61 -51 -61h-162q-59 0 -59 55v264q0 53 -45 53h-360 q-76 0 -76 78v953q0 49 43 59q-12 6 -12 18q0 4 4 17l-58 84v137l-6 10h-16zM121 1432q0 -18 18 -19q21 1 21 19q0 20 -21 20q-18 0 -18 -20zM195 1432q0 -18 18 -19q20 1 20 19q0 20 -20 20q-18 0 -18 -20zM264 1432q0 -20 23 -21q18 1 18 21q0 23 -18 22q-23 0 -23 -22z M469 547v166q0 63 66 63t65 -63v-166q0 -66 -65 -66q-25 0 -45.5 19.5t-20.5 46.5zM627 129q0 -57 63 -57h35q61 0 61 57q0 61 -61 61h-35q-63 0 -63 -61z" />
<glyph unicode="5" horiz-adv-x="778" d="M33 1671v78l8 10h63l13 -10v-78h-13l-12 -10v-137l43 -66q4 2 10 2q23 0 23 -22q0 -25 -12 -31h110q-10 4 -10 23q0 8 6 14q-4 14 -10 33.5t-10 46.5v137l-9 10h-16v78l10 10h62l12 -10v-78h-12l-10 -10v-137l6 -66q6 0 10 2q23 0 22 -22q0 -25 -14 -31h35q-12 2 -12 23 q0 18 8 28v203l-8 10h-17v78l10 10h62l12 -10v-78h-12l-10 -10v-203q14 -2 14 -20q0 -27 -20 -31q35 -2 59.5 -25.5t24.5 -52.5q0 -80 -97 -80h-47q-41 0 -50 -18.5t-9 -54.5v-476q0 -53 55 -53h311q41 0 68 -30.5t27 -69.5v-496q0 -70 -21.5 -89t-77.5 -19h-473 q-82 0 -82 75v224q0 20 24.5 39.5t45.5 19.5h360q68 0 68 96q0 94 -88 95h-248q-78 0 -107.5 32.5t-29.5 114.5v686q0 66 49 78q-18 2 -18 20q0 4 4 17l-58 84v137l-6 10h-16zM121 1432q0 -18 18 -19q21 1 21 19q0 20 -21 20q-18 0 -18 -20zM127 129q0 -57 63 -57h330 q64 0 64 57q0 61 -64 61h-330q-63 0 -63 -61zM264 1432q0 -20 23 -21q18 1 18 21q0 23 -18 22q-23 0 -23 -22zM336 1432q0 -18 18 -19q19 1 19 19q0 20 -19 20q-18 0 -18 -20zM348 872v166q0 63 64 64q66 0 65 -64v-166q0 -61 -65 -61q-23 0 -43.5 19.5t-20.5 41.5z M389 1438q0 20 21 20h12q2 33 3 83t1 120l-12 10h-11v78l11 10h63l8 -10v-78h-16l-6 -10q2 -20 3 -39.5t1 -36.5q0 -84 -23 -141q2 -2 2 -8q0 -33 -26 -33q-31 0 -31 35zM403 1432q0 -18 19 -19q18 1 18 19q0 20 -18 20t-19 -20z" />
<glyph unicode="6" horiz-adv-x="915" d="M33 1671v78l8 10h63l13 -10v-78h-13l-12 -10v-137l43 -66q4 2 10 2q23 0 23 -22q0 -25 -12 -31h37q-10 4 -11 14q0 8 6 19l-41 84v137l-6 10h-16v78l10 10h62l12 -10v-78h-12l-13 -10v-137l25 -66q4 2 10 2q25 0 25 -22q0 -25 -15 -31h109q-12 2 -12 23q0 18 8 28v203 l-8 10h-17v78l10 10h62l12 -10v-78h-12l-10 -10v-203q14 -2 14 -20q0 -27 -20 -31h88q14 0 20 -2q-12 8 -12 33q0 20 22 20h13l22 66v137l-12 10h-10v78l10 10h63l11 -10v-78h-17l-8 -10v-137l-39 -84q2 -2 2 -10q0 -27 -31 -27q14 -4 24.5 -10.5t15.5 -20.5t7.5 -39.5 t2.5 -68.5v-148q0 -82 -70 -82q-25 0 -38 4t-21.5 20.5t-10.5 48.5t-2 85q0 57 -86 57q-63 0 -63 -69v-244q0 -92 94 -92h432q86 0 86 -84v-737q0 -80 -80 -80h-639q-61 0 -61 63v1331q0 55 47 68q-14 2 -14 18q0 10 2 17l-58 84v137l-6 10h-16zM121 1432q0 -18 18 -19 q21 1 21 19q0 20 -21 20q-18 0 -18 -20zM145 129q0 -57 64 -57h498q61 0 61 57q2 61 -61 61h-498q-63 0 -64 -61zM195 1432q0 -18 18 -19q20 1 20 19q0 20 -20 20q-18 0 -18 -20zM336 1432q0 -18 18 -19q19 1 19 19q0 20 -19 20q-18 0 -18 -20zM473 1432q0 -18 19 -19 q20 1 20 19q0 20 -20 20q-18 0 -19 -20zM598 379q0 -78 74 -78h45q61 0 61 78v229q0 82 -73 82h-35q-72 0 -72 -82v-229z" />
<glyph unicode="7" horiz-adv-x="778" d="M51 1671v78l8 10h64l12 -10v-78h-12l-12 -10v-137l43 -66q4 2 10 2q25 0 24 -22q1 -35 -28 -35q-31 0 -31 22q0 8 2 15l-57 84v137l-6 10h-17zM78 999v306q0 94 57 94h494q33 0 52 -33t19 -66v-727q0 -55 -38 -86l-158 -116q-43 -35 -43 -127v-221q0 -74 -76 -74 q-31 0 -55.5 22.5t-24.5 51.5v327q0 57 49 92l131 95q61 43 62 106v399q0 78 -88 78h-140q-39 0 -55 -14t-22 -36.5t-7.5 -47.5t-6.5 -47.5t-21.5 -36.5t-50.5 -14q-78 0 -78 75zM139 1432q0 -18 19 -19q20 1 20 19q0 20 -20 20q-18 0 -19 -20zM143 1671v78l11 10h61l12 -10 v-78h-12l-12 -10v-137l24 -66q4 2 11 2q25 0 24 -22q0 -35 -29 -35q-31 0 -30 20q0 4 4 17l-41 84v137l-6 10h-17zM213 1432q0 -18 18 -19q21 1 21 19q0 20 -21 20q-18 0 -18 -20zM236 1671v78l10 10h61l12 -10v-78h-12l-10 -10v-137l6 -66q6 0 10 2q23 0 23 -22 q0 -35 -29 -35q-33 0 -33 27q0 8 7 14q-4 14 -10.5 33.5t-10.5 46.5v137l-8 10h-16zM283 1432q0 -20 22 -21q19 1 19 21q0 23 -19 22q-23 0 -22 -22zM408 1438q0 20 20 20h12q2 33 3 83t1 120l-12 10h-10v78l10 10h64l8 -10v-78h-17l-6 -10q2 -20 3 -39.5t1 -36.5 q0 -84 -22 -141q2 -2 2 -8q0 -33 -27 -33q-31 0 -30 35zM422 1432q0 -18 18 -19q19 1 19 19q0 20 -19 20q-18 0 -18 -20zM553 1438q0 20 22 20h13l41 66v137l-11 10h-12v78l12 10h62l10 -10v-78h-16l-8 -10v-137l-58 -84q2 -2 2 -10q0 -27 -28 -27q-29 0 -29 35zM565 1432 q0 -18 19 -19q20 1 20 19q0 20 -20 20q-18 0 -19 -20z" />
<glyph unicode="8" horiz-adv-x="956" d="M74 100v723q0 39 45 82q31 29 47 48.5t22.5 35t7.5 29.5t1 33v284q0 53 47 68q-23 4 -23 20q0 10 4 17l-59 84v137l-6 10h-17v78l11 10h61l12 -10v-78h-12l-12 -10v-137l43 -66q4 2 10 2q25 0 25 -22q0 -25 -15 -31h183q-10 2 -11 23q0 16 6 28v203l-6 10h-16v78l8 10h64 l10 -10v-78h-10l-13 -10v-203q14 -2 15 -20q0 -27 -21 -31h39q-14 6 -14 31q0 20 20 20h12q2 33 3.5 83t1.5 120l-11 10h-12v78l12 10h62l10 -10v-78h-16l-9 -10q2 -20 3.5 -39.5t1.5 -36.5q0 -84 -23 -141q2 -2 2 -8q0 -23 -10 -29h96q4 0 7 -1t7 -1q-12 8 -12 33 q0 20 23 20h12l43 66v137l-12 10h-13v78l13 10h61l10 -10v-78h-16l-6 -10v-137l-60 -84q4 -4 5 -10q0 -25 -25 -27q68 -18 68 -100v-281q0 -16 19 -40t41.5 -50.5t42 -53t19.5 -44.5v-730q0 -96 -27.5 -128.5t-105.5 -32.5h-510q-154 0 -153 157zM164 129q0 -57 63 -57h498 q61 0 61 57q0 61 -61 61h-498q-63 0 -63 -61zM172 399q0 -98 84 -98h434q57 0 74.5 20.5t17.5 75.5v43q-2 106 -100 107h-418q-92 0 -92 -101v-47zM231 1432q0 -18 19 -19q20 1 20 19q0 20 -20 20q-18 0 -19 -20zM279 1075q0 -98 83 -98h64q57 0 74.5 20.5t17.5 75.5v103 q0 109 -98 108h-49q-92 0 -92 -98v-111zM446 1432q0 -18 19 -19q18 1 18 19q0 20 -18 20t-19 -20zM514 1432q0 -18 18 -19q19 1 19 19q0 20 -19 20q-18 0 -18 -20zM657 1432q0 -18 19 -19q20 1 20 19q0 20 -20 20q-18 0 -19 -20z" />
<glyph unicode="9" horiz-adv-x="911" d="M70 397v901q0 90 98 91h584q27 0 54.5 -25t27.5 -49v-1260q0 -59 -31 -85.5t-123 -26.5q-70 0 -96.5 25.5t-26.5 90.5v162q0 84 -70 84h-337q-80 0 -80 92zM125 1671v78l10 10h62l12 -10v-78h-12l-13 -10v-137l43 -66q4 2 11 2q25 0 24 -22q0 -35 -29 -35q-31 0 -30 20 q0 4 4 17l-60 84v137l-6 10h-16zM213 1432q0 -18 18 -19q21 1 21 19q0 20 -21 20q-18 0 -18 -20zM217 1671v78l10 10h62l12 -10v-78h-12l-10 -10v-137l22 -66q4 2 12 2q23 0 23 -22q0 -35 -29 -35q-31 0 -31 20q0 4 5 17l-39 84v137l-9 10h-16zM287 1432q0 -18 18 -19 q21 1 21 19q0 20 -21 20q-18 0 -18 -20zM309 1671v78l10 10h62l12 -10v-78h-12l-10 -10v-137l6 -66q6 0 10 2q23 0 23 -22q0 -35 -29 -35q-31 0 -31 27q0 6 4 14q-4 14 -10 33.5t-10 46.5v137l-8 10h-17zM356 1432q0 -20 23 -21q18 1 18 21q0 23 -18 22q-23 0 -23 -22z M440 639q0 -102 82 -102h148q55 0 73.5 21.5t18.5 76.5v563q-2 53 -24.5 80t-75.5 27h-130q-92 0 -92 -99v-567zM481 1438q0 20 21 20h12q2 33 3 83t1 120l-12 10h-10v78l10 10h63l11 -10v-78h-17l-8 -10q2 -20 3 -39.5t1 -36.5q0 -84 -22 -141q2 -2 2 -8q0 -33 -27 -33 q-31 0 -31 35zM494 1018v168q0 61 63 61q66 0 66 -61v-168q0 -63 -66 -64q-25 0 -44 19.5t-19 44.5zM496 1432q0 -18 18 -19q18 1 18 19q0 20 -18 20t-18 -20zM608 129q0 -57 64 -57h53q61 0 61 57q0 61 -61 61h-53q-63 0 -64 -61zM627 1438q0 20 22 20h13l43 66v137l-13 10 h-12v78l12 10h62l10 -10v-78h-16l-7 -10v-137l-59 -84q2 -2 2 -10q0 -27 -29 -27t-28 35zM639 1432q0 -18 18 -19q21 1 21 19q0 20 -21 20q-18 0 -18 -20z" />
<glyph unicode=":" horiz-adv-x="284" d="M66 113q0 31 23.5 56.5t53.5 25.5q31 0 56.5 -25.5t25.5 -56.5q0 -29 -25.5 -53.5t-56.5 -24.5q-33 0 -55 24.5t-22 53.5zM66 457q0 29 23.5 54.5t53.5 25.5q31 0 56.5 -25.5t25.5 -54.5q0 -31 -25.5 -55.5t-56.5 -24.5q-33 0 -55 24.5t-22 55.5zM106 1671v78l11 10h61 l12 -10v-78h-12l-12 -10l-6 -1030q12 -4 12 -21q0 -35 -33 -35q-27 0 -26 29q0 12 10 27v1040h-17zM125 606q0 -18 18 -18q19 0 19 18q0 20 -19 21q-18 0 -18 -21z" />
<glyph unicode=";" horiz-adv-x="321" d="M66 494q0 80 77 79q31 0 56.5 -25t25.5 -54q0 -31 -25.5 -55.5t-56.5 -24.5q-33 0 -55 23.5t-22 56.5zM92 -10v168q0 61 66 61q63 0 63 -61v-168q0 -63 -63 -64q-27 0 -46.5 19.5t-19.5 44.5zM106 1671v78l11 10h61l12 -10v-78h-12l-12 -10l-4 -999q12 -4 12 -21 q0 -35 -33 -35q-25 0 -24 29q0 12 8 27l-2 1009h-17zM127 637q0 -18 18 -19q19 1 19 19t-19 18q-18 0 -18 -18z" />
<glyph unicode="=" horiz-adv-x="825" d="M59 840q0 27 20.5 46t45.5 19h563q62 1 62 -65q0 -63 -62 -64h-563q-66 0 -66 64zM59 1026q0 25 20.5 44.5t45.5 19.5h563q62 -1 62 -64q0 -66 -62 -65h-563q-66 0 -66 65zM70 1671v78l8 10h63l13 -10v-78h-13l-12 -10l68 -494q12 -10 12 -24q0 -35 -33 -35q-27 0 -26 29 q0 14 10 30l-68 494l-6 10h-16zM162 1141q0 -18 18 -19q19 1 19 19t-19 18q-18 0 -18 -18zM162 1671v78l10 10h61l13 -10v-78h-13l-12 -10l62 -494q12 -10 12 -24q0 -35 -33 -35q-27 0 -26 31q0 12 10 28l-62 494l-6 10h-16zM248 1141q0 -18 18 -19q19 1 19 19t-19 18 q-18 0 -18 -18z" />
<glyph unicode="?" horiz-adv-x="731" d="M33 1671v78l8 10h63l13 -10v-78h-13l-12 -10v-137l43 -66q4 2 10 2q23 0 23 -22q0 -35 -27 -35q-31 0 -30 22q0 8 2 15l-58 84v137l-6 10h-16zM51 1278q0 111 111 111h377q53 0 92 -29t39 -82v-852q0 -119 -95 -119h-182q-39 0 -39 -47v-27q2 -10 2 -24 q0 -49 -25.5 -65.5t-43.5 -16.5q-68 0 -68 88v596q0 94 86 94h164q41 0 50 12.5t9 55.5v131q0 63 -122 63h-244q-66 0 -88.5 22.5t-22.5 88.5zM121 1432q0 -18 18 -19q21 1 21 19q0 20 -21 20q-18 0 -18 -20zM125 1671v78l10 10h62l12 -10v-78h-12l-13 -10v-137l25 -66 q4 2 10 2q25 0 25 -22q0 -35 -29 -35q-31 0 -31 20q0 4 4 17l-41 84v137l-6 10h-16zM195 1432q0 -18 18 -19q20 1 20 19q0 20 -20 20q-18 0 -18 -20zM207 2q0 82 78 82q31 0 56.5 -25.5t25.5 -56.5t-26 -54.5t-56 -23.5q-33 0 -55.5 22.5t-22.5 55.5zM217 1671v78l10 10h62 l12 -10v-78h-12l-10 -10v-137l6 -66q6 0 10 2q23 0 22 -22q1 -35 -28 -35q-33 0 -33 27q0 8 6 14q-4 14 -10 33.5t-10 46.5v137l-9 10h-16zM264 1432q0 -20 23 -21q18 1 18 21q0 23 -18 22q-23 0 -23 -22zM309 1671v78l10 10h62l12 -10v-78h-12l-10 -10v-203q14 -2 14 -20 q0 -20 -14.5 -26.5t-22.5 -6.5q-23 0 -22 25q0 18 8 28v203l-8 10h-17zM336 1432q0 -18 18 -19q19 1 19 19q0 20 -19 20q-18 0 -18 -20zM389 1438q0 20 21 20h12q2 33 3 83t1 120l-12 10h-11v78l11 10h63l8 -10v-78h-16l-6 -10q2 -20 3 -39.5t1 -36.5q0 -84 -23 -141 q2 -2 2 -8q0 -33 -26 -33q-31 0 -31 35zM403 1432q0 -18 19 -19q18 1 18 19q0 20 -18 20t-19 -20zM461 1438q0 20 22 20h13l22 66v137l-12 10h-10v78l10 10h63l11 -10v-78h-17l-8 -10v-137l-39 -84q2 -2 2 -10q0 -27 -31 -27q-27 0 -26 35zM473 1432q0 -18 19 -19 q20 1 20 19q0 20 -20 20q-18 0 -19 -20zM535 1438q0 20 22 20h12l41 66v137l-10 10h-12v78l12 10h62l10 -10v-78h-17l-8 -10v-137l-57 -84q2 -2 2 -10q0 -27 -29 -27t-28 35zM547 1432q0 -18 18 -19q21 1 21 19q0 20 -21 20q-18 0 -18 -20z" />
<glyph unicode="@" horiz-adv-x="1349" d="M51 797q0 164 51.5 292t137.5 216t198.5 134t235.5 46q293 0 453.5 -157t160.5 -492q0 -49 -9 -115t-40 -124t-88 -98t-154 -40q-141 0 -184 104q-82 -53 -160 -53q-94 0 -162.5 60.5t-68.5 179.5t59.5 182t165.5 63q92 0 144 -39l14 35h102v-309q0 -102 92 -102 q55 0 101.5 62.5t46.5 178.5q0 113 -25.5 210t-82 168t-146.5 111t-219 40q-102 0 -189.5 -35t-152 -104.5t-101 -174t-36.5 -241.5q0 -139 30.5 -242.5t86 -176.5t134 -116t177.5 -59l-15 -142q-141 23 -246.5 86.5t-174 160.5t-102.5 221t-34 270zM535 750 q0 -123 129 -123q84 0 127 57v147q-47 47 -119 48q-137 0 -137 -129z" />
<glyph unicode="A" horiz-adv-x="925" d="M49 63v465q0 76 33 127l420 664q49 76 164 76q195 0 194 -164v-1200q0 -37 -23.5 -69t-60.5 -32h-184q-78 0 -78 76v207q0 55 23.5 71.5t53.5 19.5t53.5 2t23.5 22q0 6 -1 13t-1 17v326q0 76 -60 76h-229q-135 0 -135 -94v-308q0 -59 65 -59h45q82 0 82 -86v-197 q0 -86 -72 -86h-206q-31 0 -51.5 5.5t-33 19.5t-17.5 41t-5 67zM90 1186v166q0 61 66 61q63 0 63 -61v-166q0 -27 -19.5 -46.5t-43.5 -19.5q-66 0 -66 66zM106 129q0 -57 62 -57h129q61 0 61 57q0 61 -61 61h-129q-62 0 -62 -61zM184 1671v78l11 10h61l12 -10v-78h-12 l-10 -10v-137l151 -213h11q25 0 24 -23q0 -35 -26 -35q-31 0 -31 29q0 6 2 10l-168 232v137l-8 10h-17zM381 1284q0 -18 22 -18q18 0 19 18q0 18 -19 19q-22 -1 -22 -19zM463 920q0 -33 37 -33h153q61 0 81 13t20 75v237q0 18 -19 33t-37 15q-70 0 -127 -113l-90 -172 q-18 -35 -18 -55zM563 1460q2 -2 8 -2l9 66v137l-13 10h-12v78l12 10h62l10 -10v-78h-16l-7 -10v-137q-6 -27 -12 -46.5t-10 -33.5q6 -6 6 -14q0 -27 -33 -27q-28 0 -28 33q0 25 24 24zM551 1432q0 -20 18 -21q23 0 23 21q0 23 -23 22q-18 1 -18 -22zM588 129q0 -57 63 -57 h72q61 0 61 57q0 61 -61 61h-72q-63 0 -63 -61zM688 1438q0 23 23 22q6 0 12 -2l41 66v137l-12 10h-11v78l11 10h63l8 -10v-78h-16l-6 -10v-137l-58 -84q4 -12 5 -17q0 -20 -33 -20q-27 0 -27 35zM696 1432q0 -18 21 -19q18 0 18 19q0 20 -18 20q-21 0 -21 -20z" />
<glyph unicode="B" horiz-adv-x="837" d="M55 100v1180q0 115 125 115h338q55 0 99.5 -36t44.5 -89v-295q0 -12 18 -33.5t41.5 -47.5t42 -51.5t18.5 -43.5v-707q0 -162 -129 -162h-454q-143 0 -144 170zM88 1671v78l8 10h64l12 -10v-78h-12l-13 -10v-137l43 -66q4 2 11 2q25 0 24 -22q1 -35 -28 -35q-31 0 -31 22 q0 8 2 15l-57 84v137l-7 10h-16zM145 129q0 -57 64 -57h403q64 0 64 57q2 61 -64 61h-403q-63 0 -64 -61zM176 1432q0 -18 19 -19q20 1 20 19q0 20 -20 20q-18 0 -19 -20zM197 1001q0 -98 86 -98h59q88 0 88 98v168q0 92 -88 93h-61q-84 0 -84 -93v-168zM272 1671v78l11 10 h61l12 -10v-78h-12l-10 -10v-137l6 -66q6 0 10 2q23 0 23 -22q0 -35 -29 -35q-31 0 -31 27q0 6 4 14q-4 14 -10 33.5t-10 46.5v137l-8 10h-17zM319 1432q0 -20 23 -21q18 1 18 21q0 23 -18 22q-23 0 -23 -22zM422 406q0 -100 78 -101h53q47 0 67.5 18.5t20.5 82.5v278 q0 98 -88 98h-55q-76 0 -76 -98v-278zM444 1438q0 20 21 20h12q2 33 3 83t1 120l-12 10h-10v78l10 10h63l9 -10v-78h-15l-8 -10q2 -20 3 -39.5t1 -36.5q0 -84 -22 -141q2 -2 2 -8q0 -33 -27 -33q-31 0 -31 35zM459 1432q0 -18 18 -19q19 1 19 19q0 20 -19 20q-18 0 -18 -20z M612 1458h13l41 66v137l-11 10h-12v78l12 10h62l10 -10v-78h-16l-6 -10v-137l-60 -84q2 -2 2 -10q0 -27 -29 -27q-28 0 -28 33q0 22 22 22zM602 1432q0 -18 19 -19q20 1 20 19q0 20 -20 20q-18 0 -19 -20z" />
<glyph unicode="C" horiz-adv-x="847" d="M55 59v1219q0 47 34 85t83 38h332q149 0 149 -69q0 -64 -53 -64h-354q-18 0 -33.5 -17.5t-15.5 -36.5v-520q0 -63 11 -77.5t46 -14.5h424q100 0 100 -139v-160q0 -16 1 -36.5t1 -47.5v-96q0 -104 -39 -146.5t-131 -42.5h-393q-162 0 -162 125zM88 1671v78l8 10h64l12 -10 v-78h-12l-13 -10v-137l43 -66q4 2 11 2q25 0 24 -22q1 -35 -28 -35q-31 0 -31 22q0 8 2 15l-57 84v137l-7 10h-16zM127 129q0 -57 63 -57h422q64 0 64 57q0 61 -64 61h-422q-63 0 -63 -61zM176 1432q0 -18 19 -19q20 1 20 19q0 20 -20 20q-18 0 -19 -20zM180 1671v78l10 10 h62l12 -10v-78h-12l-10 -10v-137l22 -66q4 2 10 2q25 0 25 -22q0 -35 -29 -35q-31 0 -30 20q0 4 4 17l-41 84v137l-6 10h-17zM250 1432q0 -18 18 -19q21 1 21 19q0 20 -21 20q-18 0 -18 -20zM264 963v165q0 27 19.5 45.5t44.5 18.5q66 0 65 -64v-165q0 -66 -65 -66 q-63 0 -64 66zM272 1671v78l11 10h61l12 -10v-78h-12l-10 -10v-137l6 -66q6 0 10 2q23 0 23 -22q0 -35 -29 -35q-31 0 -31 27q0 6 4 14q-4 14 -10 33.5t-10 46.5v137l-8 10h-17zM319 1432q0 -20 23 -21q18 1 18 21q0 23 -18 22q-23 0 -23 -22zM367 1671v78l8 10h63l11 -10 v-78h-11l-12 -10v-203q14 -2 14 -20q0 -20 -14 -26.5t-23 -6.5q-23 0 -22 25q0 18 8 28v203l-8 10h-14zM391 1432q0 -18 19 -19q18 1 18 19q0 20 -18 20t-19 -20zM444 1438q0 20 21 20h12q2 33 3 83t1 120l-12 10h-10v78l10 10h63l9 -10v-78h-15l-8 -10q2 -20 3 -39.5 t1 -36.5q0 -84 -22 -141q2 -2 2 -8q0 -33 -27 -33q-31 0 -31 35zM459 1432q0 -18 18 -19q19 1 19 19q0 20 -19 20q-18 0 -18 -20zM612 1458h13l41 66v137l-11 10h-12v78l12 10h62l10 -10v-78h-16l-6 -10v-137l-60 -84q2 -2 2 -10q0 -27 -29 -27q-28 0 -28 33q0 22 22 22z M602 1432q0 -18 19 -19q20 1 20 19q0 20 -20 20q-18 0 -19 -20z" />
<glyph unicode="D" horiz-adv-x="876" d="M55 96v1219q0 80 127 80h275q59 0 96 -8.5t60.5 -29t38 -58t28.5 -95.5l149 -639q0 -37 1 -91t1 -106.5t1.5 -93.5t1.5 -49q0 -100 -7.5 -158.5t-31 -89t-66.5 -39t-117 -8.5h-381q-176 0 -176 166zM88 1671v78l8 10h64l12 -10v-78h-12l-13 -10v-137l43 -66q4 2 11 2 q25 0 24 -22q1 -35 -28 -35q-31 0 -31 22q0 8 2 15l-57 84v137l-7 10h-16zM127 129q0 -57 63 -57h480q61 0 61 57q0 61 -61 61h-480q-63 0 -63 -61zM176 1432q0 -18 19 -19q20 1 20 19q0 20 -20 20q-18 0 -19 -20zM180 1671v78l10 10h62l12 -10v-78h-12l-10 -10v-137l22 -66 q4 2 10 2q25 0 25 -22q0 -35 -29 -35q-31 0 -30 20q0 4 4 17l-41 84v137l-6 10h-17zM197 639q0 -63 63 -64h27q80 0 80 -92q0 -66 3 -101.5t15 -53t34.5 -20.5t61.5 -3h107q104 0 104 170q0 41 -12 90l-158 647q-6 25 -27.5 37.5t-64.5 12.5h-141q-92 0 -92 -76v-547z M250 1432q0 -18 18 -19q21 1 21 19q0 20 -21 20q-18 0 -18 -20zM272 1671v78l11 10h61l12 -10v-78h-12l-10 -10v-137l6 -66q6 0 10 2q23 0 23 -22q0 -35 -29 -35q-31 0 -31 27q0 6 4 14q-4 14 -10 33.5t-10 46.5v137l-8 10h-17zM319 1432q0 -20 23 -21q18 1 18 21 q0 23 -18 22q-23 0 -23 -22zM367 1671v78l8 10h63l11 -10v-78h-11l-12 -10v-203q14 -2 14 -20q0 -20 -14 -26.5t-23 -6.5q-23 0 -22 25q0 18 8 28v203l-8 10h-14zM391 1432q0 -18 19 -19q18 1 18 19q0 20 -18 20t-19 -20zM444 1438q0 20 21 20h12q2 33 3 83t1 120l-12 10 h-10v78l10 10h63l9 -10v-78h-15l-8 -10q2 -20 3 -39.5t1 -36.5q0 -84 -22 -141q2 -2 2 -8q0 -33 -27 -33q-31 0 -31 35zM459 457v166q0 61 63 61q66 0 66 -61v-166q0 -63 -66 -64q-25 0 -44 18.5t-19 45.5zM459 1432q0 -18 18 -19q19 1 19 19q0 20 -19 20q-18 0 -18 -20z M516 1438q0 20 23 20h12l22 66v137l-10 10h-12v78l12 10h62l10 -10v-78h-17l-8 -10v-137l-39 -84q2 -2 2 -10q0 -27 -28 -27q-29 0 -29 35zM528 1432q0 -18 19 -19q20 1 20 19q0 20 -20 20q-18 0 -19 -20zM612 1458h13l41 66v137l-11 10h-12v78l12 10h62l10 -10v-78h-16 l-6 -10v-137l-60 -84q2 -2 2 -10q0 -27 -29 -27q-28 0 -28 33q0 22 22 22zM602 1432q0 -18 19 -19q20 1 20 19q0 20 -20 20q-18 0 -19 -20z" />
<glyph unicode="E" horiz-adv-x="698" d="M53 100v164v107.5t2 150.5v260q0 59 33 80l92 62q16 12 17 57v289q0 125 110 125h248q98 0 98 -66q0 -29 -17.5 -48t-55.5 -19h-45q-53 0 -54 -50v-243q0 -51 58 -54q41 -2 63.5 -8t33.5 -15t14 -20.5t3 -21.5q0 -27 -20.5 -47.5t-44.5 -20.5h-359q-70 0 -69 -88v-313 q0 -76 69 -76h357q14 0 40.5 -19.5t26.5 -33.5v-258q0 -63 -67 -64h-393q-78 0 -109 37t-31 133zM127 129q0 -57 63 -57h330q64 0 64 57q0 61 -64 61h-330q-63 0 -63 -61zM217 1671v78l10 10h62l12 -10v-78h-12l-10 -10v-137l6 -66q6 0 10 2q23 0 22 -22q1 -35 -28 -35 q-33 0 -33 27q0 8 6 14q-4 14 -10 33.5t-10 46.5v137l-9 10h-16zM244 444v166q0 66 63 66q66 0 66 -66v-166q0 -63 -66 -63q-25 0 -44 19.5t-19 43.5zM264 1432q0 -20 23 -21q18 1 18 21q0 23 -18 22q-23 0 -23 -22zM309 1671v78l10 10h62l12 -10v-78h-12l-10 -10v-203 q14 -2 14 -20q0 -20 -14.5 -26.5t-22.5 -6.5q-23 0 -22 25q0 18 8 28v203l-8 10h-17zM336 1432q0 -18 18 -19q19 1 19 19q0 20 -19 20q-18 0 -18 -20zM389 1438q0 20 21 20h12q2 33 3 83t1 120l-12 10h-11v78l11 10h63l8 -10v-78h-16l-6 -10q2 -20 3 -39.5t1 -36.5 q0 -84 -23 -141q2 -2 2 -8q0 -33 -26 -33q-31 0 -31 35zM403 1432q0 -18 19 -19q18 1 18 19q0 20 -18 20t-19 -20zM557 1458h12l41 66v137l-10 10h-12v78l12 10h62l10 -10v-78h-17l-8 -10v-137l-57 -84q2 -2 2 -10q0 -27 -29 -27q-28 0 -28 33q0 22 22 22zM547 1432 q0 -18 18 -19q21 1 21 19q0 20 -21 20q-18 0 -18 -20z" />
<glyph unicode="F" horiz-adv-x="671" d="M55 29v1218q0 147 140 148h364q86 -1 86 -62q0 -71 -84 -71h-2h-291q-72 0 -71 -86v-185q0 -69 73 -69h2h254q72 0 72 -68q0 -33 -17.5 -46t-43 -19.5t-55 -6.5t-55.5 -5t-43 -18.5t-17 -41.5v-561q0 -82 -4.5 -127t-19.5 -67.5t-43 -28t-75 -5.5q-170 0 -170 101z M106 1671v78l11 10h61l12 -10v-78h-12l-12 -10v-137l24 -66q4 2 11 2q25 0 24 -22q1 -35 -28 -35q-31 0 -31 22q0 8 2 15l-39 84v137l-6 10h-17zM127 129q0 -57 63 -57h35q62 0 62 57q0 61 -62 61h-35q-63 0 -63 -61zM176 1432q0 -18 19 -19q20 1 20 19q0 20 -20 20 q-18 0 -19 -20zM199 1671v78l10 10h61l13 -10v-78h-13l-10 -10v-137l6 -66q6 0 8 2q25 0 25 -22q0 -35 -29 -35q-33 0 -32 27q0 8 6 14q-4 14 -10.5 33.5t-12.5 46.5v137l-6 10h-16zM268 1411q19 1 19 21q0 23 -19 22q-22 0 -22 -20q0 -22 22 -23zM291 1671v78l10 10h61 l13 -10v-78h-13l-10 -10v-203q14 -2 15 -20q0 -20 -14.5 -26.5t-24.5 -6.5q-20 0 -21 25q0 18 8 28v203l-8 10h-16zM317 1432q0 -18 19 -19q18 1 18 19q0 20 -18 20t-19 -20zM391 1458h12q2 33 3.5 83t1.5 120l-13 10h-10v78l10 10h64l8 -10v-78h-16l-7 -10q2 -20 3.5 -39.5 t0.5 -36.5q0 -84 -22 -141q2 -2 2 -8q0 -33 -29 -33q-28 0 -28 33q0 22 20 22zM385 1432q0 -18 18 -19q19 1 19 19q0 20 -19 20q-18 0 -18 -20zM442 1438q0 20 23 20h12l23 66v137l-13 10h-10v78l10 10h64l8 -10v-78h-14l-8 -10v-137l-39 -84q2 -2 2 -10q0 -27 -31 -27 q-27 0 -27 35zM453 1432q0 -18 20 -19q21 1 21 19q0 20 -21 20q-20 0 -20 -20zM461 451v167q0 61 65 62q63 0 64 -62v-167q0 -61 -64 -62q-66 0 -65 62zM516 1438q0 20 23 20h12l41 66v137l-10 10h-13v78l13 10h61l10 -10v-78h-16l-8 -10v-137l-58 -84q2 -2 2 -10 q0 -27 -28 -27q-29 0 -29 35zM528 1432q0 -18 19 -19q20 1 20 19q0 20 -20 20q-18 0 -19 -20z" />
<glyph unicode="G" horiz-adv-x="825" d="M55 66v1222q0 106 142 107h170q145 0 145 -135q0 -158 -100 -158h-127q-88 0 -88 -103v-573q0 -121 118 -121h136q55 0 74.5 23.5t19.5 79.5v270q0 55 -23.5 72.5t-101.5 25.5q-59 2 -87 24.5t-28 59.5q0 66 26.5 81t90.5 15h248q102 0 102 -106v-758q0 -94 -43 -128 t-141 -34h-400q-53 0 -93 41t-40 95zM88 1671v78l8 10h64l12 -10v-78h-12l-13 -10v-137l43 -66q4 2 11 2q25 0 24 -22q1 -35 -28 -35q-31 0 -31 22q0 8 2 15l-57 84v137l-7 10h-16zM127 129q0 -57 63 -57h422q64 0 64 57q0 61 -64 61h-422q-63 0 -63 -61zM176 1432 q0 -18 19 -19q20 1 20 19q0 20 -20 20q-18 0 -19 -20zM272 1671v78l11 10h61l12 -10v-78h-12l-10 -10v-137l6 -66q6 0 10 2q23 0 23 -22q0 -35 -29 -35q-31 0 -31 27q0 6 4 14q-4 14 -10 33.5t-10 46.5v137l-8 10h-17zM301 473v166q0 25 19.5 45.5t46.5 20.5q25 0 44 -20.5 t19 -45.5v-166q0 -63 -63 -63q-25 0 -45.5 19.5t-20.5 43.5zM319 1432q0 -20 23 -21q18 1 18 21q0 23 -18 22q-23 0 -23 -22zM367 1671v78l8 10h63l11 -10v-78h-11l-12 -10v-203q14 -2 14 -20q0 -20 -14 -26.5t-23 -6.5q-23 0 -22 25q0 18 8 28v203l-8 10h-14zM391 1432 q0 -18 19 -19q18 1 18 19q0 20 -18 20t-19 -20z" />
<glyph unicode="H" d="M55 23v1308q0 63 66 64h223q55 0 55 -64v-383q0 -25 3.5 -39t16.5 -22t39.5 -11.5t71.5 -3.5q70 0 70 76v383q0 63 66 64q76 0 75 -64v-1308q0 -31 -8 -50.5t-31.5 -31t-63.5 -15.5t-101 -4q-49 0 -80 3t-48.5 14.5t-24.5 31t-7 52.5v208q0 43 -20.5 56.5t-92.5 13.5 q-68 0 -67 -70v-208q0 -92 -72 -93q-70 0 -70 93zM88 1671v78l8 10h64l12 -10v-78h-12l-13 -10v-137l43 -66q4 2 11 2q25 0 24 -22q1 -35 -28 -35q-31 0 -31 22q0 8 2 15l-57 84v137l-7 10h-16zM176 1432q0 -18 19 -19q20 1 20 19q0 20 -20 20q-18 0 -19 -20zM180 1671v78 l10 10h62l12 -10v-78h-12l-10 -10v-137l22 -66q4 2 10 2q25 0 25 -22q0 -35 -29 -35q-31 0 -30 20q0 4 4 17l-41 84v137l-6 10h-17zM250 1432q0 -18 18 -19q21 1 21 19q0 20 -21 20q-18 0 -18 -20zM272 1671v78l11 10h61l12 -10v-78h-12l-10 -10v-137l6 -66q6 0 10 2 q23 0 23 -22q0 -35 -29 -35q-31 0 -31 27q0 6 4 14q-4 14 -10 33.5t-10 46.5v137l-8 10h-17zM319 1432q0 -20 23 -21q18 1 18 21q0 22 -17 22h-1q-23 0 -23 -22zM461 129q0 -57 61 -57h90q64 0 64 57q0 61 -64 61h-90q-61 0 -61 -61z" />
<glyph unicode="I" horiz-adv-x="516" d="M37 154q0 84 28.5 117.5t63.5 47t63.5 20.5t28.5 40v946q0 2 3 14.5t9.5 24.5t17.5 23.5t28 15.5q-20 4 -21 18q0 12 4 19l-59 84v137l-6 10h-17v78l10 10h62l12 -10v-78h-12l-10 -10v-137l41 -66q4 2 12 2q23 0 22 -22q0 -27 -16 -33q8 0 19.5 -9.5t20.5 -21.5t15 -26.5 t6 -22.5v-936q0 -33 25 -51l51 -39q29 -18 35 -111q0 2 -2 2q-2 -12 -2 -30v-92q0 -137 -143 -138h-152q-39 0 -64.5 9.5t-42 34t-23.5 67.5t-7 113zM109 129q0 -57 63 -57h182q62 0 62 57q0 61 -62 61h-182q-63 0 -63 -61zM268 1432q0 -18 19 -19q20 1 20 19q0 20 -20 20 q-18 0 -19 -20z" />
<glyph unicode="J" horiz-adv-x="811" d="M55 68v520q0 31 20.5 56.5t49.5 25.5q72 0 72 -82v-250q0 -39 36 -39h271q37 0 63.5 26.5t26.5 63.5v957q0 23 17.5 42t39.5 23q-6 8 -6 27q0 20 23 20h12l43 66v137l-12 10h-13v78l13 10h61l10 -10v-78h-16l-6 -10v-137l-60 -84q4 -4 5 -10q0 -16 -11 -23q41 -16 41 -82 v-1257q0 -61 -40 -99.5t-101 -38.5h-385q-31 0 -58.5 11.5t-49 30t-34 43t-12.5 53.5zM127 129q0 -57 63 -57h385q64 0 64 57q0 61 -64 61h-385q-63 0 -63 -61zM381 479v166q0 63 65 64q66 0 66 -64v-166q0 -63 -66 -63t-65 63zM403 1671v78l9 10h63l10 -10v-78h-10l-12 -10 v-870q14 -2 14 -21q0 -20 -14 -26.5t-23 -6.5q-20 0 -20 27q0 16 6 27l-6 880h-17zM428 766q0 -18 18 -18q19 0 19 18t-19 18q-18 0 -18 -18zM657 1432q0 -18 13 -19h6q20 1 20 19q0 20 -20 20q-18 0 -19 -20z" />
<glyph unicode="K" horiz-adv-x="851" d="M14 1671v78l9 10h63l10 -10v-78h-10l-12 -10v-137l43 -66q4 2 10 2q23 0 23 -22q0 -35 -27 -35q-31 0 -31 22q0 8 2 15l-57 84v137l-6 10h-17zM55 55v1274q0 66 72 66q70 0 70 -66v-297q0 -69 50 -69h1q51 0 192 178t183 178q55 0 55 -76q0 -20 -18.5 -40.5t-34.5 -35.5 q-131 -164 -131 -176q0 -33 34 -33h142q51 0 88 -49t37 -112v-787q0 -80 -78 -80q-63 0 -64 80v207q0 33 -25.5 58.5t-58.5 25.5h-37q-74 0 -73 -84v-188q0 -98 -195 -99q-90 0 -149.5 34t-59.5 91zM102 1432q0 -18 19 -19q20 1 20 19q0 20 -20 20q-18 0 -19 -20zM106 1671 v78l11 10h61l12 -10v-78h-12l-12 -10v-137l24 -66q4 2 11 2q25 0 24 -22q1 -35 -28 -35q-31 0 -31 22q0 8 2 15l-39 84v137l-6 10h-17zM127 129q0 -57 63 -57h164q62 0 62 57q0 61 -62 61h-164q-63 0 -63 -61zM176 1432q0 -18 19 -19q20 1 20 19q0 20 -20 20q-18 0 -19 -20z M221 1053q0 10 17 20h18l354 451v137l-10 10h-12v78l12 10h62l10 -10v-78h-17l-8 -10v-137l-368 -469q2 -4 2 -11q0 -26 -29 -26h-2q-29 0 -29 35zM233 1049q0 -18 19 -19q18 1 18 19t-18 18t-19 -18z" />
<glyph unicode="L" horiz-adv-x="673" d="M14 1671v78l9 10h63l10 -10v-78h-10l-12 -10v-137l43 -66q4 2 10 2q23 0 23 -22q0 -35 -27 -35q-31 0 -31 22q0 8 2 15l-57 84v137l-6 10h-17zM55 68v1273q0 23 23.5 38.5t46.5 15.5t47.5 -14.5t24.5 -39.5v-981q0 -61 57 -61h278q92 0 93 -92v-170q0 -63 -28 -85 t-114 -22h-286q-61 0 -101.5 37t-40.5 101zM102 1432q0 -18 19 -19q20 1 20 19q0 20 -20 20q-18 0 -19 -20zM106 1671v78l11 10h61l12 -10v-78h-12l-12 -10v-137l24 -66q4 2 11 2q25 0 24 -22q1 -35 -28 -35q-31 0 -31 22q0 8 2 15l-39 84v137l-6 10h-17zM127 129 q0 -57 63 -57h293q64 0 64 57q0 61 -64 61h-293q-63 0 -63 -61zM176 1432q0 -18 19 -19q20 1 20 19q0 20 -20 20q-18 0 -19 -20zM270 463v166q0 63 66 63q63 0 63 -63v-166q0 -66 -63 -66q-27 0 -46.5 20.5t-19.5 45.5z" />
<glyph unicode="M" horiz-adv-x="1269" d="M33 1671v78l8 10h63l13 -10v-78h-13l-12 -10v-137l43 -66q4 2 10 2q23 0 23 -22q0 -35 -27 -35q-31 0 -30 22q0 8 2 15l-58 84v137l-6 10h-16zM63 -2v1253q0 143 209 144h379q96 0 142.5 -38t62.5 -95l211 -836q10 -43 35.5 -70.5t52.5 -50t47.5 -44t20.5 -50.5v-180 q0 -100 -80 -101h-266q-57 0 -58 68v244q0 33 16.5 46t37 21t37 19.5t16.5 42.5q0 18 -13 71l-151 705l-14 29q-23 43 -54.5 64.5t-68.5 21.5t-37 -72v-832q0 -53 55 -53q12 0 23 2h22q63 0 64 -65v-244q0 -68 -60 -68h-243q-41 0 -54.5 13.5t-13.5 54.5v244q0 25 10 40 t23.5 26t24 22.5t10.5 27.5v250q0 33 -3.5 53.5t-17.5 29.5t-47 12.5t-90 3.5q-88 0 -88 -99v-250q0 -23 19.5 -32t42 -17t42 -22.5t19.5 -44.5v-244q0 -45 -11.5 -56.5t-58.5 -11.5h-127q-66 0 -66 68zM121 1432q0 -18 18 -19q21 1 21 19q0 20 -21 20q-18 0 -18 -20z M125 1671v78l10 10h62l12 -10v-78h-12l-13 -10v-137l25 -66q4 2 10 2q25 0 25 -22q0 -35 -29 -35q-31 0 -31 20q0 4 4 17l-41 84v137l-6 10h-16zM127 129q0 -57 63 -57h17q61 0 61 57q0 31 -16 46t-45 15h-17q-63 0 -63 -61zM195 1432q0 -18 18 -19q20 1 20 19q0 20 -20 20 q-18 0 -18 -20zM209 885q0 -63 63 -64q66 0 66 64v295q0 63 -66 63q-63 0 -63 -63v-295zM217 1671v78l10 10h62l12 -10v-78h-12l-10 -10v-137l6 -66q6 0 10 2q23 0 22 -22q1 -35 -28 -35q-33 0 -33 27q0 8 6 14q-4 14 -10 33.5t-10 46.5v137l-9 10h-16zM264 1432 q0 -20 23 -21q18 1 18 21q0 23 -18 22q-23 0 -23 -22zM309 1671v78l10 10h62l12 -10v-78h-12l-10 -10v-203q14 -2 14 -20q0 -20 -14.5 -26.5t-22.5 -6.5q-23 0 -22 25q0 18 8 28v203l-8 10h-17zM336 1432q0 -18 18 -19q19 1 19 19q0 20 -19 20q-18 0 -18 -20zM389 1438 q0 20 21 20h12q2 33 3 83t1 120l-12 10h-11v78l11 10h63l8 -10v-78h-16l-6 -10q2 -20 3 -39.5t1 -36.5q0 -84 -23 -141q2 -2 2 -8q0 -33 -26 -33q-31 0 -31 35zM403 1432q0 -18 19 -19q18 1 18 19q0 20 -18 20t-19 -20zM442 129q0 -57 62 -57h147q62 0 62 57q0 61 -62 61 h-147q-61 0 -62 -61zM483 1458h13l22 66v137l-12 10h-10v78l10 10h63l11 -10v-78h-17l-8 -10v-137l-39 -84q2 -2 2 -10q0 -27 -31 -27q-26 0 -26 33q0 22 22 22zM473 1432q0 -18 19 -19q20 1 20 19q0 20 -20 20q-18 0 -19 -20zM557 1458h12l41 66v137l-10 10h-12v78l12 10 h62l10 -10v-78h-17l-8 -10v-137l-57 -84q2 -2 2 -10q0 -27 -29 -27q-28 0 -28 33q0 22 22 22zM547 1432q0 -18 18 -19q21 1 21 19q0 20 -21 20q-18 0 -18 -20zM610 1438q0 20 21 20h12l62 66v137l-13 10h-12v78l12 10h62l10 -10v-78h-16l-7 -10v-137l-75 -80q4 -4 4 -8 q0 -33 -29 -33q-31 0 -31 35zM625 1432q0 -18 18 -19q19 1 19 19q0 20 -19 20q-18 0 -18 -20zM682 1438q0 20 23 20h12l80 66v137l-13 10h-12v78l12 10h64l8 -10v-78h-16l-6 -10v-137l-97 -84q4 -4 4 -10q0 -27 -30 -27q-29 0 -29 35zM694 1432q0 -18 19 -19q20 1 20 19 q0 20 -20 20q-18 0 -19 -20zM778 1458h13l98 66v137l-12 10h-11v78l11 10h63l8 -10v-78h-16l-6 -10v-137l-113 -84q2 -2 2 -10q0 -27 -31 -27q-26 0 -26 33q0 22 20 22zM768 1432q0 -18 18 -19q21 1 21 19q0 20 -21 20q-18 0 -18 -20zM887 129q0 -57 61 -57h146q63 0 63 57 q0 61 -63 61h-146q-61 0 -61 -61z" />
<glyph unicode="N" horiz-adv-x="927" d="M51 1671v78l8 10h64l12 -10v-78h-12l-12 -10v-137l43 -66q4 2 10 2q25 0 24 -22q1 -35 -28 -35q-31 0 -31 22q0 8 2 15l-57 84v137l-6 10h-17zM59 2v1284q0 106 117 107h133q113 0 121 -107l80 -893q6 -80 125 -80q53 0 73.5 28t20.5 108v862q0 82 72 82q70 0 69 -82 v-1225q0 -158 -116 -158h-238q-43 0 -80 26t-45 64l-74 373q-10 43 -55 43q-63 0 -63 -55v-377q0 -92 -74 -92q-66 0 -66 92zM139 1432q0 -18 19 -19q20 1 20 19q0 20 -20 20q-18 0 -19 -20zM143 1671v78l11 10h61l12 -10v-78h-12l-12 -10v-137l24 -66q4 2 11 2q25 0 24 -22 q0 -35 -29 -35q-31 0 -30 20q0 4 4 17l-41 84v137l-6 10h-17zM213 1432q0 -18 18 -19q21 1 21 19q0 20 -21 20q-18 0 -18 -20zM236 1671v78l10 10h61l12 -10v-78h-12l-10 -10v-137l6 -66q6 0 10 2q23 0 23 -22q0 -35 -29 -35q-33 0 -33 27q0 8 7 14q-4 14 -10.5 33.5 t-10.5 46.5v137l-8 10h-16zM305 1411q19 1 19 21q0 23 -19 22q-22 0 -22 -20q0 -22 22 -23zM442 129q0 -57 62 -57h258q61 0 61 57q0 61 -61 61h-258q-61 0 -62 -61zM776 1438q0 20 23 20h12l41 66v137l-12 10h-11v78l11 10h63l8 -10v-78h-16l-6 -10v-137l-58 -84 q2 -2 3 -10q0 -27 -31 -27q-27 0 -27 35zM786 1432q0 -18 19 -19q20 1 20 19q0 20 -20 20q-18 0 -19 -20z" />
<glyph unicode="O" d="M55 74v1167q0 154 156 154h414q59 0 89.5 -46t30.5 -108v-1149q0 -162 -147 -162h-362q-180 0 -181 144zM88 1671v78l8 10h64l12 -10v-78h-12l-13 -10v-137l43 -66q4 2 11 2q25 0 24 -22q1 -35 -28 -35q-31 0 -31 22q0 8 2 15l-57 84v137l-7 10h-16zM145 129 q0 -57 64 -57h385q63 0 63 57q0 61 -63 61h-385q-63 0 -64 -61zM176 1432q0 -18 19 -19q20 1 20 19q0 20 -20 20q-18 0 -19 -20zM197 428q0 -129 92 -129h203q68 0 90 29.5t22 99.5v709q0 125 -112 125h-203q-92 0 -92 -125v-709zM305 582v131q0 63 47 63h101q57 0 57 -63 v-131q0 -68 -57 -68h-101q-47 0 -47 68zM444 1438q0 20 21 20h12q2 33 3 83t1 120l-12 10h-10v78l10 10h63l9 -10v-78h-15l-8 -10q2 -20 3 -39.5t1 -36.5q0 -84 -22 -141q2 -2 2 -8q0 -33 -27 -33q-31 0 -31 35zM459 1432q0 -18 18 -19q19 1 19 19q0 20 -19 20 q-18 0 -18 -20zM516 1438q0 20 23 20h12l22 66v137l-10 10h-12v78l12 10h62l10 -10v-78h-17l-8 -10v-137l-39 -84q2 -2 2 -10q0 -27 -28 -27q-29 0 -29 35zM528 1432q0 -18 19 -19q20 1 20 19q0 20 -20 20q-18 0 -19 -20zM612 1458h13l41 66v137l-11 10h-12v78l12 10h62 l10 -10v-78h-16l-6 -10v-137l-60 -84q2 -2 2 -10q0 -27 -29 -27q-28 0 -28 33q0 22 22 22zM602 1432q0 -18 19 -19q20 1 20 19q0 20 -20 20q-18 0 -19 -20z" />
<glyph unicode="P" horiz-adv-x="831" d="M55 0v1294q0 100 125 101h486q123 0 122 -172v-373q0 -92 -79 -92h-275q-68 0 -67 -62v-643q0 -123 -131 -123q-180 0 -181 70zM127 129q0 -57 63 -57h35q62 0 62 57q0 61 -62 61h-35q-63 0 -63 -61zM160 997q0 -118 106 -118h2h60q59 0 78.5 15t19.5 56v205 q0 31 -5 51.5t-21.5 32.5t-47 17.5t-84.5 5.5q-109 0 -108 -107v-158zM180 1671v78l10 10h62l12 -10v-78h-12l-10 -10v-137l22 -66q4 2 10 2q25 0 25 -22q0 -35 -29 -35q-31 0 -30 20q0 4 4 17l-41 84v137l-6 10h-17zM250 1432q0 -18 18 -19q21 1 21 19q0 20 -21 20 q-18 0 -18 -20zM272 1671v78l11 10h61l12 -10v-78h-12l-10 -10v-137l6 -66q6 0 10 2q23 0 23 -22q0 -35 -29 -35q-31 0 -31 27q0 6 4 14q-4 14 -10 33.5t-10 46.5v137l-8 10h-17zM319 1432q0 -20 23 -21q18 1 18 21q0 23 -18 22q-23 0 -23 -22zM367 1671v78l8 10h63l11 -10 v-78h-11l-12 -10v-203q14 -2 14 -20q0 -20 -14 -26.5t-23 -6.5q-23 0 -22 25q0 18 8 28v203l-8 10h-14zM391 1432q0 -18 19 -19q18 1 18 19q0 20 -18 20t-19 -20zM449 -10v168q0 61 65 61q66 0 66 -61v-168q0 -63 -66 -64q-27 0 -46 19.5t-19 44.5zM516 1438q0 20 23 20h12 l22 66v137l-10 10h-12v78l12 10h62l10 -10v-78h-17l-8 -10v-137l-39 -84q2 -2 2 -10q0 -27 -28 -27q-29 0 -29 35zM528 1432q0 -18 19 -19q20 1 20 19q0 20 -20 20q-18 0 -19 -20zM612 1458h13l41 66v137l-11 10h-12v78l12 10h62l10 -10v-78h-16l-6 -10v-137l-60 -84 q2 -2 2 -10q0 -27 -29 -27q-28 0 -28 33q0 22 22 22zM602 1432q0 -18 19 -19q20 1 20 19q0 20 -20 20q-18 0 -19 -20z" />
<glyph unicode="Q" horiz-adv-x="874" d="M55 74v1220q0 57 19.5 79t79.5 22h434q63 0 104 -44t41 -106v-887q0 -59 51 -59h21q10 2 20 2q51 0 52 -63v-222q0 -34 -49 -34h-3h-90q-12 0 -33.5 -8.5t-45 -17.5t-47 -17.5t-42.5 -8.5h-393q-51 0 -85 45t-34 99zM88 1671v78l8 10h64l12 -10v-78h-12l-13 -10v-137 l43 -66q4 2 11 2q25 0 24 -22q1 -35 -28 -35q-31 0 -31 22q0 8 2 15l-57 84v137l-7 10h-16zM127 129q0 -57 63 -57h572q61 0 61 57q0 61 -61 61h-572q-63 0 -63 -61zM176 1432q0 -18 19 -19q20 1 20 19q0 20 -20 20q-18 0 -19 -20zM180 1671v78l10 10h62l12 -10v-78h-12 l-10 -10v-137l22 -66q4 2 10 2q25 0 25 -22q0 -35 -29 -35q-31 0 -30 20q0 4 4 17l-41 84v137l-6 10h-17zM250 1432q0 -18 18 -19q21 1 21 19q0 20 -21 20q-18 0 -18 -20zM334 381q0 -76 78 -76h41q45 0 51 49v80q0 31 45 31q53 0 61 10t8 51v637q0 37 -5 59.5t-18 35 t-38 15.5t-61 3h-76q-86 0 -86 -125v-770zM367 1671v78l8 10h63l11 -10v-78h-11l-12 -10v-203q14 -2 14 -20q0 -20 -14 -26.5t-23 -6.5q-23 0 -22 25q0 18 8 28v203l-8 10h-14zM391 1432q0 -18 19 -19q18 1 18 19q0 20 -18 20t-19 -20zM430 967v168q0 25 19.5 43t46.5 18 q63 0 63 -61v-168q0 -61 -63 -62q-66 0 -66 62zM444 1438q0 20 21 20h12q2 33 3 83t1 120l-12 10h-10v78l10 10h63l9 -10v-78h-15l-8 -10q2 -20 3 -39.5t1 -36.5q0 -84 -22 -141q2 -2 2 -8q0 -33 -27 -33q-31 0 -31 35zM459 1432q0 -18 18 -19q19 1 19 19q0 20 -19 20 q-18 0 -18 -20zM516 1438q0 20 23 20h12l22 66v137l-10 10h-12v78l12 10h62l10 -10v-78h-17l-8 -10v-137l-39 -84q2 -2 2 -10q0 -27 -28 -27q-29 0 -29 35zM528 1432q0 -18 19 -19q20 1 20 19q0 20 -20 20q-18 0 -19 -20zM612 1458h13l41 66v137l-11 10h-12v78l12 10h62 l10 -10v-78h-16l-6 -10v-137l-60 -84q2 -2 2 -10q0 -27 -29 -27q-28 0 -28 33q0 22 22 22zM602 1432q0 -18 19 -19q20 1 20 19q0 20 -20 20q-18 0 -19 -20z" />
<glyph unicode="R" horiz-adv-x="837" d="M33 1671v78l8 10h63l13 -10v-78h-13l-12 -10v-137l43 -66q4 2 10 2q23 0 23 -22q0 -35 -27 -35q-31 0 -30 22q0 8 2 15l-58 84v137l-6 10h-16zM55 18v1270q0 106 123 107h336q139 0 139 -133v-269q0 -29 95 -123q23 -23 33 -46t10 -40v-766q0 -88 -72 -88q-68 0 -68 88 v732q0 63 -125 63q-123 0 -123 -63v-732q0 -88 -188 -88q-160 0 -160 88zM121 1432q0 -18 18 -19q21 1 21 19q0 20 -21 20q-18 0 -18 -20zM125 1671v78l10 10h62l12 -10v-78h-12l-13 -10v-137l25 -66q4 2 10 2q25 0 25 -22q0 -35 -29 -35q-31 0 -31 20q0 4 4 17l-41 84v137 l-6 10h-16zM127 129q0 -57 63 -57h91q61 0 61 57q0 61 -61 61h-91q-63 0 -63 -61zM141 1014q0 -84 78 -84h35q86 0 86 84v172q0 76 -86 76h-27q-86 0 -86 -76v-172zM195 1432q0 -18 18 -19q20 1 20 19q0 20 -20 20q-18 0 -18 -20zM217 1671v78l10 10h62l12 -10v-78h-12 l-10 -10v-137l6 -66q6 0 10 2q23 0 22 -22q1 -35 -28 -35q-33 0 -33 27q0 8 6 14q-4 14 -10 33.5t-10 46.5v137l-9 10h-16zM264 1432q0 -20 23 -21q18 1 18 21q0 23 -18 22q-23 0 -23 -22zM389 1438q0 20 21 20h12q2 33 3 83t1 120l-12 10h-11v78l11 10h63l8 -10v-78h-16 l-6 -10q2 -20 3 -39.5t1 -36.5q0 -84 -23 -141q2 -2 2 -8q0 -33 -26 -33q-31 0 -31 35zM403 1432q0 -18 19 -19q18 1 18 19q0 20 -18 20t-19 -20zM461 6v168q0 61 65 62q63 0 64 -62v-168q0 -61 -64 -61q-66 0 -65 61zM557 1458h12l41 66v137l-10 10h-12v78l12 10h62l10 -10 v-78h-17l-8 -10v-137l-57 -84q2 -2 2 -10q0 -27 -29 -27q-28 0 -28 33q0 22 22 22zM547 1432q0 -18 18 -19q21 1 21 19q0 20 -21 20q-18 0 -18 -20z" />
<glyph unicode="S" horiz-adv-x="815" d="M37 -20v258q0 57 67 63l134 12q70 18 69 99v260q0 80 -24.5 114.5t-94.5 34.5h-22q-66 0 -88.5 29t-22.5 96v318q0 131 127 131h146q84 0 84 -70q0 -10 -2 -21.5t-14.5 -20.5t-38 -15t-74.5 -6q-29 0 -45.5 -6.5t-25.5 -26t-12 -58t-3 -104.5q0 -70 26.5 -91.5 t95.5 -21.5h304q145 0 145 -131v-714q0 -57 -7 -92t-25.5 -54.5t-51.5 -26t-82 -6.5h-498q-37 0 -67 50zM70 1671v78l8 10h63l13 -10v-78h-13l-12 -10v-137l43 -66q4 2 10 2q25 0 25 -22q0 -35 -29 -35q-31 0 -31 22q0 8 3 15l-58 84v137l-6 10h-16zM127 129q0 -57 63 -57 h404q63 0 63 57q0 61 -63 61h-404q-63 0 -63 -61zM158 1432q0 -18 18 -19q21 1 21 19q0 20 -21 20q-18 0 -18 -20zM162 1671v78l10 10h61l13 -10v-78h-13l-12 -10v-137l25 -66q4 2 10 2q25 0 25 -22q0 -35 -29 -35q-31 0 -31 20q0 4 4 17l-41 84v137l-6 10h-16zM231 1432 q0 -18 19 -19q20 1 20 19q0 20 -20 20q-18 0 -19 -20zM254 1671v78l10 10h62l12 -10v-78h-12l-11 -10v-137l7 -66q6 0 10 2q23 0 22 -22q1 -35 -28 -35q-31 0 -31 27q0 6 4 14q-4 14 -10 33.5t-10 46.5v137l-9 10h-16zM301 1432q0 -20 23 -21q18 1 18 21q0 23 -18 22 q-23 0 -23 -22zM621 1167v166q0 61 63 62q66 0 66 -62v-166q0 -65 -64 -65h-2q-25 0 -44 19.5t-19 45.5zM686 1458h12l43 66v137l-12 10h-12v78l12 10h62l10 -10v-78h-17l-6 -10v-137l-59 -84q4 -4 4 -10q0 -27 -31 -27q-28 0 -28 33q0 22 22 22zM676 1432q0 -18 18 -19 q21 1 21 19q0 20 -21 20q-18 0 -18 -20z" />
<glyph unicode="T" horiz-adv-x="770" d="M20 1233q0 162 105 162h444q156 0 156 -156q0 -57 -26.5 -97t-67.5 -40h-103q-76 0 -75 -72v-1012q0 -86 -68 -86q-72 0 -72 86v1012q0 72 -65 72h-144q-84 0 -84 131zM70 1671v78l8 10h63l13 -10v-78h-13l-12 -10v-137l43 -66q4 2 10 2q25 0 25 -22q0 -35 -29 -35 q-31 0 -31 22q0 8 3 15l-58 84v137l-6 10h-16zM158 1432q0 -18 18 -19q21 1 21 19q0 20 -21 20q-18 0 -18 -20zM254 1671v78l10 10h62l12 -10v-78h-12l-11 -10v-137l7 -66q6 0 10 2q23 0 22 -22q1 -35 -28 -35q-31 0 -31 27q0 6 4 14q-4 14 -10 33.5t-10 46.5v137l-9 10h-16 zM301 1432q0 -20 23 -21q18 1 18 21q0 23 -18 22q-23 0 -23 -22zM348 1671v78l8 10h64l10 -10v-78h-10l-12 -10v-203q14 -2 14 -20q0 -20 -14.5 -26.5t-22.5 -6.5q-23 0 -23 25q0 18 9 28v203l-9 10h-14zM373 1432q0 -18 18 -19q19 1 19 19q0 20 -19 20q-18 0 -18 -20z M520 1458h12l23 66v137l-10 10h-13v78l13 10h61l10 -10v-78h-16l-8 -10v-137l-39 -84q2 -2 2 -10q0 -27 -29 -27q-28 0 -28 33q0 22 22 22zM510 1432q0 -18 18 -19q21 1 21 19q0 20 -21 20q-18 0 -18 -20zM541 758v166q0 25 20.5 43t44.5 18q66 0 66 -61v-166q0 -63 -66 -64 q-66 0 -65 64zM571 1438q0 20 23 20h12l41 66v137l-10 10h-12v78l12 10h61l11 -10v-78h-17l-8 -10v-137l-57 -84q2 -2 2 -10q0 -27 -29 -27t-29 35zM584 1432q0 -18 18 -19q21 1 21 19q0 20 -21 20q-18 0 -18 -20z" />
<glyph unicode="U" horiz-adv-x="811" d="M14 1671v78l9 10h63l10 -10v-78h-10l-12 -10v-137l43 -66q4 2 10 2q23 0 23 -22q0 -20 -9 -29q20 -6 38 -24.5t18 -38.5v-975q0 -72 88 -72h247q43 0 58.5 17.5t15.5 82.5v916q0 92 74 92h7t9 -2q-12 8 -12 33q0 20 21 20h12q6 63 6 203l-12 10h-13v78l13 10h61l10 -10 v-78h-16l-6 -10q2 -18 2 -34.5v-33.5q0 -94 -21 -149q2 -2 2 -8q0 -33 -28 -33h-4q37 -12 37 -57v-1268q0 -80 -34 -114t-116 -34h-389q-154 0 -154 148v1237q0 78 45 92q-10 4 -10 16q0 4 4 17l-57 84v137l-6 10h-17zM102 1432q0 -18 19 -19q20 1 20 19q0 20 -20 20 q-18 0 -19 -20zM106 1671v78l11 10h61l12 -10v-78h-12l-12 -10v-137l24 -66q4 2 11 2q25 0 24 -22q1 -35 -28 -35q-31 0 -31 22q0 8 2 15l-39 84v137l-6 10h-17zM127 129q0 -57 63 -57h422q64 0 64 57q0 61 -64 61h-422q-63 0 -63 -61zM176 1432q0 -18 19 -19q20 1 20 19 q0 20 -20 20q-18 0 -19 -20zM422 444v166q0 66 63 66q66 0 66 -66v-166q0 -63 -66 -63q-25 0 -44 19.5t-19 43.5zM606 1671v78l10 10h62l12 -10v-78h-12l-12 -10v-203q14 -2 14 -20q0 -20 -13.5 -26.5t-23.5 -6.5q-20 0 -20 25q0 16 6 28v203l-6 10h-17zM631 1432 q0 -18 20 -19q19 1 19 19q0 20 -19 20q-20 0 -20 -20zM698 1432q0 -18 19 -19q18 1 18 19q0 20 -18 20t-19 -20z" />
<glyph unicode="V" horiz-adv-x="950" d="M14 1671v78l9 10h63l10 -10v-78h-10l-12 -10v-137l43 -66q4 2 10 2q23 0 23 -22q0 -35 -27 -35q-31 0 -31 22q0 8 2 15l-57 84v137l-6 10h-17zM29 1171v125q0 98 96 99h199q35 0 68.5 -24.5t33.5 -59.5v-172q0 -35 -16.5 -46.5t-36 -19.5t-35.5 -19.5t-16 -43.5 q2 -14 6 -30.5t8 -39.5l113 -543q16 -53 60 -81.5t97 -28.5q66 0 66 71v295q0 51 -33 52h-94q-61 0 -62 63v543q0 29 26 56.5t56 27.5h226q41 0 67.5 -30t26.5 -69v-481q0 -12 -11.5 -38.5t-25.5 -56.5t-25.5 -54.5t-11.5 -30.5v-594q0 -41 -30.5 -76t-71.5 -35h-93 q-86 0 -150.5 35t-76.5 101l-207 890q-10 39 -43 80l-69 56q-41 31 -41 79zM92 12v166q0 63 66 64q63 0 63 -64v-166q0 -63 -63 -63q-27 0 -46.5 18.5t-19.5 44.5zM102 1432q0 -18 19 -19q20 1 20 19q0 20 -20 20q-18 0 -19 -20zM106 1671v78l11 10h61l12 -10v-78h-12 l-12 -10v-137l24 -66q4 2 11 2q25 0 24 -22q1 -35 -28 -35q-31 0 -31 22q0 8 2 15l-39 84v137l-6 10h-17zM176 1432q0 -18 19 -19q20 1 20 19q0 20 -20 20q-18 0 -19 -20zM199 1671v78l10 10h61l13 -10v-78h-13l-10 -10v-137l6 -66q6 0 8 2q25 0 25 -22q0 -35 -29 -35 q-33 0 -32 27q0 8 6 14q-4 14 -10.5 33.5t-12.5 46.5v137l-6 10h-16zM268 1411q19 1 19 21q0 23 -19 22q-22 0 -22 -20q0 -22 22 -23zM461 129q0 -57 61 -57h185q61 0 61 57q0 61 -61 61h-185q-61 0 -61 -61zM514 1671v78l8 10h64l12 -10v-78h-12l-13 -10v-203q14 -2 15 -20 q0 -20 -14.5 -26.5t-22.5 -6.5q-20 0 -21 25q0 16 7 28v203l-7 10h-16zM539 1432q0 -18 18 -19q18 1 18 19q0 20 -18 20t-18 -20zM686 1458h12l25 66v137l-12 10h-13v78l13 10h61l10 -10v-78h-16l-6 -10v-137l-41 -84q4 -4 4 -10q0 -27 -31 -27q-28 0 -28 33q0 22 22 22z M676 1432q0 -18 18 -19q21 1 21 19q0 20 -21 20q-18 0 -18 -20zM737 1438q0 20 23 20h12l43 66v137l-12 10h-12v78l12 10h63l8 -10v-78h-16l-6 -10v-137l-57 -84q2 -2 2 -10q0 -27 -31 -27q-29 0 -29 35zM750 1432q0 -18 18 -19q20 1 20 19q0 20 -20 20q-18 0 -18 -20z" />
<glyph unicode="W" horiz-adv-x="1243" d="M51 1671v78l8 10h64l12 -10v-78h-12l-12 -10v-137l43 -66q4 2 10 2q25 0 24 -22q1 -35 -28 -35q-31 0 -31 22q0 8 2 15l-57 84v137l-6 10h-17zM55 74v1206q0 45 25.5 80t62.5 35h107q70 0 69 -66v-190q0 -31 -19 -44.5t-41.5 -22.5t-42 -18.5t-19.5 -31.5v-619 q0 -33 5 -52t21.5 -29.5t48 -13.5t84.5 -3q84 0 84 98v619q0 16 -10 28.5t-22.5 24.5t-22.5 26.5t-10 37.5v190q0 31 9 48.5t56 17.5h244q61 0 61 -66v-190q0 -66 -63 -66q-12 0 -23 2h-22q-55 0 -55 -53v-440q0 -29 17 -55.5t44 -26.5q133 0 162 110l84 330q12 45 12 70 q0 31 -17.5 43t-38 20t-37.5 20.5t-17 45.5v190q0 66 61 66h246q98 0 98 -99v-125q0 -25 -22.5 -51t-50 -54t-52 -55.5t-29.5 -54.5l-192 -890q-29 -135 -207 -136h-377q-211 0 -211 144zM139 1432q0 -18 19 -19q20 1 20 19q0 20 -20 20q-18 0 -19 -20zM143 1671v78l11 10 h61l12 -10v-78h-12l-12 -10v-137l24 -66q4 2 11 2q25 0 24 -22q0 -35 -29 -35q-31 0 -30 20q0 4 4 17l-41 84v137l-6 10h-17zM145 129q0 -57 64 -57h498q61 0 61 57q0 61 -61 61h-498q-63 0 -64 -61zM213 1432q0 -18 18 -19q21 1 21 19q0 20 -21 20q-18 0 -18 -20zM236 1671 v78l10 10h61l12 -10v-78h-12l-10 -10v-137l6 -66q6 0 10 2q23 0 23 -22q0 -35 -29 -35q-33 0 -33 27q0 8 7 14q-4 14 -10.5 33.5t-10.5 46.5v137l-8 10h-16zM305 1411q19 1 19 21q0 23 -19 22q-22 0 -22 -20q0 -22 22 -23zM328 1671v78l10 10h61l13 -10v-78h-13l-10 -10 v-203q14 -2 14 -20q0 -20 -14 -26.5t-22 -6.5q-23 0 -23 25q0 18 8 28v203l-8 10h-16zM354 1432q0 -18 19 -19q18 1 18 19q0 20 -18 20t-19 -20zM428 1458h12q2 33 3 83t1 120l-12 10h-10v78l10 10h64l8 -10v-78h-17l-6 -10q2 -20 3 -39.5t1 -36.5q0 -84 -22 -141q2 -2 2 -8 q0 -33 -27 -33q-30 0 -30 33q0 22 20 22zM422 1432q0 -18 18 -19q19 1 19 19q0 20 -19 20q-18 0 -18 -20zM514 1671v78l8 10h64l12 -10v-78h-12l-13 -10v-137l25 -66q4 2 10 2q23 0 23 -22q0 -35 -27 -35q-31 0 -31 22q0 8 2 15l-38 84v137l-7 10h-16zM584 1432 q0 -18 18 -19q21 1 21 19q0 20 -21 20q-18 0 -18 -20zM606 1671v78l10 10h62l12 -10v-78h-12l-12 -10v-137l8 -66q6 0 8 2q25 0 25 -22q0 -35 -29 -35q-33 0 -33 27q0 8 6 14q-4 14 -10 33.5t-12 46.5v137l-6 10h-17zM653 1432q0 -20 23 -21q18 1 18 21q0 23 -18 22 q-23 0 -23 -22zM811 1671v78l8 10h64l10 -10v-78h-10l-13 -10v-203q14 -2 15 -20q0 -20 -14.5 -26.5t-22.5 -6.5q-23 0 -23 25q0 18 9 28v203l-9 10h-14zM836 1432q0 -18 18 -19q18 1 18 19q0 20 -18 20t-18 -20zM889 1438q0 20 20 20h13q2 33 3 83t1 120l-13 10h-10v78 l10 10h64l8 -10v-78h-16l-6 -10q2 -20 3 -39.5t1 -36.5q0 -84 -23 -141q2 -2 2 -8q0 -33 -26 -33q-31 0 -31 35zM903 1432q0 -18 19 -19q18 1 18 19q0 20 -18 20t-19 -20zM983 1458h12l23 66v137l-10 10h-13v78l13 10h61l10 -10v-78h-16l-8 -10v-137l-39 -84q2 -2 2 -10 q0 -27 -29 -27q-28 0 -28 33q0 22 22 22zM973 1432q0 -18 18 -19q21 1 21 19q0 20 -21 20q-18 0 -18 -20zM977 6v168q0 61 65 62q63 0 64 -62v-168q0 -61 -64 -61q-66 0 -65 61zM1034 1438q0 20 23 20h12l41 66v137l-10 10h-13v78l13 10h61l10 -10v-78h-16l-8 -10v-137 l-57 -84q2 -2 2 -10q0 -27 -29 -27t-29 35zM1047 1432q0 -18 18 -19q20 1 20 19q0 20 -20 20q-18 0 -18 -20z" />
<glyph unicode="X" horiz-adv-x="788" d="M2 -25q0 -2 27 72q139 406 209.5 615.5t74.5 226.5q-2 2 -9 35.5t-24.5 73.5t-45 72t-70.5 32q-8 0 -19 -2h-20q-47 0 -65.5 28.5t-18.5 65.5v131q0 47 12.5 58.5t57.5 11.5h82q20 0 32.5 -2t22.5 -11.5t20.5 -29t22.5 -54.5l76 -196q18 -47 26 -47q27 0 49 47l109 250 q27 61 80 61h2q-6 8 -6 25q0 20 22 20h13l43 66v137l-13 10h-12v78l12 10h62l10 -10v-78h-16l-7 -10v-137l-59 -84q2 -2 2 -10q0 -18 -14 -25q28 -12 28 -52q0 -15 -116 -251q-117 -238 -115 -246l172 -537q53 -4 82 -8t42 -12t15 -23.5t2 -42.5v-233q0 -70 -73 -70h-86 q-43 0 -68 31t-39 94l-121 568q-10 43 -24 43q-12 0 -31 -58l-188 -608q-25 -74 -84 -74q-63 0 -64 49zM14 1671v78l9 10h63l10 -10v-78h-10l-12 -10v-137l43 -66q4 2 10 2q23 0 23 -22q0 -35 -27 -35q-31 0 -31 22q0 8 2 15l-57 84v137l-6 10h-17zM47 700v168q0 61 64 62 q66 0 65 -62v-168q-4 -61 -65 -61q-63 0 -64 61zM102 1432q0 -18 19 -19q20 1 20 19q0 20 -20 20q-18 0 -19 -20zM106 1671v78l11 10h61l12 -10v-78h-12l-12 -10v-137l24 -66q4 2 11 2q25 0 24 -22q1 -35 -28 -35q-31 0 -31 22q0 8 2 15l-39 84v137l-6 10h-17zM176 1432 q0 -18 19 -19q20 1 20 19q0 20 -20 20q-18 0 -19 -20zM571 129q0 -57 64 -57h35q61 0 61 57q0 61 -61 61h-35q-63 0 -64 -61zM639 1432q0 -18 18 -19q21 1 21 19q0 20 -21 20q-18 0 -18 -20z" />
<glyph unicode="Y" horiz-adv-x="868" d="M14 1671v78l9 10h63l10 -10v-78h-10l-12 -10v-137l43 -66q4 2 10 2q23 0 23 -22q0 -35 -27 -35q-31 0 -31 22q0 8 2 15l-57 84v137l-6 10h-17zM55 625v690q0 80 70 80q72 0 72 -49v-699q0 -29 45 -49q186 -92 192 -92q16 0 17 24v752q0 70 49 91.5t123 21.5 q86 0 135 -22.5t49 -90.5v-829q0 -152 -170 -152q-18 0 -19 -33v-268q0 -70 -69 -70q-72 0 -72 70v313q0 31 -63 58l-289 123q-70 31 -70 131zM82 18v166q0 63 63 64q66 0 66 -64v-166q0 -65 -64 -65h-2q-25 0 -44 20.5t-19 44.5zM102 1432q0 -18 19 -19q20 1 20 19 q0 20 -20 20q-18 0 -19 -20zM106 1671v78l11 10h61l12 -10v-78h-12l-12 -10v-137l24 -66q4 2 11 2q25 0 24 -22q1 -35 -28 -35q-31 0 -31 22q0 8 2 15l-39 84v137l-6 10h-17zM176 1432q0 -18 19 -19q20 1 20 19q0 20 -20 20q-18 0 -19 -20zM272 1671v78l11 10h61l12 -10v-78 h-12l-10 -10v-981q14 -2 14 -21q0 -20 -14.5 -26t-24.5 -6q-20 0 -20 26q0 18 8 27l-8 991h-17zM299 655q0 -18 18 -18q19 0 19 18t-19 19q-18 0 -18 -19zM555 1438q0 20 20 20h13q2 33 3 83t1 120l-10 10h-13v78l13 10h61l10 -10v-78h-16l-8 -10q2 -20 3 -39.5t1 -36.5 q0 -84 -23 -141q2 -2 2 -8q0 -33 -26 -33q-31 0 -31 35zM569 1432q0 -18 19 -19q18 1 18 19q0 20 -18 20t-19 -20zM649 1458h13l22 66v137l-10 10h-12v78l12 10h61l10 -10v-78h-16l-6 -10v-137l-41 -84q2 -2 2 -10q0 -27 -29 -27q-28 0 -28 33q0 22 22 22zM639 1432 q0 -18 18 -19q21 1 21 19q0 20 -21 20q-18 0 -18 -20zM700 1438q0 20 23 20h12l43 66v137l-12 10h-12v78l12 10h63l9 -10v-78h-17l-6 -10v-137l-57 -84q2 -2 2 -10q0 -27 -31 -27q-29 0 -29 35zM713 1432q0 -18 18 -19q21 1 21 19q0 20 -21 20q-18 0 -18 -20z" />
<glyph unicode="Z" horiz-adv-x="802" d="M33 14q0 25 16 58l29 51q461 1094 461 1102q0 37 -70 37h-297q-109 0 -109 67q0 66 109 66h457q100 0 112 -72l-397 -979q0 -37 31 -37h260q43 0 66.5 -12t36 -34.5t14.5 -55.5t2 -76q0 -199 -95 -199h-567q-23 0 -41 26t-18 58zM76 889v166q0 65 63 65h2q66 0 66 -65 v-166q0 -63 -66 -64q-25 0 -45 18.5t-20 45.5zM88 1671v78l8 10h64l12 -10v-78h-12l-13 -10v-137l43 -66q4 2 11 2q25 0 24 -22q1 -35 -28 -35q-31 0 -31 22q0 8 2 15l-57 84v137l-7 10h-16zM176 1432q0 -18 19 -19q20 1 20 19q0 20 -20 20q-18 0 -19 -20zM180 1671v78 l10 10h62l12 -10v-78h-12l-10 -10v-137l22 -66q4 2 10 2q25 0 25 -22q0 -35 -29 -35q-31 0 -30 20q0 4 4 17l-41 84v137l-6 10h-17zM201 129q0 -57 63 -57h367q63 0 63 57q0 61 -63 61h-367q-63 0 -63 -61zM250 1432q0 -18 18 -19q21 1 21 19q0 20 -21 20q-18 0 -18 -20z M367 1671v78l8 10h63l11 -10v-78h-11l-12 -10v-203q14 -2 14 -20q0 -20 -14 -26.5t-23 -6.5q-23 0 -22 25q0 18 8 28v203l-8 10h-14zM391 1432q0 -18 19 -19q18 1 18 19q0 20 -18 20t-19 -20zM444 1438q0 20 21 20h12q2 33 3 83t1 120l-12 10h-10v78l10 10h63l9 -10v-78h-15 l-8 -10q2 -20 3 -39.5t1 -36.5q0 -84 -22 -141q2 -2 2 -8q0 -33 -27 -33q-31 0 -31 35zM459 1432q0 -18 18 -19q19 1 19 19q0 20 -19 20q-18 0 -18 -20zM612 1458h13l41 66v137l-11 10h-12v78l12 10h62l10 -10v-78h-16l-6 -10v-137l-60 -84q2 -2 2 -10q0 -27 -29 -27 q-28 0 -28 33q0 22 22 22zM602 1432q0 -18 19 -19q20 1 20 19q0 20 -20 20q-18 0 -19 -20z" />
<glyph unicode="[" horiz-adv-x="473" d="M33 1671v78l8 10h63l13 -10v-78h-13l-12 -10v-137l43 -66q4 2 10 2q23 0 23 -22q0 -35 -27 -35q-31 0 -30 22q0 8 2 15l-58 84v137l-6 10h-16zM53 23v1308q0 63 64 64h256q18 0 36.5 -14.5t18.5 -30.5q0 -47 -53 -47h-115q-51 0 -51 -62v-860q0 -82 86 -82q12 0 36.5 2 t37.5 2q59 0 59 -49v-291q0 -33 -43 -33h-209q-51 0 -87 33t-36 60zM121 1432q0 -18 18 -19q21 1 21 19q0 20 -21 20q-18 0 -18 -20zM125 1671v78l10 10h62l12 -10v-78h-12l-13 -10v-137l25 -66q4 2 10 2q25 0 25 -22q0 -35 -29 -35q-31 0 -31 20q0 4 4 17l-41 84v137l-6 10 h-16zM127 129q0 -57 63 -57h109q61 0 61 57q0 61 -61 61h-109q-63 0 -63 -61zM195 1432q0 -18 18 -19q20 1 20 19q0 20 -20 20q-18 0 -18 -20zM217 1671v78l10 10h62l12 -10v-78h-12l-10 -10v-137l6 -66q6 0 10 2q23 0 22 -22q1 -35 -28 -35q-33 0 -33 27q0 8 6 14 q-4 14 -10 33.5t-10 46.5v137l-9 10h-16zM264 1432q0 -20 23 -21q18 1 18 21q0 23 -18 22q-23 0 -23 -22zM309 1671v78l10 10h62l12 -10v-78h-12l-10 -10v-203q14 -2 14 -20q0 -20 -14.5 -26.5t-22.5 -6.5q-23 0 -22 25q0 18 8 28v203l-8 10h-17zM336 1432q0 -18 18 -19 q19 1 19 19q0 20 -19 20q-18 0 -18 -20z" />
<glyph unicode="\" horiz-adv-x="585" d="M10 -20l13 49l438 1323q8 27 19.5 39t35.5 12q43 0 43 -25l-4 -26l-461 -1383q-8 -33 -45 -32q-39 0 -39 43zM367 1671v78l8 10h63l11 -10v-78h-11l-12 -10v-137l41 -66q6 2 12 2q23 0 23 -22q0 -35 -27 -35q-33 0 -33 20q0 4 4 17l-57 84v137l-8 10h-14zM453 1432 q0 -18 20 -19q21 1 21 19q0 20 -21 20q-20 0 -20 -20zM459 1671v78l8 10h63l11 -10v-78h-11l-12 -10v-137q6 -16 12.5 -32.5t10.5 -33.5q6 2 12 2q23 0 22 -22q1 -35 -26 -35q-33 0 -33 20q0 4 4 17l-39 84v137l-6 10h-16zM528 1432q0 -18 19 -19q20 1 20 19q0 20 -20 20 q-18 0 -19 -20z" />
<glyph unicode="]" horiz-adv-x="473" d="M14 1671v78l9 10h63l10 -10v-78h-10l-12 -10v-137l43 -66q4 2 10 2q23 0 23 -22q0 -35 -27 -35q-31 0 -31 22q0 8 2 15l-57 84v137l-6 10h-17zM20 -37v291q0 49 62 49q8 0 33.5 -2t38.5 -2q84 0 84 82v860q0 61 -48 62h-116q-53 0 -54 47q0 16 19.5 30.5t36.5 14.5h258 q59 0 59 -64v-1308q0 -18 -13 -35t-32.5 -29t-40 -20.5t-35.5 -8.5h-206q-45 0 -46 33zM72 129q0 -57 63 -57h127q62 0 62 57q0 61 -62 61h-127q-63 0 -63 -61zM102 1432q0 -18 19 -19q20 1 20 19q0 20 -20 20q-18 0 -19 -20zM106 1671v78l11 10h61l12 -10v-78h-12l-12 -10 v-137l24 -66q4 2 11 2q25 0 24 -22q1 -35 -28 -35q-31 0 -31 22q0 8 2 15l-39 84v137l-6 10h-17zM176 1432q0 -18 19 -19q20 1 20 19q0 20 -20 20q-18 0 -19 -20zM199 1671v78l10 10h61l13 -10v-78h-13l-10 -10v-137l6 -66q6 0 8 2q25 0 25 -22q0 -35 -29 -35q-33 0 -32 27 q0 8 6 14q-4 14 -10.5 33.5t-12.5 46.5v137l-6 10h-16zM246 1432q0 -20 22 -21q19 1 19 21q0 23 -19 22q-23 0 -22 -22zM291 1671v78l10 10h61l13 -10v-78h-13l-10 -10v-203q14 -2 15 -20q0 -20 -14.5 -26.5t-24.5 -6.5q-20 0 -21 25q0 18 8 28v203l-8 10h-16zM317 1432 q0 -18 19 -19q18 1 18 19q0 20 -18 20t-19 -20z" />
<glyph unicode="^" horiz-adv-x="366" d="M29 1485l166 168l165 -168h-331z" />
<glyph unicode="_" horiz-adv-x="1019" d="M0 -203h1020v-80h-1020v80z" />
<glyph unicode="`" horiz-adv-x="360" d="M-59 2058h155l129 -225h-88z" />
<glyph unicode="a" horiz-adv-x="925" d="M51 31v1200q0 164 195 164q115 0 164 -76l421 -664q16 -27 21.5 -57.5t9.5 -69.5v-465q0 -86 -23.5 -109.5t-80.5 -23.5h-209q-72 0 -72 86v197q0 86 82 86h45q68 0 68 59v308q0 94 -137 94h-230q-59 0 -59 -76v-326q0 -10 -1 -17t-1 -13q0 -23 23.5 -23t53 -1t53 -18.5 t23.5 -72.5v-207q0 -76 -78 -76h-182q-37 0 -61.5 32t-24.5 69zM88 1671v78l8 10h64l12 -10v-78h-12l-13 -10v-137l43 -66q4 2 11 2q25 0 24 -22q1 -35 -28 -35q-31 0 -31 22q0 8 2 15l-57 84v137l-7 10h-16zM127 129q0 -57 63 -57h72q62 0 62 57q0 61 -62 61h-72 q-63 0 -63 -61zM158 975q0 -61 19.5 -74.5t82.5 -13.5h152q37 0 37 33q0 20 -19 55l-90 172q-57 113 -127 113q-18 0 -36.5 -14.5t-18.5 -33.5v-237zM176 1432q0 -18 19 -19q20 1 20 19q0 20 -20 20q-18 0 -19 -20zM272 1671v78l11 10h61l12 -10v-78h-12l-10 -10v-137l6 -66 q6 0 10 2q23 0 23 -22q0 -35 -29 -35q-31 0 -31 27q0 6 4 14q-4 14 -10 33.5t-10 46.5v137l-8 10h-17zM319 1432q0 -20 23 -21q18 1 18 21q0 23 -18 22q-23 0 -23 -22zM479 1288q0 23 25 23h10l152 213v137l-11 10h-12v78l12 10h62l10 -10v-78h-16l-6 -10v-137l-170 -232 q2 -4 2 -10q0 -29 -31 -29q-27 0 -27 35zM492 1284q0 -18 18 -18q20 0 20 18t-20 19q-18 0 -18 -19zM553 129q0 -57 63 -57h127q62 0 62 57q0 61 -62 61h-127q-63 0 -63 -61zM692 1186v166q0 61 66 61q63 0 63 -61v-166q0 -66 -63 -66q-27 0 -46.5 19.5t-19.5 46.5z" />
<glyph unicode="b" horiz-adv-x="837" d="M55 100v1180q0 115 125 115h338q55 0 99.5 -36t44.5 -89v-295q0 -12 18 -33.5t41.5 -47.5t42 -51.5t18.5 -43.5v-707q0 -162 -129 -162h-454q-143 0 -144 170zM88 1671v78l8 10h64l12 -10v-78h-12l-13 -10v-137l43 -66q4 2 11 2q25 0 24 -22q1 -35 -28 -35q-31 0 -31 22 q0 8 2 15l-57 84v137l-7 10h-16zM145 129q0 -57 64 -57h403q64 0 64 57q2 61 -64 61h-403q-63 0 -64 -61zM176 1432q0 -18 19 -19q20 1 20 19q0 20 -20 20q-18 0 -19 -20zM197 1001q0 -98 86 -98h59q88 0 88 98v168q0 92 -88 93h-61q-84 0 -84 -93v-168zM272 1671v78l11 10 h61l12 -10v-78h-12l-10 -10v-137l6 -66q6 0 10 2q23 0 23 -22q0 -35 -29 -35q-31 0 -31 27q0 6 4 14q-4 14 -10 33.5t-10 46.5v137l-8 10h-17zM319 1432q0 -20 23 -21q18 1 18 21q0 23 -18 22q-23 0 -23 -22zM422 406q0 -100 78 -101h53q47 0 67.5 18.5t20.5 82.5v278 q0 98 -88 98h-55q-76 0 -76 -98v-278zM444 1438q0 20 21 20h12q2 33 3 83t1 120l-12 10h-10v78l10 10h63l9 -10v-78h-15l-8 -10q2 -20 3 -39.5t1 -36.5q0 -84 -22 -141q2 -2 2 -8q0 -33 -27 -33q-31 0 -31 35zM459 1432q0 -18 18 -19q19 1 19 19q0 20 -19 20q-18 0 -18 -20z M612 1458h13l41 66v137l-11 10h-12v78l12 10h62l10 -10v-78h-16l-6 -10v-137l-60 -84q2 -2 2 -10q0 -27 -29 -27q-28 0 -28 33q0 22 22 22zM602 1432q0 -18 19 -19q20 1 20 19q0 20 -20 20q-18 0 -19 -20z" />
<glyph unicode="c" horiz-adv-x="847" d="M55 59v1219q0 47 34 85t83 38h332q149 0 149 -69q0 -64 -53 -64h-354q-18 0 -33.5 -17.5t-15.5 -36.5v-520q0 -63 11 -77.5t46 -14.5h424q100 0 100 -139v-160q0 -16 1 -36.5t1 -47.5v-96q0 -104 -39 -146.5t-131 -42.5h-393q-162 0 -162 125zM88 1671v78l8 10h64l12 -10 v-78h-12l-13 -10v-137l43 -66q4 2 11 2q25 0 24 -22q1 -35 -28 -35q-31 0 -31 22q0 8 2 15l-57 84v137l-7 10h-16zM127 129q0 -57 63 -57h422q64 0 64 57q0 61 -64 61h-422q-63 0 -63 -61zM176 1432q0 -18 19 -19q20 1 20 19q0 20 -20 20q-18 0 -19 -20zM180 1671v78l10 10 h62l12 -10v-78h-12l-10 -10v-137l22 -66q4 2 10 2q25 0 25 -22q0 -35 -29 -35q-31 0 -30 20q0 4 4 17l-41 84v137l-6 10h-17zM250 1432q0 -18 18 -19q21 1 21 19q0 20 -21 20q-18 0 -18 -20zM264 963v165q0 27 19.5 45.5t44.5 18.5q66 0 65 -64v-165q0 -66 -65 -66 q-63 0 -64 66zM272 1671v78l11 10h61l12 -10v-78h-12l-10 -10v-137l6 -66q6 0 10 2q23 0 23 -22q0 -35 -29 -35q-31 0 -31 27q0 6 4 14q-4 14 -10 33.5t-10 46.5v137l-8 10h-17zM319 1432q0 -20 23 -21q18 1 18 21q0 23 -18 22q-23 0 -23 -22zM367 1671v78l8 10h63l11 -10 v-78h-11l-12 -10v-203q14 -2 14 -20q0 -20 -14 -26.5t-23 -6.5q-23 0 -22 25q0 18 8 28v203l-8 10h-14zM391 1432q0 -18 19 -19q18 1 18 19q0 20 -18 20t-19 -20zM444 1438q0 20 21 20h12q2 33 3 83t1 120l-12 10h-10v78l10 10h63l9 -10v-78h-15l-8 -10q2 -20 3 -39.5 t1 -36.5q0 -84 -22 -141q2 -2 2 -8q0 -33 -27 -33q-31 0 -31 35zM459 1432q0 -18 18 -19q19 1 19 19q0 20 -19 20q-18 0 -18 -20zM612 1458h13l41 66v137l-11 10h-12v78l12 10h62l10 -10v-78h-16l-6 -10v-137l-60 -84q2 -2 2 -10q0 -27 -29 -27q-28 0 -28 33q0 22 22 22z M602 1432q0 -18 19 -19q20 1 20 19q0 20 -20 20q-18 0 -19 -20z" />
<glyph unicode="d" horiz-adv-x="876" d="M55 96v1219q0 80 127 80h275q59 0 96 -8.5t60.5 -29t38 -58t28.5 -95.5l149 -639q0 -37 1 -91t1 -106.5t1.5 -93.5t1.5 -49q0 -100 -7.5 -158.5t-31 -89t-66.5 -39t-117 -8.5h-381q-176 0 -176 166zM88 1671v78l8 10h64l12 -10v-78h-12l-13 -10v-137l43 -66q4 2 11 2 q25 0 24 -22q1 -35 -28 -35q-31 0 -31 22q0 8 2 15l-57 84v137l-7 10h-16zM127 129q0 -57 63 -57h480q61 0 61 57q0 61 -61 61h-480q-63 0 -63 -61zM176 1432q0 -18 19 -19q20 1 20 19q0 20 -20 20q-18 0 -19 -20zM180 1671v78l10 10h62l12 -10v-78h-12l-10 -10v-137l22 -66 q4 2 10 2q25 0 25 -22q0 -35 -29 -35q-31 0 -30 20q0 4 4 17l-41 84v137l-6 10h-17zM197 639q0 -63 63 -64h27q80 0 80 -92q0 -66 3 -101.5t15 -53t34.5 -20.5t61.5 -3h107q104 0 104 170q0 41 -12 90l-158 647q-6 25 -27.5 37.5t-64.5 12.5h-141q-92 0 -92 -76v-547z M250 1432q0 -18 18 -19q21 1 21 19q0 20 -21 20q-18 0 -18 -20zM272 1671v78l11 10h61l12 -10v-78h-12l-10 -10v-137l6 -66q6 0 10 2q23 0 23 -22q0 -35 -29 -35q-31 0 -31 27q0 6 4 14q-4 14 -10 33.5t-10 46.5v137l-8 10h-17zM319 1432q0 -20 23 -21q18 1 18 21 q0 23 -18 22q-23 0 -23 -22zM367 1671v78l8 10h63l11 -10v-78h-11l-12 -10v-203q14 -2 14 -20q0 -20 -14 -26.5t-23 -6.5q-23 0 -22 25q0 18 8 28v203l-8 10h-14zM391 1432q0 -18 19 -19q18 1 18 19q0 20 -18 20t-19 -20zM444 1438q0 20 21 20h12q2 33 3 83t1 120l-12 10 h-10v78l10 10h63l9 -10v-78h-15l-8 -10q2 -20 3 -39.5t1 -36.5q0 -84 -22 -141q2 -2 2 -8q0 -33 -27 -33q-31 0 -31 35zM459 457v166q0 61 63 61q66 0 66 -61v-166q0 -63 -66 -64q-25 0 -44 18.5t-19 45.5zM459 1432q0 -18 18 -19q19 1 19 19q0 20 -19 20q-18 0 -18 -20z M516 1438q0 20 23 20h12l22 66v137l-10 10h-12v78l12 10h62l10 -10v-78h-17l-8 -10v-137l-39 -84q2 -2 2 -10q0 -27 -28 -27q-29 0 -29 35zM528 1432q0 -18 19 -19q20 1 20 19q0 20 -20 20q-18 0 -19 -20zM612 1458h13l41 66v137l-11 10h-12v78l12 10h62l10 -10v-78h-16 l-6 -10v-137l-60 -84q2 -2 2 -10q0 -27 -29 -27q-28 0 -28 33q0 22 22 22zM602 1432q0 -18 19 -19q20 1 20 19q0 20 -20 20q-18 0 -19 -20z" />
<glyph unicode="e" horiz-adv-x="698" d="M53 100v164v107.5t2 150.5v260q0 59 33 80l92 62q16 12 17 57v289q0 125 110 125h248q98 0 98 -66q0 -29 -17.5 -48t-55.5 -19h-45q-53 0 -54 -50v-243q0 -51 58 -54q41 -2 63.5 -8t33.5 -15t14 -20.5t3 -21.5q0 -27 -20.5 -47.5t-44.5 -20.5h-359q-70 0 -69 -88v-313 q0 -76 69 -76h357q14 0 40.5 -19.5t26.5 -33.5v-258q0 -63 -67 -64h-393q-78 0 -109 37t-31 133zM127 129q0 -57 63 -57h330q64 0 64 57q0 61 -64 61h-330q-63 0 -63 -61zM217 1671v78l10 10h62l12 -10v-78h-12l-10 -10v-137l6 -66q6 0 10 2q23 0 22 -22q1 -35 -28 -35 q-33 0 -33 27q0 8 6 14q-4 14 -10 33.5t-10 46.5v137l-9 10h-16zM244 444v166q0 66 63 66q66 0 66 -66v-166q0 -63 -66 -63q-25 0 -44 19.5t-19 43.5zM264 1432q0 -20 23 -21q18 1 18 21q0 23 -18 22q-23 0 -23 -22zM309 1671v78l10 10h62l12 -10v-78h-12l-10 -10v-203 q14 -2 14 -20q0 -20 -14.5 -26.5t-22.5 -6.5q-23 0 -22 25q0 18 8 28v203l-8 10h-17zM336 1432q0 -18 18 -19q19 1 19 19q0 20 -19 20q-18 0 -18 -20zM389 1438q0 20 21 20h12q2 33 3 83t1 120l-12 10h-11v78l11 10h63l8 -10v-78h-16l-6 -10q2 -20 3 -39.5t1 -36.5 q0 -84 -23 -141q2 -2 2 -8q0 -33 -26 -33q-31 0 -31 35zM403 1432q0 -18 19 -19q18 1 18 19q0 20 -18 20t-19 -20zM557 1458h12l41 66v137l-10 10h-12v78l12 10h62l10 -10v-78h-17l-8 -10v-137l-57 -84q2 -2 2 -10q0 -27 -29 -27q-28 0 -28 33q0 22 22 22zM547 1432 q0 -18 18 -19q21 1 21 19q0 20 -21 20q-18 0 -18 -20z" />
<glyph unicode="f" horiz-adv-x="671" d="M55 29v1218q0 147 140 148h364q86 -1 86 -62q0 -71 -84 -71h-2h-291q-72 0 -71 -86v-185q0 -69 73 -69h2h254q72 0 72 -68q0 -33 -17.5 -46t-43 -19.5t-55 -6.5t-55.5 -5t-43 -18.5t-17 -41.5v-561q0 -82 -4.5 -127t-19.5 -67.5t-43 -28t-75 -5.5q-170 0 -170 101z M106 1671v78l11 10h61l12 -10v-78h-12l-12 -10v-137l24 -66q4 2 11 2q25 0 24 -22q1 -35 -28 -35q-31 0 -31 22q0 8 2 15l-39 84v137l-6 10h-17zM127 129q0 -57 63 -57h35q62 0 62 57q0 61 -62 61h-35q-63 0 -63 -61zM176 1432q0 -18 19 -19q20 1 20 19q0 20 -20 20 q-18 0 -19 -20zM199 1671v78l10 10h61l13 -10v-78h-13l-10 -10v-137l6 -66q6 0 8 2q25 0 25 -22q0 -35 -29 -35q-33 0 -32 27q0 8 6 14q-4 14 -10.5 33.5t-12.5 46.5v137l-6 10h-16zM268 1411q19 1 19 21q0 23 -19 22q-22 0 -22 -20q0 -22 22 -23zM291 1671v78l10 10h61 l13 -10v-78h-13l-10 -10v-203q14 -2 15 -20q0 -20 -14.5 -26.5t-24.5 -6.5q-20 0 -21 25q0 18 8 28v203l-8 10h-16zM317 1432q0 -18 19 -19q18 1 18 19q0 20 -18 20t-19 -20zM391 1458h12q2 33 3.5 83t1.5 120l-13 10h-10v78l10 10h64l8 -10v-78h-16l-7 -10q2 -20 3.5 -39.5 t1.5 -36.5q0 -84 -23 -141q2 -2 2 -8q0 -33 -29 -33q-28 0 -28 33q0 22 20 22zM385 1432q0 -18 18 -19q19 1 19 19q0 20 -19 20q-18 0 -18 -20zM442 1438q0 20 23 20h12l23 66v137l-13 10h-10v78l10 10h64l8 -10v-78h-14l-8 -10v-137l-39 -84q2 -2 2 -10q0 -27 -31 -27 q-27 0 -27 35zM453 1432q0 -18 20 -19q21 1 21 19q0 20 -21 20q-20 0 -20 -20zM461 451v167q0 61 65 62q63 0 64 -62v-167q0 -61 -64 -62q-66 0 -65 62zM516 1438q0 20 23 20h12l41 66v137l-10 10h-13v78l13 10h61l10 -10v-78h-16l-8 -10v-137l-58 -84q2 -2 2 -10 q0 -27 -28 -27q-29 0 -29 35zM528 1432q0 -18 19 -19q20 1 20 19q0 20 -20 20q-18 0 -19 -20z" />
<glyph unicode="g" horiz-adv-x="825" d="M55 66v1222q0 106 142 107h170q145 0 145 -135q0 -158 -100 -158h-127q-88 0 -88 -103v-573q0 -121 118 -121h136q55 0 74.5 23.5t19.5 79.5v270q0 55 -23.5 72.5t-101.5 25.5q-59 2 -87 24.5t-28 59.5q0 66 26.5 81t90.5 15h248q102 0 102 -106v-758q0 -94 -43 -128 t-141 -34h-400q-53 0 -93 41t-40 95zM88 1671v78l8 10h64l12 -10v-78h-12l-13 -10v-137l43 -66q4 2 11 2q25 0 24 -22q1 -35 -28 -35q-31 0 -31 22q0 8 2 15l-57 84v137l-7 10h-16zM127 129q0 -57 63 -57h422q64 0 64 57q0 61 -64 61h-422q-63 0 -63 -61zM176 1432 q0 -18 19 -19q20 1 20 19q0 20 -20 20q-18 0 -19 -20zM272 1671v78l11 10h61l12 -10v-78h-12l-10 -10v-137l6 -66q6 0 10 2q23 0 23 -22q0 -35 -29 -35q-31 0 -31 27q0 6 4 14q-4 14 -10 33.5t-10 46.5v137l-8 10h-17zM301 473v166q0 25 19.5 45.5t46.5 20.5q25 0 44 -20.5 t19 -45.5v-166q0 -63 -63 -63q-25 0 -45.5 19.5t-20.5 43.5zM319 1432q0 -20 23 -21q18 1 18 21q0 23 -18 22q-23 0 -23 -22zM367 1671v78l8 10h63l11 -10v-78h-11l-12 -10v-203q14 -2 14 -20q0 -20 -14 -26.5t-23 -6.5q-23 0 -22 25q0 18 8 28v203l-8 10h-14zM391 1432 q0 -18 19 -19q18 1 18 19q0 20 -18 20t-19 -20z" />
<glyph unicode="h" d="M55 23v1308q0 63 66 64h223q55 0 55 -64v-383q0 -25 3.5 -39t16.5 -22t39.5 -11.5t71.5 -3.5q70 0 70 76v383q0 63 66 64q76 0 75 -64v-1308q0 -31 -8 -50.5t-31.5 -31t-63.5 -15.5t-101 -4q-49 0 -80 3t-48.5 14.5t-24.5 31t-7 52.5v208q0 43 -20.5 56.5t-92.5 13.5 q-68 0 -67 -70v-208q0 -92 -72 -93q-70 0 -70 93zM88 1671v78l8 10h64l12 -10v-78h-12l-13 -10v-137l43 -66q4 2 11 2q25 0 24 -22q1 -35 -28 -35q-31 0 -31 22q0 8 2 15l-57 84v137l-7 10h-16zM176 1432q0 -18 19 -19q20 1 20 19q0 20 -20 20q-18 0 -19 -20zM180 1671v78 l10 10h62l12 -10v-78h-12l-10 -10v-137l22 -66q4 2 10 2q25 0 25 -22q0 -35 -29 -35q-31 0 -30 20q0 4 4 17l-41 84v137l-6 10h-17zM250 1432q0 -18 18 -19q21 1 21 19q0 20 -21 20q-18 0 -18 -20zM272 1671v78l11 10h61l12 -10v-78h-12l-10 -10v-137l6 -66q6 0 10 2 q23 0 23 -22q0 -35 -29 -35q-31 0 -31 27q0 6 4 14q-4 14 -10 33.5t-10 46.5v137l-8 10h-17zM319 1432q0 -20 23 -21q18 1 18 21q0 22 -17 22h-1q-23 0 -23 -22zM461 129q0 -57 61 -57h90q64 0 64 57q0 61 -64 61h-90q-61 0 -61 -61z" />
<glyph unicode="i" horiz-adv-x="516" d="M37 154q0 84 28.5 117.5t63.5 47t63.5 20.5t28.5 40v946q0 2 3 14.5t9.5 24.5t17.5 23.5t28 15.5q-20 4 -21 18q0 12 4 19l-59 84v137l-6 10h-17v78l10 10h62l12 -10v-78h-12l-10 -10v-137l41 -66q4 2 12 2q23 0 22 -22q0 -27 -16 -33q8 0 19.5 -9.5t20.5 -21.5t15 -26.5 t6 -22.5v-936q0 -33 25 -51l51 -39q29 -18 35 -111q0 2 -2 2q-2 -12 -2 -30v-92q0 -137 -143 -138h-152q-39 0 -64.5 9.5t-42 34t-23.5 67.5t-7 113zM109 129q0 -57 63 -57h182q62 0 62 57q0 61 -62 61h-182q-63 0 -63 -61zM268 1432q0 -18 19 -19q20 1 20 19q0 20 -20 20 q-18 0 -19 -20z" />
<glyph unicode="j" horiz-adv-x="811" d="M55 68v520q0 31 20.5 56.5t49.5 25.5q72 0 72 -82v-250q0 -39 36 -39h271q37 0 63.5 26.5t26.5 63.5v957q0 23 17.5 42t39.5 23q-6 8 -6 27q0 20 23 20h12l43 66v137l-12 10h-13v78l13 10h61l10 -10v-78h-16l-6 -10v-137l-60 -84q4 -4 5 -10q0 -16 -11 -23q41 -16 41 -82 v-1257q0 -61 -40 -99.5t-101 -38.5h-385q-31 0 -58.5 11.5t-49 30t-34 43t-12.5 53.5zM127 129q0 -57 63 -57h385q64 0 64 57q0 61 -64 61h-385q-63 0 -63 -61zM381 479v166q0 63 65 64q66 0 66 -64v-166q0 -63 -66 -63t-65 63zM403 1671v78l9 10h63l10 -10v-78h-10l-12 -10 v-870q14 -2 14 -21q0 -20 -14 -26.5t-23 -6.5q-20 0 -20 27q0 16 6 27l-6 880h-17zM428 766q0 -18 18 -18q19 0 19 18t-19 18q-18 0 -18 -18zM657 1432q0 -18 13 -19h6q20 1 20 19q0 20 -20 20q-18 0 -19 -20z" />
<glyph unicode="k" horiz-adv-x="851" d="M14 1671v78l9 10h63l10 -10v-78h-10l-12 -10v-137l43 -66q4 2 10 2q23 0 23 -22q0 -35 -27 -35q-31 0 -31 22q0 8 2 15l-57 84v137l-6 10h-17zM55 55v1274q0 66 72 66q70 0 70 -66v-297q0 -69 50 -69h1q51 0 192 178t183 178q55 0 55 -76q0 -20 -18.5 -40.5t-34.5 -35.5 q-131 -164 -131 -176q0 -33 34 -33h142q51 0 88 -49t37 -112v-787q0 -80 -78 -80q-63 0 -64 80v207q0 33 -25.5 58.5t-58.5 25.5h-37q-74 0 -73 -84v-188q0 -98 -195 -99q-90 0 -149.5 34t-59.5 91zM102 1432q0 -18 19 -19q20 1 20 19q0 20 -20 20q-18 0 -19 -20zM106 1671 v78l11 10h61l12 -10v-78h-12l-12 -10v-137l24 -66q4 2 11 2q25 0 24 -22q1 -35 -28 -35q-31 0 -31 22q0 8 2 15l-39 84v137l-6 10h-17zM127 129q0 -57 63 -57h164q62 0 62 57q0 61 -62 61h-164q-63 0 -63 -61zM176 1432q0 -18 19 -19q20 1 20 19q0 20 -20 20q-18 0 -19 -20z M221 1053q0 10 17 20h18l354 451v137l-10 10h-12v78l12 10h62l10 -10v-78h-17l-8 -10v-137l-368 -469q2 -4 2 -11q0 -26 -29 -26h-2q-29 0 -29 35zM233 1049q0 -18 19 -19q18 1 18 19t-18 18t-19 -18z" />
<glyph unicode="l" horiz-adv-x="673" d="M14 1671v78l9 10h63l10 -10v-78h-10l-12 -10v-137l43 -66q4 2 10 2q23 0 23 -22q0 -35 -27 -35q-31 0 -31 22q0 8 2 15l-57 84v137l-6 10h-17zM55 68v1273q0 23 23.5 38.5t46.5 15.5t47.5 -14.5t24.5 -39.5v-981q0 -61 57 -61h278q92 0 93 -92v-170q0 -63 -28 -85 t-114 -22h-286q-61 0 -101.5 37t-40.5 101zM102 1432q0 -18 19 -19q20 1 20 19q0 20 -20 20q-18 0 -19 -20zM106 1671v78l11 10h61l12 -10v-78h-12l-12 -10v-137l24 -66q4 2 11 2q25 0 24 -22q1 -35 -28 -35q-31 0 -31 22q0 8 2 15l-39 84v137l-6 10h-17zM127 129 q0 -57 63 -57h293q64 0 64 57q0 61 -64 61h-293q-63 0 -63 -61zM176 1432q0 -18 19 -19q20 1 20 19q0 20 -20 20q-18 0 -19 -20zM270 463v166q0 63 66 63q63 0 63 -63v-166q0 -66 -63 -66q-27 0 -46.5 20.5t-19.5 45.5z" />
<glyph unicode="m" horiz-adv-x="1269" d="M33 1671v78l8 10h63l13 -10v-78h-13l-12 -10v-137l43 -66q4 2 10 2q23 0 23 -22q0 -35 -27 -35q-31 0 -30 22q0 8 2 15l-58 84v137l-6 10h-16zM63 -2v1253q0 143 209 144h379q96 0 142.5 -38t62.5 -95l211 -836q10 -43 35.5 -70.5t52.5 -50t47.5 -44t20.5 -50.5v-180 q0 -100 -80 -101h-266q-57 0 -58 68v244q0 33 16.5 46t37 21t37 19.5t16.5 42.5q0 18 -13 71l-151 705l-14 29q-23 43 -54.5 64.5t-68.5 21.5t-37 -72v-832q0 -53 55 -53q12 0 23 2h22q63 0 64 -65v-244q0 -68 -60 -68h-243q-41 0 -54.5 13.5t-13.5 54.5v244q0 25 10 40 t23.5 26t24 22.5t10.5 27.5v250q0 33 -3.5 53.5t-17.5 29.5t-47 12.5t-90 3.5q-88 0 -88 -99v-250q0 -23 19.5 -32t42 -17t42 -22.5t19.5 -44.5v-244q0 -45 -11.5 -56.5t-58.5 -11.5h-127q-66 0 -66 68zM121 1432q0 -18 18 -19q21 1 21 19q0 20 -21 20q-18 0 -18 -20z M125 1671v78l10 10h62l12 -10v-78h-12l-13 -10v-137l25 -66q4 2 10 2q25 0 25 -22q0 -35 -29 -35q-31 0 -31 20q0 4 4 17l-41 84v137l-6 10h-16zM127 129q0 -57 63 -57h17q61 0 61 57q0 31 -16 46t-45 15h-17q-63 0 -63 -61zM195 1432q0 -18 18 -19q20 1 20 19q0 20 -20 20 q-18 0 -18 -20zM209 885q0 -63 63 -64q66 0 66 64v295q0 63 -66 63q-63 0 -63 -63v-295zM217 1671v78l10 10h62l12 -10v-78h-12l-10 -10v-137l6 -66q6 0 10 2q23 0 22 -22q1 -35 -28 -35q-33 0 -33 27q0 8 6 14q-4 14 -10 33.5t-10 46.5v137l-9 10h-16zM264 1432 q0 -20 23 -21q18 1 18 21q0 23 -18 22q-23 0 -23 -22zM309 1671v78l10 10h62l12 -10v-78h-12l-10 -10v-203q14 -2 14 -20q0 -20 -14.5 -26.5t-22.5 -6.5q-23 0 -22 25q0 18 8 28v203l-8 10h-17zM336 1432q0 -18 18 -19q19 1 19 19q0 20 -19 20q-18 0 -18 -20zM389 1438 q0 20 21 20h12q2 33 3 83t1 120l-12 10h-11v78l11 10h63l8 -10v-78h-16l-6 -10q2 -20 3 -39.5t1 -36.5q0 -84 -23 -141q2 -2 2 -8q0 -33 -26 -33q-31 0 -31 35zM403 1432q0 -18 19 -19q18 1 18 19q0 20 -18 20t-19 -20zM442 129q0 -57 62 -57h147q62 0 62 57q0 61 -62 61 h-147q-61 0 -62 -61zM483 1458h13l22 66v137l-12 10h-10v78l10 10h63l11 -10v-78h-17l-8 -10v-137l-39 -84q2 -2 2 -10q0 -27 -31 -27q-26 0 -26 33q0 22 22 22zM473 1432q0 -18 19 -19q20 1 20 19q0 20 -20 20q-18 0 -19 -20zM557 1458h12l41 66v137l-10 10h-12v78l12 10 h62l10 -10v-78h-17l-8 -10v-137l-57 -84q2 -2 2 -10q0 -27 -29 -27q-28 0 -28 33q0 22 22 22zM547 1432q0 -18 18 -19q21 1 21 19q0 20 -21 20q-18 0 -18 -20zM610 1438q0 20 21 20h12l62 66v137l-13 10h-12v78l12 10h62l10 -10v-78h-16l-7 -10v-137l-75 -80q4 -4 4 -8 q0 -33 -29 -33q-31 0 -31 35zM625 1432q0 -18 18 -19q19 1 19 19q0 20 -19 20q-18 0 -18 -20zM682 1438q0 20 23 20h12l80 66v137l-13 10h-12v78l12 10h64l8 -10v-78h-16l-6 -10v-137l-97 -84q4 -4 4 -10q0 -27 -30 -27q-29 0 -29 35zM694 1432q0 -18 19 -19q20 1 20 19 q0 20 -20 20q-18 0 -19 -20zM778 1458h13l98 66v137l-12 10h-11v78l11 10h63l8 -10v-78h-16l-6 -10v-137l-113 -84q2 -2 2 -10q0 -27 -31 -27q-26 0 -26 33q0 22 20 22zM768 1432q0 -18 18 -19q21 1 21 19q0 20 -21 20q-18 0 -18 -20zM887 129q0 -57 61 -57h146q63 0 63 57 q0 61 -63 61h-146q-61 0 -61 -61z" />
<glyph unicode="n" horiz-adv-x="927" d="M51 1671v78l8 10h64l12 -10v-78h-12l-12 -10v-137l43 -66q4 2 10 2q25 0 24 -22q1 -35 -28 -35q-31 0 -31 22q0 8 2 15l-57 84v137l-6 10h-17zM59 2v1284q0 106 117 107h133q113 0 121 -107l80 -893q6 -80 125 -80q53 0 73.5 28t20.5 108v862q0 82 72 82q70 0 69 -82 v-1225q0 -158 -116 -158h-238q-43 0 -80 26t-45 64l-74 373q-10 43 -55 43q-63 0 -63 -55v-377q0 -92 -74 -92q-66 0 -66 92zM139 1432q0 -18 19 -19q20 1 20 19q0 20 -20 20q-18 0 -19 -20zM143 1671v78l11 10h61l12 -10v-78h-12l-12 -10v-137l24 -66q4 2 11 2q25 0 24 -22 q0 -35 -29 -35q-31 0 -30 20q0 4 4 17l-41 84v137l-6 10h-17zM213 1432q0 -18 18 -19q21 1 21 19q0 20 -21 20q-18 0 -18 -20zM236 1671v78l10 10h61l12 -10v-78h-12l-10 -10v-137l6 -66q6 0 10 2q23 0 23 -22q0 -35 -29 -35q-33 0 -33 27q0 8 7 14q-4 14 -10.5 33.5 t-10.5 46.5v137l-8 10h-16zM305 1411q19 1 19 21q0 23 -19 22q-22 0 -22 -20q0 -22 22 -23zM442 129q0 -57 62 -57h258q61 0 61 57q0 61 -61 61h-258q-61 0 -62 -61zM776 1438q0 20 23 20h12l41 66v137l-12 10h-11v78l11 10h63l8 -10v-78h-16l-6 -10v-137l-58 -84 q2 -2 3 -10q0 -27 -31 -27q-27 0 -27 35zM786 1432q0 -18 19 -19q20 1 20 19q0 20 -20 20q-18 0 -19 -20z" />
<glyph unicode="o" d="M55 74v1167q0 154 156 154h414q59 0 89.5 -46t30.5 -108v-1149q0 -162 -147 -162h-362q-180 0 -181 144zM88 1671v78l8 10h64l12 -10v-78h-12l-13 -10v-137l43 -66q4 2 11 2q25 0 24 -22q1 -35 -28 -35q-31 0 -31 22q0 8 2 15l-57 84v137l-7 10h-16zM145 129 q0 -57 64 -57h385q63 0 63 57q0 61 -63 61h-385q-63 0 -64 -61zM176 1432q0 -18 19 -19q20 1 20 19q0 20 -20 20q-18 0 -19 -20zM197 428q0 -129 92 -129h203q68 0 90 29.5t22 99.5v709q0 125 -112 125h-203q-92 0 -92 -125v-709zM305 582v131q0 63 47 63h101q57 0 57 -63 v-131q0 -68 -57 -68h-101q-47 0 -47 68zM444 1438q0 20 21 20h12q2 33 3 83t1 120l-12 10h-10v78l10 10h63l9 -10v-78h-15l-8 -10q2 -20 3 -39.5t1 -36.5q0 -84 -22 -141q2 -2 2 -8q0 -33 -27 -33q-31 0 -31 35zM459 1432q0 -18 18 -19q19 1 19 19q0 20 -19 20 q-18 0 -18 -20zM516 1438q0 20 23 20h12l22 66v137l-10 10h-12v78l12 10h62l10 -10v-78h-17l-8 -10v-137l-39 -84q2 -2 2 -10q0 -27 -28 -27q-29 0 -29 35zM528 1432q0 -18 19 -19q20 1 20 19q0 20 -20 20q-18 0 -19 -20zM612 1458h13l41 66v137l-11 10h-12v78l12 10h62 l10 -10v-78h-16l-6 -10v-137l-60 -84q2 -2 2 -10q0 -27 -29 -27q-28 0 -28 33q0 22 22 22zM602 1432q0 -18 19 -19q20 1 20 19q0 20 -20 20q-18 0 -19 -20z" />
<glyph unicode="p" horiz-adv-x="831" d="M55 0v1294q0 100 125 101h486q123 0 122 -172v-373q0 -92 -79 -92h-275q-68 0 -67 -62v-643q0 -123 -131 -123q-180 0 -181 70zM127 129q0 -57 63 -57h35q62 0 62 57q0 61 -62 61h-35q-63 0 -63 -61zM160 997q0 -118 106 -118h2h60q59 0 78.5 15t19.5 56v205 q0 31 -5 51.5t-21.5 32.5t-47 17.5t-84.5 5.5q-109 0 -108 -107v-158zM180 1671v78l10 10h62l12 -10v-78h-12l-10 -10v-137l22 -66q4 2 10 2q25 0 25 -22q0 -35 -29 -35q-31 0 -30 20q0 4 4 17l-41 84v137l-6 10h-17zM250 1432q0 -18 18 -19q21 1 21 19q0 20 -21 20 q-18 0 -18 -20zM272 1671v78l11 10h61l12 -10v-78h-12l-10 -10v-137l6 -66q6 0 10 2q23 0 23 -22q0 -35 -29 -35q-31 0 -31 27q0 6 4 14q-4 14 -10 33.5t-10 46.5v137l-8 10h-17zM319 1432q0 -20 23 -21q18 1 18 21q0 23 -18 22q-23 0 -23 -22zM367 1671v78l8 10h63l11 -10 v-78h-11l-12 -10v-203q14 -2 14 -20q0 -20 -14 -26.5t-23 -6.5q-23 0 -22 25q0 18 8 28v203l-8 10h-14zM391 1432q0 -18 19 -19q18 1 18 19q0 20 -18 20t-19 -20zM449 -10v168q0 61 65 61q66 0 66 -61v-168q0 -63 -66 -64q-27 0 -46 19.5t-19 44.5zM516 1438q0 20 23 20h12 l22 66v137l-10 10h-12v78l12 10h62l10 -10v-78h-17l-8 -10v-137l-39 -84q2 -2 2 -10q0 -27 -28 -27q-29 0 -29 35zM528 1432q0 -18 19 -19q20 1 20 19q0 20 -20 20q-18 0 -19 -20zM612 1458h13l41 66v137l-11 10h-12v78l12 10h62l10 -10v-78h-16l-6 -10v-137l-60 -84 q2 -2 2 -10q0 -27 -29 -27q-28 0 -28 33q0 22 22 22zM602 1432q0 -18 19 -19q20 1 20 19q0 20 -20 20q-18 0 -19 -20z" />
<glyph unicode="q" horiz-adv-x="874" d="M55 74v1220q0 57 19.5 79t79.5 22h434q63 0 104 -44t41 -106v-887q0 -59 51 -59h21q10 2 20 2q51 0 52 -63v-222q0 -34 -49 -34h-3h-90q-12 0 -33.5 -8.5t-45 -17.5t-47 -17.5t-42.5 -8.5h-393q-51 0 -85 45t-34 99zM88 1671v78l8 10h64l12 -10v-78h-12l-13 -10v-137 l43 -66q4 2 11 2q25 0 24 -22q1 -35 -28 -35q-31 0 -31 22q0 8 2 15l-57 84v137l-7 10h-16zM127 129q0 -57 63 -57h572q61 0 61 57q0 61 -61 61h-572q-63 0 -63 -61zM176 1432q0 -18 19 -19q20 1 20 19q0 20 -20 20q-18 0 -19 -20zM180 1671v78l10 10h62l12 -10v-78h-12 l-10 -10v-137l22 -66q4 2 10 2q25 0 25 -22q0 -35 -29 -35q-31 0 -30 20q0 4 4 17l-41 84v137l-6 10h-17zM250 1432q0 -18 18 -19q21 1 21 19q0 20 -21 20q-18 0 -18 -20zM334 381q0 -76 78 -76h41q45 0 51 49v80q0 31 45 31q53 0 61 10t8 51v637q0 37 -5 59.5t-18 35 t-38 15.5t-61 3h-76q-86 0 -86 -125v-770zM367 1671v78l8 10h63l11 -10v-78h-11l-12 -10v-203q14 -2 14 -20q0 -20 -14 -26.5t-23 -6.5q-23 0 -22 25q0 18 8 28v203l-8 10h-14zM391 1432q0 -18 19 -19q18 1 18 19q0 20 -18 20t-19 -20zM430 967v168q0 25 19.5 43t46.5 18 q63 0 63 -61v-168q0 -61 -63 -62q-66 0 -66 62zM444 1438q0 20 21 20h12q2 33 3 83t1 120l-12 10h-10v78l10 10h63l9 -10v-78h-15l-8 -10q2 -20 3 -39.5t1 -36.5q0 -84 -22 -141q2 -2 2 -8q0 -33 -27 -33q-31 0 -31 35zM459 1432q0 -18 18 -19q19 1 19 19q0 20 -19 20 q-18 0 -18 -20zM516 1438q0 20 23 20h12l22 66v137l-10 10h-12v78l12 10h62l10 -10v-78h-17l-8 -10v-137l-39 -84q2 -2 2 -10q0 -27 -28 -27q-29 0 -29 35zM528 1432q0 -18 19 -19q20 1 20 19q0 20 -20 20q-18 0 -19 -20zM612 1458h13l41 66v137l-11 10h-12v78l12 10h62 l10 -10v-78h-16l-6 -10v-137l-60 -84q2 -2 2 -10q0 -27 -29 -27q-28 0 -28 33q0 22 22 22zM602 1432q0 -18 19 -19q20 1 20 19q0 20 -20 20q-18 0 -19 -20z" />
<glyph unicode="r" horiz-adv-x="837" d="M33 1671v78l8 10h63l13 -10v-78h-13l-12 -10v-137l43 -66q4 2 10 2q23 0 23 -22q0 -35 -27 -35q-31 0 -30 22q0 8 2 15l-58 84v137l-6 10h-16zM55 18v1270q0 106 123 107h336q139 0 139 -133v-269q0 -29 95 -123q23 -23 33 -46t10 -40v-766q0 -88 -72 -88q-68 0 -68 88 v732q0 63 -125 63q-123 0 -123 -63v-732q0 -88 -188 -88q-160 0 -160 88zM121 1432q0 -18 18 -19q21 1 21 19q0 20 -21 20q-18 0 -18 -20zM125 1671v78l10 10h62l12 -10v-78h-12l-13 -10v-137l25 -66q4 2 10 2q25 0 25 -22q0 -35 -29 -35q-31 0 -31 20q0 4 4 17l-41 84v137 l-6 10h-16zM127 129q0 -57 63 -57h91q61 0 61 57q0 61 -61 61h-91q-63 0 -63 -61zM141 1014q0 -84 78 -84h35q86 0 86 84v172q0 76 -86 76h-27q-86 0 -86 -76v-172zM195 1432q0 -18 18 -19q20 1 20 19q0 20 -20 20q-18 0 -18 -20zM217 1671v78l10 10h62l12 -10v-78h-12 l-10 -10v-137l6 -66q6 0 10 2q23 0 22 -22q1 -35 -28 -35q-33 0 -33 27q0 8 6 14q-4 14 -10 33.5t-10 46.5v137l-9 10h-16zM264 1432q0 -20 23 -21q18 1 18 21q0 23 -18 22q-23 0 -23 -22zM389 1438q0 20 21 20h12q2 33 3 83t1 120l-12 10h-11v78l11 10h63l8 -10v-78h-16 l-6 -10q2 -20 3 -39.5t1 -36.5q0 -84 -23 -141q2 -2 2 -8q0 -33 -26 -33q-31 0 -31 35zM403 1432q0 -18 19 -19q18 1 18 19q0 20 -18 20t-19 -20zM461 6v168q0 61 65 62q63 0 64 -62v-168q0 -61 -64 -61q-66 0 -65 61zM557 1458h12l41 66v137l-10 10h-12v78l12 10h62l10 -10 v-78h-17l-8 -10v-137l-57 -84q2 -2 2 -10q0 -27 -29 -27q-28 0 -28 33q0 22 22 22zM547 1432q0 -18 18 -19q21 1 21 19q0 20 -21 20q-18 0 -18 -20z" />
<glyph unicode="s" horiz-adv-x="815" d="M37 -20v258q0 57 67 63l134 12q70 18 69 99v260q0 80 -24.5 114.5t-94.5 34.5h-22q-66 0 -88.5 29t-22.5 96v318q0 131 127 131h146q84 0 84 -70q0 -10 -2 -21.5t-14.5 -20.5t-38 -15t-74.5 -6q-29 0 -45.5 -6.5t-25.5 -26t-12 -58t-3 -104.5q0 -70 26.5 -91.5 t95.5 -21.5h304q145 0 145 -131v-714q0 -57 -7 -92t-25.5 -54.5t-51.5 -26t-82 -6.5h-498q-37 0 -67 50zM70 1671v78l8 10h63l13 -10v-78h-13l-12 -10v-137l43 -66q4 2 10 2q25 0 25 -22q0 -35 -29 -35q-31 0 -31 22q0 8 3 15l-58 84v137l-6 10h-16zM127 129q0 -57 63 -57 h404q63 0 63 57q0 61 -63 61h-404q-63 0 -63 -61zM158 1432q0 -18 18 -19q21 1 21 19q0 20 -21 20q-18 0 -18 -20zM162 1671v78l10 10h61l13 -10v-78h-13l-12 -10v-137l25 -66q4 2 10 2q25 0 25 -22q0 -35 -29 -35q-31 0 -31 20q0 4 4 17l-41 84v137l-6 10h-16zM231 1432 q0 -18 19 -19q20 1 20 19q0 20 -20 20q-18 0 -19 -20zM254 1671v78l10 10h62l12 -10v-78h-12l-11 -10v-137l7 -66q6 0 10 2q23 0 22 -22q1 -35 -28 -35q-31 0 -31 27q0 6 4 14q-4 14 -10 33.5t-10 46.5v137l-9 10h-16zM301 1432q0 -20 23 -21q18 1 18 21q0 23 -18 22 q-23 0 -23 -22zM621 1167v166q0 61 63 62q66 0 66 -62v-166q0 -65 -64 -65h-2q-25 0 -44 19.5t-19 45.5zM686 1458h12l43 66v137l-12 10h-12v78l12 10h62l10 -10v-78h-17l-6 -10v-137l-59 -84q4 -4 4 -10q0 -27 -31 -27q-28 0 -28 33q0 22 22 22zM676 1432q0 -18 18 -19 q21 1 21 19q0 20 -21 20q-18 0 -18 -20z" />
<glyph unicode="t" horiz-adv-x="770" d="M20 1233q0 162 105 162h444q156 0 156 -156q0 -57 -26.5 -97t-67.5 -40h-103q-76 0 -75 -72v-1012q0 -86 -68 -86q-72 0 -72 86v1012q0 72 -65 72h-144q-84 0 -84 131zM70 1671v78l8 10h63l13 -10v-78h-13l-12 -10v-137l43 -66q4 2 10 2q25 0 25 -22q0 -35 -29 -35 q-31 0 -31 22q0 8 3 15l-58 84v137l-6 10h-16zM158 1432q0 -18 18 -19q21 1 21 19q0 20 -21 20q-18 0 -18 -20zM254 1671v78l10 10h62l12 -10v-78h-12l-11 -10v-137l7 -66q6 0 10 2q23 0 22 -22q1 -35 -28 -35q-31 0 -31 27q0 6 4 14q-4 14 -10 33.5t-10 46.5v137l-9 10h-16 zM301 1432q0 -20 23 -21q18 1 18 21q0 23 -18 22q-23 0 -23 -22zM348 1671v78l8 10h64l10 -10v-78h-10l-12 -10v-203q14 -2 14 -20q0 -20 -14.5 -26.5t-22.5 -6.5q-23 0 -23 25q0 18 9 28v203l-9 10h-14zM373 1432q0 -18 18 -19q19 1 19 19q0 20 -19 20q-18 0 -18 -20z M520 1458h12l23 66v137l-10 10h-13v78l13 10h61l10 -10v-78h-16l-8 -10v-137l-39 -84q2 -2 2 -10q0 -27 -29 -27q-28 0 -28 33q0 22 22 22zM510 1432q0 -18 18 -19q21 1 21 19q0 20 -21 20q-18 0 -18 -20zM541 758v166q0 25 20.5 43t44.5 18q66 0 66 -61v-166q0 -63 -66 -64 q-66 0 -65 64zM571 1438q0 20 23 20h12l41 66v137l-10 10h-12v78l12 10h61l11 -10v-78h-17l-8 -10v-137l-57 -84q2 -2 2 -10q0 -27 -29 -27t-29 35zM584 1432q0 -18 18 -19q21 1 21 19q0 20 -21 20q-18 0 -18 -20z" />
<glyph unicode="u" horiz-adv-x="811" d="M14 1671v78l9 10h63l10 -10v-78h-10l-12 -10v-137l43 -66q4 2 10 2q23 0 23 -22q0 -20 -9 -29q20 -6 38 -24.5t18 -38.5v-975q0 -72 88 -72h247q43 0 58.5 17.5t15.5 82.5v916q0 92 74 92h7t9 -2q-12 8 -12 33q0 20 21 20h12q6 63 6 203l-12 10h-13v78l13 10h61l10 -10 v-78h-16l-6 -10q2 -18 2 -34.5v-33.5q0 -94 -21 -149q2 -2 2 -8q0 -33 -28 -33h-4q37 -12 37 -57v-1268q0 -80 -34 -114t-116 -34h-389q-154 0 -154 148v1237q0 78 45 92q-10 4 -10 16q0 4 4 17l-57 84v137l-6 10h-17zM102 1432q0 -18 19 -19q20 1 20 19q0 20 -20 20 q-18 0 -19 -20zM106 1671v78l11 10h61l12 -10v-78h-12l-12 -10v-137l24 -66q4 2 11 2q25 0 24 -22q1 -35 -28 -35q-31 0 -31 22q0 8 2 15l-39 84v137l-6 10h-17zM127 129q0 -57 63 -57h422q64 0 64 57q0 61 -64 61h-422q-63 0 -63 -61zM176 1432q0 -18 19 -19q20 1 20 19 q0 20 -20 20q-18 0 -19 -20zM422 444v166q0 66 63 66q66 0 66 -66v-166q0 -63 -66 -63q-25 0 -44 19.5t-19 43.5zM606 1671v78l10 10h62l12 -10v-78h-12l-12 -10v-203q14 -2 14 -20q0 -20 -13.5 -26.5t-23.5 -6.5q-20 0 -20 25q0 16 6 28v203l-6 10h-17zM631 1432 q0 -18 20 -19q19 1 19 19q0 20 -19 20q-20 0 -20 -20zM698 1432q0 -18 19 -19q18 1 18 19q0 20 -18 20t-19 -20z" />
<glyph unicode="v" horiz-adv-x="950" d="M14 815v481q0 39 27 69t65 30h228q29 0 54.5 -28t25.5 -56v-543q0 -63 -60 -63h-94q-33 0 -33 -52v-295q0 -71 62 -71h2q55 0 97 28.5t61 81.5l114 543q10 45 12 70q0 33 -16 44t-34.5 19t-35 19.5t-16.5 46.5v172q0 35 33 59.5t67 24.5h199q98 0 98 -99v-125 q0 -49 -41 -79l-69 -56q-37 -43 -45 -80l-205 -890q-16 -66 -78.5 -101t-148.5 -35h-93q-43 0 -72.5 35t-29.5 76v594q0 6 -11 30.5t-25.5 54.5t-26 56.5t-11.5 38.5zM23 1671v78l10 10h61l12 -10v-78h-12l-10 -10v-137l41 -66h12q23 0 23 -20q0 -35 -29 -35t-29 27 q0 8 2 10l-57 84v137l-8 10h-16zM109 1432q0 -18 20 -19q18 0 18 19q0 20 -18 20q-20 0 -20 -20zM117 1671v78l8 10h63l11 -10v-78h-11l-12 -10v-137l23 -66h12q23 0 22 -20q0 -35 -26 -35q-31 0 -31 27q0 8 2 10l-39 84v137l-8 10h-14zM129 129q0 -57 64 -57h182 q63 0 63 57q0 61 -63 61h-182q-64 0 -64 -61zM182 1432q0 -18 21 -19q18 0 18 19q0 20 -18 20q-21 0 -21 -20zM301 1671v78l12 10h62l10 -10v-78h-16l-9 -10v-203q8 -10 9 -28q0 -25 -21 -25q-10 0 -24.5 6t-14.5 27q0 18 15 20v203l-11 10h-12zM322 1432q0 -18 18 -19 q18 0 18 19q0 20 -18 20t-18 -20zM600 1438q0 23 23 22q2 -2 8 -2l8 66v137l-12 10h-11v78l11 10h63l8 -10v-78h-16l-6 -10v-137q-6 -27 -11.5 -46.5t-9.5 -33.5q4 -8 4 -14q1 -27 -32 -27q-27 0 -27 35zM610 1432q0 -20 19 -21q25 0 24 21q0 23 -24 22q-19 1 -19 -22z M696 1460q6 0 13 -2q4 16 10 32.5t12 33.5v137l-12 10h-10v78l10 10h63l9 -10v-78h-15l-8 -10v-137l-39 -84q4 -12 4 -17q0 -20 -33 -20q-26 0 -26 33q0 25 22 24zM676 12v166q0 63 65 64q63 0 64 -64v-166q0 -27 -19.5 -45t-44.5 -18q-66 0 -65 63zM682 1432q0 -18 23 -19 q18 0 18 19q0 20 -18 20q-23 0 -23 -20zM770 1460q8 0 12 -2l41 66v137l-10 10h-12v78l12 10h61l11 -10v-78h-17l-8 -10v-137l-57 -84q4 -12 4 -17q0 -20 -31 -20q-28 0 -28 33q0 25 22 24zM758 1432q0 -18 20 -19q18 0 19 19q0 20 -19 20q-20 0 -20 -20z" />
<glyph unicode="w" horiz-adv-x="1243" d="M49 1171v125q0 98 98 99h246q59 0 60 -66v-190q0 -33 -17.5 -45.5t-37 -20.5t-37 -20.5t-17.5 -42.5q0 -25 12 -70l84 -330q27 -110 160 -110h2q27 0 44.5 26.5t17.5 55.5v440q0 53 -56 53h-22q-10 -2 -23 -2q-63 0 -63 66v190q0 66 59 66h246q47 0 56 -17.5t9 -48.5 v-190q0 -23 -10 -37.5t-22.5 -26.5t-22.5 -24.5t-10 -28.5v-619q0 -98 84 -98q53 0 85 3t48 13.5t21.5 30t5.5 51.5v619q0 23 -19.5 32t-42 18t-42 22.5t-19.5 44.5v190q0 66 69 66h107q37 0 62.5 -35t25.5 -80v-1206q0 -143 -211 -144h-377q-92 0 -142 35t-65 101l-192 890 q-4 27 -28.5 54.5t-52.5 55.5t-50.5 54.5t-22.5 50.5zM74 1671v78l10 10h61l13 -10v-78h-13l-10 -10v-137l41 -66h12q23 0 23 -20q0 -35 -29 -35t-28 27q0 8 2 10l-60 84v137l-6 10h-16zM139 6v168q0 61 64 62q66 0 65 -62v-168q0 -61 -65 -61q-63 0 -64 61zM160 1432 q0 -18 20 -19q18 0 19 19q0 20 -19 20q-20 0 -20 -20zM166 1671v78l10 10h62l12 -10v-78h-12l-11 -10v-137l23 -66h12q23 0 23 -20q0 -35 -29 -35t-29 27q0 8 2 10l-39 84v137l-8 10h-16zM233 1432q0 -18 21 -19q18 0 18 19q0 20 -18 20q-21 0 -21 -20zM260 1671v78l8 10h64 l10 -10v-78h-10l-13 -10q0 -70 1.5 -120t3.5 -83h12q20 0 20 -20q0 -35 -30 -35q-27 0 -27 33q0 6 2 8q-22 55 -22 134v7q0 16 1 35.5t3 40.5l-9 10h-14zM305 1432q0 -18 19 -19q18 0 18 19q0 20 -18 20q-19 0 -19 -20zM352 1671v78l10 10h64l8 -10v-78h-14l-8 -10v-203 q8 -10 8 -28q0 -25 -23 -25q-8 0 -22.5 6t-14.5 27q0 18 15 20v203l-13 10h-10zM373 1432q0 -18 18 -19q18 0 19 19q0 20 -19 20q-18 0 -18 -20zM477 129q0 -57 62 -57h497q63 0 64 57q0 61 -64 61h-497q-62 0 -62 -61zM563 1460q2 -2 8 -2l9 66v137l-13 10h-12v78l12 10h62 l10 -10v-78h-16l-7 -10v-137q-6 -27 -12 -46.5t-10 -33.5q6 -6 6 -14q0 -27 -33 -27q-28 0 -28 33q0 25 24 24zM551 1432q0 -20 18 -21q23 0 23 21q0 23 -23 22q-18 1 -18 -22zM612 1438q0 23 25 22q6 0 10 -2l25 66v137l-13 10h-12v78l12 10h64l8 -10v-78h-16l-6 -10v-137 l-39 -84q2 -6 2 -15q0 -22 -31 -22q-29 0 -29 35zM623 1432q0 -18 20 -19q18 0 19 19q0 20 -19 20q-20 0 -20 -20zM741 1671v78l9 10h63l10 -10v-78h-10l-12 -10q0 -70 1 -120t3 -83h12q20 0 21 -20q0 -35 -31 -35q-27 0 -27 33q0 6 2 8q-22 55 -22 134v7q0 16 1 35.5 t3 40.5l-6 10h-17zM786 1432q0 -18 19 -19q18 0 18 19q0 20 -18 20q-19 0 -19 -20zM834 1671v78l10 10h63l8 -10v-78h-14l-8 -10v-203q8 -10 8 -28q0 -25 -22 -25q-8 0 -22.5 6t-14.5 27q0 18 14 20v203l-12 10h-10zM854 1432q0 -18 18 -19q18 0 19 19q0 20 -19 20 q-18 0 -18 -20zM909 1438q0 23 23 22q4 -2 10 -2l6 66v137l-10 10h-12v78l12 10h61l11 -10v-78h-17l-8 -10v-137q-4 -27 -10 -46.5t-10 -33.5q4 -8 4 -14q0 -27 -31 -27q-29 0 -29 35zM922 1432q0 -20 18 -21q23 0 23 21q0 23 -23 22q-18 1 -18 -22zM983 1438q0 23 25 22 q6 0 10 -2l24 66v137l-12 10h-12v78l12 10h62l10 -10v-78h-17l-6 -10v-137l-41 -84q4 -12 4 -17q1 -20 -30 -20q-29 0 -29 35zM993 1432q0 -18 21 -19q18 0 18 19q0 20 -18 20q-21 0 -21 -20zM1081 1460q6 0 11 -2l43 66v137l-13 10h-12v78l12 10h64l8 -10v-78h-16l-7 -10 v-137l-57 -84q2 -6 2 -15q0 -22 -31 -22q-28 0 -28 33q0 25 24 24zM1067 1432q0 -18 20 -19q18 0 19 19q0 20 -19 20q-20 0 -20 -20z" />
<glyph unicode="x" horiz-adv-x="788" d="M2 -25q0 -2 27 72q139 406 209.5 615.5t74.5 226.5q-2 2 -9 35.5t-24.5 73.5t-45 72t-70.5 32q-8 0 -19 -2h-20q-47 0 -65.5 28.5t-18.5 65.5v131q0 47 12.5 58.5t57.5 11.5h82q20 0 32.5 -2t22.5 -11.5t20.5 -29t22.5 -54.5l76 -196q18 -47 26 -47q27 0 49 47l109 250 q27 61 80 61h2q-6 8 -6 25q0 20 22 20h13l43 66v137l-13 10h-12v78l12 10h62l10 -10v-78h-16l-7 -10v-137l-59 -84q2 -2 2 -10q0 -18 -14 -25q28 -12 28 -52q0 -15 -116 -251q-117 -238 -115 -246l172 -537q53 -4 82 -8t42 -12t15 -23.5t2 -42.5v-233q0 -70 -73 -70h-86 q-43 0 -68 31t-39 94l-121 568q-10 43 -24 43q-12 0 -31 -58l-188 -608q-25 -74 -84 -74q-63 0 -64 49zM14 1671v78l9 10h63l10 -10v-78h-10l-12 -10v-137l43 -66q4 2 10 2q23 0 23 -22q0 -35 -27 -35q-31 0 -31 22q0 8 2 15l-57 84v137l-6 10h-17zM47 700v168q0 61 64 62 q66 0 65 -62v-168q-4 -61 -65 -61q-63 0 -64 61zM102 1432q0 -18 19 -19q20 1 20 19q0 20 -20 20q-18 0 -19 -20zM106 1671v78l11 10h61l12 -10v-78h-12l-12 -10v-137l24 -66q4 2 11 2q25 0 24 -22q1 -35 -28 -35q-31 0 -31 22q0 8 2 15l-39 84v137l-6 10h-17zM176 1432 q0 -18 19 -19q20 1 20 19q0 20 -20 20q-18 0 -19 -20zM571 129q0 -57 64 -57h35q61 0 61 57q0 61 -61 61h-35q-63 0 -64 -61zM639 1432q0 -18 18 -19q21 1 21 19q0 20 -21 20q-18 0 -18 -20z" />
<glyph unicode="y" horiz-adv-x="868" d="M14 1671v78l9 10h63l10 -10v-78h-10l-12 -10v-137l43 -66q4 2 10 2q23 0 23 -22q0 -35 -27 -35q-31 0 -31 22q0 8 2 15l-57 84v137l-6 10h-17zM55 625v690q0 80 70 80q72 0 72 -49v-699q0 -29 45 -49q186 -92 192 -92q16 0 17 24v752q0 70 49 91.5t123 21.5 q86 0 135 -22.5t49 -90.5v-829q0 -152 -170 -152q-18 0 -19 -33v-268q0 -70 -69 -70q-72 0 -72 70v313q0 31 -63 58l-289 123q-70 31 -70 131zM82 18v166q0 63 63 64q66 0 66 -64v-166q0 -65 -64 -65h-2q-25 0 -44 20.5t-19 44.5zM102 1432q0 -18 19 -19q20 1 20 19 q0 20 -20 20q-18 0 -19 -20zM106 1671v78l11 10h61l12 -10v-78h-12l-12 -10v-137l24 -66q4 2 11 2q25 0 24 -22q1 -35 -28 -35q-31 0 -31 22q0 8 2 15l-39 84v137l-6 10h-17zM176 1432q0 -18 19 -19q20 1 20 19q0 20 -20 20q-18 0 -19 -20zM272 1671v78l11 10h61l12 -10v-78 h-12l-10 -10v-981q14 -2 14 -21q0 -20 -14.5 -26t-24.5 -6q-20 0 -20 26q0 18 8 27l-8 991h-17zM299 655q0 -18 18 -18q19 0 19 18t-19 19q-18 0 -18 -19zM555 1438q0 20 20 20h13q2 33 3 83t1 120l-10 10h-13v78l13 10h61l10 -10v-78h-16l-8 -10q2 -20 3 -39.5t1 -36.5 q0 -84 -23 -141q2 -2 2 -8q0 -33 -26 -33q-31 0 -31 35zM569 1432q0 -18 19 -19q18 1 18 19q0 20 -18 20t-19 -20zM649 1458h13l22 66v137l-10 10h-12v78l12 10h61l10 -10v-78h-16l-6 -10v-137l-41 -84q2 -2 2 -10q0 -27 -29 -27q-28 0 -28 33q0 22 22 22zM639 1432 q0 -18 18 -19q21 1 21 19q0 20 -21 20q-18 0 -18 -20zM700 1438q0 20 23 20h12l43 66v137l-12 10h-12v78l12 10h63l9 -10v-78h-17l-6 -10v-137l-57 -84q2 -2 2 -10q0 -27 -31 -27q-29 0 -29 35zM713 1432q0 -18 18 -19q21 1 21 19q0 20 -21 20q-18 0 -18 -20z" />
<glyph unicode="z" horiz-adv-x="802" d="M33 14q0 25 16 58l29 51q461 1094 461 1102q0 37 -70 37h-297q-109 0 -109 67q0 66 109 66h457q100 0 112 -72l-397 -979q0 -37 31 -37h260q43 0 66.5 -12t36 -34.5t14.5 -55.5t2 -76q0 -199 -95 -199h-567q-23 0 -41 26t-18 58zM76 889v166q0 65 63 65h2q66 0 66 -65 v-166q0 -63 -66 -64q-25 0 -45 18.5t-20 45.5zM88 1671v78l8 10h64l12 -10v-78h-12l-13 -10v-137l43 -66q4 2 11 2q25 0 24 -22q1 -35 -28 -35q-31 0 -31 22q0 8 2 15l-57 84v137l-7 10h-16zM176 1432q0 -18 19 -19q20 1 20 19q0 20 -20 20q-18 0 -19 -20zM180 1671v78 l10 10h62l12 -10v-78h-12l-10 -10v-137l22 -66q4 2 10 2q25 0 25 -22q0 -35 -29 -35q-31 0 -30 20q0 4 4 17l-41 84v137l-6 10h-17zM201 129q0 -57 63 -57h367q63 0 63 57q0 61 -63 61h-367q-63 0 -63 -61zM250 1432q0 -18 18 -19q21 1 21 19q0 20 -21 20q-18 0 -18 -20z M367 1671v78l8 10h63l11 -10v-78h-11l-12 -10v-203q14 -2 14 -20q0 -20 -14 -26.5t-23 -6.5q-23 0 -22 25q0 18 8 28v203l-8 10h-14zM391 1432q0 -18 19 -19q18 1 18 19q0 20 -18 20t-19 -20zM444 1438q0 20 21 20h12q2 33 3 83t1 120l-12 10h-10v78l10 10h63l9 -10v-78h-15 l-8 -10q2 -20 3 -39.5t1 -36.5q0 -84 -22 -141q2 -2 2 -8q0 -33 -27 -33q-31 0 -31 35zM459 1432q0 -18 18 -19q19 1 19 19q0 20 -19 20q-18 0 -18 -20zM612 1458h13l41 66v137l-11 10h-12v78l12 10h62l10 -10v-78h-16l-6 -10v-137l-60 -84q2 -2 2 -10q0 -27 -29 -27 q-28 0 -28 33q0 22 22 22zM602 1432q0 -18 19 -19q20 1 20 19q0 20 -20 20q-18 0 -19 -20z" />
<glyph unicode="{" horiz-adv-x="565" d="M96 53v1475q0 63 62 63h256q16 0 35.5 -14t19.5 -31q0 -47 -53 -47h-115q-49 0 -49 -61v-1045q0 -80 67 -80h84l-2 2q68 -6 68 -32v-295q0 -45 -43 -45h-209q-49 0 -85 30.5t-36 79.5z" />
<glyph unicode="|" horiz-adv-x="516" d="M37 1608q0 174 137 174h152q49 0 77.5 -6.5t43 -32t18.5 -76.5t4 -141q0 -53 -16.5 -83t-37 -50.5t-37 -35t-16.5 -34.5v-1288q-35 -78 -65 -78q-45 0 -68 59l-8 19v1298q0 33 -32.5 42t-65.5 18q-51 10 -68.5 55t-17.5 160z" />
<glyph unicode="}" horiz-adv-x="509" d="M55 -12v297q0 29 54 28h116q47 0 47 60v1044q0 84 -84 84q-12 0 -37.5 -2t-37.5 -2q-57 0 -58 49q0 45 45 45h207q47 0 85 -31.5t38 -78.5v-1475q0 -63 -61 -63h-258q-55 0 -56 45z" />
<glyph unicode="&#xa1;" horiz-adv-x="380" d="M92 141v787q0 12 7 31.5t15.5 40t15.5 40t7 29.5v170q0 80 66 80q68 0 67 -78v-172q0 -16 7.5 -36.5t15.5 -40t15 -38t7 -26.5v-787q0 -109 -112 -108q-111 0 -111 108zM119 1511q0 31 24.5 54.5t55.5 23.5q33 0 56.5 -23.5t23.5 -54.5t-25 -56t-55 -25q-31 0 -55.5 25 t-24.5 56z" />
<glyph unicode="&#xa2;" horiz-adv-x="897" d="M92 113v1151q0 53 32 94t85 41h158l39 78q16 29 40 28q27 0 39 -28l43 -78h60q47 0 47 -66q0 -70 -55 -69h-289q-57 0 -58 -70v-805q0 -88 70 -88h426q92 0 92 -170q0 -27 -9 -52.5t-24.5 -46t-36 -32.5t-42.5 -12h-123q-16 0 -33.5 -8.5t-32 -19.5t-27 -19.5t-18.5 -8.5 t-19.5 8.5t-28.5 19.5t-31.5 19.5t-28.5 8.5h-168q-106 0 -107 125zM164 129q0 -57 63 -57h461q62 0 62 57q0 61 -62 61h-461q-63 0 -63 -61z" />
<glyph unicode="&#xa8;" horiz-adv-x="778" d="M125 1991q0 45 28.5 75.5t75.5 30.5q43 0 75 -30.5t32 -75.5t-32 -76t-75 -31q-47 0 -75.5 31t-28.5 76zM444 1991q0 45 31 75.5t74 30.5q45 0 74.5 -30.5t29.5 -75.5t-29.5 -76t-74.5 -31q-43 0 -74 31t-31 76z" />
<glyph unicode="&#xa9;" horiz-adv-x="1654" d="M70 692q0 156 59 294t162.5 241.5t242 164t295.5 60.5q156 0 293.5 -60.5t240.5 -164t163.5 -241.5t60.5 -294q0 -158 -60.5 -296t-163.5 -241.5t-240.5 -163t-293.5 -59.5q-158 0 -296 59.5t-241.5 163t-162.5 241.5t-59 296zM160 690q0 -139 52 -262t143 -214 t214 -143.5t262 -52.5t262.5 52.5t214.5 143.5t144 214t53 262q0 137 -53 260t-144 215t-214 146.5t-263 54.5q-139 0 -262 -54.5t-214 -146.5t-143 -215t-52 -260zM438 680q0 102 27 189t76 151.5t118.5 100.5t157.5 36q213 0 316 -184l-142 -94q-70 100 -174 100 q-94 0 -152.5 -79t-58.5 -220q0 -66 16.5 -120t45 -93t67.5 -60.5t86 -21.5t91 23.5t79 60.5l133 -92q-100 -168 -307 -168q-82 0 -151.5 36t-119.5 99.5t-79 149.5t-29 186z" />
<glyph unicode="&#xab;" horiz-adv-x="866" d="M94 627v137l363 186v-143l-238 -109l238 -110v-139zM438 627v137l361 186v-143l-236 -109l236 -110v-139z" />
<glyph unicode="&#xad;" horiz-adv-x="825" d="M59 932q0 27 20.5 46t45.5 19h563q62 1 62 -65q0 -63 -62 -64h-563q-66 0 -66 64zM70 1671v78l8 10h63l13 -10v-78h-13l-12 -10l68 -588q12 -6 12 -22q0 -35 -33 -35q-27 0 -26 28q0 14 10 29l-74 598h-16zM162 1049q0 -18 18 -19q19 1 19 19t-19 18q-18 0 -18 -18z M162 1671v78l10 10h61l13 -10v-78h-13l-12 -10l62 -588q12 -6 12 -22q0 -35 -33 -35q-27 0 -26 31q0 12 10 26l-62 588l-6 10h-16zM248 1049q0 -18 18 -19q19 1 19 19t-19 18q-18 0 -18 -18z" />
<glyph unicode="&#xae;" horiz-adv-x="1249" d="M109 1280q0 98 37.5 187t107.5 157t164 106.5t209 38.5t211 -37.5t166.5 -103t110.5 -155t40 -193.5q0 -96 -41 -184t-111.5 -156t-167.5 -108.5t-208 -40.5q-115 0 -209 40.5t-164 108.5t-107.5 156t-37.5 184zM207 1280q0 -74 28.5 -145.5t83 -128t132 -90t174.5 -33.5 q90 0 171 30.5t142 84t97 126t36 156.5q0 72 -32.5 142.5t-92 127t-141.5 91t-180 34.5q-96 0 -174 -34.5t-132.5 -91t-83 -127t-28.5 -142.5zM465 1008v528h190q74 0 119 -44t45 -124q0 -53 -20.5 -87t-67.5 -64l94 -209h-110l-90 192h-56v-192h-104zM569 1311h88 q55 0 56 57q0 61 -56 62h-88v-119z" />
<glyph unicode="&#xb4;" horiz-adv-x="358" d="M121 1837l127 225h158l-197 -225h-88z" />
<glyph unicode="&#xb8;" horiz-adv-x="419" d="M129 -281l25 80q20 -10 55 -10q63 0 63 33t-47 33h-28q-4 0 -12.5 -1t-20.5 -4v166h74v-84q117 0 116 -104q0 -66 -34.5 -94.5t-108.5 -28.5q-27 0 -48.5 5t-33.5 9z" />
<glyph unicode="&#xbb;" horiz-adv-x="892" d="M121 449v143l235 113l-235 108v137l360 -178v-135zM463 449v143l235 113l-235 108v137l360 -178v-135z" />
<glyph unicode="&#xbf;" horiz-adv-x="380" d="M92 141v787q0 12 7 31.5t15.5 40t15.5 40t7 29.5v170q0 80 66 80q68 0 67 -78v-172q0 -16 7.5 -36.5t15.5 -40t15 -38t7 -26.5v-787q0 -109 -112 -108q-111 0 -111 108zM119 1511q0 31 24.5 54.5t55.5 23.5q33 0 56.5 -23.5t23.5 -54.5t-25 -56t-55 -25q-31 0 -55.5 25 t-24.5 56z" />
<glyph unicode="&#xc0;" horiz-adv-x="925" d="M49 63v465q0 76 33 127l420 664q49 76 164 76q195 0 194 -164v-1200q0 -37 -23.5 -69t-60.5 -32h-184q-78 0 -78 76v207q0 55 23.5 71.5t53.5 19.5t53.5 2t23.5 22q0 6 -1 13t-1 17v326q0 76 -60 76h-229q-135 0 -135 -94v-308q0 -59 65 -59h45q82 0 82 -86v-197 q0 -86 -72 -86h-206q-31 0 -51.5 5.5t-33 19.5t-17.5 41t-5 67zM90 1186v166q0 61 66 61q63 0 63 -61v-166q0 -27 -19.5 -46.5t-43.5 -19.5q-66 0 -66 66zM106 129q0 -57 62 -57h129q61 0 61 57q0 61 -61 61h-129q-62 0 -62 -61zM184 1671v78l11 10h61l12 -10v-78h-12 l-10 -10v-137l151 -213h11q25 0 24 -23q0 -35 -26 -35q-31 0 -31 29q0 6 2 10l-168 232v137l-8 10h-17zM381 1284q0 -18 22 -18q18 0 19 18q0 18 -19 19q-22 -1 -22 -19zM453 2058h155l129 -225h-88zM463 920q0 -33 37 -33h153q61 0 81 13t20 75v237q0 18 -19 33t-37 15 q-70 0 -127 -113l-90 -172q-18 -35 -18 -55zM539 1438q0 23 24 22q2 -2 8 -2l9 66v137l-13 10h-12v78l12 10h62l10 -10v-78h-16l-7 -10v-137q-6 -27 -12 -46.5t-10 -33.5q6 -6 6 -14q0 -27 -33 -27q-29 0 -28 35zM551 1432q0 -20 18 -21q23 0 23 21q0 23 -23 22 q-18 1 -18 -22zM588 129q0 -57 63 -57h72q61 0 61 57q0 61 -61 61h-72q-63 0 -63 -61zM688 1438q0 23 23 22q6 0 12 -2l41 66v137l-12 10h-11v78l11 10h63l8 -10v-78h-16l-6 -10v-137l-58 -84q4 -12 5 -17q0 -20 -33 -20q-27 0 -27 35zM696 1432q0 -18 21 -19q18 0 18 19 q0 20 -18 20q-21 0 -21 -20z" />
<glyph unicode="&#xc1;" horiz-adv-x="925" d="M49 63v465q0 76 33 127l420 664q49 76 164 76q195 0 194 -164v-1200q0 -37 -23.5 -69t-60.5 -32h-184q-78 0 -78 76v207q0 55 23.5 71.5t53.5 19.5t53.5 2t23.5 22q0 6 -1 13t-1 17v326q0 76 -60 76h-229q-135 0 -135 -94v-308q0 -59 65 -59h45q82 0 82 -86v-197 q0 -86 -72 -86h-206q-31 0 -51.5 5.5t-33 19.5t-17.5 41t-5 67zM90 1186v166q0 61 66 61q63 0 63 -61v-166q0 -27 -19.5 -46.5t-43.5 -19.5q-66 0 -66 66zM106 129q0 -57 62 -57h129q61 0 61 57q0 61 -61 61h-129q-62 0 -62 -61zM184 1671v78l11 10h61l12 -10v-78h-12 l-10 -10v-137l151 -213h11q25 0 24 -23q0 -35 -26 -35q-31 0 -31 29q0 6 2 10l-168 232v137l-8 10h-17zM381 1284q0 -18 22 -18q18 0 19 18q0 18 -19 19q-22 -1 -22 -19zM463 920q0 -33 37 -33h153q61 0 81 13t20 75v237q0 18 -19 33t-37 15q-70 0 -127 -113l-90 -172 q-18 -35 -18 -55zM539 1438q0 23 24 22q2 -2 8 -2l9 66v137l-13 10h-12v78l12 10h62l10 -10v-78h-16l-7 -10v-137q-6 -27 -12 -46.5t-10 -33.5q6 -6 6 -14q0 -27 -33 -27q-29 0 -28 35zM551 1432q0 -20 18 -21q23 0 23 21q0 23 -23 22q-18 1 -18 -22zM555 1837l127 225h158 l-197 -225h-88zM588 129q0 -57 63 -57h72q61 0 61 57q0 61 -61 61h-72q-63 0 -63 -61zM688 1438q0 23 23 22q6 0 12 -2l41 66v137l-12 10h-11v78l11 10h63l8 -10v-78h-16l-6 -10v-137l-58 -84q4 -12 5 -17q0 -20 -33 -20q-27 0 -27 35zM696 1432q0 -18 21 -19q18 0 18 19 q0 20 -18 20q-21 0 -21 -20z" />
<glyph unicode="&#xc2;" horiz-adv-x="925" d="M49 63v465q0 76 33 127l420 664q49 76 164 76q195 0 194 -164v-1200q0 -37 -23.5 -69t-60.5 -32h-184q-78 0 -78 76v207q0 55 23.5 71.5t53.5 19.5t53.5 2t23.5 22q0 6 -1 13t-1 17v326q0 76 -60 76h-229q-135 0 -135 -94v-308q0 -59 65 -59h45q82 0 82 -86v-197 q0 -86 -72 -86h-206q-31 0 -51.5 5.5t-33 19.5t-17.5 41t-5 67zM90 1186v166q0 61 66 61q63 0 63 -61v-166q0 -27 -19.5 -46.5t-43.5 -19.5q-66 0 -66 66zM106 129q0 -57 62 -57h129q61 0 61 57q0 61 -61 61h-129q-62 0 -62 -61zM184 1671v78l11 10h61l12 -10v-78h-12 l-10 -10v-137l151 -213h11q25 0 24 -23q0 -35 -26 -35q-31 0 -31 29q0 6 2 10l-168 232v137l-8 10h-17zM370 1858l189 223h135l192 -223h-145l-115 151l-112 -151h-144zM381 1284q0 -18 22 -18q18 0 19 18q0 18 -19 19q-22 -1 -22 -19zM463 920q0 -33 37 -33h153q61 0 81 13 t20 75v237q0 18 -19 33t-37 15q-70 0 -127 -113l-90 -172q-18 -35 -18 -55zM539 1438q0 23 24 22q2 -2 8 -2l9 66v137l-13 10h-12v78l12 10h62l10 -10v-78h-16l-7 -10v-137q-6 -27 -12 -46.5t-10 -33.5q6 -6 6 -14q0 -27 -33 -27q-29 0 -28 35zM551 1432q0 -20 18 -21 q23 0 23 21q0 23 -23 22q-18 1 -18 -22zM588 129q0 -57 63 -57h72q61 0 61 57q0 61 -61 61h-72q-63 0 -63 -61zM688 1438q0 23 23 22q6 0 12 -2l41 66v137l-12 10h-11v78l11 10h63l8 -10v-78h-16l-6 -10v-137l-58 -84q4 -12 5 -17q0 -20 -33 -20q-27 0 -27 35zM696 1432 q0 -18 21 -19q18 0 18 19q0 20 -18 20q-21 0 -21 -20z" />
<glyph unicode="&#xc3;" horiz-adv-x="925" d="M49 63v465q0 76 33 127l420 664q49 76 164 76q195 0 194 -164v-1200q0 -37 -23.5 -69t-60.5 -32h-184q-78 0 -78 76v207q0 55 23.5 71.5t53.5 19.5t53.5 2t23.5 22q0 6 -1 13t-1 17v326q0 76 -60 76h-229q-135 0 -135 -94v-308q0 -59 65 -59h45q82 0 82 -86v-197 q0 -86 -72 -86h-206q-31 0 -51.5 5.5t-33 19.5t-17.5 41t-5 67zM90 1186v166q0 61 66 61q63 0 63 -61v-166q0 -27 -19.5 -46.5t-43.5 -19.5q-66 0 -66 66zM106 129q0 -57 62 -57h129q61 0 61 57q0 61 -61 61h-129q-62 0 -62 -61zM184 1671v78l11 10h61l12 -10v-78h-12 l-10 -10v-137l151 -213h11q25 0 24 -23q0 -35 -26 -35q-31 0 -31 29q0 6 2 10l-168 232v137l-8 10h-17zM309 1919q35 63 77 92t95 29q43 0 69.5 -10.5t48 -21.5t42 -21.5t51.5 -10.5q68 0 104 78l72 -82q-41 -111 -168 -110q-31 0 -56.5 10t-49 22.5t-46 22.5t-49.5 10 t-54.5 -17.5t-55.5 -60.5zM381 1284q0 -18 22 -18q18 0 19 18q0 18 -19 19q-22 -1 -22 -19zM463 920q0 -33 37 -33h153q61 0 81 13t20 75v237q0 18 -19 33t-37 15q-70 0 -127 -113l-90 -172q-18 -35 -18 -55zM539 1438q0 23 24 22q2 -2 8 -2l9 66v137l-13 10h-12v78l12 10 h62l10 -10v-78h-16l-7 -10v-137q-6 -27 -12 -46.5t-10 -33.5q6 -6 6 -14q0 -27 -33 -27q-29 0 -28 35zM551 1432q0 -20 18 -21q23 0 23 21q0 23 -23 22q-18 1 -18 -22zM588 129q0 -57 63 -57h72q61 0 61 57q0 61 -61 61h-72q-63 0 -63 -61zM688 1438q0 23 23 22q6 0 12 -2 l41 66v137l-12 10h-11v78l11 10h63l8 -10v-78h-16l-6 -10v-137l-58 -84q4 -12 5 -17q0 -20 -33 -20q-27 0 -27 35zM696 1432q0 -18 21 -19q18 0 18 19q0 20 -18 20q-21 0 -21 -20z" />
<glyph unicode="&#xc4;" horiz-adv-x="925" d="M49 63v465q0 76 33 127l420 664q49 76 164 76q195 0 194 -164v-1200q0 -37 -23.5 -69t-60.5 -32h-184q-78 0 -78 76v207q0 55 23.5 71.5t53.5 19.5t53.5 2t23.5 22q0 6 -1 13t-1 17v326q0 76 -60 76h-229q-135 0 -135 -94v-308q0 -59 65 -59h45q82 0 82 -86v-197 q0 -86 -72 -86h-206q-31 0 -51.5 5.5t-33 19.5t-17.5 41t-5 67zM90 1186v166q0 61 66 61q63 0 63 -61v-166q0 -27 -19.5 -46.5t-43.5 -19.5q-66 0 -66 66zM106 129q0 -57 62 -57h129q61 0 61 57q0 61 -61 61h-129q-62 0 -62 -61zM184 1671v78l11 10h61l12 -10v-78h-12 l-10 -10v-137l151 -213h11q25 0 24 -23q0 -35 -26 -35q-31 0 -31 29q0 6 2 10l-168 232v137l-8 10h-17zM344 1991q0 45 28.5 75.5t75.5 30.5q43 0 75 -30.5t32 -75.5t-32 -76t-75 -31q-47 0 -75.5 31t-28.5 76zM381 1284q0 -18 22 -18q18 0 19 18q0 18 -19 19 q-22 -1 -22 -19zM463 920q0 -33 37 -33h153q61 0 81 13t20 75v237q0 18 -19 33t-37 15q-70 0 -127 -113l-90 -172q-18 -35 -18 -55zM539 1438q0 23 24 22q2 -2 8 -2l9 66v137l-13 10h-12v78l12 10h62l10 -10v-78h-16l-7 -10v-137q-6 -27 -12 -46.5t-10 -33.5q6 -6 6 -14 q0 -27 -33 -27q-29 0 -28 35zM551 1432q0 -20 18 -21q23 0 23 21q0 23 -23 22q-18 1 -18 -22zM588 129q0 -57 63 -57h72q61 0 61 57q0 61 -61 61h-72q-63 0 -63 -61zM663 1991q0 45 31 75.5t74 30.5q45 0 74.5 -30.5t29.5 -75.5t-29.5 -76t-74.5 -31q-43 0 -74 31t-31 76z M688 1438q0 23 23 22q6 0 12 -2l41 66v137l-12 10h-11v78l11 10h63l8 -10v-78h-16l-6 -10v-137l-58 -84q4 -12 5 -17q0 -20 -33 -20q-27 0 -27 35zM696 1432q0 -18 21 -19q18 0 18 19q0 20 -18 20q-21 0 -21 -20z" />
<glyph unicode="&#xc5;" horiz-adv-x="925" d="M49 63v465q0 76 33 127l420 664q49 76 164 76q195 0 194 -164v-1200q0 -37 -23.5 -69t-60.5 -32h-184q-78 0 -78 76v207q0 55 23.5 71.5t53.5 19.5t53.5 2t23.5 22q0 6 -1 13t-1 17v326q0 76 -60 76h-229q-135 0 -135 -94v-308q0 -59 65 -59h45q82 0 82 -86v-197 q0 -86 -72 -86h-206q-31 0 -51.5 5.5t-33 19.5t-17.5 41t-5 67zM90 1186v166q0 61 66 61q63 0 63 -61v-166q0 -27 -19.5 -46.5t-43.5 -19.5q-66 0 -66 66zM106 129q0 -57 62 -57h129q61 0 61 57q0 61 -61 61h-129q-62 0 -62 -61zM184 1671v78l11 10h61l12 -10v-78h-12 l-10 -10v-137l151 -213h11q25 0 24 -23q0 -35 -26 -35q-31 0 -31 29q0 6 2 10l-168 232v137l-8 10h-17zM381 1284q0 -18 22 -18q18 0 19 18q0 18 -19 19q-22 -1 -22 -19zM463 920q0 -33 37 -33h153q61 0 81 13t20 75v237q0 18 -19 33t-37 15q-70 0 -127 -113l-90 -172 q-18 -35 -18 -55zM539 1438q0 23 24 22q2 -2 8 -2l9 66v137l-13 10h-12v78l12 10h62l10 -10v-78h-16l-7 -10v-137q-6 -27 -12 -46.5t-10 -33.5q6 -6 6 -14q0 -27 -33 -27q-29 0 -28 35zM541 2011q0 61 39 104.5t100 43.5q59 0 100.5 -44t41.5 -104q0 -59 -41.5 -99 t-100.5 -40q-61 0 -100 40t-39 99zM551 1432q0 -20 18 -21q23 0 23 21q0 23 -23 22q-18 1 -18 -22zM588 129q0 -57 63 -57h72q61 0 61 57q0 61 -61 61h-72q-63 0 -63 -61zM592 2015q0 -41 26.5 -67.5t63.5 -26.5q39 0 66.5 26.5t27.5 67.5q0 39 -28.5 67.5t-65.5 28.5 q-35 0 -62.5 -28.5t-27.5 -67.5zM688 1438q0 23 23 22q6 0 12 -2l41 66v137l-12 10h-11v78l11 10h63l8 -10v-78h-16l-6 -10v-137l-58 -84q4 -12 5 -17q0 -20 -33 -20q-27 0 -27 35zM696 1432q0 -18 21 -19q18 0 18 19q0 20 -18 20q-21 0 -21 -20z" />
<glyph unicode="&#xc6;" horiz-adv-x="1423" d="M51 31v1200q0 164 195 164q115 0 164 -76l340 -537q0 59 32 80l92 62q16 12 17 57v289q0 125 110 125h248q98 0 99 -66q0 -29 -17.5 -48t-56.5 -19h-45q-53 0 -53 -50v-243q0 -51 57 -54q41 -2 63.5 -8t33.5 -15t14.5 -20.5t3.5 -21.5q0 -27 -20.5 -47.5t-45.5 -20.5 h-358q-70 0 -70 -88v-92q8 -31 8 -74v-192q14 -31 62 -31h356q14 0 41 -19.5t27 -33.5v-258q0 -63 -68 -64h-393q-43 0 -70 13q-23 -12 -59 -13h-209q-72 0 -72 86v197q0 86 82 86h45q68 0 68 59v308q0 94 -137 94h-230q-59 0 -59 -76v-326q0 -10 -1 -17t-1 -13 q0 -23 23.5 -23t53 -1t53 -18.5t23.5 -72.5v-207q0 -76 -78 -76h-182q-37 0 -61.5 32t-24.5 69zM88 1671v78l8 10h64l12 -10v-78h-12l-13 -10v-137l43 -66q4 2 11 2q25 0 24 -22q1 -35 -28 -35q-31 0 -31 22q0 8 2 15l-57 84v137l-7 10h-16zM127 129q0 -57 63 -57h72 q62 0 62 57q0 61 -62 61h-72q-63 0 -63 -61zM158 975q0 -61 19.5 -74.5t82.5 -13.5h152q37 0 37 33q0 20 -19 55l-90 172q-57 113 -127 113q-18 0 -36.5 -14.5t-18.5 -33.5v-237zM176 1432q0 -18 19 -19q20 1 20 19q0 20 -20 20q-18 0 -19 -20zM272 1671v78l11 10h61l12 -10 v-78h-12l-10 -10v-137l6 -66q6 0 10 2q23 0 23 -22q0 -35 -29 -35q-31 0 -31 27q0 6 4 14q-4 14 -10 33.5t-10 46.5v137l-8 10h-17zM319 1432q0 -20 23 -21q18 1 18 21q0 23 -18 22q-23 0 -23 -22zM479 1288q0 23 25 23h10l152 213v137l-11 10h-12v78l12 10h62l10 -10v-78 h-16l-6 -10v-137l-170 -232q2 -4 2 -10q0 -29 -31 -29q-27 0 -27 35zM492 1284q0 -18 18 -18q20 0 20 18t-20 19q-18 0 -18 -19zM592 129q0 -57 63 -57h559q64 0 64 57q0 61 -64 61h-559q-63 0 -63 -61zM692 1186v166q0 61 66 61q63 0 63 -61v-166q0 -66 -63 -66 q-27 0 -46.5 19.5t-19.5 46.5zM911 1671v78l11 10h61l12 -10v-78h-12l-10 -10v-137l6 -66q6 0 10 2q23 0 23 -22q0 -35 -29 -35q-33 0 -33 27q0 8 6 14q-4 14 -10 33.5t-10 46.5v137l-8 10h-17zM938 444v166q0 66 63 66q66 0 66 -66v-166q0 -63 -66 -63q-25 0 -44 19.5 t-19 43.5zM958 1432q0 -20 23 -21q18 1 18 21q0 23 -18 22q-23 0 -23 -22zM1004 1671v78l10 10h61l12 -10v-78h-12l-10 -10v-203q14 -2 14 -20q0 -20 -14 -26.5t-23 -6.5q-23 0 -22 25q0 18 8 28v203l-8 10h-16zM1030 1432q0 -18 19 -19q18 1 18 19q0 20 -18 20t-19 -20z M1083 1438q0 20 21 20h12q2 33 3 83t1 120l-12 10h-10v78l10 10h63l9 -10v-78h-17l-6 -10q2 -20 3 -39.5t1 -36.5q0 -84 -22 -141q2 -2 2 -8q0 -33 -27 -33q-31 0 -31 35zM1098 1432q0 -18 18 -19q19 1 19 19q0 20 -19 20q-18 0 -18 -20zM1229 1438q0 20 22 20h13l41 66v137 l-11 10h-12v78l12 10h62l10 -10v-78h-16l-9 -10v-137l-57 -84q2 -2 2 -10q0 -27 -29 -27t-28 35zM1241 1432q0 -18 19 -19q20 1 20 19q0 20 -20 20q-18 0 -19 -20z" />
<glyph unicode="&#xc7;" horiz-adv-x="847" d="M55 59v1219q0 47 34 85t83 38h332q150 0 149 -70q0 -63 -53 -63h-354q-18 0 -33.5 -17.5t-15.5 -36.5v-520q0 -63 11 -77.5t46 -14.5h424q100 0 100 -139v-160q0 -16 1 -36.5t1 -47.5v-96q0 -104 -39 -146.5t-131 -42.5h-393q-162 0 -162 125zM88 1671v78l8 10h64l12 -10 v-78h-12l-13 -10v-137l43 -66q4 2 11 2q25 0 24 -22q1 -35 -28 -35q-31 0 -31 22q0 8 2 15l-57 84v137l-7 10h-16zM127 129q0 -57 63 -57h422q64 0 64 57q0 61 -64 61h-422q-63 0 -63 -61zM176 1432q0 -18 19 -19q20 1 20 19q0 20 -20 20q-18 0 -19 -20zM180 1671v78l10 10 h62l12 -10v-78h-12l-10 -10v-137l22 -66q4 2 10 2q25 0 25 -22q0 -35 -29 -35q-31 0 -30 20q0 4 4 17l-41 84v137l-6 10h-17zM250 1432q0 -18 18 -19q21 1 21 19q0 20 -21 20q-18 0 -18 -20zM264 963v165q0 27 19.5 45.5t44.5 18.5q66 0 65 -64v-165q0 -66 -65 -66 q-63 0 -64 66zM272 1671v78l11 10h61l12 -10v-78h-12l-10 -10v-137l6 -66q6 0 10 2q23 0 23 -22q0 -35 -29 -35q-31 0 -31 27q0 6 4 14q-4 14 -10 33.5t-10 46.5v137l-8 10h-17zM309 -281l25 80q20 -10 55 -10q63 0 63 33t-47 33h-28q-4 0 -12.5 -1t-20.5 -4v166h74v-84 q117 0 116 -104q0 -66 -34.5 -94.5t-108.5 -28.5q-27 0 -48.5 5t-33.5 9zM319 1432q0 -20 23 -21q18 1 18 21q0 23 -18 22q-23 0 -23 -22zM367 1671v78l8 10h63l11 -10v-78h-11l-12 -10v-203q14 -2 14 -20q0 -20 -14 -26.5t-23 -6.5q-23 0 -22 25q0 18 8 28v203l-8 10h-14z M391 1432q0 -18 19 -19q18 1 18 19q0 20 -18 20t-19 -20zM444 1438q0 20 21 20h12q2 33 3 83t1 120l-12 10h-10v78l10 10h63l9 -10v-78h-15l-8 -10q2 -20 3 -39.5t1 -36.5q0 -84 -22 -141q2 -2 2 -8q0 -33 -27 -33q-31 0 -31 35zM459 1432q0 -18 18 -19q19 1 19 19 q0 20 -19 20q-18 0 -18 -20zM590 1438q0 20 22 20h13l41 66v137l-11 10h-12v78l12 10h62l10 -10v-78h-16l-6 -10v-137l-60 -84q2 -2 2 -10q0 -27 -29 -27t-28 35zM602 1432q0 -18 19 -19q20 1 20 19q0 20 -20 20q-18 0 -19 -20z" />
<glyph unicode="&#xc8;" horiz-adv-x="698" d="M53 100v164v107.5t2 150.5v260q0 59 33 80l92 62q16 12 17 57v289q0 125 110 125h248q98 0 98 -66q0 -29 -17.5 -48t-55.5 -19h-45q-53 0 -54 -50v-243q0 -51 58 -54q41 -2 63.5 -8t33.5 -15t14 -20.5t3 -21.5q0 -27 -20.5 -47.5t-44.5 -20.5h-359q-70 0 -69 -88v-313 q0 -76 69 -76h357q14 0 40.5 -19.5t26.5 -33.5v-258q0 -63 -67 -64h-393q-78 0 -109 37t-31 133zM127 129q0 -57 63 -57h330q64 0 64 57q0 61 -64 61h-330q-63 0 -63 -61zM207 2058h155l129 -225h-88zM217 1671v78l10 10h62l12 -10v-78h-12l-10 -10v-137l6 -66q6 0 10 2 q23 0 22 -22q1 -35 -28 -35q-33 0 -33 27q0 8 6 14q-4 14 -10 33.5t-10 46.5v137l-9 10h-16zM244 444v166q0 66 63 66q66 0 66 -66v-166q0 -63 -66 -63q-25 0 -44 19.5t-19 43.5zM264 1432q0 -20 23 -21q18 1 18 21q0 23 -18 22q-23 0 -23 -22zM309 1671v78l10 10h62l12 -10 v-78h-12l-10 -10v-203q14 -2 14 -20q0 -20 -14.5 -26.5t-22.5 -6.5q-23 0 -22 25q0 18 8 28v203l-8 10h-17zM336 1432q0 -18 18 -19q19 1 19 19q0 20 -19 20q-18 0 -18 -20zM389 1438q0 20 21 20h12q2 33 3 83t1 120l-12 10h-11v78l11 10h63l8 -10v-78h-16l-6 -10 q2 -20 3 -39.5t1 -36.5q0 -84 -23 -141q2 -2 2 -8q0 -33 -26 -33q-31 0 -31 35zM403 1432q0 -18 19 -19q18 1 18 19q0 20 -18 20t-19 -20zM535 1438q0 20 22 20h12l41 66v137l-10 10h-12v78l12 10h62l10 -10v-78h-17l-8 -10v-137l-57 -84q2 -2 2 -10q0 -27 -29 -27t-28 35z M547 1432q0 -18 18 -19q21 1 21 19q0 20 -21 20q-18 0 -18 -20z" />
<glyph unicode="&#xc9;" horiz-adv-x="698" d="M53 100v164v107.5t2 150.5v260q0 59 33 80l92 62q16 12 17 57v289q0 125 110 125h248q98 0 98 -66q0 -29 -17.5 -48t-55.5 -19h-45q-53 0 -54 -50v-243q0 -51 58 -54q41 -2 63.5 -8t33.5 -15t14 -20.5t3 -21.5q0 -27 -20.5 -47.5t-44.5 -20.5h-359q-70 0 -69 -88v-313 q0 -76 69 -76h357q14 0 40.5 -19.5t26.5 -33.5v-258q0 -63 -67 -64h-393q-78 0 -109 37t-31 133zM127 129q0 -57 63 -57h330q64 0 64 57q0 61 -64 61h-330q-63 0 -63 -61zM217 1671v78l10 10h62l12 -10v-78h-12l-10 -10v-137l6 -66q6 0 10 2q23 0 22 -22q1 -35 -28 -35 q-33 0 -33 27q0 8 6 14q-4 14 -10 33.5t-10 46.5v137l-9 10h-16zM244 444v166q0 66 63 66q66 0 66 -66v-166q0 -63 -66 -63q-25 0 -44 19.5t-19 43.5zM264 1432q0 -20 23 -21q18 1 18 21q0 23 -18 22q-23 0 -23 -22zM309 1671v78l10 10h62l12 -10v-78h-12l-10 -10v-203 q14 -2 14 -20q0 -20 -14.5 -26.5t-22.5 -6.5q-23 0 -22 25q0 18 8 28v203l-8 10h-17zM332 1837l127 225h158l-197 -225h-88zM336 1432q0 -18 18 -19q19 1 19 19q0 20 -19 20q-18 0 -18 -20zM389 1438q0 20 21 20h12q2 33 3 83t1 120l-12 10h-11v78l11 10h63l8 -10v-78h-16 l-6 -10q2 -20 3 -39.5t1 -36.5q0 -84 -23 -141q2 -2 2 -8q0 -33 -26 -33q-31 0 -31 35zM403 1432q0 -18 19 -19q18 1 18 19q0 20 -18 20t-19 -20zM535 1438q0 20 22 20h12l41 66v137l-10 10h-12v78l12 10h62l10 -10v-78h-17l-8 -10v-137l-57 -84q2 -2 2 -10q0 -27 -29 -27 t-28 35zM547 1432q0 -18 18 -19q21 1 21 19q0 20 -21 20q-18 0 -18 -20z" />
<glyph unicode="&#xca;" horiz-adv-x="698" d="M53 100v164v107.5t2 150.5v260q0 59 33 80l92 62q16 12 17 57v289q0 125 110 125h248q98 0 98 -66q0 -29 -17.5 -48t-55.5 -19h-45q-53 0 -54 -50v-243q0 -51 58 -54q41 -2 63.5 -8t33.5 -15t14 -20.5t3 -21.5q0 -27 -20.5 -47.5t-44.5 -20.5h-359q-70 0 -69 -88v-313 q0 -76 69 -76h357q14 0 40.5 -19.5t26.5 -33.5v-258q0 -63 -67 -64h-393q-78 0 -109 37t-31 133zM127 129q0 -57 63 -57h330q64 0 64 57q0 61 -64 61h-330q-63 0 -63 -61zM174 1858l189 223h135l192 -223h-145l-115 151l-112 -151h-144zM217 1671v78l10 10h62l12 -10v-78 h-12l-10 -10v-137l6 -66q6 0 10 2q23 0 22 -22q1 -35 -28 -35q-33 0 -33 27q0 8 6 14q-4 14 -10 33.5t-10 46.5v137l-9 10h-16zM244 444v166q0 66 63 66q66 0 66 -66v-166q0 -63 -66 -63q-25 0 -44 19.5t-19 43.5zM264 1432q0 -20 23 -21q18 1 18 21q0 23 -18 22 q-23 0 -23 -22zM309 1671v78l10 10h62l12 -10v-78h-12l-10 -10v-203q14 -2 14 -20q0 -20 -14.5 -26.5t-22.5 -6.5q-23 0 -22 25q0 18 8 28v203l-8 10h-17zM336 1432q0 -18 18 -19q19 1 19 19q0 20 -19 20q-18 0 -18 -20zM389 1438q0 20 21 20h12q2 33 3 83t1 120l-12 10h-11 v78l11 10h63l8 -10v-78h-16l-6 -10q2 -20 3 -39.5t1 -36.5q0 -84 -23 -141q2 -2 2 -8q0 -33 -26 -33q-31 0 -31 35zM403 1432q0 -18 19 -19q18 1 18 19q0 20 -18 20t-19 -20zM535 1438q0 20 22 20h12l41 66v137l-10 10h-12v78l12 10h62l10 -10v-78h-17l-8 -10v-137l-57 -84 q2 -2 2 -10q0 -27 -29 -27t-28 35zM547 1432q0 -18 18 -19q21 1 21 19q0 20 -21 20q-18 0 -18 -20z" />
<glyph unicode="&#xcb;" horiz-adv-x="698" d="M53 100v164v107.5t2 150.5v260q0 59 33 80l92 62q16 12 17 57v289q0 125 110 125h248q98 0 98 -66q0 -29 -17.5 -48t-55.5 -19h-45q-53 0 -54 -50v-243q0 -51 58 -54q41 -2 63.5 -8t33.5 -15t14 -20.5t3 -21.5q0 -27 -20.5 -47.5t-44.5 -20.5h-359q-70 0 -69 -88v-313 q0 -76 69 -76h357q14 0 40.5 -19.5t26.5 -33.5v-258q0 -63 -67 -64h-393q-78 0 -109 37t-31 133zM127 129q0 -57 63 -57h330q64 0 64 57q0 61 -64 61h-330q-63 0 -63 -61zM176 1991q0 45 28.5 75.5t75.5 30.5q43 0 75 -30.5t32 -75.5t-32 -76t-75 -31q-47 0 -75.5 31 t-28.5 76zM217 1671v78l10 10h62l12 -10v-78h-12l-10 -10v-137l6 -66q6 0 10 2q23 0 22 -22q1 -35 -28 -35q-33 0 -33 27q0 8 6 14q-4 14 -10 33.5t-10 46.5v137l-9 10h-16zM244 444v166q0 66 63 66q66 0 66 -66v-166q0 -63 -66 -63q-25 0 -44 19.5t-19 43.5zM264 1432 q0 -20 23 -21q18 1 18 21q0 23 -18 22q-23 0 -23 -22zM309 1671v78l10 10h62l12 -10v-78h-12l-10 -10v-203q14 -2 14 -20q0 -20 -14.5 -26.5t-22.5 -6.5q-23 0 -22 25q0 18 8 28v203l-8 10h-17zM336 1432q0 -18 18 -19q19 1 19 19q0 20 -19 20q-18 0 -18 -20zM389 1438 q0 20 21 20h12q2 33 3 83t1 120l-12 10h-11v78l11 10h63l8 -10v-78h-16l-6 -10q2 -20 3 -39.5t1 -36.5q0 -84 -23 -141q2 -2 2 -8q0 -33 -26 -33q-31 0 -31 35zM403 1432q0 -18 19 -19q18 1 18 19q0 20 -18 20t-19 -20zM495 1991q0 45 31 75.5t74 30.5q45 0 74.5 -30.5 t29.5 -75.5t-29.5 -76t-74.5 -31q-43 0 -74 31t-31 76zM535 1438q0 20 22 20h12l41 66v137l-10 10h-12v78l12 10h62l10 -10v-78h-17l-8 -10v-137l-57 -84q2 -2 2 -10q0 -27 -29 -27t-28 35zM547 1432q0 -18 18 -19q21 1 21 19q0 20 -21 20q-18 0 -18 -20z" />
<glyph unicode="&#xcc;" horiz-adv-x="516" d="M-8 2058h155l129 -225h-88zM37 154q0 84 28.5 117.5t63.5 47t63.5 20.5t28.5 40v946q0 2 3 14.5t9.5 24.5t17.5 23.5t28 15.5q-20 4 -21 18q0 12 4 19l-59 84v137l-6 10h-17v78l10 10h62l12 -10v-78h-12l-10 -10v-137l41 -66q4 2 12 2q23 0 22 -22q0 -27 -16 -33 q8 0 19.5 -9.5t20.5 -21.5t15 -26.5t6 -22.5v-936q0 -33 25 -51l51 -39q29 -18 35 -111q0 2 -2 2q-2 -12 -2 -30v-92q0 -137 -143 -138h-152q-39 0 -64.5 9.5t-42 34t-23.5 67.5t-7 113zM109 129q0 -57 63 -57h182q62 0 62 57q0 61 -62 61h-182q-63 0 -63 -61zM268 1432 q0 -18 19 -19q20 1 20 19q0 20 -20 20q-18 0 -19 -20z" />
<glyph unicode="&#xcd;" horiz-adv-x="516" d="M37 154q0 84 28.5 117.5t63.5 47t63.5 20.5t28.5 40v946q0 2 3 14.5t9.5 24.5t17.5 23.5t28 15.5q-20 4 -21 18q0 12 4 19l-59 84v137l-6 10h-17v78l10 10h62l12 -10v-78h-12l-10 -10v-137l41 -66q4 2 12 2q23 0 22 -22q0 -27 -16 -33q8 0 19.5 -9.5t20.5 -21.5t15 -26.5 t6 -22.5v-936q0 -33 25 -51l51 -39q29 -18 35 -111q0 2 -2 2q-2 -12 -2 -30v-92q0 -137 -143 -138h-152q-39 0 -64.5 9.5t-42 34t-23.5 67.5t-7 113zM109 129q0 -57 63 -57h182q62 0 62 57q0 61 -62 61h-182q-63 0 -63 -61zM172 1837l127 225h158l-197 -225h-88zM268 1432 q0 -18 19 -19q20 1 20 19q0 20 -20 20q-18 0 -19 -20z" />
<glyph unicode="&#xce;" horiz-adv-x="516" d="M6 1858l189 223h135l192 -223h-145l-115 151l-112 -151h-144zM37 154q0 84 28.5 117.5t63.5 47t63.5 20.5t28.5 40v946q0 2 3 14.5t9.5 24.5t17.5 23.5t28 15.5q-20 4 -21 18q0 12 4 19l-59 84v137l-6 10h-17v78l10 10h62l12 -10v-78h-12l-10 -10v-137l41 -66q4 2 12 2 q23 0 22 -22q0 -27 -16 -33q8 0 19.5 -9.5t20.5 -21.5t15 -26.5t6 -22.5v-936q0 -33 25 -51l51 -39q29 -18 35 -111q0 2 -2 2q-2 -12 -2 -30v-92q0 -137 -143 -138h-152q-39 0 -64.5 9.5t-42 34t-23.5 67.5t-7 113zM109 129q0 -57 63 -57h182q62 0 62 57q0 61 -62 61h-182 q-63 0 -63 -61zM268 1432q0 -18 19 -19q20 1 20 19q0 20 -20 20q-18 0 -19 -20z" />
<glyph unicode="&#xcf;" horiz-adv-x="516" d="M2 1991q0 45 28.5 75.5t75.5 30.5q43 0 75 -30.5t32 -75.5t-32 -76t-75 -31q-47 0 -75.5 31t-28.5 76zM37 154q0 84 28.5 117.5t63.5 47t63.5 20.5t28.5 40v946q0 2 3 14.5t9.5 24.5t17.5 23.5t28 15.5q-20 4 -21 18q0 12 4 19l-59 84v137l-6 10h-17v78l10 10h62l12 -10 v-78h-12l-10 -10v-137l41 -66q4 2 12 2q23 0 22 -22q0 -27 -16 -33q8 0 19.5 -9.5t20.5 -21.5t15 -26.5t6 -22.5v-936q0 -33 25 -51l51 -39q29 -18 35 -111q0 2 -2 2q-2 -12 -2 -30v-92q0 -137 -143 -138h-152q-39 0 -64.5 9.5t-42 34t-23.5 67.5t-7 113zM109 129 q0 -57 63 -57h182q62 0 62 57q0 61 -62 61h-182q-63 0 -63 -61zM268 1432q0 -18 19 -19q20 1 20 19q0 20 -20 20q-18 0 -19 -20zM321 1991q0 45 31 75.5t74 30.5q45 0 74.5 -30.5t29.5 -75.5t-29.5 -76t-74.5 -31q-43 0 -74 31t-31 76z" />
<glyph unicode="&#xd1;" horiz-adv-x="927" d="M51 1671v78l8 10h64l12 -10v-78h-12l-12 -10v-137l43 -66q4 2 10 2q25 0 24 -22q1 -35 -28 -35q-31 0 -31 22q0 8 2 15l-57 84v137l-6 10h-17zM59 2v1284q0 106 117 107h133q113 0 121 -107l80 -893q6 -80 125 -80q53 0 73.5 28t20.5 108v862q0 82 72 82q70 0 69 -82 v-1225q0 -158 -116 -158h-238q-43 0 -80 26t-45 64l-74 373q-10 43 -55 43q-63 0 -63 -55v-377q0 -92 -74 -92q-66 0 -66 92zM139 1432q0 -18 19 -19q20 1 20 19q0 20 -20 20q-18 0 -19 -20zM143 1671v78l11 10h61l12 -10v-78h-12l-12 -10v-137l24 -66q4 2 11 2q25 0 24 -22 q0 -35 -29 -35q-31 0 -30 20q0 4 4 17l-41 84v137l-6 10h-17zM184 1919q35 63 77 92t95 29q43 0 69.5 -10.5t48 -21.5t42 -21.5t51.5 -10.5q68 0 104 78l72 -82q-41 -111 -168 -110q-31 0 -56.5 10t-49 22.5t-46 22.5t-49.5 10t-54.5 -17.5t-55.5 -60.5zM213 1432 q0 -18 18 -19q21 1 21 19q0 20 -21 20q-18 0 -18 -20zM236 1671v78l10 10h61l12 -10v-78h-12l-10 -10v-137l6 -66q6 0 10 2q23 0 23 -22q0 -35 -29 -35q-33 0 -33 27q0 8 7 14q-4 14 -10.5 33.5t-10.5 46.5v137l-8 10h-16zM283 1432q0 -20 22 -21q19 1 19 21q0 23 -19 22 q-23 0 -22 -22zM442 129q0 -57 62 -57h258q61 0 61 57q0 61 -61 61h-258q-61 0 -62 -61zM776 1438q0 20 23 20h12l41 66v137l-12 10h-11v78l11 10h63l8 -10v-78h-16l-6 -10v-137l-58 -84q2 -2 3 -10q0 -27 -31 -27q-27 0 -27 35zM786 1432q0 -18 19 -19q20 1 20 19 q0 20 -20 20q-18 0 -19 -20z" />
<glyph unicode="&#xd2;" d="M55 74v1167q0 154 156 154h414q59 0 89.5 -46t30.5 -108v-1149q0 -162 -147 -162h-362q-180 0 -181 144zM88 1671v78l8 10h64l12 -10v-78h-12l-13 -10v-137l43 -66q4 2 11 2q25 0 24 -22q1 -35 -28 -35q-31 0 -31 22q0 8 2 15l-57 84v137l-7 10h-16zM145 129 q0 -57 64 -57h385q63 0 63 57q0 61 -63 61h-385q-63 0 -64 -61zM176 1432q0 -18 19 -19q20 1 20 19q0 20 -20 20q-18 0 -19 -20zM195 2058h155l129 -225h-88zM197 428q0 -129 92 -129h203q68 0 90 29.5t22 99.5v709q0 125 -112 125h-203q-92 0 -92 -125v-709zM305 582v131 q0 63 47 63h101q57 0 57 -63v-131q0 -68 -57 -68h-101q-47 0 -47 68zM444 1438q0 20 21 20h12q2 33 3 83t1 120l-12 10h-10v78l10 10h63l9 -10v-78h-15l-8 -10q2 -20 3 -39.5t1 -36.5q0 -84 -22 -141q2 -2 2 -8q0 -33 -27 -33q-31 0 -31 35zM459 1432q0 -18 18 -19 q19 1 19 19q0 20 -19 20q-18 0 -18 -20zM516 1438q0 20 23 20h12l22 66v137l-10 10h-12v78l12 10h62l10 -10v-78h-17l-8 -10v-137l-39 -84q2 -2 2 -10q0 -27 -28 -27q-29 0 -29 35zM528 1432q0 -18 19 -19q20 1 20 19q0 20 -20 20q-18 0 -19 -20zM590 1438q0 20 22 20h13 l41 66v137l-11 10h-12v78l12 10h62l10 -10v-78h-16l-6 -10v-137l-60 -84q2 -2 2 -10q0 -27 -29 -27t-28 35zM602 1432q0 -18 19 -19q20 1 20 19q0 20 -20 20q-18 0 -19 -20z" />
<glyph unicode="&#xd3;" d="M55 74v1167q0 154 156 154h414q59 0 89.5 -46t30.5 -108v-1149q0 -162 -147 -162h-362q-180 0 -181 144zM88 1671v78l8 10h64l12 -10v-78h-12l-13 -10v-137l43 -66q4 2 11 2q25 0 24 -22q1 -35 -28 -35q-31 0 -31 22q0 8 2 15l-57 84v137l-7 10h-16zM145 129 q0 -57 64 -57h385q63 0 63 57q0 61 -63 61h-385q-63 0 -64 -61zM176 1432q0 -18 19 -19q20 1 20 19q0 20 -20 20q-18 0 -19 -20zM197 428q0 -129 92 -129h203q68 0 90 29.5t22 99.5v709q0 125 -112 125h-203q-92 0 -92 -125v-709zM258 1837l127 225h158l-197 -225h-88z M305 582v131q0 63 47 63h101q57 0 57 -63v-131q0 -68 -57 -68h-101q-47 0 -47 68zM444 1438q0 20 21 20h12q2 33 3 83t1 120l-12 10h-10v78l10 10h63l9 -10v-78h-15l-8 -10q2 -20 3 -39.5t1 -36.5q0 -84 -22 -141q2 -2 2 -8q0 -33 -27 -33q-31 0 -31 35zM459 1432 q0 -18 18 -19q19 1 19 19q0 20 -19 20q-18 0 -18 -20zM516 1438q0 20 23 20h12l22 66v137l-10 10h-12v78l12 10h62l10 -10v-78h-17l-8 -10v-137l-39 -84q2 -2 2 -10q0 -27 -28 -27q-29 0 -29 35zM528 1432q0 -18 19 -19q20 1 20 19q0 20 -20 20q-18 0 -19 -20zM590 1438 q0 20 22 20h13l41 66v137l-11 10h-12v78l12 10h62l10 -10v-78h-16l-6 -10v-137l-60 -84q2 -2 2 -10q0 -27 -29 -27t-28 35zM602 1432q0 -18 19 -19q20 1 20 19q0 20 -20 20q-18 0 -19 -20z" />
<glyph unicode="&#xd4;" d="M55 74v1167q0 154 156 154h414q59 0 89.5 -46t30.5 -108v-1149q0 -162 -147 -162h-362q-180 0 -181 144zM88 1671v78l8 10h64l12 -10v-78h-12l-13 -10v-137l43 -66q4 2 11 2q25 0 24 -22q1 -35 -28 -35q-31 0 -31 22q0 8 2 15l-57 84v137l-7 10h-16zM141 1858l189 223 h135l192 -223h-145l-115 151l-112 -151h-144zM145 129q0 -57 64 -57h385q63 0 63 57q0 61 -63 61h-385q-63 0 -64 -61zM176 1432q0 -18 19 -19q20 1 20 19q0 20 -20 20q-18 0 -19 -20zM197 428q0 -129 92 -129h203q68 0 90 29.5t22 99.5v709q0 125 -112 125h-203 q-92 0 -92 -125v-709zM305 582v131q0 63 47 63h101q57 0 57 -63v-131q0 -68 -57 -68h-101q-47 0 -47 68zM444 1438q0 20 21 20h12q2 33 3 83t1 120l-12 10h-10v78l10 10h63l9 -10v-78h-15l-8 -10q2 -20 3 -39.5t1 -36.5q0 -84 -22 -141q2 -2 2 -8q0 -33 -27 -33 q-31 0 -31 35zM459 1432q0 -18 18 -19q19 1 19 19q0 20 -19 20q-18 0 -18 -20zM516 1438q0 20 23 20h12l22 66v137l-10 10h-12v78l12 10h62l10 -10v-78h-17l-8 -10v-137l-39 -84q2 -2 2 -10q0 -27 -28 -27q-29 0 -29 35zM528 1432q0 -18 19 -19q20 1 20 19q0 20 -20 20 q-18 0 -19 -20zM590 1438q0 20 22 20h13l41 66v137l-11 10h-12v78l12 10h62l10 -10v-78h-16l-6 -10v-137l-60 -84q2 -2 2 -10q0 -27 -29 -27t-28 35zM602 1432q0 -18 19 -19q20 1 20 19q0 20 -20 20q-18 0 -19 -20z" />
<glyph unicode="&#xd5;" d="M55 74v1167q0 154 156 154h414q59 0 89.5 -46t30.5 -108v-1149q0 -162 -147 -162h-362q-180 0 -181 144zM88 1671v78l8 10h64l12 -10v-78h-12l-13 -10v-137l43 -66q4 2 11 2q25 0 24 -22q1 -35 -28 -35q-31 0 -31 22q0 8 2 15l-57 84v137l-7 10h-16zM121 1919 q35 63 77 92t95 29q43 0 69.5 -10.5t48 -21.5t42 -21.5t51.5 -10.5q68 0 104 78l72 -82q-41 -111 -168 -110q-31 0 -56.5 10t-49 22.5t-46 22.5t-49.5 10t-54.5 -17.5t-55.5 -60.5zM145 129q0 -57 64 -57h385q63 0 63 57q0 61 -63 61h-385q-63 0 -64 -61zM176 1432 q0 -18 19 -19q20 1 20 19q0 20 -20 20q-18 0 -19 -20zM197 428q0 -129 92 -129h203q68 0 90 29.5t22 99.5v709q0 125 -112 125h-203q-92 0 -92 -125v-709zM305 582v131q0 63 47 63h101q57 0 57 -63v-131q0 -68 -57 -68h-101q-47 0 -47 68zM444 1438q0 20 21 20h12q2 33 3 83 t1 120l-12 10h-10v78l10 10h63l9 -10v-78h-15l-8 -10q2 -20 3 -39.5t1 -36.5q0 -84 -22 -141q2 -2 2 -8q0 -33 -27 -33q-31 0 -31 35zM459 1432q0 -18 18 -19q19 1 19 19q0 20 -19 20q-18 0 -18 -20zM516 1438q0 20 23 20h12l22 66v137l-10 10h-12v78l12 10h62l10 -10v-78 h-17l-8 -10v-137l-39 -84q2 -2 2 -10q0 -27 -28 -27q-29 0 -29 35zM528 1432q0 -18 19 -19q20 1 20 19q0 20 -20 20q-18 0 -19 -20zM590 1438q0 20 22 20h13l41 66v137l-11 10h-12v78l12 10h62l10 -10v-78h-16l-6 -10v-137l-60 -84q2 -2 2 -10q0 -27 -29 -27t-28 35z M602 1432q0 -18 19 -19q20 1 20 19q0 20 -20 20q-18 0 -19 -20z" />
<glyph unicode="&#xd6;" d="M55 74v1167q0 154 156 154h414q59 0 89.5 -46t30.5 -108v-1149q0 -162 -147 -162h-362q-180 0 -181 144zM88 1671v78l8 10h64l12 -10v-78h-12l-13 -10v-137l43 -66q4 2 11 2q25 0 24 -22q1 -35 -28 -35q-31 0 -31 22q0 8 2 15l-57 84v137l-7 10h-16zM137 1991 q0 45 28.5 75.5t75.5 30.5q43 0 75 -30.5t32 -75.5t-32 -76t-75 -31q-47 0 -75.5 31t-28.5 76zM145 129q0 -57 64 -57h385q63 0 63 57q0 61 -63 61h-385q-63 0 -64 -61zM176 1432q0 -18 19 -19q20 1 20 19q0 20 -20 20q-18 0 -19 -20zM197 428q0 -129 92 -129h203 q68 0 90 29.5t22 99.5v709q0 125 -112 125h-203q-92 0 -92 -125v-709zM305 582v131q0 63 47 63h101q57 0 57 -63v-131q0 -68 -57 -68h-101q-47 0 -47 68zM444 1438q0 20 21 20h12q2 33 3 83t1 120l-12 10h-10v78l10 10h63l9 -10v-78h-15l-8 -10q2 -20 3 -39.5t1 -36.5 q0 -84 -22 -141q2 -2 2 -8q0 -33 -27 -33q-31 0 -31 35zM456 1991q0 45 31 75.5t74 30.5q45 0 74.5 -30.5t29.5 -75.5t-29.5 -76t-74.5 -31q-43 0 -74 31t-31 76zM459 1432q0 -18 18 -19q19 1 19 19q0 20 -19 20q-18 0 -18 -20zM516 1438q0 20 23 20h12l22 66v137l-10 10 h-12v78l12 10h62l10 -10v-78h-17l-8 -10v-137l-39 -84q2 -2 2 -10q0 -27 -28 -27q-29 0 -29 35zM528 1432q0 -18 19 -19q20 1 20 19q0 20 -20 20q-18 0 -19 -20zM590 1438q0 20 22 20h13l41 66v137l-11 10h-12v78l12 10h62l10 -10v-78h-16l-6 -10v-137l-60 -84q2 -2 2 -10 q0 -27 -29 -27t-28 35zM602 1432q0 -18 19 -19q20 1 20 19q0 20 -20 20q-18 0 -19 -20z" />
<glyph unicode="&#xd8;" d="M55 74v1167q0 154 156 154h389l10 8q-20 2 -20 35q0 20 20 20h15l41 66v137l-11 10h-12v78l12 10h62l10 -10v-78h-16l-6 -10v-137l-60 -84q2 -2 2 -10q0 -18 -10 -23l10 -8q98 -23 98 -158v-1149q0 -162 -147 -162h-362q-41 0 -72 7h-4q-25 0 -43.5 13t-32.5 32.5 t-21.5 44t-7.5 47.5zM88 1671v78l8 10h64l12 -10v-78h-12l-13 -10v-137l43 -66q2 2 11 2q25 0 24 -22q1 -35 -28 -35q-33 0 -33 20q0 2 1 5.5t3 11.5l-57 84v137l-7 10h-16zM176 1432q0 -18 19 -19q20 1 20 19q0 20 -20 20q-18 0 -19 -20zM197 428q0 -80 34 -111 q53 160 129 391.5t181 542.5q-20 10 -49 11h-203q-92 0 -92 -125v-709zM317 299h175q68 0 90 29.5t22 99.5v725zM444 1438q0 20 21 20h12q2 33 3 83t1 120l-12 10h-10v78l10 10h63l9 -10v-78h-15l-8 -10q2 -20 2 -38.5v-37.5q0 -88 -20 -141q2 -2 2 -8q0 -33 -27 -33 q-31 0 -31 35zM459 1432q0 -18 18 -19q19 1 19 19q0 20 -19 20q-18 0 -18 -20zM516 1438q0 20 21 20h14l22 66v137l-10 10h-12v78l12 10h62l10 -10v-78h-17l-8 -10v-137l-39 -84q2 -2 2 -10q0 -27 -28 -27q-29 0 -29 35zM528 1432q0 -18 19 -19q20 1 20 19q0 20 -20 20 q-18 0 -19 -20zM602 1432q0 -18 19 -19q20 1 20 19q0 20 -20 20q-18 0 -19 -20z" />
<glyph unicode="&#xd9;" horiz-adv-x="811" d="M14 1671v78l9 10h63l10 -10v-78h-10l-12 -10v-137l43 -66q4 2 10 2q23 0 23 -22q0 -20 -9 -29q20 -6 38 -24.5t18 -38.5v-975q0 -72 88 -72h247q43 0 58.5 17.5t15.5 82.5v916q0 92 74 92h7t9 -2q-12 8 -12 33q0 20 21 20h12q6 63 6 203l-12 10h-13v78l13 10h61l10 -10 v-78h-16l-6 -10q2 -18 2 -34.5v-33.5q0 -94 -21 -149q2 -2 2 -8q0 -33 -28 -33h-4q37 -12 37 -57v-1268q0 -80 -34 -114t-116 -34h-389q-154 0 -154 148v1237q0 78 45 92q-10 4 -10 16q0 4 4 17l-57 84v137l-6 10h-17zM102 1432q0 -18 19 -19q20 1 20 19q0 20 -20 20 q-18 0 -19 -20zM106 1671v78l11 10h61l12 -10v-78h-12l-12 -10v-137l24 -66q4 2 11 2q25 0 24 -22q1 -35 -28 -35q-31 0 -31 22q0 8 2 15l-39 84v137l-6 10h-17zM127 129q0 -57 63 -57h422q64 0 64 57q0 61 -64 61h-422q-63 0 -63 -61zM176 1432q0 -18 19 -19q20 1 20 19 q0 20 -20 20q-18 0 -19 -20zM263 2058h155l129 -225h-88zM422 444v166q0 66 63 66q66 0 66 -66v-166q0 -63 -66 -63q-25 0 -44 19.5t-19 43.5zM606 1671v78l10 10h62l12 -10v-78h-12l-12 -10v-203q14 -2 14 -20q0 -20 -13.5 -26.5t-23.5 -6.5q-20 0 -20 25q0 16 6 28v203 l-6 10h-17zM631 1432q0 -18 20 -19q19 1 19 19q0 20 -19 20q-20 0 -20 -20zM698 1432q0 -18 19 -19q18 1 18 19q0 20 -18 20t-19 -20z" />
<glyph unicode="&#xda;" horiz-adv-x="811" d="M14 1671v78l9 10h63l10 -10v-78h-10l-12 -10v-137l43 -66q4 2 10 2q23 0 23 -22q0 -20 -9 -29q20 -6 38 -24.5t18 -38.5v-975q0 -72 88 -72h247q43 0 58.5 17.5t15.5 82.5v916q0 92 74 92h7t9 -2q-12 8 -12 33q0 20 21 20h12q6 63 6 203l-12 10h-13v78l13 10h61l10 -10 v-78h-16l-6 -10q2 -18 2 -34.5v-33.5q0 -94 -21 -149q2 -2 2 -8q0 -33 -28 -33h-4q37 -12 37 -57v-1268q0 -80 -34 -114t-116 -34h-389q-154 0 -154 148v1237q0 78 45 92q-10 4 -10 16q0 4 4 17l-57 84v137l-6 10h-17zM102 1432q0 -18 19 -19q20 1 20 19q0 20 -20 20 q-18 0 -19 -20zM106 1671v78l11 10h61l12 -10v-78h-12l-12 -10v-137l24 -66q4 2 11 2q25 0 24 -22q1 -35 -28 -35q-31 0 -31 22q0 8 2 15l-39 84v137l-6 10h-17zM127 129q0 -57 63 -57h422q64 0 64 57q0 61 -64 61h-422q-63 0 -63 -61zM176 1432q0 -18 19 -19q20 1 20 19 q0 20 -20 20q-18 0 -19 -20zM262 1837l127 225h158l-197 -225h-88zM422 444v166q0 66 63 66q66 0 66 -66v-166q0 -63 -66 -63q-25 0 -44 19.5t-19 43.5zM606 1671v78l10 10h62l12 -10v-78h-12l-12 -10v-203q14 -2 14 -20q0 -20 -13.5 -26.5t-23.5 -6.5q-20 0 -20 25 q0 16 6 28v203l-6 10h-17zM631 1432q0 -18 20 -19q19 1 19 19q0 20 -19 20q-20 0 -20 -20zM698 1432q0 -18 19 -19q18 1 18 19q0 20 -18 20t-19 -20z" />
<glyph unicode="&#xdb;" horiz-adv-x="811" d="M14 1671v78l9 10h63l10 -10v-78h-10l-12 -10v-137l43 -66q4 2 10 2q23 0 23 -22q0 -20 -9 -29q20 -6 38 -24.5t18 -38.5v-975q0 -72 88 -72h247q43 0 58.5 17.5t15.5 82.5v916q0 92 74 92h7t9 -2q-12 8 -12 33q0 20 21 20h12q6 63 6 203l-12 10h-13v78l13 10h61l10 -10 v-78h-16l-6 -10q2 -18 2 -34.5v-33.5q0 -94 -21 -149q2 -2 2 -8q0 -33 -28 -33h-4q37 -12 37 -57v-1268q0 -80 -34 -114t-116 -34h-389q-154 0 -154 148v1237q0 78 45 92q-10 4 -10 16q0 4 4 17l-57 84v137l-6 10h-17zM102 1432q0 -18 19 -19q20 1 20 19q0 20 -20 20 q-18 0 -19 -20zM106 1671v78l11 10h61l12 -10v-78h-12l-12 -10v-137l24 -66q4 2 11 2q25 0 24 -22q1 -35 -28 -35q-31 0 -31 22q0 8 2 15l-39 84v137l-6 10h-17zM127 129q0 -57 63 -57h422q64 0 64 57q0 61 -64 61h-422q-63 0 -63 -61zM145 1858l189 223h135l192 -223h-145 l-115 151l-112 -151h-144zM176 1432q0 -18 19 -19q20 1 20 19q0 20 -20 20q-18 0 -19 -20zM422 444v166q0 66 63 66q66 0 66 -66v-166q0 -63 -66 -63q-25 0 -44 19.5t-19 43.5zM606 1671v78l10 10h62l12 -10v-78h-12l-12 -10v-203q14 -2 14 -20q0 -20 -13.5 -26.5 t-23.5 -6.5q-20 0 -20 25q0 16 6 28v203l-6 10h-17zM631 1432q0 -18 20 -19q19 1 19 19q0 20 -19 20q-20 0 -20 -20zM698 1432q0 -18 19 -19q18 1 18 19q0 20 -18 20t-19 -20z" />
<glyph unicode="&#xdc;" horiz-adv-x="811" d="M14 1671v78l9 10h63l10 -10v-78h-10l-12 -10v-137l43 -66q4 2 10 2q23 0 23 -22q0 -20 -9 -29q20 -6 38 -24.5t18 -38.5v-975q0 -72 88 -72h247q43 0 58.5 17.5t15.5 82.5v916q0 92 74 92h7t9 -2q-12 8 -12 33q0 20 21 20h12q6 63 6 203l-12 10h-13v78l13 10h61l10 -10 v-78h-16l-6 -10q2 -18 2 -34.5v-33.5q0 -94 -21 -149q2 -2 2 -8q0 -33 -28 -33h-4q37 -12 37 -57v-1268q0 -80 -34 -114t-116 -34h-389q-154 0 -154 148v1237q0 78 45 92q-10 4 -10 16q0 4 4 17l-57 84v137l-6 10h-17zM102 1432q0 -18 19 -19q20 1 20 19q0 20 -20 20 q-18 0 -19 -20zM106 1671v78l11 10h61l12 -10v-78h-12l-12 -10v-137l24 -66q4 2 11 2q25 0 24 -22q1 -35 -28 -35q-31 0 -31 22q0 8 2 15l-39 84v137l-6 10h-17zM127 129q0 -57 63 -57h422q64 0 64 57q0 61 -64 61h-422q-63 0 -63 -61zM141 1991q0 45 28.5 75.5t75.5 30.5 q43 0 75 -30.5t32 -75.5t-32 -76t-75 -31q-47 0 -75.5 31t-28.5 76zM176 1432q0 -18 19 -19q20 1 20 19q0 20 -20 20q-18 0 -19 -20zM422 444v166q0 66 63 66q66 0 66 -66v-166q0 -63 -66 -63q-25 0 -44 19.5t-19 43.5zM460 1991q0 45 31 75.5t74 30.5q45 0 74.5 -30.5 t29.5 -75.5t-29.5 -76t-74.5 -31q-43 0 -74 31t-31 76zM606 1671v78l10 10h62l12 -10v-78h-12l-12 -10v-203q14 -2 14 -20q0 -20 -13.5 -26.5t-23.5 -6.5q-20 0 -20 25q0 16 6 28v203l-6 10h-17zM631 1432q0 -18 20 -19q19 1 19 19q0 20 -19 20q-20 0 -20 -20zM698 1432 q0 -18 19 -19q18 1 18 19q0 20 -18 20t-19 -20z" />
<glyph unicode="&#xdd;" horiz-adv-x="868" d="M14 1671v78l9 10h63l10 -10v-78h-10l-12 -10v-137l43 -66q4 2 10 2q23 0 23 -22q0 -35 -27 -35q-31 0 -31 22q0 8 2 15l-57 84v137l-6 10h-17zM55 625v690q0 80 70 80q72 0 72 -49v-699q0 -29 45 -49q186 -92 192 -92q16 0 17 24v752q0 70 49 91.5t123 21.5 q86 0 135 -22.5t49 -90.5v-829q0 -152 -170 -152q-18 0 -19 -33v-268q0 -70 -69 -70q-72 0 -72 70v313q0 31 -63 58l-289 123q-70 31 -70 131zM82 18v166q0 63 63 64q66 0 66 -64v-166q0 -66 -66 -65q-25 0 -44 20.5t-19 44.5zM102 1432q0 -18 19 -19q20 1 20 19 q0 20 -20 20q-18 0 -19 -20zM106 1671v78l11 10h61l12 -10v-78h-12l-12 -10v-137l24 -66q4 2 11 2q25 0 24 -22q1 -35 -28 -35q-31 0 -31 22q0 8 2 15l-39 84v137l-6 10h-17zM176 1432q0 -18 19 -19q20 1 20 19q0 20 -20 20q-18 0 -19 -20zM272 1671v78l11 10h61l12 -10v-78 h-12l-10 -10v-981q14 -2 14 -21q0 -20 -14.5 -26t-24.5 -6q-20 0 -20 26q0 18 8 27l-8 991h-17zM293 1837l127 225h158l-197 -225h-88zM299 655q0 -18 18 -18q19 0 19 18t-19 19q-18 0 -18 -19zM555 1438q0 20 20 20h13q2 33 3 83t1 120l-10 10h-13v78l13 10h61l10 -10v-78 h-16l-8 -10q2 -20 3 -39.5t1 -36.5q0 -84 -23 -141q2 -2 2 -8q0 -33 -26 -33q-31 0 -31 35zM569 1432q0 -18 19 -19q18 1 18 19q0 20 -18 20t-19 -20zM627 1438q0 20 22 20h13l22 66v137l-10 10h-12v78l12 10h61l10 -10v-78h-16l-6 -10v-137l-41 -84q2 -2 2 -10 q0 -27 -29 -27t-28 35zM639 1432q0 -18 18 -19q21 1 21 19q0 20 -21 20q-18 0 -18 -20zM700 1438q0 20 23 20h12l43 66v137l-12 10h-12v78l12 10h63l9 -10v-78h-17l-6 -10v-137l-57 -84q2 -2 2 -10q0 -27 -31 -27q-29 0 -29 35zM713 1432q0 -18 18 -19q21 1 21 19 q0 20 -21 20q-18 0 -18 -20z" />
<glyph unicode="&#xdf;" horiz-adv-x="1630" d="M37 -20v258q0 57 67 63l134 12q70 18 69 99v260q0 80 -24.5 114.5t-94.5 34.5h-22q-66 0 -88.5 29t-22.5 96v318q0 131 127 131h146q84 0 84 -70q0 -10 -2 -21.5t-14.5 -20.5t-38 -15t-74.5 -6q-29 0 -45.5 -6.5t-25.5 -26t-12 -58t-3 -104.5q0 -70 26.5 -91.5 t95.5 -21.5h304q145 0 145 -131v-714q0 -57 -7 -92t-25.5 -54.5t-51.5 -26t-82 -6.5h-498q-37 0 -67 50zM70 1671v78l8 10h63l13 -10v-78h-13l-12 -10v-137l43 -66q4 2 10 2q25 0 25 -22q0 -35 -29 -35q-31 0 -31 22q0 8 3 15l-58 84v137l-6 10h-16zM127 129q0 -57 63 -57 h404q63 0 63 57q0 61 -63 61h-404q-63 0 -63 -61zM158 1432q0 -18 18 -19q21 1 21 19q0 20 -21 20q-18 0 -18 -20zM162 1671v78l10 10h61l13 -10v-78h-13l-12 -10v-137l25 -66q4 2 10 2q25 0 25 -22q0 -35 -29 -35q-31 0 -31 20q0 4 4 17l-41 84v137l-6 10h-16zM231 1432 q0 -18 19 -19q20 1 20 19q0 20 -20 20q-18 0 -19 -20zM254 1671v78l10 10h62l12 -10v-78h-12l-11 -10v-137l7 -66q6 0 10 2q23 0 22 -22q1 -35 -28 -35q-31 0 -31 27q0 6 4 14q-4 14 -10 33.5t-10 46.5v137l-9 10h-16zM301 1432q0 -20 23 -21q18 1 18 21q0 23 -18 22 q-23 0 -23 -22zM621 1167v166q0 61 63 62q66 0 66 -62v-166q0 -66 -66 -65q-25 0 -44 19.5t-19 45.5zM664 1438q0 20 22 20h12l43 66v137l-12 10h-12v78l12 10h62l10 -10v-78h-17l-6 -10v-137l-59 -84q4 -4 4 -10q0 -27 -31 -27q-29 0 -28 35zM676 1432q0 -18 18 -19 q21 1 21 19q0 20 -21 20q-18 0 -18 -20zM852 -20v258q0 57 67 63l134 12q70 18 69 99v260q0 80 -24.5 114.5t-94.5 34.5h-22q-66 0 -88.5 29t-22.5 96v318q0 131 127 131h146q84 0 84 -70q0 -10 -2 -21.5t-14.5 -20.5t-38 -15t-74.5 -6q-29 0 -45.5 -6.5t-25.5 -26t-12 -58 t-3 -104.5q0 -70 26.5 -91.5t95.5 -21.5h304q145 0 145 -131v-714q0 -57 -7 -92t-25.5 -54.5t-51.5 -26t-82 -6.5h-498q-37 0 -67 50zM885 1671v78l8 10h63l13 -10v-78h-13l-12 -10v-137l43 -66q4 2 10 2q25 0 25 -22q0 -35 -29 -35q-31 0 -31 22q0 8 3 15l-58 84v137l-6 10 h-16zM942 129q0 -57 63 -57h404q63 0 63 57q0 61 -63 61h-404q-63 0 -63 -61zM973 1432q0 -18 18 -19q21 1 21 19q0 20 -21 20q-18 0 -18 -20zM977 1671v78l10 10h61l13 -10v-78h-13l-12 -10v-137l25 -66q4 2 10 2q25 0 25 -22q0 -35 -29 -35q-31 0 -31 20q0 4 4 17l-41 84 v137l-6 10h-16zM1046 1432q0 -18 19 -19q20 1 20 19q0 20 -20 20q-18 0 -19 -20zM1069 1671v78l10 10h62l12 -10v-78h-12l-11 -10v-137l7 -66q6 0 10 2q23 0 22 -22q1 -35 -28 -35q-31 0 -31 27q0 6 4 14q-4 14 -10 33.5t-10 46.5v137l-9 10h-16zM1116 1432q0 -20 23 -21 q18 1 18 21q0 23 -18 22q-23 0 -23 -22zM1436 1167v166q0 61 63 62q66 0 66 -62v-166q0 -66 -66 -65q-25 0 -44 19.5t-19 45.5zM1479 1438q0 20 22 20h12l43 66v137l-12 10h-12v78l12 10h62l10 -10v-78h-17l-6 -10v-137l-59 -84q4 -4 4 -10q0 -27 -31 -27q-29 0 -28 35z M1491 1432q0 -18 18 -19q21 1 21 19q0 20 -21 20q-18 0 -18 -20z" />
<glyph unicode="&#xe0;" horiz-adv-x="925" d="M51 31v1200q0 164 195 164q115 0 164 -76l421 -664q16 -27 21.5 -57.5t9.5 -69.5v-465q0 -86 -23.5 -109.5t-80.5 -23.5h-209q-72 0 -72 86v197q0 86 82 86h45q68 0 68 59v308q0 94 -137 94h-230q-59 0 -59 -76v-326q0 -10 -1 -17t-1 -13q0 -23 23.5 -23t53 -1t53 -18.5 t23.5 -72.5v-207q0 -76 -78 -76h-182q-37 0 -61.5 32t-24.5 69zM58 2058h155l129 -225h-88zM88 1671v78l8 10h64l12 -10v-78h-12l-13 -10v-137l43 -66q4 2 11 2q25 0 24 -22q1 -35 -28 -35q-31 0 -31 22q0 8 2 15l-57 84v137l-7 10h-16zM127 129q0 -57 63 -57h72q62 0 62 57 q0 61 -62 61h-72q-63 0 -63 -61zM158 975q0 -61 19.5 -74.5t82.5 -13.5h152q37 0 37 33q0 20 -19 55l-90 172q-57 113 -127 113q-18 0 -36.5 -14.5t-18.5 -33.5v-237zM176 1432q0 -18 19 -19q20 1 20 19q0 20 -20 20q-18 0 -19 -20zM272 1671v78l11 10h61l12 -10v-78h-12 l-10 -10v-137l6 -66q6 0 10 2q23 0 23 -22q0 -35 -29 -35q-31 0 -31 27q0 6 4 14q-4 14 -10 33.5t-10 46.5v137l-8 10h-17zM319 1432q0 -20 23 -21q18 1 18 21q0 23 -18 22q-23 0 -23 -22zM479 1288q0 23 25 23h10l152 213v137l-11 10h-12v78l12 10h62l10 -10v-78h-16 l-6 -10v-137l-170 -232q2 -4 2 -10q0 -29 -31 -29q-27 0 -27 35zM492 1284q0 -18 18 -18q20 0 20 18t-20 19q-18 0 -18 -19zM553 129q0 -57 63 -57h127q62 0 62 57q0 61 -62 61h-127q-63 0 -63 -61zM692 1186v166q0 61 66 61q63 0 63 -61v-166q0 -66 -63 -66 q-27 0 -46.5 19.5t-19.5 46.5z" />
<glyph unicode="&#xe1;" horiz-adv-x="925" d="M51 31v1200q0 164 195 164q115 0 164 -76l421 -664q16 -27 21.5 -57.5t9.5 -69.5v-465q0 -86 -23.5 -109.5t-80.5 -23.5h-209q-72 0 -72 86v197q0 86 82 86h45q68 0 68 59v308q0 94 -137 94h-230q-59 0 -59 -76v-326q0 -10 -1 -17t-1 -13q0 -23 23.5 -23t53 -1t53 -18.5 t23.5 -72.5v-207q0 -76 -78 -76h-182q-37 0 -61.5 32t-24.5 69zM88 1671v78l8 10h64l12 -10v-78h-12l-13 -10v-137l43 -66q4 2 11 2q25 0 24 -22q1 -35 -28 -35q-31 0 -31 22q0 8 2 15l-57 84v137l-7 10h-16zM127 129q0 -57 63 -57h72q62 0 62 57q0 61 -62 61h-72 q-63 0 -63 -61zM133 1837l127 225h158l-197 -225h-88zM158 975q0 -61 19.5 -74.5t82.5 -13.5h152q37 0 37 33q0 20 -19 55l-90 172q-57 113 -127 113q-18 0 -36.5 -14.5t-18.5 -33.5v-237zM176 1432q0 -18 19 -19q20 1 20 19q0 20 -20 20q-18 0 -19 -20zM272 1671v78l11 10 h61l12 -10v-78h-12l-10 -10v-137l6 -66q6 0 10 2q23 0 23 -22q0 -35 -29 -35q-31 0 -31 27q0 6 4 14q-4 14 -10 33.5t-10 46.5v137l-8 10h-17zM319 1432q0 -20 23 -21q18 1 18 21q0 23 -18 22q-23 0 -23 -22zM479 1288q0 23 25 23h10l152 213v137l-11 10h-12v78l12 10h62 l10 -10v-78h-16l-6 -10v-137l-170 -232q2 -4 2 -10q0 -29 -31 -29q-27 0 -27 35zM492 1284q0 -18 18 -18q20 0 20 18t-20 19q-18 0 -18 -19zM553 129q0 -57 63 -57h127q62 0 62 57q0 61 -62 61h-127q-63 0 -63 -61zM692 1186v166q0 61 66 61q63 0 63 -61v-166q0 -66 -63 -66 q-27 0 -46.5 19.5t-19.5 46.5z" />
<glyph unicode="&#xe2;" horiz-adv-x="925" d="M51 31v1200q0 164 195 164q115 0 164 -76l421 -664q16 -27 21.5 -57.5t9.5 -69.5v-465q0 -86 -23.5 -109.5t-80.5 -23.5h-209q-72 0 -72 86v197q0 86 82 86h45q68 0 68 59v308q0 94 -137 94h-230q-59 0 -59 -76v-326q0 -10 -1 -17t-1 -13q0 -23 23.5 -23t53 -1t53 -18.5 t23.5 -72.5v-207q0 -76 -78 -76h-182q-37 0 -61.5 32t-24.5 69zM86 1858l189 223h135l192 -223h-145l-115 151l-112 -151h-144zM88 1671v78l8 10h64l12 -10v-78h-12l-13 -10v-137l43 -66q4 2 11 2q25 0 24 -22q1 -35 -28 -35q-31 0 -31 22q0 8 2 15l-57 84v137l-7 10h-16z M127 129q0 -57 63 -57h72q62 0 62 57q0 61 -62 61h-72q-63 0 -63 -61zM158 975q0 -61 19.5 -74.5t82.5 -13.5h152q37 0 37 33q0 20 -19 55l-90 172q-57 113 -127 113q-18 0 -36.5 -14.5t-18.5 -33.5v-237zM176 1432q0 -18 19 -19q20 1 20 19q0 20 -20 20q-18 0 -19 -20z M272 1671v78l11 10h61l12 -10v-78h-12l-10 -10v-137l6 -66q6 0 10 2q23 0 23 -22q0 -35 -29 -35q-31 0 -31 27q0 6 4 14q-4 14 -10 33.5t-10 46.5v137l-8 10h-17zM319 1432q0 -20 23 -21q18 1 18 21q0 23 -18 22q-23 0 -23 -22zM479 1288q0 23 25 23h10l152 213v137l-11 10 h-12v78l12 10h62l10 -10v-78h-16l-6 -10v-137l-170 -232q2 -4 2 -10q0 -29 -31 -29q-27 0 -27 35zM492 1284q0 -18 18 -18q20 0 20 18t-20 19q-18 0 -18 -19zM553 129q0 -57 63 -57h127q62 0 62 57q0 61 -62 61h-127q-63 0 -63 -61zM692 1186v166q0 61 66 61q63 0 63 -61 v-166q0 -66 -63 -66q-27 0 -46.5 19.5t-19.5 46.5z" />
<glyph unicode="&#xe3;" horiz-adv-x="925" d="M51 31v1200q0 164 195 164q115 0 164 -76l421 -664q16 -27 21.5 -57.5t9.5 -69.5v-465q0 -86 -23.5 -109.5t-80.5 -23.5h-209q-72 0 -72 86v197q0 86 82 86h45q68 0 68 59v308q0 94 -137 94h-230q-59 0 -59 -76v-326q0 -10 -1 -17t-1 -13q0 -23 23.5 -23t53 -1t53 -18.5 t23.5 -72.5v-207q0 -76 -78 -76h-182q-37 0 -61.5 32t-24.5 69zM51 1919q35 63 77 92t95 29q43 0 69.5 -10.5t48 -21.5t42 -21.5t51.5 -10.5q68 0 104 78l72 -82q-41 -111 -168 -110q-31 0 -56.5 10t-49 22.5t-46 22.5t-49.5 10t-54.5 -17.5t-55.5 -60.5zM88 1671v78l8 10 h64l12 -10v-78h-12l-13 -10v-137l43 -66q4 2 11 2q25 0 24 -22q1 -35 -28 -35q-31 0 -31 22q0 8 2 15l-57 84v137l-7 10h-16zM127 129q0 -57 63 -57h72q62 0 62 57q0 61 -62 61h-72q-63 0 -63 -61zM158 975q0 -61 19.5 -74.5t82.5 -13.5h152q37 0 37 33q0 20 -19 55l-90 172 q-57 113 -127 113q-18 0 -36.5 -14.5t-18.5 -33.5v-237zM176 1432q0 -18 19 -19q20 1 20 19q0 20 -20 20q-18 0 -19 -20zM272 1671v78l11 10h61l12 -10v-78h-12l-10 -10v-137l6 -66q6 0 10 2q23 0 23 -22q0 -35 -29 -35q-31 0 -31 27q0 6 4 14q-4 14 -10 33.5t-10 46.5v137 l-8 10h-17zM319 1432q0 -20 23 -21q18 1 18 21q0 23 -18 22q-23 0 -23 -22zM479 1288q0 23 25 23h10l152 213v137l-11 10h-12v78l12 10h62l10 -10v-78h-16l-6 -10v-137l-170 -232q2 -4 2 -10q0 -29 -31 -29q-27 0 -27 35zM492 1284q0 -18 18 -18q20 0 20 18t-20 19 q-18 0 -18 -19zM553 129q0 -57 63 -57h127q62 0 62 57q0 61 -62 61h-127q-63 0 -63 -61zM692 1186v166q0 61 66 61q63 0 63 -61v-166q0 -66 -63 -66q-27 0 -46.5 19.5t-19.5 46.5z" />
<glyph unicode="&#xe4;" horiz-adv-x="925" d="M51 31v1200q0 164 195 164q115 0 164 -76l421 -664q16 -27 21.5 -57.5t9.5 -69.5v-465q0 -86 -23.5 -109.5t-80.5 -23.5h-209q-72 0 -72 86v197q0 86 82 86h45q68 0 68 59v308q0 94 -137 94h-230q-59 0 -59 -76v-326q0 -10 -1 -17t-1 -13q0 -23 23.5 -23t53 -1t53 -18.5 t23.5 -72.5v-207q0 -76 -78 -76h-182q-37 0 -61.5 32t-24.5 69zM59 1991q0 45 28.5 75.5t75.5 30.5q43 0 75 -30.5t32 -75.5t-32 -76t-75 -31q-47 0 -75.5 31t-28.5 76zM88 1671v78l8 10h64l12 -10v-78h-12l-13 -10v-137l43 -66q4 2 11 2q25 0 24 -22q1 -35 -28 -35 q-31 0 -31 22q0 8 2 15l-57 84v137l-7 10h-16zM127 129q0 -57 63 -57h72q62 0 62 57q0 61 -62 61h-72q-63 0 -63 -61zM158 975q0 -61 19.5 -74.5t82.5 -13.5h152q37 0 37 33q0 20 -19 55l-90 172q-57 113 -127 113q-18 0 -36.5 -14.5t-18.5 -33.5v-237zM176 1432 q0 -18 19 -19q20 1 20 19q0 20 -20 20q-18 0 -19 -20zM272 1671v78l11 10h61l12 -10v-78h-12l-10 -10v-137l6 -66q6 0 10 2q23 0 23 -22q0 -35 -29 -35q-31 0 -31 27q0 6 4 14q-4 14 -10 33.5t-10 46.5v137l-8 10h-17zM319 1432q0 -20 23 -21q18 1 18 21q0 23 -18 22 q-23 0 -23 -22zM378 1991q0 45 31 75.5t74 30.5q45 0 74.5 -30.5t29.5 -75.5t-29.5 -76t-74.5 -31q-43 0 -74 31t-31 76zM479 1288q0 23 25 23h10l152 213v137l-11 10h-12v78l12 10h62l10 -10v-78h-16l-6 -10v-137l-170 -232q2 -4 2 -10q0 -29 -31 -29q-27 0 -27 35z M492 1284q0 -18 18 -18q20 0 20 18t-20 19q-18 0 -18 -19zM553 129q0 -57 63 -57h127q62 0 62 57q0 61 -62 61h-127q-63 0 -63 -61zM692 1186v166q0 61 66 61q63 0 63 -61v-166q0 -66 -63 -66q-27 0 -46.5 19.5t-19.5 46.5z" />
<glyph unicode="&#xe5;" horiz-adv-x="925" d="M51 31v1200q0 164 195 164q115 0 164 -76l421 -664q16 -27 21.5 -57.5t9.5 -69.5v-465q0 -86 -23.5 -109.5t-80.5 -23.5h-209q-72 0 -72 86v197q0 86 82 86h45q68 0 68 59v308q0 94 -137 94h-230q-59 0 -59 -76v-326q0 -10 -1 -17t-1 -13q0 -23 23.5 -23t53 -1t53 -18.5 t23.5 -72.5v-207q0 -76 -78 -76h-182q-37 0 -61.5 32t-24.5 69zM88 1671v78l8 10h64l12 -10v-78h-12l-13 -10v-137l43 -66q4 2 11 2q25 0 24 -22q1 -35 -28 -35q-31 0 -31 22q0 8 2 15l-57 84v137l-7 10h-16zM107 2011q0 61 39 104.5t100 43.5q59 0 100.5 -44t41.5 -104 q0 -59 -41.5 -99t-100.5 -40q-61 0 -100 40t-39 99zM127 129q0 -57 63 -57h72q62 0 62 57q0 61 -62 61h-72q-63 0 -63 -61zM158 975q0 -61 19.5 -74.5t82.5 -13.5h152q37 0 37 33q0 20 -19 55l-90 172q-57 113 -127 113q-18 0 -36.5 -14.5t-18.5 -33.5v-237zM158 2015 q0 -41 26.5 -67.5t63.5 -26.5q39 0 66.5 26.5t27.5 67.5q0 39 -28.5 67.5t-65.5 28.5q-35 0 -62.5 -28.5t-27.5 -67.5zM176 1432q0 -18 19 -19q20 1 20 19q0 20 -20 20q-18 0 -19 -20zM272 1671v78l11 10h61l12 -10v-78h-12l-10 -10v-137l6 -66q6 0 10 2q23 0 23 -22 q0 -35 -29 -35q-31 0 -31 27q0 6 4 14q-4 14 -10 33.5t-10 46.5v137l-8 10h-17zM319 1432q0 -20 23 -21q18 1 18 21q0 23 -18 22q-23 0 -23 -22zM479 1288q0 23 25 23h10l152 213v137l-11 10h-12v78l12 10h62l10 -10v-78h-16l-6 -10v-137l-170 -232q2 -4 2 -10 q0 -29 -31 -29q-27 0 -27 35zM492 1284q0 -18 18 -18q20 0 20 18t-20 19q-18 0 -18 -19zM553 129q0 -57 63 -57h127q62 0 62 57q0 61 -62 61h-127q-63 0 -63 -61zM692 1186v166q0 61 66 61q63 0 63 -61v-166q0 -66 -63 -66q-27 0 -46.5 19.5t-19.5 46.5z" />
<glyph unicode="&#xe6;" horiz-adv-x="1423" d="M51 31v1200q0 164 195 164q115 0 164 -76l340 -537q0 59 32 80l92 62q16 12 17 57v289q0 125 110 125h248q98 0 99 -66q0 -29 -17.5 -48t-56.5 -19h-45q-53 0 -53 -50v-243q0 -51 57 -54q41 -2 63.5 -8t33.5 -15t14.5 -20.5t3.5 -21.5q0 -27 -20.5 -47.5t-45.5 -20.5 h-358q-70 0 -70 -88v-92q8 -31 8 -74v-192q14 -31 62 -31h356q14 0 41 -19.5t27 -33.5v-258q0 -63 -68 -64h-393q-43 0 -70 13q-23 -12 -59 -13h-209q-72 0 -72 86v197q0 86 82 86h45q68 0 68 59v308q0 94 -137 94h-230q-59 0 -59 -76v-326q0 -10 -1 -17t-1 -13 q0 -23 23.5 -23t53 -1t53 -18.5t23.5 -72.5v-207q0 -76 -78 -76h-182q-37 0 -61.5 32t-24.5 69zM88 1671v78l8 10h64l12 -10v-78h-12l-13 -10v-137l43 -66q4 2 11 2q25 0 24 -22q1 -35 -28 -35q-31 0 -31 22q0 8 2 15l-57 84v137l-7 10h-16zM127 129q0 -57 63 -57h72 q62 0 62 57q0 61 -62 61h-72q-63 0 -63 -61zM158 975q0 -61 19.5 -74.5t82.5 -13.5h152q37 0 37 33q0 20 -19 55l-90 172q-57 113 -127 113q-18 0 -36.5 -14.5t-18.5 -33.5v-237zM176 1432q0 -18 19 -19q20 1 20 19q0 20 -20 20q-18 0 -19 -20zM272 1671v78l11 10h61l12 -10 v-78h-12l-10 -10v-137l6 -66q6 0 10 2q23 0 23 -22q0 -35 -29 -35q-31 0 -31 27q0 6 4 14q-4 14 -10 33.5t-10 46.5v137l-8 10h-17zM319 1432q0 -20 23 -21q18 1 18 21q0 23 -18 22q-23 0 -23 -22zM479 1288q0 23 25 23h10l152 213v137l-11 10h-12v78l12 10h62l10 -10v-78 h-16l-6 -10v-137l-170 -232q2 -4 2 -10q0 -29 -31 -29q-27 0 -27 35zM492 1284q0 -18 18 -18q20 0 20 18t-20 19q-18 0 -18 -19zM592 129q0 -57 63 -57h559q64 0 64 57q0 61 -64 61h-559q-63 0 -63 -61zM692 1186v166q0 61 66 61q63 0 63 -61v-166q0 -66 -63 -66 q-27 0 -46.5 19.5t-19.5 46.5zM911 1671v78l11 10h61l12 -10v-78h-12l-10 -10v-137l6 -66q6 0 10 2q23 0 23 -22q0 -35 -29 -35q-33 0 -33 27q0 8 6 14q-4 14 -10 33.5t-10 46.5v137l-8 10h-17zM938 444v166q0 66 63 66q66 0 66 -66v-166q0 -63 -66 -63q-25 0 -44 19.5 t-19 43.5zM958 1432q0 -20 23 -21q18 1 18 21q0 23 -18 22q-23 0 -23 -22zM1004 1671v78l10 10h61l12 -10v-78h-12l-10 -10v-203q14 -2 14 -20q0 -20 -14 -26.5t-23 -6.5q-23 0 -22 25q0 18 8 28v203l-8 10h-16zM1030 1432q0 -18 19 -19q18 1 18 19q0 20 -18 20t-19 -20z M1083 1438q0 20 21 20h12q2 33 3 83t1 120l-12 10h-10v78l10 10h63l9 -10v-78h-17l-6 -10q2 -20 3 -39.5t1 -36.5q0 -84 -22 -141q2 -2 2 -8q0 -33 -27 -33q-31 0 -31 35zM1098 1432q0 -18 18 -19q19 1 19 19q0 20 -19 20q-18 0 -18 -20zM1229 1438q0 20 22 20h13l41 66v137 l-11 10h-12v78l12 10h62l10 -10v-78h-16l-9 -10v-137l-57 -84q2 -2 2 -10q0 -27 -29 -27t-28 35zM1241 1432q0 -18 19 -19q20 1 20 19q0 20 -20 20q-18 0 -19 -20z" />
<glyph unicode="&#xe7;" horiz-adv-x="847" d="M55 59v1219q0 47 34 85t83 38h332q150 0 149 -70q0 -63 -53 -63h-354q-18 0 -33.5 -17.5t-15.5 -36.5v-520q0 -63 11 -77.5t46 -14.5h424q100 0 100 -139v-160q0 -16 1 -36.5t1 -47.5v-96q0 -104 -39 -146.5t-131 -42.5h-393q-162 0 -162 125zM88 1671v78l8 10h64l12 -10 v-78h-12l-13 -10v-137l43 -66q4 2 11 2q25 0 24 -22q1 -35 -28 -35q-31 0 -31 22q0 8 2 15l-57 84v137l-7 10h-16zM127 129q0 -57 63 -57h422q64 0 64 57q0 61 -64 61h-422q-63 0 -63 -61zM176 1432q0 -18 19 -19q20 1 20 19q0 20 -20 20q-18 0 -19 -20zM180 1671v78l10 10 h62l12 -10v-78h-12l-10 -10v-137l22 -66q4 2 10 2q25 0 25 -22q0 -35 -29 -35q-31 0 -30 20q0 4 4 17l-41 84v137l-6 10h-17zM250 1432q0 -18 18 -19q21 1 21 19q0 20 -21 20q-18 0 -18 -20zM264 963v165q0 27 19.5 45.5t44.5 18.5q66 0 65 -64v-165q0 -66 -65 -66 q-63 0 -64 66zM272 1671v78l11 10h61l12 -10v-78h-12l-10 -10v-137l6 -66q6 0 10 2q23 0 23 -22q0 -35 -29 -35q-31 0 -31 27q0 6 4 14q-4 14 -10 33.5t-10 46.5v137l-8 10h-17zM309 -281l25 80q20 -10 55 -10q63 0 63 33t-47 33h-28q-4 0 -12.5 -1t-20.5 -4v166h74v-84 q117 0 116 -104q0 -66 -34.5 -94.5t-108.5 -28.5q-27 0 -48.5 5t-33.5 9zM319 1432q0 -20 23 -21q18 1 18 21q0 23 -18 22q-23 0 -23 -22zM367 1671v78l8 10h63l11 -10v-78h-11l-12 -10v-203q14 -2 14 -20q0 -20 -14 -26.5t-23 -6.5q-23 0 -22 25q0 18 8 28v203l-8 10h-14z M391 1432q0 -18 19 -19q18 1 18 19q0 20 -18 20t-19 -20zM444 1438q0 20 21 20h12q2 33 3 83t1 120l-12 10h-10v78l10 10h63l9 -10v-78h-15l-8 -10q2 -20 3 -39.5t1 -36.5q0 -84 -22 -141q2 -2 2 -8q0 -33 -27 -33q-31 0 -31 35zM459 1432q0 -18 18 -19q19 1 19 19 q0 20 -19 20q-18 0 -18 -20zM590 1438q0 20 22 20h13l41 66v137l-11 10h-12v78l12 10h62l10 -10v-78h-16l-6 -10v-137l-60 -84q2 -2 2 -10q0 -27 -29 -27t-28 35zM602 1432q0 -18 19 -19q20 1 20 19q0 20 -20 20q-18 0 -19 -20z" />
<glyph unicode="&#xe8;" horiz-adv-x="698" d="M53 100v164v107.5t2 150.5v260q0 59 33 80l92 62q16 12 17 57v289q0 125 110 125h248q98 0 98 -66q0 -29 -17.5 -48t-55.5 -19h-45q-53 0 -54 -50v-243q0 -51 58 -54q41 -2 63.5 -8t33.5 -15t14 -20.5t3 -21.5q0 -27 -20.5 -47.5t-44.5 -20.5h-359q-70 0 -69 -88v-313 q0 -76 69 -76h357q14 0 40.5 -19.5t26.5 -33.5v-258q0 -63 -67 -64h-393q-78 0 -109 37t-31 133zM127 129q0 -57 63 -57h330q64 0 64 57q0 61 -64 61h-330q-63 0 -63 -61zM207 2058h155l129 -225h-88zM217 1671v78l10 10h62l12 -10v-78h-12l-10 -10v-137l6 -66q6 0 10 2 q23 0 22 -22q1 -35 -28 -35q-33 0 -33 27q0 8 6 14q-4 14 -10 33.5t-10 46.5v137l-9 10h-16zM244 444v166q0 66 63 66q66 0 66 -66v-166q0 -63 -66 -63q-25 0 -44 19.5t-19 43.5zM264 1432q0 -20 23 -21q18 1 18 21q0 23 -18 22q-23 0 -23 -22zM309 1671v78l10 10h62l12 -10 v-78h-12l-10 -10v-203q14 -2 14 -20q0 -20 -14.5 -26.5t-22.5 -6.5q-23 0 -22 25q0 18 8 28v203l-8 10h-17zM336 1432q0 -18 18 -19q19 1 19 19q0 20 -19 20q-18 0 -18 -20zM389 1438q0 20 21 20h12q2 33 3 83t1 120l-12 10h-11v78l11 10h63l8 -10v-78h-16l-6 -10 q2 -20 3 -39.5t1 -36.5q0 -84 -23 -141q2 -2 2 -8q0 -33 -26 -33q-31 0 -31 35zM403 1432q0 -18 19 -19q18 1 18 19q0 20 -18 20t-19 -20zM535 1438q0 20 22 20h12l41 66v137l-10 10h-12v78l12 10h62l10 -10v-78h-17l-8 -10v-137l-57 -84q2 -2 2 -10q0 -27 -29 -27t-28 35z M547 1432q0 -18 18 -19q21 1 21 19q0 20 -21 20q-18 0 -18 -20z" />
<glyph unicode="&#xe9;" horiz-adv-x="698" d="M53 100v164v107.5t2 150.5v260q0 59 33 80l92 62q16 12 17 57v289q0 125 110 125h248q98 0 98 -66q0 -29 -17.5 -48t-55.5 -19h-45q-53 0 -54 -50v-243q0 -51 58 -54q41 -2 63.5 -8t33.5 -15t14 -20.5t3 -21.5q0 -27 -20.5 -47.5t-44.5 -20.5h-359q-70 0 -69 -88v-313 q0 -76 69 -76h357q14 0 40.5 -19.5t26.5 -33.5v-258q0 -63 -67 -64h-393q-78 0 -109 37t-31 133zM127 129q0 -57 63 -57h330q64 0 64 57q0 61 -64 61h-330q-63 0 -63 -61zM217 1671v78l10 10h62l12 -10v-78h-12l-10 -10v-137l6 -66q6 0 10 2q23 0 22 -22q1 -35 -28 -35 q-33 0 -33 27q0 8 6 14q-4 14 -10 33.5t-10 46.5v137l-9 10h-16zM244 444v166q0 66 63 66q66 0 66 -66v-166q0 -63 -66 -63q-25 0 -44 19.5t-19 43.5zM264 1432q0 -20 23 -21q18 1 18 21q0 23 -18 22q-23 0 -23 -22zM303 1837l127 225h158l-197 -225h-88zM309 1671v78l10 10 h62l12 -10v-78h-12l-10 -10v-203q14 -2 14 -20q0 -20 -14.5 -26.5t-22.5 -6.5q-23 0 -22 25q0 18 8 28v203l-8 10h-17zM336 1432q0 -18 18 -19q19 1 19 19q0 20 -19 20q-18 0 -18 -20zM389 1438q0 20 21 20h12q2 33 3 83t1 120l-12 10h-11v78l11 10h63l8 -10v-78h-16l-6 -10 q2 -20 3 -39.5t1 -36.5q0 -84 -23 -141q2 -2 2 -8q0 -33 -26 -33q-31 0 -31 35zM403 1432q0 -18 19 -19q18 1 18 19q0 20 -18 20t-19 -20zM535 1438q0 20 22 20h12l41 66v137l-10 10h-12v78l12 10h62l10 -10v-78h-17l-8 -10v-137l-57 -84q2 -2 2 -10q0 -27 -29 -27t-28 35z M547 1432q0 -18 18 -19q21 1 21 19q0 20 -21 20q-18 0 -18 -20z" />
<glyph unicode="&#xea;" horiz-adv-x="698" d="M53 100v164v107.5t2 150.5v260q0 59 33 80l92 62q16 12 17 57v289q0 125 110 125h248q98 0 98 -66q0 -29 -17.5 -48t-55.5 -19h-45q-53 0 -54 -50v-243q0 -51 58 -54q41 -2 63.5 -8t33.5 -15t14 -20.5t3 -21.5q0 -27 -20.5 -47.5t-44.5 -20.5h-359q-70 0 -69 -88v-313 q0 -76 69 -76h357q14 0 40.5 -19.5t26.5 -33.5v-258q0 -63 -67 -64h-393q-78 0 -109 37t-31 133zM127 129q0 -57 63 -57h330q64 0 64 57q0 61 -64 61h-330q-63 0 -63 -61zM166 1858l189 223h135l192 -223h-145l-115 151l-112 -151h-144zM217 1671v78l10 10h62l12 -10v-78 h-12l-10 -10v-137l6 -66q6 0 10 2q23 0 22 -22q1 -35 -28 -35q-33 0 -33 27q0 8 6 14q-4 14 -10 33.5t-10 46.5v137l-9 10h-16zM244 444v166q0 66 63 66q66 0 66 -66v-166q0 -63 -66 -63q-25 0 -44 19.5t-19 43.5zM264 1432q0 -20 23 -21q18 1 18 21q0 23 -18 22 q-23 0 -23 -22zM309 1671v78l10 10h62l12 -10v-78h-12l-10 -10v-203q14 -2 14 -20q0 -20 -14.5 -26.5t-22.5 -6.5q-23 0 -22 25q0 18 8 28v203l-8 10h-17zM336 1432q0 -18 18 -19q19 1 19 19q0 20 -19 20q-18 0 -18 -20zM389 1438q0 20 21 20h12q2 33 3 83t1 120l-12 10h-11 v78l11 10h63l8 -10v-78h-16l-6 -10q2 -20 3 -39.5t1 -36.5q0 -84 -23 -141q2 -2 2 -8q0 -33 -26 -33q-31 0 -31 35zM403 1432q0 -18 19 -19q18 1 18 19q0 20 -18 20t-19 -20zM535 1438q0 20 22 20h12l41 66v137l-10 10h-12v78l12 10h62l10 -10v-78h-17l-8 -10v-137l-57 -84 q2 -2 2 -10q0 -27 -29 -27t-28 35zM547 1432q0 -18 18 -19q21 1 21 19q0 20 -21 20q-18 0 -18 -20z" />
<glyph unicode="&#xeb;" horiz-adv-x="698" d="M53 100v164v107.5t2 150.5v260q0 59 33 80l92 62q16 12 17 57v289q0 125 110 125h248q98 0 98 -66q0 -29 -17.5 -48t-55.5 -19h-45q-53 0 -54 -50v-243q0 -51 58 -54q41 -2 63.5 -8t33.5 -15t14 -20.5t3 -21.5q0 -27 -20.5 -47.5t-44.5 -20.5h-359q-70 0 -69 -88v-313 q0 -76 69 -76h357q14 0 40.5 -19.5t26.5 -33.5v-258q0 -63 -67 -64h-393q-78 0 -109 37t-31 133zM127 129q0 -57 63 -57h330q64 0 64 57q0 61 -64 61h-330q-63 0 -63 -61zM162 1991q0 45 28.5 75.5t75.5 30.5q43 0 75 -30.5t32 -75.5t-32 -76t-75 -31q-47 0 -75.5 31 t-28.5 76zM217 1671v78l10 10h62l12 -10v-78h-12l-10 -10v-137l6 -66q6 0 10 2q23 0 22 -22q1 -35 -28 -35q-33 0 -33 27q0 8 6 14q-4 14 -10 33.5t-10 46.5v137l-9 10h-16zM244 444v166q0 66 63 66q66 0 66 -66v-166q0 -63 -66 -63q-25 0 -44 19.5t-19 43.5zM264 1432 q0 -20 23 -21q18 1 18 21q0 23 -18 22q-23 0 -23 -22zM309 1671v78l10 10h62l12 -10v-78h-12l-10 -10v-203q14 -2 14 -20q0 -20 -14.5 -26.5t-22.5 -6.5q-23 0 -22 25q0 18 8 28v203l-8 10h-17zM336 1432q0 -18 18 -19q19 1 19 19q0 20 -19 20q-18 0 -18 -20zM389 1438 q0 20 21 20h12q2 33 3 83t1 120l-12 10h-11v78l11 10h63l8 -10v-78h-16l-6 -10q2 -20 3 -39.5t1 -36.5q0 -84 -23 -141q2 -2 2 -8q0 -33 -26 -33q-31 0 -31 35zM403 1432q0 -18 19 -19q18 1 18 19q0 20 -18 20t-19 -20zM481 1991q0 45 31 75.5t74 30.5q45 0 74.5 -30.5 t29.5 -75.5t-29.5 -76t-74.5 -31q-43 0 -74 31t-31 76zM535 1438q0 20 22 20h12l41 66v137l-10 10h-12v78l12 10h62l10 -10v-78h-17l-8 -10v-137l-57 -84q2 -2 2 -10q0 -27 -29 -27t-28 35zM547 1432q0 -18 18 -19q21 1 21 19q0 20 -21 20q-18 0 -18 -20z" />
<glyph unicode="&#xec;" horiz-adv-x="516" d="M37 154q0 84 28.5 117.5t63.5 47t63.5 20.5t28.5 40v946q0 2 3 14.5t9.5 24.5t17.5 23.5t28 15.5q-20 4 -21 18q0 12 4 19l-59 84v137l-6 10h-17v78l10 10h62l12 -10v-78h-12l-10 -10v-137l41 -66q4 2 12 2q23 0 22 -22q0 -27 -16 -33q8 0 19.5 -9.5t20.5 -21.5t15 -26.5 t6 -22.5v-936q0 -33 25 -51l51 -39q29 -18 35 -111q0 2 -2 2q-2 -12 -2 -30v-92q0 -137 -143 -138h-152q-39 0 -64.5 9.5t-42 34t-23.5 67.5t-7 113zM41 2058h155l129 -225h-88zM109 129q0 -57 63 -57h182q62 0 62 57q0 61 -62 61h-182q-63 0 -63 -61zM268 1432 q0 -18 19 -19q20 1 20 19q0 20 -20 20q-18 0 -19 -20z" />
<glyph unicode="&#xed;" horiz-adv-x="516" d="M37 154q0 84 28.5 117.5t63.5 47t63.5 20.5t28.5 40v946q0 2 3 14.5t9.5 24.5t17.5 23.5t28 15.5q-20 4 -21 18q0 12 4 19l-59 84v137l-6 10h-17v78l10 10h62l12 -10v-78h-12l-10 -10v-137l41 -66q4 2 12 2q23 0 22 -22q0 -27 -16 -33q8 0 19.5 -9.5t20.5 -21.5t15 -26.5 t6 -22.5v-936q0 -33 25 -51l51 -39q29 -18 35 -111q0 2 -2 2q-2 -12 -2 -30v-92q0 -137 -143 -138h-152q-39 0 -64.5 9.5t-42 34t-23.5 67.5t-7 113zM109 129q0 -57 63 -57h182q62 0 62 57q0 61 -62 61h-182q-63 0 -63 -61zM152 1837l127 225h158l-197 -225h-88zM268 1432 q0 -18 19 -19q20 1 20 19q0 20 -20 20q-18 0 -19 -20z" />
<glyph unicode="&#xee;" horiz-adv-x="516" d="M6 1858l189 223h135l192 -223h-145l-115 151l-112 -151h-144zM37 154q0 84 28.5 117.5t63.5 47t63.5 20.5t28.5 40v946q0 2 3 14.5t9.5 24.5t17.5 23.5t28 15.5q-20 4 -21 18q0 12 4 19l-59 84v137l-6 10h-17v78l10 10h62l12 -10v-78h-12l-10 -10v-137l41 -66q4 2 12 2 q23 0 22 -22q0 -27 -16 -33q8 0 19.5 -9.5t20.5 -21.5t15 -26.5t6 -22.5v-936q0 -33 25 -51l51 -39q29 -18 35 -111q0 2 -2 2q-2 -12 -2 -30v-92q0 -137 -143 -138h-152q-39 0 -64.5 9.5t-42 34t-23.5 67.5t-7 113zM109 129q0 -57 63 -57h182q62 0 62 57q0 61 -62 61h-182 q-63 0 -63 -61zM268 1432q0 -18 19 -19q20 1 20 19q0 20 -20 20q-18 0 -19 -20z" />
<glyph unicode="&#xef;" horiz-adv-x="516" d="M2 1991q0 45 28.5 75.5t75.5 30.5q43 0 75 -30.5t32 -75.5t-32 -76t-75 -31q-47 0 -75.5 31t-28.5 76zM37 154q0 84 28.5 117.5t63.5 47t63.5 20.5t28.5 40v946q0 2 3 14.5t9.5 24.5t17.5 23.5t28 15.5q-20 4 -21 18q0 12 4 19l-59 84v137l-6 10h-17v78l10 10h62l12 -10 v-78h-12l-10 -10v-137l41 -66q4 2 12 2q23 0 22 -22q0 -27 -16 -33q8 0 19.5 -9.5t20.5 -21.5t15 -26.5t6 -22.5v-936q0 -33 25 -51l51 -39q29 -18 35 -111q0 2 -2 2q-2 -12 -2 -30v-92q0 -137 -143 -138h-152q-39 0 -64.5 9.5t-42 34t-23.5 67.5t-7 113zM109 129 q0 -57 63 -57h182q62 0 62 57q0 61 -62 61h-182q-63 0 -63 -61zM268 1432q0 -18 19 -19q20 1 20 19q0 20 -20 20q-18 0 -19 -20zM321 1991q0 45 31 75.5t74 30.5q45 0 74.5 -30.5t29.5 -75.5t-29.5 -76t-74.5 -31q-43 0 -74 31t-31 76z" />
<glyph unicode="&#xf1;" horiz-adv-x="927" d="M51 1671v78l8 10h64l12 -10v-78h-12l-12 -10v-137l43 -66q4 2 10 2q25 0 24 -22q1 -35 -28 -35q-31 0 -31 22q0 8 2 15l-57 84v137l-6 10h-17zM59 2v1284q0 106 117 107h133q113 0 121 -107l80 -893q6 -80 125 -80q53 0 73.5 28t20.5 108v862q0 82 72 82q70 0 69 -82 v-1225q0 -158 -116 -158h-238q-43 0 -80 26t-45 64l-74 373q-10 43 -55 43q-63 0 -63 -55v-377q0 -92 -74 -92q-66 0 -66 92zM139 1432q0 -18 19 -19q20 1 20 19q0 20 -20 20q-18 0 -19 -20zM143 1671v78l11 10h61l12 -10v-78h-12l-12 -10v-137l24 -66q4 2 11 2q25 0 24 -22 q0 -35 -29 -35q-31 0 -30 20q0 4 4 17l-41 84v137l-6 10h-17zM184 1919q35 63 77 92t95 29q43 0 69.5 -10.5t48 -21.5t42 -21.5t51.5 -10.5q68 0 104 78l72 -82q-41 -111 -168 -110q-31 0 -56.5 10t-49 22.5t-46 22.5t-49.5 10t-54.5 -17.5t-55.5 -60.5zM213 1432 q0 -18 18 -19q21 1 21 19q0 20 -21 20q-18 0 -18 -20zM236 1671v78l10 10h61l12 -10v-78h-12l-10 -10v-137l6 -66q6 0 10 2q23 0 23 -22q0 -35 -29 -35q-33 0 -33 27q0 8 7 14q-4 14 -10.5 33.5t-10.5 46.5v137l-8 10h-16zM283 1432q0 -20 22 -21q19 1 19 21q0 23 -19 22 q-23 0 -22 -22zM442 129q0 -57 62 -57h258q61 0 61 57q0 61 -61 61h-258q-61 0 -62 -61zM776 1438q0 20 23 20h12l41 66v137l-12 10h-11v78l11 10h63l8 -10v-78h-16l-6 -10v-137l-58 -84q2 -2 3 -10q0 -27 -31 -27q-27 0 -27 35zM786 1432q0 -18 19 -19q20 1 20 19 q0 20 -20 20q-18 0 -19 -20z" />
<glyph unicode="&#xf2;" d="M55 74v1167q0 154 156 154h414q59 0 89.5 -46t30.5 -108v-1149q0 -162 -147 -162h-362q-180 0 -181 144zM88 1671v78l8 10h64l12 -10v-78h-12l-13 -10v-137l43 -66q4 2 11 2q25 0 24 -22q1 -35 -28 -35q-31 0 -31 22q0 8 2 15l-57 84v137l-7 10h-16zM145 129 q0 -57 64 -57h385q63 0 63 57q0 61 -63 61h-385q-63 0 -64 -61zM176 1432q0 -18 19 -19q20 1 20 19q0 20 -20 20q-18 0 -19 -20zM197 428q0 -129 92 -129h203q68 0 90 29.5t22 99.5v709q0 125 -112 125h-203q-92 0 -92 -125v-709zM258 2058h155l129 -225h-88zM305 582v131 q0 63 47 63h101q57 0 57 -63v-131q0 -68 -57 -68h-101q-47 0 -47 68zM444 1438q0 20 21 20h12q2 33 3 83t1 120l-12 10h-10v78l10 10h63l9 -10v-78h-15l-8 -10q2 -20 3 -39.5t1 -36.5q0 -84 -22 -141q2 -2 2 -8q0 -33 -27 -33q-31 0 -31 35zM459 1432q0 -18 18 -19 q19 1 19 19q0 20 -19 20q-18 0 -18 -20zM516 1438q0 20 23 20h12l22 66v137l-10 10h-12v78l12 10h62l10 -10v-78h-17l-8 -10v-137l-39 -84q2 -2 2 -10q0 -27 -28 -27q-29 0 -29 35zM528 1432q0 -18 19 -19q20 1 20 19q0 20 -20 20q-18 0 -19 -20zM590 1438q0 20 22 20h13 l41 66v137l-11 10h-12v78l12 10h62l10 -10v-78h-16l-6 -10v-137l-60 -84q2 -2 2 -10q0 -27 -29 -27t-28 35zM602 1432q0 -18 19 -19q20 1 20 19q0 20 -20 20q-18 0 -19 -20z" />
<glyph unicode="&#xf3;" d="M55 74v1167q0 154 156 154h414q59 0 89.5 -46t30.5 -108v-1149q0 -162 -147 -162h-362q-180 0 -181 144zM88 1671v78l8 10h64l12 -10v-78h-12l-13 -10v-137l43 -66q4 2 11 2q25 0 24 -22q1 -35 -28 -35q-31 0 -31 22q0 8 2 15l-57 84v137l-7 10h-16zM145 129 q0 -57 64 -57h385q63 0 63 57q0 61 -63 61h-385q-63 0 -64 -61zM176 1432q0 -18 19 -19q20 1 20 19q0 20 -20 20q-18 0 -19 -20zM197 428q0 -129 92 -129h203q68 0 90 29.5t22 99.5v709q0 125 -112 125h-203q-92 0 -92 -125v-709zM258 1837l127 225h158l-197 -225h-88z M305 582v131q0 63 47 63h101q57 0 57 -63v-131q0 -68 -57 -68h-101q-47 0 -47 68zM444 1438q0 20 21 20h12q2 33 3 83t1 120l-12 10h-10v78l10 10h63l9 -10v-78h-15l-8 -10q2 -20 3 -39.5t1 -36.5q0 -84 -22 -141q2 -2 2 -8q0 -33 -27 -33q-31 0 -31 35zM459 1432 q0 -18 18 -19q19 1 19 19q0 20 -19 20q-18 0 -18 -20zM516 1438q0 20 23 20h12l22 66v137l-10 10h-12v78l12 10h62l10 -10v-78h-17l-8 -10v-137l-39 -84q2 -2 2 -10q0 -27 -28 -27q-29 0 -29 35zM528 1432q0 -18 19 -19q20 1 20 19q0 20 -20 20q-18 0 -19 -20zM590 1438 q0 20 22 20h13l41 66v137l-11 10h-12v78l12 10h62l10 -10v-78h-16l-6 -10v-137l-60 -84q2 -2 2 -10q0 -27 -29 -27t-28 35zM602 1432q0 -18 19 -19q20 1 20 19q0 20 -20 20q-18 0 -19 -20z" />
<glyph unicode="&#xf4;" d="M55 74v1167q0 154 156 154h414q59 0 89.5 -46t30.5 -108v-1149q0 -162 -147 -162h-362q-180 0 -181 144zM88 1671v78l8 10h64l12 -10v-78h-12l-13 -10v-137l43 -66q4 2 11 2q25 0 24 -22q1 -35 -28 -35q-31 0 -31 22q0 8 2 15l-57 84v137l-7 10h-16zM141 1858l189 223 h135l192 -223h-145l-115 151l-112 -151h-144zM145 129q0 -57 64 -57h385q63 0 63 57q0 61 -63 61h-385q-63 0 -64 -61zM176 1432q0 -18 19 -19q20 1 20 19q0 20 -20 20q-18 0 -19 -20zM197 428q0 -129 92 -129h203q68 0 90 29.5t22 99.5v709q0 125 -112 125h-203 q-92 0 -92 -125v-709zM305 582v131q0 63 47 63h101q57 0 57 -63v-131q0 -68 -57 -68h-101q-47 0 -47 68zM444 1438q0 20 21 20h12q2 33 3 83t1 120l-12 10h-10v78l10 10h63l9 -10v-78h-15l-8 -10q2 -20 3 -39.5t1 -36.5q0 -84 -22 -141q2 -2 2 -8q0 -33 -27 -33 q-31 0 -31 35zM459 1432q0 -18 18 -19q19 1 19 19q0 20 -19 20q-18 0 -18 -20zM516 1438q0 20 23 20h12l22 66v137l-10 10h-12v78l12 10h62l10 -10v-78h-17l-8 -10v-137l-39 -84q2 -2 2 -10q0 -27 -28 -27q-29 0 -29 35zM528 1432q0 -18 19 -19q20 1 20 19q0 20 -20 20 q-18 0 -19 -20zM590 1438q0 20 22 20h13l41 66v137l-11 10h-12v78l12 10h62l10 -10v-78h-16l-6 -10v-137l-60 -84q2 -2 2 -10q0 -27 -29 -27t-28 35zM602 1432q0 -18 19 -19q20 1 20 19q0 20 -20 20q-18 0 -19 -20z" />
<glyph unicode="&#xf5;" d="M55 74v1167q0 154 156 154h414q59 0 89.5 -46t30.5 -108v-1149q0 -162 -147 -162h-362q-180 0 -181 144zM88 1671v78l8 10h64l12 -10v-78h-12l-13 -10v-137l43 -66q4 2 11 2q25 0 24 -22q1 -35 -28 -35q-31 0 -31 22q0 8 2 15l-57 84v137l-7 10h-16zM121 1919 q35 63 77 92t95 29q43 0 69.5 -10.5t48 -21.5t42 -21.5t51.5 -10.5q68 0 104 78l72 -82q-41 -111 -168 -110q-31 0 -56.5 10t-49 22.5t-46 22.5t-49.5 10t-54.5 -17.5t-55.5 -60.5zM145 129q0 -57 64 -57h385q63 0 63 57q0 61 -63 61h-385q-63 0 -64 -61zM176 1432 q0 -18 19 -19q20 1 20 19q0 20 -20 20q-18 0 -19 -20zM197 428q0 -129 92 -129h203q68 0 90 29.5t22 99.5v709q0 125 -112 125h-203q-92 0 -92 -125v-709zM305 582v131q0 63 47 63h101q57 0 57 -63v-131q0 -68 -57 -68h-101q-47 0 -47 68zM444 1438q0 20 21 20h12q2 33 3 83 t1 120l-12 10h-10v78l10 10h63l9 -10v-78h-15l-8 -10q2 -20 3 -39.5t1 -36.5q0 -84 -22 -141q2 -2 2 -8q0 -33 -27 -33q-31 0 -31 35zM459 1432q0 -18 18 -19q19 1 19 19q0 20 -19 20q-18 0 -18 -20zM516 1438q0 20 23 20h12l22 66v137l-10 10h-12v78l12 10h62l10 -10v-78 h-17l-8 -10v-137l-39 -84q2 -2 2 -10q0 -27 -28 -27q-29 0 -29 35zM528 1432q0 -18 19 -19q20 1 20 19q0 20 -20 20q-18 0 -19 -20zM590 1438q0 20 22 20h13l41 66v137l-11 10h-12v78l12 10h62l10 -10v-78h-16l-6 -10v-137l-60 -84q2 -2 2 -10q0 -27 -29 -27t-28 35z M602 1432q0 -18 19 -19q20 1 20 19q0 20 -20 20q-18 0 -19 -20z" />
<glyph unicode="&#xf6;" d="M55 74v1167q0 154 156 154h414q59 0 89.5 -46t30.5 -108v-1149q0 -162 -147 -162h-362q-180 0 -181 144zM88 1671v78l8 10h64l12 -10v-78h-12l-13 -10v-137l43 -66q4 2 11 2q25 0 24 -22q1 -35 -28 -35q-31 0 -31 22q0 8 2 15l-57 84v137l-7 10h-16zM137 1991 q0 45 28.5 75.5t75.5 30.5q43 0 75 -30.5t32 -75.5t-32 -76t-75 -31q-47 0 -75.5 31t-28.5 76zM145 129q0 -57 64 -57h385q63 0 63 57q0 61 -63 61h-385q-63 0 -64 -61zM176 1432q0 -18 19 -19q20 1 20 19q0 20 -20 20q-18 0 -19 -20zM197 428q0 -129 92 -129h203 q68 0 90 29.5t22 99.5v709q0 125 -112 125h-203q-92 0 -92 -125v-709zM305 582v131q0 63 47 63h101q57 0 57 -63v-131q0 -68 -57 -68h-101q-47 0 -47 68zM444 1438q0 20 21 20h12q2 33 3 83t1 120l-12 10h-10v78l10 10h63l9 -10v-78h-15l-8 -10q2 -20 3 -39.5t1 -36.5 q0 -84 -22 -141q2 -2 2 -8q0 -33 -27 -33q-31 0 -31 35zM456 1991q0 45 31 75.5t74 30.5q45 0 74.5 -30.5t29.5 -75.5t-29.5 -76t-74.5 -31q-43 0 -74 31t-31 76zM459 1432q0 -18 18 -19q19 1 19 19q0 20 -19 20q-18 0 -18 -20zM516 1438q0 20 23 20h12l22 66v137l-10 10 h-12v78l12 10h62l10 -10v-78h-17l-8 -10v-137l-39 -84q2 -2 2 -10q0 -27 -28 -27q-29 0 -29 35zM528 1432q0 -18 19 -19q20 1 20 19q0 20 -20 20q-18 0 -19 -20zM590 1438q0 20 22 20h13l41 66v137l-11 10h-12v78l12 10h62l10 -10v-78h-16l-6 -10v-137l-60 -84q2 -2 2 -10 q0 -27 -29 -27t-28 35zM602 1432q0 -18 19 -19q20 1 20 19q0 20 -20 20q-18 0 -19 -20z" />
<glyph unicode="&#xf8;" d="M55 74v1167q0 154 156 154h389l10 8q-20 2 -20 35q0 20 20 20h15l41 66v137l-11 10h-12v78l12 10h62l10 -10v-78h-16l-6 -10v-137l-60 -84q2 -2 2 -10q0 -18 -10 -23l10 -8q98 -23 98 -158v-1149q0 -162 -147 -162h-362q-41 0 -72 7h-4q-25 0 -43.5 13t-32.5 32.5 t-21.5 44t-7.5 47.5zM88 1671v78l8 10h64l12 -10v-78h-12l-13 -10v-137l43 -66q2 2 11 2q25 0 24 -22q1 -35 -28 -35q-33 0 -33 20q0 2 1 5.5t3 11.5l-57 84v137l-7 10h-16zM176 1432q0 -18 19 -19q20 1 20 19q0 20 -20 20q-18 0 -19 -20zM197 428q0 -80 34 -111 q53 160 129 391.5t181 542.5q-20 10 -49 11h-203q-92 0 -92 -125v-709zM317 299h175q68 0 90 29.5t22 99.5v725zM444 1438q0 20 21 20h12q2 33 3 83t1 120l-12 10h-10v78l10 10h63l9 -10v-78h-15l-8 -10q2 -20 2 -38.5v-37.5q0 -88 -20 -141q2 -2 2 -8q0 -33 -27 -33 q-31 0 -31 35zM459 1432q0 -18 18 -19q19 1 19 19q0 20 -19 20q-18 0 -18 -20zM516 1438q0 20 21 20h14l22 66v137l-10 10h-12v78l12 10h62l10 -10v-78h-17l-8 -10v-137l-39 -84q2 -2 2 -10q0 -27 -28 -27q-29 0 -29 35zM528 1432q0 -18 19 -19q20 1 20 19q0 20 -20 20 q-18 0 -19 -20zM602 1432q0 -18 19 -19q20 1 20 19q0 20 -20 20q-18 0 -19 -20z" />
<glyph unicode="&#xf9;" horiz-adv-x="811" d="M14 1671v78l9 10h63l10 -10v-78h-10l-12 -10v-137l43 -66q4 2 10 2q23 0 23 -22q0 -20 -9 -29q20 -6 38 -24.5t18 -38.5v-975q0 -72 88 -72h247q43 0 58.5 17.5t15.5 82.5v916q0 92 74 92h7t9 -2q-12 8 -12 33q0 20 21 20h12q6 63 6 203l-12 10h-13v78l13 10h61l10 -10 v-78h-16l-6 -10q2 -18 2 -34.5v-33.5q0 -94 -21 -149q2 -2 2 -8q0 -33 -28 -33h-4q37 -12 37 -57v-1268q0 -80 -34 -114t-116 -34h-389q-154 0 -154 148v1237q0 78 45 92q-10 4 -10 16q0 4 4 17l-57 84v137l-6 10h-17zM102 1432q0 -18 19 -19q20 1 20 19q0 20 -20 20 q-18 0 -19 -20zM106 1671v78l11 10h61l12 -10v-78h-12l-12 -10v-137l24 -66q4 2 11 2q25 0 24 -22q1 -35 -28 -35q-31 0 -31 22q0 8 2 15l-39 84v137l-6 10h-17zM127 129q0 -57 63 -57h422q64 0 64 57q0 61 -64 61h-422q-63 0 -63 -61zM176 1432q0 -18 19 -19q20 1 20 19 q0 20 -20 20q-18 0 -19 -20zM263 2058h155l129 -225h-88zM422 444v166q0 66 63 66q66 0 66 -66v-166q0 -63 -66 -63q-25 0 -44 19.5t-19 43.5zM606 1671v78l10 10h62l12 -10v-78h-12l-12 -10v-203q14 -2 14 -20q0 -20 -13.5 -26.5t-23.5 -6.5q-20 0 -20 25q0 16 6 28v203 l-6 10h-17zM631 1432q0 -18 20 -19q19 1 19 19q0 20 -19 20q-20 0 -20 -20zM698 1432q0 -18 19 -19q18 1 18 19q0 20 -18 20t-19 -20z" />
<glyph unicode="&#xfa;" horiz-adv-x="811" d="M14 1671v78l9 10h63l10 -10v-78h-10l-12 -10v-137l43 -66q4 2 10 2q23 0 23 -22q0 -20 -9 -29q20 -6 38 -24.5t18 -38.5v-975q0 -72 88 -72h247q43 0 58.5 17.5t15.5 82.5v916q0 92 74 92h7t9 -2q-12 8 -12 33q0 20 21 20h12q6 63 6 203l-12 10h-13v78l13 10h61l10 -10 v-78h-16l-6 -10q2 -18 2 -34.5v-33.5q0 -94 -21 -149q2 -2 2 -8q0 -33 -28 -33h-4q37 -12 37 -57v-1268q0 -80 -34 -114t-116 -34h-389q-154 0 -154 148v1237q0 78 45 92q-10 4 -10 16q0 4 4 17l-57 84v137l-6 10h-17zM102 1432q0 -18 19 -19q20 1 20 19q0 20 -20 20 q-18 0 -19 -20zM106 1671v78l11 10h61l12 -10v-78h-12l-12 -10v-137l24 -66q4 2 11 2q25 0 24 -22q1 -35 -28 -35q-31 0 -31 22q0 8 2 15l-39 84v137l-6 10h-17zM127 129q0 -57 63 -57h422q64 0 64 57q0 61 -64 61h-422q-63 0 -63 -61zM176 1432q0 -18 19 -19q20 1 20 19 q0 20 -20 20q-18 0 -19 -20zM262 1837l127 225h158l-197 -225h-88zM422 444v166q0 66 63 66q66 0 66 -66v-166q0 -63 -66 -63q-25 0 -44 19.5t-19 43.5zM606 1671v78l10 10h62l12 -10v-78h-12l-12 -10v-203q14 -2 14 -20q0 -20 -13.5 -26.5t-23.5 -6.5q-20 0 -20 25 q0 16 6 28v203l-6 10h-17zM631 1432q0 -18 20 -19q19 1 19 19q0 20 -19 20q-20 0 -20 -20zM698 1432q0 -18 19 -19q18 1 18 19q0 20 -18 20t-19 -20z" />
<glyph unicode="&#xfb;" horiz-adv-x="811" d="M14 1671v78l9 10h63l10 -10v-78h-10l-12 -10v-137l43 -66q4 2 10 2q23 0 23 -22q0 -20 -9 -29q20 -6 38 -24.5t18 -38.5v-975q0 -72 88 -72h247q43 0 58.5 17.5t15.5 82.5v916q0 92 74 92h7t9 -2q-12 8 -12 33q0 20 21 20h12q6 63 6 203l-12 10h-13v78l13 10h61l10 -10 v-78h-16l-6 -10q2 -18 2 -34.5v-33.5q0 -94 -21 -149q2 -2 2 -8q0 -33 -28 -33h-4q37 -12 37 -57v-1268q0 -80 -34 -114t-116 -34h-389q-154 0 -154 148v1237q0 78 45 92q-10 4 -10 16q0 4 4 17l-57 84v137l-6 10h-17zM102 1432q0 -18 19 -19q20 1 20 19q0 20 -20 20 q-18 0 -19 -20zM106 1671v78l11 10h61l12 -10v-78h-12l-12 -10v-137l24 -66q4 2 11 2q25 0 24 -22q1 -35 -28 -35q-31 0 -31 22q0 8 2 15l-39 84v137l-6 10h-17zM127 129q0 -57 63 -57h422q64 0 64 57q0 61 -64 61h-422q-63 0 -63 -61zM145 1858l189 223h135l192 -223h-145 l-115 151l-112 -151h-144zM176 1432q0 -18 19 -19q20 1 20 19q0 20 -20 20q-18 0 -19 -20zM422 444v166q0 66 63 66q66 0 66 -66v-166q0 -63 -66 -63q-25 0 -44 19.5t-19 43.5zM606 1671v78l10 10h62l12 -10v-78h-12l-12 -10v-203q14 -2 14 -20q0 -20 -13.5 -26.5 t-23.5 -6.5q-20 0 -20 25q0 16 6 28v203l-6 10h-17zM631 1432q0 -18 20 -19q19 1 19 19q0 20 -19 20q-20 0 -20 -20zM698 1432q0 -18 19 -19q18 1 18 19q0 20 -18 20t-19 -20z" />
<glyph unicode="&#xfc;" horiz-adv-x="811" d="M14 1671v78l9 10h63l10 -10v-78h-10l-12 -10v-137l43 -66q4 2 10 2q23 0 23 -22q0 -20 -9 -29q20 -6 38 -24.5t18 -38.5v-975q0 -72 88 -72h247q43 0 58.5 17.5t15.5 82.5v916q0 92 74 92h7t9 -2q-12 8 -12 33q0 20 21 20h12q6 63 6 203l-12 10h-13v78l13 10h61l10 -10 v-78h-16l-6 -10q2 -18 2 -34.5v-33.5q0 -94 -21 -149q2 -2 2 -8q0 -33 -28 -33h-4q37 -12 37 -57v-1268q0 -80 -34 -114t-116 -34h-389q-154 0 -154 148v1237q0 78 45 92q-10 4 -10 16q0 4 4 17l-57 84v137l-6 10h-17zM102 1432q0 -18 19 -19q20 1 20 19q0 20 -20 20 q-18 0 -19 -20zM106 1671v78l11 10h61l12 -10v-78h-12l-12 -10v-137l24 -66q4 2 11 2q25 0 24 -22q1 -35 -28 -35q-31 0 -31 22q0 8 2 15l-39 84v137l-6 10h-17zM127 129q0 -57 63 -57h422q64 0 64 57q0 61 -64 61h-422q-63 0 -63 -61zM141 1991q0 45 28.5 75.5t75.5 30.5 q43 0 75 -30.5t32 -75.5t-32 -76t-75 -31q-47 0 -75.5 31t-28.5 76zM176 1432q0 -18 19 -19q20 1 20 19q0 20 -20 20q-18 0 -19 -20zM422 444v166q0 66 63 66q66 0 66 -66v-166q0 -63 -66 -63q-25 0 -44 19.5t-19 43.5zM460 1991q0 45 31 75.5t74 30.5q45 0 74.5 -30.5 t29.5 -75.5t-29.5 -76t-74.5 -31q-43 0 -74 31t-31 76zM606 1671v78l10 10h62l12 -10v-78h-12l-12 -10v-203q14 -2 14 -20q0 -20 -13.5 -26.5t-23.5 -6.5q-20 0 -20 25q0 16 6 28v203l-6 10h-17zM631 1432q0 -18 20 -19q19 1 19 19q0 20 -19 20q-20 0 -20 -20zM698 1432 q0 -18 19 -19q18 1 18 19q0 20 -18 20t-19 -20z" />
<glyph unicode="&#xfd;" horiz-adv-x="868" d="M14 1671v78l9 10h63l10 -10v-78h-10l-12 -10v-137l43 -66q4 2 10 2q23 0 23 -22q0 -35 -27 -35q-31 0 -31 22q0 8 2 15l-57 84v137l-6 10h-17zM55 625v690q0 80 70 80q72 0 72 -49v-699q0 -29 45 -49q186 -92 192 -92q16 0 17 24v752q0 70 49 91.5t123 21.5 q86 0 135 -22.5t49 -90.5v-829q0 -152 -170 -152q-18 0 -19 -33v-268q0 -70 -69 -70q-72 0 -72 70v313q0 31 -63 58l-289 123q-70 31 -70 131zM82 18v166q0 63 63 64q66 0 66 -64v-166q0 -66 -66 -65q-25 0 -44 20.5t-19 44.5zM102 1432q0 -18 19 -19q20 1 20 19 q0 20 -20 20q-18 0 -19 -20zM106 1671v78l11 10h61l12 -10v-78h-12l-12 -10v-137l24 -66q4 2 11 2q25 0 24 -22q1 -35 -28 -35q-31 0 -31 22q0 8 2 15l-39 84v137l-6 10h-17zM176 1432q0 -18 19 -19q20 1 20 19q0 20 -20 20q-18 0 -19 -20zM272 1671v78l11 10h61l12 -10v-78 h-12l-10 -10v-981q14 -2 14 -21q0 -20 -14.5 -26t-24.5 -6q-20 0 -20 26q0 18 8 27l-8 991h-17zM293 1837l127 225h158l-197 -225h-88zM299 655q0 -18 18 -18q19 0 19 18t-19 19q-18 0 -18 -19zM555 1438q0 20 20 20h13q2 33 3 83t1 120l-10 10h-13v78l13 10h61l10 -10v-78 h-16l-8 -10q2 -20 3 -39.5t1 -36.5q0 -84 -23 -141q2 -2 2 -8q0 -33 -26 -33q-31 0 -31 35zM569 1432q0 -18 19 -19q18 1 18 19q0 20 -18 20t-19 -20zM627 1438q0 20 22 20h13l22 66v137l-10 10h-12v78l12 10h61l10 -10v-78h-16l-6 -10v-137l-41 -84q2 -2 2 -10 q0 -27 -29 -27t-28 35zM639 1432q0 -18 18 -19q21 1 21 19q0 20 -21 20q-18 0 -18 -20zM700 1438q0 20 23 20h12l43 66v137l-12 10h-12v78l12 10h63l9 -10v-78h-17l-6 -10v-137l-57 -84q2 -2 2 -10q0 -27 -31 -27q-29 0 -29 35zM713 1432q0 -18 18 -19q21 1 21 19 q0 20 -21 20q-18 0 -18 -20z" />
<glyph unicode="&#xff;" horiz-adv-x="868" d="M14 1671v78l9 10h63l10 -10v-78h-10l-12 -10v-137l43 -66q4 2 10 2q23 0 23 -22q0 -35 -27 -35q-31 0 -31 22q0 8 2 15l-57 84v137l-6 10h-17zM55 625v690q0 80 70 80q72 0 72 -49v-699q0 -29 45 -49q186 -92 192 -92q16 0 17 24v752q0 70 49 91.5t123 21.5 q86 0 135 -22.5t49 -90.5v-829q0 -152 -170 -152q-18 0 -19 -33v-268q0 -70 -69 -70q-72 0 -72 70v313q0 31 -63 58l-289 123q-70 31 -70 131zM82 18v166q0 63 63 64q66 0 66 -64v-166q0 -66 -66 -65q-25 0 -44 20.5t-19 44.5zM102 1432q0 -18 19 -19q20 1 20 19 q0 20 -20 20q-18 0 -19 -20zM106 1671v78l11 10h61l12 -10v-78h-12l-12 -10v-137l24 -66q4 2 11 2q25 0 24 -22q1 -35 -28 -35q-31 0 -31 22q0 8 2 15l-39 84v137l-6 10h-17zM168 1991q0 45 28.5 75.5t75.5 30.5q43 0 75 -30.5t32 -75.5t-32 -76t-75 -31q-47 0 -75.5 31 t-28.5 76zM176 1432q0 -18 19 -19q20 1 20 19q0 20 -20 20q-18 0 -19 -20zM272 1671v78l11 10h61l12 -10v-78h-12l-10 -10v-981q14 -2 14 -21q0 -20 -14.5 -26t-24.5 -6q-20 0 -20 26q0 18 8 27l-8 991h-17zM299 655q0 -18 18 -18q19 0 19 18t-19 19q-18 0 -18 -19z M487 1991q0 45 31 75.5t74 30.5q45 0 74.5 -30.5t29.5 -75.5t-29.5 -76t-74.5 -31q-43 0 -74 31t-31 76zM555 1438q0 20 20 20h13q2 33 3 83t1 120l-10 10h-13v78l13 10h61l10 -10v-78h-16l-8 -10q2 -20 3 -39.5t1 -36.5q0 -84 -23 -141q2 -2 2 -8q0 -33 -26 -33 q-31 0 -31 35zM569 1432q0 -18 19 -19q18 1 18 19q0 20 -18 20t-19 -20zM627 1438q0 20 22 20h13l22 66v137l-10 10h-12v78l12 10h61l10 -10v-78h-16l-6 -10v-137l-41 -84q2 -2 2 -10q0 -27 -29 -27t-28 35zM639 1432q0 -18 18 -19q21 1 21 19q0 20 -21 20q-18 0 -18 -20z M700 1438q0 20 23 20h12l43 66v137l-12 10h-12v78l12 10h63l9 -10v-78h-17l-6 -10v-137l-57 -84q2 -2 2 -10q0 -27 -31 -27q-29 0 -29 35zM713 1432q0 -18 18 -19q21 1 21 19q0 20 -21 20q-18 0 -18 -20z" />
<glyph unicode="&#x152;" horiz-adv-x="1298" d="M55 74v1167q0 154 156 154h414q59 0 89.5 -46t30.5 -108v-332l21 15q16 12 16 57v289q0 125 111 125h248q98 0 98 -66q0 -29 -17.5 -48t-58.5 -19h-43q-53 0 -53 -50v-243q0 -51 57 -54q41 -2 63.5 -8t34 -15t14.5 -20.5t3 -21.5q0 -27 -20.5 -47.5t-44.5 -20.5h-359 q-68 0 -70 -75v-336q4 -66 70 -66h356q14 0 41 -19.5t27 -33.5v-258q0 -63 -68 -64h-935q-180 0 -181 144zM88 1671v78l8 10h64l12 -10v-78h-12l-13 -10v-137l43 -66q4 2 11 2q25 0 24 -22q1 -35 -28 -35q-31 0 -31 22q0 8 2 15l-57 84v137l-7 10h-16zM176 1432 q0 -18 19 -19q20 1 20 19q0 20 -20 20q-18 0 -19 -20zM193 129q0 -57 61 -57h852q63 0 63 57q0 61 -63 61h-852q-61 0 -61 -61zM197 428q0 -129 92 -129h203q68 0 90 29.5t22 99.5v709q0 125 -112 125h-203q-92 0 -92 -125v-709zM305 582v131q0 63 47 63h101q57 0 57 -63 v-131q0 -68 -57 -68h-101q-47 0 -47 68zM444 1438q0 20 21 20h12q2 33 3 83t1 120l-12 10h-10v78l10 10h63l9 -10v-78h-15l-8 -10q2 -20 3 -39.5t1 -36.5q0 -84 -22 -141q2 -2 2 -8q0 -33 -27 -33q-31 0 -31 35zM459 1432q0 -18 18 -19q19 1 19 19q0 20 -19 20 q-18 0 -18 -20zM516 1438q0 20 23 20h12l22 66v137l-10 10h-12v78l12 10h62l10 -10v-78h-17l-8 -10v-137l-39 -84q2 -2 2 -10q0 -27 -28 -27q-29 0 -29 35zM528 1432q0 -18 19 -19q20 1 20 19q0 20 -20 20q-18 0 -19 -20zM590 1438q0 20 22 20h13l41 66v137l-11 10h-12v78 l12 10h62l10 -10v-78h-16l-6 -10v-137l-60 -84q2 -2 2 -10q0 -27 -29 -27t-28 35zM602 1432q0 -18 19 -19q20 1 20 19q0 20 -20 20q-18 0 -19 -20zM803 1671v78l10 10h61l13 -10v-78h-13l-12 -10v-137l8 -66q6 0 9 2q25 0 24 -22q0 -35 -29 -35q-33 0 -32 27q0 8 6 14 q-4 14 -10.5 33.5t-12.5 46.5v137l-6 10h-16zM829 444v166q0 66 64 66q66 0 65 -66v-166q0 -63 -65 -63q-25 0 -44.5 19.5t-19.5 43.5zM850 1432q0 -20 22 -21q19 1 19 21q0 23 -19 22q-23 0 -22 -22zM895 1671v78l10 10h62l12 -10v-78h-12l-11 -10v-203q12 -4 13 -20 q0 -20 -13.5 -26.5t-23.5 -6.5q-20 0 -21 25q0 18 9 28v203l-9 10h-16zM922 1432q0 -18 18 -19q18 1 18 19q0 20 -18 20t-18 -20zM975 1438q0 20 20 20h13q2 33 3 83t1 120l-13 10h-10v78l10 10h64l8 -10v-78h-16l-6 -10q2 -20 3 -39.5t1 -36.5q0 -84 -23 -141q2 -2 2 -8 q0 -33 -28 -33q-29 0 -29 35zM989 1432q0 -18 19 -19q18 1 18 19q0 20 -18 20t-19 -20zM1120 1438q0 20 23 20h12l41 66v137l-10 10h-12v78l12 10h61l10 -10v-78h-16l-8 -10v-137l-57 -84q2 -2 2 -10q0 -27 -31 -27q-27 0 -27 35zM1133 1432q0 -18 18 -19q20 1 20 19 q0 20 -20 20q-18 0 -18 -20z" />
<glyph unicode="&#x153;" horiz-adv-x="1298" d="M55 74v1167q0 154 156 154h414q59 0 89.5 -46t30.5 -108v-332l21 15q16 12 16 57v289q0 125 111 125h248q98 0 98 -66q0 -29 -17.5 -48t-58.5 -19h-43q-53 0 -53 -50v-243q0 -51 57 -54q41 -2 63.5 -8t34 -15t14.5 -20.5t3 -21.5q0 -27 -20.5 -47.5t-44.5 -20.5h-359 q-68 0 -70 -75v-336q4 -66 70 -66h356q14 0 41 -19.5t27 -33.5v-258q0 -63 -68 -64h-935q-180 0 -181 144zM88 1671v78l8 10h64l12 -10v-78h-12l-13 -10v-137l43 -66q4 2 11 2q25 0 24 -22q1 -35 -28 -35q-31 0 -31 22q0 8 2 15l-57 84v137l-7 10h-16zM176 1432 q0 -18 19 -19q20 1 20 19q0 20 -20 20q-18 0 -19 -20zM193 129q0 -57 61 -57h852q63 0 63 57q0 61 -63 61h-852q-61 0 -61 -61zM197 428q0 -129 92 -129h203q68 0 90 29.5t22 99.5v709q0 125 -112 125h-203q-92 0 -92 -125v-709zM305 582v131q0 63 47 63h101q57 0 57 -63 v-131q0 -68 -57 -68h-101q-47 0 -47 68zM444 1438q0 20 21 20h12q2 33 3 83t1 120l-12 10h-10v78l10 10h63l9 -10v-78h-15l-8 -10q2 -20 3 -39.5t1 -36.5q0 -84 -22 -141q2 -2 2 -8q0 -33 -27 -33q-31 0 -31 35zM459 1432q0 -18 18 -19q19 1 19 19q0 20 -19 20 q-18 0 -18 -20zM516 1438q0 20 23 20h12l22 66v137l-10 10h-12v78l12 10h62l10 -10v-78h-17l-8 -10v-137l-39 -84q2 -2 2 -10q0 -27 -28 -27q-29 0 -29 35zM528 1432q0 -18 19 -19q20 1 20 19q0 20 -20 20q-18 0 -19 -20zM590 1438q0 20 22 20h13l41 66v137l-11 10h-12v78 l12 10h62l10 -10v-78h-16l-6 -10v-137l-60 -84q2 -2 2 -10q0 -27 -29 -27t-28 35zM602 1432q0 -18 19 -19q20 1 20 19q0 20 -20 20q-18 0 -19 -20zM803 1671v78l10 10h61l13 -10v-78h-13l-12 -10v-137l8 -66q6 0 9 2q25 0 24 -22q0 -35 -29 -35q-33 0 -32 27q0 8 6 14 q-4 14 -10.5 33.5t-12.5 46.5v137l-6 10h-16zM829 444v166q0 66 64 66q66 0 65 -66v-166q0 -63 -65 -63q-25 0 -44.5 19.5t-19.5 43.5zM850 1432q0 -20 22 -21q19 1 19 21q0 23 -19 22q-23 0 -22 -22zM895 1671v78l10 10h62l12 -10v-78h-12l-11 -10v-203q12 -4 13 -20 q0 -20 -13.5 -26.5t-23.5 -6.5q-20 0 -21 25q0 18 9 28v203l-9 10h-16zM922 1432q0 -18 18 -19q18 1 18 19q0 20 -18 20t-18 -20zM975 1438q0 20 20 20h13q2 33 3 83t1 120l-13 10h-10v78l10 10h64l8 -10v-78h-16l-6 -10q2 -20 3 -39.5t1 -36.5q0 -84 -23 -141q2 -2 2 -8 q0 -33 -28 -33q-29 0 -29 35zM989 1432q0 -18 19 -19q18 1 18 19q0 20 -18 20t-19 -20zM1120 1438q0 20 23 20h12l41 66v137l-10 10h-12v78l12 10h61l10 -10v-78h-16l-8 -10v-137l-57 -84q2 -2 2 -10q0 -27 -31 -27q-27 0 -27 35zM1133 1432q0 -18 18 -19q20 1 20 19 q0 20 -20 20q-18 0 -18 -20z" />
<glyph unicode="&#x178;" horiz-adv-x="868" d="M14 1671v78l9 10h63l10 -10v-78h-10l-12 -10v-137l43 -66q4 2 10 2q23 0 23 -22q0 -35 -27 -35q-31 0 -31 22q0 8 2 15l-57 84v137l-6 10h-17zM55 625v690q0 80 70 80q72 0 72 -49v-699q0 -29 45 -49q186 -92 192 -92q16 0 17 24v752q0 70 49 91.5t123 21.5 q86 0 135 -22.5t49 -90.5v-829q0 -152 -170 -152q-18 0 -19 -33v-268q0 -70 -69 -70q-72 0 -72 70v313q0 31 -63 58l-289 123q-70 31 -70 131zM82 18v166q0 63 63 64q66 0 66 -64v-166q0 -66 -66 -65q-25 0 -44 20.5t-19 44.5zM102 1432q0 -18 19 -19q20 1 20 19 q0 20 -20 20q-18 0 -19 -20zM106 1671v78l11 10h61l12 -10v-78h-12l-12 -10v-137l24 -66q4 2 11 2q25 0 24 -22q1 -35 -28 -35q-31 0 -31 22q0 8 2 15l-39 84v137l-6 10h-17zM168 1991q0 45 28.5 75.5t75.5 30.5q43 0 75 -30.5t32 -75.5t-32 -76t-75 -31q-47 0 -75.5 31 t-28.5 76zM176 1432q0 -18 19 -19q20 1 20 19q0 20 -20 20q-18 0 -19 -20zM272 1671v78l11 10h61l12 -10v-78h-12l-10 -10v-981q14 -2 14 -21q0 -20 -14.5 -26t-24.5 -6q-20 0 -20 26q0 18 8 27l-8 991h-17zM299 655q0 -18 18 -18q19 0 19 18t-19 19q-18 0 -18 -19z M487 1991q0 45 31 75.5t74 30.5q45 0 74.5 -30.5t29.5 -75.5t-29.5 -76t-74.5 -31q-43 0 -74 31t-31 76zM555 1438q0 20 20 20h13q2 33 3 83t1 120l-10 10h-13v78l13 10h61l10 -10v-78h-16l-8 -10q2 -20 3 -39.5t1 -36.5q0 -84 -23 -141q2 -2 2 -8q0 -33 -26 -33 q-31 0 -31 35zM569 1432q0 -18 19 -19q18 1 18 19q0 20 -18 20t-19 -20zM627 1438q0 20 22 20h13l22 66v137l-10 10h-12v78l12 10h61l10 -10v-78h-16l-6 -10v-137l-41 -84q2 -2 2 -10q0 -27 -29 -27t-28 35zM639 1432q0 -18 18 -19q21 1 21 19q0 20 -21 20q-18 0 -18 -20z M700 1438q0 20 23 20h12l43 66v137l-12 10h-12v78l12 10h63l9 -10v-78h-17l-6 -10v-137l-57 -84q2 -2 2 -10q0 -27 -31 -27q-29 0 -29 35zM713 1432q0 -18 18 -19q21 1 21 19q0 20 -21 20q-18 0 -18 -20z" />
<glyph unicode="&#x2c6;" horiz-adv-x="624" d="M53 1858l189 223h135l192 -223h-145l-115 151l-112 -151h-144z" />
<glyph unicode="&#x2dc;" horiz-adv-x="724" d="M82 1919q35 63 77 92t95 29q43 0 69.5 -10.5t48 -21.5t42 -21.5t51.5 -10.5q68 0 104 78l72 -82q-41 -111 -168 -110q-31 0 -56.5 10t-49 22.5t-46 22.5t-49.5 10t-54.5 -17.5t-55.5 -60.5z" />
<glyph unicode="&#x2000;" horiz-adv-x="1079" />
<glyph unicode="&#x2001;" horiz-adv-x="2159" />
<glyph unicode="&#x2002;" horiz-adv-x="1079" />
<glyph unicode="&#x2003;" horiz-adv-x="2159" />
<glyph unicode="&#x2004;" horiz-adv-x="719" />
<glyph unicode="&#x2005;" horiz-adv-x="539" />
<glyph unicode="&#x2006;" horiz-adv-x="359" />
<glyph unicode="&#x2007;" horiz-adv-x="359" />
<glyph unicode="&#x2008;" horiz-adv-x="269" />
<glyph unicode="&#x2009;" horiz-adv-x="431" />
<glyph unicode="&#x200a;" horiz-adv-x="119" />
<glyph unicode="&#x2010;" horiz-adv-x="825" d="M59 932q0 27 20.5 46t45.5 19h563q62 1 62 -65q0 -63 -62 -64h-563q-66 0 -66 64zM70 1671v78l8 10h63l13 -10v-78h-13l-12 -10l68 -588q12 -6 12 -22q0 -35 -33 -35q-27 0 -26 28q0 14 10 29l-74 598h-16zM162 1049q0 -18 18 -19q19 1 19 19t-19 18q-18 0 -18 -18z M162 1671v78l10 10h61l13 -10v-78h-13l-12 -10l62 -588q12 -6 12 -22q0 -35 -33 -35q-27 0 -26 31q0 12 10 26l-62 588l-6 10h-16zM248 1049q0 -18 18 -19q19 1 19 19t-19 18q-18 0 -18 -18z" />
<glyph unicode="&#x2011;" horiz-adv-x="825" d="M59 932q0 27 20.5 46t45.5 19h563q62 1 62 -65q0 -63 -62 -64h-563q-66 0 -66 64zM70 1671v78l8 10h63l13 -10v-78h-13l-12 -10l68 -588q12 -6 12 -22q0 -35 -33 -35q-27 0 -26 28q0 14 10 29l-74 598h-16zM162 1049q0 -18 18 -19q19 1 19 19t-19 18q-18 0 -18 -18z M162 1671v78l10 10h61l13 -10v-78h-13l-12 -10l62 -588q12 -6 12 -22q0 -35 -33 -35q-27 0 -26 31q0 12 10 26l-62 588l-6 10h-16zM248 1049q0 -18 18 -19q19 1 19 19t-19 18q-18 0 -18 -18z" />
<glyph unicode="&#x2012;" horiz-adv-x="825" d="M59 932q0 27 20.5 46t45.5 19h563q62 1 62 -65q0 -63 -62 -64h-563q-66 0 -66 64zM70 1671v78l8 10h63l13 -10v-78h-13l-12 -10l68 -588q12 -6 12 -22q0 -35 -33 -35q-27 0 -26 28q0 14 10 29l-74 598h-16zM162 1049q0 -18 18 -19q19 1 19 19t-19 18q-18 0 -18 -18z M162 1671v78l10 10h61l13 -10v-78h-13l-12 -10l62 -588q12 -6 12 -22q0 -35 -33 -35q-27 0 -26 31q0 12 10 26l-62 588l-6 10h-16zM248 1049q0 -18 18 -19q19 1 19 19t-19 18q-18 0 -18 -18z" />
<glyph unicode="&#x2013;" horiz-adv-x="1158" d="M59 932q0 27 30.5 46t67.5 19h834q92 1 92 -65q0 -63 -92 -64h-834q-98 0 -98 64zM75 1671v78l12 10h94l19 -10v-78h-19l-18 -10l101 -588q17 -6 17 -22q0 -35 -49 -35q-40 0 -38 28q0 14 15 29l-110 598h-24zM212 1049q0 -18 26 -19q28 1 28 19t-28 18q-26 0 -26 -18z M212 1671v78l14 10h91l19 -10v-78h-19l-18 -10l92 -588q18 -6 18 -22q0 -35 -49 -35q-40 0 -39 31q0 12 15 26l-92 588l-9 10h-23zM339 1049q0 -18 27 -19q28 1 28 19t-28 18q-27 0 -27 -18z" />
<glyph unicode="&#x2014;" horiz-adv-x="2182" d="M59 932q0 27 61 46t135 19h1668q184 1 184 -65q0 -63 -184 -64h-1668q-196 0 -196 64zM92 1671v78l23 10h187l39 -10v-78h-39l-36 -10l202 -588q36 -6 36 -22q0 -35 -98 -35q-80 0 -77 28q0 14 29 29l-219 598h-47zM364 1049q0 -18 54 -19q56 1 56 19t-56 18 q-54 0 -54 -18zM364 1671v78l30 10h181l38 -10v-78h-38l-36 -10l184 -588q35 -6 35 -22q0 -35 -97 -35q-80 0 -77 31q0 12 29 26l-184 588l-17 10h-48zM619 1049q0 -18 54 -19q56 1 56 19t-56 18q-54 0 -54 -18z" />
<glyph unicode="&#x2018;" horiz-adv-x="366" d="M88 1360v168q0 63 66 63q63 0 63 -63v-168q0 -61 -63 -62q-27 0 -46.5 18.5t-19.5 43.5z" />
<glyph unicode="&#x2019;" horiz-adv-x="366" d="M88 1360v168q0 63 66 63q63 0 63 -63v-168q0 -61 -63 -62q-27 0 -46.5 18.5t-19.5 43.5z" />
<glyph unicode="&#x201c;" horiz-adv-x="473" d="M63 1360v168q0 25 19.5 44t44.5 19q27 0 46.5 -19.5t19.5 -43.5v-168q0 -61 -66 -62q-25 0 -44.5 18.5t-19.5 43.5zM248 1360v168q0 25 19.5 44t45.5 19q25 0 44.5 -19.5t19.5 -43.5v-168q0 -61 -64 -62q-27 0 -46 18.5t-19 43.5z" />
<glyph unicode="&#x201d;" horiz-adv-x="473" d="M63 1360v168q0 25 19.5 44t44.5 19q27 0 46.5 -19.5t19.5 -43.5v-168q0 -61 -66 -62q-25 0 -44.5 18.5t-19.5 43.5zM248 1360v168q0 25 19.5 44t45.5 19q25 0 44.5 -19.5t19.5 -43.5v-168q0 -61 -64 -62q-27 0 -46 18.5t-19 43.5z" />
<glyph unicode="&#x2022;" horiz-adv-x="1099" d="M197 582v532q0 125 92 125h512q113 0 112 -125v-532q0 -70 -21.5 -100.5t-90.5 -30.5h-512q-92 0 -92 131zM305 733q0 -68 47 -67h412q55 0 55 67v133q0 61 -55 62h-412q-47 0 -47 -62v-133z" />
<glyph unicode="&#x2026;" horiz-adv-x="3432" d="M227 102q0 29 23.5 54.5t54.5 25.5q33 0 56.5 -23.5t23.5 -56.5q0 -29 -25.5 -54t-54.5 -25q-33 0 -55.5 23.5t-22.5 55.5zM1640 102q0 29 25 54.5t55 25.5q31 0 54.5 -23.5t23.5 -56.5q0 -29 -25.5 -54t-52.5 -25q-33 0 -56.5 23.5t-23.5 55.5zM3056 102q0 29 23.5 54.5 t53.5 25.5q33 0 55.5 -23.5t22.5 -56.5q0 -29 -24.5 -54t-53.5 -25q-33 0 -55 23.5t-22 55.5z" />
<glyph unicode="&#x202f;" horiz-adv-x="431" />
<glyph unicode="&#x2039;" horiz-adv-x="532" d="M94 627v137l363 186v-143l-238 -109l238 -110v-139z" />
<glyph unicode="&#x203a;" horiz-adv-x="532" d="M94 449v143l238 113l-238 108v137l363 -178v-135z" />
<glyph unicode="&#x205f;" horiz-adv-x="539" />
<glyph unicode="&#x2122;" horiz-adv-x="1298" d="M100 1120v125h459v-125h-160v-516h-135v516h-164zM618 606v641h154l123 -332l121 332h151v-641h-131v352l-139 -356l-152 371v-367h-127z" />
<glyph unicode="&#x25fc;" horiz-adv-x="1761" d="M0 0v1761h1761v-1761h-1761z" />
</font>
</defs>
</svg>
