<?xml version="1.0" standalone="no"?>
<!DOCTYPE svg PUBLIC "-//W3C//DTD SVG 1.1//EN" "http://www.w3.org/Graphics/SVG/1.1/DTD/svg11.dtd" >
<svg xmlns="http://www.w3.org/2000/svg">
<metadata></metadata>
<defs>
<font id="failed_attemptregular" horiz-adv-x="985" >
<font-face units-per-em="2048" ascent="1487" descent="-561" />
<missing-glyph horiz-adv-x="460" />
<glyph unicode="&#x28;C&#x29;" horiz-adv-x="1347" d="M178 186l35 140h137l-31 -140h-141zM221 375l31 139h139l-31 -139h-139zM260 561l31 141h139l-29 -141h-141zM299 750l31 139h139l-31 -139h-139zM324 0l26 139h142l-29 -139h-139zM340 936l29 141h139l-31 -141h-137zM383 1124l31 140h137l-29 -140h-139zM510 0l29 139 h139l-27 -139h-141zM588 375l30 139h142l-31 -139h-141zM598 1311l33 141h139l-31 -141h-141zM629 561l30 141h142l-33 -141h-139zM668 750l30 139h142l-33 -139h-139zM698 0l27 139h141l-28 -139h-140zM707 936l32 141h140l-31 -141h-141zM776 375l29 139h141l-31 -139 h-139zM786 1311l31 141h141l-30 -141h-142zM885 0l28 139h140l-27 -139h-141zM895 936l31 141h139l-31 -141h-139zM973 1311l33 141h139l-31 -141h-141zM1104 186l31 140h141l-33 -140h-139zM1145 375l33 139h139l-31 -139h-141zM1161 1311l31 141h141l-30 -141h-142z M1186 561l33 141h139l-33 -141h-139zM1225 750l28 139h140l-29 -139h-139zM1262 936l30 141h142l-31 -141h-141zM1307 1124l30 140h140l-29 -140h-141z" />
<glyph unicode="&#x28;R&#x29;" horiz-adv-x="1347" d="M178 186l35 140h137l-31 -140h-141zM221 375l31 139h139l-31 -139h-139zM260 561l31 141h139l-29 -141h-141zM299 750l31 139h139l-31 -139h-139zM324 0l26 139h142l-29 -139h-139zM340 936l29 141h139l-31 -141h-137zM383 1124l31 140h137l-29 -140h-139zM510 0l29 139 h139l-27 -139h-141zM588 375l30 139h142l-31 -139h-141zM598 1311l33 141h139l-31 -141h-141zM629 561l30 141h142l-33 -141h-139zM668 750l30 139h142l-33 -139h-139zM698 0l27 139h141l-28 -139h-140zM707 936l32 141h140l-31 -141h-141zM786 1311l31 141h141l-30 -141 h-142zM885 0l28 139h140l-27 -139h-141zM895 936l31 141h139l-31 -141h-139zM973 1311l33 141h139l-31 -141h-141zM1104 186l31 140h141l-33 -140h-139zM1145 375l33 139h139l-31 -139h-141zM1161 1311l31 141h141l-30 -141h-142zM1186 561l33 141h139l-33 -141h-139z M1225 750l28 139h140l-29 -139h-139zM1262 936l30 141h142l-31 -141h-141zM1307 1124l30 140h140l-29 -140h-141z" />
<glyph horiz-adv-x="0" />
<glyph unicode="&#xd;" horiz-adv-x="329" />
<glyph horiz-adv-x="460" />
<glyph unicode=" "  horiz-adv-x="460" />
<glyph unicode="&#x09;" horiz-adv-x="460" />
<glyph unicode="&#xa0;" horiz-adv-x="460" />
<glyph unicode="!" horiz-adv-x="421" d="M139 0l31 139h139l-28 -139h-142zM219 375l29 139h141l-31 -139h-139zM258 561l33 141h139l-31 -141h-141zM299 750l29 139h141l-31 -139h-139zM338 936l29 141h143l-33 -141h-139zM379 1124l31 140h141l-31 -140h-141zM418 1311l31 141h139l-31 -141h-139z" />
<glyph unicode="&#x22;" horiz-adv-x="796" d="M379 1124l31 140h141l-31 -140h-141zM418 1311l31 141h139l-31 -141h-139zM754 1124l30 140h142l-31 -140h-141zM793 1311l30 141h142l-33 -141h-139z" />
<glyph unicode="#" d="M258 561l33 141h139l-31 -141h-141zM299 750l29 139h141l-31 -139h-139zM406 375l30 139h139l-28 -139h-141zM446 561l31 141h141l-32 -141h-140zM485 750l31 139h139l-28 -139h-142zM526 936l29 141h141l-30 -141h-140zM594 375l29 139h141l-31 -139h-139zM633 561 l33 141h139l-31 -141h-141zM674 750l28 139h142l-31 -139h-139zM713 936l28 141h144l-33 -141h-139zM821 561l31 141h141l-32 -141h-140zM860 750l31 139h139l-29 -139h-141z" />
<glyph unicode="$" d="M178 186l33 140h139l-31 -140h-141zM258 561l33 141h139l-31 -141h-141zM299 750l29 139h141l-31 -139h-139zM328 0l28 139h140l-27 -139h-141zM338 936l29 141h143l-33 -141h-139zM365 186l32 140h142l-31 -140h-143zM379 1124l31 140h141l-31 -140h-141zM446 561 l31 141h141l-32 -141h-140zM514 0l31 139h139l-29 -139h-141zM553 186l33 140h139l-31 -140h-141zM567 1124l29 140h143l-32 -140h-140zM604 1311l31 141h141l-31 -141h-141zM633 561l33 141h139l-31 -141h-141zM739 186l33 140h141l-30 -140h-144zM754 1124l30 140h142 l-31 -140h-141zM780 375l31 139h139l-28 -139h-142zM793 1311l30 141h142l-33 -141h-139zM821 561l31 141h141l-32 -141h-140zM942 1124l29 140h143l-33 -140h-139z" />
<glyph unicode="%" d="M139 0l31 139h139l-28 -139h-142zM178 186l33 140h139l-31 -140h-141zM379 1124l31 140h141l-31 -140h-141zM406 375l30 139h139l-28 -139h-141zM418 1311l31 141h139l-31 -141h-139zM446 561l31 141h141l-32 -141h-140zM514 0l31 139h139l-29 -139h-141zM553 186l33 140 h139l-31 -140h-141zM567 1124l29 140h143l-32 -140h-140zM604 1311l31 141h141l-31 -141h-141zM674 750l28 139h142l-31 -139h-139zM702 0l29 139h141l-28 -139h-142zM713 936l28 141h144l-33 -141h-139zM739 186l33 140h141l-30 -140h-144zM942 1124l29 140h143l-33 -140 h-139zM979 1311l31 141h141l-31 -141h-141z" />
<glyph unicode="&#x26;" d="M139 0l31 139h139l-28 -139h-142zM178 186l33 140h139l-31 -140h-141zM219 375l29 139h141l-31 -139h-139zM258 561l33 141h139l-31 -141h-141zM299 750l29 139h141l-31 -139h-139zM328 0l28 139h140l-27 -139h-141zM338 936l29 141h143l-33 -141h-139zM379 1124l31 140 h141l-31 -140h-141zM406 375l30 139h139l-28 -139h-141zM418 1311l31 141h139l-31 -141h-139zM514 0l31 139h139l-29 -139h-141zM594 375l29 139h141l-31 -139h-139zM604 1311l31 141h141l-31 -141h-141zM633 561l33 141h139l-31 -141h-141zM674 750l28 139h142l-31 -139 h-139zM702 0l29 139h141l-28 -139h-142zM713 936l28 141h144l-33 -141h-139zM739 186l33 140h141l-30 -140h-144zM754 1124l30 140h142l-31 -140h-141zM780 375l31 139h139l-28 -139h-142zM793 1311l30 141h142l-33 -141h-139z" />
<glyph unicode="'" horiz-adv-x="421" d="M379 1124l31 140h141l-31 -140h-141zM418 1311l31 141h139l-31 -141h-139z" />
<glyph unicode="(" horiz-adv-x="608" d="M178 186l33 140h139l-31 -140h-141zM219 375l29 139h141l-31 -139h-139zM258 561l33 141h139l-31 -141h-141zM299 750l29 139h141l-31 -139h-139zM328 0l28 139h140l-27 -139h-141zM338 936l29 141h143l-33 -141h-139zM379 1124l31 140h141l-31 -140h-141zM604 1311 l31 141h141l-31 -141h-141z" />
<glyph unicode=")" horiz-adv-x="610" d="M139 0l31 139h139l-28 -139h-142zM365 186l32 140h142l-31 -140h-143zM406 375l30 139h139l-28 -139h-141zM418 1311l31 141h139l-31 -141h-139zM446 561l31 141h141l-32 -141h-140zM485 750l31 139h139l-28 -139h-142zM526 936l29 141h141l-30 -141h-140zM567 1124 l29 140h143l-32 -140h-140z" />
<glyph unicode="*" horiz-adv-x="796" d="M258 561l33 141h139l-31 -141h-141zM338 936l29 141h143l-33 -141h-139zM485 750l31 139h139l-28 -139h-142zM633 561l33 141h139l-31 -141h-141zM713 936l28 141h144l-33 -141h-139z" />
<glyph unicode="+" horiz-adv-x="796" d="M258 561l33 141h139l-31 -141h-141zM406 375l30 139h139l-28 -139h-141zM446 561l31 141h141l-32 -141h-140zM485 750l31 139h139l-28 -139h-142zM633 561l33 141h139l-31 -141h-141z" />
<glyph unicode="," horiz-adv-x="610" d="M139 0l31 139h139l-28 -139h-142zM219 375l29 139h141l-31 -139h-139zM258 561l33 141h139l-31 -141h-141zM328 0l28 139h140l-27 -139h-141zM365 186l32 140h142l-31 -140h-143zM406 375l30 139h139l-28 -139h-141zM446 561l31 141h141l-32 -141h-140z" />
<glyph unicode="-" horiz-adv-x="610" d="M258 561l33 141h139l-31 -141h-141zM446 561l31 141h141l-32 -141h-140z" />
<glyph unicode="." horiz-adv-x="610" d="M139 0l31 139h139l-28 -139h-142zM178 186l33 140h139l-31 -140h-141zM328 0l28 139h140l-27 -139h-141zM365 186l32 140h142l-31 -140h-143z" />
<glyph unicode="/" d="M139 0l31 139h139l-28 -139h-142zM178 186l33 140h139l-31 -140h-141zM406 375l30 139h139l-28 -139h-141zM446 561l31 141h141l-32 -141h-140zM674 750l28 139h142l-31 -139h-139zM713 936l28 141h144l-33 -141h-139zM942 1124l29 140h143l-33 -140h-139zM979 1311 l31 141h141l-31 -141h-141z" />
<glyph unicode="0" d="M139 0l31 139h139l-28 -139h-142zM178 186l33 140h139l-31 -140h-141zM219 375l29 139h141l-31 -139h-139zM258 561l33 141h139l-31 -141h-141zM299 750l29 139h141l-31 -139h-139zM328 0l28 139h140l-27 -139h-141zM338 936l29 141h143l-33 -141h-139zM379 1124l31 140 h141l-31 -140h-141zM418 1311l31 141h139l-31 -141h-139zM514 0l31 139h139l-29 -139h-141zM604 1311l31 141h141l-31 -141h-141zM702 0l29 139h141l-28 -139h-142zM739 186l33 140h141l-30 -140h-144zM780 375l31 139h139l-28 -139h-142zM793 1311l30 141h142l-33 -141 h-139zM821 561l31 141h141l-32 -141h-140zM860 750l31 139h139l-29 -139h-141zM901 936l29 141h141l-31 -141h-139zM942 1124l29 140h143l-33 -140h-139zM979 1311l31 141h141l-31 -141h-141z" />
<glyph unicode="1" horiz-adv-x="610" d="M328 0l28 139h140l-27 -139h-141zM365 186l32 140h142l-31 -140h-143zM406 375l30 139h139l-28 -139h-141zM418 1311l31 141h139l-31 -141h-139zM446 561l31 141h141l-32 -141h-140zM485 750l31 139h139l-28 -139h-142zM526 936l29 141h141l-30 -141h-140zM567 1124 l29 140h143l-32 -140h-140zM604 1311l31 141h141l-31 -141h-141z" />
<glyph unicode="2" d="M139 0l31 139h139l-28 -139h-142zM178 186l33 140h139l-31 -140h-141zM219 375l29 139h141l-31 -139h-139zM328 0l28 139h140l-27 -139h-141zM406 375l30 139h139l-28 -139h-141zM418 1311l31 141h139l-31 -141h-139zM514 0l31 139h139l-29 -139h-141zM594 375l29 139 h141l-31 -139h-139zM604 1311l31 141h141l-31 -141h-141zM702 0l29 139h141l-28 -139h-142zM780 375l31 139h139l-28 -139h-142zM793 1311l30 141h142l-33 -141h-139zM821 561l31 141h141l-32 -141h-140zM860 750l31 139h139l-29 -139h-141zM901 936l29 141h141l-31 -141 h-139zM942 1124l29 140h143l-33 -140h-139zM979 1311l31 141h141l-31 -141h-141z" />
<glyph unicode="3" d="M139 0l31 139h139l-28 -139h-142zM219 375l29 139h141l-31 -139h-139zM328 0l28 139h140l-27 -139h-141zM406 375l30 139h139l-28 -139h-141zM418 1311l31 141h139l-31 -141h-139zM514 0l31 139h139l-29 -139h-141zM594 375l29 139h141l-31 -139h-139zM604 1311l31 141 h141l-31 -141h-141zM702 0l29 139h141l-28 -139h-142zM739 186l33 140h141l-30 -140h-144zM780 375l31 139h139l-28 -139h-142zM793 1311l30 141h142l-33 -141h-139zM821 561l31 141h141l-32 -141h-140zM860 750l31 139h139l-29 -139h-141zM901 936l29 141h141l-31 -141 h-139zM942 1124l29 140h143l-33 -140h-139zM979 1311l31 141h141l-31 -141h-141z" />
<glyph unicode="4" horiz-adv-x="905" d="M178 186l33 140h139l-31 -140h-141zM219 375l29 139h141l-31 -139h-139zM258 561l33 141h139l-31 -141h-141zM299 750l29 139h141l-31 -139h-139zM338 936l29 141h143l-33 -141h-139zM365 186l32 140h142l-31 -140h-143zM379 1124l31 140h141l-31 -140h-141zM418 1311 l31 141h139l-31 -141h-139zM514 0l31 139h139l-29 -139h-141zM553 186l33 140h139l-31 -140h-141zM594 375l29 139h141l-31 -139h-139zM633 561l33 141h139l-31 -141h-141zM674 750l28 139h142l-31 -139h-139zM713 936l28 141h144l-33 -141h-139zM739 186l33 140h141 l-30 -140h-144zM754 1124l30 140h142l-31 -140h-141zM793 1311l30 141h142l-33 -141h-139z" />
<glyph unicode="5" d="M139 0l31 139h139l-28 -139h-142zM219 375l29 139h141l-31 -139h-139zM258 561l33 141h139l-31 -141h-141zM299 750l29 139h141l-31 -139h-139zM328 0l28 139h140l-27 -139h-141zM338 936l29 141h143l-33 -141h-139zM379 1124l31 140h141l-31 -140h-141zM406 375l30 139 h139l-28 -139h-141zM418 1311l31 141h139l-31 -141h-139zM514 0l31 139h139l-29 -139h-141zM594 375l29 139h141l-31 -139h-139zM604 1311l31 141h141l-31 -141h-141zM702 0l29 139h141l-28 -139h-142zM739 186l33 140h141l-30 -140h-144zM780 375l31 139h139l-28 -139h-142 zM793 1311l30 141h142l-33 -141h-139zM979 1311l31 141h141l-31 -141h-141z" />
<glyph unicode="6" d="M139 0l31 139h139l-28 -139h-142zM178 186l33 140h139l-31 -140h-141zM219 375l29 139h141l-31 -139h-139zM258 561l33 141h139l-31 -141h-141zM299 750l29 139h141l-31 -139h-139zM328 0l28 139h140l-27 -139h-141zM338 936l29 141h143l-33 -141h-139zM379 1124l31 140 h141l-31 -140h-141zM406 375l30 139h139l-28 -139h-141zM418 1311l31 141h139l-31 -141h-139zM514 0l31 139h139l-29 -139h-141zM594 375l29 139h141l-31 -139h-139zM604 1311l31 141h141l-31 -141h-141zM702 0l29 139h141l-28 -139h-142zM739 186l33 140h141l-30 -140h-144 zM780 375l31 139h139l-28 -139h-142zM793 1311l30 141h142l-33 -141h-139zM979 1311l31 141h141l-31 -141h-141z" />
<glyph unicode="7" horiz-adv-x="833" d="M348 1311l31 141h139l-29 -141h-141zM416 750l33 139h139l-31 -139h-141zM446 0l29 139h139l-26 -139h-142zM485 186l31 140h139l-30 -140h-140zM524 375l29 139h143l-32 -139h-140zM535 1311l32 141h140l-29 -141h-143zM563 561l33 141h141l-32 -141h-142zM604 750 l31 139h139l-31 -139h-139zM643 936l31 141h141l-33 -141h-139zM684 1124l33 140h139l-31 -140h-141zM723 1311l31 141h141l-31 -141h-141zM791 750l32 139h140l-31 -139h-141z" />
<glyph unicode="8" d="M139 0l31 139h139l-28 -139h-142zM178 186l33 140h139l-31 -140h-141zM219 375l29 139h141l-31 -139h-139zM258 561l33 141h139l-31 -141h-141zM299 750l29 139h141l-31 -139h-139zM328 0l28 139h140l-27 -139h-141zM338 936l29 141h143l-33 -141h-139zM379 1124l31 140 h141l-31 -140h-141zM406 375l30 139h139l-28 -139h-141zM418 1311l31 141h139l-31 -141h-139zM514 0l31 139h139l-29 -139h-141zM594 375l29 139h141l-31 -139h-139zM604 1311l31 141h141l-31 -141h-141zM702 0l29 139h141l-28 -139h-142zM739 186l33 140h141l-30 -140h-144 zM780 375l31 139h139l-28 -139h-142zM793 1311l30 141h142l-33 -141h-139zM821 561l31 141h141l-32 -141h-140zM860 750l31 139h139l-29 -139h-141zM901 936l29 141h141l-31 -141h-139zM942 1124l29 140h143l-33 -140h-139zM979 1311l31 141h141l-31 -141h-141z" />
<glyph unicode="9" d="M139 0l31 139h139l-28 -139h-142zM219 375l29 139h141l-31 -139h-139zM258 561l33 141h139l-31 -141h-141zM299 750l29 139h141l-31 -139h-139zM328 0l28 139h140l-27 -139h-141zM338 936l29 141h143l-33 -141h-139zM379 1124l31 140h141l-31 -140h-141zM406 375l30 139 h139l-28 -139h-141zM418 1311l31 141h139l-31 -141h-139zM514 0l31 139h139l-29 -139h-141zM594 375l29 139h141l-31 -139h-139zM604 1311l31 141h141l-31 -141h-141zM702 0l29 139h141l-28 -139h-142zM739 186l33 140h141l-30 -140h-144zM780 375l31 139h139l-28 -139h-142 zM793 1311l30 141h142l-33 -141h-139zM821 561l31 141h141l-32 -141h-140zM860 750l31 139h139l-29 -139h-141zM901 936l29 141h141l-31 -141h-139zM942 1124l29 140h143l-33 -140h-139zM979 1311l31 141h141l-31 -141h-141z" />
<glyph unicode=":" horiz-adv-x="610" d="M139 0l31 139h139l-28 -139h-142zM178 186l33 140h139l-31 -140h-141zM258 561l33 141h139l-31 -141h-141zM299 750l29 139h141l-31 -139h-139zM328 0l28 139h140l-27 -139h-141zM365 186l36 140h138l-31 -140h-143zM446 561l31 141h141l-32 -141h-140zM485 750l31 139 h139l-28 -139h-142z" />
<glyph unicode=";" horiz-adv-x="610" d="M139 0l31 139h139l-28 -139h-142zM219 375l29 139h141l-31 -139h-139zM258 561l33 141h139l-31 -141h-141zM328 0l28 139h140l-27 -139h-141zM338 936l29 141h143l-33 -141h-139zM365 186l32 140h142l-31 -140h-143zM379 1124l31 140h141l-31 -140h-141zM406 375l30 139 h139l-28 -139h-141zM446 561l33 141h139l-32 -141h-140zM526 936l29 141h141l-30 -141h-140zM567 1124l29 140h143l-32 -140h-140z" />
<glyph unicode="&#x3c;" d="M258 561l33 141h139l-31 -141h-141zM406 375l30 139h139l-28 -139h-141zM485 750l31 139h139l-28 -139h-142zM553 186l33 140h139l-31 -140h-141zM702 0l29 139h141l-28 -139h-142zM713 936l28 141h144l-33 -141h-139zM942 1124l29 140h143l-33 -140h-139z" />
<glyph unicode="=" horiz-adv-x="983" d="M219 375l29 139h141l-31 -139h-139zM299 750l29 139h141l-31 -139h-139zM406 375l30 139h139l-28 -139h-141zM485 750l31 139h139l-28 -139h-142zM594 375l29 139h141l-31 -139h-139zM674 750l28 139h142l-31 -139h-139zM780 375l31 139h139l-28 -139h-142zM860 750 l31 139h139l-29 -139h-141z" />
<glyph unicode="&#x3e;" d="M139 0l31 139h139l-28 -139h-142zM365 186l32 140h142l-31 -140h-143zM379 1124l31 140h141l-31 -140h-141zM526 936l29 141h141l-30 -141h-140zM594 375l29 139h141l-31 -139h-139zM674 750l28 139h142l-31 -139h-139zM821 561l31 141h141l-32 -141h-140z" />
<glyph unicode="?" d="M139 0l31 139h139l-28 -139h-142zM219 375l29 139h141l-31 -139h-139zM406 375l30 139h139l-28 -139h-141zM418 1311l31 141h139l-31 -141h-139zM594 375l29 139h141l-31 -139h-139zM604 1311l31 141h141l-31 -141h-141zM780 375l31 139h139l-28 -139h-142zM793 1311 l30 141h142l-33 -141h-139zM821 561l31 141h141l-32 -141h-140zM860 750l31 139h139l-29 -139h-141zM901 936l29 141h141l-31 -141h-139zM942 1124l29 140h143l-33 -140h-139zM979 1311l31 141h141l-31 -141h-141z" />
<glyph unicode="@" d="M139 0l31 139h139l-28 -139h-142zM178 186l33 140h139l-31 -140h-141zM219 375l29 139h141l-31 -139h-139zM258 561l33 141h139l-31 -141h-141zM299 750l29 139h141l-31 -139h-139zM328 0l28 139h140l-27 -139h-141zM338 936l29 141h143l-33 -141h-139zM381 1128l29 142 h141l-31 -142h-139zM418 1311l31 141h139l-31 -141h-139zM514 0l31 139h139l-29 -139h-141zM594 375l29 139h141l-31 -139h-139zM604 1311l31 141h141l-31 -141h-141zM633 561l33 141h139l-31 -141h-141zM674 750l28 139h142l-31 -139h-139zM702 0l29 139h141l-28 -139h-142 zM713 936l28 141h144l-33 -141h-139zM780 375l31 139h139l-28 -139h-142zM793 1311l30 141h142l-33 -141h-139zM821 561l31 141h141l-32 -141h-140zM860 750l31 139h139l-29 -139h-141zM901 936l29 141h141l-31 -141h-139zM942 1124l29 140h143l-33 -140h-139zM979 1311 l31 141h141l-31 -141h-141z" />
<glyph unicode="A" d="M139 0l31 139h139l-28 -139h-142zM178 186l33 140h139l-31 -140h-141zM219 375l29 139h141l-31 -139h-139zM258 561l33 141h139l-31 -141h-141zM299 750l29 139h141l-31 -139h-139zM338 936l29 141h143l-33 -141h-139zM365 186l32 140h142l-31 -140h-143zM379 1124 l31 140h141l-31 -140h-141zM418 1311l31 141h139l-31 -141h-139zM553 186l33 140h139l-31 -140h-141zM604 1311l31 141h141l-31 -141h-141zM702 0l29 139h141l-28 -139h-142zM739 186l33 140h141l-30 -140h-144zM780 375l31 139h139l-28 -139h-142zM793 1311l30 141h142 l-33 -141h-139zM821 561l31 141h141l-32 -141h-140zM860 750l31 139h139l-29 -139h-141zM901 936l29 141h141l-31 -141h-139zM942 1124l29 140h143l-33 -140h-139zM979 1311l31 141h141l-31 -141h-141z" />
<glyph unicode="B" d="M139 0l31 139h139l-28 -139h-142zM178 186l33 140h139l-31 -140h-141zM219 375l29 139h141l-31 -139h-139zM258 561l33 141h139l-31 -141h-141zM299 750l29 139h141l-31 -139h-139zM328 0l28 139h140l-27 -139h-141zM338 936l29 141h143l-33 -141h-139zM379 1124l31 140 h141l-31 -140h-141zM418 1311l31 141h139l-31 -141h-139zM446 561l31 141h141l-32 -141h-140zM514 0l31 139h139l-29 -139h-141zM526 936l29 141h141l-30 -141h-140zM604 1311l31 141h141l-31 -141h-141zM633 561l33 141h139l-31 -141h-141zM702 0l29 139h141l-28 -139h-142 zM713 936l28 141h144l-33 -141h-139zM739 186l33 140h141l-30 -140h-144zM780 375l31 139h139l-28 -139h-142zM793 1311l30 141h142l-33 -141h-139zM821 561l31 141h141l-32 -141h-140zM901 936l29 141h141l-31 -141h-139zM942 1124l29 140h143l-33 -140h-139zM979 1311 l31 141h141l-31 -141h-141z" />
<glyph unicode="C" d="M139 0l31 139h139l-28 -139h-142zM178 186l33 140h139l-31 -140h-141zM219 375l29 139h141l-31 -139h-139zM258 561l33 141h139l-31 -141h-141zM299 750l29 139h141l-31 -139h-139zM328 0l28 139h140l-27 -139h-141zM338 936l29 141h143l-33 -141h-139zM379 1124l31 140 h141l-31 -140h-141zM418 1311l31 141h139l-31 -141h-139zM514 0l31 139h139l-29 -139h-141zM604 1311l31 141h141l-31 -141h-141zM702 0l29 139h141l-28 -139h-142zM793 1311l30 141h142l-33 -141h-139zM979 1311l31 141h141l-31 -141h-141z" />
<glyph unicode="D" d="M139 0l31 139h139l-28 -139h-142zM328 0l28 139h140l-27 -139h-141zM365 186l32 140h142l-31 -140h-143zM406 375l30 139h139l-28 -139h-141zM418 1311l31 141h139l-31 -141h-139zM446 561l31 141h141l-32 -141h-140zM485 750l31 139h139l-28 -139h-142zM514 0l31 139 h139l-29 -139h-141zM526 936l29 141h141l-30 -141h-140zM567 1124l29 140h143l-32 -140h-140zM604 1311l31 141h141l-31 -141h-141zM702 0l29 139h141l-28 -139h-142zM739 186l33 140h141l-30 -140h-144zM780 375l31 139h139l-28 -139h-142zM793 1311l30 141h142l-33 -141 h-139zM821 561l31 141h141l-32 -141h-140zM860 750l31 139h139l-29 -139h-141zM901 936l29 141h141l-31 -141h-139zM942 1124l29 140h143l-33 -140h-139zM979 1311l31 141h141l-31 -141h-141z" />
<glyph unicode="E" d="M139 0l31 139h139l-28 -139h-142zM178 186l33 140h139l-31 -140h-141zM219 375l29 139h141l-31 -139h-139zM258 561l33 141h139l-31 -141h-141zM299 750l29 139h141l-31 -139h-139zM328 0l28 139h140l-27 -139h-141zM338 936l29 141h143l-33 -141h-139zM379 1124l31 140 h141l-31 -140h-141zM406 375l30 139h139l-28 -139h-141zM418 1311l31 141h139l-31 -141h-139zM514 0l31 139h139l-29 -139h-141zM594 375l29 139h141l-31 -139h-139zM604 1311l31 141h141l-31 -141h-141zM702 0l29 139h141l-28 -139h-142zM780 375l31 139h139l-28 -139h-142 zM793 1311l30 141h142l-33 -141h-139zM979 1311l31 141h141l-31 -141h-141z" />
<glyph unicode="F" horiz-adv-x="905" d="M139 0l31 139h139l-28 -139h-142zM178 186l33 140h139l-31 -140h-141zM219 375l29 139h141l-31 -139h-139zM258 561l33 141h139l-31 -141h-141zM299 750l29 139h141l-31 -139h-139zM338 936l29 141h143l-33 -141h-139zM379 1124l31 140h141l-31 -140h-141zM418 1311 l31 141h139l-31 -141h-139zM526 936l29 141h141l-30 -141h-140zM604 1311l31 141h141l-31 -141h-141zM713 936l28 141h144l-33 -141h-139zM793 1311l30 141h142l-33 -141h-139zM901 936l29 141h141l-31 -141h-139zM979 1311l31 141h141l-31 -141h-141z" />
<glyph unicode="G" d="M139 0l31 139h139l-28 -139h-142zM178 186l33 140h139l-31 -140h-141zM219 375l29 139h141l-31 -139h-139zM258 561l33 141h139l-31 -141h-141zM299 750l29 139h141l-31 -139h-139zM328 0l28 139h140l-27 -139h-141zM338 936l29 141h143l-33 -141h-139zM379 1124l31 140 h141l-31 -140h-141zM418 1311l31 141h139l-31 -141h-139zM514 0l31 139h139l-29 -139h-141zM604 1311l31 141h141l-31 -141h-141zM702 0l29 139h141l-28 -139h-142zM713 936l28 141h144l-33 -141h-139zM739 186l33 140h141l-30 -140h-144zM780 375l31 139h139l-28 -139h-142 zM793 1311l30 141h142l-33 -141h-139zM821 561l31 141h141l-32 -141h-140zM860 750l31 139h139l-29 -139h-141zM901 936l29 141h141l-31 -141h-139zM979 1311l31 141h141l-31 -141h-141z" />
<glyph unicode="H" d="M139 0l31 139h139l-28 -139h-142zM178 186l33 140h139l-31 -140h-141zM219 375l29 139h141l-31 -139h-139zM258 561l33 141h139l-31 -141h-141zM299 750l29 139h141l-31 -139h-139zM338 936l29 141h143l-33 -141h-139zM365 186l32 140h142l-31 -140h-143zM379 1124 l31 140h141l-31 -140h-141zM418 1311l31 141h139l-31 -141h-139zM553 186l33 140h139l-31 -140h-141zM702 0l29 139h141l-28 -139h-142zM739 186l33 140h141l-30 -140h-144zM780 375l31 139h139l-28 -139h-142zM821 561l31 141h141l-32 -141h-140zM860 750l31 139h139 l-29 -139h-141zM901 936l29 141h141l-31 -141h-139zM942 1124l29 140h143l-33 -140h-139zM979 1311l31 141h141l-31 -141h-141z" />
<glyph unicode="I" horiz-adv-x="708" d="M92 0l29 139h139l-27 -139h-141zM281 0l26 139h142l-29 -139h-139zM317 186l31 140h141l-30 -140h-142zM356 375l31 139h141l-30 -139h-142zM369 1311l30 141h140l-29 -141h-141zM397 561l31 141h143l-34 -141h-140zM436 750l33 139h139l-30 -139h-142zM467 0l29 139h139 l-27 -139h-141zM477 936l31 141h139l-31 -141h-139zM518 1124l31 140h141l-33 -140h-139zM555 1311l33 141h139l-29 -141h-143zM743 1311l31 141h141l-30 -141h-142z" />
<glyph unicode="J" horiz-adv-x="927" d="M84 0l31 139h139l-29 -139h-141zM272 0l29 139h139l-28 -139h-140zM459 0l30 139h140l-29 -139h-141zM647 0l29 139h141l-31 -139h-139zM684 186l33 140h141l-33 -140h-141zM725 375l31 139h139l-31 -139h-139zM764 561l33 141h141l-33 -141h-141zM803 750l33 139h139 l-29 -139h-143zM844 936l30 141h140l-29 -141h-141zM885 1124l30 140h142l-31 -140h-141zM924 1311l30 141h140l-29 -141h-141z" />
<glyph unicode="K" d="M139 0l31 139h139l-28 -139h-142zM178 186l33 140h139l-31 -140h-141zM219 375l29 139h141l-31 -139h-139zM258 561l33 141h139l-31 -141h-141zM299 750l29 139h141l-31 -139h-139zM338 936l29 141h143l-33 -141h-139zM379 1124l31 140h141l-31 -140h-141zM418 1311 l31 141h139l-31 -141h-139zM446 561l31 141h141l-32 -141h-140zM526 936l29 141h141l-30 -141h-140zM633 561l33 141h139l-31 -141h-141zM702 0l29 139h141l-28 -139h-142zM713 936l28 141h144l-33 -141h-139zM739 186l33 140h141l-30 -140h-144zM780 375l31 139h139 l-28 -139h-142zM821 561l31 141h141l-32 -141h-140zM901 936l29 141h141l-31 -141h-139zM942 1124l29 140h143l-33 -140h-139zM979 1311l31 141h141l-31 -141h-141z" />
<glyph unicode="L" horiz-adv-x="899" d="M139 0l31 139h139l-28 -139h-142zM178 186l33 140h139l-31 -140h-141zM219 375l29 139h141l-31 -139h-139zM258 561l33 141h139l-31 -141h-141zM299 750l29 139h141l-31 -139h-139zM328 0l28 139h140l-27 -139h-141zM338 936l29 141h143l-33 -141h-139zM379 1124l31 140 h141l-31 -140h-141zM418 1311l31 141h139l-31 -141h-139zM514 0l31 139h139l-29 -139h-141zM702 0l29 139h141l-28 -139h-142z" />
<glyph unicode="M" horiz-adv-x="1173" d="M139 0l31 139h139l-28 -139h-142zM178 186l33 140h139l-31 -140h-141zM219 375l29 139h141l-31 -139h-139zM258 561l33 141h139l-31 -141h-141zM299 750l29 139h141l-31 -139h-139zM338 936l29 141h143l-33 -141h-139zM379 1124l31 140h141l-31 -140h-141zM418 1311 l31 141h139l-31 -141h-139zM514 0l31 139h139l-29 -139h-141zM553 186l33 140h139l-31 -140h-141zM594 375l29 139h141l-31 -139h-139zM604 1311l31 141h141l-31 -141h-141zM633 561l33 141h139l-31 -141h-141zM674 750l28 139h142l-31 -139h-139zM713 936l28 141h144 l-33 -141h-139zM754 1124l30 140h142l-31 -140h-141zM793 1311l30 141h142l-33 -141h-139zM893 0l29 139h139l-29 -139h-139zM930 186l31 140h139l-29 -140h-141zM969 375l32 139h140l-29 -139h-143zM979 1311l31 141h141l-31 -141h-141zM1010 561l32 141h140l-31 -141h-141 zM1051 750l28 139h142l-31 -139h-139zM1090 936l26 141h144l-29 -141h-141zM1133 1124l28 140h142l-31 -140h-139zM1169 1311l29 141h143l-32 -141h-140z" />
<glyph unicode="N" d="M139 0l31 139h139l-28 -139h-142zM178 186l33 140h139l-31 -140h-141zM219 375l29 139h141l-31 -139h-139zM258 561l33 141h139l-31 -141h-141zM299 750l29 139h141l-31 -139h-139zM338 936l29 141h143l-33 -141h-139zM379 1124l31 140h141l-31 -140h-141zM418 1311 l31 141h139l-31 -141h-139zM604 1311l31 141h141l-31 -141h-141zM702 0l29 139h141l-28 -139h-142zM739 186l33 140h141l-30 -140h-144zM780 375l31 139h139l-28 -139h-142zM793 1311l30 141h142l-33 -141h-139zM821 561l31 141h141l-32 -141h-140zM860 750l31 139h139 l-29 -139h-141zM901 936l29 141h141l-31 -141h-139zM942 1124l29 140h143l-33 -140h-139zM979 1311l31 141h141l-31 -141h-141z" />
<glyph unicode="O" d="M139 0l31 139h139l-28 -139h-142zM178 186l33 140h139l-31 -140h-141zM219 375l29 139h141l-31 -139h-139zM258 561l33 141h139l-31 -141h-141zM299 750l29 139h141l-31 -139h-139zM328 0l28 139h140l-27 -139h-141zM338 936l29 141h143l-33 -141h-139zM379 1124l31 140 h141l-31 -140h-141zM418 1311l31 141h139l-31 -141h-139zM514 0l31 139h139l-29 -139h-141zM604 1311l31 141h141l-31 -141h-141zM702 0l29 139h141l-28 -139h-142zM739 186l33 140h141l-30 -140h-144zM780 375l31 139h139l-28 -139h-142zM793 1311l30 141h142l-33 -141 h-139zM821 561l31 141h141l-32 -141h-140zM860 750l31 139h139l-29 -139h-141zM901 936l29 141h141l-31 -141h-139zM942 1124l29 140h143l-33 -140h-139zM979 1311l31 141h141l-31 -141h-141z" />
<glyph unicode="P" horiz-adv-x="950" d="M139 0l31 139h139l-28 -139h-142zM178 186l33 140h139l-31 -140h-141zM219 375l29 139h141l-31 -139h-139zM258 561l33 141h139l-31 -141h-141zM299 750l29 139h141l-31 -139h-139zM338 936l29 141h143l-33 -141h-139zM365 186l32 140h142l-31 -140h-143zM379 1124 l31 140h141l-31 -140h-141zM418 1311l31 141h139l-31 -141h-139zM553 186l33 140h139l-31 -140h-141zM604 1311l31 141h141l-31 -141h-141zM739 186l33 140h141l-30 -140h-144zM780 375l31 139h139l-28 -139h-142zM793 1311l30 141h142l-33 -141h-139zM821 561l31 141h141 l-32 -141h-140zM860 750l31 139h139l-29 -139h-141zM901 936l29 141h141l-31 -141h-139zM942 1124l29 140h143l-33 -140h-139zM979 1311l31 141h141l-31 -141h-141z" />
<glyph unicode="Q" d="M178 186l33 140h139l-31 -140h-141zM219 375l29 139h141l-31 -139h-139zM258 561l33 141h139l-31 -141h-141zM299 750l29 139h141l-31 -139h-139zM338 936l29 141h143l-33 -141h-139zM365 186l32 140h142l-31 -140h-143zM379 1124l31 140h141l-31 -140h-141zM418 1311 l31 141h139l-31 -141h-139zM553 186l33 140h139l-31 -140h-141zM604 1311l31 141h141l-31 -141h-141zM702 0l29 139h141l-28 -139h-142zM739 186l33 140h141l-30 -140h-144zM780 375l31 139h139l-28 -139h-142zM793 1311l30 141h142l-33 -141h-139zM821 561l31 141h141 l-32 -141h-140zM860 750l31 139h139l-29 -139h-141zM901 936l29 141h141l-31 -141h-139zM942 1124l29 140h143l-33 -140h-139zM979 1311l31 141h141l-31 -141h-141z" />
<glyph unicode="R" d="M139 0l31 139h139l-28 -139h-142zM178 186l33 140h139l-31 -140h-141zM219 375l29 139h141l-31 -139h-139zM258 561l33 141h139l-31 -141h-141zM299 750l29 139h141l-31 -139h-139zM338 936l29 141h143l-33 -141h-139zM379 1124l31 140h141l-31 -140h-141zM418 1311 l31 141h139l-31 -141h-139zM446 561l31 141h141l-32 -141h-140zM526 936l29 141h141l-30 -141h-140zM604 1311l31 141h141l-31 -141h-141zM633 561l33 141h139l-31 -141h-141zM702 0l29 139h141l-28 -139h-142zM713 936l28 141h144l-33 -141h-139zM739 186l33 140h141 l-30 -140h-144zM780 375l31 139h139l-28 -139h-142zM793 1311l30 141h142l-33 -141h-139zM821 561l31 141h141l-32 -141h-140zM901 936l29 141h141l-31 -141h-139zM942 1124l29 140h143l-33 -140h-139zM979 1311l31 141h141l-31 -141h-141z" />
<glyph unicode="S" d="M139 0l31 139h139l-28 -139h-142zM219 375l29 139h141l-31 -139h-139zM258 561l33 141h139l-31 -141h-141zM299 750l29 139h141l-31 -139h-139zM328 0l28 139h140l-27 -139h-141zM338 936l29 141h143l-33 -141h-139zM379 1124l31 140h141l-31 -140h-141zM406 375l30 139 h139l-28 -139h-141zM418 1311l31 141h139l-31 -141h-139zM514 0l31 139h139l-29 -139h-141zM594 375l29 139h141l-31 -139h-139zM604 1311l31 141h141l-31 -141h-141zM702 0l29 139h141l-28 -139h-142zM739 186l33 140h141l-30 -140h-144zM780 375l31 139h139l-28 -139h-142 zM793 1311l30 141h142l-33 -141h-139zM979 1311l31 141h141l-31 -141h-141z" />
<glyph unicode="T" horiz-adv-x="669" d="M256 0l27 139h141l-29 -139h-139zM293 186l31 140h143l-33 -140h-141zM332 375l33 139h139l-31 -139h-141zM344 1311l31 141h139l-29 -141h-141zM373 561l33 141h141l-35 -141h-139zM412 750l32 139h140l-31 -139h-141zM453 936l30 141h140l-29 -141h-141zM494 1124 l30 140h142l-31 -140h-141zM530 1311l33 141h139l-28 -141h-144zM719 1311l31 141h141l-31 -141h-141z" />
<glyph unicode="U" d="M139 0l31 139h139l-28 -139h-142zM178 186l33 140h139l-31 -140h-141zM219 375l29 139h141l-31 -139h-139zM258 561l33 141h139l-31 -141h-141zM299 750l29 139h141l-31 -139h-139zM328 0l28 139h140l-27 -139h-141zM338 936l29 141h143l-33 -141h-139zM379 1124l31 140 h141l-31 -140h-141zM418 1311l31 141h139l-31 -141h-139zM514 0l31 139h139l-29 -139h-141zM702 0l29 139h141l-28 -139h-142zM739 186l33 140h141l-30 -140h-144zM780 375l31 139h139l-28 -139h-142zM821 561l31 141h141l-32 -141h-140zM860 750l31 139h139l-29 -139h-141z M901 936l29 141h141l-31 -141h-139zM942 1124l29 140h143l-33 -140h-139zM979 1311l31 141h141l-31 -141h-141z" />
<glyph unicode="V" horiz-adv-x="948" d="M221 561l35 141h139l-30 -141h-144zM262 750l31 139h139l-29 -139h-141zM301 936l31 141h141l-31 -141h-141zM344 1124l31 140h139l-29 -140h-141zM369 375l32 139h140l-31 -139h-141zM383 1311l29 141h139l-29 -141h-139zM518 186l33 140h139l-33 -140h-139zM668 0 l28 139h142l-31 -139h-139zM705 186l32 140h142l-33 -140h-141zM745 375l31 139h139l-30 -139h-140zM784 561l33 141h141l-32 -141h-142zM823 750l33 139h139l-28 -139h-144zM864 936l31 141h139l-28 -141h-142zM905 1124l31 140h141l-30 -140h-142zM944 1311l31 141h139 l-29 -141h-141z" />
<glyph unicode="W" horiz-adv-x="1173" d="M139 0l31 139h139l-28 -139h-142zM178 186l33 140h139l-31 -140h-141zM219 375l29 139h141l-31 -139h-139zM258 561l33 141h139l-31 -141h-141zM299 750l29 139h141l-31 -139h-139zM328 0l28 139h140l-27 -139h-141zM338 936l29 141h143l-33 -141h-139zM379 1124l31 140 h141l-31 -140h-141zM418 1311l31 141h139l-31 -141h-139zM514 0l31 139h139l-29 -139h-141zM553 186l33 140h139l-31 -140h-141zM594 375l29 139h141l-31 -139h-139zM633 561l33 141h139l-31 -141h-141zM674 750l28 139h142l-31 -139h-139zM702 0l29 139h141l-28 -139h-142z M713 936l28 141h144l-33 -141h-139zM754 1124l30 140h142l-31 -140h-141zM793 1311l30 141h142l-33 -141h-139zM893 0l29 139h139l-29 -139h-139zM930 186l31 140h139l-29 -140h-141zM969 375l32 139h140l-29 -139h-143zM1010 561l32 141h140l-31 -141h-141zM1051 750 l28 139h142l-31 -139h-139zM1090 936l26 141h144l-29 -141h-141zM1133 1124l28 140h142l-31 -140h-139zM1169 1311l29 141h143l-32 -141h-140z" />
<glyph unicode="X" d="M139 0l31 139h139l-28 -139h-142zM178 186l33 140h139l-31 -140h-141zM219 375l29 139h141l-31 -139h-139zM258 561l33 141h139l-31 -141h-141zM338 936l29 141h143l-33 -141h-139zM379 1124l31 140h141l-31 -140h-141zM418 1311l31 141h139l-31 -141h-139zM485 750 l31 139h139l-28 -139h-142zM674 750l28 139h142l-31 -139h-139zM702 0l29 139h141l-28 -139h-142zM739 186l33 140h141l-30 -140h-144zM780 375l31 139h139l-28 -139h-142zM821 561l31 141h141l-32 -141h-140zM901 936l29 141h141l-31 -141h-139zM942 1124l29 140h143 l-33 -140h-139zM979 1311l31 141h141l-31 -141h-141z" />
<glyph unicode="Y" d="M139 0l31 139h139l-28 -139h-142zM219 375l29 139h141l-31 -139h-139zM258 561l33 141h139l-31 -141h-141zM299 750l29 139h141l-31 -139h-139zM328 0l28 139h140l-27 -139h-141zM338 936l29 141h143l-33 -141h-139zM379 1124l31 140h141l-31 -140h-141zM406 375l30 139 h139l-28 -139h-141zM418 1311l31 141h139l-31 -141h-139zM514 0l31 139h139l-29 -139h-141zM594 375l29 139h141l-31 -139h-139zM702 0l29 139h141l-28 -139h-142zM739 186l33 140h141l-30 -140h-144zM780 375l31 139h139l-28 -139h-142zM821 561l31 141h141l-32 -141h-140z M860 750l31 139h139l-29 -139h-141zM901 936l29 141h141l-31 -141h-139zM942 1124l29 140h143l-33 -140h-139zM979 1311l31 141h141l-31 -141h-141z" />
<glyph unicode="Z" d="M139 0l31 139h139l-28 -139h-142zM178 186l33 140h139l-31 -140h-141zM219 375l29 139h141l-31 -139h-139zM328 0l28 139h140l-27 -139h-141zM406 375l30 139h139l-28 -139h-141zM418 1311l31 141h139l-31 -141h-139zM514 0l31 139h139l-29 -139h-141zM594 375l29 139 h141l-31 -139h-139zM604 1311l31 141h141l-31 -141h-141zM702 0l29 139h141l-28 -139h-142zM780 375l31 139h139l-28 -139h-142zM793 1311l30 141h142l-33 -141h-139zM821 561l31 141h141l-32 -141h-140zM860 750l31 139h139l-29 -139h-141zM901 936l29 141h141l-31 -141 h-139zM942 1124l29 140h143l-33 -140h-139zM979 1311l31 141h141l-31 -141h-141z" />
<glyph unicode="[" horiz-adv-x="608" d="M139 0l31 139h139l-28 -139h-142zM178 186l33 140h139l-31 -140h-141zM219 375l29 139h141l-31 -139h-139zM258 561l33 141h139l-31 -141h-141zM299 750l29 139h141l-31 -139h-139zM328 0l28 139h140l-27 -139h-141zM338 936l29 141h143l-33 -141h-139zM379 1124l31 140 h141l-31 -140h-141zM418 1311l31 141h139l-31 -141h-139zM604 1311l31 141h141l-31 -141h-141z" />
<glyph unicode="\" d="M418 1311l31 141h139l-31 -141h-139zM485 750l31 139h139l-28 -139h-142zM526 936l29 141h141l-30 -141h-140zM553 186l33 140h139l-31 -140h-141zM567 1124l29 140h143l-32 -140h-140zM594 375l29 139h141l-31 -139h-139zM633 561l33 141h139l-31 -141h-141zM702 0 l29 139h141l-28 -139h-142z" />
<glyph unicode="]" horiz-adv-x="610" d="M139 0l31 139h139l-28 -139h-142zM328 0l28 139h140l-27 -139h-141zM365 186l32 140h142l-31 -140h-143zM406 375l30 139h139l-28 -139h-141zM418 1311l31 141h139l-31 -141h-139zM446 561l31 141h141l-32 -141h-140zM485 750l31 139h139l-28 -139h-142zM526 936l29 141 h141l-30 -141h-140zM567 1124l29 140h143l-32 -140h-140zM604 1311l31 141h141l-31 -141h-141z" />
<glyph unicode="^" horiz-adv-x="796" d="M379 1124l31 140h141l-31 -140h-141zM604 1311l31 141h141l-31 -141h-141zM754 1124l30 140h142l-31 -140h-141z" />
<glyph unicode="_" horiz-adv-x="794" d="M-31 -352l31 139h137l-28 -139h-140zM156 -352l28 139h140l-29 -139h-139zM342 -352l31 139h139l-29 -139h-141zM530 -352l29 139h141l-30 -139h-140z" />
<glyph unicode="`" horiz-adv-x="606" d="M426 1358l33 141h137l-29 -141h-141zM573 1171l31 140h139l-28 -140h-142z" />
<glyph unicode="a" d="M139 0l31 139h139l-28 -139h-142zM178 186l33 140h139l-31 -140h-141zM219 375l29 139h141l-31 -139h-139zM328 0l28 139h140l-27 -139h-141zM338 936l29 141h143l-33 -141h-139zM406 375l30 139h139l-28 -139h-141zM514 0l31 139h139l-29 -139h-141zM526 936l29 141h141 l-30 -141h-140zM594 375l29 139h141l-31 -139h-139zM702 0l29 139h141l-28 -139h-142zM713 936l28 141h144l-33 -141h-139zM739 186l33 140h141l-30 -140h-144zM780 375l31 139h139l-28 -139h-142zM821 561l31 141h141l-32 -141h-140zM860 750l31 139h139l-29 -139h-141z M901 936l29 141h141l-31 -141h-139z" />
<glyph unicode="b" d="M139 0l31 139h139l-28 -139h-142zM178 186l33 140h139l-31 -140h-141zM219 375l29 139h141l-31 -139h-139zM258 561l33 141h139l-31 -141h-141zM299 750l29 139h141l-31 -139h-139zM328 0l28 139h140l-27 -139h-141zM338 936l29 141h143l-33 -141h-139zM379 1124l31 140 h141l-31 -140h-141zM418 1311l31 141h139l-31 -141h-139zM514 0l31 139h139l-29 -139h-141zM526 936l29 141h141l-30 -141h-140zM702 0l29 139h141l-28 -139h-142zM713 936l28 141h144l-33 -141h-139zM739 186l33 140h141l-30 -140h-144zM780 375l31 139h139l-28 -139h-142z M821 561l31 141h141l-32 -141h-140zM860 750l31 139h139l-29 -139h-141zM901 936l29 141h141l-31 -141h-139z" />
<glyph unicode="c" d="M139 0l31 139h139l-28 -139h-142zM178 186l33 140h139l-31 -140h-141zM219 375l29 139h141l-31 -139h-139zM258 561l33 141h139l-31 -141h-141zM299 750l29 139h141l-31 -139h-139zM328 0l28 139h140l-27 -139h-141zM338 936l29 141h143l-33 -141h-139zM514 0l31 139h139 l-29 -139h-141zM526 936l29 141h141l-30 -141h-140zM702 0l29 139h141l-28 -139h-142zM713 936l28 141h144l-33 -141h-139zM901 936l29 141h141l-31 -141h-139z" />
<glyph unicode="d" d="M139 0l31 139h139l-28 -139h-142zM178 186l33 140h139l-31 -140h-141zM219 375l29 139h141l-31 -139h-139zM258 561l33 141h139l-31 -141h-141zM299 750l29 139h141l-31 -139h-139zM328 0l28 139h140l-27 -139h-141zM338 936l29 141h143l-33 -141h-139zM514 0l31 139h139 l-29 -139h-141zM526 936l29 141h141l-30 -141h-140zM702 0l29 139h141l-28 -139h-142zM713 936l28 141h144l-33 -141h-139zM739 186l33 140h141l-30 -140h-144zM780 375l31 139h139l-28 -139h-142zM821 561l31 141h141l-32 -141h-140zM860 750l31 139h139l-29 -139h-141z M901 936l29 141h141l-31 -141h-139zM942 1124l29 140h143l-33 -140h-139zM979 1311l31 141h141l-31 -141h-141z" />
<glyph unicode="e" d="M139 0l31 139h139l-28 -139h-142zM178 186l33 140h139l-31 -140h-141zM219 375l29 139h141l-31 -139h-139zM258 561l33 141h139l-31 -141h-141zM299 750l29 139h141l-31 -139h-139zM328 0l28 139h140l-27 -139h-141zM338 936l29 141h143l-33 -141h-139zM406 375l30 139 h139l-28 -139h-141zM514 0l31 139h139l-29 -139h-141zM526 936l29 141h141l-30 -141h-140zM594 375l29 139h141l-31 -139h-139zM702 0l29 139h141l-28 -139h-142zM713 936l28 141h144l-33 -141h-139zM780 375l31 139h139l-28 -139h-142zM821 561l31 141h141l-32 -141h-140z M860 750l31 139h139l-29 -139h-141zM901 936l29 141h141l-31 -141h-139z" />
<glyph unicode="f" horiz-adv-x="905" d="M139 0l31 139h139l-28 -139h-142zM178 186l33 140h139l-31 -140h-141zM219 375l29 139h141l-31 -139h-139zM258 561l33 141h139l-31 -141h-141zM299 750l29 139h141l-31 -139h-139zM338 936l29 141h143l-33 -141h-139zM379 1124l31 140h141l-31 -140h-141zM418 1311 l31 141h139l-31 -141h-139zM526 936l29 141h141l-30 -141h-140zM604 1311l31 141h141l-31 -141h-141zM713 936l28 141h144l-33 -141h-139zM793 1311l30 141h142l-33 -141h-139zM901 936l29 141h141l-31 -141h-139zM979 1311l31 141h141l-31 -141h-141z" />
<glyph unicode="g" d="M139 0l31 139h139l-28 -139h-142zM219 375l29 139h141l-31 -139h-139zM258 561l33 141h139l-31 -141h-141zM299 750l29 139h141l-31 -139h-139zM328 0l28 139h140l-27 -139h-141zM338 936l29 141h143l-33 -141h-139zM406 375l30 139h139l-28 -139h-141zM514 0l31 139h139 l-29 -139h-141zM526 936l29 141h141l-30 -141h-140zM594 375l29 139h141l-31 -139h-139zM702 0l29 139h141l-28 -139h-142zM713 936l28 141h144l-33 -141h-139zM739 186l33 140h141l-30 -140h-144zM780 375l31 139h139l-28 -139h-142zM821 561l31 141h141l-32 -141h-140z M860 750l31 139h139l-29 -139h-141zM901 936l29 141h141l-31 -141h-139z" />
<glyph unicode="h" d="M139 0l31 139h139l-28 -139h-142zM178 186l33 140h139l-31 -140h-141zM219 375l29 139h141l-31 -139h-139zM258 561l33 141h139l-31 -141h-141zM299 750l29 139h141l-31 -139h-139zM338 936l29 141h143l-33 -141h-139zM379 1124l31 140h141l-31 -140h-141zM418 1311 l31 141h139l-31 -141h-139zM526 936l29 141h141l-30 -141h-140zM702 0l29 139h141l-28 -139h-142zM713 936l28 141h144l-33 -141h-139zM739 186l33 140h141l-30 -140h-144zM780 375l31 139h139l-28 -139h-142zM821 561l31 141h141l-32 -141h-140zM860 750l31 139h139 l-29 -139h-141zM901 936l29 141h141l-31 -141h-139z" />
<glyph unicode="i" horiz-adv-x="540" d="M260 0l27 139h139l-27 -139h-139zM268 936l31 141h141l-32 -141h-140zM297 186l31 140h141l-31 -140h-141zM336 375l31 139h141l-31 -139h-141zM377 561l31 141h143l-35 -141h-139zM416 750l33 139h139l-31 -139h-141zM457 936l30 141h140l-31 -141h-139zM535 1311 l32 141h140l-29 -141h-143z" />
<glyph unicode="j" horiz-adv-x="532" d="M63 0l31 139h139l-28 -139h-142zM252 0l29 139h139l-29 -139h-139zM289 186l33 140h141l-33 -140h-141zM328 375l32 139h140l-31 -139h-141zM369 561l32 141h142l-33 -141h-141zM408 750l32 139h140l-29 -139h-143zM449 936l30 141h139l-28 -141h-141zM528 1311l31 141 h139l-28 -141h-142z" />
<glyph unicode="k" horiz-adv-x="987" d="M141 0l29 139h141l-30 -139h-140zM178 186l35 140h139l-30 -140h-144zM219 375l31 139h139l-29 -139h-141zM260 561l31 141h141l-31 -141h-141zM299 750l31 139h139l-29 -139h-141zM340 936l29 141h141l-31 -141h-139zM381 1124l31 140h139l-29 -140h-141zM406 375 l32 139h140l-29 -139h-143zM420 1311l29 141h141l-31 -141h-139zM487 750l29 139h141l-30 -139h-140zM594 375l31 139h141l-31 -139h-141zM676 750l29 139h139l-29 -139h-139zM705 0l28 139h139l-28 -139h-139zM741 186l33 140h141l-32 -140h-142zM780 375l33 139h139 l-28 -139h-144zM862 750l29 139h141l-31 -139h-139zM901 936l31 141h141l-31 -141h-141z" />
<glyph unicode="l" horiz-adv-x="421" d="M139 0l31 139h139l-28 -139h-142zM178 186l33 140h139l-31 -140h-141zM219 375l29 139h141l-31 -139h-139zM258 561l33 141h139l-31 -141h-141zM299 750l29 139h141l-31 -139h-139zM338 936l29 141h143l-33 -141h-139zM379 1124l31 140h141l-31 -140h-141zM418 1311 l31 141h139l-31 -141h-139z" />
<glyph unicode="m" horiz-adv-x="1173" d="M139 0l31 139h139l-28 -139h-142zM178 186l33 140h139l-31 -140h-141zM219 375l29 139h141l-31 -139h-139zM258 561l33 141h139l-31 -141h-141zM299 750l29 139h141l-31 -139h-139zM338 936l29 141h143l-33 -141h-139zM514 0l31 139h139l-29 -139h-141zM526 936l29 141 h141l-30 -141h-140zM553 186l33 140h139l-31 -140h-141zM594 375l29 139h141l-31 -139h-139zM633 561l33 141h139l-31 -141h-141zM674 750l28 139h142l-31 -139h-139zM713 936l28 141h144l-33 -141h-139zM893 0l29 139h139l-29 -139h-139zM901 936l29 141h141l-31 -141h-139 zM930 186l31 140h139l-29 -140h-141zM969 375l32 139h140l-29 -139h-143zM1010 561l32 141h140l-31 -141h-141zM1051 750l28 139h142l-31 -139h-139zM1090 936l26 141h144l-29 -141h-141z" />
<glyph unicode="n" d="M139 0l31 139h139l-28 -139h-142zM178 186l33 140h139l-31 -140h-141zM219 375l29 139h141l-31 -139h-139zM258 561l33 141h139l-31 -141h-141zM299 750l29 139h141l-31 -139h-139zM338 936l29 141h143l-33 -141h-139zM526 936l29 141h141l-30 -141h-140zM702 0l29 139 h141l-28 -139h-142zM713 936l28 141h144l-33 -141h-139zM739 186l33 140h141l-30 -140h-144zM780 375l31 139h139l-28 -139h-142zM821 561l31 141h141l-32 -141h-140zM860 750l31 139h139l-29 -139h-141zM901 936l29 141h141l-31 -141h-139z" />
<glyph unicode="o" d="M139 0l31 139h139l-28 -139h-142zM178 186l33 140h139l-31 -140h-141zM219 375l29 139h141l-31 -139h-139zM258 561l33 141h139l-31 -141h-141zM299 750l29 139h141l-31 -139h-139zM328 0l28 139h140l-27 -139h-141zM338 936l29 141h143l-33 -141h-139zM514 0l31 139h139 l-29 -139h-141zM526 936l29 141h141l-30 -141h-140zM702 0l29 139h141l-28 -139h-142zM713 936l28 141h144l-33 -141h-139zM739 186l33 140h141l-30 -140h-144zM780 375l31 139h139l-28 -139h-142zM821 561l31 141h141l-32 -141h-140zM860 750l31 139h139l-29 -139h-141z M901 936l29 141h141l-31 -141h-139z" />
<glyph unicode="p" d="M139 0l31 139h139l-28 -139h-142zM178 186l33 140h139l-31 -140h-141zM219 375l29 139h141l-31 -139h-139zM258 561l33 141h139l-31 -141h-141zM299 750l29 139h141l-31 -139h-139zM338 936l29 141h143l-33 -141h-139zM365 186l32 140h142l-31 -140h-143zM526 936l29 141 h141l-30 -141h-140zM553 186l33 140h139l-31 -140h-141zM713 936l28 141h144l-33 -141h-139zM739 186l33 140h141l-30 -140h-144zM780 375l31 139h139l-28 -139h-142zM821 561l31 141h141l-32 -141h-140zM860 750l31 139h139l-29 -139h-141zM901 936l29 141h141l-31 -141 h-139z" />
<glyph unicode="q" d="M178 186l33 140h139l-31 -140h-141zM219 375l29 139h141l-31 -139h-139zM258 561l33 141h139l-31 -141h-141zM299 750l29 139h141l-31 -139h-139zM338 936l29 141h143l-33 -141h-139zM365 186l32 140h142l-31 -140h-143zM526 936l29 141h141l-30 -141h-140zM553 186 l33 140h139l-31 -140h-141zM702 0l29 139h141l-28 -139h-142zM713 936l28 141h144l-33 -141h-139zM739 186l33 140h141l-30 -140h-144zM780 375l31 139h139l-28 -139h-142zM821 561l31 141h141l-32 -141h-140zM860 750l31 139h139l-29 -139h-141zM901 936l29 141h141 l-31 -141h-139z" />
<glyph unicode="r" horiz-adv-x="933" d="M139 0l31 139h139l-28 -139h-142zM178 186l33 140h139l-31 -140h-141zM219 375l29 139h141l-31 -139h-139zM258 561l33 141h139l-31 -141h-141zM299 750l29 139h141l-31 -139h-139zM338 936l29 141h143l-33 -141h-139zM526 936l29 141h141l-30 -141h-140zM713 936l28 141 h144l-33 -141h-139zM901 936l29 141h141l-31 -141h-139z" />
<glyph unicode="s" d="M139 0l31 139h139l-28 -139h-142zM219 375l29 139h141l-31 -139h-139zM258 561l33 141h139l-31 -141h-141zM299 750l29 139h141l-31 -139h-139zM328 0l28 139h140l-27 -139h-141zM338 936l29 141h143l-33 -141h-139zM406 375l30 139h139l-28 -139h-141zM514 0l31 139h139 l-29 -139h-141zM526 936l29 141h141l-30 -141h-140zM594 375l29 139h141l-31 -139h-139zM702 0l29 139h141l-28 -139h-142zM713 936l28 141h144l-33 -141h-139zM739 186l33 140h141l-30 -140h-144zM780 375l31 139h139l-28 -139h-142zM901 936l29 141h141l-31 -141h-139z " />
<glyph unicode="t" horiz-adv-x="862" d="M262 0l29 139h139l-27 -139h-141zM272 936l29 141h143l-32 -141h-140zM301 186l31 140h141l-31 -140h-141zM340 375l31 139h139l-29 -139h-141zM381 561l31 141h141l-33 -141h-139zM420 750l31 139h141l-31 -139h-141zM449 0l30 139h139l-26 -139h-143zM461 936l28 141 h142l-31 -141h-139zM502 1124l28 140h144l-33 -140h-139zM539 1311l32 141h140l-31 -141h-141zM637 0l29 139h141l-29 -139h-141zM647 936l31 141h141l-33 -141h-139zM836 936l28 141h142l-31 -141h-139z" />
<glyph unicode="u" d="M139 0l31 139h139l-28 -139h-142zM178 186l33 140h139l-31 -140h-141zM219 375l29 139h141l-31 -139h-139zM258 561l33 141h139l-31 -141h-141zM299 750l29 139h141l-31 -139h-139zM328 0l28 139h140l-27 -139h-141zM338 936l29 141h143l-33 -141h-139zM514 0l31 139h139 l-29 -139h-141zM702 0l29 139h141l-28 -139h-142zM739 186l33 140h141l-30 -140h-144zM780 375l31 139h139l-28 -139h-142zM821 561l31 141h141l-32 -141h-140zM860 750l31 139h139l-29 -139h-141zM901 936l29 141h141l-31 -141h-139z" />
<glyph unicode="v" horiz-adv-x="952" d="M225 561l35 141h139l-32 -141h-142zM266 750l31 139h139l-30 -139h-140zM305 936l31 141h141l-31 -141h-141zM373 375l33 139h139l-31 -139h-141zM522 186l31 140h141l-32 -140h-140zM672 0l26 139h144l-31 -139h-139zM709 186l30 140h144l-33 -140h-141zM750 375l30 139 h140l-31 -139h-139zM788 561l33 141h142l-35 -141h-140zM827 750l33 139h139l-30 -139h-142zM868 936l31 141h139l-28 -141h-142z" />
<glyph unicode="w" horiz-adv-x="1173" d="M139 0l31 139h139l-28 -139h-142zM178 186l33 140h139l-31 -140h-141zM219 375l29 139h141l-31 -139h-139zM258 561l33 141h139l-31 -141h-141zM299 750l29 139h141l-31 -139h-139zM328 0l28 139h140l-27 -139h-141zM338 936l29 141h143l-33 -141h-139zM514 0l31 139h139 l-29 -139h-141zM553 186l33 140h139l-31 -140h-141zM594 375l29 139h141l-31 -139h-139zM633 561l33 141h139l-31 -141h-141zM674 750l28 139h142l-31 -139h-139zM702 0l29 139h141l-28 -139h-142zM713 936l28 141h144l-33 -141h-139zM893 0l29 139h139l-29 -139h-139z M930 186l31 140h139l-29 -140h-141zM969 375l32 139h140l-29 -139h-143zM1010 561l32 141h140l-31 -141h-141zM1051 750l28 139h142l-31 -139h-139zM1090 936l26 141h144l-29 -141h-141z" />
<glyph unicode="x" d="M139 0l31 139h139l-28 -139h-142zM178 186l33 140h139l-31 -140h-141zM219 375l29 139h141l-31 -139h-139zM299 750l29 139h141l-31 -139h-139zM338 936l29 141h143l-33 -141h-139zM446 561l31 141h141l-32 -141h-140zM633 561l33 141h139l-31 -141h-141zM702 0l29 139 h141l-28 -139h-142zM739 186l33 140h141l-30 -140h-144zM780 375l31 139h139l-28 -139h-142zM860 750l31 139h139l-29 -139h-141zM901 936l29 141h141l-31 -141h-139z" />
<glyph unicode="y" d="M139 0l31 139h139l-28 -139h-142zM219 375l29 139h141l-31 -139h-139zM258 561l33 141h139l-31 -141h-141zM299 750l29 139h141l-31 -139h-139zM328 0l28 139h140l-27 -139h-141zM338 936l29 141h143l-33 -141h-139zM406 375l30 139h139l-28 -139h-141zM514 0l31 139h139 l-29 -139h-141zM594 375l29 139h141l-31 -139h-139zM702 0l29 139h141l-28 -139h-142zM739 186l33 140h141l-30 -140h-144zM780 375l31 139h139l-28 -139h-142zM821 561l31 141h141l-32 -141h-140zM860 750l31 139h139l-29 -139h-141zM901 936l29 141h141l-31 -141h-139z " />
<glyph unicode="z" d="M139 0l31 139h139l-28 -139h-142zM178 186l33 140h139l-31 -140h-141zM219 375l29 139h141l-31 -139h-139zM328 0l28 139h140l-27 -139h-141zM338 936l29 141h143l-33 -141h-139zM406 375l30 139h139l-28 -139h-141zM514 0l31 139h139l-29 -139h-141zM526 936l29 141h141 l-30 -141h-140zM594 375l29 139h141l-31 -139h-139zM702 0l29 139h141l-28 -139h-142zM713 936l28 141h144l-33 -141h-139zM780 375l31 139h139l-28 -139h-142zM821 561l31 141h141l-32 -141h-140zM860 750l31 139h139l-29 -139h-141zM901 936l29 141h141l-31 -141h-139z " />
<glyph unicode="{" horiz-adv-x="794" d="M258 561l33 141h139l-31 -141h-141zM299 750l29 139h141l-31 -139h-139zM365 186l32 140h140l-31 -140h-141zM406 375l28 139h141l-30 -139h-139zM514 0l29 139h139l-27 -139h-141zM524 936l29 141h143l-32 -141h-140zM565 1124l31 140h141l-30 -140h-142zM791 1311 l32 141h140l-31 -141h-141z" />
<glyph unicode="|" horiz-adv-x="796" d="M287 -186l30 139h140l-31 -139h-139zM328 0l28 139h140l-27 -139h-141zM365 186l32 140h142l-31 -140h-143zM406 375l30 139h139l-28 -139h-141zM446 561l31 141h141l-32 -141h-140zM485 750l31 139h139l-28 -139h-142zM526 936l29 141h141l-30 -141h-140zM567 1124 l29 140h143l-32 -140h-140zM604 1311l31 141h141l-31 -141h-141zM643 1499l35 141h139l-33 -141h-141z" />
<glyph unicode="}" horiz-adv-x="794" d="M139 0l29 139h139l-26 -139h-142zM367 186l28 140h140l-27 -140h-141zM406 375l28 139h141l-28 -139h-141zM418 1311l31 141h139l-29 -141h-141zM526 936l27 141h143l-30 -141h-140zM565 1124l29 140h141l-28 -140h-142zM631 561l31 141h141l-31 -141h-141zM674 750 l28 139h142l-31 -139h-139z" />
<glyph unicode="~" horiz-adv-x="983" d="M258 561l31 139h139l-29 -139h-141zM485 748l31 141h139l-28 -141h-142zM633 561l31 139h139l-29 -139h-141zM860 748l31 141h139l-29 -141h-141z" />
<glyph unicode="&#xa1;" horiz-adv-x="421" d="M139 0l31 139h139l-28 -139h-142zM219 375l29 139h141l-31 -139h-139zM258 561l33 141h139l-31 -141h-141zM299 750l29 139h141l-31 -139h-139zM338 936l29 141h143l-33 -141h-139zM379 1124l31 140h141l-31 -140h-141zM418 1311l31 141h139l-31 -141h-139z" />
<glyph unicode="&#xa2;" d="M178 186l33 140h139l-28 -140h-144zM219 373l31 139h139l-31 -139h-139zM258 561l29 139h141l-31 -139h-139zM299 748l31 141h139l-29 -141h-141zM338 936l29 139h141l-31 -139h-139zM367 186l30 140h140l-29 -140h-141zM377 1122l31 142h143l-35 -142h-139zM516 0 l29 139h139l-29 -139h-139zM553 186l33 140h139l-29 -140h-143zM565 1122l31 142h141l-32 -142h-140zM594 373l31 139h141l-31 -139h-141zM633 561l31 139h139l-29 -139h-141zM676 748l29 141h141l-31 -141h-139zM713 936l30 139h142l-31 -139h-141zM741 186l31 140h141 l-30 -140h-142zM752 1122l30 142h144l-35 -142h-139zM795 1311l28 139h144l-33 -139h-139zM940 1122l31 142h141l-33 -142h-139z" />
<glyph unicode="&#xa3;" d="M139 0l31 139h139l-28 -139h-142zM219 375l29 139h141l-31 -139h-139zM299 750l29 139h141l-31 -139h-139zM328 0l28 139h140l-27 -139h-141zM338 936l29 141h143l-33 -141h-139zM365 186l32 140h140l-31 -140h-141zM379 1124l31 140h141l-31 -140h-141zM406 375l30 139 h139l-28 -139h-141zM418 1311l31 141h139l-31 -141h-139zM444 561l33 141h139l-30 -141h-142zM514 0l31 139h139l-29 -139h-141zM594 375l29 139h141l-31 -139h-139zM604 1311l31 141h141l-31 -141h-141zM702 0l29 139h141l-28 -139h-142zM793 1311l30 141h142l-33 -141 h-139zM942 1124l29 140h143l-33 -140h-139zM979 1311l31 141h141l-31 -141h-141z" />
<glyph unicode="&#xa5;" horiz-adv-x="802" d="M219 375l31 139h141l-31 -139h-141zM328 0l30 139h140l-29 -139h-141zM342 936l29 141h141l-31 -141h-139zM367 186l32 140h140l-31 -140h-141zM383 1124l31 140h139l-29 -140h-141zM406 375l30 139h142l-31 -139h-141zM422 1311l29 141h141l-31 -141h-139zM446 561 l33 141h139l-30 -141h-142zM489 750l31 139h139l-28 -139h-142zM598 375l31 139h139l-29 -139h-141zM719 936l29 141h139l-29 -141h-139zM760 1124l28 140h142l-31 -140h-139zM797 1311l30 141h142l-31 -141h-141z" />
<glyph unicode="&#xa6;" horiz-adv-x="796" d="M287 -186l30 139h140l-31 -139h-139zM328 0l28 139h140l-27 -139h-141zM365 186l32 140h142l-31 -140h-143zM406 375l30 139h139l-28 -139h-141zM526 936l29 141h141l-30 -141h-140zM567 1124l29 140h143l-32 -140h-140zM604 1311l31 141h141l-31 -141h-141zM643 1499 l35 141h139l-33 -141h-141z" />
<glyph unicode="&#xa8;" horiz-adv-x="980" d="M418 1311l31 141h137l-31 -141h-137zM977 1311l33 141h139l-31 -141h-141z" />
<glyph unicode="&#xaa;" d="M139 0l31 139h139l-28 -139h-142zM178 186l33 140h139l-31 -140h-141zM219 375l29 139h141l-31 -139h-139zM328 0l28 139h140l-27 -139h-141zM338 936l29 141h143l-33 -141h-139zM406 375l30 139h139l-28 -139h-141zM514 0l31 139h139l-29 -139h-141zM526 936l29 141h141 l-30 -141h-140zM594 375l29 139h141l-31 -139h-139zM702 0l29 139h141l-28 -139h-142zM713 936l28 141h144l-33 -141h-139zM739 186l33 140h141l-30 -140h-144zM780 375l31 139h139l-28 -139h-142zM821 561l31 141h141l-32 -141h-140zM860 750l31 139h139l-29 -139h-141z M901 936l29 141h141l-31 -141h-139z" />
<glyph unicode="&#xab;" horiz-adv-x="1593" d="M258 561l33 141h139l-31 -141h-141zM406 375l30 139h139l-28 -139h-141zM485 750l31 139h139l-28 -139h-142zM553 186l33 140h139l-31 -140h-141zM713 936l28 141h144l-33 -141h-139zM1055 561l33 141h139l-31 -141h-141zM1203 375l30 139h139l-28 -139h-141zM1282 750 l31 139h139l-28 -139h-142zM1350 186l33 140h139l-31 -140h-141zM1510 936l28 141h144l-33 -141h-139z" />
<glyph unicode="&#xad;" horiz-adv-x="610" d="M258 561l33 141h139l-31 -141h-141zM446 561l31 141h141l-32 -141h-140z" />
<glyph unicode="&#xaf;" horiz-adv-x="980" d="M393 1194l31 141h139l-31 -141h-139zM575 1194l31 141h142l-31 -141h-142zM764 1194l31 141h139l-29 -141h-141zM952 1194l33 141h139l-30 -141h-142z" />
<glyph unicode="&#xb0;" horiz-adv-x="980" d="M379 1124l29 140h141l-33 -140h-137zM522 936l29 141h143l-32 -141h-140zM602 1311l31 141h139l-31 -141h-139zM711 936l30 141h140l-31 -141h-139zM788 1311l33 141h140l-31 -141h-142zM938 1124l31 140h141l-31 -140h-141z" />
<glyph unicode="&#xb1;" horiz-adv-x="796" d="M143 2l33 141h139l-31 -141h-141zM258 561l33 141h139l-31 -141h-141zM331 2l31 141h141l-32 -141h-140zM406 375l30 139h139l-28 -139h-141zM446 561l31 141h141l-32 -141h-140zM485 750l31 139h139l-28 -139h-142zM518 2l33 141h139l-31 -141h-141zM633 561l33 141h139 l-31 -141h-141z" />
<glyph unicode="&#xb2;" horiz-adv-x="595" d="M231 650l66 299h301l86 407h-303l20 96h402l-127 -600h-304l-24 -106h303l-21 -96h-399z" />
<glyph unicode="&#xb3;" horiz-adv-x="595" d="M233 650l21 96h299l24 106h-301l21 97h301l86 407h-303l20 96h402l-173 -802h-397z" />
<glyph unicode="&#xb4;" horiz-adv-x="608" d="M387 1171l33 140h137l-29 -140h-141zM614 1358l31 141h139l-28 -141h-142z" />
<glyph unicode="&#xb7;" horiz-adv-x="610" d="M139 0l31 139h139l-28 -139h-142zM178 186l33 140h139l-31 -140h-141zM328 0l28 139h140l-27 -139h-141zM365 186l32 140h142l-31 -140h-143z" />
<glyph unicode="&#xb8;" horiz-adv-x="610" d="M20 -561l31 139h139l-28 -139h-142zM209 -561l29 139h139l-29 -139h-139zM246 -375l33 139h141l-33 -139h-141zM285 -186l32 139h140l-31 -139h-141z" />
<glyph unicode="&#xb9;" horiz-adv-x="391" d="M331 650l152 706h-102l20 96h199l-172 -802h-97z" />
<glyph unicode="&#xba;" d="M139 0l31 139h139l-28 -139h-142zM178 186l33 140h139l-31 -140h-141zM219 375l29 139h141l-31 -139h-139zM258 561l33 141h139l-31 -141h-141zM299 750l29 139h141l-31 -139h-139zM328 0l28 139h140l-27 -139h-141zM338 936l29 141h143l-33 -141h-139zM514 0l31 139h139 l-29 -139h-141zM526 936l29 141h141l-30 -141h-140zM702 0l29 139h141l-28 -139h-142zM713 936l28 141h144l-33 -141h-139zM739 186l33 140h141l-30 -140h-144zM780 375l31 139h139l-28 -139h-142zM821 561l31 141h141l-32 -141h-140zM860 750l31 139h139l-29 -139h-141z M901 936l29 141h141l-31 -141h-139z" />
<glyph unicode="&#xbb;" horiz-adv-x="1593" d="M180 186l29 140h139l-26 -140h-142zM340 936l27 141h143l-31 -141h-139zM406 375l30 139h139l-26 -139h-143zM487 750l29 139h139l-26 -139h-142zM633 561l31 141h139l-29 -141h-141zM977 186l29 140h139l-26 -140h-142zM1137 936l27 141h143l-31 -141h-139zM1203 375 l30 139h139l-26 -139h-143zM1284 750l29 139h139l-26 -139h-142zM1430 561l31 141h139l-29 -141h-141z" />
<glyph unicode="&#xbc;" horiz-adv-x="1456" d="M262 0l31 139h139l-28 -139h-142zM301 186l33 140h139l-31 -140h-141zM378 650l152 706h-102l20 96h199l-172 -802h-97zM529 375l30 139h139l-28 -139h-141zM569 561l31 141h141l-32 -141h-140zM797 750l28 139h142l-31 -139h-139zM836 936l28 141h144l-33 -141h-139z M934 84l147 700h98l-129 -606h107l129 606h94l-129 -606h102l-20 -94h-100l-23 -102h-96l22 102h-202zM1065 1124l29 140h143l-33 -140h-139zM1102 1311l31 141h141l-31 -141h-141z" />
<glyph unicode="&#xbd;" horiz-adv-x="1427" d="M264 0l31 139h139l-28 -139h-142zM303 186l33 140h139l-31 -140h-141zM378 650l152 706h-102l20 96h199l-172 -802h-97zM531 375l30 139h139l-28 -139h-141zM571 561l31 141h141l-32 -141h-140zM799 750l28 139h142l-31 -139h-139zM838 936l28 141h144l-33 -141h-139z M881 -18l66 299h301l86 407h-303l20 96h402l-127 -600h-304l-24 -106h303l-21 -96h-399zM1067 1124l29 140h143l-33 -140h-139zM1104 1311l31 141h141l-31 -141h-141z" />
<glyph unicode="&#xbe;" horiz-adv-x="1662" d="M278 650l21 96h299l24 106h-301l21 97h301l86 407h-303l20 96h402l-173 -802h-397zM461 0l31 139h139l-28 -139h-142zM500 186l33 140h139l-31 -140h-141zM728 375l30 139h139l-28 -139h-141zM768 561l31 141h141l-32 -141h-140zM996 750l28 139h142l-31 -139h-139z M1035 936l28 141h144l-33 -141h-139zM1141 84l147 700h98l-129 -606h107l129 606h94l-129 -606h102l-20 -94h-100l-23 -102h-96l22 102h-202zM1264 1124l29 140h143l-33 -140h-139zM1301 1311l31 141h141l-31 -141h-141z" />
<glyph unicode="&#xbf;" d="M139 0l31 139h139l-28 -139h-142zM219 375l29 139h141l-31 -139h-139zM406 375l30 139h139l-28 -139h-141zM418 1311l31 141h139l-31 -141h-139zM594 375l29 139h141l-31 -139h-139zM604 1311l31 141h141l-31 -141h-141zM780 375l31 139h139l-28 -139h-142zM793 1311 l30 141h142l-33 -141h-139zM821 561l31 141h141l-32 -141h-140zM860 750l31 139h139l-29 -139h-141zM901 936l29 141h141l-31 -141h-139zM942 1124l29 140h143l-33 -140h-139zM979 1311l31 141h141l-31 -141h-141z" />
<glyph unicode="&#xc0;" d="M139 0l31 139h139l-28 -139h-142zM178 186l33 140h139l-31 -140h-141zM219 375l29 139h141l-31 -139h-139zM258 561l33 141h139l-31 -141h-141zM299 750l29 139h141l-31 -139h-139zM338 936l29 141h143l-33 -141h-139zM365 186l32 140h142l-31 -140h-143zM379 1124 l31 140h141l-31 -140h-141zM418 1311l31 141h139l-31 -141h-139zM553 186l33 140h139l-31 -140h-141zM604 1311l31 141h141l-31 -141h-141zM692 1733l33 141h137l-29 -141h-141zM702 0l29 139h141l-28 -139h-142zM739 186l33 140h141l-30 -140h-144zM780 375l31 139h139 l-28 -139h-142zM793 1311l30 141h142l-33 -141h-139zM821 561l31 141h141l-32 -141h-140zM839 1546l31 140h139l-28 -140h-142zM860 750l31 139h139l-29 -139h-141zM901 936l29 141h141l-31 -141h-139zM942 1124l29 140h143l-33 -140h-139zM979 1311l31 141h141l-31 -141 h-141z" />
<glyph unicode="&#xc1;" d="M139 0l31 139h139l-28 -139h-142zM178 186l33 140h139l-31 -140h-141zM219 375l29 139h141l-31 -139h-139zM258 561l33 141h139l-31 -141h-141zM299 750l29 139h141l-31 -139h-139zM338 936l29 141h143l-33 -141h-139zM365 186l32 140h142l-31 -140h-143zM379 1124 l31 140h141l-31 -140h-141zM418 1311l31 141h139l-31 -141h-139zM553 186l33 140h139l-31 -140h-141zM604 1311l31 141h141l-31 -141h-141zM653 1546l33 140h137l-29 -140h-141zM702 0l29 139h141l-28 -139h-142zM739 186l33 140h141l-30 -140h-144zM780 375l31 139h139 l-28 -139h-142zM793 1311l30 141h142l-33 -141h-139zM821 561l31 141h141l-32 -141h-140zM860 750l31 139h139l-29 -139h-141zM880 1733l31 141h139l-28 -141h-142zM901 936l29 141h141l-31 -141h-139zM942 1124l29 140h143l-33 -140h-139zM979 1311l31 141h141l-31 -141 h-141z" />
<glyph unicode="&#xc2;" d="M139 0l31 139h139l-28 -139h-142zM178 186l33 140h139l-31 -140h-141zM219 375l29 139h141l-31 -139h-139zM258 561l33 141h139l-31 -141h-141zM299 750l29 139h141l-31 -139h-139zM338 936l29 141h143l-33 -141h-139zM365 186l32 140h142l-31 -140h-143zM379 1124 l31 140h141l-31 -140h-141zM418 1311l31 141h139l-31 -141h-139zM473 1569l31 141h139l-31 -141h-139zM553 186l33 140h139l-31 -140h-141zM604 1311l31 141h141l-31 -141h-141zM696 1757l31 140h139l-28 -140h-142zM702 0l29 139h141l-28 -139h-142zM739 186l33 140h141 l-30 -140h-144zM780 375l31 139h139l-28 -139h-142zM793 1311l30 141h142l-33 -141h-139zM821 561l31 141h141l-32 -141h-140zM860 750l31 139h139l-29 -139h-141zM883 1757l31 140h141l-29 -140h-143zM901 936l29 141h141l-31 -141h-139zM942 1124l29 140h143l-33 -140 h-139zM979 1311l31 141h141l-31 -141h-141zM1032 1569l33 141h139l-30 -141h-142z" />
<glyph unicode="&#xc3;" d="M139 0l31 139h139l-28 -139h-142zM178 186l33 140h139l-31 -140h-141zM219 375l29 139h141l-31 -139h-139zM258 561l33 141h139l-31 -141h-141zM299 750l29 139h141l-31 -139h-139zM338 936l29 141h143l-33 -141h-139zM365 186l32 140h142l-31 -140h-143zM379 1124 l31 140h141l-31 -140h-141zM418 1311l31 141h139l-31 -141h-139zM473 1569l31 141h139l-31 -141h-139zM553 186l33 140h139l-31 -140h-141zM604 1311l31 141h141l-31 -141h-141zM655 1569l31 141h142l-31 -141h-142zM702 0l29 139h141l-28 -139h-142zM739 186l33 140h141 l-30 -140h-144zM780 375l31 139h139l-28 -139h-142zM793 1311l30 141h142l-33 -141h-139zM821 561l31 141h141l-32 -141h-140zM844 1569l31 141h139l-29 -141h-141zM860 750l31 139h139l-29 -139h-141zM901 936l29 141h141l-31 -141h-139zM942 1124l29 140h143l-33 -140 h-139zM979 1311l31 141h141l-31 -141h-141zM1032 1569l33 141h139l-30 -141h-142z" />
<glyph unicode="&#xc4;" d="M139 0l31 139h139l-28 -139h-142zM178 186l33 140h139l-31 -140h-141zM219 375l29 139h141l-31 -139h-139zM258 561l33 141h139l-31 -141h-141zM299 750l29 139h141l-31 -139h-139zM338 936l29 141h143l-33 -141h-139zM365 186l32 140h142l-31 -140h-143zM379 1124 l31 140h141l-31 -140h-141zM418 1311l31 141h139l-31 -141h-139zM498 1686l31 141h137l-31 -141h-137zM553 186l33 140h139l-31 -140h-141zM604 1311l31 141h141l-31 -141h-141zM702 0l29 139h141l-28 -139h-142zM739 186l33 140h141l-30 -140h-144zM780 375l31 139h139 l-28 -139h-142zM793 1311l30 141h142l-33 -141h-139zM821 561l31 141h141l-32 -141h-140zM860 750l31 139h139l-29 -139h-141zM901 936l29 141h141l-31 -141h-139zM942 1124l29 140h143l-33 -140h-139zM979 1311l31 141h141l-31 -141h-141zM1057 1686l33 141h139l-31 -141 h-141z" />
<glyph unicode="&#xc5;" d="M139 0l31 139h139l-28 -139h-142zM178 186l33 140h139l-31 -140h-141zM219 375l29 139h141l-31 -139h-139zM258 561l33 141h139l-31 -141h-141zM299 750l29 139h141l-31 -139h-139zM338 936l29 141h143l-33 -141h-139zM365 186l32 140h142l-31 -140h-143zM379 1124 l31 140h141l-31 -140h-141zM418 1311l31 141h139l-31 -141h-139zM553 186l33 140h139l-31 -140h-141zM604 1311l31 141h141l-31 -141h-141zM657 1569l29 139h141l-28 -139h-142zM698 1755l31 142h141l-33 -142h-139zM702 0l29 139h141l-28 -139h-142zM739 186l33 140h141 l-30 -140h-144zM780 375l31 139h139l-28 -139h-142zM793 1311l30 141h142l-33 -141h-139zM821 561l31 141h141l-32 -141h-140zM846 1569l28 139h140l-29 -139h-139zM860 750l31 139h139l-29 -139h-141zM887 1755l30 142h140l-31 -142h-139zM901 936l29 141h141l-31 -141 h-139zM942 1124l29 140h143l-33 -140h-139zM979 1311l31 141h141l-31 -141h-141z" />
<glyph unicode="&#xc6;" horiz-adv-x="1546" d="M141 0l29 139h139l-28 -139h-140zM178 186l33 140h141l-33 -140h-141zM219 375l31 139h139l-29 -139h-141zM260 561l31 141h139l-31 -141h-139zM299 750l29 139h141l-31 -139h-139zM338 936l31 141h141l-31 -141h-141zM367 186l32 140h140l-31 -140h-141zM381 1124 l29 140h141l-31 -140h-139zM418 1311l31 141h141l-31 -141h-141zM553 186l33 140h141l-33 -140h-141zM606 1311l29 141h141l-31 -141h-139zM702 0l31 139h139l-28 -139h-142zM741 186l33 140h139l-30 -140h-142zM780 375l31 139h141l-30 -139h-142zM793 1311l30 141h142 l-31 -141h-141zM821 561l33 141h139l-30 -141h-142zM862 750l29 139h139l-29 -139h-139zM891 0l29 139h139l-29 -139h-139zM901 936l29 141h143l-33 -141h-139zM942 1124l31 140h141l-31 -140h-141zM969 375l30 139h140l-29 -139h-141zM981 1311l29 141h141l-31 -141h-139z M1077 0l31 139h139l-28 -139h-142zM1155 375l31 139h141l-31 -139h-141zM1167 1311l31 141h141l-30 -141h-142zM1266 0l28 139h140l-29 -139h-139zM1343 375l31 139h139l-28 -139h-142zM1356 1311l28 141h142l-31 -141h-139zM1542 1311l31 141h141l-31 -141h-141z" />
<glyph unicode="&#xc7;" d="M139 0l31 139h139l-28 -139h-142zM178 186l33 140h139l-31 -140h-141zM206 -561l31 139h139l-28 -139h-142zM219 375l29 139h141l-31 -139h-139zM258 561l33 141h139l-31 -141h-141zM299 750l29 139h141l-31 -139h-139zM328 0l28 139h140l-27 -139h-141zM338 936l29 141 h143l-33 -141h-139zM379 1124l31 140h141l-31 -140h-141zM395 -561l29 139h139l-29 -139h-139zM418 1311l31 141h139l-31 -141h-139zM432 -375l33 139h141l-33 -139h-141zM471 -186l32 139h140l-31 -139h-141zM514 0l31 139h139l-29 -139h-141zM604 1311l31 141h141 l-31 -141h-141zM702 0l29 139h141l-28 -139h-142zM793 1311l30 141h142l-33 -141h-139zM979 1311l31 141h141l-31 -141h-141z" />
<glyph unicode="&#xc8;" d="M139 0l31 139h139l-28 -139h-142zM178 186l33 140h139l-31 -140h-141zM219 375l29 139h141l-31 -139h-139zM258 561l33 141h139l-31 -141h-141zM299 750l29 139h141l-31 -139h-139zM328 0l28 139h140l-27 -139h-141zM338 936l29 141h143l-33 -141h-139zM379 1124l31 140 h141l-31 -140h-141zM406 375l30 139h139l-28 -139h-141zM418 1311l31 141h139l-31 -141h-139zM514 0l31 139h139l-29 -139h-141zM594 375l29 139h141l-31 -139h-139zM604 1311l31 141h141l-31 -141h-141zM692 1733l33 141h137l-29 -141h-141zM702 0l29 139h141l-28 -139 h-142zM780 375l31 139h139l-28 -139h-142zM793 1311l30 141h142l-33 -141h-139zM839 1546l31 140h139l-28 -140h-142zM979 1311l31 141h141l-31 -141h-141z" />
<glyph unicode="&#xc9;" d="M139 0l31 139h139l-28 -139h-142zM178 186l33 140h139l-31 -140h-141zM219 375l29 139h141l-31 -139h-139zM258 561l33 141h139l-31 -141h-141zM299 750l29 139h141l-31 -139h-139zM328 0l28 139h140l-27 -139h-141zM338 936l29 141h143l-33 -141h-139zM379 1124l31 140 h141l-31 -140h-141zM406 375l30 139h139l-28 -139h-141zM418 1311l31 141h139l-31 -141h-139zM514 0l31 139h139l-29 -139h-141zM594 375l29 139h141l-31 -139h-139zM604 1311l31 141h141l-31 -141h-141zM653 1546l33 140h137l-29 -140h-141zM702 0l29 139h141l-28 -139 h-142zM780 375l31 139h139l-28 -139h-142zM793 1311l30 141h142l-33 -141h-139zM880 1733l31 141h139l-28 -141h-142zM979 1311l31 141h141l-31 -141h-141z" />
<glyph unicode="&#xca;" d="M139 0l31 139h139l-28 -139h-142zM178 186l33 140h139l-31 -140h-141zM219 375l29 139h141l-31 -139h-139zM258 561l33 141h139l-31 -141h-141zM299 750l29 139h141l-31 -139h-139zM328 0l28 139h140l-27 -139h-141zM338 936l29 141h143l-33 -141h-139zM379 1124l31 140 h141l-31 -140h-141zM406 375l30 139h139l-28 -139h-141zM418 1311l31 141h139l-31 -141h-139zM473 1569l31 141h139l-31 -141h-139zM514 0l31 139h139l-29 -139h-141zM594 375l29 139h141l-31 -139h-139zM604 1311l31 141h141l-31 -141h-141zM696 1757l31 140h139l-28 -140 h-142zM702 0l29 139h141l-28 -139h-142zM780 375l31 139h139l-28 -139h-142zM793 1311l30 141h142l-33 -141h-139zM883 1757l31 140h141l-29 -140h-143zM979 1311l31 141h141l-31 -141h-141zM1032 1569l33 141h139l-30 -141h-142z" />
<glyph unicode="&#xcb;" d="M139 0l31 139h139l-28 -139h-142zM178 186l33 140h139l-31 -140h-141zM219 375l29 139h141l-31 -139h-139zM258 561l33 141h139l-31 -141h-141zM299 750l29 139h141l-31 -139h-139zM328 0l28 139h140l-27 -139h-141zM338 936l29 141h143l-33 -141h-139zM379 1124l31 140 h141l-31 -140h-141zM406 375l30 139h139l-28 -139h-141zM418 1311l31 141h139l-31 -141h-139zM498 1686l31 141h137l-31 -141h-137zM514 0l31 139h139l-29 -139h-141zM594 375l29 139h141l-31 -139h-139zM604 1311l31 141h141l-31 -141h-141zM702 0l29 139h141l-28 -139 h-142zM780 375l31 139h139l-28 -139h-142zM793 1311l30 141h142l-33 -141h-139zM979 1311l31 141h141l-31 -141h-141zM1057 1686l33 141h139l-31 -141h-141z" />
<glyph unicode="&#xcc;" horiz-adv-x="708" d="M92 0l29 139h139l-27 -139h-141zM281 0l26 139h142l-29 -139h-139zM317 186l31 140h141l-30 -140h-142zM356 375l31 139h141l-30 -139h-142zM369 1311l30 141h140l-29 -141h-141zM397 561l31 141h143l-34 -141h-140zM436 750l33 139h139l-30 -139h-142zM467 0l29 139h139 l-27 -139h-141zM477 936l31 141h139l-31 -141h-139zM518 1124l31 140h141l-33 -140h-139zM555 1311l33 141h139l-29 -141h-143zM555 1733l33 141h137l-29 -141h-141zM702 1546l31 140h139l-28 -140h-142zM743 1311l31 141h141l-30 -141h-142z" />
<glyph unicode="&#xcd;" horiz-adv-x="708" d="M92 0l29 139h139l-27 -139h-141zM281 0l26 139h142l-29 -139h-139zM317 186l31 140h141l-30 -140h-142zM356 375l31 139h141l-30 -139h-142zM369 1311l30 141h140l-29 -141h-141zM397 561l31 141h143l-34 -141h-140zM436 750l33 139h139l-30 -139h-142zM467 0l29 139h139 l-27 -139h-141zM477 936l31 141h139l-31 -141h-139zM516 1546l33 140h137l-29 -140h-141zM518 1124l31 140h141l-33 -140h-139zM555 1311l33 141h139l-29 -141h-143zM743 1311l31 141h141l-30 -141h-142zM743 1733l31 141h139l-28 -141h-142z" />
<glyph unicode="&#xce;" horiz-adv-x="708" d="M92 0l29 139h139l-27 -139h-141zM281 0l26 139h142l-29 -139h-139zM317 186l31 140h141l-30 -140h-142zM340 1569l31 141h139l-31 -141h-139zM356 375l31 139h141l-30 -139h-142zM369 1311l30 141h140l-29 -141h-141zM397 561l31 141h143l-34 -141h-140zM436 750l33 139 h139l-30 -139h-142zM467 0l29 139h139l-27 -139h-141zM477 936l31 141h139l-31 -141h-139zM518 1124l31 140h141l-33 -140h-139zM555 1311l33 141h139l-29 -141h-143zM563 1757l31 140h139l-28 -140h-142zM743 1311l31 141h141l-30 -141h-142zM750 1757l31 140h141l-29 -140 h-143zM899 1569l33 141h139l-30 -141h-142z" />
<glyph unicode="&#xcf;" horiz-adv-x="708" d="M92 0l29 139h139l-27 -139h-141zM281 0l26 139h142l-29 -139h-139zM317 186l31 140h141l-30 -140h-142zM356 375l31 139h141l-30 -139h-142zM365 1686l31 141h137l-31 -141h-137zM369 1311l30 141h140l-29 -141h-141zM397 561l31 141h143l-34 -141h-140zM436 750l33 139 h139l-30 -139h-142zM467 0l29 139h139l-27 -139h-141zM477 936l31 141h139l-31 -141h-139zM518 1124l31 140h141l-33 -140h-139zM555 1311l33 141h139l-29 -141h-143zM743 1311l31 141h141l-30 -141h-142zM924 1686l33 141h139l-31 -141h-141z" />
<glyph unicode="&#xd0;" d="M139 0l31 139h139l-28 -139h-142zM217 375l31 139h139l-29 -139h-141zM328 0l28 139h140l-27 -139h-141zM365 186l32 140h142l-31 -140h-143zM406 375l30 139h139l-28 -139h-141zM418 1311l31 141h139l-31 -141h-139zM446 561l31 141h141l-32 -141h-140zM485 750l31 139 h139l-28 -139h-142zM514 0l31 139h139l-29 -139h-141zM526 936l29 141h141l-30 -141h-140zM567 1124l29 140h143l-32 -140h-140zM604 1311l31 141h141l-31 -141h-141zM702 0l29 139h141l-28 -139h-142zM739 186l33 140h141l-30 -140h-144zM780 375l31 139h139l-28 -139h-142 zM793 1311l30 141h142l-33 -141h-139zM821 561l31 141h141l-32 -141h-140zM860 750l31 139h139l-29 -139h-141zM901 936l29 141h141l-31 -141h-139zM942 1124l29 140h143l-33 -140h-139zM979 1311l31 141h141l-31 -141h-141z" />
<glyph unicode="&#xd1;" d="M139 0l31 139h139l-28 -139h-142zM178 186l33 140h139l-31 -140h-141zM219 375l29 139h141l-31 -139h-139zM258 561l33 141h139l-31 -141h-141zM299 750l29 139h141l-31 -139h-139zM338 936l29 141h143l-33 -141h-139zM379 1124l31 140h141l-31 -140h-141zM418 1311 l31 141h139l-31 -141h-139zM473 1569l31 141h139l-31 -141h-139zM604 1311l31 141h141l-31 -141h-141zM655 1569l31 141h142l-31 -141h-142zM702 0l29 139h141l-28 -139h-142zM739 186l33 140h141l-30 -140h-144zM780 375l31 139h139l-28 -139h-142zM793 1311l30 141h142 l-33 -141h-139zM821 561l31 141h141l-32 -141h-140zM844 1569l31 141h139l-29 -141h-141zM860 750l31 139h139l-29 -139h-141zM901 936l29 141h141l-31 -141h-139zM942 1124l29 140h143l-33 -140h-139zM979 1311l31 141h141l-31 -141h-141zM1032 1569l33 141h139l-30 -141 h-142z" />
<glyph unicode="&#xd2;" d="M139 0l31 139h139l-28 -139h-142zM178 186l33 140h139l-31 -140h-141zM219 375l29 139h141l-31 -139h-139zM258 561l33 141h139l-31 -141h-141zM299 750l29 139h141l-31 -139h-139zM328 0l28 139h140l-27 -139h-141zM338 936l29 141h143l-33 -141h-139zM379 1124l31 140 h141l-31 -140h-141zM418 1311l31 141h139l-31 -141h-139zM514 0l31 139h139l-29 -139h-141zM604 1311l31 141h141l-31 -141h-141zM692 1733l33 141h137l-29 -141h-141zM702 0l29 139h141l-28 -139h-142zM739 186l33 140h141l-30 -140h-144zM780 375l31 139h139l-28 -139 h-142zM793 1311l30 141h142l-33 -141h-139zM821 561l31 141h141l-32 -141h-140zM839 1546l31 140h139l-28 -140h-142zM860 750l31 139h139l-29 -139h-141zM901 936l29 141h141l-31 -141h-139zM942 1124l29 140h143l-33 -140h-139zM979 1311l31 141h141l-31 -141h-141z" />
<glyph unicode="&#xd3;" d="M139 0l31 139h139l-28 -139h-142zM178 186l33 140h139l-31 -140h-141zM219 375l29 139h141l-31 -139h-139zM258 561l33 141h139l-31 -141h-141zM299 750l29 139h141l-31 -139h-139zM328 0l28 139h140l-27 -139h-141zM338 936l29 141h143l-33 -141h-139zM379 1124l31 140 h141l-31 -140h-141zM418 1311l31 141h139l-31 -141h-139zM514 0l31 139h139l-29 -139h-141zM604 1311l31 141h141l-31 -141h-141zM653 1546l33 140h137l-29 -140h-141zM702 0l29 139h141l-28 -139h-142zM739 186l33 140h141l-30 -140h-144zM780 375l31 139h139l-28 -139 h-142zM793 1311l30 141h142l-33 -141h-139zM821 561l31 141h141l-32 -141h-140zM860 750l31 139h139l-29 -139h-141zM880 1733l31 141h139l-28 -141h-142zM901 936l29 141h141l-31 -141h-139zM942 1124l29 140h143l-33 -140h-139zM979 1311l31 141h141l-31 -141h-141z" />
<glyph unicode="&#xd4;" d="M139 0l31 139h139l-28 -139h-142zM178 186l33 140h139l-31 -140h-141zM219 375l29 139h141l-31 -139h-139zM258 561l33 141h139l-31 -141h-141zM299 750l29 139h141l-31 -139h-139zM328 0l28 139h140l-27 -139h-141zM338 936l29 141h143l-33 -141h-139zM379 1124l31 140 h141l-31 -140h-141zM418 1311l31 141h139l-31 -141h-139zM473 1569l31 141h139l-31 -141h-139zM514 0l31 139h139l-29 -139h-141zM604 1311l31 141h141l-31 -141h-141zM696 1757l31 140h139l-28 -140h-142zM702 0l29 139h141l-28 -139h-142zM739 186l33 140h141l-30 -140 h-144zM780 375l31 139h139l-28 -139h-142zM793 1311l30 141h142l-33 -141h-139zM821 561l31 141h141l-32 -141h-140zM860 750l31 139h139l-29 -139h-141zM883 1757l31 140h141l-29 -140h-143zM901 936l29 141h141l-31 -141h-139zM942 1124l29 140h143l-33 -140h-139z M979 1311l31 141h141l-31 -141h-141zM1032 1569l33 141h139l-30 -141h-142z" />
<glyph unicode="&#xd5;" d="M139 0l31 139h139l-28 -139h-142zM178 186l33 140h139l-31 -140h-141zM219 375l29 139h141l-31 -139h-139zM258 561l33 141h139l-31 -141h-141zM299 750l29 139h141l-31 -139h-139zM328 0l28 139h140l-27 -139h-141zM338 936l29 141h143l-33 -141h-139zM379 1124l31 140 h141l-31 -140h-141zM418 1311l31 141h139l-31 -141h-139zM473 1569l31 141h139l-31 -141h-139zM514 0l31 139h139l-29 -139h-141zM604 1311l31 141h141l-31 -141h-141zM655 1569l31 141h142l-31 -141h-142zM702 0l29 139h141l-28 -139h-142zM739 186l33 140h141l-30 -140 h-144zM780 375l31 139h139l-28 -139h-142zM793 1311l30 141h142l-33 -141h-139zM821 561l31 141h141l-32 -141h-140zM844 1569l31 141h139l-29 -141h-141zM860 750l31 139h139l-29 -139h-141zM901 936l29 141h141l-31 -141h-139zM942 1124l29 140h143l-33 -140h-139z M979 1311l31 141h141l-31 -141h-141zM1032 1569l33 141h139l-30 -141h-142z" />
<glyph unicode="&#xd6;" d="M139 0l31 139h139l-28 -139h-142zM178 186l33 140h139l-31 -140h-141zM219 375l29 139h141l-31 -139h-139zM258 561l33 141h139l-31 -141h-141zM299 750l29 139h141l-31 -139h-139zM328 0l28 139h140l-27 -139h-141zM338 936l29 141h143l-33 -141h-139zM379 1124l31 140 h141l-31 -140h-141zM418 1311l31 141h139l-31 -141h-139zM498 1686l31 141h137l-31 -141h-137zM514 0l31 139h139l-29 -139h-141zM604 1311l31 141h141l-31 -141h-141zM702 0l29 139h141l-28 -139h-142zM739 186l33 140h141l-30 -140h-144zM780 375l31 139h139l-28 -139 h-142zM793 1311l30 141h142l-33 -141h-139zM821 561l31 141h141l-32 -141h-140zM860 750l31 139h139l-29 -139h-141zM901 936l29 141h141l-31 -141h-139zM942 1124l29 140h143l-33 -140h-139zM979 1311l31 141h141l-31 -141h-141zM1057 1686l33 141h139l-31 -141h-141z" />
<glyph unicode="&#xd7;" horiz-adv-x="796" d="M258 561l33 141h139l-31 -141h-141zM406 375l30 139h139l-28 -139h-141zM446 561l31 141h141l-32 -141h-140zM485 750l31 139h139l-28 -139h-142zM633 561l33 141h139l-31 -141h-141z" />
<glyph unicode="&#xd8;" d="M141 0l29 139h139l-28 -139h-140zM178 186l33 140h141l-33 -140h-141zM219 375l31 139h139l-29 -139h-141zM260 561l31 141h139l-31 -141h-139zM299 750l29 139h141l-31 -139h-139zM328 0l28 139h142l-29 -139h-141zM338 936l31 141h141l-31 -141h-141zM381 1124l29 140 h141l-31 -140h-139zM406 375l30 139h142l-31 -139h-141zM418 1311l31 141h141l-33 -141h-139zM446 561l33 141h139l-30 -141h-142zM516 0l29 139h139l-29 -139h-139zM606 1311l29 141h141l-31 -141h-139zM674 750l28 139h142l-31 -139h-139zM702 0l29 139h141l-28 -139h-142 zM713 936l30 141h142l-31 -141h-141zM739 186l35 140h139l-30 -140h-144zM780 375l31 139h141l-30 -139h-142zM793 1311l30 141h142l-31 -141h-141zM821 561l33 141h139l-30 -141h-142zM862 750l29 139h139l-29 -139h-139zM901 936l29 141h143l-33 -141h-139zM942 1124 l31 140h141l-31 -140h-141zM981 1311l29 141h141l-31 -141h-139z" />
<glyph unicode="&#xd9;" d="M139 0l31 139h139l-28 -139h-142zM178 186l33 140h139l-31 -140h-141zM219 375l29 139h141l-31 -139h-139zM258 561l33 141h139l-31 -141h-141zM299 750l29 139h141l-31 -139h-139zM328 0l28 139h140l-27 -139h-141zM338 936l29 141h143l-33 -141h-139zM379 1124l31 140 h141l-31 -140h-141zM418 1311l31 141h139l-31 -141h-139zM514 0l31 139h139l-29 -139h-141zM692 1733l33 141h137l-29 -141h-141zM702 0l29 139h141l-28 -139h-142zM739 186l33 140h141l-30 -140h-144zM780 375l31 139h139l-28 -139h-142zM821 561l31 141h141l-32 -141h-140 zM839 1546l31 140h139l-28 -140h-142zM860 750l31 139h139l-29 -139h-141zM901 936l29 141h141l-31 -141h-139zM942 1124l29 140h143l-33 -140h-139zM979 1311l31 141h141l-31 -141h-141z" />
<glyph unicode="&#xda;" d="M139 0l31 139h139l-28 -139h-142zM178 186l33 140h139l-31 -140h-141zM219 375l29 139h141l-31 -139h-139zM258 561l33 141h139l-31 -141h-141zM299 750l29 139h141l-31 -139h-139zM328 0l28 139h140l-27 -139h-141zM338 936l29 141h143l-33 -141h-139zM379 1124l31 140 h141l-31 -140h-141zM418 1311l31 141h139l-31 -141h-139zM514 0l31 139h139l-29 -139h-141zM653 1546l33 140h137l-29 -140h-141zM702 0l29 139h141l-28 -139h-142zM739 186l33 140h141l-30 -140h-144zM780 375l31 139h139l-28 -139h-142zM821 561l31 141h141l-32 -141h-140 zM860 750l31 139h139l-29 -139h-141zM880 1733l31 141h139l-28 -141h-142zM901 936l29 141h141l-31 -141h-139zM942 1124l29 140h143l-33 -140h-139zM979 1311l31 141h141l-31 -141h-141z" />
<glyph unicode="&#xdb;" d="M139 0l31 139h139l-28 -139h-142zM178 186l33 140h139l-31 -140h-141zM219 375l29 139h141l-31 -139h-139zM258 561l33 141h139l-31 -141h-141zM299 750l29 139h141l-31 -139h-139zM328 0l28 139h140l-27 -139h-141zM338 936l29 141h143l-33 -141h-139zM379 1124l31 140 h141l-31 -140h-141zM418 1311l31 141h139l-31 -141h-139zM473 1569l31 141h139l-31 -141h-139zM514 0l31 139h139l-29 -139h-141zM696 1757l31 140h139l-28 -140h-142zM702 0l29 139h141l-28 -139h-142zM739 186l33 140h141l-30 -140h-144zM780 375l31 139h139l-28 -139 h-142zM821 561l31 141h141l-32 -141h-140zM860 750l31 139h139l-29 -139h-141zM883 1757l31 140h141l-29 -140h-143zM901 936l29 141h141l-31 -141h-139zM942 1124l29 140h143l-33 -140h-139zM979 1311l31 141h141l-31 -141h-141zM1032 1569l33 141h139l-30 -141h-142z" />
<glyph unicode="&#xdc;" d="M139 0l31 139h139l-28 -139h-142zM178 186l33 140h139l-31 -140h-141zM219 375l29 139h141l-31 -139h-139zM258 561l33 141h139l-31 -141h-141zM299 750l29 139h141l-31 -139h-139zM328 0l28 139h140l-27 -139h-141zM338 936l29 141h143l-33 -141h-139zM379 1124l31 140 h141l-31 -140h-141zM418 1311l31 141h139l-31 -141h-139zM498 1686l31 141h137l-31 -141h-137zM514 0l31 139h139l-29 -139h-141zM702 0l29 139h141l-28 -139h-142zM739 186l33 140h141l-30 -140h-144zM780 375l31 139h139l-28 -139h-142zM821 561l31 141h141l-32 -141h-140 zM860 750l31 139h139l-29 -139h-141zM901 936l29 141h141l-31 -141h-139zM942 1124l29 140h143l-33 -140h-139zM979 1311l31 141h141l-31 -141h-141zM1057 1686l33 141h139l-31 -141h-141z" />
<glyph unicode="&#xdd;" d="M139 0l31 139h139l-28 -139h-142zM219 375l29 139h141l-31 -139h-139zM258 561l33 141h139l-31 -141h-141zM299 750l29 139h141l-31 -139h-139zM328 0l28 139h140l-27 -139h-141zM338 936l29 141h143l-33 -141h-139zM379 1124l31 140h141l-31 -140h-141zM406 375l30 139 h139l-28 -139h-141zM418 1311l31 141h139l-31 -141h-139zM514 0l31 139h139l-29 -139h-141zM594 375l29 139h141l-31 -139h-139zM653 1546l33 140h137l-29 -140h-141zM702 0l29 139h141l-28 -139h-142zM739 186l33 140h141l-30 -140h-144zM780 375l31 139h139l-28 -139h-142 zM821 561l31 141h141l-32 -141h-140zM860 750l31 139h139l-29 -139h-141zM880 1733l31 141h139l-28 -141h-142zM901 936l29 141h141l-31 -141h-139zM942 1124l29 140h143l-33 -140h-139zM979 1311l31 141h141l-31 -141h-141z" />
<glyph unicode="&#xde;" d="M139 0l31 139h139l-28 -139h-142zM178 186l33 140h139l-31 -140h-141zM219 375l29 139h141l-31 -139h-139zM258 561l33 141h139l-31 -141h-141zM299 750l29 139h141l-31 -139h-139zM338 936l29 141h143l-33 -141h-139zM365 186l32 140h142l-31 -140h-143zM379 1124 l31 140h141l-31 -140h-141zM418 1311l31 141h139l-31 -141h-139zM553 186l33 140h139l-31 -140h-141zM563 1122l33 142h141l-32 -142h-142zM739 186l33 140h141l-30 -140h-144zM752 1122l30 142h144l-35 -142h-139zM780 375l31 139h139l-28 -139h-142zM821 561l31 141h141 l-32 -141h-140zM860 750l31 139h139l-29 -139h-141zM901 936l29 141h141l-31 -141h-139zM942 1124l29 140h143l-33 -140h-139z" />
<glyph unicode="&#xdf;" d="M139 0l31 139h139l-28 -139h-142zM178 186l33 140h139l-31 -140h-141zM219 375l29 139h141l-31 -139h-139zM258 561l33 141h139l-31 -141h-141zM299 750l29 139h141l-31 -139h-139zM338 936l29 141h143l-33 -141h-139zM379 1124l31 140h141l-31 -140h-141zM418 1311 l31 141h139l-31 -141h-139zM514 0l31 139h139l-29 -139h-141zM594 375l29 139h141l-31 -139h-139zM604 1311l31 141h141l-31 -141h-141zM702 0l29 139h141l-28 -139h-142zM739 186l33 140h141l-30 -140h-144zM793 1311l30 141h142l-33 -141h-139zM821 561l31 141h141 l-32 -141h-140zM860 750l31 139h139l-29 -139h-141zM901 936l29 141h141l-31 -141h-139zM942 1124l29 140h143l-33 -140h-139z" />
<glyph unicode="&#xe0;" d="M139 0l31 139h139l-28 -139h-142zM178 186l33 140h139l-31 -140h-141zM219 375l29 139h141l-31 -139h-139zM328 0l28 139h140l-27 -139h-141zM338 936l29 141h143l-33 -141h-139zM406 375l30 139h139l-28 -139h-141zM514 0l31 139h139l-29 -139h-141zM526 936l29 141h141 l-30 -141h-140zM594 375l29 139h141l-31 -139h-139zM614 1358l33 141h137l-29 -141h-141zM702 0l29 139h141l-28 -139h-142zM713 936l28 141h144l-33 -141h-139zM739 186l33 140h141l-30 -140h-144zM761 1171l31 140h139l-28 -140h-142zM780 375l31 139h139l-28 -139h-142z M821 561l31 141h141l-32 -141h-140zM860 750l31 139h139l-29 -139h-141zM901 936l29 141h141l-31 -141h-139z" />
<glyph unicode="&#xe1;" d="M139 0l31 139h139l-28 -139h-142zM178 186l33 140h139l-31 -140h-141zM219 375l29 139h141l-31 -139h-139zM328 0l28 139h140l-27 -139h-141zM338 936l29 141h143l-33 -141h-139zM406 375l30 139h139l-28 -139h-141zM514 0l31 139h139l-29 -139h-141zM526 936l29 141h141 l-30 -141h-140zM575 1171l33 140h137l-29 -140h-141zM594 375l29 139h141l-31 -139h-139zM702 0l29 139h141l-28 -139h-142zM713 936l28 141h144l-33 -141h-139zM739 186l33 140h141l-30 -140h-144zM780 375l31 139h139l-28 -139h-142zM802 1358l31 141h139l-28 -141h-142z M821 561l31 141h141l-32 -141h-140zM860 750l31 139h139l-29 -139h-141zM901 936l29 141h141l-31 -141h-139z" />
<glyph unicode="&#xe2;" d="M139 0l31 139h139l-28 -139h-142zM178 186l33 140h139l-31 -140h-141zM219 375l29 139h141l-31 -139h-139zM328 0l28 139h140l-27 -139h-141zM338 936l29 141h143l-33 -141h-139zM395 1194l31 141h139l-31 -141h-139zM406 375l30 139h139l-28 -139h-141zM514 0l31 139 h139l-29 -139h-141zM526 936l29 141h141l-30 -141h-140zM594 375l29 139h141l-31 -139h-139zM618 1382l31 140h139l-28 -140h-142zM702 0l29 139h141l-28 -139h-142zM713 936l28 141h144l-33 -141h-139zM739 186l33 140h141l-30 -140h-144zM780 375l31 139h139l-28 -139 h-142zM805 1382l31 140h141l-29 -140h-143zM821 561l31 141h141l-32 -141h-140zM860 750l31 139h139l-29 -139h-141zM901 936l29 141h141l-31 -141h-139zM954 1194l33 141h139l-30 -141h-142z" />
<glyph unicode="&#xe3;" d="M139 0l31 139h139l-28 -139h-142zM178 186l33 140h139l-31 -140h-141zM219 375l29 139h141l-31 -139h-139zM328 0l28 139h140l-27 -139h-141zM338 936l29 141h143l-33 -141h-139zM395 1194l31 141h139l-31 -141h-139zM406 375l30 139h139l-28 -139h-141zM514 0l31 139 h139l-29 -139h-141zM526 936l29 141h141l-30 -141h-140zM577 1194l31 141h142l-31 -141h-142zM594 375l29 139h141l-31 -139h-139zM702 0l29 139h141l-28 -139h-142zM713 936l28 141h144l-33 -141h-139zM739 186l33 140h141l-30 -140h-144zM766 1194l31 141h139l-29 -141 h-141zM780 375l31 139h139l-28 -139h-142zM821 561l31 141h141l-32 -141h-140zM860 750l31 139h139l-29 -139h-141zM901 936l29 141h141l-31 -141h-139zM954 1194l33 141h139l-30 -141h-142z" />
<glyph unicode="&#xe4;" d="M139 0l31 139h139l-28 -139h-142zM178 186l33 140h139l-31 -140h-141zM219 375l29 139h141l-31 -139h-139zM328 0l28 139h140l-27 -139h-141zM338 936l29 141h143l-33 -141h-139zM406 375l30 139h139l-28 -139h-141zM420 1311l31 141h137l-31 -141h-137zM514 0l31 139 h139l-29 -139h-141zM526 936l29 141h141l-30 -141h-140zM594 375l29 139h141l-31 -139h-139zM702 0l29 139h141l-28 -139h-142zM713 936l28 141h144l-33 -141h-139zM739 186l33 140h141l-30 -140h-144zM780 375l31 139h139l-28 -139h-142zM821 561l31 141h141l-32 -141h-140 zM860 750l31 139h139l-29 -139h-141zM901 936l29 141h141l-31 -141h-139zM979 1311l33 141h139l-31 -141h-141z" />
<glyph unicode="&#xe5;" d="M139 0l31 139h139l-28 -139h-142zM178 186l33 140h139l-31 -140h-141zM219 375l29 139h141l-31 -139h-139zM328 0l28 139h140l-27 -139h-141zM338 936l29 141h143l-33 -141h-139zM406 375l30 139h139l-28 -139h-141zM514 0l31 139h139l-29 -139h-141zM526 936l29 141h141 l-30 -141h-140zM579 1194l29 139h141l-28 -139h-142zM594 375l29 139h141l-31 -139h-139zM620 1380l31 142h141l-33 -142h-139zM702 0l29 139h141l-28 -139h-142zM713 936l28 141h144l-33 -141h-139zM739 186l33 140h141l-30 -140h-144zM768 1194l28 139h140l-29 -139h-139z M780 375l31 139h139l-28 -139h-142zM809 1380l30 142h140l-31 -142h-139zM821 561l31 141h141l-32 -141h-140zM860 750l31 139h139l-29 -139h-141zM901 936l29 141h141l-31 -141h-139z" />
<glyph unicode="&#xe6;" horiz-adv-x="1546" d="M141 0l29 139h141l-30 -139h-140zM178 186l35 140h139l-30 -140h-144zM219 375l31 139h139l-29 -139h-141zM328 0l30 139h140l-29 -139h-141zM340 936l29 141h141l-31 -141h-139zM406 375l30 139h142l-29 -139h-143zM516 0l29 139h141l-31 -139h-139zM526 936l31 141h141 l-30 -141h-142zM594 375l31 139h139l-29 -139h-141zM702 0l31 139h139l-28 -139h-142zM715 936l28 141h142l-31 -141h-139zM741 186l33 140h141l-32 -140h-142zM780 375l33 139h139l-28 -139h-144zM823 561l31 141h139l-30 -141h-140zM862 750l29 139h141l-31 -139h-139z M889 0l29 139h139l-27 -139h-141zM901 936l31 141h141l-31 -141h-141zM967 375l30 139h140l-29 -139h-141zM1075 0l31 139h139l-26 -139h-144zM1087 936l29 141h141l-30 -141h-140zM1155 375l29 139h141l-31 -139h-139zM1264 0l28 139h140l-27 -139h-141zM1274 936l29 141 h143l-33 -141h-139zM1341 375l31 139h139l-28 -139h-142zM1382 561l31 141h141l-32 -141h-140zM1421 750l31 139h141l-30 -139h-142zM1462 936l29 141h141l-30 -141h-140z" />
<glyph unicode="&#xe7;" d="M139 0l31 139h139l-28 -139h-142zM178 186l33 140h139l-31 -140h-141zM206 -561l31 139h139l-28 -139h-142zM219 375l29 139h141l-31 -139h-139zM258 561l33 141h139l-31 -141h-141zM299 750l29 139h141l-31 -139h-139zM328 0l28 139h140l-27 -139h-141zM338 936l29 141 h143l-33 -141h-139zM395 -561l29 139h139l-29 -139h-139zM432 -375l33 139h141l-33 -139h-141zM471 -186l32 139h140l-31 -139h-141zM514 0l31 139h139l-29 -139h-141zM526 936l29 141h141l-30 -141h-140zM702 0l29 139h141l-28 -139h-142zM713 936l28 141h144l-33 -141 h-139zM901 936l29 141h141l-31 -141h-139z" />
<glyph unicode="&#xe8;" d="M139 0l31 139h139l-28 -139h-142zM178 186l33 140h139l-31 -140h-141zM219 375l29 139h141l-31 -139h-139zM258 561l33 141h139l-31 -141h-141zM299 750l29 139h141l-31 -139h-139zM328 0l28 139h140l-27 -139h-141zM338 936l29 141h143l-33 -141h-139zM406 375l30 139 h139l-28 -139h-141zM514 0l31 139h139l-29 -139h-141zM526 936l29 141h141l-30 -141h-140zM594 375l29 139h141l-31 -139h-139zM614 1358l33 141h137l-29 -141h-141zM702 0l29 139h141l-28 -139h-142zM713 936l28 141h144l-33 -141h-139zM761 1171l31 140h139l-28 -140h-142 zM780 375l31 139h139l-28 -139h-142zM821 561l31 141h141l-32 -141h-140zM860 750l31 139h139l-29 -139h-141zM901 936l29 141h141l-31 -141h-139z" />
<glyph unicode="&#xe9;" d="M139 0l31 139h139l-28 -139h-142zM178 186l33 140h139l-31 -140h-141zM219 375l29 139h141l-31 -139h-139zM258 561l33 141h139l-31 -141h-141zM299 750l29 139h141l-31 -139h-139zM328 0l28 139h140l-27 -139h-141zM338 936l29 141h143l-33 -141h-139zM406 375l30 139 h139l-28 -139h-141zM514 0l31 139h139l-29 -139h-141zM526 936l29 141h141l-30 -141h-140zM575 1171l33 140h137l-29 -140h-141zM594 375l29 139h141l-31 -139h-139zM702 0l29 139h141l-28 -139h-142zM713 936l28 141h144l-33 -141h-139zM780 375l31 139h139l-28 -139h-142z M802 1358l31 141h139l-28 -141h-142zM821 561l31 141h141l-32 -141h-140zM860 750l31 139h139l-29 -139h-141zM901 936l29 141h141l-31 -141h-139z" />
<glyph unicode="&#xea;" d="M139 0l31 139h139l-28 -139h-142zM178 186l33 140h139l-31 -140h-141zM219 375l29 139h141l-31 -139h-139zM258 561l33 141h139l-31 -141h-141zM299 750l29 139h141l-31 -139h-139zM328 0l28 139h140l-27 -139h-141zM338 936l29 141h143l-33 -141h-139zM395 1194l31 141 h139l-31 -141h-139zM406 375l30 139h139l-28 -139h-141zM514 0l31 139h139l-29 -139h-141zM526 936l29 141h141l-30 -141h-140zM594 375l29 139h141l-31 -139h-139zM618 1382l31 140h139l-28 -140h-142zM702 0l29 139h141l-28 -139h-142zM713 936l28 141h144l-33 -141h-139z M780 375l31 139h139l-28 -139h-142zM805 1382l31 140h141l-29 -140h-143zM821 561l31 141h141l-32 -141h-140zM860 750l31 139h139l-29 -139h-141zM901 936l29 141h141l-31 -141h-139zM954 1194l33 141h139l-30 -141h-142z" />
<glyph unicode="&#xeb;" d="M139 0l31 139h139l-28 -139h-142zM178 186l33 140h139l-31 -140h-141zM219 375l29 139h141l-31 -139h-139zM258 561l33 141h139l-31 -141h-141zM299 750l29 139h141l-31 -139h-139zM328 0l28 139h140l-27 -139h-141zM338 936l29 141h143l-33 -141h-139zM406 375l30 139 h139l-28 -139h-141zM420 1311l31 141h137l-31 -141h-137zM514 0l31 139h139l-29 -139h-141zM526 936l29 141h141l-30 -141h-140zM594 375l29 139h141l-31 -139h-139zM702 0l29 139h141l-28 -139h-142zM713 936l28 141h144l-33 -141h-139zM780 375l31 139h139l-28 -139h-142z M821 561l31 141h141l-32 -141h-140zM860 750l31 139h139l-29 -139h-141zM901 936l29 141h141l-31 -141h-139zM979 1311l33 141h139l-31 -141h-141z" />
<glyph unicode="&#xec;" horiz-adv-x="540" d="M260 0l27 139h139l-27 -139h-139zM268 936l31 141h141l-32 -141h-140zM297 186l31 140h141l-31 -140h-141zM336 375l31 139h141l-31 -139h-141zM363 1358l33 141h137l-29 -141h-141zM377 561l31 141h143l-35 -141h-139zM416 750l33 139h139l-31 -139h-141zM457 936 l30 141h140l-31 -141h-139zM510 1171l31 140h139l-28 -140h-142z" />
<glyph unicode="&#xed;" horiz-adv-x="540" d="M260 0l27 139h139l-27 -139h-139zM268 936l31 141h141l-32 -141h-140zM297 186l31 140h141l-31 -140h-141zM319 1171l33 140h137l-29 -140h-141zM336 375l31 139h141l-31 -139h-141zM377 561l31 141h143l-35 -141h-139zM416 750l33 139h139l-31 -139h-141zM457 936 l30 141h140l-31 -141h-139zM546 1358l31 141h139l-28 -141h-142z" />
<glyph unicode="&#xee;" horiz-adv-x="540" d="M141 1194l31 141h139l-31 -141h-139zM260 0l27 139h139l-27 -139h-139zM268 936l31 141h141l-32 -141h-140zM297 186l31 140h141l-31 -140h-141zM336 375l31 139h141l-31 -139h-141zM364 1382l31 140h139l-28 -140h-142zM377 561l31 141h143l-35 -141h-139zM416 750 l33 139h139l-31 -139h-141zM457 936l30 141h140l-31 -141h-139zM551 1382l31 140h141l-29 -140h-143zM700 1194l33 141h139l-30 -141h-142z" />
<glyph unicode="&#xef;" horiz-adv-x="540" d="M160 1311l31 141h137l-31 -141h-137zM260 0l27 139h139l-27 -139h-139zM268 936l31 141h141l-32 -141h-140zM297 186l31 140h141l-31 -140h-141zM336 375l31 139h141l-31 -139h-141zM377 561l31 141h143l-35 -141h-139zM416 750l33 139h139l-31 -139h-141zM457 936 l30 141h140l-31 -141h-139zM719 1311l33 141h139l-31 -141h-141z" />
<glyph unicode="&#xf0;" d="M139 0l31 139h139l-28 -139h-142zM178 186l33 140h139l-31 -140h-141zM219 375l29 139h141l-31 -139h-139zM258 561l33 141h139l-31 -141h-141zM299 750l29 139h141l-31 -139h-139zM328 0l28 139h140l-27 -139h-141zM487 750l29 141h139l-28 -141h-140zM514 0l31 139h139 l-29 -139h-141zM674 750l28 141h142l-31 -141h-139zM702 0l29 139h141l-28 -139h-142zM739 186l33 140h141l-30 -140h-144zM780 375l31 139h139l-28 -139h-142zM795 1311l30 141h142l-31 -141h-141zM821 561l31 141h141l-32 -141h-140zM860 750l31 139h139l-29 -139h-141z M901 936l29 141h141l-31 -141h-139zM942 1124l29 140h143l-33 -140h-139z" />
<glyph unicode="&#xf1;" d="M139 0l31 139h139l-28 -139h-142zM178 186l33 140h139l-31 -140h-141zM219 375l29 139h141l-31 -139h-139zM258 561l33 141h139l-31 -141h-141zM299 750l29 139h141l-31 -139h-139zM338 936l29 141h143l-33 -141h-139zM395 1194l31 141h139l-31 -141h-139zM526 936 l29 141h141l-30 -141h-140zM577 1194l31 141h142l-31 -141h-142zM702 0l29 139h141l-28 -139h-142zM713 936l28 141h144l-33 -141h-139zM739 186l33 140h141l-30 -140h-144zM766 1194l31 141h139l-29 -141h-141zM780 375l31 139h139l-28 -139h-142zM821 561l31 141h141 l-32 -141h-140zM860 750l31 139h139l-29 -139h-141zM901 936l29 141h141l-31 -141h-139zM954 1194l33 141h139l-30 -141h-142z" />
<glyph unicode="&#xf2;" d="M139 0l31 139h139l-28 -139h-142zM178 186l33 140h139l-31 -140h-141zM219 375l29 139h141l-31 -139h-139zM258 561l33 141h139l-31 -141h-141zM299 750l29 139h141l-31 -139h-139zM328 0l28 139h140l-27 -139h-141zM338 936l29 141h143l-33 -141h-139zM514 0l31 139h139 l-29 -139h-141zM526 936l29 141h141l-30 -141h-140zM614 1358l33 141h137l-29 -141h-141zM702 0l29 139h141l-28 -139h-142zM713 936l28 141h144l-33 -141h-139zM739 186l33 140h141l-30 -140h-144zM761 1171l31 140h139l-28 -140h-142zM780 375l31 139h139l-28 -139h-142z M821 561l31 141h141l-32 -141h-140zM860 750l31 139h139l-29 -139h-141zM901 936l29 141h141l-31 -141h-139z" />
<glyph unicode="&#xf3;" d="M139 0l31 139h139l-28 -139h-142zM178 186l33 140h139l-31 -140h-141zM219 375l29 139h141l-31 -139h-139zM258 561l33 141h139l-31 -141h-141zM299 750l29 139h141l-31 -139h-139zM328 0l28 139h140l-27 -139h-141zM338 936l29 141h143l-33 -141h-139zM514 0l31 139h139 l-29 -139h-141zM526 936l29 141h141l-30 -141h-140zM575 1171l33 140h137l-29 -140h-141zM702 0l29 139h141l-28 -139h-142zM713 936l28 141h144l-33 -141h-139zM739 186l33 140h141l-30 -140h-144zM780 375l31 139h139l-28 -139h-142zM802 1358l31 141h139l-28 -141h-142z M821 561l31 141h141l-32 -141h-140zM860 750l31 139h139l-29 -139h-141zM901 936l29 141h141l-31 -141h-139z" />
<glyph unicode="&#xf4;" d="M139 0l31 139h139l-28 -139h-142zM178 186l33 140h139l-31 -140h-141zM219 375l29 139h141l-31 -139h-139zM258 561l33 141h139l-31 -141h-141zM299 750l29 139h141l-31 -139h-139zM328 0l28 139h140l-27 -139h-141zM338 936l29 141h143l-33 -141h-139zM395 1194l31 141 h139l-31 -141h-139zM514 0l31 139h139l-29 -139h-141zM526 936l29 141h141l-30 -141h-140zM618 1382l31 140h139l-28 -140h-142zM702 0l29 139h141l-28 -139h-142zM713 936l28 141h144l-33 -141h-139zM739 186l33 140h141l-30 -140h-144zM780 375l31 139h139l-28 -139h-142z M805 1382l31 140h141l-29 -140h-143zM821 561l31 141h141l-32 -141h-140zM860 750l31 139h139l-29 -139h-141zM901 936l29 141h141l-31 -141h-139zM954 1194l33 141h139l-30 -141h-142z" />
<glyph unicode="&#xf5;" d="M139 0l31 139h139l-28 -139h-142zM178 186l33 140h139l-31 -140h-141zM219 375l29 139h141l-31 -139h-139zM258 561l33 141h139l-31 -141h-141zM299 750l29 139h141l-31 -139h-139zM328 0l28 139h140l-27 -139h-141zM338 936l29 141h143l-33 -141h-139zM395 1194l31 141 h139l-31 -141h-139zM514 0l31 139h139l-29 -139h-141zM526 936l29 141h141l-30 -141h-140zM577 1194l31 141h142l-31 -141h-142zM702 0l29 139h141l-28 -139h-142zM713 936l28 141h144l-33 -141h-139zM739 186l33 140h141l-30 -140h-144zM766 1194l31 141h139l-29 -141h-141 zM780 375l31 139h139l-28 -139h-142zM821 561l31 141h141l-32 -141h-140zM860 750l31 139h139l-29 -139h-141zM901 936l29 141h141l-31 -141h-139zM954 1194l33 141h139l-30 -141h-142z" />
<glyph unicode="&#xf6;" d="M139 0l31 139h139l-28 -139h-142zM178 186l33 140h139l-31 -140h-141zM219 375l29 139h141l-31 -139h-139zM258 561l33 141h139l-31 -141h-141zM299 750l29 139h141l-31 -139h-139zM328 0l28 139h140l-27 -139h-141zM338 936l29 141h143l-33 -141h-139zM420 1311l31 141 h137l-31 -141h-137zM514 0l31 139h139l-29 -139h-141zM526 936l29 141h141l-30 -141h-140zM702 0l29 139h141l-28 -139h-142zM713 936l28 141h144l-33 -141h-139zM739 186l33 140h141l-30 -140h-144zM780 375l31 139h139l-28 -139h-142zM821 561l31 141h141l-32 -141h-140z M860 750l31 139h139l-29 -139h-141zM901 936l29 141h141l-31 -141h-139zM979 1311l33 141h139l-31 -141h-141z" />
<glyph unicode="&#xf7;" horiz-adv-x="796" d="M233 0l31 139h139l-28 -139h-142zM258 561l33 141h139l-31 -141h-141zM272 186l33 140h139l-31 -140h-141zM422 0l28 139h140l-27 -139h-141zM432 948l31 139h139l-28 -139h-142zM446 561l31 141h141l-32 -141h-140zM459 186l32 140h142l-31 -140h-143zM471 1134l33 140 h139l-31 -140h-141zM621 948l28 139h140l-27 -139h-141zM633 561l33 141h139l-31 -141h-141zM658 1134l32 140h142l-31 -140h-143z" />
<glyph unicode="&#xf8;" horiz-adv-x="989" d="M100 -182l33 139h139l-30 -139h-142zM143 0l29 139h141l-30 -139h-140zM180 186l35 140h139l-30 -140h-144zM223 375l29 139h139l-26 -139h-142zM260 561l33 141h141l-33 -141h-141zM301 750l31 139h139l-29 -139h-141zM330 0l30 139h140l-29 -139h-141zM342 936l29 141 h139l-29 -141h-139zM369 193l30 139h144l-33 -139h-141zM408 381l30 141h142l-29 -141h-143zM518 0l29 139h141l-31 -139h-139zM528 936l29 141h141l-28 -141h-142zM637 569l33 140h139l-29 -140h-143zM680 756l29 143h139l-27 -143h-141zM705 0l30 139h139l-28 -139h-141z M717 936l28 141h140l-29 -141h-139zM743 186l33 140h139l-30 -140h-142zM784 375l29 139h141l-26 -139h-144zM823 561l33 141h139l-30 -141h-142zM864 750l29 139h141l-30 -139h-140zM903 936l31 141h139l-29 -141h-141zM948 1135l31 139h141l-30 -139h-142z" />
<glyph unicode="&#xf9;" d="M139 0l31 139h139l-28 -139h-142zM178 186l33 140h139l-31 -140h-141zM219 375l29 139h141l-31 -139h-139zM258 561l33 141h139l-31 -141h-141zM299 750l29 139h141l-31 -139h-139zM328 0l28 139h140l-27 -139h-141zM338 936l29 141h143l-33 -141h-139zM514 0l31 139h139 l-29 -139h-141zM614 1358l33 141h137l-29 -141h-141zM702 0l29 139h141l-28 -139h-142zM739 186l33 140h141l-30 -140h-144zM761 1171l31 140h139l-28 -140h-142zM780 375l31 139h139l-28 -139h-142zM821 561l31 141h141l-32 -141h-140zM860 750l31 139h139l-29 -139h-141z M901 936l29 141h141l-31 -141h-139z" />
<glyph unicode="&#xfa;" d="M139 0l31 139h139l-28 -139h-142zM178 186l33 140h139l-31 -140h-141zM219 375l29 139h141l-31 -139h-139zM258 561l33 141h139l-31 -141h-141zM299 750l29 139h141l-31 -139h-139zM328 0l28 139h140l-27 -139h-141zM338 936l29 141h143l-33 -141h-139zM514 0l31 139h139 l-29 -139h-141zM575 1171l33 140h137l-29 -140h-141zM702 0l29 139h141l-28 -139h-142zM739 186l33 140h141l-30 -140h-144zM780 375l31 139h139l-28 -139h-142zM802 1358l31 141h139l-28 -141h-142zM821 561l31 141h141l-32 -141h-140zM860 750l31 139h139l-29 -139h-141z M901 936l29 141h141l-31 -141h-139z" />
<glyph unicode="&#xfb;" d="M139 0l31 139h139l-28 -139h-142zM178 186l33 140h139l-31 -140h-141zM219 375l29 139h141l-31 -139h-139zM258 561l33 141h139l-31 -141h-141zM299 750l29 139h141l-31 -139h-139zM328 0l28 139h140l-27 -139h-141zM338 936l29 141h143l-33 -141h-139zM395 1194l31 141 h139l-31 -141h-139zM514 0l31 139h139l-29 -139h-141zM618 1382l31 140h139l-28 -140h-142zM702 0l29 139h141l-28 -139h-142zM739 186l33 140h141l-30 -140h-144zM780 375l31 139h139l-28 -139h-142zM805 1382l31 140h141l-29 -140h-143zM821 561l31 141h141l-32 -141h-140 zM860 750l31 139h139l-29 -139h-141zM901 936l29 141h141l-31 -141h-139zM954 1194l33 141h139l-30 -141h-142z" />
<glyph unicode="&#xfc;" d="M139 0l31 139h139l-28 -139h-142zM178 186l33 140h139l-31 -140h-141zM219 375l29 139h141l-31 -139h-139zM258 561l33 141h139l-31 -141h-141zM299 750l29 139h141l-31 -139h-139zM328 0l28 139h140l-27 -139h-141zM338 936l29 141h143l-33 -141h-139zM420 1311l31 141 h137l-31 -141h-137zM514 0l31 139h139l-29 -139h-141zM702 0l29 139h141l-28 -139h-142zM739 186l33 140h141l-30 -140h-144zM780 375l31 139h139l-28 -139h-142zM821 561l31 141h141l-32 -141h-140zM860 750l31 139h139l-29 -139h-141zM901 936l29 141h141l-31 -141h-139z M979 1311l33 141h139l-31 -141h-141z" />
<glyph unicode="&#xfd;" d="M139 0l31 139h139l-28 -139h-142zM219 375l29 139h141l-31 -139h-139zM258 561l33 141h139l-31 -141h-141zM299 750l29 139h141l-31 -139h-139zM328 0l28 139h140l-27 -139h-141zM338 936l29 141h143l-33 -141h-139zM406 375l30 139h139l-28 -139h-141zM514 0l31 139h139 l-29 -139h-141zM575 1171l33 140h137l-29 -140h-141zM594 375l29 139h141l-31 -139h-139zM702 0l29 139h141l-28 -139h-142zM739 186l33 140h141l-30 -140h-144zM780 375l31 139h139l-28 -139h-142zM802 1358l31 141h139l-28 -141h-142zM821 561l31 141h141l-32 -141h-140z M860 750l31 139h139l-29 -139h-141zM901 936l29 141h141l-31 -141h-139z" />
<glyph unicode="&#xfe;" d="M139 0l31 139h139l-28 -139h-142zM178 186l33 140h139l-31 -140h-141zM219 375l29 139h141l-31 -139h-139zM258 561l33 141h139l-31 -141h-141zM299 750l29 139h141l-31 -139h-139zM338 936l29 141h143l-33 -141h-139zM367 186l30 140h140l-29 -140h-141zM379 1124 l31 140h141l-31 -140h-141zM418 1311l31 141h139l-31 -141h-139zM526 936l29 141h141l-30 -141h-140zM553 186l33 140h139l-29 -140h-143zM713 936l28 141h144l-33 -141h-139zM739 186l33 140h141l-30 -140h-144zM780 375l31 139h139l-28 -139h-142zM821 561l31 141h141 l-32 -141h-140zM860 750l31 139h139l-29 -139h-141zM901 936l29 141h141l-31 -141h-139z" />
<glyph unicode="&#xff;" d="M131 -47l31 139h139l-28 -139h-142zM211 328l29 139h141l-31 -139h-139zM250 514l33 141h139l-31 -141h-141zM291 703l29 139h141l-31 -139h-139zM320 -47l28 139h140l-27 -139h-141zM330 889l29 141h143l-33 -141h-139zM398 328l30 139h139l-28 -139h-141zM420 1325 l31 141h137l-31 -141h-137zM506 -47l31 139h139l-29 -139h-141zM586 328l29 139h141l-31 -139h-139zM694 -47l29 139h141l-28 -139h-142zM731 139l33 140h141l-30 -140h-144zM772 328l31 139h139l-28 -139h-142zM813 514l31 141h141l-32 -141h-140zM852 703l31 139h139 l-29 -139h-141zM893 889l29 141h141l-31 -141h-139zM979 1325l33 141h139l-31 -141h-141z" />
<glyph unicode="&#x152;" horiz-adv-x="1548" d="M141 0l29 139h139l-28 -139h-140zM178 186l33 140h141l-33 -140h-141zM219 375l31 139h139l-29 -139h-141zM260 561l31 141h141l-33 -141h-139zM299 750l29 139h141l-29 -139h-141zM328 0l30 139h140l-29 -139h-141zM340 936l29 141h141l-31 -141h-139zM381 1124l29 140 h141l-31 -140h-139zM418 1311l31 141h141l-31 -141h-141zM516 0l29 139h139l-29 -139h-139zM606 1311l29 141h141l-31 -141h-139zM702 0l31 139h139l-28 -139h-142zM741 186l33 140h139l-30 -140h-142zM780 375l31 139h141l-30 -139h-142zM793 1311l30 141h142l-31 -141 h-141zM821 561l33 141h139l-30 -141h-142zM862 750l29 139h139l-29 -139h-139zM891 0l29 139h141l-31 -139h-139zM901 936l29 141h143l-33 -141h-139zM942 1124l31 140h141l-31 -140h-141zM969 375l30 139h140l-29 -139h-141zM981 1311l49 141h123l-33 -141h-139zM1077 0 l31 139h139l-28 -139h-142zM1155 375l31 139h141l-31 -139h-141zM1167 1311l31 141h141l-30 -141h-142zM1266 0l28 139h142l-31 -139h-139zM1343 375l31 139h139l-28 -139h-142zM1356 1311l28 141h144l-33 -141h-139zM1542 1311l31 141h141l-31 -141h-141z" />
<glyph unicode="&#x153;" horiz-adv-x="1548" d="M139 0l31 139h129l-18 -139h-142zM178 186l33 140h139l-31 -140h-141zM219 375l29 139h141l-31 -139h-139zM258 561l33 141h139l-31 -141h-141zM299 750l29 139h141l-31 -139h-139zM328 0l28 139h140l-27 -139h-141zM338 936l29 141h143l-33 -141h-139zM514 0l31 139h139 l-29 -139h-141zM526 936l29 141h141l-30 -141h-140zM702 0l29 139h143l-30 -139h-142zM713 936l28 141h144l-33 -141h-139zM739 186l33 140h143l-30 -140h-146zM780 375l31 139h141l-28 -139h-144zM821 561l31 141h143l-32 -141h-142zM860 750l31 139h141l-28 -139h-144z M893 0l29 139h139l-29 -139h-139zM901 936l29 141h143l-31 -141h-141zM969 375l32 139h140l-29 -139h-143zM1079 0l29 139h141l-30 -139h-140zM1090 936l30 141h140l-29 -141h-141zM1157 375l31 139h141l-31 -139h-141zM1268 0l28 139h140l-29 -139h-139zM1278 936l29 141 h141l-31 -141h-139zM1343 375l33 139h140l-29 -139h-144zM1384 561l23 141h149l-30 -141h-142zM1425 750l29 139h141l-30 -139h-140zM1464 936l31 141h139l-28 -141h-142z" />
<glyph unicode="&#x178;" horiz-adv-x="987" d="M133 -47l31 139h139l-28 -139h-142zM213 328l29 139h141l-31 -139h-139zM252 514l33 141h139l-31 -141h-141zM293 703l29 139h141l-31 -139h-139zM322 -47l28 139h140l-27 -139h-141zM332 889l29 141h143l-33 -141h-139zM373 1077l31 140h141l-31 -140h-141zM400 328 l30 139h139l-28 -139h-141zM412 1264l31 141h139l-31 -141h-139zM488 1639l31 141h137l-31 -141h-137zM508 -47l31 139h139l-29 -139h-141zM588 328l29 139h141l-31 -139h-139zM696 -47l29 139h141l-28 -139h-142zM733 139l33 140h141l-30 -140h-144zM774 328l31 139h139 l-28 -139h-142zM815 514l31 141h141l-32 -141h-140zM854 703l31 139h139l-29 -139h-141zM895 889l29 141h141l-31 -141h-139zM936 1077l29 140h143l-33 -140h-139zM973 1264l31 141h141l-31 -141h-141zM1047 1639l33 141h139l-31 -141h-141z" />
<glyph unicode="&#x2c6;" horiz-adv-x="980" d="M393 1194l31 141h139l-31 -141h-139zM616 1382l31 140h139l-28 -140h-142zM803 1382l31 140h141l-29 -140h-143zM952 1194l33 141h139l-30 -141h-142z" />
<glyph unicode="&#x2dc;" horiz-adv-x="980" d="M393 1194l31 141h139l-31 -141h-139zM575 1194l31 141h142l-31 -141h-142zM764 1194l31 141h139l-29 -141h-141zM952 1194l33 141h139l-30 -141h-142z" />
<glyph unicode="&#x2000;" horiz-adv-x="948" />
<glyph unicode="&#x2001;" horiz-adv-x="1897" />
<glyph unicode="&#x2002;" horiz-adv-x="948" />
<glyph unicode="&#x2003;" horiz-adv-x="1897" />
<glyph unicode="&#x2004;" horiz-adv-x="632" />
<glyph unicode="&#x2005;" horiz-adv-x="474" />
<glyph unicode="&#x2006;" horiz-adv-x="316" />
<glyph unicode="&#x2007;" horiz-adv-x="316" />
<glyph unicode="&#x2008;" horiz-adv-x="237" />
<glyph unicode="&#x2009;" horiz-adv-x="379" />
<glyph unicode="&#x200a;" horiz-adv-x="105" />
<glyph unicode="&#x2010;" horiz-adv-x="610" d="M258 561l33 141h139l-31 -141h-141zM446 561l31 141h141l-32 -141h-140z" />
<glyph unicode="&#x2011;" horiz-adv-x="610" d="M258 561l33 141h139l-31 -141h-141zM446 561l31 141h141l-32 -141h-140z" />
<glyph unicode="&#x2012;" horiz-adv-x="610" d="M258 561l33 141h139l-31 -141h-141zM446 561l31 141h141l-32 -141h-140z" />
<glyph unicode="&#x2013;" horiz-adv-x="980" d="M258 561l33 141h139l-31 -141h-141zM444 561l33 141h139l-30 -141h-142zM633 561l31 141h141l-33 -141h-139zM817 561l33 141h139l-31 -141h-141z" />
<glyph unicode="&#x2014;" horiz-adv-x="1169" d="M258 561l33 141h139l-31 -141h-141zM444 561l33 141h139l-30 -141h-142zM633 561l31 141h141l-33 -141h-139zM817 561l33 141h139l-31 -141h-141zM1006 561l30 141h142l-33 -141h-139z" />
<glyph unicode="&#x2018;" horiz-adv-x="557" d="M418 1313l31 141h139l-31 -141h-139zM514 1126l33 140h139l-31 -140h-141z" />
<glyph unicode="&#x2019;" horiz-adv-x="557" d="M379 1126l29 140h141l-29 -140h-141zM555 1313l31 141h139l-29 -141h-141z" />
<glyph unicode="&#x201a;" horiz-adv-x="557" d="M98 -186l31 139h139l-28 -139h-142zM279 0l28 141h142l-31 -141h-139z" />
<glyph unicode="&#x201c;" horiz-adv-x="1114" d="M418 1313l31 141h139l-31 -141h-139zM514 1126l33 140h139l-31 -140h-141zM975 1313l31 141h139l-31 -141h-139zM1071 1126l33 140h139l-31 -140h-141z" />
<glyph unicode="&#x201d;" horiz-adv-x="1114" d="M379 1126l29 140h141l-29 -140h-141zM555 1313l31 141h139l-29 -141h-141zM936 1126l29 140h141l-29 -140h-141zM1112 1313l31 141h139l-29 -141h-141z" />
<glyph unicode="&#x201e;" horiz-adv-x="1114" d="M98 -186l31 139h139l-28 -139h-142zM279 0l28 141h142l-31 -141h-139zM655 -186l31 139h139l-28 -139h-142zM836 0l28 141h142l-31 -141h-139z" />
<glyph unicode="&#x2026;" horiz-adv-x="3049" d="M139 0l31 139h139l-28 -139h-142zM178 186l33 140h139l-31 -140h-141zM328 0l28 139h140l-27 -139h-141zM365 186l32 140h142l-31 -140h-143zM1358 0l31 139h139l-28 -139h-142zM1397 186l33 140h139l-31 -140h-141zM1547 0l28 139h140l-27 -139h-141zM1584 186l32 140 h142l-31 -140h-143zM2578 0l31 139h139l-28 -139h-142zM2617 186l33 140h139l-31 -140h-141zM2767 0l28 139h140l-27 -139h-141zM2804 186l32 140h142l-31 -140h-143z" />
<glyph unicode="&#x202f;" horiz-adv-x="379" />
<glyph unicode="&#x2039;" horiz-adv-x="796" d="M258 561l33 141h139l-31 -141h-141zM406 375l30 139h139l-28 -139h-141zM485 750l31 139h139l-28 -139h-142zM553 186l33 140h139l-31 -140h-141zM713 936l28 141h144l-33 -141h-139z" />
<glyph unicode="&#x203a;" horiz-adv-x="796" d="M180 186l29 140h139l-26 -140h-142zM340 936l27 141h143l-31 -141h-139zM406 375l30 139h139l-26 -139h-143zM487 750l29 139h139l-26 -139h-142zM633 561l31 141h139l-29 -141h-141z" />
<glyph unicode="&#x205f;" horiz-adv-x="474" />
<glyph unicode="&#x20ac;" d="M139 0l31 139h139l-28 -139h-142zM178 186l33 140h139l-31 -140h-141zM219 375l29 139h141l-31 -139h-139zM258 561l33 141h139l-31 -141h-141zM299 750l29 139h141l-31 -139h-139zM328 0l28 139h140l-27 -139h-141zM338 936l29 141h143l-33 -141h-139zM379 1124l31 140 h141l-31 -140h-141zM406 375l30 139h139l-28 -139h-141zM418 1311l31 141h139l-31 -141h-139zM485 750l31 139h139l-28 -139h-142zM514 0l31 139h139l-29 -139h-141zM604 1311l31 141h141l-31 -141h-141zM674 750l28 139h142l-31 -139h-139zM702 0l29 139h141l-28 -139h-142 zM793 1311l30 141h142l-33 -141h-139zM979 1311l31 141h141l-31 -141h-141z" />
<glyph unicode="&#x25fc;" horiz-adv-x="1075" d="M0 0v1075h1075v-1075h-1075z" />
</font>
</defs>
</svg>
