<?xml version="1.0" standalone="no"?>
<!DOCTYPE svg PUBLIC "-//W3C//DTD SVG 1.1//EN" "http://www.w3.org/Graphics/SVG/1.1/DTD/svg11.dtd" >
<svg xmlns="http://www.w3.org/2000/svg">
<metadata></metadata>
<defs>
<font id="minisystemregular" horiz-adv-x="1386" >
<font-face units-per-em="2048" ascent="1749" descent="-299" />
<missing-glyph horiz-adv-x="500" />
<glyph horiz-adv-x="0" />
<glyph unicode="&#xd;" />
<glyph unicode=" " />
<glyph unicode="!" d="M580 0l10 100h96l-6 -100h-100zM621 444l8 99h96l-6 -99h-98zM633 594l8 98h98l-8 -98h-98zM645 741l8 99h99l-7 -99h-100zM659 891l9 98h98l-10 -98h-97zM674 1038l8 99h96l-8 -99h-96zM684 1186l10 100h97l-7 -100h-100zM698 1333l7 101h100l-10 -101h-97z" />
<glyph unicode="&#x22;" d="M250 930l12 98h96l-10 -98h-98zM266 1077l6 101h101l-11 -101h-96zM276 1227l11 98h96l-8 -98h-99zM289 1376l10 97h96l-6 -97h-100zM901 930l12 98h97l-9 -98h-100zM918 1077l8 101h98l-8 -101h-98zM930 1227l8 98h98l-10 -98h-96zM940 1376l10 97h97l-7 -97h-100z" />
<glyph unicode="$" d="M205 887l12 100h98l-10 -100h-100zM221 1036l8 99h99l-9 -99h-98zM233 1186l11 98h96l-10 -98h-97zM246 1333l8 99h98l-8 -99h-98zM276 0l11 96h100l-10 -96h-101zM342 739l6 101h103l-9 -101h-100zM408 1483l6 98h102l-10 -98h-98zM426 0l6 96h103l-11 -96h-98zM489 739 l9 101h100l-8 -101h-101zM555 1483l6 98h101l-9 -98h-98zM575 0l7 96h100l-8 -96h-99zM588 147l8 99h98l-10 -99h-96zM598 295l12 100h97l-9 -100h-100zM614 444l9 99h98l-8 -99h-99zM627 594l8 98h98l-10 -98h-96zM641 739l6 101h98l-8 -101h-96zM651 887l11 100h98 l-10 -100h-99zM666 1036l10 99h96l-6 -99h-100zM680 1186l6 98h100l-10 -98h-96zM692 1333l8 99h97l-9 -99h-96zM702 1483l11 98h96l-6 -98h-101zM723 0l8 96h96l-6 -96h-98zM786 739l9 101h98l-8 -101h-99zM850 1483l10 98h96l-6 -98h-100zM868 0l11 96h96l-6 -96h-101z M934 739l10 101h96l-6 -101h-100zM999 1483l9 98h98l-8 -98h-99zM1030 147l8 99h103l-11 -99h-100zM1042 295l13 100h98l-10 -100h-101zM1057 444l8 99h100l-6 -99h-102zM1071 594l6 98h103l-11 -98h-98z" />
<glyph unicode="%" d="M182 1036l11 97h96l-8 -97h-99zM197 1182l6 98h98l-8 -98h-96zM209 1329l10 101h98l-12 -101h-96zM291 147l10 99h98l-6 -99h-102zM354 295l11 100h98l-10 -100h-99zM418 444l10 99h96l-6 -99h-100zM479 592l8 100h101l-8 -100h-101zM803 887l8 100h100l-12 -100h-96z M864 1036l8 99h101l-8 -99h-101zM928 1186l6 98h102l-10 -98h-98zM989 1333l8 99h99l-9 -99h-98zM1036 147l8 99h99l-10 -99h-97zM1051 293l6 100h96l-6 -100h-96zM1061 442l12 99h96l-10 -99h-98z" />
<glyph unicode="&#x26;" d="M176 147l8 99h99l-11 -99h-96zM186 295l13 100h96l-8 -100h-101zM203 444l8 99h98l-8 -99h-98zM215 594l10 98h97l-11 -98h-96zM240 887l10 100h98l-10 -100h-98zM254 1036l10 99h96l-8 -99h-98zM268 1186l6 98h99l-8 -98h-97zM281 1333l8 99h98l-10 -99h-96zM309 0 l10 96h99l-6 -96h-103zM375 739l8 101h100l-6 -101h-102zM438 1483l11 98h100l-10 -98h-101zM459 0l8 96h100l-8 -96h-100zM522 739l10 101h99l-8 -101h-101zM588 1483l8 98h100l-10 -98h-98zM608 0l8 96h99l-10 -96h-97zM674 739l8 101h96l-8 -101h-96zM737 1483l8 98h99 l-8 -98h-99zM756 0l10 96h96l-8 -96h-98zM807 594l8 98h98l-6 -98h-100zM831 887l13 100h96l-8 -100h-101zM844 444l6 99h102l-8 -99h-100zM879 295l12 100h98l-10 -100h-100zM885 1483l8 98h98l-8 -98h-98zM895 1036l8 99h101l-11 -99h-98zM903 0l8 96h99l-9 -96h-98z M915 147l11 99h96l-6 -99h-101zM956 1186l11 98h98l-8 -98h-101zM1020 1333l8 99h98l-8 -99h-98zM1034 1483l6 98h101l-11 -98h-96zM1063 147l10 99h98l-8 -99h-100zM1077 295l10 100h99l-8 -100h-101zM1092 444l6 99h102l-10 -99h-98zM1102 594l10 98h100l-10 -98h-100z " />
<glyph unicode="'" d="M623 930l8 98h98l-10 -98h-96zM635 1077l8 101h98l-8 -101h-98zM647 1227l10 98h97l-9 -98h-98zM662 1376l6 97h98l-8 -97h-96z" />
<glyph unicode="(" d="M535 592l6 100h100l-10 -100h-96zM557 887l12 100h97l-9 -100h-100zM569 444l9 99h100l-10 -99h-99zM604 295l10 100h101l-13 -100h-98zM621 1036l8 99h100l-8 -99h-100zM641 147l8 99h99l-9 -99h-98zM682 1186l10 98h99l-7 -98h-102zM745 1333l9 99h96l-6 -99h-99z" />
<glyph unicode=")" d="M532 147l7 99h102l-10 -99h-99zM594 295l10 100h98l-10 -100h-98zM635 1333l8 99h102l-10 -99h-100zM659 444l7 99h100l-10 -99h-97zM674 1186l8 98h96l-8 -98h-96zM711 1036l8 99h96l-8 -99h-96zM719 592l6 100h102l-8 -100h-100zM745 887l9 100h100l-10 -100h-99z" />
<glyph unicode="*" d="M291 147l10 99h98l-6 -99h-102zM344 739l8 101h101l-9 -101h-100zM354 295l11 100h98l-10 -100h-99zM395 1333l11 99h98l-6 -99h-103zM418 444l10 99h96l-6 -99h-100zM434 1186l8 98h97l-7 -98h-98zM471 1036l8 99h99l-9 -99h-98zM479 592l8 100h101l-8 -100h-101z M492 739l8 101h102l-10 -101h-100zM504 887l12 100h98l-10 -100h-100zM590 147l8 99h98l-10 -99h-96zM602 295l10 100h99l-11 -100h-98zM616 444l9 99h98l-8 -99h-99zM629 592l10 100h96l-10 -100h-96zM643 739l6 101h99l-9 -101h-96zM653 887l11 100h100l-12 -100h-99z M668 1036l10 99h96l-8 -99h-98zM682 1186l6 98h98l-8 -98h-96zM694 1333l8 99h99l-10 -99h-97zM776 592l10 100h97l-9 -100h-98zM788 739l9 101h98l-8 -101h-99zM803 887l8 100h100l-12 -100h-96zM811 444l10 99h99l-9 -99h-100zM848 295l10 100h98l-8 -100h-100zM864 1036 l8 99h101l-8 -99h-101zM885 147l8 99h98l-8 -99h-98zM928 1186l6 98h102l-10 -98h-98zM936 739l10 101h96l-6 -101h-100zM989 1333l8 99h99l-9 -99h-98z" />
<glyph unicode="+" d="M344 739l8 101h101l-9 -101h-100zM492 739l8 101h102l-10 -101h-100zM590 147l8 99h98l-10 -99h-96zM602 295l10 100h99l-11 -100h-98zM616 444l9 99h98l-8 -99h-99zM629 592l10 100h96l-10 -100h-96zM643 739l6 101h99l-9 -101h-96zM653 887l11 100h100l-12 -100h-99z M668 1036l10 99h96l-8 -99h-98zM682 1186l6 98h98l-8 -98h-96zM694 1333l8 99h99l-10 -99h-97zM788 739l9 101h98l-8 -101h-99zM936 739l10 101h96l-6 -101h-100z" />
<glyph unicode="," d="M627 -66l8 99h98l-10 -99h-96zM641 82l6 98h98l-8 -98h-96zM651 229l13 99h96l-10 -99h-99z" />
<glyph unicode="-" d="M344 739l8 101h101l-9 -101h-100zM492 739l8 101h102l-10 -101h-100zM643 739l6 101h99l-9 -101h-96zM788 739l9 101h98l-8 -101h-99zM936 739l10 101h96l-6 -101h-100z" />
<glyph unicode="." d="M641 -84l6 100h98l-8 -100h-96z" />
<glyph unicode="/" d="M291 147l10 99h98l-6 -99h-102zM354 295l11 100h98l-10 -100h-99zM418 444l10 99h96l-6 -99h-100zM479 592l8 100h101l-8 -100h-101zM803 887l8 100h100l-12 -100h-96zM864 1036l8 99h101l-8 -99h-101zM928 1186l6 98h102l-10 -98h-98zM989 1333l8 99h99l-9 -99h-98z" />
<glyph unicode="0" d="M141 147l9 99h98l-8 -99h-99zM156 295l8 100h100l-12 -100h-96zM168 444l10 99h96l-8 -99h-98zM182 594l8 98h97l-6 -98h-99zM205 887l12 100h98l-10 -100h-100zM221 1036l8 99h99l-9 -99h-98zM233 1186l11 98h96l-10 -98h-97zM246 1333l8 99h98l-8 -99h-98zM276 0l11 96 h100l-10 -96h-101zM408 1483l6 98h102l-10 -98h-98zM426 0l6 96h103l-11 -96h-98zM555 1483l6 98h101l-9 -98h-98zM575 0l7 96h100l-8 -96h-99zM702 1483l11 98h96l-6 -98h-101zM723 0l8 96h96l-6 -96h-98zM850 1483l10 98h96l-6 -98h-100zM868 0l11 96h96l-6 -96h-101z M999 1483l9 98h98l-8 -98h-99zM1030 147l8 99h103l-11 -99h-100zM1042 295l13 100h98l-10 -100h-101zM1057 444l8 99h100l-6 -99h-102zM1071 594l6 98h103l-11 -98h-98zM1096 887l10 100h98l-8 -100h-100zM1110 1036l8 99h101l-11 -99h-98zM1122 1186l8 98h101l-8 -98h-101z M1135 1333l8 99h100l-8 -99h-100z" />
<glyph unicode="1" d="M588 147l8 99h100l-10 -99h-98zM602 295l8 100h101l-11 -100h-98zM614 444l9 99h100l-8 -99h-101zM627 592l8 100h100l-10 -100h-98zM651 887l13 100h100l-12 -100h-101zM666 1036l10 99h98l-8 -99h-100zM680 1186l6 98h100l-8 -98h-98zM692 1333l8 99h101l-10 -99h-99z " />
<glyph unicode="2" d="M141 147l9 99h98l-8 -99h-99zM156 295l8 100h100l-12 -100h-96zM168 444l10 99h96l-8 -99h-98zM182 594l8 98h97l-6 -98h-99zM276 0l11 96h100l-10 -96h-101zM342 739l6 101h103l-9 -101h-100zM408 1483l6 98h102l-10 -98h-98zM426 0l6 96h103l-11 -96h-98zM489 739 l9 101h100l-8 -101h-101zM555 1483l6 98h101l-9 -98h-98zM575 0l7 96h100l-8 -96h-99zM641 739l6 101h98l-8 -101h-96zM702 1483l11 98h96l-6 -98h-101zM723 0l8 96h96l-6 -96h-98zM786 739l9 101h98l-8 -101h-99zM850 1483l10 98h96l-6 -98h-100zM868 0l11 96h96l-6 -96 h-101zM934 739l10 101h96l-6 -101h-100zM999 1483l9 98h98l-8 -98h-99zM1096 887l10 100h98l-8 -100h-100zM1110 1036l8 99h101l-11 -99h-98zM1122 1186l8 98h101l-8 -98h-101zM1135 1333l8 99h100l-8 -99h-100z" />
<glyph unicode="3" d="M211 0l8 96h100l-10 -96h-98zM274 739l11 101h98l-8 -101h-101zM340 1483l8 98h101l-11 -98h-98zM358 0l9 96h100l-8 -96h-101zM424 739l8 101h100l-10 -101h-98zM487 1483l11 98h98l-8 -98h-101zM508 0l10 96h96l-8 -96h-98zM573 739l7 101h100l-10 -101h-97zM639 1483 l6 98h100l-10 -98h-96zM657 0l7 96h100l-10 -96h-97zM721 739l8 101h98l-8 -101h-98zM786 1483l7 98h98l-8 -98h-97zM805 0l6 96h100l-10 -96h-96zM868 739l9 101h96l-6 -101h-99zM932 1483l8 98h98l-8 -98h-98zM965 147l8 99h100l-10 -99h-98zM975 295l12 100h100l-10 -100 h-102zM991 444l8 99h99l-6 -99h-101zM1004 594l8 98h100l-10 -98h-98zM1028 887l10 100h103l-13 -100h-100zM1042 1036l11 99h98l-8 -99h-101zM1057 1186l6 98h100l-8 -98h-98zM1069 1333l8 99h101l-11 -99h-98z" />
<glyph unicode="4" d="M176 887l8 100h101l-13 -100h-96zM190 1036l9 99h96l-6 -99h-99zM203 1186l8 98h98l-8 -98h-98zM215 1333l10 99h97l-11 -99h-96zM309 739l10 101h99l-6 -101h-103zM459 739l8 101h100l-8 -101h-100zM608 739l8 101h99l-10 -101h-97zM756 739l10 101h96l-8 -101h-98z M903 739l8 101h99l-9 -101h-98zM999 147l9 99h100l-10 -99h-99zM1012 295l10 100h100l-10 -100h-100zM1026 444l10 99h99l-9 -99h-100zM1038 592l9 100h100l-6 -100h-103zM1063 887l12 100h99l-11 -100h-100zM1077 1036l10 99h99l-6 -99h-103zM1092 1186l6 98h102l-10 -98 h-98zM1102 1333l10 99h100l-10 -99h-100z" />
<glyph unicode="5" d="M205 887l12 100h98l-10 -100h-100zM221 1036l8 99h99l-9 -99h-98zM233 1186l11 98h96l-10 -98h-97zM246 1333l8 99h98l-8 -99h-98zM276 0l11 96h100l-10 -96h-101zM342 739l6 101h103l-9 -101h-100zM408 1483l6 98h102l-10 -98h-98zM426 0l6 96h103l-11 -96h-98zM489 739 l9 101h100l-8 -101h-101zM555 1483l6 98h101l-9 -98h-98zM575 0l7 96h100l-8 -96h-99zM641 739l6 101h98l-8 -101h-96zM702 1483l11 98h96l-6 -98h-101zM723 0l8 96h96l-6 -96h-98zM786 739l9 101h98l-8 -101h-99zM850 1483l10 98h96l-6 -98h-100zM868 0l11 96h96l-6 -96 h-101zM934 739l10 101h96l-6 -101h-100zM999 1483l9 98h98l-8 -98h-99zM1030 147l8 99h103l-11 -99h-100zM1042 295l13 100h98l-10 -100h-101zM1057 444l8 99h100l-6 -99h-102zM1071 594l6 98h103l-11 -98h-98z" />
<glyph unicode="6" d="M176 147l8 99h99l-11 -99h-96zM186 295l13 100h96l-8 -100h-101zM203 444l8 99h98l-8 -99h-98zM215 594l10 98h97l-11 -98h-96zM240 887l10 100h98l-10 -100h-98zM254 1036l10 99h96l-8 -99h-98zM268 1186l6 98h99l-8 -98h-97zM281 1333l8 99h98l-10 -99h-96zM309 0 l10 96h99l-6 -96h-103zM375 739l8 101h100l-6 -101h-102zM438 1483l11 98h100l-10 -98h-101zM459 0l8 96h100l-8 -96h-100zM522 739l10 101h99l-8 -101h-101zM588 1483l8 98h100l-10 -98h-98zM608 0l8 96h99l-10 -96h-97zM674 739l8 101h96l-8 -101h-96zM737 1483l8 98h99 l-8 -98h-99zM756 0l10 96h96l-8 -96h-98zM821 739l6 101h101l-10 -101h-97zM885 1483l8 98h98l-8 -98h-98zM903 0l8 96h99l-9 -96h-98zM969 739l6 101h100l-10 -101h-96zM1034 1483l6 98h101l-11 -98h-96zM1063 147l10 99h98l-8 -99h-100zM1077 295l10 100h99l-8 -100h-101z M1092 444l6 99h102l-10 -99h-98zM1102 594l10 98h100l-10 -98h-100z" />
<glyph unicode="7" d="M274 1489l11 102h98l-8 -102h-101zM424 1489l8 102h100l-10 -102h-98zM573 1489l7 102h100l-10 -102h-97zM721 1489l8 102h98l-8 -102h-98zM868 1489l9 102h96l-6 -102h-99zM899 156l10 98h99l-9 -98h-100zM911 303l11 103h100l-10 -103h-101zM928 451l6 100h102 l-10 -100h-98zM938 602l10 96h99l-9 -96h-100zM965 897l8 100h102l-12 -100h-98zM979 1044l8 101h100l-10 -101h-98zM991 1196l8 96h99l-6 -96h-101zM1004 1341l8 99h100l-10 -99h-98z" />
<glyph unicode="8" d="M141 147l9 99h98l-8 -99h-99zM156 295l8 100h100l-12 -100h-96zM168 444l10 99h96l-8 -99h-98zM182 594l8 98h97l-6 -98h-99zM205 887l12 100h98l-10 -100h-100zM221 1036l8 99h99l-9 -99h-98zM233 1186l11 98h96l-10 -98h-97zM246 1333l8 99h98l-8 -99h-98zM276 0l11 96 h100l-10 -96h-101zM342 739l6 101h103l-9 -101h-100zM408 1483l6 98h102l-10 -98h-98zM426 0l6 96h103l-11 -96h-98zM489 739l9 101h100l-8 -101h-101zM555 1483l6 98h101l-9 -98h-98zM575 0l7 96h100l-8 -96h-99zM641 739l6 101h98l-8 -101h-96zM702 1483l11 98h96l-6 -98 h-101zM723 0l8 96h96l-6 -96h-98zM786 739l9 101h98l-8 -101h-99zM850 1483l10 98h96l-6 -98h-100zM868 0l11 96h96l-6 -96h-101zM934 739l10 101h96l-6 -101h-100zM999 1483l9 98h98l-8 -98h-99zM1030 147l8 99h103l-11 -99h-100zM1042 295l13 100h98l-10 -100h-101z M1057 444l8 99h100l-6 -99h-102zM1071 594l6 98h103l-11 -98h-98zM1096 887l10 100h98l-8 -100h-100zM1110 1036l8 99h101l-11 -99h-98zM1122 1186l8 98h101l-8 -98h-101zM1135 1333l8 99h100l-8 -99h-100z" />
<glyph unicode="9" d="M176 887l8 100h101l-13 -100h-96zM190 1036l9 99h96l-6 -99h-99zM203 1186l8 98h98l-8 -98h-98zM215 1333l10 99h97l-11 -99h-96zM248 0l6 96h100l-8 -96h-98zM309 739l10 101h99l-6 -101h-103zM375 1483l8 98h100l-6 -98h-102zM393 0l8 96h101l-6 -96h-103zM459 739 l8 101h100l-8 -101h-100zM522 1483l10 98h99l-8 -98h-101zM543 0l10 96h96l-6 -96h-100zM608 739l8 101h99l-10 -101h-97zM674 1483l8 98h96l-8 -98h-96zM692 0l8 96h97l-9 -96h-96zM756 739l10 101h96l-8 -101h-98zM821 1483l6 98h101l-10 -98h-97zM840 0l8 96h98l-10 -96 h-96zM903 739l8 101h99l-9 -101h-98zM969 1483l6 98h100l-10 -98h-96zM999 147l9 99h100l-10 -99h-99zM1012 295l10 100h100l-10 -100h-100zM1026 444l10 99h99l-9 -99h-100zM1038 594l9 98h100l-6 -98h-103zM1063 887l12 100h99l-11 -100h-100zM1077 1036l10 99h99l-6 -99 h-103zM1092 1186l6 98h102l-10 -98h-98zM1102 1333l10 99h100l-10 -99h-100z" />
<glyph unicode=":" d="M606 287l10 100h99l-13 -100h-96zM674 1028l8 100h96l-8 -100h-96z" />
<glyph unicode=";" d="M598 131l10 98h97l-7 -98h-100zM612 281l11 98h98l-10 -98h-99zM680 1020l6 98h100l-10 -98h-96z" />
<glyph unicode="&#x3c;" d="M535 592l6 100h100l-10 -100h-96zM557 887l12 100h97l-9 -100h-100zM569 444l9 99h100l-10 -99h-99zM604 295l10 100h101l-13 -100h-98zM621 1036l8 99h100l-8 -99h-100zM641 147l8 99h99l-9 -99h-98zM682 1186l10 98h99l-7 -98h-102zM745 1333l9 99h96l-6 -99h-99z" />
<glyph unicode="=" d="M309 307l10 99h99l-6 -99h-103zM375 1051l8 96h100l-10 -96h-98zM459 307l8 99h100l-10 -99h-98zM522 1051l10 96h99l-8 -96h-101zM608 307l8 99h99l-10 -99h-97zM674 1051l8 96h96l-8 -96h-96zM756 307l10 99h96l-8 -99h-98zM821 1051l6 96h101l-10 -96h-97zM903 307 l8 99h99l-9 -99h-98zM969 1051l6 96h100l-10 -96h-96z" />
<glyph unicode="&#x3e;" d="M532 147l7 99h102l-10 -99h-99zM594 295l10 100h98l-10 -100h-98zM635 1333l8 99h102l-10 -99h-100zM659 444l7 99h100l-10 -99h-97zM674 1186l8 98h96l-8 -98h-96zM711 1036l8 99h96l-8 -99h-96zM719 592l6 100h102l-8 -100h-100zM745 887l9 100h100l-10 -100h-99z" />
<glyph unicode="?" d="M131 0l10 96h99l-9 -96h-100zM164 295l12 100h96l-8 -100h-100zM180 444l6 99h101l-11 -99h-96zM193 594l8 98h98l-10 -98h-96zM352 739l8 101h101l-8 -101h-101zM416 1483l10 98h98l-8 -98h-100zM500 739l8 101h100l-10 -101h-98zM563 1483l10 98h101l-10 -98h-101z M649 739l10 101h97l-8 -101h-99zM715 1483l8 98h98l-10 -98h-96zM797 739l10 101h96l-8 -101h-98zM862 1483l6 98h101l-11 -98h-96zM946 739l6 101h101l-11 -101h-96zM1010 1483l8 98h98l-8 -98h-98zM1106 887l10 100h101l-13 -100h-98zM1118 1036l10 99h99l-6 -99h-103z M1133 1186l8 98h100l-8 -98h-100zM1145 1333l8 99h100l-10 -99h-98z" />
<glyph unicode="A" d="M141 145l9 101h98l-8 -101h-99zM156 293l8 102h100l-12 -102h-96zM168 442l10 99h96l-8 -99h-98zM182 592l8 96h97l-6 -96h-99zM205 887l12 100h98l-10 -100h-100zM221 1036l8 99h99l-9 -99h-98zM233 1186l11 98h96l-10 -98h-97zM246 1331l8 101h98l-8 -101h-98zM342 739 l6 99h103l-9 -99h-100zM408 1479l6 102h102l-10 -102h-98zM489 739l9 99h100l-8 -99h-101zM555 1479l6 102h101l-9 -102h-98zM641 739l6 99h98l-8 -99h-96zM702 1479l11 102h96l-6 -102h-101zM786 739l9 99h98l-8 -99h-99zM850 1479l10 102h96l-6 -102h-100zM934 739l10 99 h96l-6 -99h-100zM999 1479l9 102h98l-8 -102h-99zM1030 145l8 101h103l-11 -101h-100zM1042 293l13 102h98l-10 -102h-101zM1057 442l8 99h100l-6 -99h-102zM1071 592l6 96h103l-11 -96h-98zM1096 887l10 100h98l-8 -100h-100zM1110 1036l8 99h101l-11 -99h-98zM1122 1186 l8 98h101l-8 -98h-101zM1135 1331l8 101h100l-8 -101h-100z" />
<glyph unicode="B" d="M211 0l8 96h100l-10 -96h-98zM340 1483l8 98h101l-11 -98h-98zM358 0l9 96h100l-8 -96h-101zM487 1483l11 98h98l-8 -98h-101zM508 0l10 96h96l-8 -96h-98zM520 147l10 99h97l-6 -99h-101zM535 295l8 100h100l-12 -100h-96zM549 444l8 99h96l-8 -99h-96zM559 594l10 98 h97l-7 -98h-100zM573 739l7 101h100l-10 -101h-97zM586 887l10 100h98l-10 -100h-98zM602 1036l6 99h97l-7 -99h-96zM612 1186l11 98h96l-8 -98h-99zM625 1333l8 99h98l-8 -99h-98zM639 1483l6 98h100l-10 -98h-96zM657 0l7 96h100l-10 -96h-97zM721 739l8 101h98l-8 -101 h-98zM786 1483l7 98h98l-8 -98h-97zM805 0l6 96h100l-10 -96h-96zM868 739l9 101h96l-6 -101h-99zM932 1483l8 98h98l-8 -98h-98zM965 147l8 99h100l-10 -99h-98zM975 295l12 100h100l-10 -100h-102zM991 444l8 99h99l-6 -99h-101zM1004 594l8 98h100l-10 -98h-98zM1028 887 l10 100h103l-13 -100h-100zM1042 1036l11 99h98l-8 -99h-101zM1057 1186l6 98h100l-8 -98h-98zM1069 1333l8 99h101l-11 -99h-98z" />
<glyph unicode="C" d="M211 147l8 99h98l-10 -99h-96zM225 295l8 100h97l-8 -100h-97zM238 444l8 99h98l-8 -99h-98zM250 594l8 98h98l-8 -98h-98zM274 887l13 100h96l-10 -100h-99zM289 1036l10 99h96l-6 -99h-100zM303 1186l6 98h101l-11 -98h-96zM315 1333l9 99h96l-8 -99h-97zM346 0l8 96 h99l-7 -96h-100zM473 1483l10 98h99l-7 -98h-102zM496 0l6 96h100l-8 -96h-98zM623 1483l8 98h100l-8 -98h-100zM643 0l8 96h99l-9 -96h-98zM772 1483l10 98h97l-11 -98h-96zM791 0l10 96h96l-6 -96h-100zM920 1483l10 98h96l-8 -98h-98zM938 0l10 96h96l-8 -96h-98z M1069 1483l8 98h97l-9 -98h-96z" />
<glyph unicode="D" d="M211 0l8 96h100l-10 -96h-98zM340 1483l8 98h101l-11 -98h-98zM358 0l9 96h100l-8 -96h-101zM487 1483l11 98h98l-8 -98h-101zM508 0l10 96h96l-8 -96h-98zM520 147l10 99h97l-6 -99h-101zM535 295l8 100h100l-12 -100h-96zM549 444l8 99h96l-8 -99h-96zM559 594l10 98 h97l-7 -98h-100zM586 887l10 100h98l-10 -100h-98zM602 1036l6 99h97l-7 -99h-96zM612 1186l11 98h96l-8 -98h-99zM625 1333l8 99h98l-8 -99h-98zM639 1483l6 98h100l-10 -98h-96zM657 0l7 96h100l-10 -96h-97zM786 1483l7 98h98l-8 -98h-97zM805 0l6 96h100l-10 -96h-96z M932 1483l8 98h98l-8 -98h-98zM965 147l8 99h100l-10 -99h-98zM975 295l12 100h100l-10 -100h-102zM991 444l8 99h99l-6 -99h-101zM1004 594l8 98h100l-10 -98h-98zM1028 887l10 100h103l-13 -100h-100zM1042 1036l11 99h98l-8 -99h-101zM1057 1186l6 98h100l-8 -98h-98z M1069 1333l8 99h101l-11 -99h-98z" />
<glyph unicode="E" d="M211 147l8 99h98l-10 -99h-96zM225 295l8 100h97l-8 -100h-97zM238 444l8 99h98l-8 -99h-98zM250 594l8 98h98l-8 -98h-98zM274 887l13 100h96l-10 -100h-99zM289 1036l10 99h96l-6 -99h-100zM303 1186l6 98h101l-11 -98h-96zM315 1333l9 99h96l-8 -99h-97zM346 0l8 96 h99l-7 -96h-100zM412 739l6 101h100l-8 -101h-98zM473 1483l10 98h99l-7 -98h-102zM496 0l6 96h100l-8 -96h-98zM557 739l10 101h99l-7 -101h-102zM623 1483l8 98h100l-8 -98h-100zM643 0l8 96h99l-9 -96h-98zM707 739l10 101h96l-6 -101h-100zM772 1483l10 98h97l-11 -98 h-96zM791 0l10 96h96l-6 -96h-100zM856 739l8 101h99l-11 -101h-96zM920 1483l10 98h96l-8 -98h-98zM938 0l10 96h96l-8 -96h-98zM1004 739l8 101h98l-10 -101h-96zM1069 1483l8 98h97l-9 -98h-96z" />
<glyph unicode="F" d="M211 145l8 101h98l-10 -101h-96zM225 293l8 102h97l-8 -102h-97zM238 442l8 99h98l-8 -99h-98zM250 592l8 96h98l-8 -96h-98zM274 887l13 100h96l-10 -100h-99zM289 1036l10 99h96l-6 -99h-100zM303 1186l6 98h101l-11 -98h-96zM315 1331l9 101h96l-8 -101h-97zM412 739 l6 99h100l-8 -99h-98zM473 1479l10 102h99l-7 -102h-102zM557 739l10 99h99l-7 -99h-102zM623 1479l8 102h100l-8 -102h-100zM707 739l10 99h96l-6 -99h-100zM772 1479l10 102h97l-11 -102h-96zM856 739l8 99h99l-11 -99h-96zM920 1479l10 102h96l-8 -102h-98zM1004 739 l8 99h98l-10 -99h-96zM1069 1479l8 102h97l-9 -102h-96z" />
<glyph unicode="G" d="M211 147l8 99h98l-10 -99h-96zM225 295l8 100h97l-8 -100h-97zM238 444l8 99h98l-8 -99h-98zM250 594l8 98h98l-8 -98h-98zM274 887l13 100h96l-10 -100h-99zM289 1036l10 99h96l-6 -99h-100zM303 1186l6 98h101l-11 -98h-96zM315 1333l9 99h96l-8 -99h-97zM346 0l8 96 h99l-7 -96h-100zM473 1483l10 98h99l-7 -98h-102zM496 0l6 96h100l-8 -96h-98zM623 1483l8 98h100l-8 -98h-100zM643 0l8 96h99l-9 -96h-98zM772 1483l10 98h97l-11 -98h-96zM791 0l10 96h96l-6 -96h-100zM844 594l6 98h100l-10 -98h-96zM879 444l8 99h100l-8 -99h-100z M913 295l13 100h98l-8 -100h-103zM920 1483l10 98h96l-8 -98h-98zM938 0l10 96h96l-8 -96h-98zM952 147l6 99h99l-6 -99h-99zM1069 1483l8 98h97l-9 -98h-96z" />
<glyph unicode="H" d="M141 145l9 99h98l-8 -99h-99zM156 293l8 100h100l-12 -100h-96zM168 442l10 99h96l-8 -99h-98zM182 590l8 98h97l-6 -98h-99zM205 885l12 100h98l-10 -100h-100zM221 1034l8 99h99l-9 -99h-98zM233 1184l11 96h96l-10 -96h-97zM246 1331l8 99h98l-8 -99h-98zM342 737 l6 101h103l-9 -101h-100zM489 737l9 101h100l-8 -101h-101zM641 737l6 101h98l-8 -101h-96zM786 737l9 101h98l-8 -101h-99zM934 737l10 101h96l-6 -101h-100zM1030 145l8 99h103l-11 -99h-100zM1042 293l13 100h98l-10 -100h-101zM1057 442l8 99h100l-6 -99h-102zM1071 590 l6 98h103l-11 -98h-98zM1096 885l10 100h98l-8 -100h-100zM1110 1034l8 99h101l-11 -99h-98zM1122 1184l8 96h101l-8 -96h-101zM1135 1331l8 99h100l-8 -99h-100z" />
<glyph unicode="I" d="M281 0l8 96h100l-10 -96h-98zM410 1483l6 98h102l-10 -98h-98zM428 0l6 96h103l-11 -96h-98zM557 1483l6 98h101l-7 -98h-100zM578 0l8 96h96l-6 -96h-98zM590 147l8 99h98l-10 -99h-96zM602 295l10 100h99l-11 -100h-98zM616 444l9 99h98l-8 -99h-99zM629 594l10 98h96 l-10 -98h-96zM643 739l6 101h99l-9 -101h-96zM653 887l11 100h100l-12 -100h-99zM668 1036l10 99h96l-8 -99h-98zM682 1186l6 98h98l-8 -98h-96zM694 1333l8 99h99l-10 -99h-97zM705 1483l10 98h96l-6 -98h-100zM723 0l10 96h96l-6 -96h-100zM854 1483l8 98h96l-6 -98h-98z M872 0l9 96h98l-8 -96h-99zM1001 1483l9 98h98l-10 -98h-97z" />
<glyph unicode="J" d="M141 147l9 101h98l-8 -101h-99zM156 295l8 100h100l-12 -100h-96zM168 444l10 99h96l-8 -99h-98zM182 594l8 98h97l-6 -98h-99zM276 0l11 100h100l-10 -100h-101zM426 0l6 100h103l-11 -100h-98zM575 0l7 100h100l-8 -100h-99zM723 0l8 100h96l-6 -100h-98zM868 0l11 100 h96l-6 -100h-101zM1030 147l8 101h103l-11 -101h-100zM1042 295l13 100h98l-10 -100h-101zM1057 444l8 99h100l-6 -99h-102zM1071 594l6 98h103l-11 -98h-98zM1096 891l10 98h98l-8 -98h-100zM1110 1038l8 99h101l-11 -99h-98zM1122 1186l8 100h101l-8 -100h-101zM1135 1333 l8 101h100l-8 -101h-100z" />
<glyph unicode="K" d="M176 145l8 99h99l-11 -99h-96zM186 293l13 100h96l-8 -100h-101zM203 442l8 99h98l-8 -99h-98zM215 590l10 98h97l-11 -98h-96zM240 885l10 100h98l-10 -100h-98zM254 1034l10 99h96l-8 -99h-98zM268 1184l6 96h99l-8 -96h-97zM281 1331l8 99h98l-10 -99h-96zM375 737 l8 101h100l-6 -101h-102zM522 737l10 101h99l-8 -101h-101zM674 737l8 101h96l-8 -101h-96zM821 737l6 101h101l-10 -101h-97zM831 885l13 100h96l-8 -100h-101zM895 1034l8 99h101l-11 -99h-98zM956 1184l11 96h98l-8 -96h-101zM969 737l6 101h100l-10 -101h-96zM1020 1331 l8 99h98l-8 -99h-98zM1063 145l10 99h98l-8 -99h-100zM1077 293l10 100h99l-8 -100h-101zM1092 442l6 99h102l-10 -99h-98zM1102 590l10 98h100l-10 -98h-100z" />
<glyph unicode="L" d="M274 147l11 101h96l-8 -101h-99zM287 295l12 100h96l-8 -100h-100zM303 444l6 99h101l-11 -99h-96zM315 594l9 98h96l-8 -98h-97zM340 891l8 98h101l-13 -98h-96zM354 1038l8 99h99l-8 -99h-99zM367 1186l8 100h98l-8 -100h-98zM379 1333l10 101h96l-8 -101h-98zM412 0 l6 100h100l-8 -100h-98zM557 0l10 100h99l-7 -100h-102zM707 0l10 100h96l-6 -100h-100zM856 0l8 100h99l-11 -100h-96zM1004 0l8 100h98l-10 -100h-96z" />
<glyph unicode="M" d="M141 147l9 99h98l-8 -99h-99zM156 295l8 100h100l-12 -100h-96zM168 444l10 99h96l-8 -99h-98zM182 592l8 100h97l-6 -100h-99zM205 887l12 100h98l-10 -100h-100zM221 1036l8 99h99l-9 -99h-98zM233 1186l11 98h96l-10 -98h-97zM246 1333l8 99h98l-8 -99h-98zM393 1333 l8 99h101l-6 -99h-103zM432 1186l6 98h99l-7 -98h-98zM469 1036l8 99h98l-8 -99h-98zM502 887l12 100h98l-10 -100h-100zM801 887l8 100h100l-12 -100h-96zM862 1036l6 99h103l-8 -99h-101zM926 1186l6 98h102l-10 -98h-98zM987 1333l6 99h101l-11 -99h-96zM1030 147l8 99 h103l-11 -99h-100zM1042 295l13 100h98l-10 -100h-101zM1057 444l8 99h100l-6 -99h-102zM1071 592l6 100h103l-11 -100h-98zM1096 887l10 100h98l-8 -100h-100zM1110 1036l8 99h101l-11 -99h-98zM1122 1186l8 98h101l-8 -98h-101zM1135 1333l8 99h100l-8 -99h-100z" />
<glyph unicode="N" d="M141 147l9 99h98l-8 -99h-99zM156 295l8 100h100l-12 -100h-96zM168 444l10 99h96l-8 -99h-98zM182 592l8 100h97l-6 -100h-99zM205 887l12 100h98l-10 -100h-100zM221 1036l8 99h99l-9 -99h-98zM233 1186l11 98h96l-10 -98h-97zM246 1333l8 99h98l-8 -99h-98zM393 1333 l8 99h101l-6 -99h-103zM432 1186l6 98h99l-7 -98h-98zM469 1036l8 99h98l-8 -99h-98zM502 887l12 100h98l-10 -100h-100zM774 592l10 100h97l-9 -100h-98zM809 444l10 99h99l-7 -99h-102zM846 295l10 100h98l-8 -100h-100zM883 147l8 99h98l-8 -99h-98zM1030 147l8 99h103 l-11 -99h-100zM1042 295l13 100h98l-10 -100h-101zM1057 444l8 99h100l-6 -99h-102zM1071 592l6 100h103l-11 -100h-98zM1096 887l10 100h98l-8 -100h-100zM1110 1036l8 99h101l-11 -99h-98zM1122 1186l8 98h101l-8 -98h-101zM1135 1333l8 99h100l-8 -99h-100z" />
<glyph unicode="O" d="M141 147l9 99h98l-8 -99h-99zM156 295l8 100h100l-12 -100h-96zM168 444l10 99h96l-8 -99h-98zM182 594l8 98h97l-6 -98h-99zM205 887l12 100h98l-10 -100h-100zM221 1036l8 99h99l-9 -99h-98zM233 1186l11 98h96l-10 -98h-97zM246 1333l8 99h98l-8 -99h-98zM276 0l11 96 h100l-10 -96h-101zM408 1483l6 98h102l-10 -98h-98zM426 0l6 96h103l-11 -96h-98zM555 1483l6 98h101l-9 -98h-98zM575 0l7 96h100l-8 -96h-99zM702 1483l11 98h96l-6 -98h-101zM723 0l8 96h96l-6 -96h-98zM850 1483l10 98h96l-6 -98h-100zM868 0l11 96h96l-6 -96h-101z M999 1483l9 98h98l-8 -98h-99zM1030 147l8 99h103l-11 -99h-100zM1042 295l13 100h98l-10 -100h-101zM1057 444l8 99h100l-6 -99h-102zM1071 594l6 98h103l-11 -98h-98zM1096 887l10 100h98l-8 -100h-100zM1110 1036l8 99h101l-11 -99h-98zM1122 1186l8 98h101l-8 -98h-101z M1135 1333l8 99h100l-8 -99h-100z" />
<glyph unicode="P" d="M141 145l9 101h98l-8 -101h-99zM156 293l8 102h100l-12 -102h-96zM168 442l10 99h96l-8 -99h-98zM182 592l8 96h97l-6 -96h-99zM205 887l12 100h98l-10 -100h-100zM221 1036l8 99h99l-9 -99h-98zM233 1186l11 98h96l-10 -98h-97zM246 1331l8 101h98l-8 -101h-98zM342 739 l6 99h103l-9 -99h-100zM408 1479l6 102h102l-10 -102h-98zM489 739l9 99h100l-8 -99h-101zM555 1479l6 102h101l-9 -102h-98zM641 739l6 99h98l-8 -99h-96zM702 1479l11 102h96l-6 -102h-101zM786 739l9 99h98l-8 -99h-99zM850 1479l10 102h96l-6 -102h-100zM934 739l10 99 h96l-6 -99h-100zM999 1479l9 102h98l-8 -102h-99zM1096 887l10 100h98l-8 -100h-100zM1110 1036l8 99h101l-11 -99h-98zM1122 1186l8 98h101l-8 -98h-101zM1135 1331l8 101h100l-8 -101h-100z" />
<glyph unicode="Q" d="M141 147l9 99h98l-8 -99h-99zM156 295l8 100h100l-12 -100h-96zM168 444l10 99h96l-8 -99h-98zM182 594l8 98h97l-6 -98h-99zM205 887l12 100h98l-10 -100h-100zM221 1036l8 99h99l-9 -99h-98zM233 1186l11 98h96l-10 -98h-97zM246 1333l8 99h98l-8 -99h-98zM276 0l11 96 h100l-10 -96h-101zM408 1483l6 98h102l-10 -98h-98zM426 0l6 96h103l-11 -96h-98zM555 1483l6 98h101l-9 -98h-98zM575 0l7 96h100l-8 -96h-99zM702 1483l11 98h96l-6 -98h-101zM723 0l8 96h96l-6 -96h-98zM774 594l10 98h97l-9 -98h-98zM809 444l10 99h99l-7 -99h-102z M846 295l10 100h98l-8 -100h-100zM850 1483l10 98h96l-6 -98h-100zM868 0l11 96h96l-6 -96h-101zM883 147l8 99h98l-8 -99h-98zM999 1483l9 98h98l-8 -98h-99zM1030 147l8 99h103l-11 -99h-100zM1042 295l13 100h98l-10 -100h-101zM1057 444l8 99h100l-6 -99h-102zM1071 594 l6 98h103l-11 -98h-98zM1096 887l10 100h98l-8 -100h-100zM1110 1036l8 99h101l-11 -99h-98zM1122 1186l8 98h101l-8 -98h-101zM1135 1333l8 99h100l-8 -99h-100z" />
<glyph unicode="R" d="M141 145l9 101h98l-8 -101h-99zM156 293l8 102h100l-12 -102h-96zM168 442l10 99h96l-8 -99h-98zM182 592l8 96h97l-6 -96h-99zM205 887l12 100h98l-10 -100h-100zM221 1036l8 99h99l-9 -99h-98zM233 1186l11 98h96l-10 -98h-97zM246 1331l8 101h98l-8 -101h-98zM342 739 l6 99h103l-9 -99h-100zM408 1479l6 102h102l-10 -102h-98zM489 739l9 99h100l-8 -99h-101zM555 1479l6 102h101l-9 -102h-98zM641 739l6 99h98l-8 -99h-96zM702 1479l11 102h96l-6 -102h-101zM774 592l10 96h97l-9 -96h-98zM786 739l9 99h98l-8 -99h-99zM809 442l10 99h99 l-7 -99h-102zM846 293l10 102h98l-8 -102h-100zM850 1479l10 102h96l-6 -102h-100zM883 145l8 101h98l-8 -101h-98zM934 739l10 99h96l-6 -99h-100zM999 1479l9 102h98l-8 -102h-99zM1096 887l10 100h98l-8 -100h-100zM1110 1036l8 99h101l-11 -99h-98zM1122 1186l8 98h101 l-8 -98h-101zM1135 1331l8 101h100l-8 -101h-100z" />
<glyph unicode="S" d="M205 887l12 100h98l-10 -100h-100zM221 1036l8 99h99l-9 -99h-98zM233 1186l11 98h96l-10 -98h-97zM246 1333l8 99h98l-8 -99h-98zM276 0l11 96h100l-10 -96h-101zM342 739l6 101h103l-9 -101h-100zM408 1483l6 98h102l-10 -98h-98zM426 0l6 96h103l-11 -96h-98zM489 739 l9 101h100l-8 -101h-101zM555 1483l6 98h101l-9 -98h-98zM575 0l7 96h100l-8 -96h-99zM641 739l6 101h98l-8 -101h-96zM702 1483l11 98h96l-6 -98h-101zM723 0l8 96h96l-6 -96h-98zM786 739l9 101h98l-8 -101h-99zM850 1483l10 98h96l-6 -98h-100zM868 0l11 96h96l-6 -96 h-101zM934 739l10 101h96l-6 -101h-100zM999 1483l9 98h98l-8 -98h-99zM1030 147l8 99h103l-11 -99h-100zM1042 295l13 100h98l-10 -100h-101zM1057 444l8 99h100l-6 -99h-102zM1071 594l6 98h103l-11 -98h-98z" />
<glyph unicode="T" d="M344 1479l8 102h101l-9 -102h-100zM492 1479l8 102h102l-10 -102h-100zM524 145l11 101h96l-8 -101h-99zM539 293l10 102h96l-10 -102h-96zM553 442l6 99h100l-10 -99h-96zM563 592l10 96h97l-6 -96h-101zM590 887l12 100h96l-12 -100h-96zM604 1036l8 99h99l-9 -99h-98z M616 1186l9 98h98l-8 -98h-99zM629 1331l10 101h96l-10 -101h-96zM643 1479l6 102h99l-9 -102h-96zM788 1479l9 102h98l-8 -102h-99zM936 1479l10 102h96l-6 -102h-100z" />
<glyph unicode="U" d="M141 147l9 101h98l-8 -101h-99zM156 295l8 100h100l-12 -100h-96zM168 444l10 99h96l-8 -99h-98zM182 594l8 98h97l-6 -98h-99zM205 891l12 98h98l-10 -98h-100zM221 1038l8 99h99l-9 -99h-98zM233 1186l11 100h96l-10 -100h-97zM246 1333l8 101h98l-8 -101h-98zM276 0 l11 100h100l-10 -100h-101zM426 0l6 100h103l-11 -100h-98zM575 0l7 100h100l-8 -100h-99zM723 0l8 100h96l-6 -100h-98zM868 0l11 100h96l-6 -100h-101zM1030 147l8 101h103l-11 -101h-100zM1042 295l13 100h98l-10 -100h-101zM1057 444l8 99h100l-6 -99h-102zM1071 594 l6 98h103l-11 -98h-98zM1096 891l10 98h98l-8 -98h-100zM1110 1038l8 99h101l-11 -99h-98zM1122 1186l8 100h101l-8 -100h-101zM1135 1333l8 101h100l-8 -101h-100z" />
<glyph unicode="V" d="M217 147l8 99h99l-9 -99h-98zM229 295l11 100h98l-10 -100h-99zM246 444l6 99h96l-6 -99h-96zM256 592l10 100h96l-8 -100h-98zM283 887l8 100h100l-12 -100h-96zM295 1036l10 99h96l-8 -99h-98zM307 1186l10 98h97l-6 -98h-101zM322 1333l6 99h100l-10 -99h-96zM365 147 l8 99h100l-8 -99h-100zM428 295l8 100h101l-13 -100h-96zM492 444l8 99h98l-8 -99h-98zM553 592l6 100h103l-11 -100h-98zM874 887l11 100h98l-10 -100h-99zM936 1036l10 99h98l-8 -99h-100zM999 1186l9 98h100l-10 -98h-99zM1061 1333l10 99h96l-6 -99h-100z" />
<glyph unicode="W" d="M141 147l9 99h98l-8 -99h-99zM156 295l8 100h100l-12 -100h-96zM168 444l10 99h96l-8 -99h-98zM182 592l8 100h97l-6 -100h-99zM205 887l12 100h98l-10 -100h-100zM221 1036l8 99h99l-9 -99h-98zM233 1186l11 98h96l-10 -98h-97zM246 1333l8 99h98l-8 -99h-98zM289 147 l10 99h98l-6 -99h-102zM352 295l10 100h99l-10 -100h-99zM416 444l10 99h96l-6 -99h-100zM477 592l8 100h101l-8 -100h-101zM774 592l10 100h97l-9 -100h-98zM809 444l10 99h99l-7 -99h-102zM846 295l10 100h98l-8 -100h-100zM883 147l8 99h98l-8 -99h-98zM1030 147l8 99 h103l-11 -99h-100zM1042 295l13 100h98l-10 -100h-101zM1057 444l8 99h100l-6 -99h-102zM1071 592l6 100h103l-11 -100h-98zM1096 887l10 100h98l-8 -100h-100zM1110 1036l8 99h101l-11 -99h-98zM1122 1186l8 98h101l-8 -98h-101zM1135 1333l8 99h100l-8 -99h-100z" />
<glyph unicode="X" d="M291 147l10 99h98l-6 -99h-102zM354 295l11 100h98l-10 -100h-99zM395 1333l11 99h98l-6 -99h-103zM418 444l10 99h96l-6 -99h-100zM434 1186l8 98h97l-7 -98h-98zM471 1036l8 99h99l-9 -99h-98zM479 592l8 100h101l-8 -100h-101zM504 887l12 100h98l-10 -100h-100z M776 592l10 100h97l-9 -100h-98zM803 887l8 100h100l-12 -100h-96zM811 444l10 99h99l-9 -99h-100zM848 295l10 100h98l-8 -100h-100zM864 1036l8 99h101l-8 -99h-101zM885 147l8 99h98l-8 -99h-98zM928 1186l6 98h102l-10 -98h-98zM989 1333l8 99h99l-9 -99h-98z" />
<glyph unicode="Y" d="M176 887l8 100h101l-13 -100h-96zM190 1036l9 99h96l-6 -99h-99zM203 1184l8 100h98l-8 -100h-98zM215 1331l10 101h97l-11 -101h-96zM248 -2l6 98h100l-8 -98h-98zM309 739l10 99h99l-6 -99h-103zM393 -2l8 98h101l-6 -98h-103zM459 739l8 99h100l-8 -99h-100zM543 -2 l10 98h96l-6 -98h-100zM608 739l8 99h99l-10 -99h-97zM692 -2l8 98h97l-9 -98h-96zM756 739l10 99h96l-8 -99h-98zM840 -2l8 98h98l-10 -98h-96zM903 739l8 99h99l-9 -99h-98zM999 145l9 101h100l-10 -101h-99zM1012 293l10 100h100l-10 -100h-100zM1026 442l10 99h99 l-9 -99h-100zM1038 592l9 96h100l-6 -96h-103zM1063 887l12 100h99l-11 -100h-100zM1077 1036l10 99h99l-6 -99h-103zM1092 1184l6 100h102l-10 -100h-98zM1102 1331l10 101h100l-10 -101h-100z" />
<glyph unicode="Z" d="M281 0l8 96h100l-10 -96h-98zM291 147l10 99h98l-6 -99h-102zM354 295l11 100h98l-10 -100h-99zM410 1483l6 98h102l-10 -98h-98zM418 444l10 99h96l-6 -99h-100zM428 0l6 96h103l-11 -96h-98zM479 594l8 98h101l-8 -98h-101zM557 1483l6 98h101l-7 -98h-100zM578 0l8 96 h96l-6 -96h-98zM705 1483l10 98h96l-6 -98h-100zM723 0l10 96h96l-6 -96h-100zM803 887l8 100h100l-12 -100h-96zM854 1483l8 98h96l-6 -98h-98zM864 1036l8 99h101l-8 -99h-101zM872 0l9 96h98l-8 -96h-99zM928 1186l6 98h102l-10 -98h-98zM989 1333l8 99h99l-9 -99h-98z M1001 1483l9 98h98l-10 -98h-97z" />
<glyph unicode="[" d="M141 147l9 99h98l-8 -99h-99zM156 295l8 100h100l-12 -100h-96zM168 444l10 99h96l-8 -99h-98zM182 594l8 98h97l-6 -98h-99zM205 887l12 100h98l-10 -100h-100zM221 1036l8 99h99l-9 -99h-98zM233 1186l11 98h96l-10 -98h-97zM246 1333l8 99h98l-8 -99h-98zM276 0l11 96 h100l-10 -96h-101zM408 1483l6 98h102l-10 -98h-98zM426 0l6 96h103l-11 -96h-98zM555 1483l6 98h101l-9 -98h-98zM575 0l7 96h100l-8 -96h-99zM702 1483l11 98h96l-6 -98h-101z" />
<glyph unicode="\" d="M395 1333l11 99h98l-6 -99h-103zM434 1186l8 98h97l-7 -98h-98zM471 1036l8 99h99l-9 -99h-98zM504 887l12 100h98l-10 -100h-100zM776 592l10 100h97l-9 -100h-98zM811 444l10 99h99l-9 -99h-100zM848 295l10 100h98l-8 -100h-100zM885 147l8 99h98l-8 -99h-98z" />
<glyph unicode="]" d="M575 0l7 96h100l-8 -96h-99zM702 1483l11 98h96l-6 -98h-101zM723 0l8 96h96l-6 -96h-98zM850 1483l10 98h96l-6 -98h-100zM868 0l11 96h96l-6 -96h-101zM999 1483l9 98h98l-8 -98h-99zM1030 147l8 99h103l-11 -99h-100zM1042 295l13 100h98l-10 -100h-101zM1057 444 l8 99h100l-6 -99h-102zM1071 594l6 98h103l-11 -98h-98zM1096 887l10 100h98l-8 -100h-100zM1110 1036l8 99h101l-11 -99h-98zM1122 1186l8 98h101l-8 -98h-101zM1135 1333l8 99h100l-8 -99h-100z" />
<glyph unicode="^" d="M514 1628l6 98h96l-6 -98h-96zM657 1776l7 100h100l-10 -100h-97zM764 1628l10 98h98l-8 -98h-100z" />
<glyph unicode="_" d="M322 -221l6 98h102l-10 -98h-98zM469 -221l8 98h101l-9 -98h-100zM621 -221l6 98h96l-6 -98h-96zM766 -221l8 98h98l-8 -98h-98zM913 -221l9 98h98l-8 -98h-99z" />
<glyph unicode="`" d="M586 1915l6 98h100l-10 -98h-96zM692 1765l10 101h99l-8 -101h-101z" />
<glyph unicode="a" d="M141 145l9 101h98l-8 -101h-99zM156 293l8 102h100l-12 -102h-96zM168 442l10 99h96l-8 -99h-98zM182 592l8 96h97l-6 -96h-99zM205 887l12 100h98l-10 -100h-100zM221 1036l8 99h99l-9 -99h-98zM233 1186l11 98h96l-10 -98h-97zM246 1331l8 101h98l-8 -101h-98zM342 739 l6 99h103l-9 -99h-100zM408 1479l6 102h102l-10 -102h-98zM489 739l9 99h100l-8 -99h-101zM555 1479l6 102h101l-9 -102h-98zM641 739l6 99h98l-8 -99h-96zM702 1479l11 102h96l-6 -102h-101zM786 739l9 99h98l-8 -99h-99zM850 1479l10 102h96l-6 -102h-100zM934 739l10 99 h96l-6 -99h-100zM999 1479l9 102h98l-8 -102h-99zM1030 145l8 101h103l-11 -101h-100zM1042 293l13 102h98l-10 -102h-101zM1057 442l8 99h100l-6 -99h-102zM1071 592l6 96h103l-11 -96h-98zM1096 887l10 100h98l-8 -100h-100zM1110 1036l8 99h101l-11 -99h-98zM1122 1186 l8 98h101l-8 -98h-101zM1135 1331l8 101h100l-8 -101h-100z" />
<glyph unicode="b" d="M211 0l8 96h100l-10 -96h-98zM340 1483l8 98h101l-11 -98h-98zM358 0l9 96h100l-8 -96h-101zM487 1483l11 98h98l-8 -98h-101zM508 0l10 96h96l-8 -96h-98zM520 147l10 99h97l-6 -99h-101zM535 295l8 100h100l-12 -100h-96zM549 444l8 99h96l-8 -99h-96zM559 594l10 98 h97l-7 -98h-100zM573 739l7 101h100l-10 -101h-97zM586 887l10 100h98l-10 -100h-98zM602 1036l6 99h97l-7 -99h-96zM612 1186l11 98h96l-8 -98h-99zM625 1333l8 99h98l-8 -99h-98zM639 1483l6 98h100l-10 -98h-96zM657 0l7 96h100l-10 -96h-97zM721 739l8 101h98l-8 -101 h-98zM786 1483l7 98h98l-8 -98h-97zM805 0l6 96h100l-10 -96h-96zM868 739l9 101h96l-6 -101h-99zM932 1483l8 98h98l-8 -98h-98zM965 147l8 99h100l-10 -99h-98zM975 295l12 100h100l-10 -100h-102zM991 444l8 99h99l-6 -99h-101zM1004 594l8 98h100l-10 -98h-98zM1028 887 l10 100h103l-13 -100h-100zM1042 1036l11 99h98l-8 -99h-101zM1057 1186l6 98h100l-8 -98h-98zM1069 1333l8 99h101l-11 -99h-98z" />
<glyph unicode="c" d="M211 147l8 99h98l-10 -99h-96zM225 295l8 100h97l-8 -100h-97zM238 444l8 99h98l-8 -99h-98zM250 594l8 98h98l-8 -98h-98zM274 887l13 100h96l-10 -100h-99zM289 1036l10 99h96l-6 -99h-100zM303 1186l6 98h101l-11 -98h-96zM315 1333l9 99h96l-8 -99h-97zM346 0l8 96 h99l-7 -96h-100zM473 1483l10 98h99l-7 -98h-102zM496 0l6 96h100l-8 -96h-98zM623 1483l8 98h100l-8 -98h-100zM643 0l8 96h99l-9 -96h-98zM772 1483l10 98h97l-11 -98h-96zM791 0l10 96h96l-6 -96h-100zM920 1483l10 98h96l-8 -98h-98zM938 0l10 96h96l-8 -96h-98z M1069 1483l8 98h97l-9 -98h-96z" />
<glyph unicode="d" d="M211 0l8 96h100l-10 -96h-98zM340 1483l8 98h101l-11 -98h-98zM358 0l9 96h100l-8 -96h-101zM487 1483l11 98h98l-8 -98h-101zM508 0l10 96h96l-8 -96h-98zM520 147l10 99h97l-6 -99h-101zM535 295l8 100h100l-12 -100h-96zM549 444l8 99h96l-8 -99h-96zM559 594l10 98 h97l-7 -98h-100zM586 887l10 100h98l-10 -100h-98zM602 1036l6 99h97l-7 -99h-96zM612 1186l11 98h96l-8 -98h-99zM625 1333l8 99h98l-8 -99h-98zM639 1483l6 98h100l-10 -98h-96zM657 0l7 96h100l-10 -96h-97zM786 1483l7 98h98l-8 -98h-97zM805 0l6 96h100l-10 -96h-96z M932 1483l8 98h98l-8 -98h-98zM965 147l8 99h100l-10 -99h-98zM975 295l12 100h100l-10 -100h-102zM991 444l8 99h99l-6 -99h-101zM1004 594l8 98h100l-10 -98h-98zM1028 887l10 100h103l-13 -100h-100zM1042 1036l11 99h98l-8 -99h-101zM1057 1186l6 98h100l-8 -98h-98z M1069 1333l8 99h101l-11 -99h-98z" />
<glyph unicode="e" d="M211 147l8 99h98l-10 -99h-96zM225 295l8 100h97l-8 -100h-97zM238 444l8 99h98l-8 -99h-98zM250 594l8 98h98l-8 -98h-98zM274 887l13 100h96l-10 -100h-99zM289 1036l10 99h96l-6 -99h-100zM303 1186l6 98h101l-11 -98h-96zM315 1333l9 99h96l-8 -99h-97zM346 0l8 96 h99l-7 -96h-100zM412 739l6 101h100l-8 -101h-98zM473 1483l10 98h99l-7 -98h-102zM496 0l6 96h100l-8 -96h-98zM557 739l10 101h99l-7 -101h-102zM623 1483l8 98h100l-8 -98h-100zM643 0l8 96h99l-9 -96h-98zM707 739l10 101h96l-6 -101h-100zM772 1483l10 98h97l-11 -98 h-96zM791 0l10 96h96l-6 -96h-100zM856 739l8 101h99l-11 -101h-96zM920 1483l10 98h96l-8 -98h-98zM938 0l10 96h96l-8 -96h-98zM1004 739l8 101h98l-10 -101h-96zM1069 1483l8 98h97l-9 -98h-96z" />
<glyph unicode="f" d="M211 145l8 101h98l-10 -101h-96zM225 293l8 102h97l-8 -102h-97zM238 442l8 99h98l-8 -99h-98zM250 592l8 96h98l-8 -96h-98zM274 887l13 100h96l-10 -100h-99zM289 1036l10 99h96l-6 -99h-100zM303 1186l6 98h101l-11 -98h-96zM315 1331l9 101h96l-8 -101h-97zM412 739 l6 99h100l-8 -99h-98zM473 1479l10 102h99l-7 -102h-102zM557 739l10 99h99l-7 -99h-102zM623 1479l8 102h100l-8 -102h-100zM707 739l10 99h96l-6 -99h-100zM772 1479l10 102h97l-11 -102h-96zM856 739l8 99h99l-11 -99h-96zM920 1479l10 102h96l-8 -102h-98zM1004 739 l8 99h98l-10 -99h-96zM1069 1479l8 102h97l-9 -102h-96z" />
<glyph unicode="g" d="M211 147l8 99h98l-10 -99h-96zM225 295l8 100h97l-8 -100h-97zM238 444l8 99h98l-8 -99h-98zM250 594l8 98h98l-8 -98h-98zM274 887l13 100h96l-10 -100h-99zM289 1036l10 99h96l-6 -99h-100zM303 1186l6 98h101l-11 -98h-96zM315 1333l9 99h96l-8 -99h-97zM346 0l8 96 h99l-7 -96h-100zM473 1483l10 98h99l-7 -98h-102zM496 0l6 96h100l-8 -96h-98zM623 1483l8 98h100l-8 -98h-100zM643 0l8 96h99l-9 -96h-98zM772 1483l10 98h97l-11 -98h-96zM791 0l10 96h96l-6 -96h-100zM844 594l6 98h100l-10 -98h-96zM879 444l8 99h100l-8 -99h-100z M913 295l13 100h98l-8 -100h-103zM920 1483l10 98h96l-8 -98h-98zM938 0l10 96h96l-8 -96h-98zM952 147l6 99h99l-6 -99h-99zM1069 1483l8 98h97l-9 -98h-96z" />
<glyph unicode="h" d="M141 145l9 99h98l-8 -99h-99zM156 293l8 100h100l-12 -100h-96zM168 442l10 99h96l-8 -99h-98zM182 590l8 98h97l-6 -98h-99zM205 885l12 100h98l-10 -100h-100zM221 1034l8 99h99l-9 -99h-98zM233 1184l11 96h96l-10 -96h-97zM246 1331l8 99h98l-8 -99h-98zM342 737 l6 101h103l-9 -101h-100zM489 737l9 101h100l-8 -101h-101zM641 737l6 101h98l-8 -101h-96zM786 737l9 101h98l-8 -101h-99zM934 737l10 101h96l-6 -101h-100zM1030 145l8 99h103l-11 -99h-100zM1042 293l13 100h98l-10 -100h-101zM1057 442l8 99h100l-6 -99h-102zM1071 590 l6 98h103l-11 -98h-98zM1096 885l10 100h98l-8 -100h-100zM1110 1034l8 99h101l-11 -99h-98zM1122 1184l8 96h101l-8 -96h-101zM1135 1331l8 99h100l-8 -99h-100z" />
<glyph unicode="i" d="M281 0l8 96h100l-10 -96h-98zM410 1483l6 98h102l-10 -98h-98zM428 0l6 96h103l-11 -96h-98zM557 1483l6 98h101l-7 -98h-100zM578 0l8 96h96l-6 -96h-98zM590 147l8 99h98l-10 -99h-96zM602 295l10 100h99l-11 -100h-98zM616 444l9 99h98l-8 -99h-99zM629 594l10 98h96 l-10 -98h-96zM643 739l6 101h99l-9 -101h-96zM653 887l11 100h100l-12 -100h-99zM668 1036l10 99h96l-8 -99h-98zM682 1186l6 98h98l-8 -98h-96zM694 1333l8 99h99l-10 -99h-97zM705 1483l10 98h96l-6 -98h-100zM723 0l10 96h96l-6 -96h-100zM854 1483l8 98h96l-6 -98h-98z M872 0l9 96h98l-8 -96h-99zM1001 1483l9 98h98l-10 -98h-97z" />
<glyph unicode="j" d="M141 147l9 101h98l-8 -101h-99zM156 295l8 100h100l-12 -100h-96zM168 444l10 99h96l-8 -99h-98zM182 594l8 98h97l-6 -98h-99zM276 0l11 100h100l-10 -100h-101zM426 0l6 100h103l-11 -100h-98zM575 0l7 100h100l-8 -100h-99zM723 0l8 100h96l-6 -100h-98zM868 0l11 100 h96l-6 -100h-101zM1030 147l8 101h103l-11 -101h-100zM1042 295l13 100h98l-10 -100h-101zM1057 444l8 99h100l-6 -99h-102zM1071 594l6 98h103l-11 -98h-98zM1096 891l10 98h98l-8 -98h-100zM1110 1038l8 99h101l-11 -99h-98zM1122 1186l8 100h101l-8 -100h-101zM1135 1333 l8 101h100l-8 -101h-100z" />
<glyph unicode="k" d="M176 145l8 99h99l-11 -99h-96zM186 293l13 100h96l-8 -100h-101zM203 442l8 99h98l-8 -99h-98zM215 590l10 98h97l-11 -98h-96zM240 885l10 100h98l-10 -100h-98zM254 1034l10 99h96l-8 -99h-98zM268 1184l6 96h99l-8 -96h-97zM281 1331l8 99h98l-10 -99h-96zM375 737 l8 101h100l-6 -101h-102zM522 737l10 101h99l-8 -101h-101zM674 737l8 101h96l-8 -101h-96zM821 737l6 101h101l-10 -101h-97zM831 885l13 100h96l-8 -100h-101zM895 1034l8 99h101l-11 -99h-98zM956 1184l11 96h98l-8 -96h-101zM969 737l6 101h100l-10 -101h-96zM1020 1331 l8 99h98l-8 -99h-98zM1063 145l10 99h98l-8 -99h-100zM1077 293l10 100h99l-8 -100h-101zM1092 442l6 99h102l-10 -99h-98zM1102 590l10 98h100l-10 -98h-100z" />
<glyph unicode="l" d="M274 147l11 101h96l-8 -101h-99zM287 295l12 100h96l-8 -100h-100zM303 444l6 99h101l-11 -99h-96zM315 594l9 98h96l-8 -98h-97zM340 891l8 98h101l-13 -98h-96zM354 1038l8 99h99l-8 -99h-99zM367 1186l8 100h98l-8 -100h-98zM379 1333l10 101h96l-8 -101h-98zM412 0 l6 100h100l-8 -100h-98zM557 0l10 100h99l-7 -100h-102zM707 0l10 100h96l-6 -100h-100zM856 0l8 100h99l-11 -100h-96zM1004 0l8 100h98l-10 -100h-96z" />
<glyph unicode="m" d="M141 147l9 99h98l-8 -99h-99zM156 295l8 100h100l-12 -100h-96zM168 444l10 99h96l-8 -99h-98zM182 592l8 100h97l-6 -100h-99zM205 887l12 100h98l-10 -100h-100zM221 1036l8 99h99l-9 -99h-98zM233 1186l11 98h96l-10 -98h-97zM246 1333l8 99h98l-8 -99h-98zM393 1333 l8 99h101l-6 -99h-103zM432 1186l6 98h99l-7 -98h-98zM469 1036l8 99h98l-8 -99h-98zM502 887l12 100h98l-10 -100h-100zM801 887l8 100h100l-12 -100h-96zM862 1036l6 99h103l-8 -99h-101zM926 1186l6 98h102l-10 -98h-98zM987 1333l6 99h101l-11 -99h-96zM1030 147l8 99 h103l-11 -99h-100zM1042 295l13 100h98l-10 -100h-101zM1057 444l8 99h100l-6 -99h-102zM1071 592l6 100h103l-11 -100h-98zM1096 887l10 100h98l-8 -100h-100zM1110 1036l8 99h101l-11 -99h-98zM1122 1186l8 98h101l-8 -98h-101zM1135 1333l8 99h100l-8 -99h-100z" />
<glyph unicode="n" d="M141 147l9 99h98l-8 -99h-99zM156 295l8 100h100l-12 -100h-96zM168 444l10 99h96l-8 -99h-98zM182 592l8 100h97l-6 -100h-99zM205 887l12 100h98l-10 -100h-100zM221 1036l8 99h99l-9 -99h-98zM233 1186l11 98h96l-10 -98h-97zM246 1333l8 99h98l-8 -99h-98zM393 1333 l8 99h101l-6 -99h-103zM432 1186l6 98h99l-7 -98h-98zM469 1036l8 99h98l-8 -99h-98zM502 887l12 100h98l-10 -100h-100zM774 592l10 100h97l-9 -100h-98zM809 444l10 99h99l-7 -99h-102zM846 295l10 100h98l-8 -100h-100zM883 147l8 99h98l-8 -99h-98zM1030 147l8 99h103 l-11 -99h-100zM1042 295l13 100h98l-10 -100h-101zM1057 444l8 99h100l-6 -99h-102zM1071 592l6 100h103l-11 -100h-98zM1096 887l10 100h98l-8 -100h-100zM1110 1036l8 99h101l-11 -99h-98zM1122 1186l8 98h101l-8 -98h-101zM1135 1333l8 99h100l-8 -99h-100z" />
<glyph unicode="o" d="M141 147l9 99h98l-8 -99h-99zM156 295l8 100h100l-12 -100h-96zM168 444l10 99h96l-8 -99h-98zM182 594l8 98h97l-6 -98h-99zM205 887l12 100h98l-10 -100h-100zM221 1036l8 99h99l-9 -99h-98zM233 1186l11 98h96l-10 -98h-97zM246 1333l8 99h98l-8 -99h-98zM276 0l11 96 h100l-10 -96h-101zM408 1483l6 98h102l-10 -98h-98zM426 0l6 96h103l-11 -96h-98zM555 1483l6 98h101l-9 -98h-98zM575 0l7 96h100l-8 -96h-99zM702 1483l11 98h96l-6 -98h-101zM723 0l8 96h96l-6 -96h-98zM850 1483l10 98h96l-6 -98h-100zM868 0l11 96h96l-6 -96h-101z M999 1483l9 98h98l-8 -98h-99zM1030 147l8 99h103l-11 -99h-100zM1042 295l13 100h98l-10 -100h-101zM1057 444l8 99h100l-6 -99h-102zM1071 594l6 98h103l-11 -98h-98zM1096 887l10 100h98l-8 -100h-100zM1110 1036l8 99h101l-11 -99h-98zM1122 1186l8 98h101l-8 -98h-101z M1135 1333l8 99h100l-8 -99h-100z" />
<glyph unicode="p" d="M141 145l9 101h98l-8 -101h-99zM156 293l8 102h100l-12 -102h-96zM168 442l10 99h96l-8 -99h-98zM182 592l8 96h97l-6 -96h-99zM205 887l12 100h98l-10 -100h-100zM221 1036l8 99h99l-9 -99h-98zM233 1186l11 98h96l-10 -98h-97zM246 1331l8 101h98l-8 -101h-98zM342 739 l6 99h103l-9 -99h-100zM408 1479l6 102h102l-10 -102h-98zM489 739l9 99h100l-8 -99h-101zM555 1479l6 102h101l-9 -102h-98zM641 739l6 99h98l-8 -99h-96zM702 1479l11 102h96l-6 -102h-101zM786 739l9 99h98l-8 -99h-99zM850 1479l10 102h96l-6 -102h-100zM934 739l10 99 h96l-6 -99h-100zM999 1479l9 102h98l-8 -102h-99zM1096 887l10 100h98l-8 -100h-100zM1110 1036l8 99h101l-11 -99h-98zM1122 1186l8 98h101l-8 -98h-101zM1135 1331l8 101h100l-8 -101h-100z" />
<glyph unicode="q" d="M141 147l9 99h98l-8 -99h-99zM156 295l8 100h100l-12 -100h-96zM168 444l10 99h96l-8 -99h-98zM182 594l8 98h97l-6 -98h-99zM205 887l12 100h98l-10 -100h-100zM221 1036l8 99h99l-9 -99h-98zM233 1186l11 98h96l-10 -98h-97zM246 1333l8 99h98l-8 -99h-98zM276 0l11 96 h100l-10 -96h-101zM408 1483l6 98h102l-10 -98h-98zM426 0l6 96h103l-11 -96h-98zM555 1483l6 98h101l-9 -98h-98zM575 0l7 96h100l-8 -96h-99zM702 1483l11 98h96l-6 -98h-101zM723 0l8 96h96l-6 -96h-98zM774 594l10 98h97l-9 -98h-98zM809 444l10 99h99l-7 -99h-102z M846 295l10 100h98l-8 -100h-100zM850 1483l10 98h96l-6 -98h-100zM868 0l11 96h96l-6 -96h-101zM883 147l8 99h98l-8 -99h-98zM999 1483l9 98h98l-8 -98h-99zM1030 147l8 99h103l-11 -99h-100zM1042 295l13 100h98l-10 -100h-101zM1057 444l8 99h100l-6 -99h-102zM1071 594 l6 98h103l-11 -98h-98zM1096 887l10 100h98l-8 -100h-100zM1110 1036l8 99h101l-11 -99h-98zM1122 1186l8 98h101l-8 -98h-101zM1135 1333l8 99h100l-8 -99h-100z" />
<glyph unicode="r" d="M141 145l9 101h98l-8 -101h-99zM156 293l8 102h100l-12 -102h-96zM168 442l10 99h96l-8 -99h-98zM182 592l8 96h97l-6 -96h-99zM205 887l12 100h98l-10 -100h-100zM221 1036l8 99h99l-9 -99h-98zM233 1186l11 98h96l-10 -98h-97zM246 1331l8 101h98l-8 -101h-98zM342 739 l6 99h103l-9 -99h-100zM408 1479l6 102h102l-10 -102h-98zM489 739l9 99h100l-8 -99h-101zM555 1479l6 102h101l-9 -102h-98zM641 739l6 99h98l-8 -99h-96zM702 1479l11 102h96l-6 -102h-101zM774 592l10 96h97l-9 -96h-98zM786 739l9 99h98l-8 -99h-99zM809 442l10 99h99 l-7 -99h-102zM846 293l10 102h98l-8 -102h-100zM850 1479l10 102h96l-6 -102h-100zM883 145l8 101h98l-8 -101h-98zM934 739l10 99h96l-6 -99h-100zM999 1479l9 102h98l-8 -102h-99zM1096 887l10 100h98l-8 -100h-100zM1110 1036l8 99h101l-11 -99h-98zM1122 1186l8 98h101 l-8 -98h-101zM1135 1331l8 101h100l-8 -101h-100z" />
<glyph unicode="s" d="M205 887l12 100h98l-10 -100h-100zM221 1036l8 99h99l-9 -99h-98zM233 1186l11 98h96l-10 -98h-97zM246 1333l8 99h98l-8 -99h-98zM276 0l11 96h100l-10 -96h-101zM342 739l6 101h103l-9 -101h-100zM408 1483l6 98h102l-10 -98h-98zM426 0l6 96h103l-11 -96h-98zM489 739 l9 101h100l-8 -101h-101zM555 1483l6 98h101l-9 -98h-98zM575 0l7 96h100l-8 -96h-99zM641 739l6 101h98l-8 -101h-96zM702 1483l11 98h96l-6 -98h-101zM723 0l8 96h96l-6 -96h-98zM786 739l9 101h98l-8 -101h-99zM850 1483l10 98h96l-6 -98h-100zM868 0l11 96h96l-6 -96 h-101zM934 739l10 101h96l-6 -101h-100zM999 1483l9 98h98l-8 -98h-99zM1030 147l8 99h103l-11 -99h-100zM1042 295l13 100h98l-10 -100h-101zM1057 444l8 99h100l-6 -99h-102zM1071 594l6 98h103l-11 -98h-98z" />
<glyph unicode="t" d="M344 1479l8 102h101l-9 -102h-100zM492 1479l8 102h102l-10 -102h-100zM524 145l11 101h96l-8 -101h-99zM539 293l10 102h96l-10 -102h-96zM553 442l6 99h100l-10 -99h-96zM563 592l10 96h97l-6 -96h-101zM590 887l12 100h96l-12 -100h-96zM604 1036l8 99h99l-9 -99h-98z M616 1186l9 98h98l-8 -98h-99zM629 1331l10 101h96l-10 -101h-96zM643 1479l6 102h99l-9 -102h-96zM788 1479l9 102h98l-8 -102h-99zM936 1479l10 102h96l-6 -102h-100z" />
<glyph unicode="u" d="M141 147l9 101h98l-8 -101h-99zM156 295l8 100h100l-12 -100h-96zM168 444l10 99h96l-8 -99h-98zM182 594l8 98h97l-6 -98h-99zM205 891l12 98h98l-10 -98h-100zM221 1038l8 99h99l-9 -99h-98zM233 1186l11 100h96l-10 -100h-97zM246 1333l8 101h98l-8 -101h-98zM276 0 l11 100h100l-10 -100h-101zM426 0l6 100h103l-11 -100h-98zM575 0l7 100h100l-8 -100h-99zM723 0l8 100h96l-6 -100h-98zM868 0l11 100h96l-6 -100h-101zM1030 147l8 101h103l-11 -101h-100zM1042 295l13 100h98l-10 -100h-101zM1057 444l8 99h100l-6 -99h-102zM1071 594 l6 98h103l-11 -98h-98zM1096 891l10 98h98l-8 -98h-100zM1110 1038l8 99h101l-11 -99h-98zM1122 1186l8 100h101l-8 -100h-101zM1135 1333l8 101h100l-8 -101h-100z" />
<glyph unicode="v" d="M217 147l8 99h99l-9 -99h-98zM229 295l11 100h98l-10 -100h-99zM246 444l6 99h96l-6 -99h-96zM256 592l10 100h96l-8 -100h-98zM283 887l8 100h100l-12 -100h-96zM295 1036l10 99h96l-8 -99h-98zM307 1186l10 98h97l-6 -98h-101zM322 1333l6 99h100l-10 -99h-96zM365 147 l8 99h100l-8 -99h-100zM428 295l8 100h101l-13 -100h-96zM492 444l8 99h98l-8 -99h-98zM553 592l6 100h103l-11 -100h-98zM874 887l11 100h98l-10 -100h-99zM936 1036l10 99h98l-8 -99h-100zM999 1186l9 98h100l-10 -98h-99zM1061 1333l10 99h96l-6 -99h-100z" />
<glyph unicode="w" d="M141 147l9 99h98l-8 -99h-99zM156 295l8 100h100l-12 -100h-96zM168 444l10 99h96l-8 -99h-98zM182 592l8 100h97l-6 -100h-99zM205 887l12 100h98l-10 -100h-100zM221 1036l8 99h99l-9 -99h-98zM233 1186l11 98h96l-10 -98h-97zM246 1333l8 99h98l-8 -99h-98zM289 147 l10 99h98l-6 -99h-102zM352 295l10 100h99l-10 -100h-99zM416 444l10 99h96l-6 -99h-100zM477 592l8 100h101l-8 -100h-101zM774 592l10 100h97l-9 -100h-98zM809 444l10 99h99l-7 -99h-102zM846 295l10 100h98l-8 -100h-100zM883 147l8 99h98l-8 -99h-98zM1030 147l8 99 h103l-11 -99h-100zM1042 295l13 100h98l-10 -100h-101zM1057 444l8 99h100l-6 -99h-102zM1071 592l6 100h103l-11 -100h-98zM1096 887l10 100h98l-8 -100h-100zM1110 1036l8 99h101l-11 -99h-98zM1122 1186l8 98h101l-8 -98h-101zM1135 1333l8 99h100l-8 -99h-100z" />
<glyph unicode="x" d="M291 147l10 99h98l-6 -99h-102zM354 295l11 100h98l-10 -100h-99zM395 1333l11 99h98l-6 -99h-103zM418 444l10 99h96l-6 -99h-100zM434 1186l8 98h97l-7 -98h-98zM471 1036l8 99h99l-9 -99h-98zM479 592l8 100h101l-8 -100h-101zM504 887l12 100h98l-10 -100h-100z M776 592l10 100h97l-9 -100h-98zM803 887l8 100h100l-12 -100h-96zM811 444l10 99h99l-9 -99h-100zM848 295l10 100h98l-8 -100h-100zM864 1036l8 99h101l-8 -99h-101zM885 147l8 99h98l-8 -99h-98zM928 1186l6 98h102l-10 -98h-98zM989 1333l8 99h99l-9 -99h-98z" />
<glyph unicode="y" d="M176 887l8 100h101l-13 -100h-96zM190 1036l9 99h96l-6 -99h-99zM203 1184l8 100h98l-8 -100h-98zM215 1331l10 101h97l-11 -101h-96zM248 -2l6 98h100l-8 -98h-98zM309 739l10 99h99l-6 -99h-103zM393 -2l8 98h101l-6 -98h-103zM459 739l8 99h100l-8 -99h-100zM543 -2 l10 98h96l-6 -98h-100zM608 739l8 99h99l-10 -99h-97zM692 -2l8 98h97l-9 -98h-96zM756 739l10 99h96l-8 -99h-98zM840 -2l8 98h98l-10 -98h-96zM903 739l8 99h99l-9 -99h-98zM999 145l9 101h100l-10 -101h-99zM1012 293l10 100h100l-10 -100h-100zM1026 442l10 99h99 l-9 -99h-100zM1038 592l9 96h100l-6 -96h-103zM1063 887l12 100h99l-11 -100h-100zM1077 1036l10 99h99l-6 -99h-103zM1092 1184l6 100h102l-10 -100h-98zM1102 1331l10 101h100l-10 -101h-100z" />
<glyph unicode="z" d="M281 0l8 96h100l-10 -96h-98zM291 147l10 99h98l-6 -99h-102zM354 295l11 100h98l-10 -100h-99zM410 1483l6 98h102l-10 -98h-98zM418 444l10 99h96l-6 -99h-100zM428 0l6 96h103l-11 -96h-98zM479 594l8 98h101l-8 -98h-101zM557 1483l6 98h101l-7 -98h-100zM578 0l8 96 h96l-6 -96h-98zM705 1483l10 98h96l-6 -98h-100zM723 0l10 96h96l-6 -96h-100zM803 887l8 100h100l-12 -100h-96zM854 1483l8 98h96l-6 -98h-98zM864 1036l8 99h101l-8 -99h-101zM872 0l9 96h98l-8 -96h-99zM928 1186l6 98h102l-10 -98h-98zM989 1333l8 99h99l-9 -99h-98z M1001 1483l9 98h98l-10 -98h-97z" />
<glyph unicode="{" d="M483 592l6 100h101l-10 -100h-97zM506 887l12 100h96l-8 -100h-100zM518 444l8 99h101l-11 -99h-98zM553 295l10 100h101l-13 -100h-98zM569 1036l9 99h100l-8 -99h-101zM575 0l7 96h100l-8 -96h-99zM590 147l8 99h98l-8 -99h-98zM631 1186l10 98h98l-6 -98h-102z M694 1333l8 99h97l-6 -99h-99zM702 1483l11 98h96l-6 -98h-101z" />
<glyph unicode="|" d="M580 -10l10 100h96l-6 -100h-100zM594 139l8 99h98l-8 -99h-98zM606 287l10 100h99l-13 -100h-96zM621 434l8 101h96l-6 -101h-98zM633 586l8 96h98l-8 -96h-98zM645 733l8 96h99l-7 -96h-100zM659 881l9 100h98l-10 -100h-97zM674 1028l8 100h96l-8 -100h-96zM684 1178 l10 98h97l-7 -98h-100zM698 1325l7 98h100l-10 -98h-97z" />
<glyph unicode="}" d="M520 0l6 96h101l-9 -96h-98zM532 147l7 99h102l-10 -99h-99zM594 295l10 100h98l-10 -100h-98zM635 1333l8 99h102l-10 -99h-100zM647 1483l10 98h97l-6 -98h-101zM659 444l7 99h100l-10 -99h-97zM674 1186l8 98h96l-8 -98h-96zM711 1036l8 99h96l-8 -99h-96zM719 592 l6 100h102l-8 -100h-100zM745 887l9 100h100l-10 -100h-99z" />
<glyph unicode="&#xa0;" />
<glyph unicode="&#xa1;" d="M616 -2l11 98h96l-8 -98h-99zM631 145l8 101h96l-6 -101h-98zM643 293l8 100h99l-11 -100h-96zM653 442l13 99h98l-10 -99h-101zM670 592l8 96h98l-8 -96h-98zM682 739l10 99h96l-10 -99h-96zM694 887l8 100h99l-8 -100h-99zM735 1331l6 101h99l-9 -101h-96z" />
<glyph unicode="&#xa5;" d="M303 295l6 100h103l-11 -100h-98zM330 592l8 100h100l-8 -100h-100zM395 1333l11 99h98l-6 -99h-103zM434 1186l8 98h97l-7 -98h-98zM451 295l8 100h100l-8 -100h-100zM471 1036l8 99h99l-9 -99h-98zM479 592l6 100h103l-10 -100h-99zM504 887l12 100h98l-10 -100h-100z M588 147l8 99h100l-10 -99h-98zM602 295l6 100h97l-7 -100h-96zM614 444l9 99h100l-8 -99h-101zM629 592l6 100h98l-8 -100h-96zM748 295l8 100h98l-8 -100h-98zM774 592l10 100h97l-7 -100h-100zM803 887l8 100h100l-12 -100h-96zM864 1036l8 99h101l-8 -99h-101zM895 295 l8 100h98l-8 -100h-98zM922 592l10 100h96l-6 -100h-100zM928 1186l6 98h102l-10 -98h-98zM989 1333l8 99h99l-9 -99h-98z" />
<glyph unicode="&#xa8;" d="M489 1923l9 100h98l-8 -100h-99zM791 1923l6 100h98l-8 -100h-96z" />
<glyph unicode="&#xa9;" d="M141 147l9 99h98l-8 -99h-99zM156 295l8 100h100l-12 -100h-96zM168 444l10 99h96l-8 -99h-98zM182 594l8 98h97l-6 -98h-99zM205 887l12 100h98l-10 -100h-100zM221 1036l8 99h99l-9 -99h-98zM233 1186l11 98h96l-10 -98h-97zM246 1333l8 99h98l-8 -99h-98zM276 0l11 96 h100l-10 -96h-101zM408 1483l6 98h102l-10 -98h-98zM426 0l6 96h103l-11 -96h-98zM451 442l10 99h98l-6 -99h-102zM467 592l10 100h98l-6 -100h-102zM481 737l8 101h101l-8 -101h-101zM498 887l8 100h100l-8 -100h-100zM514 1034l8 99h101l-9 -99h-100zM555 1483l6 98h101 l-9 -98h-98zM575 0l7 96h100l-8 -96h-99zM586 295l8 100h98l-10 -100h-96zM680 1184l8 100h98l-10 -100h-96zM702 1483l11 98h96l-6 -98h-101zM723 0l8 96h96l-6 -96h-98zM733 295l8 100h99l-11 -100h-96zM827 1184l11 100h96l-8 -100h-99zM850 1483l10 98h96l-6 -98h-100z M868 0l11 96h96l-6 -96h-101zM999 1483l9 98h98l-8 -98h-99zM1030 147l8 99h103l-11 -99h-100zM1042 295l13 100h98l-10 -100h-101zM1057 444l8 99h100l-6 -99h-102zM1071 594l6 98h103l-11 -98h-98zM1096 887l10 100h98l-8 -100h-100zM1110 1036l8 99h101l-11 -99h-98z M1122 1186l8 98h101l-8 -98h-101zM1135 1333l8 99h100l-8 -99h-100z" />
<glyph unicode="&#xab;" horiz-adv-x="2775" d="M535 592l6 100h100l-10 -100h-96zM557 887l12 100h97l-9 -100h-100zM569 444l9 99h100l-10 -99h-99zM604 295l10 100h101l-13 -100h-98zM621 1036l8 99h100l-8 -99h-100zM641 147l8 99h99l-9 -99h-98zM682 1186l10 98h99l-7 -98h-102zM745 1333l9 99h96l-6 -99h-99z M1921 592l6 100h100l-10 -100h-96zM1943 887l12 100h97l-9 -100h-100zM1955 444l9 99h100l-10 -99h-99zM1990 295l10 100h101l-13 -100h-98zM2007 1036l8 99h100l-8 -99h-100zM2027 147l8 99h99l-9 -99h-98zM2068 1186l10 98h99l-7 -98h-102zM2131 1333l9 99h96l-6 -99h-99z " />
<glyph unicode="&#xad;" d="M344 739l8 101h101l-9 -101h-100zM492 739l8 101h102l-10 -101h-100zM643 739l6 101h99l-9 -101h-96zM788 739l9 101h98l-8 -101h-99zM936 739l10 101h96l-6 -101h-100z" />
<glyph unicode="&#xae;" d="M141 147l9 99h98l-8 -99h-99zM156 295l8 100h100l-12 -100h-96zM168 444l10 99h96l-8 -99h-98zM182 594l8 98h97l-6 -98h-99zM205 887l12 100h98l-10 -100h-100zM221 1036l8 99h99l-9 -99h-98zM233 1186l11 98h96l-10 -98h-97zM246 1333l8 99h98l-8 -99h-98zM276 0l11 96 h100l-10 -96h-101zM408 1483l6 98h102l-10 -98h-98zM426 0l6 96h103l-11 -96h-98zM434 295l10 100h99l-6 -100h-103zM451 442l10 99h98l-6 -99h-102zM467 592l10 100h98l-6 -100h-102zM481 737l8 101h101l-8 -101h-101zM498 887l8 100h100l-8 -100h-100zM514 1034l8 99h101 l-9 -99h-100zM530 1184l9 100h100l-8 -100h-101zM555 1483l6 98h101l-9 -98h-98zM575 0l7 96h100l-8 -96h-99zM631 737l10 101h96l-8 -101h-98zM680 1184l8 100h98l-10 -100h-96zM702 1483l11 98h96l-6 -98h-101zM723 0l8 96h96l-6 -96h-98zM733 295l8 100h99l-11 -100h-96z M750 442l8 99h98l-10 -99h-96zM766 592l8 100h98l-10 -100h-96zM795 887l10 100h96l-8 -100h-98zM811 1034l10 99h97l-9 -99h-98zM850 1483l10 98h96l-6 -98h-100zM868 0l11 96h96l-6 -96h-101zM999 1483l9 98h98l-8 -98h-99zM1030 147l8 99h103l-11 -99h-100zM1042 295 l13 100h98l-10 -100h-101zM1057 444l8 99h100l-6 -99h-102zM1071 594l6 98h103l-11 -98h-98zM1096 887l10 100h98l-8 -100h-100zM1110 1036l8 99h101l-11 -99h-98zM1122 1186l8 98h101l-8 -98h-101zM1135 1333l8 99h100l-8 -99h-100z" />
<glyph unicode="&#xb4;" d="M569 1765l6 101h99l-8 -101h-97zM713 1915l6 98h100l-10 -98h-96z" />
<glyph unicode="&#xb8;" d="M573 -299l9 100h98l-10 -100h-97zM705 -193l10 101h96l-6 -101h-100z" />
<glyph unicode="&#xbb;" horiz-adv-x="2775" d="M532 147l7 99h102l-10 -99h-99zM594 295l10 100h98l-10 -100h-98zM635 1333l8 99h102l-10 -99h-100zM659 444l7 99h100l-10 -99h-97zM674 1186l8 98h96l-8 -98h-96zM711 1036l8 99h96l-8 -99h-96zM719 592l6 100h102l-8 -100h-100zM745 887l9 100h100l-10 -100h-99z M1918 147l7 99h102l-10 -99h-99zM1980 295l10 100h98l-10 -100h-98zM2021 1333l8 99h102l-10 -99h-100zM2045 444l7 99h100l-10 -99h-97zM2060 1186l8 98h96l-8 -98h-96zM2097 1036l8 99h96l-8 -99h-96zM2105 592l6 100h102l-8 -100h-100zM2131 887l9 100h100l-10 -100h-99z " />
<glyph unicode="&#xbf;" d="M172 0l8 96h101l-11 -96h-98zM184 147l9 99h98l-6 -99h-101zM197 295l8 100h100l-10 -100h-98zM209 444l10 99h100l-10 -99h-100zM309 -150l8 99h97l-6 -99h-99zM373 592l8 100h98l-8 -100h-98zM455 -150l10 99h96l-6 -99h-100zM520 592l10 100h97l-6 -100h-101z M604 -150l8 99h99l-9 -99h-98zM668 592l10 100h96l-6 -100h-100zM752 -150l8 99h100l-10 -99h-98zM815 592l10 100h101l-11 -100h-100zM899 -150l10 99h99l-9 -99h-100zM965 592l8 100h100l-10 -100h-98zM1126 739l9 101h98l-8 -101h-99zM1141 887l6 100h98l-8 -100h-96z M1151 1036l12 99h97l-11 -99h-98zM1184 1333l10 99h98l-6 -99h-102z" />
<glyph unicode="&#xc0;" d="M141 145l9 101h98l-8 -101h-99zM156 293l8 102h100l-12 -102h-96zM168 442l10 99h96l-8 -99h-98zM182 592l8 96h97l-6 -96h-99zM205 887l12 100h98l-10 -100h-100zM221 1036l8 99h99l-9 -99h-98zM233 1186l11 98h96l-10 -98h-97zM246 1331l8 101h98l-8 -101h-98zM342 739 l6 99h103l-9 -99h-100zM408 1479l6 102h102l-10 -102h-98zM489 739l9 99h100l-8 -99h-101zM555 1479l6 102h101l-9 -102h-98zM625 1915l6 98h100l-10 -98h-96zM641 739l6 99h98l-8 -99h-96zM702 1479l11 102h96l-6 -102h-101zM731 1765l10 101h99l-8 -101h-101zM786 739 l9 99h98l-8 -99h-99zM850 1479l10 102h96l-6 -102h-100zM934 739l10 99h96l-6 -99h-100zM999 1479l9 102h98l-8 -102h-99zM1030 145l8 101h103l-11 -101h-100zM1042 293l13 102h98l-10 -102h-101zM1057 442l8 99h100l-6 -99h-102zM1071 592l6 96h103l-11 -96h-98zM1096 887 l10 100h98l-8 -100h-100zM1110 1036l8 99h101l-11 -99h-98zM1122 1186l8 98h101l-8 -98h-101zM1135 1331l8 101h100l-8 -101h-100z" />
<glyph unicode="&#xc1;" d="M141 145l9 101h98l-8 -101h-99zM156 293l8 102h100l-12 -102h-96zM168 442l10 99h96l-8 -99h-98zM182 592l8 96h97l-6 -96h-99zM205 887l12 100h98l-10 -100h-100zM221 1036l8 99h99l-9 -99h-98zM233 1186l11 98h96l-10 -98h-97zM246 1331l8 101h98l-8 -101h-98zM342 739 l6 99h103l-9 -99h-100zM408 1479l6 102h102l-10 -102h-98zM489 739l9 99h100l-8 -99h-101zM555 1479l6 102h101l-9 -102h-98zM641 739l6 99h98l-8 -99h-96zM702 1479l11 102h96l-6 -102h-101zM731 1765l6 101h99l-8 -101h-97zM786 739l9 99h98l-8 -99h-99zM850 1479l10 102 h96l-6 -102h-100zM875 1915l6 98h100l-10 -98h-96zM934 739l10 99h96l-6 -99h-100zM999 1479l9 102h98l-8 -102h-99zM1030 145l8 101h103l-11 -101h-100zM1042 293l13 102h98l-10 -102h-101zM1057 442l8 99h100l-6 -99h-102zM1071 592l6 96h103l-11 -96h-98zM1096 887 l10 100h98l-8 -100h-100zM1110 1036l8 99h101l-11 -99h-98zM1122 1186l8 98h101l-8 -98h-101zM1135 1331l8 101h100l-8 -101h-100z" />
<glyph unicode="&#xc2;" d="M141 145l9 101h98l-8 -101h-99zM156 293l8 102h100l-12 -102h-96zM168 442l10 99h96l-8 -99h-98zM182 592l8 96h97l-6 -96h-99zM205 887l12 100h98l-10 -100h-100zM221 1036l8 99h99l-9 -99h-98zM233 1186l11 98h96l-10 -98h-97zM246 1331l8 101h98l-8 -101h-98zM342 739 l6 99h103l-9 -99h-100zM408 1479l6 102h102l-10 -102h-98zM489 739l9 99h100l-8 -99h-101zM555 1479l6 102h101l-9 -102h-98zM596 1765l6 101h96l-6 -101h-96zM641 739l6 99h98l-8 -99h-96zM702 1479l11 102h96l-6 -102h-101zM739 1915l7 98h100l-10 -98h-97zM786 739l9 99 h98l-8 -99h-99zM846 1765l10 101h98l-8 -101h-100zM850 1479l10 102h96l-6 -102h-100zM934 739l10 99h96l-6 -99h-100zM999 1479l9 102h98l-8 -102h-99zM1030 145l8 101h103l-11 -101h-100zM1042 293l13 102h98l-10 -102h-101zM1057 442l8 99h100l-6 -99h-102zM1071 592 l6 96h103l-11 -96h-98zM1096 887l10 100h98l-8 -100h-100zM1110 1036l8 99h101l-11 -99h-98zM1122 1186l8 98h101l-8 -98h-101zM1135 1331l8 101h100l-8 -101h-100z" />
<glyph unicode="&#xc3;" d="M141 145l9 101h98l-8 -101h-99zM156 293l8 102h100l-12 -102h-96zM168 442l10 99h96l-8 -99h-98zM182 592l8 96h97l-6 -96h-99zM205 887l12 100h98l-10 -100h-100zM221 1036l8 99h99l-9 -99h-98zM233 1186l11 98h96l-10 -98h-97zM246 1331l8 101h98l-8 -101h-98zM342 739 l6 99h103l-9 -99h-100zM408 1479l6 102h102l-10 -102h-98zM489 739l9 99h100l-8 -99h-101zM555 1479l6 102h101l-9 -102h-98zM581 1765l7 101h96l-6 -101h-97zM641 739l6 99h98l-8 -99h-96zM702 1479l11 102h96l-6 -102h-101zM725 1915l6 98h100l-10 -98h-96zM786 739l9 99 h98l-8 -99h-99zM831 1765l10 101h99l-8 -101h-101zM850 1479l10 102h96l-6 -102h-100zM934 739l10 99h96l-6 -99h-100zM979 1915l6 98h100l-10 -98h-96zM999 1479l9 102h98l-8 -102h-99zM1030 145l8 101h103l-11 -101h-100zM1042 293l13 102h98l-10 -102h-101zM1057 442 l8 99h100l-6 -99h-102zM1071 592l6 96h103l-11 -96h-98zM1096 887l10 100h98l-8 -100h-100zM1110 1036l8 99h101l-11 -99h-98zM1122 1186l8 98h101l-8 -98h-101zM1135 1331l8 101h100l-8 -101h-100z" />
<glyph unicode="&#xc4;" d="M141 145l9 101h98l-8 -101h-99zM156 293l8 102h100l-12 -102h-96zM168 442l10 99h96l-8 -99h-98zM182 592l8 96h97l-6 -96h-99zM205 887l12 100h98l-10 -100h-100zM221 1036l8 99h99l-9 -99h-98zM233 1186l11 98h96l-10 -98h-97zM246 1331l8 101h98l-8 -101h-98zM342 739 l6 99h103l-9 -99h-100zM408 1479l6 102h102l-10 -102h-98zM489 739l9 99h100l-8 -99h-101zM555 1479l6 102h101l-9 -102h-98zM585 1923l9 100h98l-8 -100h-99zM641 739l6 99h98l-8 -99h-96zM702 1479l11 102h96l-6 -102h-101zM786 739l9 99h98l-8 -99h-99zM850 1479l10 102 h96l-6 -102h-100zM887 1923l6 100h98l-8 -100h-96zM934 739l10 99h96l-6 -99h-100zM999 1479l9 102h98l-8 -102h-99zM1030 145l8 101h103l-11 -101h-100zM1042 293l13 102h98l-10 -102h-101zM1057 442l8 99h100l-6 -99h-102zM1071 592l6 96h103l-11 -96h-98zM1096 887 l10 100h98l-8 -100h-100zM1110 1036l8 99h101l-11 -99h-98zM1122 1186l8 98h101l-8 -98h-101zM1135 1331l8 101h100l-8 -101h-100z" />
<glyph unicode="&#xc5;" d="M141 145l9 101h98l-8 -101h-99zM156 293l8 102h100l-12 -102h-96zM168 442l10 99h96l-8 -99h-98zM182 592l8 96h97l-6 -96h-99zM205 887l12 100h98l-10 -100h-100zM221 1036l8 99h99l-9 -99h-98zM233 1186l11 98h96l-10 -98h-97zM246 1331l8 101h98l-8 -101h-98zM342 739 l6 99h103l-9 -99h-100zM408 1479l6 102h102l-10 -102h-98zM489 739l9 99h100l-8 -99h-101zM555 1479l6 102h101l-9 -102h-98zM629 1915l8 98h99l-11 -98h-96zM641 739l6 99h98l-8 -99h-96zM702 1479l11 102h96l-6 -102h-101zM727 1772l9 96h98l-8 -96h-99zM772 2062l9 97h98 l-8 -97h-99zM786 739l9 99h98l-8 -99h-99zM850 1479l10 102h96l-6 -102h-100zM879 1915l12 98h98l-10 -98h-100zM934 739l10 99h96l-6 -99h-100zM999 1479l9 102h98l-8 -102h-99zM1030 145l8 101h103l-11 -101h-100zM1042 293l13 102h98l-10 -102h-101zM1057 442l8 99h100 l-6 -99h-102zM1071 592l6 96h103l-11 -96h-98zM1096 887l10 100h98l-8 -100h-100zM1110 1036l8 99h101l-11 -99h-98zM1122 1186l8 98h101l-8 -98h-101zM1135 1331l8 101h100l-8 -101h-100z" />
<glyph unicode="&#xc6;" d="M16 156l9 98h98l-8 -98h-99zM31 303l8 103h100l-12 -103h-96zM43 451l10 100h97l-9 -100h-98zM57 602l9 96h96l-6 -96h-99zM82 897l10 100h98l-10 -100h-98zM96 1044l8 101h99l-8 -101h-99zM109 1196l10 96h96l-10 -96h-96zM121 1341l8 99h98l-8 -99h-98zM217 750l8 96 h101l-9 -96h-100zM283 1489l6 102h102l-10 -102h-98zM365 750l8 96h100l-8 -96h-100zM430 1489l6 102h101l-7 -102h-100zM514 750l8 96h99l-9 -96h-98zM578 1489l10 102h96l-6 -102h-100zM610 156l6 98h103l-8 -98h-101zM623 303l10 103h100l-12 -103h-98zM635 451l10 100 h100l-8 -100h-102zM649 602l8 96h101l-8 -96h-101zM676 897l8 100h100l-10 -100h-98zM688 1044l10 101h99l-9 -101h-100zM700 1196l11 96h98l-6 -96h-103zM715 1341l6 99h102l-10 -99h-98zM748 6l6 98h100l-8 -98h-98zM811 748l8 98h99l-7 -98h-100zM874 1489l9 100h100 l-8 -100h-101zM895 6l6 98h100l-8 -98h-98zM956 748l11 98h98l-6 -98h-103zM1022 1489l8 100h100l-6 -100h-102zM1042 6l11 98h96l-6 -98h-101zM1108 748l8 98h98l-8 -98h-98zM1171 1489l11 100h96l-8 -100h-99z" />
<glyph unicode="&#xc7;" d="M211 147l8 99h98l-10 -99h-96zM225 295l8 100h97l-8 -100h-97zM238 444l8 99h98l-8 -99h-98zM250 594l8 98h98l-8 -98h-98zM274 887l13 100h96l-10 -100h-99zM289 1036l10 99h96l-6 -99h-100zM303 1186l6 98h101l-11 -98h-96zM315 1333l9 99h96l-8 -99h-97zM346 0l8 96 h99l-7 -96h-100zM473 1483l10 98h99l-7 -98h-102zM483 -299l9 100h98l-10 -100h-97zM496 0l6 96h100l-8 -96h-98zM615 -193l10 101h96l-6 -101h-100zM623 1483l8 98h100l-8 -98h-100zM643 0l8 96h99l-9 -96h-98zM772 1483l10 98h97l-11 -98h-96zM791 0l10 96h96l-6 -96h-100 zM920 1483l10 98h96l-8 -98h-98zM938 0l10 96h96l-8 -96h-98zM1069 1483l8 98h97l-9 -98h-96z" />
<glyph unicode="&#xc8;" d="M211 147l8 99h98l-10 -99h-96zM225 295l8 100h97l-8 -100h-97zM238 444l8 99h98l-8 -99h-98zM250 594l8 98h98l-8 -98h-98zM274 887l13 100h96l-10 -100h-99zM289 1036l10 99h96l-6 -99h-100zM303 1186l6 98h101l-11 -98h-96zM315 1333l9 99h96l-8 -99h-97zM346 0l8 96 h99l-7 -96h-100zM412 739l6 101h100l-8 -101h-98zM473 1483l10 98h99l-7 -98h-102zM496 0l6 96h100l-8 -96h-98zM557 739l10 101h99l-7 -101h-102zM623 1483l8 98h100l-8 -98h-100zM643 0l8 96h99l-9 -96h-98zM692 1915l6 98h100l-10 -98h-96zM707 739l10 101h96l-6 -101 h-100zM772 1483l10 98h97l-11 -98h-96zM791 0l10 96h96l-6 -96h-100zM798 1765l10 101h99l-8 -101h-101zM856 739l8 101h99l-11 -101h-96zM920 1483l10 98h96l-8 -98h-98zM938 0l10 96h96l-8 -96h-98zM1004 739l8 101h98l-10 -101h-96zM1069 1483l8 98h97l-9 -98h-96z" />
<glyph unicode="&#xc9;" d="M211 147l8 99h98l-10 -99h-96zM225 295l8 100h97l-8 -100h-97zM238 444l8 99h98l-8 -99h-98zM250 594l8 98h98l-8 -98h-98zM274 887l13 100h96l-10 -100h-99zM289 1036l10 99h96l-6 -99h-100zM303 1186l6 98h101l-11 -98h-96zM315 1333l9 99h96l-8 -99h-97zM346 0l8 96 h99l-7 -96h-100zM412 739l6 101h100l-8 -101h-98zM473 1483l10 98h99l-7 -98h-102zM496 0l6 96h100l-8 -96h-98zM557 739l10 101h99l-7 -101h-102zM623 1483l8 98h100l-8 -98h-100zM643 0l8 96h99l-9 -96h-98zM707 739l10 101h96l-6 -101h-100zM772 1483l10 98h97l-11 -98 h-96zM791 0l10 96h96l-6 -96h-100zM817 1765l6 101h99l-8 -101h-97zM856 739l8 101h99l-11 -101h-96zM920 1483l10 98h96l-8 -98h-98zM938 0l10 96h96l-8 -96h-98zM961 1915l6 98h100l-10 -98h-96zM1004 739l8 101h98l-10 -101h-96zM1069 1483l8 98h97l-9 -98h-96z" />
<glyph unicode="&#xca;" d="M211 147l8 99h98l-10 -99h-96zM225 295l8 100h97l-8 -100h-97zM238 444l8 99h98l-8 -99h-98zM250 594l8 98h98l-8 -98h-98zM274 887l13 100h96l-10 -100h-99zM289 1036l10 99h96l-6 -99h-100zM303 1186l6 98h101l-11 -98h-96zM315 1333l9 99h96l-8 -99h-97zM346 0l8 96 h99l-7 -96h-100zM412 739l6 101h100l-8 -101h-98zM473 1483l10 98h99l-7 -98h-102zM496 0l6 96h100l-8 -96h-98zM557 739l10 101h99l-7 -101h-102zM623 1483l8 98h100l-8 -98h-100zM643 0l8 96h99l-9 -96h-98zM659 1765l6 101h96l-6 -101h-96zM707 739l10 101h96l-6 -101 h-100zM772 1483l10 98h97l-11 -98h-96zM791 0l10 96h96l-6 -96h-100zM802 1915l7 98h100l-10 -98h-97zM856 739l8 101h99l-11 -101h-96zM909 1765l10 101h98l-8 -101h-100zM920 1483l10 98h96l-8 -98h-98zM938 0l10 96h96l-8 -96h-98zM1004 739l8 101h98l-10 -101h-96z M1069 1483l8 98h97l-9 -98h-96z" />
<glyph unicode="&#xcb;" d="M211 147l8 99h98l-10 -99h-96zM225 295l8 100h97l-8 -100h-97zM238 444l8 99h98l-8 -99h-98zM250 594l8 98h98l-8 -98h-98zM274 887l13 100h96l-10 -100h-99zM289 1036l10 99h96l-6 -99h-100zM303 1186l6 98h101l-11 -98h-96zM315 1333l9 99h96l-8 -99h-97zM346 0l8 96 h99l-7 -96h-100zM412 739l6 101h100l-8 -101h-98zM473 1483l10 98h99l-7 -98h-102zM496 0l6 96h100l-8 -96h-98zM557 739l10 101h99l-7 -101h-102zM623 1483l8 98h100l-8 -98h-100zM643 0l8 96h99l-9 -96h-98zM661 1923l9 100h98l-8 -100h-99zM707 739l10 101h96l-6 -101 h-100zM772 1483l10 98h97l-11 -98h-96zM791 0l10 96h96l-6 -96h-100zM856 739l8 101h99l-11 -101h-96zM920 1483l10 98h96l-8 -98h-98zM938 0l10 96h96l-8 -96h-98zM963 1923l6 100h98l-8 -100h-96zM1004 739l8 101h98l-10 -101h-96zM1069 1483l8 98h97l-9 -98h-96z" />
<glyph unicode="&#xcc;" d="M281 0l8 96h100l-10 -96h-98zM410 1483l6 98h102l-10 -98h-98zM428 0l6 96h103l-11 -96h-98zM557 1483l6 98h101l-7 -98h-100zM578 0l8 96h96l-6 -96h-98zM590 147l8 99h98l-10 -99h-96zM602 295l10 100h99l-11 -100h-98zM616 444l9 99h98l-8 -99h-99zM623 1915l6 98h100 l-10 -98h-96zM629 594l10 98h96l-10 -98h-96zM643 739l6 101h99l-9 -101h-96zM653 887l11 100h100l-12 -100h-99zM668 1036l10 99h96l-8 -99h-98zM682 1186l6 98h98l-8 -98h-96zM694 1333l8 99h99l-10 -99h-97zM705 1483l10 98h96l-6 -98h-100zM723 0l10 96h96l-6 -96h-100z M729 1765l10 101h99l-8 -101h-101zM854 1483l8 98h96l-6 -98h-98zM872 0l9 96h98l-8 -96h-99zM1001 1483l9 98h98l-10 -98h-97z" />
<glyph unicode="&#xcd;" d="M281 0l8 96h100l-10 -96h-98zM410 1483l6 98h102l-10 -98h-98zM428 0l6 96h103l-11 -96h-98zM557 1483l6 98h101l-7 -98h-100zM578 0l8 96h96l-6 -96h-98zM590 147l8 99h98l-10 -99h-96zM602 295l10 100h99l-11 -100h-98zM616 444l9 99h98l-8 -99h-99zM629 594l10 98h96 l-10 -98h-96zM643 739l6 101h99l-9 -101h-96zM653 887l11 100h100l-12 -100h-99zM668 1036l10 99h96l-8 -99h-98zM682 1186l6 98h98l-8 -98h-96zM694 1333l8 99h99l-10 -99h-97zM705 1483l10 98h96l-6 -98h-100zM723 0l10 96h96l-6 -96h-100zM737 1765l6 101h99l-8 -101h-97 zM854 1483l8 98h96l-6 -98h-98zM872 0l9 96h98l-8 -96h-99zM881 1915l6 98h100l-10 -98h-96zM1001 1483l9 98h98l-10 -98h-97z" />
<glyph unicode="&#xce;" d="M281 0l8 96h100l-10 -96h-98zM410 1483l6 98h102l-10 -98h-98zM428 0l6 96h103l-11 -96h-98zM557 1483l6 98h101l-7 -98h-100zM578 0l8 96h96l-6 -96h-98zM590 147l8 99h98l-10 -99h-96zM602 295l10 100h99l-11 -100h-98zM606 1765l6 101h96l-6 -101h-96zM616 444l9 99 h98l-8 -99h-99zM629 594l10 98h96l-10 -98h-96zM643 739l6 101h99l-9 -101h-96zM653 887l11 100h100l-12 -100h-99zM668 1036l10 99h96l-8 -99h-98zM682 1186l6 98h98l-8 -98h-96zM694 1333l8 99h99l-10 -99h-97zM705 1483l10 98h96l-6 -98h-100zM723 0l10 96h96l-6 -96 h-100zM749 1915l7 98h100l-10 -98h-97zM854 1483l8 98h96l-6 -98h-98zM856 1765l10 101h98l-8 -101h-100zM872 0l9 96h98l-8 -96h-99zM1001 1483l9 98h98l-10 -98h-97z" />
<glyph unicode="&#xcf;" d="M281 0l8 96h100l-10 -96h-98zM410 1483l6 98h102l-10 -98h-98zM428 0l6 96h103l-11 -96h-98zM557 1483l6 98h101l-7 -98h-100zM578 0l8 96h96l-6 -96h-98zM581 1923l9 100h98l-8 -100h-99zM590 147l8 99h98l-10 -99h-96zM602 295l10 100h99l-11 -100h-98zM616 444l9 99 h98l-8 -99h-99zM629 594l10 98h96l-10 -98h-96zM643 739l6 101h99l-9 -101h-96zM653 887l11 100h100l-12 -100h-99zM668 1036l10 99h96l-8 -99h-98zM682 1186l6 98h98l-8 -98h-96zM694 1333l8 99h99l-10 -99h-97zM705 1483l10 98h96l-6 -98h-100zM723 0l10 96h96l-6 -96 h-100zM854 1483l8 98h96l-6 -98h-98zM872 0l9 96h98l-8 -96h-99zM883 1923l6 100h98l-8 -100h-96zM1001 1483l9 98h98l-10 -98h-97z" />
<glyph unicode="&#xd0;" d="M211 0l8 96h100l-10 -96h-98zM291 885l8 100h100l-8 -100h-100zM340 1483l8 98h101l-11 -98h-98zM358 0l9 96h100l-8 -96h-101zM438 885l8 100h103l-10 -100h-101zM487 1483l11 98h98l-8 -98h-101zM508 0l10 96h96l-8 -96h-98zM520 147l10 99h97l-6 -99h-101zM535 295 l8 100h100l-12 -100h-96zM549 444l8 99h96l-8 -99h-96zM559 594l10 98h97l-7 -98h-100zM586 887l10 100h98l-10 -100h-98zM602 1036l6 99h97l-7 -99h-96zM612 1186l11 98h96l-8 -98h-99zM625 1333l8 99h98l-8 -99h-98zM639 1483l6 98h100l-10 -98h-96zM657 0l7 96h100 l-10 -96h-97zM735 885l10 100h97l-6 -100h-101zM786 1483l7 98h98l-8 -98h-97zM805 0l6 96h100l-10 -96h-96zM932 1483l8 98h98l-8 -98h-98zM965 147l8 99h100l-10 -99h-98zM975 295l12 100h100l-10 -100h-102zM991 444l8 99h99l-6 -99h-101zM1004 594l8 98h100l-10 -98h-98 zM1028 887l10 100h103l-13 -100h-100zM1042 1036l11 99h98l-8 -99h-101zM1057 1186l6 98h100l-8 -98h-98zM1069 1333l8 99h101l-11 -99h-98z" />
<glyph unicode="&#xd1;" d="M141 147l9 99h98l-8 -99h-99zM156 295l8 100h100l-12 -100h-96zM168 444l10 99h96l-8 -99h-98zM182 592l8 100h97l-6 -100h-99zM205 887l12 100h98l-10 -100h-100zM221 1036l8 99h99l-9 -99h-98zM233 1186l11 98h96l-10 -98h-97zM246 1333l8 99h98l-8 -99h-98zM393 1333 l8 99h101l-6 -99h-103zM432 1186l6 98h99l-7 -98h-98zM469 1036l8 99h98l-8 -99h-98zM502 887l12 100h98l-10 -100h-100zM575 1765l7 101h96l-6 -101h-97zM719 1915l6 98h100l-10 -98h-96zM774 592l10 100h97l-9 -100h-98zM809 444l10 99h99l-7 -99h-102zM825 1765l10 101 h99l-8 -101h-101zM846 295l10 100h98l-8 -100h-100zM883 147l8 99h98l-8 -99h-98zM973 1915l6 98h100l-10 -98h-96zM1030 147l8 99h103l-11 -99h-100zM1042 295l13 100h98l-10 -100h-101zM1057 444l8 99h100l-6 -99h-102zM1071 592l6 100h103l-11 -100h-98zM1096 887l10 100 h98l-8 -100h-100zM1110 1036l8 99h101l-11 -99h-98zM1122 1186l8 98h101l-8 -98h-101zM1135 1333l8 99h100l-8 -99h-100z" />
<glyph unicode="&#xd2;" d="M141 147l9 99h98l-8 -99h-99zM156 295l8 100h100l-12 -100h-96zM168 444l10 99h96l-8 -99h-98zM182 594l8 98h97l-6 -98h-99zM205 887l12 100h98l-10 -100h-100zM221 1036l8 99h99l-9 -99h-98zM233 1186l11 98h96l-10 -98h-97zM246 1333l8 99h98l-8 -99h-98zM276 0l11 96 h100l-10 -96h-101zM408 1483l6 98h102l-10 -98h-98zM426 0l6 96h103l-11 -96h-98zM555 1483l6 98h101l-9 -98h-98zM575 0l7 96h100l-8 -96h-99zM623 1915l6 98h100l-10 -98h-96zM702 1483l11 98h96l-6 -98h-101zM723 0l8 96h96l-6 -96h-98zM729 1765l10 101h99l-8 -101h-101 zM850 1483l10 98h96l-6 -98h-100zM868 0l11 96h96l-6 -96h-101zM999 1483l9 98h98l-8 -98h-99zM1030 147l8 99h103l-11 -99h-100zM1042 295l13 100h98l-10 -100h-101zM1057 444l8 99h100l-6 -99h-102zM1071 594l6 98h103l-11 -98h-98zM1096 887l10 100h98l-8 -100h-100z M1110 1036l8 99h101l-11 -99h-98zM1122 1186l8 98h101l-8 -98h-101zM1135 1333l8 99h100l-8 -99h-100z" />
<glyph unicode="&#xd3;" d="M141 147l9 99h98l-8 -99h-99zM156 295l8 100h100l-12 -100h-96zM168 444l10 99h96l-8 -99h-98zM182 594l8 98h97l-6 -98h-99zM205 887l12 100h98l-10 -100h-100zM221 1036l8 99h99l-9 -99h-98zM233 1186l11 98h96l-10 -98h-97zM246 1333l8 99h98l-8 -99h-98zM276 0l11 96 h100l-10 -96h-101zM408 1483l6 98h102l-10 -98h-98zM426 0l6 96h103l-11 -96h-98zM555 1483l6 98h101l-9 -98h-98zM575 0l7 96h100l-8 -96h-99zM702 1483l11 98h96l-6 -98h-101zM723 0l8 96h96l-6 -96h-98zM735 1765l6 101h99l-8 -101h-97zM850 1483l10 98h96l-6 -98h-100z M868 0l11 96h96l-6 -96h-101zM879 1915l6 98h100l-10 -98h-96zM999 1483l9 98h98l-8 -98h-99zM1030 147l8 99h103l-11 -99h-100zM1042 295l13 100h98l-10 -100h-101zM1057 444l8 99h100l-6 -99h-102zM1071 594l6 98h103l-11 -98h-98zM1096 887l10 100h98l-8 -100h-100z M1110 1036l8 99h101l-11 -99h-98zM1122 1186l8 98h101l-8 -98h-101zM1135 1333l8 99h100l-8 -99h-100z" />
<glyph unicode="&#xd4;" d="M141 147l9 99h98l-8 -99h-99zM156 295l8 100h100l-12 -100h-96zM168 444l10 99h96l-8 -99h-98zM182 594l8 98h97l-6 -98h-99zM205 887l12 100h98l-10 -100h-100zM221 1036l8 99h99l-9 -99h-98zM233 1186l11 98h96l-10 -98h-97zM246 1333l8 99h98l-8 -99h-98zM276 0l11 96 h100l-10 -96h-101zM408 1483l6 98h102l-10 -98h-98zM426 0l6 96h103l-11 -96h-98zM555 1483l6 98h101l-9 -98h-98zM575 0l7 96h100l-8 -96h-99zM596 1765l6 101h96l-6 -101h-96zM702 1483l11 98h96l-6 -98h-101zM723 0l8 96h96l-6 -96h-98zM739 1915l7 98h100l-10 -98h-97z M846 1765l10 101h98l-8 -101h-100zM850 1483l10 98h96l-6 -98h-100zM868 0l11 96h96l-6 -96h-101zM999 1483l9 98h98l-8 -98h-99zM1030 147l8 99h103l-11 -99h-100zM1042 295l13 100h98l-10 -100h-101zM1057 444l8 99h100l-6 -99h-102zM1071 594l6 98h103l-11 -98h-98z M1096 887l10 100h98l-8 -100h-100zM1110 1036l8 99h101l-11 -99h-98zM1122 1186l8 98h101l-8 -98h-101zM1135 1333l8 99h100l-8 -99h-100z" />
<glyph unicode="&#xd5;" d="M141 147l9 99h98l-8 -99h-99zM156 295l8 100h100l-12 -100h-96zM168 444l10 99h96l-8 -99h-98zM182 594l8 98h97l-6 -98h-99zM205 887l12 100h98l-10 -100h-100zM221 1036l8 99h99l-9 -99h-98zM233 1186l11 98h96l-10 -98h-97zM246 1333l8 99h98l-8 -99h-98zM276 0l11 96 h100l-10 -96h-101zM408 1483l6 98h102l-10 -98h-98zM426 0l6 96h103l-11 -96h-98zM555 1483l6 98h101l-9 -98h-98zM575 0l7 96h100l-8 -96h-99zM581 1765l7 101h96l-6 -101h-97zM702 1483l11 98h96l-6 -98h-101zM723 0l8 96h96l-6 -96h-98zM725 1915l6 98h100l-10 -98h-96z M831 1765l10 101h99l-8 -101h-101zM850 1483l10 98h96l-6 -98h-100zM868 0l11 96h96l-6 -96h-101zM979 1915l6 98h100l-10 -98h-96zM999 1483l9 98h98l-8 -98h-99zM1030 147l8 99h103l-11 -99h-100zM1042 295l13 100h98l-10 -100h-101zM1057 444l8 99h100l-6 -99h-102z M1071 594l6 98h103l-11 -98h-98zM1096 887l10 100h98l-8 -100h-100zM1110 1036l8 99h101l-11 -99h-98zM1122 1186l8 98h101l-8 -98h-101zM1135 1333l8 99h100l-8 -99h-100z" />
<glyph unicode="&#xd6;" d="M141 147l9 99h98l-8 -99h-99zM156 295l8 100h100l-12 -100h-96zM168 444l10 99h96l-8 -99h-98zM182 594l8 98h97l-6 -98h-99zM205 887l12 100h98l-10 -100h-100zM221 1036l8 99h99l-9 -99h-98zM233 1186l11 98h96l-10 -98h-97zM246 1333l8 99h98l-8 -99h-98zM276 0l11 96 h100l-10 -96h-101zM408 1483l6 98h102l-10 -98h-98zM426 0l6 96h103l-11 -96h-98zM555 1483l6 98h101l-9 -98h-98zM575 0l7 96h100l-8 -96h-99zM595 1923l9 100h98l-8 -100h-99zM702 1483l11 98h96l-6 -98h-101zM723 0l8 96h96l-6 -96h-98zM850 1483l10 98h96l-6 -98h-100z M868 0l11 96h96l-6 -96h-101zM897 1923l6 100h98l-8 -100h-96zM999 1483l9 98h98l-8 -98h-99zM1030 147l8 99h103l-11 -99h-100zM1042 295l13 100h98l-10 -100h-101zM1057 444l8 99h100l-6 -99h-102zM1071 594l6 98h103l-11 -98h-98zM1096 887l10 100h98l-8 -100h-100z M1110 1036l8 99h101l-11 -99h-98zM1122 1186l8 98h101l-8 -98h-101zM1135 1333l8 99h100l-8 -99h-100z" />
<glyph unicode="&#xd8;" d="M141 147l9 99h98l-8 -99h-99zM156 295l8 100h100l-12 -100h-96zM168 444l10 99h96l-8 -99h-98zM182 594l8 98h97l-6 -98h-99zM205 887l12 100h98l-10 -100h-100zM221 1036l8 99h99l-9 -99h-98zM233 1186l11 98h96l-10 -98h-97zM246 1333l8 99h98l-8 -99h-98zM276 0l11 96 h100l-10 -96h-101zM291 147l10 99h98l-6 -99h-102zM354 295l11 100h98l-10 -100h-99zM408 1483l6 98h102l-10 -98h-98zM418 444l10 99h96l-6 -99h-100zM426 0l6 96h103l-11 -96h-98zM479 592l8 100h101l-8 -100h-101zM555 1483l6 98h101l-9 -98h-98zM575 0l7 96h100l-8 -96 h-99zM702 1483l11 98h96l-6 -98h-101zM723 0l8 96h96l-6 -96h-98zM803 887l8 100h100l-12 -100h-96zM850 1483l10 98h96l-6 -98h-100zM864 1036l8 99h101l-8 -99h-101zM868 0l11 96h96l-6 -96h-101zM928 1186l6 98h102l-10 -98h-98zM989 1333l8 99h99l-9 -99h-98zM999 1483 l9 98h98l-8 -98h-99zM1030 147l8 99h103l-11 -99h-100zM1042 295l13 100h98l-10 -100h-101zM1057 444l8 99h100l-6 -99h-102zM1071 594l6 98h103l-11 -98h-98zM1096 887l10 100h98l-8 -100h-100zM1110 1036l8 99h101l-11 -99h-98zM1122 1186l8 98h101l-8 -98h-101z M1135 1333l8 99h100l-8 -99h-100z" />
<glyph unicode="&#xd9;" d="M141 147l9 101h98l-8 -101h-99zM156 295l8 100h100l-12 -100h-96zM168 444l10 99h96l-8 -99h-98zM182 594l8 98h97l-6 -98h-99zM205 891l12 98h98l-10 -98h-100zM221 1038l8 99h99l-9 -99h-98zM233 1186l11 100h96l-10 -100h-97zM246 1333l8 101h98l-8 -101h-98zM276 0 l11 100h100l-10 -100h-101zM426 0l6 100h103l-11 -100h-98zM575 0l7 100h100l-8 -100h-99zM643 1915l6 98h100l-10 -98h-96zM723 0l8 100h96l-6 -100h-98zM749 1765l10 101h99l-8 -101h-101zM868 0l11 100h96l-6 -100h-101zM1030 147l8 101h103l-11 -101h-100zM1042 295 l13 100h98l-10 -100h-101zM1057 444l8 99h100l-6 -99h-102zM1071 594l6 98h103l-11 -98h-98zM1096 891l10 98h98l-8 -98h-100zM1110 1038l8 99h101l-11 -99h-98zM1122 1186l8 100h101l-8 -100h-101zM1135 1333l8 101h100l-8 -101h-100z" />
<glyph unicode="&#xda;" d="M141 147l9 101h98l-8 -101h-99zM156 295l8 100h100l-12 -100h-96zM168 444l10 99h96l-8 -99h-98zM182 594l8 98h97l-6 -98h-99zM205 891l12 98h98l-10 -98h-100zM221 1038l8 99h99l-9 -99h-98zM233 1186l11 100h96l-10 -100h-97zM246 1333l8 101h98l-8 -101h-98zM276 0 l11 100h100l-10 -100h-101zM426 0l6 100h103l-11 -100h-98zM575 0l7 100h100l-8 -100h-99zM723 0l8 100h96l-6 -100h-98zM735 1765l6 101h99l-8 -101h-97zM868 0l11 100h96l-6 -100h-101zM879 1915l6 98h100l-10 -98h-96zM1030 147l8 101h103l-11 -101h-100zM1042 295 l13 100h98l-10 -100h-101zM1057 444l8 99h100l-6 -99h-102zM1071 594l6 98h103l-11 -98h-98zM1096 891l10 98h98l-8 -98h-100zM1110 1038l8 99h101l-11 -99h-98zM1122 1186l8 100h101l-8 -100h-101zM1135 1333l8 101h100l-8 -101h-100z" />
<glyph unicode="&#xdb;" d="M141 147l9 101h98l-8 -101h-99zM156 295l8 100h100l-12 -100h-96zM168 444l10 99h96l-8 -99h-98zM182 594l8 98h97l-6 -98h-99zM205 891l12 98h98l-10 -98h-100zM221 1038l8 99h99l-9 -99h-98zM233 1186l11 100h96l-10 -100h-97zM246 1333l8 101h98l-8 -101h-98zM276 0 l11 100h100l-10 -100h-101zM426 0l6 100h103l-11 -100h-98zM575 0l7 100h100l-8 -100h-99zM590 1765l6 101h96l-6 -101h-96zM723 0l8 100h96l-6 -100h-98zM733 1915l7 98h100l-10 -98h-97zM840 1765l10 101h98l-8 -101h-100zM868 0l11 100h96l-6 -100h-101zM1030 147l8 101 h103l-11 -101h-100zM1042 295l13 100h98l-10 -100h-101zM1057 444l8 99h100l-6 -99h-102zM1071 594l6 98h103l-11 -98h-98zM1096 891l10 98h98l-8 -98h-100zM1110 1038l8 99h101l-11 -99h-98zM1122 1186l8 100h101l-8 -100h-101zM1135 1333l8 101h100l-8 -101h-100z" />
<glyph unicode="&#xdc;" d="M141 147l9 101h98l-8 -101h-99zM156 295l8 100h100l-12 -100h-96zM168 444l10 99h96l-8 -99h-98zM182 594l8 98h97l-6 -98h-99zM205 891l12 98h98l-10 -98h-100zM221 1038l8 99h99l-9 -99h-98zM233 1186l11 100h96l-10 -100h-97zM246 1333l8 101h98l-8 -101h-98zM276 0 l11 100h100l-10 -100h-101zM426 0l6 100h103l-11 -100h-98zM575 0l7 100h100l-8 -100h-99zM595 1923l9 100h98l-8 -100h-99zM723 0l8 100h96l-6 -100h-98zM868 0l11 100h96l-6 -100h-101zM897 1923l6 100h98l-8 -100h-96zM1030 147l8 101h103l-11 -101h-100zM1042 295 l13 100h98l-10 -100h-101zM1057 444l8 99h100l-6 -99h-102zM1071 594l6 98h103l-11 -98h-98zM1096 891l10 98h98l-8 -98h-100zM1110 1038l8 99h101l-11 -99h-98zM1122 1186l8 100h101l-8 -100h-101zM1135 1333l8 101h100l-8 -101h-100z" />
<glyph unicode="&#xdd;" d="M176 887l8 100h101l-13 -100h-96zM190 1036l9 99h96l-6 -99h-99zM203 1184l8 100h98l-8 -100h-98zM215 1331l10 101h97l-11 -101h-96zM248 -2l6 98h100l-8 -98h-98zM309 739l10 99h99l-6 -99h-103zM393 -2l8 98h101l-6 -98h-103zM459 739l8 99h100l-8 -99h-100zM543 -2 l10 98h96l-6 -98h-100zM608 739l8 99h99l-10 -99h-97zM692 -2l8 98h97l-9 -98h-96zM719 1765l6 101h99l-8 -101h-97zM756 739l10 99h96l-8 -99h-98zM840 -2l8 98h98l-10 -98h-96zM863 1915l6 98h100l-10 -98h-96zM903 739l8 99h99l-9 -99h-98zM999 145l9 101h100l-10 -101 h-99zM1012 293l10 100h100l-10 -100h-100zM1026 442l10 99h99l-9 -99h-100zM1038 592l9 96h100l-6 -96h-103zM1063 887l12 100h99l-11 -100h-100zM1077 1036l10 99h99l-6 -99h-103zM1092 1184l6 100h102l-10 -100h-98zM1102 1331l10 101h100l-10 -101h-100z" />
<glyph unicode="&#xde;" d="M141 145l9 101h98l-8 -101h-99zM156 293l8 102h100l-12 -102h-96zM168 442l10 99h96l-8 -99h-98zM182 592l8 96h97l-6 -96h-99zM205 887l12 100h98l-10 -100h-100zM221 1036l8 99h99l-9 -99h-98zM233 1186l11 98h96l-10 -98h-97zM246 1331l8 101h98l-8 -101h-98zM326 444 l8 97h100l-8 -97h-100zM391 1186l6 98h103l-11 -98h-98zM473 444l8 97h101l-9 -97h-100zM539 1186l6 98h100l-6 -98h-100zM625 444l6 97h98l-8 -97h-96zM686 1186l10 98h97l-7 -98h-100zM770 444l8 97h99l-9 -97h-98zM836 1186l8 98h96l-6 -98h-98zM918 444l10 97h96l-6 -97 h-100zM983 1186l8 98h99l-9 -98h-98zM1079 592l11 100h98l-8 -100h-101zM1094 739l8 101h100l-8 -101h-100zM1106 891l8 96h100l-8 -96h-100zM1118 1036l8 99h101l-8 -99h-101z" />
<glyph unicode="&#xdf;" horiz-adv-x="2775" d="M205 887l12 100h98l-10 -100h-100zM221 1036l8 99h99l-9 -99h-98zM233 1186l11 98h96l-10 -98h-97zM246 1333l8 99h98l-8 -99h-98zM276 0l11 96h100l-10 -96h-101zM342 739l6 101h103l-9 -101h-100zM408 1483l6 98h102l-10 -98h-98zM426 0l6 96h103l-11 -96h-98zM489 739 l9 101h100l-8 -101h-101zM555 1483l6 98h101l-9 -98h-98zM575 0l7 96h100l-8 -96h-99zM641 739l6 101h98l-8 -101h-96zM702 1483l11 98h96l-6 -98h-101zM723 0l8 96h96l-6 -96h-98zM786 739l9 101h98l-8 -101h-99zM850 1483l10 98h96l-6 -98h-100zM868 0l11 96h96l-6 -96 h-101zM934 739l10 101h96l-6 -101h-100zM999 1483l9 98h98l-8 -98h-99zM1030 147l8 99h103l-11 -99h-100zM1042 295l13 100h98l-10 -100h-101zM1057 444l8 99h100l-6 -99h-102zM1071 594l6 98h103l-11 -98h-98zM1591 887l12 100h98l-10 -100h-100zM1607 1036l8 99h99l-9 -99 h-98zM1619 1186l11 98h96l-10 -98h-97zM1632 1333l8 99h98l-8 -99h-98zM1662 0l11 96h100l-10 -96h-101zM1728 739l6 101h103l-9 -101h-100zM1794 1483l6 98h102l-10 -98h-98zM1812 0l6 96h103l-11 -96h-98zM1875 739l9 101h100l-8 -101h-101zM1941 1483l6 98h101l-9 -98 h-98zM1961 0l7 96h100l-8 -96h-99zM2027 739l6 101h98l-8 -101h-96zM2088 1483l11 98h96l-6 -98h-101zM2109 0l8 96h96l-6 -96h-98zM2172 739l9 101h98l-8 -101h-99zM2236 1483l10 98h96l-6 -98h-100zM2254 0l11 96h96l-6 -96h-101zM2320 739l10 101h96l-6 -101h-100z M2385 1483l9 98h98l-8 -98h-99zM2416 147l8 99h103l-11 -99h-100zM2428 295l13 100h98l-10 -100h-101zM2443 444l8 99h100l-6 -99h-102zM2457 594l6 98h103l-11 -98h-98z" />
<glyph unicode="&#xe0;" d="M141 145l9 101h98l-8 -101h-99zM156 293l8 102h100l-12 -102h-96zM168 442l10 99h96l-8 -99h-98zM182 592l8 96h97l-6 -96h-99zM205 887l12 100h98l-10 -100h-100zM221 1036l8 99h99l-9 -99h-98zM233 1186l11 98h96l-10 -98h-97zM246 1331l8 101h98l-8 -101h-98zM342 739 l6 99h103l-9 -99h-100zM408 1479l6 102h102l-10 -102h-98zM489 739l9 99h100l-8 -99h-101zM555 1479l6 102h101l-9 -102h-98zM625 1915l6 98h100l-10 -98h-96zM641 739l6 99h98l-8 -99h-96zM702 1479l11 102h96l-6 -102h-101zM731 1765l10 101h99l-8 -101h-101zM786 739 l9 99h98l-8 -99h-99zM850 1479l10 102h96l-6 -102h-100zM934 739l10 99h96l-6 -99h-100zM999 1479l9 102h98l-8 -102h-99zM1030 145l8 101h103l-11 -101h-100zM1042 293l13 102h98l-10 -102h-101zM1057 442l8 99h100l-6 -99h-102zM1071 592l6 96h103l-11 -96h-98zM1096 887 l10 100h98l-8 -100h-100zM1110 1036l8 99h101l-11 -99h-98zM1122 1186l8 98h101l-8 -98h-101zM1135 1331l8 101h100l-8 -101h-100z" />
<glyph unicode="&#xe1;" d="M141 145l9 101h98l-8 -101h-99zM156 293l8 102h100l-12 -102h-96zM168 442l10 99h96l-8 -99h-98zM182 592l8 96h97l-6 -96h-99zM205 887l12 100h98l-10 -100h-100zM221 1036l8 99h99l-9 -99h-98zM233 1186l11 98h96l-10 -98h-97zM246 1331l8 101h98l-8 -101h-98zM342 739 l6 99h103l-9 -99h-100zM408 1479l6 102h102l-10 -102h-98zM489 739l9 99h100l-8 -99h-101zM555 1479l6 102h101l-9 -102h-98zM641 739l6 99h98l-8 -99h-96zM702 1479l11 102h96l-6 -102h-101zM731 1765l6 101h99l-8 -101h-97zM786 739l9 99h98l-8 -99h-99zM850 1479l10 102 h96l-6 -102h-100zM875 1915l6 98h100l-10 -98h-96zM934 739l10 99h96l-6 -99h-100zM999 1479l9 102h98l-8 -102h-99zM1030 145l8 101h103l-11 -101h-100zM1042 293l13 102h98l-10 -102h-101zM1057 442l8 99h100l-6 -99h-102zM1071 592l6 96h103l-11 -96h-98zM1096 887 l10 100h98l-8 -100h-100zM1110 1036l8 99h101l-11 -99h-98zM1122 1186l8 98h101l-8 -98h-101zM1135 1331l8 101h100l-8 -101h-100z" />
<glyph unicode="&#xe2;" d="M141 145l9 101h98l-8 -101h-99zM156 293l8 102h100l-12 -102h-96zM168 442l10 99h96l-8 -99h-98zM182 592l8 96h97l-6 -96h-99zM205 887l12 100h98l-10 -100h-100zM221 1036l8 99h99l-9 -99h-98zM233 1186l11 98h96l-10 -98h-97zM246 1331l8 101h98l-8 -101h-98zM342 739 l6 99h103l-9 -99h-100zM408 1479l6 102h102l-10 -102h-98zM489 739l9 99h100l-8 -99h-101zM555 1479l6 102h101l-9 -102h-98zM596 1765l6 101h96l-6 -101h-96zM641 739l6 99h98l-8 -99h-96zM702 1479l11 102h96l-6 -102h-101zM739 1915l7 98h100l-10 -98h-97zM786 739l9 99 h98l-8 -99h-99zM846 1765l10 101h98l-8 -101h-100zM850 1479l10 102h96l-6 -102h-100zM934 739l10 99h96l-6 -99h-100zM999 1479l9 102h98l-8 -102h-99zM1030 145l8 101h103l-11 -101h-100zM1042 293l13 102h98l-10 -102h-101zM1057 442l8 99h100l-6 -99h-102zM1071 592 l6 96h103l-11 -96h-98zM1096 887l10 100h98l-8 -100h-100zM1110 1036l8 99h101l-11 -99h-98zM1122 1186l8 98h101l-8 -98h-101zM1135 1331l8 101h100l-8 -101h-100z" />
<glyph unicode="&#xe3;" d="M141 145l9 101h98l-8 -101h-99zM156 293l8 102h100l-12 -102h-96zM168 442l10 99h96l-8 -99h-98zM182 592l8 96h97l-6 -96h-99zM205 887l12 100h98l-10 -100h-100zM221 1036l8 99h99l-9 -99h-98zM233 1186l11 98h96l-10 -98h-97zM246 1331l8 101h98l-8 -101h-98zM342 739 l6 99h103l-9 -99h-100zM408 1479l6 102h102l-10 -102h-98zM489 739l9 99h100l-8 -99h-101zM555 1479l6 102h101l-9 -102h-98zM581 1765l7 101h96l-6 -101h-97zM641 739l6 99h98l-8 -99h-96zM702 1479l11 102h96l-6 -102h-101zM725 1915l6 98h100l-10 -98h-96zM786 739l9 99 h98l-8 -99h-99zM831 1765l10 101h99l-8 -101h-101zM850 1479l10 102h96l-6 -102h-100zM934 739l10 99h96l-6 -99h-100zM979 1915l6 98h100l-10 -98h-96zM999 1479l9 102h98l-8 -102h-99zM1030 145l8 101h103l-11 -101h-100zM1042 293l13 102h98l-10 -102h-101zM1057 442 l8 99h100l-6 -99h-102zM1071 592l6 96h103l-11 -96h-98zM1096 887l10 100h98l-8 -100h-100zM1110 1036l8 99h101l-11 -99h-98zM1122 1186l8 98h101l-8 -98h-101zM1135 1331l8 101h100l-8 -101h-100z" />
<glyph unicode="&#xe4;" d="M141 145l9 101h98l-8 -101h-99zM156 293l8 102h100l-12 -102h-96zM168 442l10 99h96l-8 -99h-98zM182 592l8 96h97l-6 -96h-99zM205 887l12 100h98l-10 -100h-100zM221 1036l8 99h99l-9 -99h-98zM233 1186l11 98h96l-10 -98h-97zM246 1331l8 101h98l-8 -101h-98zM342 739 l6 99h103l-9 -99h-100zM408 1479l6 102h102l-10 -102h-98zM489 739l9 99h100l-8 -99h-101zM555 1479l6 102h101l-9 -102h-98zM585 1923l9 100h98l-8 -100h-99zM641 739l6 99h98l-8 -99h-96zM702 1479l11 102h96l-6 -102h-101zM786 739l9 99h98l-8 -99h-99zM850 1479l10 102 h96l-6 -102h-100zM887 1923l6 100h98l-8 -100h-96zM934 739l10 99h96l-6 -99h-100zM999 1479l9 102h98l-8 -102h-99zM1030 145l8 101h103l-11 -101h-100zM1042 293l13 102h98l-10 -102h-101zM1057 442l8 99h100l-6 -99h-102zM1071 592l6 96h103l-11 -96h-98zM1096 887 l10 100h98l-8 -100h-100zM1110 1036l8 99h101l-11 -99h-98zM1122 1186l8 98h101l-8 -98h-101zM1135 1331l8 101h100l-8 -101h-100z" />
<glyph unicode="&#xe5;" d="M141 145l9 101h98l-8 -101h-99zM156 293l8 102h100l-12 -102h-96zM168 442l10 99h96l-8 -99h-98zM182 592l8 96h97l-6 -96h-99zM205 887l12 100h98l-10 -100h-100zM221 1036l8 99h99l-9 -99h-98zM233 1186l11 98h96l-10 -98h-97zM246 1331l8 101h98l-8 -101h-98zM342 739 l6 99h103l-9 -99h-100zM408 1479l6 102h102l-10 -102h-98zM489 739l9 99h100l-8 -99h-101zM555 1479l6 102h101l-9 -102h-98zM629 1915l8 98h99l-11 -98h-96zM641 739l6 99h98l-8 -99h-96zM702 1479l11 102h96l-6 -102h-101zM727 1772l9 96h98l-8 -96h-99zM772 2062l9 97h98 l-8 -97h-99zM786 739l9 99h98l-8 -99h-99zM850 1479l10 102h96l-6 -102h-100zM879 1915l12 98h98l-10 -98h-100zM934 739l10 99h96l-6 -99h-100zM999 1479l9 102h98l-8 -102h-99zM1030 145l8 101h103l-11 -101h-100zM1042 293l13 102h98l-10 -102h-101zM1057 442l8 99h100 l-6 -99h-102zM1071 592l6 96h103l-11 -96h-98zM1096 887l10 100h98l-8 -100h-100zM1110 1036l8 99h101l-11 -99h-98zM1122 1186l8 98h101l-8 -98h-101zM1135 1331l8 101h100l-8 -101h-100z" />
<glyph unicode="&#xe6;" d="M16 156l9 98h98l-8 -98h-99zM31 303l8 103h100l-12 -103h-96zM43 451l10 100h97l-9 -100h-98zM57 602l9 96h96l-6 -96h-99zM82 897l10 100h98l-10 -100h-98zM96 1044l8 101h99l-8 -101h-99zM109 1196l10 96h96l-10 -96h-96zM121 1341l8 99h98l-8 -99h-98zM217 750l8 96 h101l-9 -96h-100zM283 1489l6 102h102l-10 -102h-98zM365 750l8 96h100l-8 -96h-100zM430 1489l6 102h101l-7 -102h-100zM514 750l8 96h99l-9 -96h-98zM578 1489l10 102h96l-6 -102h-100zM610 156l6 98h103l-8 -98h-101zM623 303l10 103h100l-12 -103h-98zM635 451l10 100 h100l-8 -100h-102zM649 602l8 96h101l-8 -96h-101zM676 897l8 100h100l-10 -100h-98zM688 1044l10 101h99l-9 -101h-100zM700 1196l11 96h98l-6 -96h-103zM715 1341l6 99h102l-10 -99h-98zM748 6l6 98h100l-8 -98h-98zM811 748l8 98h99l-7 -98h-100zM874 1489l9 100h100 l-8 -100h-101zM895 6l6 98h100l-8 -98h-98zM956 748l11 98h98l-6 -98h-103zM1022 1489l8 100h100l-6 -100h-102zM1042 6l11 98h96l-6 -98h-101zM1108 748l8 98h98l-8 -98h-98zM1171 1489l11 100h96l-8 -100h-99z" />
<glyph unicode="&#xe7;" d="M211 147l8 99h98l-10 -99h-96zM225 295l8 100h97l-8 -100h-97zM238 444l8 99h98l-8 -99h-98zM250 594l8 98h98l-8 -98h-98zM274 887l13 100h96l-10 -100h-99zM289 1036l10 99h96l-6 -99h-100zM303 1186l6 98h101l-11 -98h-96zM315 1333l9 99h96l-8 -99h-97zM346 0l8 96 h99l-7 -96h-100zM473 1483l10 98h99l-7 -98h-102zM483 -299l9 100h98l-10 -100h-97zM496 0l6 96h100l-8 -96h-98zM615 -193l10 101h96l-6 -101h-100zM623 1483l8 98h100l-8 -98h-100zM643 0l8 96h99l-9 -96h-98zM772 1483l10 98h97l-11 -98h-96zM791 0l10 96h96l-6 -96h-100 zM920 1483l10 98h96l-8 -98h-98zM938 0l10 96h96l-8 -96h-98zM1069 1483l8 98h97l-9 -98h-96z" />
<glyph unicode="&#xe8;" d="M211 147l8 99h98l-10 -99h-96zM225 295l8 100h97l-8 -100h-97zM238 444l8 99h98l-8 -99h-98zM250 594l8 98h98l-8 -98h-98zM274 887l13 100h96l-10 -100h-99zM289 1036l10 99h96l-6 -99h-100zM303 1186l6 98h101l-11 -98h-96zM315 1333l9 99h96l-8 -99h-97zM346 0l8 96 h99l-7 -96h-100zM412 739l6 101h100l-8 -101h-98zM473 1483l10 98h99l-7 -98h-102zM496 0l6 96h100l-8 -96h-98zM557 739l10 101h99l-7 -101h-102zM623 1483l8 98h100l-8 -98h-100zM643 0l8 96h99l-9 -96h-98zM692 1915l6 98h100l-10 -98h-96zM707 739l10 101h96l-6 -101 h-100zM772 1483l10 98h97l-11 -98h-96zM791 0l10 96h96l-6 -96h-100zM798 1765l10 101h99l-8 -101h-101zM856 739l8 101h99l-11 -101h-96zM920 1483l10 98h96l-8 -98h-98zM938 0l10 96h96l-8 -96h-98zM1004 739l8 101h98l-10 -101h-96zM1069 1483l8 98h97l-9 -98h-96z" />
<glyph unicode="&#xe9;" d="M211 147l8 99h98l-10 -99h-96zM225 295l8 100h97l-8 -100h-97zM238 444l8 99h98l-8 -99h-98zM250 594l8 98h98l-8 -98h-98zM274 887l13 100h96l-10 -100h-99zM289 1036l10 99h96l-6 -99h-100zM303 1186l6 98h101l-11 -98h-96zM315 1333l9 99h96l-8 -99h-97zM346 0l8 96 h99l-7 -96h-100zM412 739l6 101h100l-8 -101h-98zM473 1483l10 98h99l-7 -98h-102zM496 0l6 96h100l-8 -96h-98zM557 739l10 101h99l-7 -101h-102zM623 1483l8 98h100l-8 -98h-100zM643 0l8 96h99l-9 -96h-98zM707 739l10 101h96l-6 -101h-100zM772 1483l10 98h97l-11 -98 h-96zM791 0l10 96h96l-6 -96h-100zM817 1765l6 101h99l-8 -101h-97zM856 739l8 101h99l-11 -101h-96zM920 1483l10 98h96l-8 -98h-98zM938 0l10 96h96l-8 -96h-98zM961 1915l6 98h100l-10 -98h-96zM1004 739l8 101h98l-10 -101h-96zM1069 1483l8 98h97l-9 -98h-96z" />
<glyph unicode="&#xea;" d="M211 147l8 99h98l-10 -99h-96zM225 295l8 100h97l-8 -100h-97zM238 444l8 99h98l-8 -99h-98zM250 594l8 98h98l-8 -98h-98zM274 887l13 100h96l-10 -100h-99zM289 1036l10 99h96l-6 -99h-100zM303 1186l6 98h101l-11 -98h-96zM315 1333l9 99h96l-8 -99h-97zM346 0l8 96 h99l-7 -96h-100zM412 739l6 101h100l-8 -101h-98zM473 1483l10 98h99l-7 -98h-102zM496 0l6 96h100l-8 -96h-98zM557 739l10 101h99l-7 -101h-102zM623 1483l8 98h100l-8 -98h-100zM643 0l8 96h99l-9 -96h-98zM659 1765l6 101h96l-6 -101h-96zM707 739l10 101h96l-6 -101 h-100zM772 1483l10 98h97l-11 -98h-96zM791 0l10 96h96l-6 -96h-100zM802 1915l7 98h100l-10 -98h-97zM856 739l8 101h99l-11 -101h-96zM909 1765l10 101h98l-8 -101h-100zM920 1483l10 98h96l-8 -98h-98zM938 0l10 96h96l-8 -96h-98zM1004 739l8 101h98l-10 -101h-96z M1069 1483l8 98h97l-9 -98h-96z" />
<glyph unicode="&#xeb;" d="M211 147l8 99h98l-10 -99h-96zM225 295l8 100h97l-8 -100h-97zM238 444l8 99h98l-8 -99h-98zM250 594l8 98h98l-8 -98h-98zM274 887l13 100h96l-10 -100h-99zM289 1036l10 99h96l-6 -99h-100zM303 1186l6 98h101l-11 -98h-96zM315 1333l9 99h96l-8 -99h-97zM346 0l8 96 h99l-7 -96h-100zM412 739l6 101h100l-8 -101h-98zM473 1483l10 98h99l-7 -98h-102zM496 0l6 96h100l-8 -96h-98zM557 739l10 101h99l-7 -101h-102zM623 1483l8 98h100l-8 -98h-100zM643 0l8 96h99l-9 -96h-98zM661 1923l9 100h98l-8 -100h-99zM707 739l10 101h96l-6 -101 h-100zM772 1483l10 98h97l-11 -98h-96zM791 0l10 96h96l-6 -96h-100zM856 739l8 101h99l-11 -101h-96zM920 1483l10 98h96l-8 -98h-98zM938 0l10 96h96l-8 -96h-98zM963 1923l6 100h98l-8 -100h-96zM1004 739l8 101h98l-10 -101h-96zM1069 1483l8 98h97l-9 -98h-96z" />
<glyph unicode="&#xec;" d="M281 0l8 96h100l-10 -96h-98zM410 1483l6 98h102l-10 -98h-98zM428 0l6 96h103l-11 -96h-98zM557 1483l6 98h101l-7 -98h-100zM578 0l8 96h96l-6 -96h-98zM590 147l8 99h98l-10 -99h-96zM602 295l10 100h99l-11 -100h-98zM616 444l9 99h98l-8 -99h-99zM623 1915l6 98h100 l-10 -98h-96zM629 594l10 98h96l-10 -98h-96zM643 739l6 101h99l-9 -101h-96zM653 887l11 100h100l-12 -100h-99zM668 1036l10 99h96l-8 -99h-98zM682 1186l6 98h98l-8 -98h-96zM694 1333l8 99h99l-10 -99h-97zM705 1483l10 98h96l-6 -98h-100zM723 0l10 96h96l-6 -96h-100z M729 1765l10 101h99l-8 -101h-101zM854 1483l8 98h96l-6 -98h-98zM872 0l9 96h98l-8 -96h-99zM1001 1483l9 98h98l-10 -98h-97z" />
<glyph unicode="&#xed;" d="M281 0l8 96h100l-10 -96h-98zM410 1483l6 98h102l-10 -98h-98zM428 0l6 96h103l-11 -96h-98zM557 1483l6 98h101l-7 -98h-100zM578 0l8 96h96l-6 -96h-98zM590 147l8 99h98l-10 -99h-96zM602 295l10 100h99l-11 -100h-98zM616 444l9 99h98l-8 -99h-99zM629 594l10 98h96 l-10 -98h-96zM643 739l6 101h99l-9 -101h-96zM653 887l11 100h100l-12 -100h-99zM668 1036l10 99h96l-8 -99h-98zM682 1186l6 98h98l-8 -98h-96zM694 1333l8 99h99l-10 -99h-97zM705 1483l10 98h96l-6 -98h-100zM723 0l10 96h96l-6 -96h-100zM737 1765l6 101h99l-8 -101h-97 zM854 1483l8 98h96l-6 -98h-98zM872 0l9 96h98l-8 -96h-99zM881 1915l6 98h100l-10 -98h-96zM1001 1483l9 98h98l-10 -98h-97z" />
<glyph unicode="&#xee;" d="M281 0l8 96h100l-10 -96h-98zM410 1483l6 98h102l-10 -98h-98zM428 0l6 96h103l-11 -96h-98zM557 1483l6 98h101l-7 -98h-100zM578 0l8 96h96l-6 -96h-98zM590 147l8 99h98l-10 -99h-96zM602 295l10 100h99l-11 -100h-98zM606 1765l6 101h96l-6 -101h-96zM616 444l9 99 h98l-8 -99h-99zM629 594l10 98h96l-10 -98h-96zM643 739l6 101h99l-9 -101h-96zM653 887l11 100h100l-12 -100h-99zM668 1036l10 99h96l-8 -99h-98zM682 1186l6 98h98l-8 -98h-96zM694 1333l8 99h99l-10 -99h-97zM705 1483l10 98h96l-6 -98h-100zM723 0l10 96h96l-6 -96 h-100zM749 1915l7 98h100l-10 -98h-97zM854 1483l8 98h96l-6 -98h-98zM856 1765l10 101h98l-8 -101h-100zM872 0l9 96h98l-8 -96h-99zM1001 1483l9 98h98l-10 -98h-97z" />
<glyph unicode="&#xef;" d="M281 0l8 96h100l-10 -96h-98zM410 1483l6 98h102l-10 -98h-98zM428 0l6 96h103l-11 -96h-98zM557 1483l6 98h101l-7 -98h-100zM578 0l8 96h96l-6 -96h-98zM581 1923l9 100h98l-8 -100h-99zM590 147l8 99h98l-10 -99h-96zM602 295l10 100h99l-11 -100h-98zM616 444l9 99 h98l-8 -99h-99zM629 594l10 98h96l-10 -98h-96zM643 739l6 101h99l-9 -101h-96zM653 887l11 100h100l-12 -100h-99zM668 1036l10 99h96l-8 -99h-98zM682 1186l6 98h98l-8 -98h-96zM694 1333l8 99h99l-10 -99h-97zM705 1483l10 98h96l-6 -98h-100zM723 0l10 96h96l-6 -96 h-100zM854 1483l8 98h96l-6 -98h-98zM872 0l9 96h98l-8 -96h-99zM883 1923l6 100h98l-8 -100h-96zM1001 1483l9 98h98l-10 -98h-97z" />
<glyph unicode="&#xf0;" d="M211 0l8 96h100l-10 -96h-98zM291 885l8 100h100l-8 -100h-100zM340 1483l8 98h101l-11 -98h-98zM358 0l9 96h100l-8 -96h-101zM438 885l8 100h103l-10 -100h-101zM487 1483l11 98h98l-8 -98h-101zM508 0l10 96h96l-8 -96h-98zM520 147l10 99h97l-6 -99h-101zM535 295 l8 100h100l-12 -100h-96zM549 444l8 99h96l-8 -99h-96zM559 594l10 98h97l-7 -98h-100zM586 887l10 100h98l-10 -100h-98zM602 1036l6 99h97l-7 -99h-96zM612 1186l11 98h96l-8 -98h-99zM625 1333l8 99h98l-8 -99h-98zM639 1483l6 98h100l-10 -98h-96zM657 0l7 96h100 l-10 -96h-97zM735 885l10 100h97l-6 -100h-101zM786 1483l7 98h98l-8 -98h-97zM805 0l6 96h100l-10 -96h-96zM932 1483l8 98h98l-8 -98h-98zM965 147l8 99h100l-10 -99h-98zM975 295l12 100h100l-10 -100h-102zM991 444l8 99h99l-6 -99h-101zM1004 594l8 98h100l-10 -98h-98 zM1028 887l10 100h103l-13 -100h-100zM1042 1036l11 99h98l-8 -99h-101zM1057 1186l6 98h100l-8 -98h-98zM1069 1333l8 99h101l-11 -99h-98z" />
<glyph unicode="&#xf1;" d="M141 147l9 99h98l-8 -99h-99zM156 295l8 100h100l-12 -100h-96zM168 444l10 99h96l-8 -99h-98zM182 592l8 100h97l-6 -100h-99zM205 887l12 100h98l-10 -100h-100zM221 1036l8 99h99l-9 -99h-98zM233 1186l11 98h96l-10 -98h-97zM246 1333l8 99h98l-8 -99h-98zM393 1333 l8 99h101l-6 -99h-103zM432 1186l6 98h99l-7 -98h-98zM469 1036l8 99h98l-8 -99h-98zM502 887l12 100h98l-10 -100h-100zM575 1765l7 101h96l-6 -101h-97zM719 1915l6 98h100l-10 -98h-96zM774 592l10 100h97l-9 -100h-98zM809 444l10 99h99l-7 -99h-102zM825 1765l10 101 h99l-8 -101h-101zM846 295l10 100h98l-8 -100h-100zM883 147l8 99h98l-8 -99h-98zM973 1915l6 98h100l-10 -98h-96zM1030 147l8 99h103l-11 -99h-100zM1042 295l13 100h98l-10 -100h-101zM1057 444l8 99h100l-6 -99h-102zM1071 592l6 100h103l-11 -100h-98zM1096 887l10 100 h98l-8 -100h-100zM1110 1036l8 99h101l-11 -99h-98zM1122 1186l8 98h101l-8 -98h-101zM1135 1333l8 99h100l-8 -99h-100z" />
<glyph unicode="&#xf2;" d="M141 147l9 99h98l-8 -99h-99zM156 295l8 100h100l-12 -100h-96zM168 444l10 99h96l-8 -99h-98zM182 594l8 98h97l-6 -98h-99zM205 887l12 100h98l-10 -100h-100zM221 1036l8 99h99l-9 -99h-98zM233 1186l11 98h96l-10 -98h-97zM246 1333l8 99h98l-8 -99h-98zM276 0l11 96 h100l-10 -96h-101zM408 1483l6 98h102l-10 -98h-98zM426 0l6 96h103l-11 -96h-98zM555 1483l6 98h101l-9 -98h-98zM575 0l7 96h100l-8 -96h-99zM623 1915l6 98h100l-10 -98h-96zM702 1483l11 98h96l-6 -98h-101zM723 0l8 96h96l-6 -96h-98zM729 1765l10 101h99l-8 -101h-101 zM850 1483l10 98h96l-6 -98h-100zM868 0l11 96h96l-6 -96h-101zM999 1483l9 98h98l-8 -98h-99zM1030 147l8 99h103l-11 -99h-100zM1042 295l13 100h98l-10 -100h-101zM1057 444l8 99h100l-6 -99h-102zM1071 594l6 98h103l-11 -98h-98zM1096 887l10 100h98l-8 -100h-100z M1110 1036l8 99h101l-11 -99h-98zM1122 1186l8 98h101l-8 -98h-101zM1135 1333l8 99h100l-8 -99h-100z" />
<glyph unicode="&#xf3;" d="M141 147l9 99h98l-8 -99h-99zM156 295l8 100h100l-12 -100h-96zM168 444l10 99h96l-8 -99h-98zM182 594l8 98h97l-6 -98h-99zM205 887l12 100h98l-10 -100h-100zM221 1036l8 99h99l-9 -99h-98zM233 1186l11 98h96l-10 -98h-97zM246 1333l8 99h98l-8 -99h-98zM276 0l11 96 h100l-10 -96h-101zM408 1483l6 98h102l-10 -98h-98zM426 0l6 96h103l-11 -96h-98zM555 1483l6 98h101l-9 -98h-98zM575 0l7 96h100l-8 -96h-99zM702 1483l11 98h96l-6 -98h-101zM723 0l8 96h96l-6 -96h-98zM735 1765l6 101h99l-8 -101h-97zM850 1483l10 98h96l-6 -98h-100z M868 0l11 96h96l-6 -96h-101zM879 1915l6 98h100l-10 -98h-96zM999 1483l9 98h98l-8 -98h-99zM1030 147l8 99h103l-11 -99h-100zM1042 295l13 100h98l-10 -100h-101zM1057 444l8 99h100l-6 -99h-102zM1071 594l6 98h103l-11 -98h-98zM1096 887l10 100h98l-8 -100h-100z M1110 1036l8 99h101l-11 -99h-98zM1122 1186l8 98h101l-8 -98h-101zM1135 1333l8 99h100l-8 -99h-100z" />
<glyph unicode="&#xf4;" d="M141 147l9 99h98l-8 -99h-99zM156 295l8 100h100l-12 -100h-96zM168 444l10 99h96l-8 -99h-98zM182 594l8 98h97l-6 -98h-99zM205 887l12 100h98l-10 -100h-100zM221 1036l8 99h99l-9 -99h-98zM233 1186l11 98h96l-10 -98h-97zM246 1333l8 99h98l-8 -99h-98zM276 0l11 96 h100l-10 -96h-101zM408 1483l6 98h102l-10 -98h-98zM426 0l6 96h103l-11 -96h-98zM555 1483l6 98h101l-9 -98h-98zM575 0l7 96h100l-8 -96h-99zM596 1765l6 101h96l-6 -101h-96zM702 1483l11 98h96l-6 -98h-101zM723 0l8 96h96l-6 -96h-98zM739 1915l7 98h100l-10 -98h-97z M846 1765l10 101h98l-8 -101h-100zM850 1483l10 98h96l-6 -98h-100zM868 0l11 96h96l-6 -96h-101zM999 1483l9 98h98l-8 -98h-99zM1030 147l8 99h103l-11 -99h-100zM1042 295l13 100h98l-10 -100h-101zM1057 444l8 99h100l-6 -99h-102zM1071 594l6 98h103l-11 -98h-98z M1096 887l10 100h98l-8 -100h-100zM1110 1036l8 99h101l-11 -99h-98zM1122 1186l8 98h101l-8 -98h-101zM1135 1333l8 99h100l-8 -99h-100z" />
<glyph unicode="&#xf5;" d="M141 147l9 99h98l-8 -99h-99zM156 295l8 100h100l-12 -100h-96zM168 444l10 99h96l-8 -99h-98zM182 594l8 98h97l-6 -98h-99zM205 887l12 100h98l-10 -100h-100zM221 1036l8 99h99l-9 -99h-98zM233 1186l11 98h96l-10 -98h-97zM246 1333l8 99h98l-8 -99h-98zM276 0l11 96 h100l-10 -96h-101zM408 1483l6 98h102l-10 -98h-98zM426 0l6 96h103l-11 -96h-98zM555 1483l6 98h101l-9 -98h-98zM575 0l7 96h100l-8 -96h-99zM581 1765l7 101h96l-6 -101h-97zM702 1483l11 98h96l-6 -98h-101zM723 0l8 96h96l-6 -96h-98zM725 1915l6 98h100l-10 -98h-96z M831 1765l10 101h99l-8 -101h-101zM850 1483l10 98h96l-6 -98h-100zM868 0l11 96h96l-6 -96h-101zM979 1915l6 98h100l-10 -98h-96zM999 1483l9 98h98l-8 -98h-99zM1030 147l8 99h103l-11 -99h-100zM1042 295l13 100h98l-10 -100h-101zM1057 444l8 99h100l-6 -99h-102z M1071 594l6 98h103l-11 -98h-98zM1096 887l10 100h98l-8 -100h-100zM1110 1036l8 99h101l-11 -99h-98zM1122 1186l8 98h101l-8 -98h-101zM1135 1333l8 99h100l-8 -99h-100z" />
<glyph unicode="&#xf6;" d="M141 147l9 99h98l-8 -99h-99zM156 295l8 100h100l-12 -100h-96zM168 444l10 99h96l-8 -99h-98zM182 594l8 98h97l-6 -98h-99zM205 887l12 100h98l-10 -100h-100zM221 1036l8 99h99l-9 -99h-98zM233 1186l11 98h96l-10 -98h-97zM246 1333l8 99h98l-8 -99h-98zM276 0l11 96 h100l-10 -96h-101zM408 1483l6 98h102l-10 -98h-98zM426 0l6 96h103l-11 -96h-98zM555 1483l6 98h101l-9 -98h-98zM575 0l7 96h100l-8 -96h-99zM595 1923l9 100h98l-8 -100h-99zM702 1483l11 98h96l-6 -98h-101zM723 0l8 96h96l-6 -96h-98zM850 1483l10 98h96l-6 -98h-100z M868 0l11 96h96l-6 -96h-101zM897 1923l6 100h98l-8 -100h-96zM999 1483l9 98h98l-8 -98h-99zM1030 147l8 99h103l-11 -99h-100zM1042 295l13 100h98l-10 -100h-101zM1057 444l8 99h100l-6 -99h-102zM1071 594l6 98h103l-11 -98h-98zM1096 887l10 100h98l-8 -100h-100z M1110 1036l8 99h101l-11 -99h-98zM1122 1186l8 98h101l-8 -98h-101zM1135 1333l8 99h100l-8 -99h-100z" />
<glyph unicode="&#xf8;" d="M141 147l9 99h98l-8 -99h-99zM156 295l8 100h100l-12 -100h-96zM168 444l10 99h96l-8 -99h-98zM182 594l8 98h97l-6 -98h-99zM205 887l12 100h98l-10 -100h-100zM221 1036l8 99h99l-9 -99h-98zM233 1186l11 98h96l-10 -98h-97zM246 1333l8 99h98l-8 -99h-98zM276 0l11 96 h100l-10 -96h-101zM291 147l10 99h98l-6 -99h-102zM354 295l11 100h98l-10 -100h-99zM408 1483l6 98h102l-10 -98h-98zM418 444l10 99h96l-6 -99h-100zM426 0l6 96h103l-11 -96h-98zM479 592l8 100h101l-8 -100h-101zM555 1483l6 98h101l-9 -98h-98zM575 0l7 96h100l-8 -96 h-99zM702 1483l11 98h96l-6 -98h-101zM723 0l8 96h96l-6 -96h-98zM803 887l8 100h100l-12 -100h-96zM850 1483l10 98h96l-6 -98h-100zM864 1036l8 99h101l-8 -99h-101zM868 0l11 96h96l-6 -96h-101zM928 1186l6 98h102l-10 -98h-98zM989 1333l8 99h99l-9 -99h-98zM999 1483 l9 98h98l-8 -98h-99zM1030 147l8 99h103l-11 -99h-100zM1042 295l13 100h98l-10 -100h-101zM1057 444l8 99h100l-6 -99h-102zM1071 594l6 98h103l-11 -98h-98zM1096 887l10 100h98l-8 -100h-100zM1110 1036l8 99h101l-11 -99h-98zM1122 1186l8 98h101l-8 -98h-101z M1135 1333l8 99h100l-8 -99h-100z" />
<glyph unicode="&#xf9;" d="M141 147l9 101h98l-8 -101h-99zM156 295l8 100h100l-12 -100h-96zM168 444l10 99h96l-8 -99h-98zM182 594l8 98h97l-6 -98h-99zM205 891l12 98h98l-10 -98h-100zM221 1038l8 99h99l-9 -99h-98zM233 1186l11 100h96l-10 -100h-97zM246 1333l8 101h98l-8 -101h-98zM276 0 l11 100h100l-10 -100h-101zM426 0l6 100h103l-11 -100h-98zM575 0l7 100h100l-8 -100h-99zM643 1915l6 98h100l-10 -98h-96zM723 0l8 100h96l-6 -100h-98zM749 1765l10 101h99l-8 -101h-101zM868 0l11 100h96l-6 -100h-101zM1030 147l8 101h103l-11 -101h-100zM1042 295 l13 100h98l-10 -100h-101zM1057 444l8 99h100l-6 -99h-102zM1071 594l6 98h103l-11 -98h-98zM1096 891l10 98h98l-8 -98h-100zM1110 1038l8 99h101l-11 -99h-98zM1122 1186l8 100h101l-8 -100h-101zM1135 1333l8 101h100l-8 -101h-100z" />
<glyph unicode="&#xfa;" d="M141 147l9 101h98l-8 -101h-99zM156 295l8 100h100l-12 -100h-96zM168 444l10 99h96l-8 -99h-98zM182 594l8 98h97l-6 -98h-99zM205 891l12 98h98l-10 -98h-100zM221 1038l8 99h99l-9 -99h-98zM233 1186l11 100h96l-10 -100h-97zM246 1333l8 101h98l-8 -101h-98zM276 0 l11 100h100l-10 -100h-101zM426 0l6 100h103l-11 -100h-98zM575 0l7 100h100l-8 -100h-99zM723 0l8 100h96l-6 -100h-98zM735 1765l6 101h99l-8 -101h-97zM868 0l11 100h96l-6 -100h-101zM879 1915l6 98h100l-10 -98h-96zM1030 147l8 101h103l-11 -101h-100zM1042 295 l13 100h98l-10 -100h-101zM1057 444l8 99h100l-6 -99h-102zM1071 594l6 98h103l-11 -98h-98zM1096 891l10 98h98l-8 -98h-100zM1110 1038l8 99h101l-11 -99h-98zM1122 1186l8 100h101l-8 -100h-101zM1135 1333l8 101h100l-8 -101h-100z" />
<glyph unicode="&#xfb;" d="M141 147l9 101h98l-8 -101h-99zM156 295l8 100h100l-12 -100h-96zM168 444l10 99h96l-8 -99h-98zM182 594l8 98h97l-6 -98h-99zM205 891l12 98h98l-10 -98h-100zM221 1038l8 99h99l-9 -99h-98zM233 1186l11 100h96l-10 -100h-97zM246 1333l8 101h98l-8 -101h-98zM276 0 l11 100h100l-10 -100h-101zM426 0l6 100h103l-11 -100h-98zM575 0l7 100h100l-8 -100h-99zM590 1765l6 101h96l-6 -101h-96zM723 0l8 100h96l-6 -100h-98zM733 1915l7 98h100l-10 -98h-97zM840 1765l10 101h98l-8 -101h-100zM868 0l11 100h96l-6 -100h-101zM1030 147l8 101 h103l-11 -101h-100zM1042 295l13 100h98l-10 -100h-101zM1057 444l8 99h100l-6 -99h-102zM1071 594l6 98h103l-11 -98h-98zM1096 891l10 98h98l-8 -98h-100zM1110 1038l8 99h101l-11 -99h-98zM1122 1186l8 100h101l-8 -100h-101zM1135 1333l8 101h100l-8 -101h-100z" />
<glyph unicode="&#xfc;" d="M141 147l9 101h98l-8 -101h-99zM156 295l8 100h100l-12 -100h-96zM168 444l10 99h96l-8 -99h-98zM182 594l8 98h97l-6 -98h-99zM205 891l12 98h98l-10 -98h-100zM221 1038l8 99h99l-9 -99h-98zM233 1186l11 100h96l-10 -100h-97zM246 1333l8 101h98l-8 -101h-98zM276 0 l11 100h100l-10 -100h-101zM426 0l6 100h103l-11 -100h-98zM575 0l7 100h100l-8 -100h-99zM595 1923l9 100h98l-8 -100h-99zM723 0l8 100h96l-6 -100h-98zM868 0l11 100h96l-6 -100h-101zM897 1923l6 100h98l-8 -100h-96zM1030 147l8 101h103l-11 -101h-100zM1042 295 l13 100h98l-10 -100h-101zM1057 444l8 99h100l-6 -99h-102zM1071 594l6 98h103l-11 -98h-98zM1096 891l10 98h98l-8 -98h-100zM1110 1038l8 99h101l-11 -99h-98zM1122 1186l8 100h101l-8 -100h-101zM1135 1333l8 101h100l-8 -101h-100z" />
<glyph unicode="&#xfd;" d="M176 887l8 100h101l-13 -100h-96zM190 1036l9 99h96l-6 -99h-99zM203 1184l8 100h98l-8 -100h-98zM215 1331l10 101h97l-11 -101h-96zM248 -2l6 98h100l-8 -98h-98zM309 739l10 99h99l-6 -99h-103zM393 -2l8 98h101l-6 -98h-103zM459 739l8 99h100l-8 -99h-100zM543 -2 l10 98h96l-6 -98h-100zM608 739l8 99h99l-10 -99h-97zM692 -2l8 98h97l-9 -98h-96zM719 1765l6 101h99l-8 -101h-97zM756 739l10 99h96l-8 -99h-98zM840 -2l8 98h98l-10 -98h-96zM863 1915l6 98h100l-10 -98h-96zM903 739l8 99h99l-9 -99h-98zM999 145l9 101h100l-10 -101 h-99zM1012 293l10 100h100l-10 -100h-100zM1026 442l10 99h99l-9 -99h-100zM1038 592l9 96h100l-6 -96h-103zM1063 887l12 100h99l-11 -100h-100zM1077 1036l10 99h99l-6 -99h-103zM1092 1184l6 100h102l-10 -100h-98zM1102 1331l10 101h100l-10 -101h-100z" />
<glyph unicode="&#xfe;" d="M141 145l9 101h98l-8 -101h-99zM156 293l8 102h100l-12 -102h-96zM168 442l10 99h96l-8 -99h-98zM182 592l8 96h97l-6 -96h-99zM205 887l12 100h98l-10 -100h-100zM221 1036l8 99h99l-9 -99h-98zM233 1186l11 98h96l-10 -98h-97zM246 1331l8 101h98l-8 -101h-98zM326 444 l8 97h100l-8 -97h-100zM391 1186l6 98h103l-11 -98h-98zM473 444l8 97h101l-9 -97h-100zM539 1186l6 98h100l-6 -98h-100zM625 444l6 97h98l-8 -97h-96zM686 1186l10 98h97l-7 -98h-100zM770 444l8 97h99l-9 -97h-98zM836 1186l8 98h96l-6 -98h-98zM918 444l10 97h96l-6 -97 h-100zM983 1186l8 98h99l-9 -98h-98zM1079 592l11 100h98l-8 -100h-101zM1094 739l8 101h100l-8 -101h-100zM1106 891l8 96h100l-8 -96h-100zM1118 1036l8 99h101l-8 -99h-101z" />
<glyph unicode="&#xff;" d="M176 887l8 100h101l-13 -100h-96zM190 1036l9 99h96l-6 -99h-99zM203 1184l8 100h98l-8 -100h-98zM215 1331l10 101h97l-11 -101h-96zM248 -2l6 98h100l-8 -98h-98zM309 739l10 99h99l-6 -99h-103zM393 -2l8 98h101l-6 -98h-103zM459 739l8 99h100l-8 -99h-100zM543 -2 l10 98h96l-6 -98h-100zM583 1923l9 100h98l-8 -100h-99zM608 739l8 99h99l-10 -99h-97zM692 -2l8 98h97l-9 -98h-96zM756 739l10 99h96l-8 -99h-98zM840 -2l8 98h98l-10 -98h-96zM885 1923l6 100h98l-8 -100h-96zM903 739l8 99h99l-9 -99h-98zM999 145l9 101h100l-10 -101 h-99zM1012 293l10 100h100l-10 -100h-100zM1026 442l10 99h99l-9 -99h-100zM1038 592l9 96h100l-6 -96h-103zM1063 887l12 100h99l-11 -100h-100zM1077 1036l10 99h99l-6 -99h-103zM1092 1184l6 100h102l-10 -100h-98zM1102 1331l10 101h100l-10 -101h-100z" />
<glyph unicode="&#x152;" d="M57 147l11 99h96l-6 -99h-101zM72 295l10 100h98l-12 -100h-96zM86 444l8 99h99l-11 -99h-96zM100 594l6 98h97l-6 -98h-97zM123 887l10 100h98l-10 -100h-98zM139 1036l6 99h101l-10 -99h-97zM150 1186l10 98h96l-8 -98h-98zM162 1333l10 99h96l-6 -99h-100zM195 0l8 96 h100l-10 -96h-98zM324 1483l6 98h102l-8 -98h-100zM342 0l6 96h103l-9 -96h-100zM471 1483l8 98h99l-7 -98h-100zM489 0l11 96h96l-6 -96h-101zM621 1483l8 98h96l-6 -98h-98zM651 147l8 99h101l-8 -99h-101zM664 295l12 100h98l-10 -100h-100zM678 444l8 99h100l-8 -99 h-100zM692 594l6 98h103l-10 -98h-99zM717 887l8 100h100l-10 -100h-98zM731 1036l8 99h101l-11 -99h-98zM741 1186l11 98h98l-6 -98h-103zM756 1333l8 99h100l-8 -99h-100zM797 0l8 96h98l-6 -96h-100zM862 739l6 101h101l-6 -101h-101zM926 1483l8 98h100l-8 -98h-100z M946 0l6 96h101l-9 -96h-98zM1008 739l10 101h98l-6 -101h-102zM1073 1483l8 98h101l-8 -98h-101zM1094 0l8 96h98l-6 -96h-100zM1159 739l8 101h99l-9 -101h-98zM1223 1483l10 98h96l-8 -98h-98z" />
<glyph unicode="&#x153;" d="M57 147l11 99h96l-6 -99h-101zM72 295l10 100h98l-12 -100h-96zM86 444l8 99h99l-11 -99h-96zM100 594l6 98h97l-6 -98h-97zM123 887l10 100h98l-10 -100h-98zM139 1036l6 99h101l-10 -99h-97zM150 1186l10 98h96l-8 -98h-98zM162 1333l10 99h96l-6 -99h-100zM195 0l8 96 h100l-10 -96h-98zM324 1483l6 98h102l-8 -98h-100zM342 0l6 96h103l-9 -96h-100zM471 1483l8 98h99l-7 -98h-100zM489 0l11 96h96l-6 -96h-101zM621 1483l8 98h96l-6 -98h-98zM651 147l8 99h101l-8 -99h-101zM664 295l12 100h98l-10 -100h-100zM678 444l8 99h100l-8 -99 h-100zM692 594l6 98h103l-10 -98h-99zM717 887l8 100h100l-10 -100h-98zM731 1036l8 99h101l-11 -99h-98zM741 1186l11 98h98l-6 -98h-103zM756 1333l8 99h100l-8 -99h-100zM797 0l8 96h98l-6 -96h-100zM862 739l6 101h101l-6 -101h-101zM926 1483l8 98h100l-8 -98h-100z M946 0l6 96h101l-9 -96h-98zM1008 739l10 101h98l-6 -101h-102zM1073 1483l8 98h101l-8 -98h-101zM1094 0l8 96h98l-6 -96h-100zM1159 739l8 101h99l-9 -101h-98zM1223 1483l10 98h96l-8 -98h-98z" />
<glyph unicode="&#x178;" d="M176 887l8 100h101l-13 -100h-96zM190 1036l9 99h96l-6 -99h-99zM203 1184l8 100h98l-8 -100h-98zM215 1331l10 101h97l-11 -101h-96zM248 -2l6 98h100l-8 -98h-98zM309 739l10 99h99l-6 -99h-103zM393 -2l8 98h101l-6 -98h-103zM459 739l8 99h100l-8 -99h-100zM543 -2 l10 98h96l-6 -98h-100zM583 1923l9 100h98l-8 -100h-99zM608 739l8 99h99l-10 -99h-97zM692 -2l8 98h97l-9 -98h-96zM756 739l10 99h96l-8 -99h-98zM840 -2l8 98h98l-10 -98h-96zM885 1923l6 100h98l-8 -100h-96zM903 739l8 99h99l-9 -99h-98zM999 145l9 101h100l-10 -101 h-99zM1012 293l10 100h100l-10 -100h-100zM1026 442l10 99h99l-9 -99h-100zM1038 592l9 96h100l-6 -96h-103zM1063 887l12 100h99l-11 -100h-100zM1077 1036l10 99h99l-6 -99h-103zM1092 1184l6 100h102l-10 -100h-98zM1102 1331l10 101h100l-10 -101h-100z" />
<glyph unicode="&#x2c6;" d="M514 1765l6 101h96l-6 -101h-96zM657 1915l7 98h100l-10 -98h-97zM764 1765l10 101h98l-8 -101h-100z" />
<glyph unicode="&#x2dc;" d="M442 1765l7 101h96l-6 -101h-97zM586 1915l6 98h100l-10 -98h-96zM692 1765l10 101h99l-8 -101h-101zM840 1915l6 98h100l-10 -98h-96z" />
<glyph unicode="&#x2000;" horiz-adv-x="1079" />
<glyph unicode="&#x2001;" horiz-adv-x="2159" />
<glyph unicode="&#x2002;" horiz-adv-x="1079" />
<glyph unicode="&#x2003;" horiz-adv-x="2159" />
<glyph unicode="&#x2004;" horiz-adv-x="719" />
<glyph unicode="&#x2005;" horiz-adv-x="539" />
<glyph unicode="&#x2006;" horiz-adv-x="359" />
<glyph unicode="&#x2007;" horiz-adv-x="359" />
<glyph unicode="&#x2008;" horiz-adv-x="269" />
<glyph unicode="&#x2009;" horiz-adv-x="431" />
<glyph unicode="&#x200a;" horiz-adv-x="119" />
<glyph unicode="&#x2010;" d="M344 739l8 101h101l-9 -101h-100zM492 739l8 101h102l-10 -101h-100zM643 739l6 101h99l-9 -101h-96zM788 739l9 101h98l-8 -101h-99zM936 739l10 101h96l-6 -101h-100z" />
<glyph unicode="&#x2011;" d="M344 739l8 101h101l-9 -101h-100zM492 739l8 101h102l-10 -101h-100zM643 739l6 101h99l-9 -101h-96zM788 739l9 101h98l-8 -101h-99zM936 739l10 101h96l-6 -101h-100z" />
<glyph unicode="&#x2012;" d="M344 739l8 101h101l-9 -101h-100zM492 739l8 101h102l-10 -101h-100zM643 739l6 101h99l-9 -101h-96zM788 739l9 101h98l-8 -101h-99zM936 739l10 101h96l-6 -101h-100z" />
<glyph unicode="&#x2013;" d="M344 739l8 101h101l-9 -101h-100zM492 739l8 101h102l-10 -101h-100zM643 739l6 101h99l-9 -101h-96zM788 739l9 101h98l-8 -101h-99zM936 739l10 101h96l-6 -101h-100z" />
<glyph unicode="&#x2014;" d="M344 739l8 101h101l-9 -101h-100zM492 739l8 101h102l-10 -101h-100zM643 739l6 101h99l-9 -101h-96zM788 739l9 101h98l-8 -101h-99zM936 739l10 101h96l-6 -101h-100z" />
<glyph unicode="&#x2018;" d="M504 1178l10 96h96l-8 -96h-98zM518 1325l6 96h99l-9 -96h-96zM623 879l8 100h98l-10 -100h-96zM635 1026l8 100h98l-8 -100h-98z" />
<glyph unicode="&#x2019;" d="M623 879l8 100h98l-10 -100h-96zM635 1026l8 100h98l-8 -100h-98zM801 1178l8 96h98l-10 -96h-96zM813 1325l8 96h97l-7 -96h-98z" />
<glyph unicode="&#x201a;" d="M465 -215l8 100h98l-10 -100h-96zM479 -68l6 101h101l-11 -101h-96zM643 84l8 96h99l-11 -96h-96zM657 231l7 97h96l-6 -97h-97z" />
<glyph unicode="&#x201c;" d="M276 1178l11 96h96l-8 -96h-99zM289 1325l10 96h96l-6 -96h-100zM389 879l10 100h99l-11 -100h-98zM406 1026l6 100h98l-8 -100h-96zM930 1178l8 96h98l-10 -96h-96zM940 1325l10 96h97l-7 -96h-100zM1044 879l13 100h96l-8 -100h-101zM1061 1026l8 100h98l-8 -100h-98z " />
<glyph unicode="&#x201d;" d="M250 879l12 100h96l-10 -100h-98zM266 1026l6 100h101l-11 -100h-96zM420 1178l10 96h96l-8 -96h-98zM432 1325l10 96h97l-7 -96h-100zM901 879l12 100h97l-9 -100h-100zM918 1026l8 100h98l-8 -100h-98zM1073 1178l8 96h99l-11 -96h-96zM1083 1325l11 96h96l-6 -96h-101 z" />
<glyph unicode="&#x201e;" d="M160 -215l12 100h96l-10 -100h-98zM176 -68l6 101h101l-11 -101h-96zM330 84l10 96h96l-8 -96h-98zM342 231l10 97h97l-7 -97h-100zM811 -215l12 100h97l-9 -100h-100zM827 -68l9 101h98l-8 -101h-99zM983 84l8 96h99l-11 -96h-96zM993 231l11 97h96l-6 -97h-101z" />
<glyph unicode="&#x2026;" horiz-adv-x="1347" d="M160 -84l6 100h98l-8 -100h-96zM623 -84l6 100h96l-6 -100h-96zM1083 -84l9 100h96l-6 -100h-99z" />
<glyph unicode="&#x202f;" horiz-adv-x="431" />
<glyph unicode="&#x2039;" d="M535 592l6 100h100l-10 -100h-96zM557 887l12 100h97l-9 -100h-100zM569 444l9 99h100l-10 -99h-99zM604 295l10 100h101l-13 -100h-98zM621 1036l8 99h100l-8 -99h-100zM641 147l8 99h99l-9 -99h-98zM682 1186l10 98h99l-7 -98h-102zM745 1333l9 99h96l-6 -99h-99z" />
<glyph unicode="&#x203a;" d="M532 147l7 99h102l-10 -99h-99zM594 295l10 100h98l-10 -100h-98zM635 1333l8 99h102l-10 -99h-100zM659 444l7 99h100l-10 -99h-97zM674 1186l8 98h96l-8 -98h-96zM711 1036l8 99h96l-8 -99h-96zM719 592l6 100h102l-8 -100h-100zM745 887l9 100h100l-10 -100h-99z" />
<glyph unicode="&#x205f;" horiz-adv-x="539" />
<glyph unicode="&#x20ac;" d="M76 293l10 98h98l-6 -98h-102zM141 1036l9 97h100l-10 -97h-99zM211 147l8 99h98l-10 -99h-96zM225 295l8 100h97l-8 -100h-97zM238 444l8 99h98l-8 -99h-98zM250 594l8 98h98l-8 -98h-98zM274 887l13 100h96l-10 -100h-99zM289 1036l10 97h98l-8 -97h-100zM303 1186 l6 98h101l-11 -98h-96zM315 1333l9 99h96l-8 -99h-97zM346 0l8 96h99l-7 -96h-100zM375 293l8 98h98l-10 -98h-96zM438 1036l11 97h96l-8 -97h-99zM473 1483l10 98h99l-7 -98h-102zM496 0l6 96h100l-8 -96h-98zM522 293l10 98h97l-8 -98h-99zM588 1036l6 97h100l-10 -97h-96 zM623 1483l8 98h100l-8 -98h-100zM643 0l8 96h99l-9 -96h-98zM735 1036l6 97h101l-11 -97h-96zM772 1483l10 98h97l-11 -98h-96zM791 0l10 96h96l-6 -96h-100zM920 1483l10 98h96l-8 -98h-98zM938 0l10 96h96l-8 -96h-98zM1069 1483l8 98h97l-9 -98h-96z" />
<glyph unicode="&#x2122;" horiz-adv-x="1984" d="M76 1479l8 102h100l-8 -102h-100zM225 1479l6 102h103l-10 -102h-99zM322 887l12 100h96l-12 -100h-96zM336 1036l8 99h98l-8 -99h-98zM348 1186l8 98h99l-9 -98h-98zM360 1331l11 101h96l-8 -101h-99zM375 1479l6 102h98l-8 -102h-96zM520 1479l10 102h97l-6 -102h-101z M668 1479l10 102h96l-6 -102h-100zM840 887l10 100h98l-10 -100h-98zM856 1036l6 99h101l-11 -99h-96zM866 1186l11 98h96l-8 -98h-99zM879 1333l8 99h98l-6 -99h-100zM1026 1333l10 99h99l-7 -99h-102zM1065 1186l8 98h96l-6 -98h-98zM1102 1036l8 99h98l-8 -99h-98z M1135 887l12 100h98l-10 -100h-100zM1434 887l8 100h100l-12 -100h-96zM1495 1036l8 99h101l-9 -99h-100zM1559 1186l6 98h102l-10 -98h-98zM1620 1333l8 99h98l-8 -99h-98zM1729 887l10 100h98l-8 -100h-100zM1743 1036l10 99h98l-8 -99h-100zM1755 1186l8 98h101l-9 -98 h-100zM1769 1333l7 99h102l-10 -99h-99z" />
<glyph unicode="&#x25fc;" horiz-adv-x="1433" d="M0 0v1434h1434v-1434h-1434z" />
</font>
</defs>
</svg>
