<?xml version="1.0" standalone="no"?>
<!DOCTYPE svg PUBLIC "-//W3C//DTD SVG 1.1//EN" "http://www.w3.org/Graphics/SVG/1.1/DTD/svg11.dtd" >
<svg xmlns="http://www.w3.org/2000/svg">
<metadata></metadata>
<defs>
<font id="v_dubregular" horiz-adv-x="2117" >
<font-face units-per-em="2048" ascent="1577" descent="-471" />
<missing-glyph horiz-adv-x="964" />
<glyph unicode="&#x28;C&#x29;" horiz-adv-x="1986" d="M121 535v438q0 113 8 198.5t38 147t84 102.5t147.5 64.5t229.5 34t328 10.5h76q190 0 327.5 -10.5t229.5 -34t147.5 -64.5t84 -102.5t37 -147.5t8.5 -198v-438q0 -113 -8.5 -199t-37 -147.5t-84 -102.5t-147.5 -64.5t-229 -34t-328 -10.5h-76q-193 0 -328.5 10.5t-229 34 t-147.5 64.5t-84 102.5t-38 147.5t-8 199zM246 528q0 -92 5 -160.5t25.5 -116.5t63.5 -80t121 -49.5t194.5 -24.5t286.5 -7h102q168 0 286 7t196 24.5t122 49.5t65.5 80t26.5 116.5t5 160.5v451q0 92 -5 160.5t-26.5 117t-65.5 80t-122 49t-196 24.5t-286 7h-102 q-168 0 -285.5 -7t-195.5 -24.5t-121 -49t-63.5 -80t-25.5 -117t-5 -160.5v-451zM500 643v238q0 92 12 150.5t58 92t136.5 46t245.5 12.5h78q156 0 246 -12.5t135 -46t57.5 -92t12.5 -150.5v-15h-101v15q0 66 -7 104.5t-41 60t-104.5 27.5t-197.5 6h-78q-127 0 -197.5 -6 t-104.5 -27.5t-41 -60.5t-7 -104v-238q0 -66 7 -105.5t41 -60t104.5 -27t197.5 -6.5h78q127 0 197.5 6.5t104.5 25t41 52t7 88.5v11h101v-11q0 -80 -12.5 -133t-57.5 -83.5t-135 -44t-246 -13.5h-78q-156 0 -246 12.5t-136 46t-58 92t-12 150.5z" />
<glyph unicode="&#x28;R&#x29;" horiz-adv-x="1986" d="M121 535v438q0 113 8 198.5t38 147t84 102.5t147.5 64.5t229.5 34t328 10.5h76q190 0 327.5 -10.5t229.5 -34t147.5 -64.5t84 -102.5t37 -147.5t8.5 -198v-438q0 -113 -8.5 -199t-37 -147.5t-84 -102.5t-147.5 -64.5t-229 -34t-328 -10.5h-76q-193 0 -328.5 10.5t-229 34 t-147.5 64.5t-84 102.5t-38 147.5t-8 199zM246 528q0 -92 5 -160.5t25.5 -116.5t63.5 -80t121 -49.5t194.5 -24.5t286.5 -7h102q168 0 286 7t196 24.5t122 49.5t65.5 80t26.5 116.5t5 160.5v451q0 92 -5 160.5t-26.5 117t-65.5 80t-122 49t-196 24.5t-286 7h-102 q-168 0 -285.5 -7t-195.5 -24.5t-121 -49t-63.5 -80t-25.5 -117t-5 -160.5v-451zM518 352v766q0 51 51 51h537q127 0 205 -12t120 -44t55 -87t13 -141q0 -51 -7 -86t-18.5 -58.5t-25.5 -37t-31 -23.5q29 -20 49.5 -52t20.5 -98v-178h-101v166q0 37 -2 58.5t-11 34 t-26.5 18.5t-48.5 12q-33 6 -32 43q0 33 28 41q37 10 58.5 19.5t32 24.5t13.5 41t3 71q0 66 -10.5 103.5t-40 56t-86 23.5t-148.5 5h-495v-717h-103z" />
<glyph horiz-adv-x="0" />
<glyph unicode="&#xd;" horiz-adv-x="964" />
<glyph horiz-adv-x="964" />
<glyph unicode=" "  horiz-adv-x="964" />
<glyph unicode="&#x09;" horiz-adv-x="964" />
<glyph unicode="&#xa0;" horiz-adv-x="964" />
<glyph unicode="!" horiz-adv-x="491" d="M152 0v240h188v-240h-188zM152 403v1106h188v-1106h-188z" />
<glyph unicode="&#x22;" horiz-adv-x="843" d="M152 1053v456h188v-456h-188zM498 1053v456h188v-456h-188z" />
<glyph unicode="#" horiz-adv-x="1679" d="M113 514v186h235l31 209l186 -26l-43 -291q-12 -78 -92 -78h-317zM221 1018v186h236l51 348l184 -26l-59 -430q-10 -78 -94 -78h-318zM252 -16l59 428l185 -29l-60 -426zM723 1018v186h307l49 348l185 -26l-62 -430q-12 -78 -90 -78h-389zM834 -16l59 428l186 -29 l-61 -426zM1190 514v186h268v-186h-268zM1298 1018v186h269v-186h-269z" />
<glyph unicode="$" horiz-adv-x="1966" d="M100 432v51h187v-47q0 -88 19.5 -141t76.5 -82t161.5 -38t274.5 -9h314q176 0 283.5 8t165.5 33.5t77.5 72t19.5 121.5v82q0 51 -13 84t-51 52.5t-104.5 27.5t-173.5 8q-156 0 -311.5 -5t-310.5 -5q-135 0 -246 12.5t-190.5 54.5t-123.5 118.5t-44 205.5v86 q0 121 28.5 200t107.5 125t219 64.5t363 18.5h295q215 0 357.5 -16.5t227.5 -58.5t119 -115.5t34 -188.5v-43h-187v27q0 66 -25.5 105.5t-89 62t-168 30.5t-264.5 8h-309q-164 0 -266 -8t-159.5 -31.5t-77 -66.5t-19.5 -113v-84q0 -57 16.5 -97t61.5 -64.5t127 -35 t213 -10.5q184 0 365.5 6.5t365.5 6.5q119 0 199.5 -25.5t130 -72t70 -110t20.5 -136.5v-92q0 -127 -28 -210t-105.5 -132.5t-221 -69t-372.5 -19.5h-314q-227 0 -368.5 19.5t-220 71t-107.5 139.5t-29 225zM893 -129h186v-174h-186v174zM893 1638v174h186v-174h-186z" />
<glyph unicode="%" horiz-adv-x="2619" d="M121 965v252q0 94 11.5 154.5t53.5 95t120.5 48t213.5 13.5h203q135 0 214 -13.5t120 -48t52.5 -95t11.5 -154.5v-252q0 -96 -11.5 -157.5t-52.5 -96.5t-120 -48.5t-214 -13.5h-203q-135 0 -213.5 13.5t-120.5 48.5t-53.5 96.5t-11.5 157.5zM248 965q0 -63 6 -100 t33 -56.5t81 -25t152 -5.5h203q98 0 153.5 5.5t81 25t32 56t6.5 100.5v252q0 61 -6.5 97t-32 55.5t-80.5 25.5t-154 6h-203q-98 0 -152 -6t-81 -25.5t-33 -55.5t-6 -97v-252zM504 47l1507 1505l95 -94l-1506 -1501zM1499 293v252q0 94 11.5 154.5t53.5 95t120.5 48 t213.5 13.5h203q135 0 214 -13.5t120 -48t52.5 -95t11.5 -154.5v-252q0 -96 -11.5 -157.5t-52.5 -96.5t-120 -48.5t-214 -13.5h-203q-135 0 -213.5 13.5t-120.5 48.5t-53.5 96.5t-11.5 157.5zM1626 293q0 -63 6 -100t33 -56.5t81 -25t152 -5.5h203q98 0 153.5 5.5t81 25 t32 56t6.5 100.5v252q0 61 -6.5 97t-32 55.5t-80.5 25.5t-154 6h-203q-98 0 -152 -6t-81 -25.5t-33 -55.5t-6 -97v-252z" />
<glyph unicode="&#x26;" horiz-adv-x="2164" d="M90 410v157q0 152 71.5 234t200.5 117q-41 31 -59 80t-18 102v41q0 106 27.5 181t100 121t200.5 66.5t331 20.5h100q248 0 399.5 -25.5t233.5 -83t108.5 -150.5t26.5 -229v-47h-184v88q0 68 -15.5 116t-73.5 81t-175 48t-322 15h-110q-143 0 -233.5 -11t-140.5 -34.5 t-68.5 -61.5t-18.5 -93v-35q0 -27 3 -45.5t12.5 -35.5t27.5 -36.5t49 -44.5q35 -29 48.5 -48t13.5 -48q0 -66 -72 -78q-90 -16 -144.5 -30.5t-83 -37t-39 -58.5t-10.5 -93v-141q0 -43 12.5 -87t60.5 -80t144.5 -58.5t264.5 -22.5h440q51 0 107.5 3t110.5 7t101.5 11.5 t79.5 17.5l56 -176q-37 -12 -95.5 -21.5t-120 -15.5t-119.5 -9.5t-95 -3.5h-469q-203 0 -332 12.5t-203 57.5t-101.5 131t-27.5 232zM1012 612l84 170l1069 -526l-82 -168z" />
<glyph unicode="'" horiz-adv-x="491" d="M152 1053v456h188v-456h-188z" />
<glyph unicode="(" horiz-adv-x="749" d="M217 274v959q0 135 12.5 230.5t58.5 160t135 100t241 52.5v-189q-94 -12 -146.5 -35.5t-78 -64.5t-31 -103.5t-5.5 -150.5v-959q0 -88 5.5 -149.5t31 -103t77.5 -64.5t147 -35v-188q-152 14 -241 50t-135 100.5t-58.5 159.5t-12.5 230z" />
<glyph unicode=")" horiz-adv-x="749" d="M86 -78q94 12 146.5 35t78 64.5t30.5 103t5 149.5v959q0 88 -5 150.5t-30.5 103.5t-78 64.5t-146.5 35.5v189q152 -16 241 -52t135 -100.5t58 -160t12 -230.5v-959q0 -135 -12 -230t-58 -159.5t-135 -100.5t-241 -50v188z" />
<glyph unicode="*" horiz-adv-x="1183" d="M68 891v186l362 -26l-276 239l133 131l237 -274l-26 362h186l-25 -362l238 274l133 -131l-276 -239l362 26v-186l-362 27l276 -240l-133 -131l-238 274l25 -362h-186l26 362l-237 -274l-133 131l276 240z" />
<glyph unicode="+" horiz-adv-x="1351" d="M152 686v186h432v433h186v-433h430v-186h-430v-430h-186v430h-432z" />
<glyph unicode="," horiz-adv-x="544" d="M152 0v238q0 94 96 94h229v-187h-139v-241h-90q-96 0 -96 96z" />
<glyph unicode="-" horiz-adv-x="757" d="M49 696v187h660v-187h-660z" />
<glyph unicode="." horiz-adv-x="491" d="M152 0v240h188v-240h-188z" />
<glyph unicode="/" horiz-adv-x="1155" d="M0 61l999 1491l156 -104l-999 -1491z" />
<glyph unicode="0" horiz-adv-x="2054" d="M121 535v438q0 113 8 198.5t33.5 147t74 102.5t128 64.5t196.5 34t281 10.5h372q244 0 387.5 -23.5t217 -85t94 -170t20.5 -278.5v-438q0 -170 -20.5 -279t-94 -170t-217 -85t-387.5 -24h-372q-164 0 -281 10.5t-196.5 34t-128 64.5t-74 102.5t-33.5 147.5t-8 199z M307 535q0 -121 11.5 -194t63.5 -112t159.5 -51t300.5 -12h372q190 0 298 12t160 51t63.5 112t11.5 194v438q0 123 -11.5 195.5t-63.5 110.5t-159.5 50t-298.5 12h-372q-193 0 -300.5 -12t-159.5 -50t-63.5 -110.5t-11.5 -195.5v-438z" />
<glyph unicode="1" horiz-adv-x="1128" d="M0 1004l504 479q31 27 63 26h318q92 0 92 -94v-1415h-186v1323h-187l-475 -455z" />
<glyph unicode="2" horiz-adv-x="1939" d="M111 127v184q0 131 27.5 221.5t100 145.5t198.5 78.5t321 23.5h702q61 0 101.5 8.5t64 34t32.5 70.5t9 119v47q0 90 -11 145.5t-63.5 86t-160 40.5t-299.5 10h-299q-190 0 -298 -12t-160 -50t-63.5 -110.5t-11.5 -195.5v-68h-186v68q0 170 20.5 278.5t94 170t217 85 t387.5 23.5h299q246 0 389 -21.5t216.5 -75t94 -141.5t20.5 -219v-67q0 -123 -21.5 -202t-67.5 -126t-121.5 -65.5t-182.5 -18.5h-702q-154 0 -245 -10.5t-139 -41t-62.5 -86t-14.5 -145.5v-125h678v-186h-768q-96 0 -96 127z" />
<glyph unicode="3" horiz-adv-x="2017" d="M121 455v26h186v-28q0 -94 18.5 -150.5t75 -87.5t162 -40t279.5 -9h356q162 0 265.5 13.5t164 45t84 83.5t23.5 132q0 72 -6.5 116t-22.5 70.5t-49 41t-84 26.5q-43 10 -61.5 29.5t-18.5 54.5t16.5 52.5t44.5 29.5q76 33 99.5 73t23.5 118q0 86 -17.5 142t-73.5 89 t-161.5 46t-283.5 13h-299q-193 0 -300.5 -12t-159.5 -50t-63.5 -110.5t-11.5 -195.5v-21h-186v21q0 113 8 198.5t33.5 147t74 102.5t128 64.5t196.5 34t281 10.5h299q221 0 361 -22.5t220 -77t111 -147.5t31 -234q0 -94 -32 -151.5t-87 -94.5q39 -16 71.5 -42t55 -67 t36 -103.5t13.5 -152.5q0 -168 -54.5 -261t-151.5 -137t-229 -53.5t-288 -9.5h-356q-231 0 -372.5 20.5t-218.5 74t-103.5 145.5t-26.5 238z" />
<glyph unicode="4" horiz-adv-x="1951" d="M80 299v326q0 25 10 42t29 33l1059 791q25 18 55 18h328q92 0 92 -94v-612h243v-187h-335q-94 0 -95 95v612h-202l-998 -748v-186h817q94 0 95 -90v-299h-187v203h-817q-94 0 -94 96z" />
<glyph unicode="5" horiz-adv-x="1961" d="M102 457v47l189 6v-51q0 -82 12 -138.5t52 -90t114 -49t197 -15.5h542q145 0 238.5 13.5t147 49t74 100t20.5 169.5v49q0 100 -15.5 164.5t-72 101.5t-169 51.5t-307.5 14.5h-202q-135 0 -214 -5.5t-123 -15.5t-62.5 -28.5t-35.5 -43.5l-149 115q33 45 61.5 76t86 49 t158.5 25.5t280 7.5h206q229 0 374 -18.5t228 -73t113.5 -154.5t30.5 -264v-49q-4 -178 -46 -282.5t-126 -158t-210 -68t-296 -14.5h-526q-164 0 -271.5 25t-173 80t-94.5 147.5t-31 227.5zM135 1421q0 88 92 88h799v-186h-702l14 -219h-186z" />
<glyph unicode="6" horiz-adv-x="1988" d="M121 535v438q0 113 8 198.5t33.5 147t74 102.5t128 64.5t196.5 34t281 10.5h307q238 0 379 -22.5t217 -81t98.5 -160t24.5 -258.5h-187q0 111 -14 176t-68.5 100t-160 46t-289.5 11h-307q-193 0 -300.5 -12t-159.5 -50t-63.5 -110.5t-11.5 -195.5v-438q0 -121 11.5 -194 t63.5 -112t159.5 -51t300.5 -12h307q178 0 283.5 9t161 39t71.5 85t16 145v86q0 63 -15 107.5t-72.5 72t-170 40t-307.5 12.5h-168q-135 0 -214 -4t-122 -15.5t-61.5 -29t-34.5 -41.5l-149 114q33 45 61.5 76t85.5 49.5t158.5 25.5t279.5 7h170q229 0 373.5 -16.5 t227.5 -60.5t114 -120.5t31 -195.5l-2 -98q-2 -143 -28 -235.5t-101.5 -146t-216 -74t-371.5 -20.5h-307q-164 0 -281 10.5t-196.5 34t-128 64.5t-74 102.5t-33.5 147.5t-8 199z" />
<glyph unicode="7" horiz-adv-x="1267" d="M33 82l971 1096v145h-639v186h735q90 0 90 -94v-272q0 -39 -25 -64l-993 -1122z" />
<glyph unicode="8" horiz-adv-x="2019" d="M100 438q0 90 12.5 152.5t36 103.5t55.5 66.5t70 42.5q-55 37 -86.5 94t-31.5 152q0 141 30.5 234t110.5 147.5t221 77t363 22.5h260q221 0 361 -22.5t220 -77t111 -147.5t31 -234q0 -94 -32 -151.5t-87 -94.5q39 -16 71.5 -42t55 -67t36 -103.5t13.5 -152.5 q0 -168 -54.5 -261t-151.5 -137t-229 -53.5t-288 -9.5h-377q-156 0 -288 9.5t-228 53.5t-150.5 137t-54.5 261zM287 440q0 -80 23.5 -132t83 -83.5t164 -45t263.5 -13.5h377q162 0 265.5 13.5t164 45t84 83.5t23.5 132q0 72 -6.5 116t-22.5 70.5t-49 41t-84 26.5 q-43 10 -61.5 29.5t-18.5 54.5t16.5 52.5t44.5 29.5q76 33 99.5 73t23.5 118q0 86 -17.5 142t-73.5 89t-161.5 46t-283.5 13h-260q-178 0 -285 -13t-163 -46t-73.5 -89t-17.5 -142q0 -39 5 -68t18.5 -50.5t38 -38.5t63.5 -34q29 -12 44 -29.5t15 -52.5t-17 -54t-63 -30 q-53 -12 -83.5 -26.5t-48 -41t-22.5 -70.5t-5 -116z" />
<glyph unicode="9" horiz-adv-x="1988" d="M121 500h186q0 -109 14.5 -175.5t68.5 -101.5t160.5 -46t291.5 -11h307q193 0 299 12t158.5 51t63.5 112t11 194v438q0 123 -11 195.5t-63.5 110.5t-159 50t-298.5 12h-307q-178 0 -283.5 -9t-161 -38.5t-73 -84t-17.5 -144.5v-88q0 -61 15.5 -105.5t74 -72t170 -41 t305.5 -13.5h168q135 0 214 5.5t122 15.5t62.5 27.5t36.5 42.5l149 -115q-23 -31 -42 -54.5t-45 -41t-61.5 -29.5t-94 -19.5t-141.5 -10.5t-202 -3h-172q-227 0 -372.5 16.5t-228.5 60.5t-113.5 121t-30.5 197l2 97q2 143 27.5 235t102.5 145.5t217 74t372 20.5h307 q244 0 387 -23.5t217 -85t94.5 -170t20.5 -278.5v-438q0 -170 -20.5 -279t-94.5 -170t-217 -85t-387 -24h-307q-238 0 -380.5 23t-217 81t-98 159.5t-25.5 259.5z" />
<glyph unicode=":" horiz-adv-x="491" d="M152 0v240h188v-240h-188zM152 745v238h188v-238h-188z" />
<glyph unicode=";" horiz-adv-x="548" d="M72 0v238q0 94 94 94h231v-187h-137v-241h-94q-94 0 -94 96zM211 745v238h186v-238h-186z" />
<glyph unicode="&#x3c;" horiz-adv-x="1355" d="M152 702v146q0 29 13 51.5t36 32.5l921 436l82 -168l-866 -412v-26l866 -412l-82 -168l-921 436q-49 23 -49 84z" />
<glyph unicode="=" horiz-adv-x="1351" d="M152 426v186h1048v-186h-1048zM152 946v187h1048v-187h-1048z" />
<glyph unicode="&#x3e;" horiz-adv-x="1355" d="M152 350l866 412v26l-866 412l81 168l922 -436q25 -10 37 -32.5t12 -51.5v-146q0 -63 -49 -84l-922 -436z" />
<glyph unicode="?" horiz-adv-x="1632" d="M51 938v119q0 92 8.5 162.5t34 124t73.5 88t128 57t196.5 32t280.5 9.5h88q246 0 388.5 -21.5t216 -74t94 -137.5t20.5 -214v-86q0 -139 -27.5 -234t-85 -153.5t-142.5 -85t-200 -26.5h-166q-49 0 -49 -54v-41h-188v101q0 90 41 131t127 41h207q92 0 150.5 15.5t91 52 t44 98t11.5 153.5v86q0 82 -11.5 132.5t-63.5 79t-158.5 38.5t-299.5 10h-88q-193 0 -300 -10t-159.5 -42t-63.5 -89t-11 -151v-111h-187zM721 0v248h188v-248h-188z" />
<glyph unicode="@" horiz-adv-x="2160" d="M121 535v438q0 113 8 198.5t38 147t84 102.5t147.5 64.5t229.5 34t328 10.5h248q193 0 329 -10.5t229 -34t147.5 -64.5t84 -102.5t38 -147.5t8.5 -198v-207q0 -238 -93.5 -340t-295.5 -102q-57 0 -97.5 7t-70 18t-49 25.5t-33.5 31.5q-23 -18 -49.5 -34t-66.5 -27 t-95 -18.5t-133 -7.5h-123q-125 0 -211 24t-139.5 72t-77 120.5t-23.5 173.5v108q0 119 35 193.5t104.5 116.5t170 57.5t233.5 15.5h102v-186h-112q-100 0 -167 -9.5t-107 -33t-56 -61.5t-16 -93v-139q0 -84 64.5 -129t232.5 -45h84q78 0 124 3t71.5 7t35.5 11t18 14 q29 33 50.5 47t50.5 14q35 0 52 -16.5t46 -44.5q18 -16 45 -23.5t90 -7.5q55 0 96.5 9t69 38t40.5 79t13 134v205q0 82 -4 140t-24.5 99t-61.5 67t-112.5 39t-181 18t-265.5 5h-248q-156 0 -265 -5t-181 -18t-113 -39t-61.5 -67t-24.5 -99t-4 -140v-438q0 -80 4 -139.5 t24.5 -100.5t61.5 -66.5t113 -39t180.5 -18.5t265.5 -5h293q190 0 310 7t192 30l125 -158q-92 -37 -242.5 -52.5t-384.5 -15.5h-293q-193 0 -328.5 10.5t-229 34t-147.5 64.5t-84 102.5t-38 147.5t-8 199z" />
<glyph unicode="A" d="M27 45l800 1415q27 49 82 49h303q51 0 80 -49l799 -1415l-164 -88l-772 1366h-192l-773 -1366zM961 723v186h194v-186h-194z" />
<glyph unicode="B" horiz-adv-x="2070" d="M152 96v1319q0 94 94 94h1097q168 0 279 -22.5t174.5 -76.5t89 -142t25.5 -219q0 -94 -32 -151.5t-87 -94.5q39 -16 71.5 -42t55.5 -67t36 -103.5t13 -152.5q0 -123 -23.5 -205.5t-88 -135t-180 -75t-300.5 -22.5h-1130q-94 0 -94 96zM340 188h1036q131 0 211 13.5 t123 43t57.5 77.5t14.5 118q0 72 -6.5 116t-22.5 70.5t-48 41t-83 26.5q-45 10 -63.5 29.5t-18.5 54.5t16.5 52.5t45.5 29.5q39 16 62.5 33.5t36.5 39t18 50.5t5 68q0 88 -15 141t-56 83t-116 39t-194 9h-1003v-1135z" />
<glyph unicode="C" horiz-adv-x="2035" d="M121 535v438q0 113 8 198.5t38 147t84 102.5t147.5 64.5t229.5 34t328 10.5h144q190 0 327.5 -10.5t229.5 -34t147.5 -64.5t84 -102.5t36.5 -147.5t8 -198v-25h-186v25q0 123 -13.5 195.5t-76 110.5t-193.5 50t-364 12h-144q-156 0 -265 -5t-181 -18t-113 -39t-61.5 -67 t-24.5 -99t-4 -140v-438q0 -80 4 -139.5t24.5 -100.5t61.5 -66.5t113 -39t180.5 -18.5t265.5 -5h144q233 0 364 11t193.5 46t76 96.5t13.5 163.5v23h186v-23q0 -96 -8 -171.5t-36.5 -132t-84 -95.5t-147.5 -62.5t-229.5 -34t-327.5 -10.5h-144q-193 0 -328.5 10.5t-229 34 t-147.5 64.5t-84 102.5t-38 147.5t-8 199z" />
<glyph unicode="D" horiz-adv-x="2232" d="M152 96v1319q0 94 94 94h1030q193 0 329 -10t229 -33.5t147.5 -64.5t84 -102.5t37.5 -147.5t8 -199v-395q0 -113 -8 -199t-37.5 -147t-84 -102t-147.5 -65t-229.5 -34t-328.5 -10h-1030q-94 0 -94 96zM340 188h936q156 0 265.5 5.5t181 18.5t112.5 38.5t61.5 66.5 t24.5 99.5t4 140.5v395q0 80 -4 139.5t-24.5 100.5t-61.5 66.5t-112.5 40t-181 19.5t-265.5 5h-936v-1135z" />
<glyph unicode="E" horiz-adv-x="1718" d="M152 96v1319q0 94 92 94h1388v-186h-1294v-1137h1296v-186h-1390q-92 0 -92 96zM1384 723v186h197v-186h-197z" />
<glyph unicode="F" horiz-adv-x="1669" d="M152 0v1415q0 94 92 94h1368v-186h-1274v-1323h-186zM1384 723v186h197v-186h-197z" />
<glyph unicode="G" horiz-adv-x="2142" d="M121 535v438q0 113 8 198.5t38 147t84 102.5t147.5 64.5t229.5 34t328 10.5h230q190 0 327.5 -10.5t229.5 -34t147.5 -64.5t84 -102.5t36.5 -147.5t8 -198h-186q0 82 -4 140t-24.5 99t-60.5 67t-111.5 39t-181.5 18t-265 5h-230q-156 0 -265 -5t-181 -18t-113 -39 t-61.5 -67t-24.5 -99t-4 -140v-438q0 -80 4 -139.5t24.5 -100.5t61.5 -66.5t113 -39t180.5 -18.5t265.5 -5h230q236 0 365.5 12t192 51t76 112t13.5 194v90h-723v186h815q53 0 73.5 -18.5t20.5 -71.5v-186q0 -113 -8 -199t-36.5 -147.5t-84 -102.5t-147.5 -64.5t-229.5 -34 t-327.5 -10.5h-230q-193 0 -328.5 10.5t-229 34t-147.5 64.5t-84 102.5t-38 147.5t-8 199z" />
<glyph unicode="H" horiz-adv-x="2172" d="M152 0v1509h186v-1509h-186zM469 694v187h1231v-187h-1231zM1835 0v1509h186v-1509h-186z" />
<glyph unicode="I" horiz-adv-x="491" d="M152 0v1509h188v-1509h-188z" />
<glyph unicode="J" horiz-adv-x="1705" d="M41 535v12h186v-12q0 -121 11.5 -194t64.5 -112t161.5 -51t303.5 -12h59q131 0 223.5 5t153 18.5t95 39t52 66.5t21.5 99.5t4 140.5v974h187v-974q0 -170 -21.5 -279t-96.5 -170t-221.5 -85t-396.5 -24h-59q-248 0 -392.5 24t-219 85t-95 170t-20.5 279z" />
<glyph unicode="K" horiz-adv-x="1816" d="M152 0v1509h186v-1509h-186zM520 770q0 41 53 76l1074 706l100 -153l-952 -629l999 -657l-98 -156l-1123 735q-53 33 -53 78z" />
<glyph unicode="L" horiz-adv-x="1601" d="M152 96v1413h186v-1323h1214v-186h-1308q-92 0 -92 96z" />
<glyph unicode="M" horiz-adv-x="2772" d="M152 0v1415q0 94 96 94h377q49 0 77 -43l691 -1077l678 1075q27 45 77 45h379q94 0 94 -94v-1415h-186v1323h-235l-727 -1159q-37 -55 -80 -55t-80 55l-744 1159h-231v-1323h-186z" />
<glyph unicode="N" horiz-adv-x="2277" d="M152 0v1415q0 94 96 94h311q23 0 38 -7t30 -19l1126 -1133l-131 -133l-1100 1106h-184v-1323h-186zM1939 0v1509h187v-1509h-187z" />
<glyph unicode="O" horiz-adv-x="2203" d="M121 535v438q0 113 8 198.5t38 147t84 102.5t147.5 64.5t229.5 34t328 10.5h293q190 0 327.5 -10.5t229.5 -34t147.5 -64.5t84 -102.5t37 -147.5t8.5 -198v-438q0 -113 -8.5 -199t-37 -147.5t-84 -102.5t-147.5 -64.5t-229 -34t-328 -10.5h-293q-193 0 -328.5 10.5 t-229 34t-147.5 64.5t-84 102.5t-38 147.5t-8 199zM307 535q0 -80 4 -139.5t24.5 -100.5t61.5 -66.5t113 -39t180.5 -18.5t265.5 -5h293q233 0 364.5 12t194 51t75.5 112t13 194v438q0 123 -13 195.5t-75.5 110.5t-193.5 50t-365 12h-293q-156 0 -265 -5t-181 -18t-113 -39 t-61.5 -67t-24.5 -99t-4 -140v-438z" />
<glyph unicode="P" horiz-adv-x="1976" d="M152 0v1415q0 94 92 94h1011q205 0 333 -26.5t200 -89t98.5 -166.5t26.5 -260q0 -152 -23.5 -253.5t-85 -161.5t-168 -86t-274.5 -26h-348v187h354q113 0 182.5 15t108.5 54t52 106.5t13 172.5q0 109 -15 177.5t-64.5 106t-143.5 51t-250 13.5h-913v-1323h-186z" />
<glyph unicode="Q" horiz-adv-x="2195" d="M121 535v438q0 113 8 198.5t38 147t84 102.5t147.5 64.5t229.5 34t328 10.5h293q190 0 327.5 -10.5t229.5 -34t147.5 -64.5t84 -102.5t37 -147.5t8.5 -198v-264h-187v264q0 123 -13 195.5t-75.5 110.5t-193.5 50t-365 12h-293q-156 0 -265 -5t-181 -18t-113 -39 t-61.5 -67t-24.5 -99t-4 -140v-438q0 -80 4 -139.5t24.5 -100.5t61.5 -66.5t113 -39t180.5 -18.5t265.5 -5h131v-189h-131q-193 0 -328.5 10.5t-229 34t-147.5 64.5t-84 102.5t-38 147.5t-8 199zM1130 543l101 153l897 -583l-100 -156z" />
<glyph unicode="R" horiz-adv-x="2105" d="M152 0v1415q0 94 96 94h989q236 0 380 -22.5t222 -80.5t103.5 -161.5t25.5 -265.5q0 -92 -12 -155.5t-33.5 -105.5t-48.5 -67.5t-57 -44.5q25 -18 47 -41.5t40.5 -56.5t29 -76t10.5 -104v-328h-185v303q0 68 -4 108t-21.5 62.5t-50 33.5t-88.5 25q-61 16 -61 78 q0 29 12.5 49.5t40.5 30.5q70 18 109 34.5t58.5 45.5t23.5 76t4 127q0 121 -18.5 190.5t-74 105.5t-159 45t-270.5 9h-920v-1323h-188z" />
<glyph unicode="S" horiz-adv-x="2011" d="M121 432v51h186v-47q0 -88 19.5 -141t77 -82t163 -38t275.5 -9h313q176 0 283.5 8t166 33.5t78 72t19.5 121.5v82q0 51 -13.5 84t-51.5 52.5t-105.5 27.5t-173.5 8q-154 0 -310.5 -5t-310.5 -5q-135 0 -246.5 12.5t-190.5 54.5t-123 118.5t-44 205.5v86q0 121 28.5 200 t107.5 125t219.5 64.5t363.5 18.5h295q215 0 357.5 -16.5t226.5 -58.5t118.5 -115.5t34.5 -188.5v-43h-186v27q0 66 -26.5 105.5t-89 62t-168 30.5t-263.5 8h-309q-164 0 -266.5 -8t-160 -31.5t-77 -66.5t-19.5 -113v-84q0 -57 15.5 -97t61.5 -64.5t127 -35t214 -10.5 q182 0 364.5 6.5t364.5 6.5q119 0 200 -25.5t130 -72t70.5 -110t21.5 -136.5v-92q0 -127 -27.5 -210t-106.5 -132.5t-221 -69t-374 -19.5h-311q-227 0 -368.5 19.5t-221.5 71t-108.5 139.5t-28.5 225z" />
<glyph unicode="T" horiz-adv-x="1710" d="M49 1323v186h1610v-186h-1610zM758 0v1120h186v-1120h-186z" />
<glyph unicode="U" horiz-adv-x="2150" d="M143 535v974h187v-974q0 -121 13 -194t75.5 -112t192.5 -51t366 -12h194q156 0 265.5 5t181.5 18.5t113 39t61 66.5t24.5 99.5t4.5 140.5v974h186v-974q0 -113 -8 -199t-38 -147.5t-84 -102.5t-147.5 -64.5t-229.5 -34t-329 -10.5h-194q-287 0 -454 24t-251 85 t-106.5 170t-22.5 279z" />
<glyph unicode="V" d="M27 1460l159 92l777 -1366h192l776 1366l160 -92l-801 -1413q-27 -47 -84 -47h-301q-53 0 -80 47z" />
<glyph unicode="W" horiz-adv-x="3301" d="M27 1473l170 79l649 -1366h203l524 1051q35 70 86 70q49 0 84 -72l483 -1049h197l684 1368l168 -79l-711 -1422q-29 -53 -82 -53h-319q-61 0 -86 59l-424 916l-457 -918q-29 -57 -86 -57h-324q-59 0 -84 53z" />
<glyph unicode="X" horiz-adv-x="2076" d="M27 88l710 672l-686 657l131 135l752 -727q37 -34 37 -65q0 -35 -37 -68l-780 -737zM1120 760q0 16 7.5 33.5t27.5 33.5l768 725l125 -137l-692 -657l694 -670l-127 -133l-768 737q-35 33 -35 68z" />
<glyph unicode="Y" horiz-adv-x="2127" d="M16 1419l131 133l908 -907q29 -27 28 -65v-580h-186v539zM1243 827l731 725l135 -131l-733 -725z" />
<glyph unicode="Z" horiz-adv-x="1861" d="M88 0v186h1708v-186h-1708zM141 1323v186h1563q92 0 92 -94v-145q0 -39 -33 -72l-800 -795l-123 142l770 766v12h-1469z" />
<glyph unicode="[" horiz-adv-x="782" d="M217 -174v1855q0 94 90 95h389v-187h-293v-1669h293v-186h-389q-90 0 -90 92z" />
<glyph unicode="\" horiz-adv-x="1155" d="M0 1448l156 104l999 -1491l-156 -104z" />
<glyph unicode="]" horiz-adv-x="782" d="M86 -80h293v1669h-293v187h389q90 0 90 -95v-1855q0 -92 -90 -92h-389v186z" />
<glyph unicode="^" horiz-adv-x="1214" d="M61 842l371 624q25 47 80 47h190q23 0 45.5 -12t36.5 -35l369 -624l-160 -94l-344 579h-84l-340 -579z" />
<glyph unicode="_" horiz-adv-x="1075" d="M6 -43h1063v-186h-1063v186z" />
<glyph unicode="`" horiz-adv-x="700" d="M158 1864l135 123l262 -267l-137 -125z" />
<glyph unicode="a" d="M27 45l800 1415q27 49 82 49h303q51 0 80 -49l799 -1415l-164 -88l-772 1366h-192l-773 -1366zM961 723v186h194v-186h-194z" />
<glyph unicode="b" horiz-adv-x="2070" d="M152 96v1319q0 94 94 94h1097q168 0 279 -22.5t174.5 -76.5t89 -142t25.5 -219q0 -94 -32 -151.5t-87 -94.5q39 -16 71.5 -42t55.5 -67t36 -103.5t13 -152.5q0 -123 -23.5 -205.5t-88 -135t-180 -75t-300.5 -22.5h-1130q-94 0 -94 96zM340 188h1036q131 0 211 13.5 t123 43t57.5 77.5t14.5 118q0 72 -6.5 116t-22.5 70.5t-48 41t-83 26.5q-45 10 -63.5 29.5t-18.5 54.5t16.5 52.5t45.5 29.5q39 16 62.5 33.5t36.5 39t18 50.5t5 68q0 88 -15 141t-56 83t-116 39t-194 9h-1003v-1135z" />
<glyph unicode="c" horiz-adv-x="2035" d="M121 535v438q0 113 8 198.5t38 147t84 102.5t147.5 64.5t229.5 34t328 10.5h144q190 0 327.5 -10.5t229.5 -34t147.5 -64.5t84 -102.5t36.5 -147.5t8 -198v-25h-186v25q0 123 -13.5 195.5t-76 110.5t-193.5 50t-364 12h-144q-156 0 -265 -5t-181 -18t-113 -39t-61.5 -67 t-24.5 -99t-4 -140v-438q0 -80 4 -139.5t24.5 -100.5t61.5 -66.5t113 -39t180.5 -18.5t265.5 -5h144q233 0 364 11t193.5 46t76 96.5t13.5 163.5v23h186v-23q0 -96 -8 -171.5t-36.5 -132t-84 -95.5t-147.5 -62.5t-229.5 -34t-327.5 -10.5h-144q-193 0 -328.5 10.5t-229 34 t-147.5 64.5t-84 102.5t-38 147.5t-8 199z" />
<glyph unicode="d" horiz-adv-x="2232" d="M152 96v1319q0 94 94 94h1030q193 0 329 -10t229 -33.5t147.5 -64.5t84 -102.5t37.5 -147.5t8 -199v-395q0 -113 -8 -199t-37.5 -147t-84 -102t-147.5 -65t-229.5 -34t-328.5 -10h-1030q-94 0 -94 96zM340 188h936q156 0 265.5 5.5t181 18.5t112.5 38.5t61.5 66.5 t24.5 99.5t4 140.5v395q0 80 -4 139.5t-24.5 100.5t-61.5 66.5t-112.5 40t-181 19.5t-265.5 5h-936v-1135z" />
<glyph unicode="e" horiz-adv-x="1718" d="M152 96v1319q0 94 92 94h1388v-186h-1294v-1137h1296v-186h-1390q-92 0 -92 96zM1384 723v186h197v-186h-197z" />
<glyph unicode="f" horiz-adv-x="1669" d="M152 0v1415q0 94 92 94h1368v-186h-1274v-1323h-186zM1384 723v186h197v-186h-197z" />
<glyph unicode="g" horiz-adv-x="2142" d="M121 535v438q0 113 8 198.5t38 147t84 102.5t147.5 64.5t229.5 34t328 10.5h230q190 0 327.5 -10.5t229.5 -34t147.5 -64.5t84 -102.5t36.5 -147.5t8 -198h-186q0 82 -4 140t-24.5 99t-60.5 67t-111.5 39t-181.5 18t-265 5h-230q-156 0 -265 -5t-181 -18t-113 -39 t-61.5 -67t-24.5 -99t-4 -140v-438q0 -80 4 -139.5t24.5 -100.5t61.5 -66.5t113 -39t180.5 -18.5t265.5 -5h230q236 0 365.5 12t192 51t76 112t13.5 194v90h-723v186h815q53 0 73.5 -18.5t20.5 -71.5v-186q0 -113 -8 -199t-36.5 -147.5t-84 -102.5t-147.5 -64.5t-229.5 -34 t-327.5 -10.5h-230q-193 0 -328.5 10.5t-229 34t-147.5 64.5t-84 102.5t-38 147.5t-8 199z" />
<glyph unicode="h" horiz-adv-x="2172" d="M152 0v1509h186v-1509h-186zM469 694v187h1231v-187h-1231zM1835 0v1509h186v-1509h-186z" />
<glyph unicode="i" horiz-adv-x="491" d="M152 0v1509h188v-1509h-188z" />
<glyph unicode="j" horiz-adv-x="1705" d="M41 535v12h186v-12q0 -121 11.5 -194t64.5 -112t161.5 -51t303.5 -12h59q131 0 223.5 5t153 18.5t95 39t52 66.5t21.5 99.5t4 140.5v974h187v-974q0 -170 -21.5 -279t-96.5 -170t-221.5 -85t-396.5 -24h-59q-248 0 -392.5 24t-219 85t-95 170t-20.5 279z" />
<glyph unicode="k" horiz-adv-x="1816" d="M152 0v1509h186v-1509h-186zM520 770q0 41 53 76l1074 706l100 -153l-952 -629l999 -657l-98 -156l-1123 735q-53 33 -53 78z" />
<glyph unicode="l" horiz-adv-x="1601" d="M152 96v1413h186v-1323h1214v-186h-1308q-92 0 -92 96z" />
<glyph unicode="m" horiz-adv-x="2772" d="M152 0v1415q0 94 96 94h377q49 0 77 -43l691 -1077l678 1075q27 45 77 45h379q94 0 94 -94v-1415h-186v1323h-235l-727 -1159q-37 -55 -80 -55t-80 55l-744 1159h-231v-1323h-186z" />
<glyph unicode="n" horiz-adv-x="2277" d="M152 0v1415q0 94 96 94h311q23 0 38 -7t30 -19l1126 -1133l-131 -133l-1100 1106h-184v-1323h-186zM1939 0v1509h187v-1509h-187z" />
<glyph unicode="o" horiz-adv-x="2203" d="M121 535v438q0 113 8 198.5t38 147t84 102.5t147.5 64.5t229.5 34t328 10.5h293q190 0 327.5 -10.5t229.5 -34t147.5 -64.5t84 -102.5t37 -147.5t8.5 -198v-438q0 -113 -8.5 -199t-37 -147.5t-84 -102.5t-147.5 -64.5t-229 -34t-328 -10.5h-293q-193 0 -328.5 10.5 t-229 34t-147.5 64.5t-84 102.5t-38 147.5t-8 199zM307 535q0 -80 4 -139.5t24.5 -100.5t61.5 -66.5t113 -39t180.5 -18.5t265.5 -5h293q233 0 364.5 12t194 51t75.5 112t13 194v438q0 123 -13 195.5t-75.5 110.5t-193.5 50t-365 12h-293q-156 0 -265 -5t-181 -18t-113 -39 t-61.5 -67t-24.5 -99t-4 -140v-438z" />
<glyph unicode="p" horiz-adv-x="1976" d="M152 0v1415q0 94 92 94h1011q205 0 333 -26.5t200 -89t98.5 -166.5t26.5 -260q0 -152 -23.5 -253.5t-85 -161.5t-168 -86t-274.5 -26h-348v187h354q113 0 182.5 15t108.5 54t52 106.5t13 172.5q0 109 -15 177.5t-64.5 106t-143.5 51t-250 13.5h-913v-1323h-186z" />
<glyph unicode="q" horiz-adv-x="2195" d="M121 535v438q0 113 8 198.5t38 147t84 102.5t147.5 64.5t229.5 34t328 10.5h293q190 0 327.5 -10.5t229.5 -34t147.5 -64.5t84 -102.5t37 -147.5t8.5 -198v-264h-187v264q0 123 -13 195.5t-75.5 110.5t-193.5 50t-365 12h-293q-156 0 -265 -5t-181 -18t-113 -39 t-61.5 -67t-24.5 -99t-4 -140v-438q0 -80 4 -139.5t24.5 -100.5t61.5 -66.5t113 -39t180.5 -18.5t265.5 -5h131v-189h-131q-193 0 -328.5 10.5t-229 34t-147.5 64.5t-84 102.5t-38 147.5t-8 199zM1130 543l101 153l897 -583l-100 -156z" />
<glyph unicode="r" horiz-adv-x="2105" d="M152 0v1415q0 94 96 94h989q236 0 380 -22.5t222 -80.5t103.5 -161.5t25.5 -265.5q0 -92 -12 -155.5t-33.5 -105.5t-48.5 -67.5t-57 -44.5q25 -18 47 -41.5t40.5 -56.5t29 -76t10.5 -104v-328h-185v303q0 68 -4 108t-21.5 62.5t-50 33.5t-88.5 25q-61 16 -61 78 q0 29 12.5 49.5t40.5 30.5q70 18 109 34.5t58.5 45.5t23.5 76t4 127q0 121 -18.5 190.5t-74 105.5t-159 45t-270.5 9h-920v-1323h-188z" />
<glyph unicode="s" horiz-adv-x="2011" d="M121 432v51h186v-47q0 -88 19.5 -141t77 -82t163 -38t275.5 -9h313q176 0 283.5 8t166 33.5t78 72t19.5 121.5v82q0 51 -13.5 84t-51.5 52.5t-105.5 27.5t-173.5 8q-154 0 -310.5 -5t-310.5 -5q-135 0 -246.5 12.5t-190.5 54.5t-123 118.5t-44 205.5v86q0 121 28.5 200 t107.5 125t219.5 64.5t363.5 18.5h295q215 0 357.5 -16.5t226.5 -58.5t118.5 -115.5t34.5 -188.5v-43h-186v27q0 66 -26.5 105.5t-89 62t-168 30.5t-263.5 8h-309q-164 0 -266.5 -8t-160 -31.5t-77 -66.5t-19.5 -113v-84q0 -57 15.5 -97t61.5 -64.5t127 -35t214 -10.5 q182 0 364.5 6.5t364.5 6.5q119 0 200 -25.5t130 -72t70.5 -110t21.5 -136.5v-92q0 -127 -27.5 -210t-106.5 -132.5t-221 -69t-374 -19.5h-311q-227 0 -368.5 19.5t-221.5 71t-108.5 139.5t-28.5 225z" />
<glyph unicode="t" horiz-adv-x="1710" d="M49 1323v186h1610v-186h-1610zM758 0v1120h186v-1120h-186z" />
<glyph unicode="u" horiz-adv-x="2150" d="M143 535v974h187v-974q0 -121 13 -194t75.5 -112t192.5 -51t366 -12h194q156 0 265.5 5t181.5 18.5t113 39t61 66.5t24.5 99.5t4.5 140.5v974h186v-974q0 -113 -8 -199t-38 -147.5t-84 -102.5t-147.5 -64.5t-229.5 -34t-329 -10.5h-194q-287 0 -454 24t-251 85 t-106.5 170t-22.5 279z" />
<glyph unicode="v" d="M27 1460l159 92l777 -1366h192l776 1366l160 -92l-801 -1413q-27 -47 -84 -47h-301q-53 0 -80 47z" />
<glyph unicode="w" horiz-adv-x="3301" d="M27 1473l170 79l649 -1366h203l524 1051q35 70 86 70q49 0 84 -72l483 -1049h197l684 1368l168 -79l-711 -1422q-29 -53 -82 -53h-319q-61 0 -86 59l-424 916l-457 -918q-29 -57 -86 -57h-324q-59 0 -84 53z" />
<glyph unicode="x" horiz-adv-x="2076" d="M27 88l710 672l-686 657l131 135l752 -727q37 -34 37 -65q0 -35 -37 -68l-780 -737zM1120 760q0 16 7.5 33.5t27.5 33.5l768 725l125 -137l-692 -657l694 -670l-127 -133l-768 737q-35 33 -35 68z" />
<glyph unicode="y" horiz-adv-x="2127" d="M16 1419l131 133l908 -907q29 -27 28 -65v-580h-186v539zM1243 827l731 725l135 -131l-733 -725z" />
<glyph unicode="z" horiz-adv-x="1861" d="M88 0v186h1708v-186h-1708zM141 1323v186h1563q92 0 92 -94v-145q0 -39 -33 -72l-800 -795l-123 142l770 766v12h-1469z" />
<glyph unicode="{" horiz-adv-x="833" d="M117 776q0 35 16.5 53.5t44.5 30.5q37 16 60.5 32.5t37 38t19.5 49.5t6 67v186q0 135 12.5 230.5t58.5 160t135 100t241 52.5v-189q-94 -12 -146.5 -35.5t-78 -64.5t-31 -103.5t-5.5 -150.5v-186q0 -94 -40.5 -164t-96.5 -107q55 -39 96 -107.5t41 -162.5v-232 q0 -88 5.5 -149.5t31 -103t77.5 -64.5t147 -35v-188q-152 14 -241 50t-135 100.5t-58.5 159.5t-12.5 230v232q0 76 -25.5 113.5t-97.5 72.5q-29 12 -45 30.5t-16 53.5z" />
<glyph unicode="|" horiz-adv-x="686" d="M250 -217v1941h188v-1941h-188z" />
<glyph unicode="}" horiz-adv-x="839" d="M86 -78q94 12 146.5 35t78 64.5t30.5 103t5 149.5v232q0 94 41 162.5t96 107.5q-55 37 -96 106.5t-41 164.5v186q0 88 -5 150.5t-30.5 103.5t-78 64.5t-146.5 35.5v189q152 -16 241 -52t135 -100.5t58 -160t12 -230.5v-186q0 -39 6.5 -67t19.5 -49.5t38 -37.5t61 -33 q29 -12 44.5 -30.5t15.5 -53.5t-15.5 -53t-44.5 -31q-37 -16 -61.5 -33.5t-37.5 -39t-19.5 -49t-6.5 -64.5v-232q0 -135 -12 -230t-58 -159.5t-135 -100.5t-241 -50v188z" />
<glyph unicode="~" horiz-adv-x="1595" d="M96 793l90 92q111 111 193 164t156 53t145.5 -48t163.5 -139l45 -47q53 -53 90 -80.5t76 -27.5q43 0 92 34.5t127 110.5l92 92l131 -135l-90 -88q-111 -111 -192.5 -164t-155.5 -53q-72 0 -145.5 46t-163.5 140l-43 45q-51 53 -92.5 81t-77.5 28q-41 0 -92.5 -34 t-125.5 -111l-90 -90z" />
<glyph unicode="&#xa1;" horiz-adv-x="491" d="M152 0v1106h188v-1106h-188zM152 1268v241h188v-241h-188z" />
<glyph unicode="&#xa2;" horiz-adv-x="2043" d="M121 535v438q0 113 8 198.5t38 147t84 102.5t147.5 64.5t229.5 34t328 10.5h144q190 0 327.5 -10.5t229.5 -34t147.5 -64.5t84 -102.5t36.5 -147.5t8 -198v-25h-186v25q0 123 -13.5 195.5t-76 110.5t-193.5 50t-364 12h-144q-156 0 -265 -5t-181 -18t-113 -39t-61.5 -67 t-24.5 -99t-4 -140v-438q0 -80 4 -139.5t24.5 -100.5t61.5 -66.5t113 -39t180.5 -18.5t265.5 -5h144q233 0 364 11t193.5 46t76 96.5t13.5 163.5v23h186v-23q0 -96 -8 -171.5t-36.5 -132t-84 -95.5t-147.5 -62.5t-229.5 -34t-327.5 -10.5h-144q-193 0 -328.5 10.5t-229 34 t-147.5 64.5t-84 102.5t-38 147.5t-8 199zM963 -129h186v-174h-186v174zM963 1638v174h186v-174h-186z" />
<glyph unicode="&#xa3;" horiz-adv-x="1912" d="M82 -23v189h186v424h-186v188h186v195q0 113 8.5 198.5t34 147t73.5 102.5t128 64.5t196.5 34t280.5 10.5h68q164 0 280.5 -10.5t196.5 -34t128 -64.5t73.5 -102.5t34 -147.5t8.5 -198v-152h-187v152q0 123 -11 195.5t-63.5 110.5t-160 50t-299.5 12h-68q-193 0 -300 -12 t-159.5 -50t-63.5 -110.5t-11 -195.5v-195h888v-188h-888v-424h1341v-189h-1714z" />
<glyph unicode="&#xa5;" horiz-adv-x="1492" d="M27 1419l129 133l628 -624q29 -29 29 -68v-117h440v-186h-440v-182h440v-187h-440v-188h-186v188h-424v187h424v182h-424v186h424v78zM993 1217l340 335l133 -131l-342 -338z" />
<glyph unicode="&#xa6;" horiz-adv-x="686" d="M250 -217v858h188v-858h-188zM250 866v858h188v-858h-188z" />
<glyph unicode="&#xa8;" horiz-adv-x="946" d="M152 1679v242h188v-242h-188zM606 1679v242h189v-242h-189z" />
<glyph unicode="&#xaa;" horiz-adv-x="1228" d="M16 707l437 770q23 33 57 32h160q20 0 31.5 -8t21.5 -24l438 -770l-110 -64l-418 737h-90l-418 -737zM524 1063v123h129v-123h-129z" />
<glyph unicode="&#xab;" horiz-adv-x="1013" d="M57 705v192q0 55 47 80l254 141l91 -160l-211 -116v-86l211 -117l-91 -160l-254 144q-47 23 -47 82zM565 705v192q0 55 47 80l254 141l91 -160l-211 -116v-86l211 -117l-91 -160l-254 144q-47 23 -47 82z" />
<glyph unicode="&#xad;" horiz-adv-x="757" d="M49 696v187h660v-187h-660z" />
<glyph unicode="&#xaf;" horiz-adv-x="1179" d="M152 1686v186h876v-186h-876z" />
<glyph unicode="&#xb0;" horiz-adv-x="952" d="M123 1145v170q0 66 8 107.5t39 65t90 33t162 9.5h104q104 0 164 -9.5t89.5 -33t37.5 -65.5t8 -107v-170q0 -66 -8 -108t-37.5 -65.5t-89 -32.5t-164.5 -9h-104q-102 0 -161.5 9t-90.5 32.5t-39 65.5t-8 108zM303 1194q0 -27 4 -44t18.5 -26.5t44 -13.5t79.5 -4h51 q49 0 77.5 4t43 13.5t18.5 26.5t4 44v72q0 27 -4 44t-18.5 26.5t-43 13.5t-77.5 4h-51q-49 0 -79 -4t-44.5 -13.5t-18.5 -27t-4 -43.5v-72z" />
<glyph unicode="&#xb1;" horiz-adv-x="1351" d="M152 92h1048v-186h-1048v186zM152 686v186h432v433h186v-433h430v-186h-430v-430h-186v430h-432z" />
<glyph unicode="&#xb2;" horiz-adv-x="1130" d="M84 752v100q0 74 16.5 124t57.5 82t110.5 45t177.5 13h377q55 0 77 20.5t22 92.5v35q0 43 -6.5 69.5t-34 42t-82 20.5t-152.5 5h-160q-98 0 -153 -7t-82 -28.5t-33 -59.5t-6 -99v-29h-127v29q0 94 11.5 156.5t53.5 99t121.5 51t214.5 14.5h160q135 0 214 -12.5t121 -42 t53.5 -79.5t11.5 -126v-43q0 -70 -12.5 -115t-39 -71.5t-69.5 -37t-103 -10.5h-377q-78 0 -125 -5t-71.5 -20t-31.5 -42t-7 -72v-55h364v-125h-425q-66 0 -66 80z" />
<glyph unicode="&#xb3;" horiz-adv-x="1175" d="M90 930v27h127v-29q0 -45 9.5 -73.5t39 -46t82.5 -24t141 -6.5h193q82 0 135 8.5t85 25t44 44t12 66.5q0 35 -3 56.5t-10 34.5t-22.5 19.5t-39.5 12.5q-31 6 -43.5 19.5t-12.5 37.5q0 41 41 57l-2 -2q37 16 49.5 35t12.5 60t-8.5 69.5t-38 46t-85 25.5t-147.5 8h-160 q-98 0 -152 -7t-81 -28.5t-33 -59.5t-6 -99v-25h-127v25q0 94 11.5 156.5t53.5 99t120.5 51t213.5 14.5h160q123 0 202 -14.5t124 -46t61.5 -86t16.5 -134.5q0 -84 -52 -129q37 -23 58.5 -63.5t21.5 -134.5t-29.5 -148.5t-83 -81t-127 -34t-159.5 -7.5h-193 q-127 0 -204.5 13.5t-120.5 45.5t-58.5 86t-15.5 136z" />
<glyph unicode="&#xb4;" horiz-adv-x="700" d="M145 1720l263 267l135 -123l-260 -269z" />
<glyph unicode="&#xb7;" horiz-adv-x="491" d="M152 662v240h188v-240h-188z" />
<glyph unicode="&#xb8;" horiz-adv-x="628" d="M152 -137q0 94 96 94h229v-186h-139v-242h-90q-96 0 -96 96v238z" />
<glyph unicode="&#xb9;" horiz-adv-x="686" d="M20 1225l279 264q14 18 41 19h170q61 0 61 -64v-772h-122v709h-84l-259 -246z" />
<glyph unicode="&#xba;" horiz-adv-x="1275" d="M94 963v233q0 94 12.5 155.5t58.5 96.5t138 48t252 13h156q160 0 251 -13t138 -48t59 -96.5t12 -155.5v-233q0 -96 -12 -158t-59 -96.5t-138.5 -48t-250.5 -13.5h-156q-160 0 -252 13.5t-138 48t-58.5 96t-12.5 158.5zM217 963q0 -63 7 -100.5t40 -57t100.5 -24.5 t190.5 -5h156q121 0 188.5 5t99 24.5t38.5 56.5t7 101v233q0 61 -7 97t-38.5 55.5t-99.5 25.5t-188 6h-156q-123 0 -190.5 -6t-100.5 -25.5t-40 -55.5t-7 -97v-233z" />
<glyph unicode="&#xbb;" horiz-adv-x="1013" d="M57 639l209 117v86l-209 116l90 160l254 -141q47 -25 48 -80v-192q0 -59 -48 -82l-254 -144zM565 639l209 117v86l-209 116l90 160l254 -141q47 -25 48 -80v-192q0 -59 -48 -82l-254 -144z" />
<glyph unicode="&#xbc;" horiz-adv-x="2258" d="M122 1225l279 264q14 18 41 19h170q61 0 61 -64v-772h-122v709h-84l-259 -246zM235 47l1507 1505l95 -94l-1506 -1501zM1137 174v172q0 33 24 55l570 422v-2q10 10 19 12.5t19 2.5h177q61 0 61 -64v-315h131v-127h-192q-66 0 -66 65v314h-90l-528 -394v-82h426 q63 0 63 -59v-174h-127v111h-424q-63 0 -63 63z" />
<glyph unicode="&#xbd;" horiz-adv-x="2334" d="M122 1225l279 264q14 18 41 19h170q61 0 61 -64v-772h-122v709h-84l-259 -246zM235 47l1507 1505l95 -94l-1506 -1501zM1249 80v100q0 74 16.5 124t57.5 82t110.5 45t177.5 13h377q55 0 77 20.5t22 92.5v35q0 43 -6.5 69.5t-34 42t-82 20.5t-152.5 5h-160q-98 0 -153 -7 t-82 -28.5t-33 -59.5t-6 -99v-29h-127v29q0 94 11.5 156.5t53.5 99t121.5 51t214.5 14.5h160q135 0 214 -12.5t121 -42t53.5 -79.5t11.5 -126v-43q0 -70 -12.5 -115t-39 -71.5t-69.5 -37t-103 -10.5h-377q-78 0 -125 -5t-71.5 -20t-31.5 -42t-7 -72v-55h364v-125h-425 q-66 0 -66 80z" />
<glyph unicode="&#xbe;" horiz-adv-x="2494" d="M121 930v27h127v-29q0 -45 9.5 -73.5t39 -46t82.5 -24t141 -6.5h193q82 0 135 8.5t85 25t44 44t12 66.5q0 35 -3 56.5t-10 34.5t-22.5 19.5t-39.5 12.5q-31 6 -43.5 19.5t-12.5 37.5q0 41 41 57l-2 -2q37 16 49.5 35t12.5 60t-8.5 69.5t-38 46t-85 25.5t-147.5 8h-160 q-98 0 -152 -7t-81 -28.5t-33 -59.5t-6 -99v-25h-127v25q0 94 11.5 156.5t53.5 99t120.5 51t213.5 14.5h160q123 0 202 -14.5t124 -46t61.5 -86t16.5 -134.5q0 -84 -52 -129q37 -23 58.5 -63.5t21.5 -134.5t-29.5 -148.5t-83 -81t-127 -34t-159.5 -7.5h-193 q-127 0 -204.5 13.5t-120.5 45.5t-58.5 86t-15.5 136zM528 47l1507 1505l95 -94l-1506 -1501zM1373 174v172q0 33 24 55l570 422v-2q10 10 19 12.5t19 2.5h177q61 0 61 -64v-315h131v-127h-192q-66 0 -66 65v314h-90l-528 -394v-82h426q63 0 63 -59v-174h-127v111h-424 q-63 0 -63 63z" />
<glyph unicode="&#xbf;" horiz-adv-x="1632" d="M57 424v88q0 137 28 232.5t85 154.5t143 85t201 26h166q47 0 47 55v41h188v-100q0 -174 -165 -175h-209q-92 0 -150.5 -15t-90.5 -51t-44 -97.5t-12 -153.5v-88q0 -80 11 -131t63.5 -80t160 -39t299.5 -10h88q193 0 299.5 11t158.5 43t63.5 89.5t11.5 149.5v110h186v-118 q0 -139 -20.5 -230.5t-94 -144.5t-216 -76t-388.5 -23h-88q-246 0 -389 21.5t-217 74t-94.5 137.5t-20.5 214zM727 1262v247h188v-247h-188z" />
<glyph unicode="&#xc0;" d="M27 45l800 1415q27 49 82 49h303q51 0 80 -49l799 -1415l-164 -88l-772 1366h-192l-773 -1366zM758 1864l135 123l262 -267l-137 -125zM961 723v186h194v-186h-194z" />
<glyph unicode="&#xc1;" d="M27 45l800 1415q27 49 82 49h303q51 0 80 -49l799 -1415l-164 -88l-772 1366h-192l-773 -1366zM961 723v186h194v-186h-194zM962 1720l263 267l135 -123l-260 -269z" />
<glyph unicode="&#xc2;" d="M27 45l800 1415q27 49 82 49h303q51 0 80 -49l799 -1415l-164 -88l-772 1366h-192l-773 -1366zM740 1686l143 253q23 47 82 48h192q55 0 80 -48l142 -253l-160 -91l-117 209h-84l-119 -209zM961 723v186h194v-186h-194z" />
<glyph unicode="&#xc3;" d="M27 45l800 1415q27 49 82 49h303q51 0 80 -49l799 -1415l-164 -88l-772 1366h-192l-773 -1366zM621 1686v186h876v-186h-876zM961 723v186h194v-186h-194z" />
<glyph unicode="&#xc4;" d="M27 45l800 1415q27 49 82 49h303q51 0 80 -49l799 -1415l-164 -88l-772 1366h-192l-773 -1366zM738 1679v242h188v-242h-188zM961 723v186h194v-186h-194zM1192 1679v242h189v-242h-189z" />
<glyph unicode="&#xc5;" d="M27 45l800 1415q27 49 82 49h303q51 0 80 -49l799 -1415l-164 -88l-772 1366h-192l-773 -1366zM828 1692v155q0 43 5 70t24.5 42t58.5 21.5t106 6.5h70q68 0 106.5 -6.5t58 -21.5t24.5 -42t5 -70v-155q0 -43 -5 -71t-24.5 -43t-58.5 -21.5t-106 -6.5h-70 q-68 0 -106.5 6.5t-58 21.5t-24.5 43t-5 71zM944 1722q0 -35 15.5 -46t81.5 -11h34q63 0 78 11.5t15 45.5v93q0 35 -14.5 46t-78.5 11h-34q-66 0 -81.5 -11.5t-15.5 -45.5v-93zM961 723v186h194v-186h-194z" />
<glyph unicode="&#xc6;" horiz-adv-x="2912" d="M27 45l800 1415q27 49 82 49h1917v-186h-1292l133 -1137h1161v-186h-1235q-86 0 -92 82l-145 1241h-393l-773 -1366zM961 723v186h194v-186h-194zM2578 723v186h199v-186h-199z" />
<glyph unicode="&#xc7;" horiz-adv-x="2035" d="M121 535v438q0 113 8 198.5t38 147t84 102.5t147.5 64.5t229.5 34t328 10.5h144q190 0 327.5 -10.5t229.5 -34t147.5 -64.5t84 -102.5t36.5 -147.5t8 -198v-25h-186v25q0 123 -13.5 195.5t-76 110.5t-193.5 50t-364 12h-144q-156 0 -265 -5t-181 -18t-113 -39t-61.5 -67 t-24.5 -99t-4 -140v-438q0 -80 4 -139.5t24.5 -100.5t61.5 -66.5t113 -39t180.5 -18.5t265.5 -5h144q233 0 364 11t193.5 46t76 96.5t13.5 163.5v23h186v-23q0 -96 -8 -171.5t-36.5 -132t-84 -95.5t-147.5 -62.5t-229.5 -34t-327.5 -10.5h-144q-193 0 -328.5 10.5t-229 34 t-147.5 64.5t-84 102.5t-38 147.5t-8 199zM854 -137q0 94 96 94h229v-186h-139v-242h-90q-96 0 -96 96v238z" />
<glyph unicode="&#xc8;" horiz-adv-x="1718" d="M152 96v1319q0 94 92 94h1388v-186h-1294v-1137h1296v-186h-1390q-92 0 -92 96zM625 1864l135 123l262 -267l-137 -125zM1384 723v186h197v-186h-197z" />
<glyph unicode="&#xc9;" horiz-adv-x="1718" d="M152 96v1319q0 94 92 94h1388v-186h-1294v-1137h1296v-186h-1390q-92 0 -92 96zM827 1720l263 267l135 -123l-260 -269zM1384 723v186h197v-186h-197z" />
<glyph unicode="&#xca;" horiz-adv-x="1718" d="M152 96v1319q0 94 92 94h1388v-186h-1294v-1137h1296v-186h-1390q-92 0 -92 96zM605 1686l143 253q23 47 82 48h192q55 0 80 -48l142 -253l-160 -91l-117 209h-84l-119 -209zM1384 723v186h197v-186h-197z" />
<glyph unicode="&#xcb;" horiz-adv-x="1718" d="M152 96v1319q0 94 92 94h1388v-186h-1294v-1137h1296v-186h-1390q-92 0 -92 96zM603 1679v242h188v-242h-188zM1057 1679v242h189v-242h-189zM1384 723v186h197v-186h-197z" />
<glyph unicode="&#xcc;" horiz-adv-x="491" d="M-53 1864l135 123l262 -267l-137 -125zM152 0v1509h188v-1509h-188z" />
<glyph unicode="&#xcd;" horiz-adv-x="491" d="M149 1720l263 267l135 -123l-260 -269zM152 0v1509h188v-1509h-188z" />
<glyph unicode="&#xce;" horiz-adv-x="491" d="M-71 1686l143 253q23 47 82 48h192q55 0 80 -48l142 -253l-160 -91l-117 209h-84l-119 -209zM152 0v1509h188v-1509h-188z" />
<glyph unicode="&#xcf;" horiz-adv-x="491" d="M-73 1679v242h188v-242h-188zM152 0v1509h188v-1509h-188zM381 1679v242h189v-242h-189z" />
<glyph unicode="&#xd0;" horiz-adv-x="2232" d="M0 696v187h152v532q0 94 94 94h1030q193 0 329 -10t229 -33.5t147.5 -64.5t84 -102.5t37.5 -147.5t8 -199v-395q0 -113 -8 -199t-37.5 -147t-84 -102t-147.5 -65t-229.5 -34t-328.5 -10h-1030q-94 0 -94 96v600h-152zM340 188h936q156 0 265.5 5.5t181 18.5t112.5 38.5 t61.5 66.5t24.5 99.5t4 140.5v395q0 80 -4 139.5t-24.5 100.5t-61.5 66.5t-112.5 40t-181 19.5t-265.5 5h-936v-440h989v-187h-989v-508z" />
<glyph unicode="&#xd1;" horiz-adv-x="2277" d="M152 0v1415q0 94 96 94h311q23 0 38 -7t30 -19l1126 -1133l-131 -133l-1100 1106h-184v-1323h-186zM701 1686v186h876v-186h-876zM1939 0v1509h187v-1509h-187z" />
<glyph unicode="&#xd2;" horiz-adv-x="2203" d="M121 535v438q0 113 8 198.5t38 147t84 102.5t147.5 64.5t229.5 34t328 10.5h293q190 0 327.5 -10.5t229.5 -34t147.5 -64.5t84 -102.5t37 -147.5t8.5 -198v-438q0 -113 -8.5 -199t-37 -147.5t-84 -102.5t-147.5 -64.5t-229 -34t-328 -10.5h-293q-193 0 -328.5 10.5 t-229 34t-147.5 64.5t-84 102.5t-38 147.5t-8 199zM307 535q0 -80 4 -139.5t24.5 -100.5t61.5 -66.5t113 -39t180.5 -18.5t265.5 -5h293q233 0 364.5 12t194 51t75.5 112t13 194v438q0 123 -13 195.5t-75.5 110.5t-193.5 50t-365 12h-293q-156 0 -265 -5t-181 -18t-113 -39 t-61.5 -67t-24.5 -99t-4 -140v-438zM801 1864l135 123l262 -267l-137 -125z" />
<glyph unicode="&#xd3;" horiz-adv-x="2203" d="M121 535v438q0 113 8 198.5t38 147t84 102.5t147.5 64.5t229.5 34t328 10.5h293q190 0 327.5 -10.5t229.5 -34t147.5 -64.5t84 -102.5t37 -147.5t8.5 -198v-438q0 -113 -8.5 -199t-37 -147.5t-84 -102.5t-147.5 -64.5t-229 -34t-328 -10.5h-293q-193 0 -328.5 10.5 t-229 34t-147.5 64.5t-84 102.5t-38 147.5t-8 199zM307 535q0 -80 4 -139.5t24.5 -100.5t61.5 -66.5t113 -39t180.5 -18.5t265.5 -5h293q233 0 364.5 12t194 51t75.5 112t13 194v438q0 123 -13 195.5t-75.5 110.5t-193.5 50t-365 12h-293q-156 0 -265 -5t-181 -18t-113 -39 t-61.5 -67t-24.5 -99t-4 -140v-438zM1005 1720l263 267l135 -123l-260 -269z" />
<glyph unicode="&#xd4;" horiz-adv-x="2203" d="M121 535v438q0 113 8 198.5t38 147t84 102.5t147.5 64.5t229.5 34t328 10.5h293q190 0 327.5 -10.5t229.5 -34t147.5 -64.5t84 -102.5t37 -147.5t8.5 -198v-438q0 -113 -8.5 -199t-37 -147.5t-84 -102.5t-147.5 -64.5t-229 -34t-328 -10.5h-293q-193 0 -328.5 10.5 t-229 34t-147.5 64.5t-84 102.5t-38 147.5t-8 199zM307 535q0 -80 4 -139.5t24.5 -100.5t61.5 -66.5t113 -39t180.5 -18.5t265.5 -5h293q233 0 364.5 12t194 51t75.5 112t13 194v438q0 123 -13 195.5t-75.5 110.5t-193.5 50t-365 12h-293q-156 0 -265 -5t-181 -18t-113 -39 t-61.5 -67t-24.5 -99t-4 -140v-438zM783 1686l143 253q23 47 82 48h192q55 0 80 -48l142 -253l-160 -91l-117 209h-84l-119 -209z" />
<glyph unicode="&#xd5;" horiz-adv-x="2203" d="M121 535v438q0 113 8 198.5t38 147t84 102.5t147.5 64.5t229.5 34t328 10.5h293q190 0 327.5 -10.5t229.5 -34t147.5 -64.5t84 -102.5t37 -147.5t8.5 -198v-438q0 -113 -8.5 -199t-37 -147.5t-84 -102.5t-147.5 -64.5t-229 -34t-328 -10.5h-293q-193 0 -328.5 10.5 t-229 34t-147.5 64.5t-84 102.5t-38 147.5t-8 199zM307 535q0 -80 4 -139.5t24.5 -100.5t61.5 -66.5t113 -39t180.5 -18.5t265.5 -5h293q233 0 364.5 12t194 51t75.5 112t13 194v438q0 123 -13 195.5t-75.5 110.5t-193.5 50t-365 12h-293q-156 0 -265 -5t-181 -18t-113 -39 t-61.5 -67t-24.5 -99t-4 -140v-438zM664 1686v186h876v-186h-876z" />
<glyph unicode="&#xd6;" horiz-adv-x="2203" d="M121 535v438q0 113 8 198.5t38 147t84 102.5t147.5 64.5t229.5 34t328 10.5h293q190 0 327.5 -10.5t229.5 -34t147.5 -64.5t84 -102.5t37 -147.5t8.5 -198v-438q0 -113 -8.5 -199t-37 -147.5t-84 -102.5t-147.5 -64.5t-229 -34t-328 -10.5h-293q-193 0 -328.5 10.5 t-229 34t-147.5 64.5t-84 102.5t-38 147.5t-8 199zM307 535q0 -80 4 -139.5t24.5 -100.5t61.5 -66.5t113 -39t180.5 -18.5t265.5 -5h293q233 0 364.5 12t194 51t75.5 112t13 194v438q0 123 -13 195.5t-75.5 110.5t-193.5 50t-365 12h-293q-156 0 -265 -5t-181 -18t-113 -39 t-61.5 -67t-24.5 -99t-4 -140v-438zM781 1679v242h188v-242h-188zM1235 1679v242h189v-242h-189z" />
<glyph unicode="&#xd7;" horiz-adv-x="1179" d="M152 475l305 305l-305 305l133 134l305 -306l305 306l133 -134l-307 -305l307 -305l-133 -133l-305 305l-305 -305z" />
<glyph unicode="&#xd8;" horiz-adv-x="2203" d="M121 535v438q0 113 8 198.5t38 147t84 102.5t147.5 64.5t229.5 34t328 10.5h293q141 0 262 -6l142 215l157 -105l-90 -131q123 -20 195 -59t108.5 -101.5t48 -153.5t11.5 -216v-438q0 -113 -8.5 -199t-37 -147.5t-84 -102.5t-147.5 -64.5t-229 -34t-328 -10.5h-293 q-72 0 -134 2.5t-120 6.5l-155 -238l-158 105l100 149q-125 18 -197.5 57t-110.5 102.5t-49 155t-11 218.5zM307 535q0 -92 7.5 -157t36 -106t89 -63.5t166.5 -30.5l780 1163h-430q-156 0 -265 -5t-181 -18t-113 -39t-61.5 -67t-24.5 -99t-4 -140v-438zM825 166h424 q233 0 364.5 12t194 51t75.5 112t13 194v438q0 92 -6 155.5t-34.5 104.5t-87 64.5t-162.5 33.5z" />
<glyph unicode="&#xd9;" horiz-adv-x="2150" d="M143 535v974h187v-974q0 -121 13 -194t75.5 -112t192.5 -51t366 -12h194q156 0 265.5 5t181.5 18.5t113 39t61 66.5t24.5 99.5t4.5 140.5v974h186v-974q0 -113 -8 -199t-38 -147.5t-84 -102.5t-147.5 -64.5t-229.5 -34t-329 -10.5h-194q-287 0 -454 24t-251 85 t-106.5 170t-22.5 279zM774 1864l135 123l262 -267l-137 -125z" />
<glyph unicode="&#xda;" horiz-adv-x="2150" d="M143 535v974h187v-974q0 -121 13 -194t75.5 -112t192.5 -51t366 -12h194q156 0 265.5 5t181.5 18.5t113 39t61 66.5t24.5 99.5t4.5 140.5v974h186v-974q0 -113 -8 -199t-38 -147.5t-84 -102.5t-147.5 -64.5t-229.5 -34t-329 -10.5h-194q-287 0 -454 24t-251 85 t-106.5 170t-22.5 279zM976 1720l263 267l135 -123l-260 -269z" />
<glyph unicode="&#xdb;" horiz-adv-x="2150" d="M143 535v974h187v-974q0 -121 13 -194t75.5 -112t192.5 -51t366 -12h194q156 0 265.5 5t181.5 18.5t113 39t61 66.5t24.5 99.5t4.5 140.5v974h186v-974q0 -113 -8 -199t-38 -147.5t-84 -102.5t-147.5 -64.5t-229.5 -34t-329 -10.5h-194q-287 0 -454 24t-251 85 t-106.5 170t-22.5 279zM754 1686l143 253q23 47 82 48h192q55 0 80 -48l142 -253l-160 -91l-117 209h-84l-119 -209z" />
<glyph unicode="&#xdc;" horiz-adv-x="2150" d="M143 535v974h187v-974q0 -121 13 -194t75.5 -112t192.5 -51t366 -12h194q156 0 265.5 5t181.5 18.5t113 39t61 66.5t24.5 99.5t4.5 140.5v974h186v-974q0 -113 -8 -199t-38 -147.5t-84 -102.5t-147.5 -64.5t-229.5 -34t-329 -10.5h-194q-287 0 -454 24t-251 85 t-106.5 170t-22.5 279zM752 1679v242h188v-242h-188zM1206 1679v242h189v-242h-189z" />
<glyph unicode="&#xdd;" horiz-adv-x="2127" d="M16 1419l131 133l908 -907q29 -27 28 -65v-580h-186v539zM966 1720l263 267l135 -123l-260 -269zM1243 827l731 725l135 -131l-733 -725z" />
<glyph unicode="&#xde;" horiz-adv-x="1994" d="M152 0v1509h186v-260h917q205 0 333 -26.5t200 -89t98.5 -166.5t26.5 -260q0 -152 -23.5 -253.5t-85 -162t-168 -86t-274.5 -25.5h-348v187h354q113 0 182.5 15t108.5 54t52 106.5t13 172.5q0 109 -15 177.5t-64.5 106t-143.5 51t-250 13.5h-913v-1063h-186z" />
<glyph unicode="&#xdf;" horiz-adv-x="4022" d="M121 432v51h186v-47q0 -88 19.5 -141t77 -82t163 -38t275.5 -9h313q176 0 283.5 8t166 33.5t78 72t19.5 121.5v82q0 51 -13.5 84t-51.5 52.5t-105.5 27.5t-173.5 8q-154 0 -310.5 -5t-310.5 -5q-135 0 -246.5 12.5t-190.5 54.5t-123 118.5t-44 205.5v86q0 121 28.5 200 t107.5 125t219.5 64.5t363.5 18.5h295q215 0 357.5 -16.5t226.5 -58.5t118.5 -115.5t34.5 -188.5v-43h-186v27q0 66 -26.5 105.5t-89 62t-168 30.5t-263.5 8h-309q-164 0 -266.5 -8t-160 -31.5t-77 -66.5t-19.5 -113v-84q0 -57 15.5 -97t61.5 -64.5t127 -35t214 -10.5 q182 0 364.5 6.5t364.5 6.5q119 0 200 -25.5t130 -72t70.5 -110t21.5 -136.5v-92q0 -127 -27.5 -210t-106.5 -132.5t-221 -69t-374 -19.5h-311q-227 0 -368.5 19.5t-221.5 71t-108.5 139.5t-28.5 225zM2132 432v51h186v-47q0 -88 19.5 -141t77 -82t163 -38t275.5 -9h313 q176 0 283.5 8t166 33.5t78 72t19.5 121.5v82q0 51 -13.5 84t-51.5 52.5t-105.5 27.5t-173.5 8q-154 0 -310.5 -5t-310.5 -5q-135 0 -246.5 12.5t-190.5 54.5t-123 118.5t-44 205.5v86q0 121 28.5 200t107.5 125t219.5 64.5t363.5 18.5h295q215 0 357.5 -16.5t226.5 -58.5 t118.5 -115.5t34.5 -188.5v-43h-186v27q0 66 -26.5 105.5t-89 62t-168 30.5t-263.5 8h-309q-164 0 -266.5 -8t-160 -31.5t-77 -66.5t-19.5 -113v-84q0 -57 15.5 -97t61.5 -64.5t127 -35t214 -10.5q182 0 364.5 6.5t364.5 6.5q119 0 200 -25.5t130 -72t70.5 -110t21.5 -136.5 v-92q0 -127 -27.5 -210t-106.5 -132.5t-221 -69t-374 -19.5h-311q-227 0 -368.5 19.5t-221.5 71t-108.5 139.5t-28.5 225z" />
<glyph unicode="&#xe0;" d="M27 45l800 1415q27 49 82 49h303q51 0 80 -49l799 -1415l-164 -88l-772 1366h-192l-773 -1366zM758 1864l135 123l262 -267l-137 -125zM961 723v186h194v-186h-194z" />
<glyph unicode="&#xe1;" d="M27 45l800 1415q27 49 82 49h303q51 0 80 -49l799 -1415l-164 -88l-772 1366h-192l-773 -1366zM961 723v186h194v-186h-194zM962 1720l263 267l135 -123l-260 -269z" />
<glyph unicode="&#xe2;" d="M27 45l800 1415q27 49 82 49h303q51 0 80 -49l799 -1415l-164 -88l-772 1366h-192l-773 -1366zM740 1686l143 253q23 47 82 48h192q55 0 80 -48l142 -253l-160 -91l-117 209h-84l-119 -209zM961 723v186h194v-186h-194z" />
<glyph unicode="&#xe3;" d="M27 45l800 1415q27 49 82 49h303q51 0 80 -49l799 -1415l-164 -88l-772 1366h-192l-773 -1366zM621 1686v186h876v-186h-876zM961 723v186h194v-186h-194z" />
<glyph unicode="&#xe4;" d="M27 45l800 1415q27 49 82 49h303q51 0 80 -49l799 -1415l-164 -88l-772 1366h-192l-773 -1366zM738 1679v242h188v-242h-188zM961 723v186h194v-186h-194zM1192 1679v242h189v-242h-189z" />
<glyph unicode="&#xe5;" d="M27 45l800 1415q27 49 82 49h303q51 0 80 -49l799 -1415l-164 -88l-772 1366h-192l-773 -1366zM828 1692v155q0 43 5 70t24.5 42t58.5 21.5t106 6.5h70q68 0 106.5 -6.5t58 -21.5t24.5 -42t5 -70v-155q0 -43 -5 -71t-24.5 -43t-58.5 -21.5t-106 -6.5h-70 q-68 0 -106.5 6.5t-58 21.5t-24.5 43t-5 71zM944 1722q0 -35 15.5 -46t81.5 -11h34q63 0 78 11.5t15 45.5v93q0 35 -14.5 46t-78.5 11h-34q-66 0 -81.5 -11.5t-15.5 -45.5v-93zM961 723v186h194v-186h-194z" />
<glyph unicode="&#xe6;" horiz-adv-x="2912" d="M27 45l800 1415q27 49 82 49h1917v-186h-1292l133 -1137h1161v-186h-1235q-86 0 -92 82l-145 1241h-393l-773 -1366zM961 723v186h194v-186h-194zM2578 723v186h199v-186h-199z" />
<glyph unicode="&#xe7;" horiz-adv-x="2035" d="M121 535v438q0 113 8 198.5t38 147t84 102.5t147.5 64.5t229.5 34t328 10.5h144q190 0 327.5 -10.5t229.5 -34t147.5 -64.5t84 -102.5t36.5 -147.5t8 -198v-25h-186v25q0 123 -13.5 195.5t-76 110.5t-193.5 50t-364 12h-144q-156 0 -265 -5t-181 -18t-113 -39t-61.5 -67 t-24.5 -99t-4 -140v-438q0 -80 4 -139.5t24.5 -100.5t61.5 -66.5t113 -39t180.5 -18.5t265.5 -5h144q233 0 364 11t193.5 46t76 96.5t13.5 163.5v23h186v-23q0 -96 -8 -171.5t-36.5 -132t-84 -95.5t-147.5 -62.5t-229.5 -34t-327.5 -10.5h-144q-193 0 -328.5 10.5t-229 34 t-147.5 64.5t-84 102.5t-38 147.5t-8 199zM854 -137q0 94 96 94h229v-186h-139v-242h-90q-96 0 -96 96v238z" />
<glyph unicode="&#xe8;" horiz-adv-x="1718" d="M152 96v1319q0 94 92 94h1388v-186h-1294v-1137h1296v-186h-1390q-92 0 -92 96zM625 1864l135 123l262 -267l-137 -125zM1384 723v186h197v-186h-197z" />
<glyph unicode="&#xe9;" horiz-adv-x="1718" d="M152 96v1319q0 94 92 94h1388v-186h-1294v-1137h1296v-186h-1390q-92 0 -92 96zM827 1720l263 267l135 -123l-260 -269zM1384 723v186h197v-186h-197z" />
<glyph unicode="&#xea;" horiz-adv-x="1718" d="M152 96v1319q0 94 92 94h1388v-186h-1294v-1137h1296v-186h-1390q-92 0 -92 96zM605 1686l143 253q23 47 82 48h192q55 0 80 -48l142 -253l-160 -91l-117 209h-84l-119 -209zM1384 723v186h197v-186h-197z" />
<glyph unicode="&#xeb;" horiz-adv-x="1718" d="M152 96v1319q0 94 92 94h1388v-186h-1294v-1137h1296v-186h-1390q-92 0 -92 96zM603 1679v242h188v-242h-188zM1057 1679v242h189v-242h-189zM1384 723v186h197v-186h-197z" />
<glyph unicode="&#xec;" horiz-adv-x="491" d="M-53 1864l135 123l262 -267l-137 -125zM152 0v1509h188v-1509h-188z" />
<glyph unicode="&#xed;" horiz-adv-x="491" d="M149 1720l263 267l135 -123l-260 -269zM152 0v1509h188v-1509h-188z" />
<glyph unicode="&#xee;" horiz-adv-x="491" d="M-71 1686l143 253q23 47 82 48h192q55 0 80 -48l142 -253l-160 -91l-117 209h-84l-119 -209zM152 0v1509h188v-1509h-188z" />
<glyph unicode="&#xef;" horiz-adv-x="491" d="M-73 1679v242h188v-242h-188zM152 0v1509h188v-1509h-188zM381 1679v242h189v-242h-189z" />
<glyph unicode="&#xf0;" horiz-adv-x="2232" d="M0 696v187h152v532q0 94 94 94h1030q193 0 329 -10t229 -33.5t147.5 -64.5t84 -102.5t37.5 -147.5t8 -199v-395q0 -113 -8 -199t-37.5 -147t-84 -102t-147.5 -65t-229.5 -34t-328.5 -10h-1030q-94 0 -94 96v600h-152zM340 188h936q156 0 265.5 5.5t181 18.5t112.5 38.5 t61.5 66.5t24.5 99.5t4 140.5v395q0 80 -4 139.5t-24.5 100.5t-61.5 66.5t-112.5 40t-181 19.5t-265.5 5h-936v-440h989v-187h-989v-508z" />
<glyph unicode="&#xf1;" horiz-adv-x="2277" d="M152 0v1415q0 94 96 94h311q23 0 38 -7t30 -19l1126 -1133l-131 -133l-1100 1106h-184v-1323h-186zM701 1686v186h876v-186h-876zM1939 0v1509h187v-1509h-187z" />
<glyph unicode="&#xf2;" horiz-adv-x="2203" d="M121 535v438q0 113 8 198.5t38 147t84 102.5t147.5 64.5t229.5 34t328 10.5h293q190 0 327.5 -10.5t229.5 -34t147.5 -64.5t84 -102.5t37 -147.5t8.5 -198v-438q0 -113 -8.5 -199t-37 -147.5t-84 -102.5t-147.5 -64.5t-229 -34t-328 -10.5h-293q-193 0 -328.5 10.5 t-229 34t-147.5 64.5t-84 102.5t-38 147.5t-8 199zM307 535q0 -80 4 -139.5t24.5 -100.5t61.5 -66.5t113 -39t180.5 -18.5t265.5 -5h293q233 0 364.5 12t194 51t75.5 112t13 194v438q0 123 -13 195.5t-75.5 110.5t-193.5 50t-365 12h-293q-156 0 -265 -5t-181 -18t-113 -39 t-61.5 -67t-24.5 -99t-4 -140v-438zM801 1864l135 123l262 -267l-137 -125z" />
<glyph unicode="&#xf3;" horiz-adv-x="2203" d="M121 535v438q0 113 8 198.5t38 147t84 102.5t147.5 64.5t229.5 34t328 10.5h293q190 0 327.5 -10.5t229.5 -34t147.5 -64.5t84 -102.5t37 -147.5t8.5 -198v-438q0 -113 -8.5 -199t-37 -147.5t-84 -102.5t-147.5 -64.5t-229 -34t-328 -10.5h-293q-193 0 -328.5 10.5 t-229 34t-147.5 64.5t-84 102.5t-38 147.5t-8 199zM307 535q0 -80 4 -139.5t24.5 -100.5t61.5 -66.5t113 -39t180.5 -18.5t265.5 -5h293q233 0 364.5 12t194 51t75.5 112t13 194v438q0 123 -13 195.5t-75.5 110.5t-193.5 50t-365 12h-293q-156 0 -265 -5t-181 -18t-113 -39 t-61.5 -67t-24.5 -99t-4 -140v-438zM1005 1720l263 267l135 -123l-260 -269z" />
<glyph unicode="&#xf4;" horiz-adv-x="2203" d="M121 535v438q0 113 8 198.5t38 147t84 102.5t147.5 64.5t229.5 34t328 10.5h293q190 0 327.5 -10.5t229.5 -34t147.5 -64.5t84 -102.5t37 -147.5t8.5 -198v-438q0 -113 -8.5 -199t-37 -147.5t-84 -102.5t-147.5 -64.5t-229 -34t-328 -10.5h-293q-193 0 -328.5 10.5 t-229 34t-147.5 64.5t-84 102.5t-38 147.5t-8 199zM307 535q0 -80 4 -139.5t24.5 -100.5t61.5 -66.5t113 -39t180.5 -18.5t265.5 -5h293q233 0 364.5 12t194 51t75.5 112t13 194v438q0 123 -13 195.5t-75.5 110.5t-193.5 50t-365 12h-293q-156 0 -265 -5t-181 -18t-113 -39 t-61.5 -67t-24.5 -99t-4 -140v-438zM783 1686l143 253q23 47 82 48h192q55 0 80 -48l142 -253l-160 -91l-117 209h-84l-119 -209z" />
<glyph unicode="&#xf5;" horiz-adv-x="2203" d="M121 535v438q0 113 8 198.5t38 147t84 102.5t147.5 64.5t229.5 34t328 10.5h293q190 0 327.5 -10.5t229.5 -34t147.5 -64.5t84 -102.5t37 -147.5t8.5 -198v-438q0 -113 -8.5 -199t-37 -147.5t-84 -102.5t-147.5 -64.5t-229 -34t-328 -10.5h-293q-193 0 -328.5 10.5 t-229 34t-147.5 64.5t-84 102.5t-38 147.5t-8 199zM307 535q0 -80 4 -139.5t24.5 -100.5t61.5 -66.5t113 -39t180.5 -18.5t265.5 -5h293q233 0 364.5 12t194 51t75.5 112t13 194v438q0 123 -13 195.5t-75.5 110.5t-193.5 50t-365 12h-293q-156 0 -265 -5t-181 -18t-113 -39 t-61.5 -67t-24.5 -99t-4 -140v-438zM664 1686v186h876v-186h-876z" />
<glyph unicode="&#xf6;" horiz-adv-x="2203" d="M121 535v438q0 113 8 198.5t38 147t84 102.5t147.5 64.5t229.5 34t328 10.5h293q190 0 327.5 -10.5t229.5 -34t147.5 -64.5t84 -102.5t37 -147.5t8.5 -198v-438q0 -113 -8.5 -199t-37 -147.5t-84 -102.5t-147.5 -64.5t-229 -34t-328 -10.5h-293q-193 0 -328.5 10.5 t-229 34t-147.5 64.5t-84 102.5t-38 147.5t-8 199zM307 535q0 -80 4 -139.5t24.5 -100.5t61.5 -66.5t113 -39t180.5 -18.5t265.5 -5h293q233 0 364.5 12t194 51t75.5 112t13 194v438q0 123 -13 195.5t-75.5 110.5t-193.5 50t-365 12h-293q-156 0 -265 -5t-181 -18t-113 -39 t-61.5 -67t-24.5 -99t-4 -140v-438zM781 1679v242h188v-242h-188zM1235 1679v242h189v-242h-189z" />
<glyph unicode="&#xf7;" horiz-adv-x="1351" d="M152 686v186h1048v-186h-1048zM582 109v240h188v-240h-188zM582 1159v240h188v-240h-188z" />
<glyph unicode="&#xf8;" horiz-adv-x="2203" d="M121 535v438q0 113 8 198.5t38 147t84 102.5t147.5 64.5t229.5 34t328 10.5h293q141 0 262 -6l142 215l157 -105l-90 -131q123 -20 195 -59t108.5 -101.5t48 -153.5t11.5 -216v-438q0 -113 -8.5 -199t-37 -147.5t-84 -102.5t-147.5 -64.5t-229 -34t-328 -10.5h-293 q-72 0 -134 2.5t-120 6.5l-155 -238l-158 105l100 149q-125 18 -197.5 57t-110.5 102.5t-49 155t-11 218.5zM307 535q0 -92 7.5 -157t36 -106t89 -63.5t166.5 -30.5l780 1163h-430q-156 0 -265 -5t-181 -18t-113 -39t-61.5 -67t-24.5 -99t-4 -140v-438zM825 166h424 q233 0 364.5 12t194 51t75.5 112t13 194v438q0 92 -6 155.5t-34.5 104.5t-87 64.5t-162.5 33.5z" />
<glyph unicode="&#xf9;" horiz-adv-x="2150" d="M143 535v974h187v-974q0 -121 13 -194t75.5 -112t192.5 -51t366 -12h194q156 0 265.5 5t181.5 18.5t113 39t61 66.5t24.5 99.5t4.5 140.5v974h186v-974q0 -113 -8 -199t-38 -147.5t-84 -102.5t-147.5 -64.5t-229.5 -34t-329 -10.5h-194q-287 0 -454 24t-251 85 t-106.5 170t-22.5 279zM774 1864l135 123l262 -267l-137 -125z" />
<glyph unicode="&#xfa;" horiz-adv-x="2150" d="M143 535v974h187v-974q0 -121 13 -194t75.5 -112t192.5 -51t366 -12h194q156 0 265.5 5t181.5 18.5t113 39t61 66.5t24.5 99.5t4.5 140.5v974h186v-974q0 -113 -8 -199t-38 -147.5t-84 -102.5t-147.5 -64.5t-229.5 -34t-329 -10.5h-194q-287 0 -454 24t-251 85 t-106.5 170t-22.5 279zM976 1720l263 267l135 -123l-260 -269z" />
<glyph unicode="&#xfb;" horiz-adv-x="2150" d="M143 535v974h187v-974q0 -121 13 -194t75.5 -112t192.5 -51t366 -12h194q156 0 265.5 5t181.5 18.5t113 39t61 66.5t24.5 99.5t4.5 140.5v974h186v-974q0 -113 -8 -199t-38 -147.5t-84 -102.5t-147.5 -64.5t-229.5 -34t-329 -10.5h-194q-287 0 -454 24t-251 85 t-106.5 170t-22.5 279zM754 1686l143 253q23 47 82 48h192q55 0 80 -48l142 -253l-160 -91l-117 209h-84l-119 -209z" />
<glyph unicode="&#xfc;" horiz-adv-x="2150" d="M143 535v974h187v-974q0 -121 13 -194t75.5 -112t192.5 -51t366 -12h194q156 0 265.5 5t181.5 18.5t113 39t61 66.5t24.5 99.5t4.5 140.5v974h186v-974q0 -113 -8 -199t-38 -147.5t-84 -102.5t-147.5 -64.5t-229.5 -34t-329 -10.5h-194q-287 0 -454 24t-251 85 t-106.5 170t-22.5 279zM752 1679v242h188v-242h-188zM1206 1679v242h189v-242h-189z" />
<glyph unicode="&#xfd;" horiz-adv-x="2127" d="M16 1419l131 133l908 -907q29 -27 28 -65v-580h-186v539zM966 1720l263 267l135 -123l-260 -269zM1243 827l731 725l135 -131l-733 -725z" />
<glyph unicode="&#xfe;" horiz-adv-x="1994" d="M152 0v1509h186v-260h917q205 0 333 -26.5t200 -89t98.5 -166.5t26.5 -260q0 -152 -23.5 -253.5t-85 -162t-168 -86t-274.5 -25.5h-348v187h354q113 0 182.5 15t108.5 54t52 106.5t13 172.5q0 109 -15 177.5t-64.5 106t-143.5 51t-250 13.5h-913v-1063h-186z" />
<glyph unicode="&#xff;" horiz-adv-x="2127" d="M16 1419l131 133l908 -907q29 -27 28 -65v-580h-186v539zM742 1679v242h188v-242h-188zM1196 1679v242h189v-242h-189zM1243 827l731 725l135 -131l-733 -725z" />
<glyph unicode="&#x152;" horiz-adv-x="3246" d="M121 535v438q0 113 8 198.5t38 147t84 102.5t147.5 64.5t229.5 34t328 10.5h162q248 0 404.5 -16.5t249.5 -61.5q14 57 86 57h1302v-186h-1208v-1137h1210v-186h-1304q-70 0 -86 57q-92 -45 -248 -62.5t-406 -17.5h-162q-193 0 -328.5 10.5t-229 34t-147.5 64.5 t-84 102.5t-38 147.5t-8 199zM307 535q0 -80 4 -139.5t24.5 -100.5t61.5 -66.5t113 -39t180.5 -18.5t265.5 -5h162q236 0 366 12t192.5 51t75.5 112t13 194v438q0 82 -4 140t-24.5 99t-60.5 67t-111.5 39t-181 18t-265.5 5h-162q-156 0 -265 -5t-181 -18t-113 -39t-61.5 -67 t-24.5 -99t-4 -140v-438zM2912 723v186h199v-186h-199z" />
<glyph unicode="&#x153;" horiz-adv-x="3246" d="M121 535v438q0 113 8 198.5t38 147t84 102.5t147.5 64.5t229.5 34t328 10.5h162q248 0 404.5 -16.5t249.5 -61.5q14 57 86 57h1302v-186h-1208v-1137h1210v-186h-1304q-70 0 -86 57q-92 -45 -248 -62.5t-406 -17.5h-162q-193 0 -328.5 10.5t-229 34t-147.5 64.5 t-84 102.5t-38 147.5t-8 199zM307 535q0 -80 4 -139.5t24.5 -100.5t61.5 -66.5t113 -39t180.5 -18.5t265.5 -5h162q236 0 366 12t192.5 51t75.5 112t13 194v438q0 82 -4 140t-24.5 99t-60.5 67t-111.5 39t-181 18t-265.5 5h-162q-156 0 -265 -5t-181 -18t-113 -39t-61.5 -67 t-24.5 -99t-4 -140v-438zM2912 723v186h199v-186h-199z" />
<glyph unicode="&#x178;" horiz-adv-x="2127" d="M16 1419l131 133l908 -907q29 -27 28 -65v-580h-186v539zM742 1679v242h188v-242h-188zM1196 1679v242h189v-242h-189zM1243 827l731 725l135 -131l-733 -725z" />
<glyph unicode="&#x2c6;" horiz-adv-x="942" d="M152 1686l143 253q23 47 82 48h192q55 0 80 -48l142 -253l-160 -91l-117 209h-84l-119 -209z" />
<glyph unicode="&#x2dc;" horiz-adv-x="1179" d="M152 1686v186h876v-186h-876z" />
<glyph unicode="&#x2000;" horiz-adv-x="993" />
<glyph unicode="&#x2001;" horiz-adv-x="1987" />
<glyph unicode="&#x2002;" horiz-adv-x="993" />
<glyph unicode="&#x2003;" horiz-adv-x="1987" />
<glyph unicode="&#x2004;" horiz-adv-x="662" />
<glyph unicode="&#x2005;" horiz-adv-x="496" />
<glyph unicode="&#x2006;" horiz-adv-x="331" />
<glyph unicode="&#x2007;" horiz-adv-x="331" />
<glyph unicode="&#x2008;" horiz-adv-x="248" />
<glyph unicode="&#x2009;" horiz-adv-x="397" />
<glyph unicode="&#x200a;" horiz-adv-x="110" />
<glyph unicode="&#x2010;" horiz-adv-x="757" d="M49 696v187h660v-187h-660z" />
<glyph unicode="&#x2011;" horiz-adv-x="757" d="M49 696v187h660v-187h-660z" />
<glyph unicode="&#x2012;" horiz-adv-x="757" d="M49 696v187h660v-187h-660z" />
<glyph unicode="&#x2013;" horiz-adv-x="1581" d="M49 696v187h1483v-187h-1483z" />
<glyph unicode="&#x2014;" horiz-adv-x="2015" d="M49 696v187h1917v-187h-1917z" />
<glyph unicode="&#x2018;" horiz-adv-x="544" d="M152 1178v237q0 94 96 94h90v-239h139v-189h-229q-96 0 -96 97z" />
<glyph unicode="&#x2019;" horiz-adv-x="544" d="M86 1323v186h229q96 0 97 -94v-237q0 -96 -97 -97h-90v242h-139z" />
<glyph unicode="&#x201a;" horiz-adv-x="544" d="M152 0v186h229q96 0 96 -92v-239q0 -94 -96 -95h-90v240h-139z" />
<glyph unicode="&#x201c;" horiz-adv-x="1087" d="M152 1178v237q0 94 96 94h90v-239h139v-189h-229q-96 0 -96 97zM697 1178v237q0 94 96 94h90v-239h139v-189h-229q-96 0 -96 97z" />
<glyph unicode="&#x201d;" horiz-adv-x="1087" d="M86 1323v186h229q96 0 97 -94v-237q0 -96 -97 -97h-90v242h-139zM631 1323v186h229q96 0 97 -94v-237q0 -96 -97 -97h-90v242h-139z" />
<glyph unicode="&#x201e;" horiz-adv-x="1087" d="M152 0v186h229q96 0 96 -92v-239q0 -94 -96 -95h-90v240h-139zM697 0v186h229q96 0 96 -92v-239q0 -94 -96 -95h-90v240h-139z" />
<glyph unicode="&#x2022;" horiz-adv-x="989" d="M152 664v180q0 70 8 113.5t37.5 69.5t87 35t157.5 9h105q100 0 157.5 -9t86 -35t37 -70t8.5 -113v-180q0 -70 -8.5 -114t-37 -69.5t-86 -35t-157.5 -9.5h-105q-100 0 -157.5 9.5t-87 35t-37.5 69.5t-8 114z" />
<glyph unicode="&#x2026;" horiz-adv-x="1499" d="M176 0v240h189v-240h-189zM655 0v240h189v-240h-189zM1133 0v240h190v-240h-190z" />
<glyph unicode="&#x202f;" horiz-adv-x="397" />
<glyph unicode="&#x2039;" horiz-adv-x="507" d="M57 705v192q0 55 47 80l254 141l91 -160l-211 -116v-86l211 -117l-91 -160l-254 144q-47 23 -47 82z" />
<glyph unicode="&#x203a;" horiz-adv-x="507" d="M57 639l209 117v86l-209 116l90 160l254 -141q47 -25 48 -80v-192q0 -59 -48 -82l-254 -144z" />
<glyph unicode="&#x205f;" horiz-adv-x="496" />
<glyph unicode="&#x20ac;" horiz-adv-x="1761" d="M25 535l63 186h150v119h-213l63 186h150q2 152 26.5 250t100 154.5t217 78t376.5 21.5h285q139 0 243.5 -7t182.5 -24l-108 -172q-57 8 -135 11t-183 3h-285q-182 0 -287.5 -10t-159.5 -44t-70.5 -95.5t-16.5 -165.5h944l-119 -186h-825v-119h747l-118 -186h-629 q0 -121 11 -194t63.5 -112t160 -51t299.5 -12h134q195 0 302 12t158 51l150 -139q-74 -66 -218.5 -89.5t-391.5 -23.5h-134q-164 0 -280.5 10.5t-196.5 34t-128 64.5t-73.5 102.5t-33.5 147.5t-8 199h-213z" />
<glyph unicode="&#x2122;" horiz-adv-x="2392" d="M49 1343v166h823v-166h-823zM383 705v536h154v-536h-154zM1034 705v722q0 82 78 82h178q43 0 66 -41l295 -505l288 505q20 41 66 41h178q80 0 80 -82v-722h-156v638h-59l-330 -585q-27 -45 -67 -45q-16 0 -36 11t-34 34l-336 585h-55v-638h-156z" />
<glyph unicode="&#x25fc;" horiz-adv-x="1556" d="M0 0v1556h1556v-1556h-1556z" />
</font>
</defs>
</svg>
